<?xml version="1.0" encoding="UTF-8" standalone="no"?>
<!-- Created with Inkscape (http://www.inkscape.org/) -->

<svg
   width="508mm"
   height="285.75mm"
   viewBox="0 0 508 285.75"
   version="1.1"
   id="svg5"
   xml:space="preserve"
   xmlns="http://www.w3.org/2000/svg"
   xmlns:svg="http://www.w3.org/2000/svg"><defs
     id="defs2" /><g
     id="layer1"
     transform="translate(-1383.7)"><rect
       style="fill:#fa0000;fill-opacity:1;stroke-width:0.182786;-inkscape-stroke:none;stop-color:#000000"
       id="rect1436-44-31-6"
       width="508.00003"
       height="285.75"
       x="1383.7"
       y="0" /><path
       d="m 1642.9982,248.32165 c -1.7766,-0.61855 -1.1615,-2.92973 -0.9418,-4.35941 0.3437,-2.52158 1.3441,-5.01711 0.8305,-7.58844 0.172,-1.31339 1.5606,-1.69184 2.4716,-2.3382 1.4582,-0.73971 2.7389,-1.88223 3.6429,-3.28289 0.7791,-1.46079 1.0811,-3.10414 2.2771,-4.30755 1.0608,-0.8708 2.1442,-1.65673 3.4279,-2.17493 1.4046,-0.52098 2.7086,-1.07029 3.7142,-2.20757 1.2977,-1.39542 2.2396,-3.17678 3.7482,-4.32824 1.0871,-1.37266 2.5673,-2.41032 3.5581,-3.88691 0.8754,-1.22262 1.7261,-2.45393 2.4422,-3.79451 0.7414,-1.13561 1.8589,-2.52645 1.3479,-4.0175 -0.6986,-1.21034 -2.0042,-1.78953 -3.0858,-2.53749 -1.1353,-0.67736 -2.1877,-1.20962 -3.2245,-1.90486 -1.0145,-0.55677 -2.1511,-1.09163 -3.0763,-1.93752 -1.2456,-0.93032 -1.8437,-2.50158 -2.6159,-3.82508 -0.4908,-1.81101 -2.5237,-2.45815 -3.1256,-4.19182 -0.4788,-0.99046 -1.8483,-2.26196 -2.8792,-1.67328 -1.3832,0.97027 -1.5708,2.88965 -1.5308,4.45877 -0.1033,1.65209 0.156,3.40843 -0.4845,4.97371 -0.9812,0.96706 -1.7986,2.01599 -2.7712,2.89515 -1.2493,0.4725 -2.8714,0.33545 -3.968,-0.36402 -1.6069,-0.32613 -3.3781,-0.83196 -4.9155,-0.005 -0.8089,0.79108 -1.9855,-0.18812 -2.84,0.70465 -1.244,-0.11077 -2.7754,-0.55454 -3.8603,0.22406 -1.7029,0.41817 -3.0042,-1.05212 -4.6647,-0.85179 -1.3045,0.71768 -2.8877,0.26887 -4.3405,0.36076 -1.27,-0.0345 -2.9743,0.69029 -2.7601,-1.22881 -0.59,-1.73246 -4.4886,-0.93226 -3.1505,0.92152 1.1274,1.44965 0.094,3.28374 -0.3602,4.78406 -0.4776,1.30604 -0.6811,2.89474 -1.6288,3.91886 -0.9887,1.17584 -2.7645,0.85075 -4.1782,1.03574 -2.5336,0.11784 -5.0896,0.44808 -7.6166,0.26421 -1.7578,-0.0636 -2.9548,-1.72721 -2.3744,-3.50028 0.5552,-2.81562 0.2866,-5.6911 0.4924,-8.53195 0.3876,-1.34345 1.52,-2.2467 2.5658,-2.99375 0.7101,-0.49024 1.4434,-1.03248 2.1757,-1.66308 1.4472,-1.29686 2.4966,-2.96866 3.7497,-4.42234 0.9981,-1.04369 2.1446,-1.68983 3.5374,-2.00521 1.4215,-0.40521 2.9079,-0.34197 4.3861,-0.25206 1.9659,0.0519 3.9894,0.0462 5.8264,0.73291 1.5185,0.33569 3.0658,0.59234 4.6317,0.82869 2.0255,0.14891 4.085,0.13483 6.1085,-0.0497 1.6055,-0.57049 1.3107,-2.56302 1.2661,-3.929 -0.1087,-4.3756 -0.494,-8.78804 0.1033,-13.14163 0.3711,-1.52273 0.887,-3.01498 1.318,-4.51536 -0.1738,-1.60553 -1.1845,-3.61781 -3.099,-3.37807 -3.526,-0.14676 -7.0812,-0.38764 -10.502,-1.29557 -1.2257,-0.38657 -2.4789,-0.62365 -3.6357,-1.10577 -1.1956,-0.35201 -2.3153,-0.98051 -3.5487,-1.32512 -1.3743,-0.45559 -2.5117,-1.28995 -3.8034,-1.96835 -1.0222,-0.81032 -2.1478,-1.42247 -3.0893,-2.30555 -1.2399,-0.97148 -2.5526,-2.09591 -3.766,-3.19957 -1.3586,-1.26989 -2.7552,-2.49234 -4.1108,-3.76712 -1.2275,-0.66304 -2.7464,-0.43711 -3.9907,-1.04465 -1.508,-0.55051 -3.096,-1.08596 -4.3607,-2.08799 -0.8902,-0.58188 -1.7329,-1.11535 -2.6885,-1.44701 -1.3136,-0.6861 -2.7717,-1.16549 -4.25,-1.40228 -1.3175,-0.47736 -3.0234,-0.35952 -3.6784,1.07187 -1.4489,1.34932 -0.908,3.66581 0.7521,4.56618 1.6887,1.0291 1.8022,3.02323 2.088,4.76083 0.7489,1.63375 2.4925,-0.0136 3.3458,-0.717 1.526,-0.86564 1.5446,2.28773 1.4836,3.33161 0.06,2.09551 -1.1066,3.95853 -1.1491,6.04441 0.3736,1.867 -3.2113,2.71784 -1.1821,4.30138 0.8459,1.44862 2.1685,2.7168 3.8586,3.01396 1.8559,-0.28588 2.6894,1.41413 2.3635,3.03427 -0.014,2.41819 0.049,4.85169 -0.022,7.26312 -0.4995,1.99859 -1.7046,3.70614 -2.3436,5.66 -0.5236,1.52643 -1.9575,2.5578 -3.3513,3.03438 -1.4225,0.40284 -3.0289,0.76156 -4.5156,0.29642 -1.2858,-0.39028 -2.5097,-1.32605 -2.7449,-2.77079 -0.5142,-1.56058 -1.8854,-2.78938 -3.166,-3.59013 -1.2542,-0.8607 -1.4791,-2.58465 -2.3849,-3.74888 -1.1365,-1.47051 -0.4933,-3.33755 -0.773,-5.01393 -0.6131,-1.6333 -2.0182,-2.825 -2.9373,-4.29848 -1.2843,-1.37074 -0.9655,-3.33945 -0.9909,-5.06122 -0.075,-3.35406 0.1991,-6.69583 0.5533,-10.0268 0.2166,-4.75145 0.3576,-9.57167 -0.7131,-14.24034 -0.3684,-1.76585 -0.7122,-3.71122 0.32,-5.33764 0.5513,-1.2748 1.1682,-2.48336 1.6847,-3.80862 0.526,-1.18235 1.5586,-2.05775 2.62,-2.62194 0.8191,-0.70161 1.7523,-1.22436 2.8373,-1.5792 1.1074,-0.70827 2.5311,-0.90122 3.8348,-0.45633 1.1061,0.41755 2.3285,1.18632 3.0793,1.96361 0.9409,0.54483 1.829,1.48171 2.9304,1.72054 1.3379,0.40938 2.8627,0.55232 4.3163,0.55079 1.5861,0.10873 3.387,0.0775 3.8023,-1.77511 1.3154,-1.2739 -0.2905,-3.04481 -0.9137,-4.28445 -0.8317,-1.17242 -1.6753,-2.43018 -2.715,-3.39802 -0.8965,-1.09588 -1.9248,-2.20073 -2.8655,-3.34144 -0.671,-0.93378 -1.0733,-1.60295 -1.5101,-2.6068 -0.2343,-1.90809 -2.0353,-2.69791 -2.9677,-4.12151 -0.3175,-1.3635 -2.0608,-2.15011 -2.2106,-0.25262 -0.4261,1.21165 -1.6197,1.50018 -2.5303,2.18676 -0.7259,1.3892 -1.0661,3.10228 -2.3527,4.09317 -1.0856,0.82975 -2.3971,1.80054 -3.8822,1.55007 -1.1934,-0.0858 -1.7485,-1.51587 -0.26,-1.58394 1.3337,-0.87254 1.5538,-2.60992 0.5085,-3.80083 -0.4978,-1.23487 -2.0095,-0.87352 -2.8478,-0.31561 -1.0235,1.37297 -1.6541,2.94655 -1.866,4.65388 -0.161,1.61737 -1.5335,2.23756 -2.7604,2.91119 -1.2859,0.4772 -2.4134,1.42619 -3.6533,1.98235 -0.8983,0.42445 -1.7013,1.11962 -2.5831,1.60353 -1.1161,0.49834 -2.1561,1.26531 -3.5038,1.01527 -1.8002,0.19379 -1.8074,-2.08466 -1.0504,-3.19082 0.6671,-1.9118 0.9416,-3.99571 0.3148,-5.95783 -0.1685,-1.70468 -1.1939,-3.29858 -0.7781,-5.02204 0.8959,-1.6681 2.8725,-2.02136 4.0286,-3.39573 1.6848,-1.8368 1.468,-4.816 3.5115,-6.41392 1.0619,-0.5905 2.3358,-0.74982 3.5513,-0.99309 1.4692,-0.15611 3.0484,-0.1479 4.2882,-0.93337 1.034,-0.21865 1.9566,-0.763047 2.77,-1.448527 1.1478,-0.675462 2.2585,-1.353072 3.409,-2.116674 0.8511,-0.655143 1.8157,-1.46448 2.7295,-2.194607 0.9679,-1.030237 2.2229,-1.752304 3.3469,-2.465292 1.0826,-0.620092 2.4023,-0.950171 3.7346,-0.963395 1.7295,0.04172 3.5434,-0.02379 5.1707,0.521853 1.3238,1.043855 1.5145,2.967084 2.0779,4.4661 0.6258,1.903087 1.2411,4.014702 3.0402,5.152582 1.5608,0.91694 2.9289,2.08403 4.2368,3.33416 1.0905,1.23465 2.4338,2.23738 3.4808,3.52913 0.7055,0.59226 1.7542,2.14616 2.6366,0.98694 0.9351,-0.7033 1.8776,-1.30502 2.8331,-1.84603 1.0785,-0.51362 2.2968,-0.92918 3.4307,-1.33655 1.6341,-0.12599 1.3827,-2.21317 2.2806,-3.20327 0.6391,-1.24383 1.6413,-2.27731 2.7826,-3.0407 0.9797,-0.572141 3.4622,-2.286403 1.2484,-2.793088 -1.6869,0.05029 -2.869,-1.246095 -3.4055,-2.718309 -1.4601,-1.15544 -0.2982,-2.780176 1.1999,-2.971284 0.8258,-0.541533 3.3281,-1.292686 2.1104,-2.395813 -1.3926,0.0082 -2.6381,0.829411 -3.7585,1.514333 -1.3757,0.562002 -2.3165,1.883597 -3.4647,2.767238 -1.1386,1.033295 -2.9721,0.673206 -3.9894,-0.414862 -1.2564,-1.120661 -1.6105,-2.789079 -2.5674,-4.103035 -0.9385,-1.041233 -1.9257,-2.275992 -1.7528,-3.741614 -0.068,-1.562502 0.8629,-2.737473 1.9132,-3.756891 1.1497,-1.059921 1.7952,-2.479224 2.7267,-3.67802 0.8772,-2.089139 1.8057,-4.191366 2.2528,-6.428446 0.804,-2.448575 1.3885,-4.971902 2.3798,-7.351147 0.5412,-1.716845 1.5796,-3.225619 2.421,-4.804688 1.2303,-1.158322 0.2165,-2.29256 -1.1945,-2.331336 -1.4427,-0.04771 -2.8054,-0.718737 -4.074,-1.26254 -1.0298,-0.406314 -2.0488,-1.296533 -3.2595,-1.258572 -1.6777,0.287932 -2.4788,-1.653577 -4.0244,-1.746351 -1.0416,0.238242 -2.1412,0.405824 -2.8843,1.093341 -1.0353,0.797527 -1.9807,1.671518 -2.3682,3.006174 -0.8947,0.931251 0.2114,4.109423 1.2751,2.813516 -1.2047,-1.387962 1.614,-2.70238 2.6909,-1.975896 1.5074,0.174513 2.6488,1.720066 2.4529,3.273868 0.059,1.958268 -1.1713,3.645864 -2.5937,4.844633 -0.9518,0.868378 -2.0213,1.335621 -3.2809,1.518438 -1.3591,0.0526 -2.9389,0.119468 -4.062,-0.608593 -0.8132,-0.177394 -1.4372,-0.897123 -2.119,-1.254439 -0.9747,-0.969199 -1.8932,-2.281714 -2.1899,-3.705788 -0.4112,-2.868071 0.2034,-5.878091 1.5295,-8.433779 0.8993,-1.337823 2.0139,-2.511788 3.3197,-3.399248 1.0594,-0.955037 2.4873,-1.259809 3.8401,-1.654162 1.3606,-0.207254 2.0715,-1.749286 3.2809,-2.150081 0.685,-0.595899 1.7495,-0.620798 2.5043,-1.145778 1.3367,-0.732165 3.0136,-0.08182 4.4974,-0.113895 2.0172,0.265684 4.1168,0.324235 5.9795,1.174808 1.2294,0.359831 2.466,0.808427 3.5683,1.548258 1.3362,0.40108 2.7415,2.313082 4.0614,0.914411 0.8093,-1.0522 1.8061,-1.941604 2.8702,-2.729875 1.803,-0.852761 1.4272,-3.224586 2.0932,-4.855736 0.4859,-1.14503 -0.3496,-3.651803 1.7602,-2.725594 1.2195,0.544088 2.3396,1.201203 3.5963,1.714656 0.9292,0.662496 1.8246,1.46096 2.54,2.339328 1.3643,1.778929 1.8248,-1.124629 2.6241,-1.866404 0.594,-1.301058 2.2168,-2.475825 2.6138,-0.327266 0.9317,1.208828 1.8632,2.523586 2.0149,4.101323 0.7365,1.714248 3.3663,0.110498 4.9029,0.360796 1.191,-0.08916 2.4996,0.128302 3.2533,1.030019 0.043,1.54168 0.8317,2.455643 2.2609,2.798172 1.7137,0.612575 3.1562,2.010566 3.9247,3.689328 0.5567,1.258245 1.3749,2.26115 2.4972,2.991426 1.1813,0.511035 2.41,0.985875 3.6653,1.41248 1.4445,0.180113 2.821,0.820795 3.6853,2.03529 0.6902,1.446268 0.1473,3.100429 -1.4949,3.296783 0.4917,1.037631 1.7182,1.227624 2.5282,2.043879 1.2521,0.839279 1.735,2.524279 2.5659,3.775049 1.6488,1.857855 -3.2899,-0.09895 -1.9295,2.333728 0.8072,1.541679 1.1625,3.231558 1.0184,4.970298 0.092,2.068371 -0.6814,4.237209 0.3504,6.182769 0.3505,1.523018 2.8854,2.639546 0.888,4.094567 -2.0462,1.209072 -0.02,3.751889 -0.7597,5.579123 -0.275,2.710194 -1.9058,4.998595 -2.5678,7.591252 -0.5603,1.51379 0.2699,3.740296 2.1432,3.508156 0.3606,1.12767 -2.442,2.40904 -3.6323,1.51932 -1.6119,-1.31607 -2.6053,0.59426 -2.9666,1.92939 0.039,2.04801 -0.3475,4.00282 -0.917,5.9494 -0.033,1.46697 1.0189,3.11378 -0.023,4.44755 -0.578,1.46929 -0.8583,3.0257 -1.1868,4.56672 0.2676,0.67108 1.572,2.478 0.182,1.37941 -1.431,-0.64155 -2.399,-2.03621 -2.6066,-3.57146 -0.628,-1.89597 -2.0054,0.29676 -2.968,0.61677 -0.6392,0.76598 -2.4371,0.39662 -2.3772,1.7237 0.7594,1.31568 2.2629,1.91705 3.4181,2.82126 1.5845,0.90078 2.7977,2.52429 3.9896,3.94272 1.1836,1.78896 2.8272,3.29828 4.5162,4.56822 0.8372,0.56962 1.668,0.91456 2.5458,1.29339 1.1123,0.41455 2.2053,0.81116 3.3755,1.22371 1.129,0.34518 1.9813,1.02321 3.0923,1.34765 1.3029,0.57024 2.5077,1.54027 3.791,1.98174 1.2178,0.39733 2.2603,1.12748 3.421,1.56039 1.1264,0.4489 2.1293,1.06843 3.1197,1.6548 0.6046,0.34719 1.2284,0.65697 1.7545,1.11793 1.1524,0.58815 2.0541,1.44218 3.0298,2.28955 2.3948,1.64973 3.535,4.42372 4.9489,6.85158 1.2672,1.87775 3.5647,2.82187 4.6149,4.89223 0.9965,1.26051 1.3193,3.15848 2.8231,3.92232 1.2717,0.79374 3.5602,0.17627 3.3513,-1.62352 -0.2442,-1.65169 -1.7867,-2.63014 -3.1504,-3.25164 -1.1017,-0.64677 -2.3019,-1.28405 -3.2724,-2.18945 -1.3172,-1.15049 -1.826,-3.06568 -2.0478,-4.76697 -0.2894,-1.7178 0.6717,-4.27903 -1.3713,-5.20148 -1.1302,-0.83181 -2.4537,1.0778 -3.2566,0.32981 -0.4524,-1.54384 0.3576,-3.34608 1.6984,-4.15582 0.682,-0.64045 3.1749,-1.46766 1.2654,-2.23874 -1.2238,-0.46087 -2.3084,-0.99488 -3.6467,-1.16573 -1.9856,-0.6879 -4.2049,0.01 -6.1477,-0.84933 -1.2789,-0.27446 -2.6129,-1.027 -3.4317,-2.05843 -1.2383,-1.06138 -1.3084,-3.09313 -2.2372,-4.41315 -0.7198,-1.09656 -1.9364,-1.89405 -2.9355,-2.5635 -1.1615,-0.7192 -2.2969,-1.52711 -3.2058,-2.61795 -1.6805,-1.87259 -1.7749,-4.51893 -1.8498,-6.90686 0,-0.93435 0.557,-3.43349 1.5505,-1.59434 0.3954,0.96835 3.4105,2.24544 2.2509,0.27509 -1.2878,-1.11654 -1.9649,-2.67469 -1.9747,-4.37876 -0.2789,-2.17422 0.3287,-4.29488 0.8805,-6.36636 0.1966,-2.21546 1.655,-4.024736 2.6784,-5.911839 0.8166,-1.338638 2.4038,-1.921367 3.2256,-3.300018 0.9785,-1.29009 2.1276,-2.552059 3.4936,-3.337992 1.0321,-0.694517 2.096,-1.611661 3.1131,-2.41654 1.0419,-0.918775 2.147,-1.759508 3.2132,-2.628225 0.9809,-1.045392 2.4679,-1.668595 3.3999,-2.856383 1.4921,-1.428776 2.552,-3.18702 3.4779,-5.0153 0.9618,-1.313535 1.7416,-2.702433 2.2968,-4.229094 0.3107,-0.70429 0.5752,-1.416367 0.4242,-2.196551 -0.08,-1.214169 0.03,-2.492135 -0.4256,-3.635221 -0.7672,-1.123039 -1.5887,-3.034797 -3.1907,-3.084364 -1.2766,-0.351975 -3.0423,-0.420258 -3.8993,0.81389 -1.622,2.179181 2.7208,1.426234 2.0514,3.407063 -0.4873,1.281093 -1.4413,2.496797 -2.7976,2.793184 -1.3686,0.209143 -2.4921,-0.475643 -3.5279,-1.237125 -1.2833,-1.195141 -1.5005,-2.950897 -1.3643,-4.625119 0.198,-2.327136 1.5922,-4.585935 3.7195,-5.626978 1.2608,-0.52347 2.6606,-0.831287 4.087,-0.881371 1.4954,-0.157605 2.893,0.268891 4.2199,0.761849 1.0062,0.487522 1.903,0.992222 2.9306,1.450726 1.112,0.790527 2.2971,1.496325 3.1011,2.692091 1.0078,1.004359 1.8368,2.235721 2.4521,3.565131 0.5845,1.495496 1.475,2.949293 1.2179,4.620348 -0.4507,2.15681 -0.1902,4.495363 -1.2965,6.482172 -0.4741,1.274705 -1.1801,2.386177 -1.6422,3.611858 -0.9281,1.404366 -1.7528,2.904374 -2.8671,4.196883 -0.9369,1.046981 -1.872,2.245833 -2.904,3.276219 -0.9189,1.009021 -1.8326,2.011247 -2.6872,3.122882 -1.1334,0.911504 -1.8947,2.204883 -2.7755,3.271898 -0.8665,1.018249 -1.9201,2.097782 -2.3931,3.420476 -0.444,1.53365 -1.0666,2.98822 -1.4772,4.52395 -0.4185,1.92487 -0.3297,4.05193 0.5355,5.80762 0.5965,1.29711 1.344,2.54837 2.2714,3.69809 0.481,1.10774 2.6784,2.14415 2.2226,0.1387 -0.4995,-1.51252 -1.4281,-3.10164 -0.5155,-4.7021 1.257,-1.06405 2.4601,-2.27656 1.6849,-4.0735 -0.2657,-1.69333 0.6503,-3.43815 1.607,-4.77487 0.7352,-0.940846 1.7768,-1.760308 2.9885,-2.013895 1.3026,-0.541411 4.273,1.895855 2.4306,2.568735 -1.146,0.2875 -2.5631,0.67444 -2.6535,2.15612 -0.3266,2.0031 0.7917,4.07661 2.4022,5.17611 1.1563,0.69051 2.2706,1.40479 3.4155,2.08062 0.9962,0.65653 1.8067,1.5536 2.6065,2.41794 0.9558,1.02795 1.657,2.60331 0.6375,3.86242 -1.163,1.45483 -1.4687,3.64039 -0.5348,5.28012 0.8991,1.25631 2.0496,2.49716 3.2948,3.28555 0.9545,0.56962 1.9077,1.34966 2.8318,2.06337 3.1585,2.59494 4.4586,6.8452 4.3211,10.83111 0.075,2.70855 -0.4337,5.44026 -1.5791,7.88474 -0.8413,1.53637 1.3583,2.80691 2.6903,2.79624 0.8832,1.20123 -1.729,2.50812 -2.1508,3.78162 -0.8473,1.31182 -0.8522,3.04713 -0.9236,4.62351 -0.047,1.91543 0.063,4.0244 -1.1753,5.62981 -0.5074,1.22674 -1.3074,2.26602 -2.1261,3.22076 -0.9223,0.44494 -2.3353,1.1053 -1.1191,2.26424 0.6871,1.94817 -0.7862,3.90877 -2.0636,5.24828 -1.1352,0.9052 -0.8584,3.12849 0.6775,3.49598 -0.4017,1.10746 -2.1943,0.91676 -3.1651,1.47719 -1.3264,0.66048 -2.9343,0.64223 -4.3614,0.26514 -2.1251,-0.48917 -1.4378,-3.21404 -0.014,-4.10489 1.3347,-0.81884 3.0347,-2.33638 2.173,-4.04819 -1.2433,-1.0128 -3.1056,-0.68525 -4.5557,-1.37666 -1.2074,-0.84769 -3.1779,-1.54397 -2.8719,0.80733 -0.1464,1.70756 -0.9609,3.23341 -1.7929,4.67516 -0.828,1.53168 -1.9934,2.84482 -2.9213,4.30025 -1.2356,1.53659 -2.3036,3.28871 -3.9378,4.44032 -0.9578,1.17586 -2.3309,2.09737 -3.4136,3.21043 -0.9987,1.27381 -2.5718,1.99637 -3.4237,3.4325 -1.0619,1.3435 -0.7105,3.25658 -0.4164,4.81836 0.1848,1.45746 1.8519,1.61996 2.6045,2.49537 1.1805,0.98251 1.239,2.55729 1.825,3.87311 0.6993,1.37764 2.0869,2.3555 2.3995,3.91977 0.065,1.60962 -0.9098,3.01865 -2.101,3.91377 -1.3215,0.89643 -2.0107,2.58558 -2.3744,4.13197 -0.9854,1.62322 -2.341,3.08401 -2.7858,4.97945 -0.3482,1.31145 -1.4162,2.27846 -2.6423,2.58855 -1.4399,-0.0122 -3.0174,-0.45683 -3.6285,1.3266 -0.9979,1.62515 -1.1134,3.69528 -2.6018,5.02091 -1.1876,1.78968 -2.9001,3.63286 -2.5859,5.95992 0.1673,1.6369 0.5196,3.41158 -0.5678,4.82679 -0.8544,1.02619 -1.9479,1.67278 -3.1214,2.29879 -1.5301,0.69508 -1.6808,2.92111 -3.623,3.11086 -0.9887,-1.11281 1.4606,-2.9197 1.0184,-4.43935 -1.246,-0.42841 -2.3909,1.10901 -3.3657,1.82381 -0.8757,0.0222 0.1663,-3.38704 -1.5429,-1.88996 -0.9891,1.41576 0.6122,3.33 -0.6831,4.64896 -0.5379,1.25504 -1.7136,1.83343 -2.8974,2.2017 -1.7498,0.32202 -3.4444,0.89582 -5.1145,1.42333 -2.5487,0.9484 -5.3984,1.0647 -8.0822,0.91484 z"
       id="path1157-7-0-2-8"
       style="fill:#ffffff;stroke-width:0.971084" /></g></svg>
