<?xml version="1.0" encoding="UTF-8" standalone="no"?>
<!-- Created with Inkscape (http://www.inkscape.org/) -->

<svg
   width="8.4666748mm"
   height="8.4666986mm"
   viewBox="0 0 8.4666748 8.4666986"
   version="1.1"
   id="svg5"
   xml:space="preserve"
   inkscape:version="1.2.2 (b0a8486541, 2022-12-01)"
   sodipodi:docname="twentse ros.svg"
   xmlns:inkscape="http://www.inkscape.org/namespaces/inkscape"
   xmlns:sodipodi="http://sodipodi.sourceforge.net/DTD/sodipodi-0.dtd"
   xmlns="http://www.w3.org/2000/svg"
   xmlns:svg="http://www.w3.org/2000/svg"><sodipodi:namedview
     id="namedview7"
     pagecolor="#ffffff"
     bordercolor="#000000"
     borderopacity="0.25"
     inkscape:showpageshadow="2"
     inkscape:pageopacity="0.0"
     inkscape:pagecheckerboard="0"
     inkscape:deskcolor="#d1d1d1"
     inkscape:document-units="mm"
     showgrid="false"
     inkscape:zoom="0.23867187"
     inkscape:cx="5241.5059"
     inkscape:cy="2562.095"
     inkscape:window-width="1920"
     inkscape:window-height="1107"
     inkscape:window-x="0"
     inkscape:window-y="25"
     inkscape:window-maximized="1"
     inkscape:current-layer="layer1"
     showguides="false"><sodipodi:guide
       position="-384.00496,-219.99999"
       orientation="0,-1"
       id="guide5852"
       inkscape:locked="false" /><sodipodi:guide
       position="-307.00003,-219.99999"
       orientation="1,0"
       id="guide5854"
       inkscape:locked="false" /><sodipodi:guide
       position="22.699865,-260.51366"
       orientation="1,0"
       id="guide6873"
       inkscape:locked="false" /><sodipodi:guide
       position="-307.00003,-230.3034"
       orientation="0,-1"
       id="guide6877"
       inkscape:locked="false" /><sodipodi:guide
       position="288.69976,-316.3568"
       orientation="1,0"
       id="guide6916"
       inkscape:locked="false" /><sodipodi:guide
       position="283.69976,-572.05334"
       orientation="0,-1"
       id="guide7205"
       inkscape:locked="false" /><sodipodi:guide
       position="278.69976,-569.68603"
       orientation="1,0"
       id="guide7207"
       inkscape:locked="false" /><sodipodi:guide
       position="283.69976,-562.0534"
       orientation="0,-1"
       id="guide7209"
       inkscape:locked="false" /><sodipodi:guide
       position="288.69966,-838.05328"
       orientation="0,-1"
       id="guide7211"
       inkscape:locked="false" /><sodipodi:guide
       position="240.24276,-1104.0535"
       orientation="0,-1"
       id="guide9302"
       inkscape:locked="false" /><sodipodi:guide
       position="315.62936,-1094.0533"
       orientation="0,-1"
       id="guide9304"
       inkscape:locked="false" /><sodipodi:guide
       position="150.69996,-828.05334"
       orientation="0,-1"
       id="guide9306"
       inkscape:locked="false" /><sodipodi:guide
       position="530.69985,-295.74999"
       orientation="0,-1"
       id="guide9308"
       inkscape:locked="false" /><sodipodi:guide
       position="416.69966,-306.05346"
       orientation="0,-1"
       id="guide9310"
       inkscape:locked="false" /><sodipodi:guide
       position="-614.0001,-425.96412"
       orientation="1,0"
       id="guide9368"
       inkscape:locked="false" /></sodipodi:namedview><defs
     id="defs2" /><g
     inkscape:label="Laag 1"
     inkscape:groupmode="layer"
     id="layer1"
     transform="translate(-1361,18.466697)"><rect
       style="fill:#fa0000;fill-opacity:1;stroke:none;stroke-width:0.190667;stroke-linecap:round;stroke-linejoin:round;stroke-dasharray:none;stroke-opacity:1;stop-color:#000000"
       id="rect5788-6"
       width="8.4666662"
       height="8.4666986"
       x="1361"
       y="-18.466698" /><path
       d="m 1365.4202,-10.394558 c -0.065,-0.02252 -0.043,-0.106656 -0.034,-0.158705 0.013,-0.0918 0.049,-0.182648 0.03,-0.276257 0.01,-0.04781 0.057,-0.06159 0.09,-0.08512 0.053,-0.02693 0.1,-0.06852 0.1327,-0.119513 0.028,-0.05318 0.039,-0.113006 0.082,-0.156816 0.038,-0.0317 0.078,-0.06031 0.1247,-0.07918 0.051,-0.01897 0.099,-0.03897 0.1353,-0.08037 0.047,-0.0508 0.082,-0.115651 0.1364,-0.15757 0.039,-0.04997 0.093,-0.08775 0.1296,-0.141503 0.032,-0.04451 0.063,-0.08934 0.089,-0.138139 0.027,-0.04134 0.067,-0.09197 0.049,-0.146256 -0.025,-0.04406 -0.073,-0.06515 -0.1126,-0.09238 -0.041,-0.02466 -0.08,-0.04404 -0.1173,-0.06935 -0.037,-0.02027 -0.078,-0.03974 -0.112,-0.07054 -0.045,-0.03387 -0.067,-0.09107 -0.095,-0.139252 -0.018,-0.06593 -0.092,-0.08949 -0.1138,-0.152604 -0.018,-0.03606 -0.067,-0.08235 -0.1048,-0.06091 -0.05,0.03532 -0.057,0.105198 -0.055,0.162322 -0.01,0.06015 0.01,0.124084 -0.018,0.181068 -0.035,0.0352 -0.065,0.07339 -0.1009,0.105398 -0.045,0.0172 -0.1045,0.01221 -0.1445,-0.01325 -0.059,-0.01187 -0.123,-0.03029 -0.1789,-1.98e-4 -0.03,0.0288 -0.072,-0.0068 -0.1034,0.02565 -0.045,-0.0041 -0.101,-0.02019 -0.1406,0.0082 -0.062,0.01523 -0.1093,-0.0383 -0.1698,-0.03101 -0.047,0.02613 -0.1051,0.0098 -0.1579,0.01313 -0.047,-0.0013 -0.1084,0.02513 -0.1006,-0.04473 -0.021,-0.06307 -0.1634,-0.03394 -0.1146,0.03355 0.041,0.05277 0.01,0.119543 -0.013,0.174163 -0.018,0.04755 -0.025,0.105382 -0.059,0.142666 -0.035,0.04281 -0.1007,0.03097 -0.1521,0.03771 -0.092,0.0043 -0.1853,0.01631 -0.2773,0.0096 -0.065,-0.0023 -0.1075,-0.06287 -0.087,-0.127428 0.021,-0.102503 0.01,-0.207185 0.018,-0.310606 0.013,-0.04891 0.055,-0.08179 0.093,-0.108988 0.027,-0.01785 0.053,-0.03759 0.079,-0.06055 0.053,-0.04721 0.091,-0.108074 0.1365,-0.160995 0.035,-0.03799 0.078,-0.06152 0.1288,-0.073 0.052,-0.01475 0.1058,-0.01245 0.1596,-0.0092 0.072,0.0019 0.1453,0.0017 0.2122,0.02668 0.055,0.01222 0.1116,0.02156 0.1686,0.03017 0.074,0.0054 0.1486,0.0049 0.2223,-0.0018 0.059,-0.02077 0.047,-0.09331 0.046,-0.143035 -0.01,-0.159294 -0.018,-0.319929 0.01,-0.478422 0.013,-0.05543 0.033,-0.10976 0.047,-0.164382 -0.01,-0.05845 -0.043,-0.131706 -0.1127,-0.122978 -0.1284,-0.0053 -0.2578,-0.01411 -0.3824,-0.04717 -0.044,-0.01407 -0.09,-0.02271 -0.1323,-0.04025 -0.043,-0.01281 -0.084,-0.03569 -0.1292,-0.04824 -0.05,-0.01659 -0.091,-0.04696 -0.1385,-0.07166 -0.037,-0.0295 -0.078,-0.05179 -0.1124,-0.08393 -0.045,-0.03537 -0.093,-0.0763 -0.1372,-0.11648 -0.05,-0.04623 -0.1002,-0.09073 -0.1496,-0.137142 -0.044,-0.02414 -0.1,-0.01591 -0.1452,-0.03803 -0.055,-0.02004 -0.1128,-0.03953 -0.1589,-0.07601 -0.032,-0.02118 -0.063,-0.04061 -0.098,-0.05268 -0.047,-0.02498 -0.1009,-0.04243 -0.1547,-0.05105 -0.047,-0.01738 -0.11,-0.01309 -0.134,0.03902 -0.053,0.04912 -0.033,0.133454 0.027,0.166232 0.061,0.03747 0.065,0.110061 0.076,0.173318 0.027,0.05947 0.091,-4.95e-4 0.1217,-0.0261 0.056,-0.03151 0.056,0.08329 0.053,0.121287 0,0.07629 -0.041,0.144111 -0.041,0.220047 0.013,0.06797 -0.1169,0.09894 -0.043,0.156592 0.031,0.05274 0.079,0.09891 0.1405,0.109724 0.067,-0.01041 0.098,0.05148 0.086,0.110462 -5e-4,0.08803 0,0.176626 0,0.264414 -0.019,0.07276 -0.062,0.134922 -0.085,0.206053 -0.019,0.05557 -0.071,0.09312 -0.1219,0.110467 -0.052,0.01467 -0.1103,0.02773 -0.1643,0.01079 -0.047,-0.01421 -0.091,-0.04827 -0.1,-0.100871 -0.019,-0.05681 -0.069,-0.101548 -0.1152,-0.130699 -0.046,-0.03133 -0.053,-0.0941 -0.087,-0.136478 -0.041,-0.05353 -0.018,-0.121504 -0.028,-0.182532 -0.022,-0.05946 -0.073,-0.102845 -0.107,-0.156487 -0.047,-0.0499 -0.036,-0.121572 -0.036,-0.184254 0,-0.122104 0.01,-0.243761 0.021,-0.365025 0.01,-0.172977 0.013,-0.348458 -0.026,-0.51842 -0.013,-0.06429 -0.027,-0.135107 0.012,-0.194318 0.021,-0.04641 0.043,-0.09041 0.061,-0.138653 0.019,-0.04304 0.056,-0.07491 0.095,-0.09545 0.03,-0.02554 0.064,-0.04457 0.1032,-0.05749 0.041,-0.02579 0.092,-0.03281 0.1397,-0.01661 0.04,0.0152 0.085,0.04319 0.112,0.07148 0.034,0.01983 0.066,0.05394 0.1068,0.06264 0.049,0.0149 0.1042,0.02011 0.1571,0.02005 0.058,0.0039 0.1233,0.0028 0.1385,-0.06462 0.048,-0.04638 -0.01,-0.110847 -0.033,-0.155975 -0.03,-0.04268 -0.061,-0.08847 -0.099,-0.123705 -0.032,-0.03989 -0.07,-0.08012 -0.1043,-0.121646 -0.025,-0.03399 -0.039,-0.05835 -0.055,-0.0949 -0.01,-0.06946 -0.074,-0.09822 -0.1081,-0.150043 -0.012,-0.04964 -0.075,-0.07828 -0.081,-0.0092 -0.016,0.04411 -0.059,0.05461 -0.092,0.07961 -0.027,0.05057 -0.038,0.112939 -0.086,0.149012 -0.039,0.03021 -0.087,0.06555 -0.1413,0.05643 -0.043,-0.0031 -0.064,-0.05519 -0.01,-0.05766 0.049,-0.03177 0.056,-0.09502 0.018,-0.138369 -0.018,-0.04495 -0.073,-0.0318 -0.1037,-0.01149 -0.037,0.04998 -0.06,0.107269 -0.068,0.169424 -0.01,0.05888 -0.056,0.08146 -0.1004,0.105982 -0.047,0.01737 -0.088,0.05192 -0.1331,0.07217 -0.032,0.01545 -0.061,0.04076 -0.094,0.05838 -0.041,0.01814 -0.078,0.04607 -0.1276,0.03696 -0.065,0.0071 -0.065,-0.07589 -0.038,-0.116162 0.025,-0.0696 0.034,-0.145464 0.011,-0.216895 -0.01,-0.06206 -0.043,-0.120085 -0.028,-0.182828 0.033,-0.06073 0.1046,-0.07359 0.1468,-0.123621 0.061,-0.06687 0.053,-0.175327 0.1278,-0.233499 0.038,-0.0215 0.085,-0.0273 0.1292,-0.03615 0.053,-0.0057 0.111,-0.0054 0.1561,-0.03398 0.037,-0.008 0.072,-0.02778 0.1009,-0.05273 0.041,-0.02459 0.082,-0.04926 0.1241,-0.07706 0.031,-0.02385 0.067,-0.05331 0.099,-0.0799 0.036,-0.03751 0.081,-0.06379 0.1218,-0.08975 0.039,-0.02257 0.087,-0.03459 0.136,-0.03507 0.063,0.0015 0.1289,-8.67e-4 0.1882,0.019 0.049,0.038 0.055,0.108017 0.076,0.162588 0.023,0.06928 0.045,0.146156 0.1106,0.18758 0.057,0.03338 0.1067,0.07587 0.1542,0.121381 0.04,0.04495 0.089,0.08145 0.1268,0.128478 0.025,0.02156 0.064,0.07813 0.096,0.03593 0.034,-0.02561 0.068,-0.04751 0.1032,-0.06721 0.039,-0.0187 0.083,-0.03383 0.1248,-0.04866 0.059,-0.0046 0.05,-0.08057 0.083,-0.116615 0.023,-0.04528 0.059,-0.08291 0.1014,-0.110696 0.036,-0.02083 0.126,-0.08324 0.045,-0.101682 -0.061,0.0018 -0.1044,-0.04537 -0.124,-0.09896 -0.053,-0.04207 -0.011,-0.101212 0.044,-0.10817 0.03,-0.01971 0.1212,-0.04706 0.077,-0.08722 -0.05,2.97e-4 -0.096,0.03019 -0.1368,0.05513 -0.05,0.02046 -0.084,0.06857 -0.1262,0.100741 -0.041,0.03762 -0.1082,0.02451 -0.1452,-0.0151 -0.046,-0.0408 -0.059,-0.101537 -0.093,-0.149371 -0.034,-0.03791 -0.07,-0.08286 -0.064,-0.136214 0,-0.05688 0.031,-0.09966 0.07,-0.13677 0.041,-0.03859 0.065,-0.09026 0.099,-0.133898 0.032,-0.07606 0.065,-0.152587 0.082,-0.234028 0.03,-0.08914 0.05,-0.181002 0.087,-0.267618 0.019,-0.0625 0.058,-0.117429 0.088,-0.174915 0.044,-0.04217 0.01,-0.08346 -0.043,-0.08487 -0.053,-0.0017 -0.102,-0.02617 -0.1482,-0.04596 -0.037,-0.01479 -0.075,-0.0472 -0.1187,-0.04582 -0.061,0.01048 -0.09,-0.0602 -0.1465,-0.06357 -0.038,0.0087 -0.078,0.01477 -0.105,0.0398 -0.038,0.02903 -0.072,0.06085 -0.086,0.10944 -0.033,0.0339 0.01,0.149603 0.047,0.102426 -0.044,-0.05053 0.059,-0.09838 0.098,-0.07193 0.055,0.0063 0.096,0.06262 0.089,0.119186 0,0.07129 -0.043,0.132727 -0.094,0.176369 -0.035,0.03161 -0.074,0.04863 -0.1194,0.05528 -0.049,0.0019 -0.107,0.0043 -0.148,-0.02215 -0.03,-0.0065 -0.053,-0.03266 -0.077,-0.04567 -0.035,-0.03529 -0.069,-0.08307 -0.08,-0.134909 -0.015,-0.104413 0.01,-0.213993 0.056,-0.307032 0.033,-0.04871 0.073,-0.09144 0.1209,-0.12375 0.038,-0.03477 0.091,-0.04587 0.1398,-0.06022 0.05,-0.0075 0.076,-0.06368 0.1195,-0.07827 0.025,-0.02169 0.064,-0.0226 0.091,-0.04171 0.049,-0.02665 0.1098,-0.003 0.1637,-0.0041 0.073,0.0097 0.1499,0.01181 0.2177,0.04277 0.044,0.0131 0.09,0.02943 0.13,0.05637 0.049,0.0146 0.1,0.08421 0.1478,0.03329 0.03,-0.03831 0.065,-0.07069 0.1044,-0.09938 0.065,-0.03105 0.052,-0.117391 0.077,-0.176773 0.018,-0.04169 -0.013,-0.132944 0.064,-0.09923 0.044,0.01981 0.085,0.04373 0.131,0.06242 0.034,0.02412 0.066,0.05319 0.092,0.08516 0.05,0.06476 0.067,-0.04094 0.096,-0.06795 0.021,-0.04737 0.081,-0.09013 0.095,-0.01191 0.034,0.04401 0.068,0.09187 0.073,0.149309 0.027,0.06241 0.1225,0.004 0.1784,0.01313 0.043,-0.0033 0.091,0.0047 0.1185,0.0375 0,0.05613 0.03,0.0894 0.082,0.101868 0.062,0.0223 0.1149,0.07319 0.1429,0.13431 0.021,0.04581 0.05,0.08232 0.091,0.108903 0.043,0.01861 0.088,0.03589 0.1334,0.05142 0.053,0.0065 0.1026,0.02988 0.1342,0.07409 0.025,0.05265 0.01,0.112871 -0.055,0.120019 0.018,0.03777 0.063,0.04469 0.092,0.07441 0.046,0.03055 0.063,0.0919 0.093,0.137431 0.061,0.06764 -0.1198,-0.0036 -0.071,0.08496 0.03,0.05613 0.043,0.117645 0.037,0.180943 0.01,0.0753 -0.025,0.154256 0.013,0.225085 0.013,0.05545 0.105,0.09609 0.032,0.149062 -0.075,0.04401 0,0.136588 -0.027,0.203108 -0.01,0.09867 -0.07,0.181974 -0.094,0.27636 -0.021,0.05511 0.01,0.136166 0.078,0.127714 0.013,0.04105 -0.089,0.0877 -0.1323,0.05531 -0.059,-0.04791 -0.095,0.02163 -0.108,0.07024 0,0.07456 -0.013,0.145723 -0.033,0.216588 0,0.05341 0.037,0.113357 0,0.161913 -0.021,0.05349 -0.031,0.11015 -0.043,0.166251 0.01,0.02443 0.057,0.09021 0.01,0.05022 -0.052,-0.02335 -0.087,-0.07413 -0.095,-0.13002 -0.023,-0.06902 -0.073,0.01081 -0.108,0.02245 -0.023,0.02789 -0.089,0.01444 -0.087,0.06275 0.027,0.0479 0.082,0.06979 0.1244,0.102709 0.058,0.03279 0.1019,0.0919 0.1453,0.143534 0.043,0.06513 0.1029,0.120074 0.1643,0.166306 0.03,0.02074 0.061,0.03329 0.093,0.04709 0.041,0.01509 0.08,0.02953 0.1229,0.04455 0.041,0.01257 0.072,0.03725 0.1126,0.04906 0.047,0.02076 0.091,0.05607 0.138,0.07215 0.044,0.01447 0.082,0.04105 0.1245,0.05681 0.041,0.01634 0.077,0.03889 0.1136,0.06024 0.022,0.01264 0.044,0.02392 0.065,0.0407 0.041,0.02141 0.075,0.0525 0.1104,0.08335 0.087,0.06006 0.1286,0.161046 0.1801,0.249432 0.046,0.06836 0.1298,0.102731 0.1679,0.178102 0.036,0.04589 0.048,0.114985 0.103,0.142792 0.047,0.02889 0.1296,0.0064 0.122,-0.05911 -0.01,-0.06013 -0.065,-0.09575 -0.1148,-0.118375 -0.04,-0.02355 -0.084,-0.04675 -0.1192,-0.07971 -0.047,-0.04189 -0.066,-0.111607 -0.075,-0.173542 -0.01,-0.06253 0.025,-0.155778 -0.05,-0.18936 -0.041,-0.03028 -0.089,0.03923 -0.1185,0.01201 -0.016,-0.05621 0.013,-0.121814 0.061,-0.151292 0.025,-0.02331 0.1156,-0.05343 0.046,-0.0815 -0.044,-0.01678 -0.084,-0.03622 -0.1327,-0.04244 -0.072,-0.02504 -0.1531,3.46e-4 -0.2238,-0.03092 -0.047,-0.01 -0.095,-0.03739 -0.1249,-0.07494 -0.045,-0.03864 -0.048,-0.112606 -0.082,-0.160662 -0.027,-0.03992 -0.071,-0.06895 -0.1069,-0.09332 -0.041,-0.02618 -0.083,-0.05559 -0.1167,-0.09531 -0.061,-0.06817 -0.065,-0.164512 -0.067,-0.251445 0,-0.03401 0.021,-0.124996 0.056,-0.05804 0.015,0.03525 0.1241,0.08174 0.082,0.01001 -0.047,-0.04065 -0.071,-0.09737 -0.071,-0.15941 -0.01,-0.07915 0.012,-0.156355 0.033,-0.231767 0.01,-0.08065 0.061,-0.146521 0.098,-0.21522 0.03,-0.04873 0.088,-0.06995 0.1174,-0.120138 0.036,-0.04697 0.077,-0.09291 0.1272,-0.121519 0.037,-0.02529 0.077,-0.05867 0.1133,-0.08798 0.038,-0.03345 0.078,-0.06405 0.117,-0.09568 0.036,-0.03806 0.09,-0.06075 0.1237,-0.103986 0.055,-0.05201 0.093,-0.116024 0.1268,-0.182582 0.035,-0.04782 0.064,-0.09838 0.083,-0.153961 0.011,-0.02564 0.021,-0.05156 0.016,-0.07997 0,-0.0442 0,-0.09073 -0.016,-0.13234 -0.028,-0.04089 -0.058,-0.110482 -0.1162,-0.112287 -0.047,-0.01281 -0.1108,-0.0153 -0.1419,0.02963 -0.059,0.07933 0.099,0.05192 0.075,0.124035 -0.018,0.04664 -0.053,0.09089 -0.1018,0.101685 -0.05,0.0076 -0.091,-0.01731 -0.1285,-0.04504 -0.047,-0.04351 -0.055,-0.107427 -0.049,-0.168377 0.01,-0.08472 0.058,-0.166951 0.1354,-0.20485 0.046,-0.01906 0.097,-0.03026 0.1486,-0.03209 0.055,-0.0057 0.1054,0.0098 0.1537,0.02773 0.037,0.01775 0.07,0.03612 0.1067,0.05281 0.041,0.02878 0.083,0.05447 0.113,0.09801 0.037,0.03657 0.067,0.08139 0.089,0.129789 0.021,0.05445 0.053,0.107369 0.044,0.168204 -0.016,0.07852 -0.01,0.163653 -0.047,0.235984 -0.017,0.04641 -0.043,0.08687 -0.059,0.13149 -0.034,0.05113 -0.064,0.105733 -0.1043,0.152787 -0.034,0.03811 -0.068,0.08176 -0.1057,0.119271 -0.033,0.03673 -0.067,0.07322 -0.098,0.113688 -0.041,0.03319 -0.069,0.08027 -0.101,0.119114 -0.031,0.03707 -0.07,0.07637 -0.087,0.124523 -0.016,0.05583 -0.038,0.108786 -0.053,0.164694 -0.015,0.07008 -0.012,0.147511 0.019,0.211426 0.021,0.04722 0.049,0.09277 0.082,0.13463 0.018,0.04033 0.097,0.07806 0.081,0.0051 -0.019,-0.05507 -0.052,-0.112915 -0.019,-0.17118 0.046,-0.03873 0.089,-0.08288 0.061,-0.148296 -0.01,-0.06165 0.024,-0.125165 0.059,-0.173829 0.027,-0.03425 0.065,-0.06409 0.1088,-0.07332 0.047,-0.01971 0.1556,0.06902 0.088,0.09352 -0.041,0.01047 -0.093,0.02455 -0.097,0.07849 -0.012,0.07292 0.029,0.14841 0.088,0.188437 0.041,0.02514 0.082,0.05114 0.1243,0.07575 0.035,0.0239 0.065,0.05656 0.095,0.08802 0.035,0.03742 0.061,0.09477 0.023,0.140612 -0.043,0.05296 -0.053,0.132528 -0.019,0.192223 0.033,0.04573 0.075,0.09091 0.1199,0.119611 0.035,0.02074 0.07,0.04913 0.103,0.07512 0.1151,0.09447 0.1624,0.2492 0.1574,0.394307 0,0.0986 -0.015,0.198053 -0.058,0.287044 -0.031,0.05593 0.049,0.102186 0.098,0.101797 0.033,0.04373 -0.063,0.09131 -0.078,0.13767 -0.031,0.04776 -0.031,0.110931 -0.033,0.16832 0,0.06973 0,0.146508 -0.043,0.204953 -0.019,0.04466 -0.048,0.08249 -0.077,0.117252 -0.033,0.0162 -0.085,0.04024 -0.041,0.08243 0.025,0.07092 -0.029,0.142298 -0.075,0.191063 -0.041,0.03295 -0.031,0.113893 0.025,0.127271 -0.015,0.04032 -0.08,0.03337 -0.1153,0.05378 -0.049,0.02405 -0.1068,0.02338 -0.1588,0.0097 -0.077,-0.01781 -0.053,-0.117007 -4e-4,-0.149439 0.049,-0.02981 0.1105,-0.08506 0.079,-0.147374 -0.045,-0.03687 -0.1131,-0.02495 -0.1659,-0.05012 -0.044,-0.03086 -0.1156,-0.05621 -0.1045,0.02939 -0.01,0.06216 -0.035,0.117712 -0.065,0.170199 -0.03,0.05576 -0.072,0.103567 -0.1064,0.156551 -0.045,0.05594 -0.084,0.119726 -0.1434,0.16165 -0.035,0.04281 -0.085,0.07635 -0.1242,0.116877 -0.036,0.04637 -0.094,0.07268 -0.1246,0.12496 -0.038,0.04891 -0.025,0.118555 -0.015,0.175412 0.01,0.05306 0.067,0.05898 0.095,0.09084 0.043,0.03577 0.045,0.0931 0.067,0.141001 0.025,0.05015 0.076,0.08575 0.087,0.142699 0,0.0586 -0.033,0.109894 -0.076,0.142482 -0.047,0.03263 -0.073,0.09413 -0.087,0.150423 -0.036,0.05909 -0.085,0.112274 -0.1014,0.181277 -0.013,0.04775 -0.052,0.08295 -0.096,0.09424 -0.053,-4.45e-4 -0.1098,-0.01663 -0.1321,0.04829 -0.036,0.05916 -0.041,0.134528 -0.095,0.182787 -0.043,0.06515 -0.1056,0.132254 -0.094,0.216972 0.01,0.05959 0.019,0.124198 -0.021,0.175719 -0.031,0.03736 -0.071,0.0609 -0.1136,0.08369 -0.055,0.02531 -0.061,0.106344 -0.132,0.113251 -0.035,-0.04051 0.053,-0.106292 0.037,-0.161615 -0.045,-0.01559 -0.087,0.04037 -0.1225,0.06639 -0.032,8e-4 0.01,-0.123305 -0.056,-0.06881 -0.036,0.05154 0.022,0.121228 -0.025,0.169245 -0.019,0.04569 -0.062,0.06675 -0.1055,0.08015 -0.064,0.01173 -0.1254,0.03262 -0.1862,0.05182 -0.093,0.03453 -0.1966,0.03877 -0.2942,0.03331 z"
       id="path1157-7-0-2-0-1"
       style="fill:#ffffff;stroke-width:0.0353523" /></g></svg>
