<?xml version="1.0" encoding="UTF-8" standalone="no"?>
<!-- Created with Inkscape (http://www.inkscape.org/) -->

<svg
   width="255.18958mm"
   height="254.95551mm"
   viewBox="0 0 255.18958 254.95551"
   version="1.1"
   id="svg5"
   xml:space="preserve"
   xmlns="http://www.w3.org/2000/svg"
   xmlns:svg="http://www.w3.org/2000/svg"><defs
     id="defs2" /><g
     id="layer1"
     transform="translate(-1915.6999,-296.05346)"><rect
       style="fill:#2ca02c;fill-opacity:1;stroke-width:0.122816;-inkscape-stroke:none;stop-color:#000000"
       id="rect10076"
       width="255.99991"
       height="255.99998"
       x="1915.6998"
       y="296.05347" /><path
       d="m 2048.0453,518.10997 c -1.5935,-0.55479 -1.0417,-2.62776 -0.8448,-3.91009 0.3083,-2.26167 1.2056,-4.49998 0.745,-6.80629 0.1542,-1.17802 1.3997,-1.51746 2.2168,-2.0972 1.3079,-0.66347 2.4566,-1.68823 3.2675,-2.94453 0.6987,-1.31022 0.9696,-2.78419 2.0423,-3.86355 0.9515,-0.78105 1.9232,-1.48597 3.0746,-1.95076 1.2599,-0.46728 2.4294,-0.95998 3.3314,-1.98004 1.164,-1.2516 2.0088,-2.84936 3.3619,-3.88213 0.975,-1.23117 2.3027,-2.16188 3.1913,-3.48628 0.7853,-1.09661 1.5482,-2.20101 2.1906,-3.40341 0.6649,-1.01856 1.6673,-2.26606 1.2089,-3.60342 -0.6266,-1.08559 -1.7976,-1.60508 -2.7678,-2.27595 -1.0182,-0.60753 -1.9621,-1.08494 -2.8922,-1.70852 -0.9099,-0.49938 -1.9293,-0.97912 -2.7591,-1.73782 -1.1173,-0.83443 -1.6537,-2.24375 -2.3463,-3.43083 -0.4402,-1.62435 -2.2636,-2.20479 -2.8035,-3.75977 -0.4294,-0.88837 -1.6577,-2.02882 -2.5824,-1.50081 -1.2406,0.87026 -1.4089,2.59182 -1.373,3.99921 -0.093,1.4818 0.14,3.05711 -0.4346,4.46106 -0.88,0.86739 -1.6132,1.8082 -2.4855,2.59675 -1.1205,0.4238 -2.5755,0.30087 -3.5591,-0.32651 -1.4412,-0.29252 -3.0298,-0.7462 -4.4089,-0.005 -0.7254,0.70954 -1.7807,-0.16873 -2.5472,0.63203 -1.1158,-0.0994 -2.4894,-0.49739 -3.4624,0.20096 -1.5274,0.37508 -2.6946,-0.94368 -4.1839,-0.764 -1.17,0.64371 -2.5902,0.24116 -3.8931,0.32358 -1.1391,-0.031 -2.6679,0.61914 -2.4757,-1.10215 -0.5292,-1.5539 -4.0259,-0.83617 -2.8257,0.82653 1.0112,1.30024 0.084,2.94529 -0.3231,4.29096 -0.4284,1.17144 -0.6109,2.59638 -1.4609,3.51495 -0.8869,1.05465 -2.4796,0.76306 -3.7476,0.92899 -2.2724,0.10569 -4.565,0.40189 -6.8315,0.23698 -1.5766,-0.0571 -2.6503,-1.54919 -2.1298,-3.13951 0.498,-2.52542 0.2572,-5.10452 0.4418,-7.65257 0.3476,-1.20497 1.3633,-2.01513 2.3012,-2.68517 0.637,-0.43971 1.2947,-0.92606 1.9515,-1.49167 1.2981,-1.16319 2.2393,-2.66267 3.3633,-3.96652 0.8952,-0.93612 1.9234,-1.51567 3.1728,-1.79853 1.2749,-0.36346 2.6081,-0.30673 3.9339,-0.22609 1.7634,0.0466 3.5783,0.0414 5.226,0.65737 1.3619,0.3011 2.7498,0.53128 4.1543,0.74328 1.8167,0.13355 3.6639,0.12093 5.4788,-0.0446 1.4401,-0.51168 1.1757,-2.29884 1.1357,-3.52404 -0.098,-3.92459 -0.4432,-7.88224 0.093,-11.78711 0.3328,-1.36578 0.7956,-2.70422 1.1822,-4.04996 -0.1559,-1.44005 -1.0624,-3.24492 -2.7796,-3.02989 -3.1626,-0.13163 -6.3514,-0.34769 -9.4196,-1.16204 -1.0993,-0.34673 -2.2234,-0.55936 -3.261,-0.9918 -1.0723,-0.31572 -2.0766,-0.87945 -3.1829,-1.18854 -1.2326,-0.40863 -2.2527,-1.15699 -3.4114,-1.76547 -0.9167,-0.72679 -1.9264,-1.27585 -2.7708,-2.06792 -1.1122,-0.87134 -2.2896,-1.87988 -3.3779,-2.86978 -1.2186,-1.139 -2.4712,-2.23545 -3.6871,-3.37885 -1.101,-0.5947 -2.4633,-0.39206 -3.5794,-0.93697 -1.3525,-0.49378 -2.7768,-0.97403 -3.9112,-1.87278 -0.7985,-0.5219 -1.5543,-1.00039 -2.4114,-1.29786 -1.1782,-0.61539 -2.486,-1.04538 -3.812,-1.25775 -1.1817,-0.42816 -2.7117,-0.32247 -3.2992,0.96138 -1.2996,1.21025 -0.8144,3.28798 0.6745,4.09555 1.5147,0.92303 1.6164,2.71162 1.8728,4.27013 0.6717,1.46536 2.2356,-0.0122 3.001,-0.64309 1.3687,-0.77643 1.3855,2.05192 1.3307,2.98821 0.054,1.87953 -0.9925,3.55052 -1.0307,5.42141 0.3351,1.67457 -2.8803,2.43772 -1.0602,3.85804 0.7587,1.29931 1.945,2.43678 3.4609,2.70331 1.6645,-0.25642 2.4122,1.26837 2.1199,2.72152 -0.012,2.16895 0.043,4.35162 -0.019,6.51451 -0.448,1.7926 -1.5289,3.32415 -2.1021,5.07663 -0.4697,1.3691 -1.7558,2.29416 -3.0059,2.72161 -1.2758,0.36133 -2.7166,0.68308 -4.0501,0.26588 -1.1532,-0.35006 -2.251,-1.18937 -2.462,-2.48521 -0.4612,-1.39972 -1.6911,-2.50188 -2.8397,-3.22009 -1.1249,-0.77199 -1.3267,-2.31825 -2.139,-3.36249 -1.0194,-1.31894 -0.4426,-2.99354 -0.6934,-4.49714 -0.5499,-1.46495 -1.8102,-2.53382 -2.6345,-3.85543 -1.152,-1.22945 -0.866,-2.99525 -0.8888,-4.53956 -0.067,-3.00835 0.1786,-6.00569 0.4963,-8.99333 0.1943,-4.26171 0.3207,-8.58512 -0.6396,-12.77258 -0.3304,-1.58385 -0.6388,-3.32871 0.287,-4.78751 0.4945,-1.1434 1.0477,-2.22739 1.511,-3.41606 0.4718,-1.06049 1.398,-1.84565 2.3499,-2.35168 0.7348,-0.6293 1.5718,-1.09818 2.5449,-1.41645 0.9934,-0.63527 2.2703,-0.80832 3.4396,-0.40929 0.9921,0.37451 2.0884,1.06404 2.7619,1.76122 0.8439,0.48868 1.6404,1.329 2.6283,1.5432 1.2002,0.36719 2.5678,0.4954 3.8715,0.49402 1.4227,0.0975 3.0379,0.0695 3.4104,-1.59215 1.1798,-1.1426 -0.2606,-2.73098 -0.8195,-3.84285 -0.746,-1.05158 -1.5027,-2.17969 -2.4352,-3.04777 -0.8041,-0.98293 -1.7264,-1.97391 -2.5701,-2.99705 -0.6019,-0.83753 -0.9627,-1.43773 -1.3545,-2.33812 -0.2102,-1.71142 -1.8255,-2.41984 -2.6618,-3.6967 -0.2848,-1.22296 -1.8484,-1.9285 -1.9828,-0.22658 -0.3821,1.08677 -1.4527,1.34556 -2.2694,1.96137 -0.6512,1.24601 -0.9563,2.78253 -2.1103,3.67128 -0.9737,0.74423 -2.15,1.61497 -3.4821,1.39031 -1.0704,-0.0769 -1.5682,-1.35963 -0.2331,-1.42068 1.1962,-0.7826 1.3936,-2.34092 0.456,-3.40908 -0.4464,-1.10759 -1.8024,-0.78348 -2.5542,-0.28308 -0.918,1.23146 -1.4836,2.64285 -1.6737,4.17421 -0.1445,1.45066 -1.3755,2.00692 -2.4759,2.61113 -1.1533,0.42802 -2.1646,1.27918 -3.2768,1.77802 -0.8056,0.38071 -1.5258,1.00423 -2.3168,1.43826 -1.0011,0.44698 -1.9339,1.13489 -3.1427,0.91062 -1.6146,0.17381 -1.6211,-1.8698 -0.9421,-2.86194 0.5984,-1.71475 0.8446,-3.58386 0.2823,-5.34376 -0.1511,-1.52897 -1.0707,-2.95859 -0.6979,-4.50442 0.8037,-1.49615 2.5765,-1.813 3.6134,-3.04572 1.5112,-1.64749 1.3167,-4.31962 3.1496,-5.75284 0.9524,-0.52963 2.095,-0.67253 3.1852,-0.89072 1.3178,-0.14003 2.7342,-0.13266 3.8463,-0.83717 0.9274,-0.19612 1.7548,-0.6844 2.4845,-1.29923 1.0295,-0.60584 2.0257,-1.21361 3.0576,-1.89851 0.7634,-0.58762 1.6285,-1.31353 2.4482,-1.9684 0.8681,-0.92405 1.9937,-1.5717 3.0019,-2.2112 0.9709,-0.55617 2.1547,-0.85223 3.3497,-0.8641 1.5512,0.0375 3.1782,-0.0213 4.6378,0.46807 1.1874,0.93626 1.3584,2.66127 1.8636,4.00577 0.5614,1.70694 1.1133,3.60092 2.727,4.62151 1.3999,0.82244 2.627,1.86923 3.8,2.99051 0.9781,1.10739 2.183,2.00677 3.122,3.16538 0.6329,0.53121 1.5735,1.92494 2.3648,0.88521 0.8387,-0.63081 1.6842,-1.17051 2.5412,-1.65576 0.9673,-0.46068 2.06,-0.8334 3.0771,-1.19878 1.4656,-0.11301 1.2402,-1.98506 2.0455,-2.87312 0.5733,-1.11562 1.4722,-2.04258 2.4958,-2.72728 0.8787,-0.51318 3.1055,-2.05075 1.1198,-2.50521 -1.513,0.0451 -2.5733,-1.11766 -3.0546,-2.43813 -1.3096,-1.03636 -0.2674,-2.49363 1.0762,-2.66504 0.7408,-0.48571 2.9851,-1.15945 1.893,-2.14887 -1.249,0.007 -2.3662,0.74392 -3.3712,1.35825 -1.2339,0.50407 -2.0777,1.68945 -3.1076,2.48201 -1.0212,0.9268 -2.6656,0.60382 -3.5781,-0.3721 -1.1269,-1.00515 -1.4446,-2.50161 -2.3028,-3.68013 -0.8418,-0.93391 -1.7273,-2.0414 -1.5722,-3.35597 -0.061,-1.40145 0.7739,-2.45531 1.7161,-3.36966 1.0311,-0.95068 1.61,-2.22369 2.4456,-3.29893 0.7868,-1.87381 1.6196,-3.75935 2.0205,-5.76586 0.7213,-2.1962 1.2454,-4.45945 2.1346,-6.59347 0.4855,-1.53988 1.4168,-2.89315 2.1715,-4.30946 1.1035,-1.03893 0.1942,-2.05627 -1.0714,-2.09104 -1.294,-0.0428 -2.5163,-0.64467 -3.6541,-1.13241 -0.9237,-0.36443 -1.8376,-1.16291 -2.9236,-1.12886 -1.5047,0.25826 -2.2232,-1.48314 -3.6095,-1.56635 -0.9343,0.21369 -1.9205,0.364 -2.5871,0.98066 -0.9286,0.71531 -1.7765,1.49923 -2.124,2.69632 -0.8026,0.83527 0.1895,3.68586 1.1436,2.52352 -1.0805,-1.2449 1.4476,-2.42384 2.4135,-1.77224 1.3521,0.15653 2.3758,1.54278 2.2002,2.93643 0.053,1.75643 -1.0506,3.27009 -2.3265,4.34529 -0.8537,0.77888 -1.8129,1.19797 -2.9426,1.36194 -1.2191,0.0472 -2.6361,0.10716 -3.6434,-0.54587 -0.7294,-0.1591 -1.289,-0.80465 -1.9006,-1.12514 -0.8742,-0.8693 -1.698,-2.04653 -1.9642,-3.32383 -0.3688,-2.57246 0.1824,-5.27223 1.3719,-7.5645 0.8066,-1.19994 1.8064,-2.2529 2.9775,-3.04889 0.9502,-0.8566 2.231,-1.12996 3.4443,-1.48367 1.2203,-0.18589 1.858,-1.56899 2.9428,-1.92847 0.6144,-0.53448 1.5691,-0.55681 2.2462,-1.02768 1.1989,-0.6567 2.703,-0.0734 4.0338,-0.10215 1.8093,0.23829 3.6925,0.29081 5.3632,1.05372 1.1026,0.32273 2.2118,0.72509 3.2005,1.38867 1.1985,0.35974 2.4589,2.07467 3.6428,0.82016 0.7259,-0.94375 1.6199,-1.74148 2.5744,-2.44851 1.6172,-0.76486 1.2801,-2.89222 1.8774,-4.35525 0.4358,-1.02701 -0.3136,-3.2754 1.5788,-2.44466 1.0939,0.488 2.0984,1.07739 3.2256,1.53792 0.8335,0.59422 1.6365,1.31039 2.2782,2.09822 1.2237,1.59557 1.6367,-1.00872 2.3536,-1.67404 0.5328,-1.16695 1.9884,-2.22064 2.3444,-0.29353 0.8357,1.08423 1.6712,2.26348 1.8072,3.6786 0.6607,1.53755 3.0194,0.0991 4.3976,0.32361 1.0683,-0.08 2.242,0.11507 2.9179,0.92385 0.039,1.38277 0.7461,2.20254 2.028,2.50977 1.5371,0.54943 2.8308,1.80333 3.5201,3.30906 0.4994,1.12856 1.2333,2.02809 2.2399,2.6831 1.0595,0.45836 2.1615,0.88426 3.2874,1.26689 1.2957,0.16155 2.5303,0.7362 3.3056,1.82551 0.619,1.2972 0.1321,2.78087 -1.3409,2.95699 0.441,0.93068 1.5411,1.10109 2.2676,1.83322 1.1231,0.75277 1.5561,2.2641 2.3015,3.38595 1.4788,1.66637 -2.9509,-0.0888 -1.7306,2.09318 0.7239,1.38279 1.0426,2.89849 0.9133,4.45802 0.083,1.85518 -0.611,3.80047 0.3144,5.5455 0.3143,1.36605 2.588,2.36749 0.7964,3.67254 -1.8352,1.08446 -0.018,3.36518 -0.6814,5.00409 -0.2467,2.43085 -1.7093,4.48339 -2.3032,6.80881 -0.5024,1.35777 0.2422,3.35479 1.9224,3.14657 0.3233,1.01145 -2.1902,2.16073 -3.2579,1.36273 -1.4458,-1.18043 -2.3369,0.533 -2.6608,1.73052 0.035,1.83692 -0.3117,3.59026 -0.8226,5.33619 -0.029,1.31578 0.914,2.79284 -0.02,3.98915 -0.5185,1.31784 -0.7698,2.71383 -1.0644,4.09601 0.24,0.60193 1.4099,2.2226 0.1632,1.23724 -1.2835,-0.57542 -2.1518,-1.82634 -2.3379,-3.20335 -0.5634,-1.70055 -1.7987,0.26618 -2.6622,0.55321 -0.5732,0.68703 -2.1858,0.35574 -2.1321,1.54603 0.6812,1.18007 2.0297,1.71947 3.0659,2.53048 1.4211,0.80793 2.5092,2.26411 3.5783,3.53634 1.0616,1.60457 2.5357,2.95832 4.0506,4.09736 0.751,0.51092 1.4962,0.8203 2.2835,1.16009 0.9976,0.37182 1.978,0.72755 3.0276,1.09758 1.0127,0.3096 1.7771,0.91775 2.7735,1.20874 1.1686,0.51147 2.2494,1.38153 3.4003,1.7775 1.0924,0.35637 2.0273,1.01127 3.0684,1.39956 1.0104,0.40263 1.9099,0.95831 2.7982,1.48424 0.5422,0.3114 1.1017,0.58926 1.5737,1.0027 1.0336,0.52754 1.8423,1.29353 2.7175,2.05356 2.1479,1.4797 3.1706,3.96777 4.4388,6.14539 1.1366,1.68421 3.1973,2.53103 4.1393,4.38798 0.8937,1.1306 1.1833,2.83294 2.532,3.51806 1.1407,0.71192 3.1933,0.15809 3.006,-1.45619 -0.2191,-1.48145 -1.6026,-2.35905 -2.8258,-2.91649 -0.9882,-0.5801 -2.0646,-1.1517 -2.9351,-1.96379 -1.1814,-1.03191 -1.6378,-2.74969 -1.8368,-4.27564 -0.2595,-1.54074 0.6026,-3.83799 -1.2298,-4.66535 -1.0138,-0.74608 -2.2009,0.96671 -2.921,0.29582 -0.4058,-1.38472 0.3207,-3.0012 1.5233,-3.72749 0.6117,-0.57443 2.8477,-1.31639 1.135,-2.00799 -1.0976,-0.41338 -2.0705,-0.89234 -3.2709,-1.04559 -1.7809,-0.61699 -3.7714,0.008 -5.514,-0.76178 -1.1471,-0.24618 -2.3436,-0.92115 -3.0779,-1.84627 -1.1107,-0.95198 -1.1736,-2.77432 -2.0067,-3.95829 -0.6456,-0.98353 -1.7368,-1.69882 -2.6329,-2.29928 -1.0419,-0.64507 -2.0602,-1.3697 -2.8754,-2.34811 -1.5073,-1.67958 -1.592,-4.05317 -1.6592,-6.19497 0,-0.83805 0.4997,-3.0796 1.3908,-1.43001 0.3546,0.86853 3.0589,2.014 2.0188,0.24674 -1.155,-1.00146 -1.7623,-2.39902 -1.7711,-3.92744 -0.2501,-1.95013 0.2947,-3.85221 0.7897,-5.71018 0.1763,-1.98711 1.4845,-3.6099 2.4024,-5.3025 0.7324,-1.20066 2.156,-1.72333 2.8931,-2.95988 0.8776,-1.15713 1.9084,-2.28902 3.1334,-2.99395 0.9258,-0.62294 1.8801,-1.44555 2.7923,-2.16747 0.9345,-0.82407 1.9257,-1.57815 2.8821,-2.35733 0.8797,-0.93764 2.2135,-1.49662 3.0495,-2.56197 1.3382,-1.28151 2.2889,-2.85854 3.1193,-4.49837 0.8628,-1.17816 1.5622,-2.4239 2.0601,-3.7932 0.2787,-0.6317 0.5159,-1.27038 0.3805,-1.97016 -0.072,-1.08902 0.026,-2.23526 -0.3817,-3.26054 -0.6881,-1.00728 -1.4249,-2.722 -2.8618,-2.76645 -1.1451,-0.3157 -2.7288,-0.37694 -3.4975,0.73 -1.4548,1.95457 2.4404,1.27923 1.8401,3.0559 -0.4372,1.14904 -1.2929,2.23945 -2.5094,2.50528 -1.2276,0.18759 -2.2352,-0.42661 -3.1642,-1.10961 -1.151,-1.07196 -1.3459,-2.64675 -1.2237,-4.14841 0.1776,-2.08728 1.4281,-4.11326 3.3362,-5.04699 1.1307,-0.46952 2.3862,-0.74562 3.6656,-0.79054 1.3414,-0.14135 2.5949,0.24118 3.7851,0.68333 0.9024,0.43727 1.7068,0.88995 2.6285,1.3012 0.9974,0.70905 2.0602,1.3421 2.7815,2.41462 0.9039,0.90083 1.6474,2.00528 2.1992,3.19766 0.5244,1.34136 1.3231,2.64531 1.0925,4.14413 -0.4043,1.93451 -0.1706,4.03202 -1.1629,5.81405 -0.4252,1.14333 -1.0585,2.14024 -1.473,3.23959 -0.8323,1.25962 -1.5721,2.60502 -2.5715,3.76431 -0.8404,0.93907 -1.6791,2.01435 -2.6046,2.93854 -0.8243,0.90502 -1.6438,1.80394 -2.4104,2.801 -1.0166,0.81756 -1.6993,1.97762 -2.4894,2.93466 -0.7771,0.9133 -1.7222,1.88157 -2.1463,3.06793 -0.3983,1.37557 -0.9568,2.68023 -1.325,4.05766 -0.3754,1.72648 -0.2958,3.6343 0.4803,5.20903 0.535,1.16342 1.2055,2.28571 2.0372,3.31693 0.4314,0.99355 2.4024,1.92314 1.9935,0.1244 -0.448,-1.35663 -1.2809,-2.78195 -0.4623,-4.21745 1.1275,-0.95438 2.2066,-2.04192 1.5112,-3.65364 -0.2383,-1.5188 0.5833,-3.08378 1.4414,-4.28273 0.6593,-0.84387 1.5936,-1.57887 2.6804,-1.80632 1.1684,-0.48561 3.8326,1.70045 2.1801,2.30398 -1.0279,0.25786 -2.2989,0.60492 -2.38,1.93388 -0.2929,1.79664 0.7101,3.65644 2.1547,4.64261 1.037,0.61934 2.0365,1.26 3.0635,1.86616 0.8933,0.58886 1.6204,1.39348 2.3377,2.16872 0.8574,0.92201 1.4863,2.33499 0.5718,3.46433 -1.0431,1.30489 -1.3173,3.26517 -0.4797,4.73589 0.8065,1.12683 1.8384,2.23978 2.9553,2.94692 0.8561,0.5109 1.711,1.21055 2.5399,1.8507 2.8329,2.32747 3.9991,6.13965 3.8756,9.71474 0.067,2.42938 -0.389,4.87954 -1.4161,7.07206 -0.7547,1.37802 1.2183,2.51761 2.4129,2.50803 0.7922,1.07742 -1.5508,2.24961 -1.9292,3.39184 -0.7599,1.17662 -0.7643,2.73307 -0.8283,4.14698 -0.042,1.71799 0.056,3.60959 -1.0543,5.04953 -0.455,1.1003 -1.1725,2.03247 -1.9069,2.88881 -0.8273,0.39908 -2.0946,0.99137 -1.0037,2.03085 0.6163,1.74737 -0.7051,3.5059 -1.8509,4.70734 -1.0182,0.8119 -0.77,2.80604 0.6077,3.13564 -0.3604,0.99333 -1.9682,0.82228 -2.8389,1.32494 -1.1898,0.59241 -2.6318,0.57604 -3.9118,0.23781 -1.9061,-0.43874 -1.2897,-2.88276 -0.012,-3.68179 1.1971,-0.73444 2.7219,-2.09556 1.9491,-3.63095 -1.1152,-0.9084 -2.7855,-0.61462 -4.0862,-1.23475 -1.0829,-0.76032 -2.8503,-1.38484 -2.5759,0.72412 -0.1313,1.53155 -0.8619,2.90013 -1.6081,4.19329 -0.7426,1.37379 -1.7879,2.5516 -2.6202,3.85701 -1.1083,1.37822 -2.0662,2.94974 -3.532,3.98265 -0.859,1.05468 -2.0906,1.8812 -3.0617,2.87953 -0.8957,1.14252 -2.3067,1.79061 -3.0708,3.07872 -0.9525,1.20502 -0.6373,2.92092 -0.3735,4.32172 0.1658,1.30725 1.6611,1.45299 2.3361,2.23817 1.0589,0.88125 1.1113,2.29372 1.6369,3.47391 0.6272,1.23566 1.8717,2.11273 2.1521,3.51576 0.059,1.44371 -0.8161,2.70752 -1.8844,3.51038 -1.1852,0.80404 -1.8034,2.31908 -2.1297,3.70609 -0.8838,1.4559 -2.0996,2.76614 -2.4986,4.46621 -0.3124,1.17629 -1.2703,2.04363 -2.37,2.32176 -1.2914,-0.011 -2.7064,-0.40976 -3.2545,1.18985 -0.895,1.45766 -0.9986,3.31441 -2.3336,4.50341 -1.0653,1.60521 -2.6013,3.25842 -2.3193,5.34564 0.15,1.46818 0.4659,3.05994 -0.5094,4.32928 -0.7663,0.92041 -1.7471,1.50037 -2.7997,2.06185 -1.3723,0.62344 -1.5076,2.62004 -3.2496,2.79023 -0.8867,-0.99812 1.3102,-2.61877 0.9135,-3.98179 -1.1175,-0.38426 -2.1445,0.99471 -3.0188,1.63582 -0.7854,0.0199 0.1491,-3.03793 -1.3838,-1.69515 -0.8872,1.26983 0.549,2.98678 -0.6128,4.16979 -0.4824,1.12568 -1.5369,1.64446 -2.5987,1.97477 -1.5695,0.28883 -3.0895,0.80348 -4.5874,1.27662 -2.286,0.85066 -4.8419,0.95496 -7.2492,0.82056 z"
       id="path10078"
       style="fill:#ffffff;stroke-width:0.870993" /></g></svg>
