<?xml version="1.0" encoding="UTF-8" standalone="no"?>
<!-- Created with Inkscape (http://www.inkscape.org/) -->

<svg
   width="255.99988mm"
   height="256mm"
   viewBox="0 0 255.99988 256"
   version="1.1"
   id="svg5"
   xml:space="preserve"
   xmlns="http://www.w3.org/2000/svg"
   xmlns:svg="http://www.w3.org/2000/svg"><defs
     id="defs2" /><g
     id="layer1"
     transform="translate(-1383.7,-1094.0534)"><rect
       style="fill:#fa0000;fill-opacity:1;stroke-width:0.122816;-inkscape-stroke:none;stop-color:#000000"
       id="rect7401"
       width="255.99994"
       height="255.99998"
       x="1383.7001"
       y="1094.0535" /><path
       d="m 1516.4519,1316.6321 c -1.5936,-0.5548 -1.0418,-2.6278 -0.8447,-3.9101 0.3082,-2.2617 1.2055,-4.5 0.7448,-6.8063 0.1542,-1.178 1.3999,-1.5175 2.217,-2.0972 1.3079,-0.6635 2.4566,-1.6882 3.2672,-2.9445 0.6989,-1.3103 0.9697,-2.7842 2.0424,-3.8636 0.9515,-0.7811 1.9233,-1.486 3.0746,-1.9508 1.26,-0.4673 2.4296,-0.9599 3.3316,-1.98 1.1637,-1.2516 2.0085,-2.8494 3.3617,-3.8821 0.975,-1.2312 2.3027,-2.1619 3.1913,-3.4863 0.7853,-1.0966 1.5482,-2.201 2.1907,-3.4034 0.665,-1.0186 1.6671,-2.2661 1.2088,-3.6034 -0.6266,-1.0856 -1.7976,-1.6051 -2.7676,-2.276 -1.0184,-0.6075 -1.9622,-1.0849 -2.8923,-1.7085 -0.9099,-0.4994 -1.9294,-0.9791 -2.7592,-1.7378 -1.1172,-0.8345 -1.6536,-2.2438 -2.3463,-3.4309 -0.4401,-1.6243 -2.2635,-2.2047 -2.8033,-3.7597 -0.4296,-0.8884 -1.658,-2.0288 -2.5826,-1.5009 -1.2406,0.8703 -1.4088,2.5919 -1.3729,3.9993 -0.093,1.4818 0.1399,3.0571 -0.4347,4.461 -0.88,0.8674 -1.6132,1.8082 -2.4854,2.5968 -1.1206,0.4238 -2.5754,0.3008 -3.5591,-0.3265 -1.4413,-0.2926 -3.0299,-0.7462 -4.4089,0 -0.7254,0.7095 -1.7807,-0.1688 -2.5471,0.632 -1.1159,-0.099 -2.4894,-0.4974 -3.4625,0.201 -1.5275,0.375 -2.6947,-0.9437 -4.1839,-0.764 -1.17,0.6437 -2.5902,0.2411 -3.8932,0.3235 -1.1391,-0.031 -2.6677,0.6192 -2.4756,-1.1021 -0.5292,-1.5539 -4.0259,-0.8362 -2.8258,0.8265 1.0113,1.3003 0.085,2.9453 -0.323,4.291 -0.4283,1.1714 -0.6108,2.5964 -1.4609,3.5149 -0.8868,1.0547 -2.4797,0.7631 -3.7477,0.929 -2.2724,0.1057 -4.5649,0.4019 -6.8314,0.237 -1.5767,-0.057 -2.6502,-1.5492 -2.1298,-3.1395 0.498,-2.5254 0.2571,-5.1045 0.4417,-7.6526 0.3476,-1.205 1.3633,-2.0151 2.3014,-2.6852 0.637,-0.4397 1.2946,-0.926 1.9513,-1.4916 1.2981,-1.1632 2.2394,-2.6627 3.3634,-3.9665 0.8951,-0.9362 1.9235,-1.5157 3.1727,-1.7986 1.275,-0.3634 2.6081,-0.3067 3.9341,-0.2261 1.7632,0.047 3.5781,0.041 5.2258,0.6574 1.362,0.3011 2.7498,0.5313 4.1544,0.7433 1.8166,0.1335 3.6638,0.1209 5.4787,-0.045 1.4401,-0.5117 1.1758,-2.2989 1.1357,-3.5241 -0.098,-3.9246 -0.4431,-7.8822 0.092,-11.7871 0.3328,-1.3658 0.7955,-2.7042 1.1821,-4.0499 -0.1559,-1.4401 -1.0625,-3.2449 -2.7797,-3.0299 -3.1625,-0.1317 -6.3512,-0.3477 -9.4194,-1.162 -1.0994,-0.3468 -2.2235,-0.5594 -3.2609,-0.9919 -1.0726,-0.3157 -2.0767,-0.8794 -3.1831,-1.1885 -1.2326,-0.4086 -2.2528,-1.157 -3.4113,-1.7655 -0.9167,-0.7268 -1.9265,-1.2758 -2.7709,-2.0679 -1.112,-0.8713 -2.2895,-1.8799 -3.3778,-2.8698 -1.2187,-1.139 -2.4713,-2.2354 -3.6872,-3.3788 -1.101,-0.5947 -2.4633,-0.3921 -3.5795,-0.937 -1.3524,-0.4938 -2.7766,-0.974 -3.9112,-1.8728 -0.7983,-0.5219 -1.5542,-1.0004 -2.4113,-1.2978 -1.1783,-0.6154 -2.4858,-1.0454 -3.812,-1.2578 -1.1815,-0.4281 -2.7117,-0.3225 -3.2992,0.9614 -1.2996,1.2102 -0.8144,3.288 0.6746,4.0956 1.5146,0.923 1.6164,2.7116 1.8729,4.2701 0.6715,1.4653 2.2355,-0.012 3.0008,-0.6431 1.3689,-0.7764 1.3853,2.0519 1.3306,2.9882 0.054,1.8795 -0.9924,3.5505 -1.0306,5.4214 0.335,1.6746 -2.8802,2.4377 -1.0602,3.8581 0.7586,1.2993 1.9449,2.4367 3.4608,2.7033 1.6647,-0.2564 2.4123,1.2683 2.1201,2.7215 -0.012,2.1689 0.044,4.3516 -0.02,6.5145 -0.448,1.7926 -1.5288,3.3241 -2.102,5.0766 -0.4696,1.3691 -1.7559,2.2942 -3.0059,2.7216 -1.2759,0.3614 -2.7168,0.6831 -4.0503,0.2659 -1.1531,-0.35 -2.2509,-1.1894 -2.462,-2.4852 -0.461,-1.3997 -1.691,-2.5019 -2.8395,-3.2201 -1.1251,-0.772 -1.3268,-2.3182 -2.1391,-3.3625 -1.0193,-1.3189 -0.4424,-2.9935 -0.6935,-4.4971 -0.5499,-1.465 -1.81,-2.5338 -2.6345,-3.8555 -1.152,-1.2294 -0.8659,-2.9952 -0.8887,-4.5395 -0.067,-3.0084 0.1785,-6.0057 0.4963,-8.9933 0.1942,-4.2618 0.3207,-8.5852 -0.6396,-12.7726 -0.3305,-1.5839 -0.6389,-3.3287 0.2871,-4.7875 0.4944,-1.1434 1.0477,-2.2274 1.511,-3.4161 0.4716,-1.0605 1.3978,-1.8456 2.3499,-2.3517 0.7347,-0.6293 1.5717,-1.0981 2.5448,-1.4164 0.9933,-0.6353 2.2703,-0.8083 3.4397,-0.4093 0.9921,0.3745 2.0884,1.064 2.7618,1.7612 0.8439,0.4887 1.6404,1.329 2.6283,1.5432 1.2,0.3672 2.5677,0.4954 3.8714,0.494 1.4227,0.098 3.038,0.069 3.4105,-1.5921 1.1797,-1.1426 -0.2607,-2.731 -0.8196,-3.8429 -0.7459,-1.0515 -1.5026,-2.1797 -2.4352,-3.0477 -0.8039,-0.983 -1.7264,-1.9739 -2.57,-2.9971 -0.6019,-0.8375 -0.9627,-1.4377 -1.3545,-2.3381 -0.2101,-1.7114 -1.8256,-2.4198 -2.6618,-3.6967 -0.2848,-1.223 -1.8485,-1.9285 -1.9827,-0.2266 -0.3823,1.0868 -1.4529,1.3456 -2.2695,1.9614 -0.6513,1.246 -0.9564,2.7825 -2.1103,3.6713 -0.9736,0.7442 -2.15,1.6149 -3.4821,1.3903 -1.0705,-0.077 -1.5683,-1.3597 -0.2331,-1.4207 1.1963,-0.7826 1.3937,-2.3409 0.4559,-3.4091 -0.4464,-1.1076 -1.8022,-0.7835 -2.5542,-0.2831 -0.9179,1.2315 -1.4836,2.6429 -1.6735,4.1742 -0.1446,1.4507 -1.3755,2.007 -2.4761,2.6112 -1.1532,0.428 -2.1645,1.2792 -3.2766,1.778 -0.8058,0.3807 -1.526,1.0042 -2.3168,1.4383 -1.001,0.4469 -1.9341,1.1349 -3.1429,0.9106 -1.6145,0.1738 -1.6209,-1.8698 -0.942,-2.862 0.5985,-1.7147 0.8447,-3.5838 0.2825,-5.3437 -0.1512,-1.529 -1.0708,-2.9586 -0.6979,-4.5044 0.8035,-1.4962 2.5762,-1.813 3.6132,-3.0458 1.5112,-1.6474 1.3167,-4.3196 3.1496,-5.7528 0.9523,-0.5296 2.095,-0.6725 3.1853,-0.8907 1.3178,-0.14 2.7341,-0.1327 3.8461,-0.8372 0.9274,-0.1961 1.755,-0.6844 2.4846,-1.2992 1.0294,-0.6059 2.0256,-1.2136 3.0576,-1.8985 0.7634,-0.5876 1.6286,-1.3136 2.4482,-1.9684 0.8681,-0.9241 1.9938,-1.5717 3.0019,-2.2112 0.9709,-0.5562 2.1548,-0.8523 3.3496,-0.8641 1.5513,0.037 3.1784,-0.021 4.6379,0.468 1.1873,0.9363 1.3585,2.6613 1.8637,4.0058 0.5614,1.7069 1.1133,3.6009 2.7267,4.6215 1.4001,0.8225 2.6272,1.8693 3.8004,2.9905 0.9779,1.1074 2.1829,2.0068 3.1219,3.1654 0.6327,0.5312 1.5733,1.925 2.3647,0.8852 0.8388,-0.6308 1.6842,-1.1705 2.5412,-1.6557 0.9673,-0.4607 2.0601,-0.8334 3.0772,-1.1988 1.4655,-0.113 1.2401,-1.9851 2.0454,-2.8731 0.5732,-1.1157 1.4721,-2.0426 2.4958,-2.7273 0.8788,-0.5132 3.1054,-2.0508 1.1197,-2.5052 -1.5128,0.045 -2.5733,-1.1177 -3.0543,-2.4382 -1.3097,-1.0363 -0.2677,-2.4936 1.076,-2.665 0.7408,-0.4857 2.985,-1.1594 1.8929,-2.1489 -1.2489,0.01 -2.366,0.7439 -3.371,1.3583 -1.234,0.504 -2.0778,1.6894 -3.1076,2.482 -1.0213,0.9268 -2.6658,0.6038 -3.5782,-0.3721 -1.127,-1.0052 -1.4446,-2.5016 -2.3028,-3.6801 -0.8418,-0.9339 -1.7272,-2.0415 -1.5723,-3.356 -0.06,-1.4015 0.7741,-2.4553 1.7162,-3.3697 1.0311,-0.9507 1.6102,-2.2237 2.4455,-3.2989 0.7868,-1.8738 1.6196,-3.7594 2.0208,-5.7659 0.7212,-2.1962 1.2454,-4.4594 2.1343,-6.5934 0.4857,-1.5399 1.4169,-2.8932 2.1715,-4.3095 1.1036,-1.0389 0.1944,-2.0563 -1.0713,-2.091 -1.2941,-0.043 -2.5162,-0.6447 -3.6541,-1.1324 -0.9237,-0.3645 -1.8376,-1.1629 -2.9235,-1.1289 -1.5049,0.2583 -2.2232,-1.4831 -3.6096,-1.5663 -0.9343,0.2136 -1.9205,0.3639 -2.587,0.9806 -0.9285,0.7153 -1.7765,1.4992 -2.1242,2.6963 -0.8025,0.8353 0.1897,3.6859 1.1438,2.5236 -1.0806,-1.2449 1.4476,-2.4239 2.4135,-1.7723 1.3519,0.1565 2.3757,1.5428 2.2,2.9364 0.053,1.7565 -1.0505,3.2701 -2.3264,4.3453 -0.8537,0.7789 -1.8129,1.198 -2.9427,1.362 -1.219,0.047 -2.6359,0.1071 -3.6433,-0.5459 -0.7294,-0.1591 -1.289,-0.8047 -1.9006,-1.1251 -0.8741,-0.8693 -1.6979,-2.0466 -1.9642,-3.3239 -0.3689,-2.5724 0.1825,-5.2722 1.3718,-7.5645 0.8067,-1.1999 1.8065,-2.2529 2.9776,-3.0489 0.9502,-0.8566 2.2311,-1.1299 3.4443,-1.4836 1.2204,-0.1859 1.8581,-1.569 2.9427,-1.9285 0.6144,-0.5345 1.5691,-0.5568 2.2463,-1.0277 1.199,-0.6567 2.7029,-0.073 4.0339,-0.1022 1.8091,0.2383 3.6923,0.2909 5.3631,1.0538 1.1026,0.3227 2.2118,0.7251 3.2006,1.3886 1.1983,0.3598 2.4588,2.0747 3.6427,0.8202 0.7259,-0.9437 1.6199,-1.7415 2.5743,-2.4485 1.6171,-0.7649 1.2801,-2.8922 1.8775,-4.3553 0.4359,-1.027 -0.3136,-3.2754 1.5788,-2.4446 1.0939,0.488 2.0984,1.0774 3.2257,1.5379 0.8333,0.5942 1.6364,1.3104 2.2783,2.0982 1.2235,1.5956 1.6365,-1.0087 2.3535,-1.674 0.5328,-1.167 1.9883,-2.2207 2.3442,-0.2936 0.8358,1.0843 1.6714,2.2635 1.8073,3.6786 0.6606,1.5376 3.0195,0.099 4.3977,0.3237 1.0682,-0.08 2.2418,0.115 2.918,0.9238 0.04,1.3828 0.7459,2.2025 2.0277,2.5098 1.5372,0.5494 2.8309,1.8033 3.5202,3.309 0.4994,1.1286 1.2332,2.0281 2.2398,2.6831 1.0597,0.4584 2.1618,0.8843 3.2876,1.2669 1.2955,0.1616 2.5302,0.7362 3.3055,1.8255 0.6189,1.2972 0.1322,2.7809 -1.341,2.957 0.4411,0.9307 1.5412,1.1011 2.2677,1.8332 1.123,0.7528 1.5561,2.2641 2.3016,3.386 1.4788,1.6664 -2.9509,-0.089 -1.7307,2.0932 0.7239,1.3828 1.0425,2.8985 0.9133,4.458 0.082,1.8552 -0.611,3.8005 0.3143,5.5455 0.3144,1.366 2.5882,2.3675 0.7965,3.6725 -1.8353,1.0845 -0.019,3.3652 -0.6814,5.0041 -0.2466,2.4309 -1.7094,4.4834 -2.3032,6.8088 -0.5025,1.3578 0.2421,3.3548 1.9223,3.1466 0.3234,1.0115 -2.1902,2.1607 -3.2579,1.3627 -1.4458,-1.1804 -2.3368,0.533 -2.6607,1.7306 0.035,1.8369 -0.3117,3.5902 -0.8226,5.3362 -0.03,1.3157 0.914,2.7928 -0.021,3.9891 -0.5185,1.3178 -0.7699,2.7138 -1.0645,4.096 0.2401,0.6019 1.4101,2.2226 0.1632,1.2373 -1.2835,-0.5755 -2.1516,-1.8264 -2.3379,-3.2034 -0.5633,-1.7005 -1.7987,0.2662 -2.6621,0.5532 -0.5733,0.687 -2.1859,0.3557 -2.1321,1.546 0.681,1.1801 2.0296,1.7195 3.0659,2.5305 1.421,0.8079 2.5093,2.2641 3.5782,3.5364 1.0617,1.6045 2.5358,2.9583 4.0507,4.0973 0.7509,0.5109 1.4961,0.8203 2.2835,1.1601 0.9976,0.3718 1.978,0.7276 3.0275,1.0976 1.0127,0.3096 1.7771,0.9177 2.7736,1.2087 1.1686,0.5115 2.2494,1.3815 3.4004,1.7775 1.0922,0.3564 2.0272,1.0113 3.0682,1.3996 1.0105,0.4026 1.91,0.9583 2.7982,1.4842 0.5424,0.3114 1.1018,0.5893 1.5737,1.0027 1.0336,0.5276 1.8423,1.2936 2.7175,2.0536 2.148,1.4797 3.1707,3.9677 4.4388,6.1454 1.1368,1.6842 3.1974,2.531 4.1394,4.388 0.8937,1.1306 1.1832,2.8329 2.5321,3.518 1.1405,0.7119 3.1931,0.1581 3.0058,-1.4562 -0.2191,-1.4814 -1.6026,-2.359 -2.8258,-2.9165 -0.9881,-0.5801 -2.0644,-1.1517 -2.935,-1.9638 -1.1813,-1.0319 -1.6377,-2.7497 -1.8367,-4.2756 -0.2595,-1.5407 0.6023,-3.838 -1.2299,-4.6654 -1.0139,-0.746 -2.201,0.9667 -2.9211,0.2959 -0.4058,-1.3848 0.3208,-3.0012 1.5235,-3.7275 0.6116,-0.5745 2.8477,-1.3164 1.1348,-2.008 -1.0976,-0.4134 -2.0704,-0.8923 -3.2708,-1.0456 -1.7808,-0.617 -3.7715,0.01 -5.514,-0.7618 -1.1472,-0.2461 -2.3435,-0.9211 -3.0779,-1.8462 -1.1107,-0.952 -1.1736,-2.7744 -2.0068,-3.9583 -0.6455,-0.9836 -1.7366,-1.6989 -2.6328,-2.2993 -1.0418,-0.6451 -2.0603,-1.3697 -2.8755,-2.3481 -1.5073,-1.6796 -1.5919,-4.0532 -1.6591,-6.195 0,-0.838 0.4996,-3.0796 1.3907,-1.43 0.3548,0.8685 3.0591,2.014 2.0189,0.2467 -1.1549,-1.0014 -1.7623,-2.399 -1.7712,-3.9274 -0.25,-1.9501 0.2949,-3.8522 0.7897,-5.7102 0.1764,-1.9871 1.4845,-3.6099 2.4024,-5.3025 0.7324,-1.2006 2.156,-1.7233 2.8932,-2.9599 0.8776,-1.1571 1.9084,-2.289 3.1335,-2.9939 0.9257,-0.6229 1.88,-1.4456 2.7921,-2.1675 0.9347,-0.8241 1.9258,-1.5781 2.8822,-2.3573 0.8798,-0.9377 2.2136,-1.4966 3.0495,-2.562 1.3381,-1.2815 2.289,-2.8585 3.1194,-4.4984 0.8626,-1.1781 1.5621,-2.4239 2.0599,-3.7932 0.2787,-0.6317 0.5161,-1.2703 0.3806,-1.9701 -0.071,-1.089 0.026,-2.2353 -0.3818,-3.2606 -0.688,-1.0072 -1.4249,-2.7219 -2.8618,-2.7664 -1.1451,-0.3157 -2.7287,-0.3769 -3.4973,0.73 -1.455,1.9546 2.4404,1.2792 1.8399,3.0559 -0.4372,1.149 -1.2927,2.2394 -2.5093,2.5053 -1.2276,0.1876 -2.2353,-0.4266 -3.1643,-1.1096 -1.151,-1.072 -1.3458,-2.6468 -1.2236,-4.1484 0.1775,-2.0873 1.4282,-4.1133 3.3361,-5.047 1.1309,-0.4696 2.3864,-0.7456 3.6658,-0.7906 1.3412,-0.1413 2.5947,0.2412 3.785,0.6834 0.9023,0.4372 1.7067,0.8899 2.6285,1.3012 0.9974,0.709 2.0603,1.3421 2.7814,2.4146 0.9039,0.9008 1.6474,2.0053 2.1993,3.1976 0.5244,1.3414 1.323,2.6453 1.0924,4.1442 -0.4043,1.9345 -0.1705,4.032 -1.1629,5.814 -0.4252,1.1433 -1.0584,2.1403 -1.473,3.2396 -0.8323,1.2596 -1.572,2.605 -2.5715,3.7643 -0.8403,0.9391 -1.679,2.0144 -2.6045,2.9386 -0.8244,0.905 -1.6438,1.8039 -2.4103,2.801 -1.0166,0.8175 -1.6995,1.9776 -2.4896,2.9346 -0.777,0.9133 -1.722,1.8816 -2.1464,3.0679 -0.3982,1.3756 -0.9567,2.6803 -1.3248,4.0577 -0.3755,1.7265 -0.2959,3.6343 0.4802,5.209 0.535,1.1635 1.2055,2.2858 2.0374,3.317 0.4313,0.9935 2.4022,1.9231 1.9934,0.1244 -0.4481,-1.3567 -1.2809,-2.782 -0.4623,-4.2175 1.1275,-0.9544 2.2065,-2.0419 1.5111,-3.6536 -0.2382,-1.5188 0.5833,-3.0838 1.4415,-4.2827 0.6593,-0.8439 1.5936,-1.5789 2.6805,-1.8064 1.1682,-0.4856 3.8324,1.7005 2.18,2.304 -1.0278,0.2579 -2.2989,0.6049 -2.3799,1.9339 -0.293,1.7966 0.7101,3.6564 2.1546,4.6426 1.0371,0.6193 2.0364,1.26 3.0634,1.8662 0.8934,0.5888 1.6205,1.3934 2.3379,2.1687 0.8572,0.922 1.4861,2.335 0.5717,3.4643 -1.0431,1.3049 -1.3172,3.2652 -0.4797,4.7359 0.8064,1.1268 1.8383,2.2398 2.9552,2.9469 0.8561,0.5109 1.7111,1.2106 2.54,1.8507 2.8328,2.3275 3.999,6.1397 3.8757,9.7148 0.067,2.4293 -0.3891,4.8795 -1.4162,7.072 -0.7547,1.378 1.2181,2.5176 2.4129,2.508 0.792,1.0775 -1.5507,2.2496 -1.9292,3.3919 -0.7599,1.1766 -0.7644,2.733 -0.8284,4.1469 -0.043,1.7181 0.056,3.6096 -1.0541,5.0496 -0.4552,1.1003 -1.1727,2.0325 -1.9071,2.8888 -0.8271,0.3991 -2.0945,0.9914 -1.0037,2.0309 0.6163,1.7473 -0.7051,3.5058 -1.8509,4.7073 -1.0182,0.8119 -0.77,2.806 0.6077,3.1356 -0.3602,0.9934 -1.9682,0.8223 -2.8388,1.325 -1.1897,0.5924 -2.6318,0.576 -3.9119,0.2378 -1.906,-0.4388 -1.2895,-2.8828 -0.012,-3.6818 1.1972,-0.7344 2.7219,-2.0956 1.9491,-3.631 -1.1152,-0.9084 -2.7856,-0.6146 -4.0862,-1.2347 -1.083,-0.7603 -2.8504,-1.3849 -2.5759,0.7241 -0.1314,1.5316 -0.8618,2.9001 -1.608,4.1933 -0.7428,1.3738 -1.7881,2.5516 -2.6202,3.857 -1.1083,1.3782 -2.0662,2.9498 -3.532,3.9827 -0.859,1.0546 -2.0908,1.8812 -3.0617,2.8795 -0.8958,1.1425 -2.3068,1.7906 -3.0709,3.0787 -0.9525,1.205 -0.6374,2.9209 -0.3734,4.3217 0.1658,1.3073 1.661,1.453 2.336,2.2382 1.0589,0.8813 1.1113,2.2937 1.6368,3.4739 0.6274,1.2357 1.8718,2.1127 2.1523,3.5158 0.058,1.4437 -0.8161,2.7075 -1.8846,3.5104 -1.1852,0.804 -1.8034,2.319 -2.1296,3.706 -0.8837,1.4559 -2.0997,2.7662 -2.4987,4.4663 -0.3123,1.1762 -1.2703,2.0436 -2.3699,2.3217 -1.2915,-0.011 -2.7065,-0.4097 -3.2544,1.1899 -0.8951,1.4576 -0.9988,3.3144 -2.3338,4.5034 -1.0651,1.6052 -2.6012,3.2584 -2.3192,5.3456 0.1501,1.4682 0.466,3.0599 -0.5093,4.3293 -0.7663,0.9204 -1.7473,1.5004 -2.7997,2.0618 -1.3725,0.6235 -1.5076,2.6201 -3.2496,2.7903 -0.8869,-0.9981 1.3101,-2.6188 0.9134,-3.9818 -1.1176,-0.3843 -2.1445,0.9947 -3.0188,1.6358 -0.7855,0.02 0.1492,-3.0379 -1.3839,-1.6951 -0.8872,1.2698 0.5491,2.9867 -0.6126,4.1697 -0.4826,1.1257 -1.5371,1.6445 -2.5989,1.9748 -1.5695,0.2888 -3.0894,0.8035 -4.5873,1.2766 -2.286,0.8507 -4.842,0.955 -7.2492,0.8206 z"
       id="path7403"
       style="fill:#b3b3b3;fill-opacity:1;stroke-width:0.870993" /><path
       d="m 1516.4519,1316.6321 c -1.5936,-0.5548 -1.0418,-2.6278 -0.8447,-3.9101 0.3082,-2.2617 1.2055,-4.5 0.7448,-6.8063 0.1542,-1.178 1.3999,-1.5175 2.217,-2.0972 1.3079,-0.6635 2.4566,-1.6882 3.2672,-2.9445 0.6989,-1.3103 0.9697,-2.7842 2.0424,-3.8636 0.9515,-0.7811 1.9233,-1.486 3.0746,-1.9508 1.26,-0.4673 2.4296,-0.9599 3.3316,-1.98 1.1637,-1.2516 2.0085,-2.8494 3.3617,-3.8821 0.975,-1.2312 2.3027,-2.1619 3.1913,-3.4863 0.7853,-1.0966 1.5482,-2.201 2.1907,-3.4034 0.665,-1.0186 1.6671,-2.2661 1.2088,-3.6034 -0.6266,-1.0856 -1.7976,-1.6051 -2.7676,-2.276 -1.0184,-0.6075 -1.9622,-1.0849 -2.8923,-1.7085 -0.9099,-0.4994 -1.9294,-0.9791 -2.7592,-1.7378 -1.1172,-0.8345 -1.6536,-2.2438 -2.3463,-3.4309 -0.4401,-1.6243 -2.2635,-2.2047 -2.8033,-3.7597 -0.4296,-0.8884 -1.658,-2.0288 -2.5826,-1.5009 -1.2406,0.8703 -1.4088,2.5919 -1.3729,3.9993 -0.093,1.4818 0.1399,3.0571 -0.4347,4.461 -0.88,0.8674 -1.6132,1.8082 -2.4854,2.5968 -1.1206,0.4238 -2.5754,0.3008 -3.5591,-0.3265 -1.4413,-0.2926 -3.0299,-0.7462 -4.4089,0 -0.7254,0.7095 -1.7807,-0.1688 -2.5471,0.632 -1.1159,-0.099 -2.4894,-0.4974 -3.4625,0.201 -1.5275,0.375 -2.6947,-0.9437 -4.1839,-0.764 -1.17,0.6437 -2.5902,0.2411 -3.8932,0.3235 -1.1391,-0.031 -2.6677,0.6192 -2.4756,-1.1021 -0.5292,-1.5539 -4.0259,-0.8362 -2.8258,0.8265 1.0113,1.3003 0.085,2.9453 -0.323,4.291 -0.4283,1.1714 -0.6108,2.5964 -1.4609,3.5149 -0.8868,1.0547 -2.4797,0.7631 -3.7477,0.929 -2.2724,0.1057 -4.5649,0.4019 -6.8314,0.237 -1.5767,-0.057 -2.6502,-1.5492 -2.1298,-3.1395 0.498,-2.5254 0.2571,-5.1045 0.4417,-7.6526 0.3476,-1.205 1.3633,-2.0151 2.3014,-2.6852 0.637,-0.4397 1.2946,-0.926 1.9513,-1.4916 1.2981,-1.1632 2.2394,-2.6627 3.3634,-3.9665 0.8951,-0.9362 1.9235,-1.5157 3.1727,-1.7986 1.275,-0.3634 2.6081,-0.3067 3.9341,-0.2261 1.7632,0.047 3.5781,0.041 5.2258,0.6574 1.362,0.3011 2.7498,0.5313 4.1544,0.7433 1.8166,0.1335 3.6638,0.1209 5.4787,-0.045 1.4401,-0.5117 1.1758,-2.2989 1.1357,-3.5241 -0.098,-3.9246 -0.4431,-7.8822 0.092,-11.7871 0.3328,-1.3658 0.7955,-2.7042 1.1821,-4.0499 -0.1559,-1.4401 -1.0625,-3.2449 -2.7797,-3.0299 -3.1625,-0.1317 -6.3513,-0.3477 -9.4194,-1.162 -1.0994,-0.3468 -2.2235,-0.5594 -3.2609,-0.9919 -1.0726,-0.3157 -2.0767,-0.8794 -3.1831,-1.1885 -1.2326,-0.4086 -2.2528,-1.157 -3.4113,-1.7655 -0.9167,-0.7268 -1.9265,-1.2758 -2.7709,-2.0679 -1.112,-0.8713 -2.2895,-1.8799 -3.3778,-2.8698 -1.2187,-1.139 -2.4713,-2.2354 -3.6872,-3.3788 -1.101,-0.5947 -2.4633,-0.3921 -3.5795,-0.937 -1.3524,-0.4938 -2.7766,-0.974 -3.9112,-1.8728 -0.7983,-0.5219 -1.5542,-1.0004 -2.4113,-1.2978 -1.1783,-0.6154 -2.4858,-1.0454 -3.812,-1.2578 -1.1815,-0.4281 -2.7117,-0.3225 -3.2992,0.9614 -1.2996,1.2102 -0.8144,3.288 0.6746,4.0956 1.5146,0.923 1.6164,2.7116 1.8729,4.2701 0.6715,1.4653 2.2355,-0.012 3.0008,-0.6431 1.3689,-0.7764 1.3853,2.0519 1.3306,2.9882 0.054,1.8795 -0.9924,3.5505 -1.0306,5.4214 0.335,1.6746 -2.8802,2.4377 -1.0602,3.8581 0.7586,1.2993 1.9449,2.4367 3.4608,2.7033 1.6647,-0.2564 2.4123,1.2683 2.1201,2.7215 -0.012,2.1689 0.044,4.3516 -0.02,6.5145 -0.448,1.7926 -1.5288,3.3241 -2.102,5.0766 -0.4696,1.3691 -1.7559,2.2942 -3.0059,2.7216 -1.2759,0.3614 -2.7168,0.6831 -4.0503,0.2659 -1.1531,-0.35 -2.2509,-1.1894 -2.462,-2.4852 -0.461,-1.3997 -1.691,-2.5019 -2.8395,-3.2201 -1.1251,-0.772 -1.3268,-2.3182 -2.1391,-3.3625 -1.0193,-1.3189 -0.4425,-2.9935 -0.6935,-4.4971 -0.5499,-1.465 -1.81,-2.5338 -2.6345,-3.8555 -1.152,-1.2294 -0.8659,-2.9952 -0.8887,-4.5395 -0.067,-3.0084 0.1785,-6.0057 0.4963,-8.9933 0.1942,-4.2618 0.3207,-8.5852 -0.6396,-12.7726 -0.3305,-1.5839 -0.6389,-3.3287 0.2871,-4.7875 0.4944,-1.1434 1.0477,-2.2274 1.511,-3.4161 0.4716,-1.0605 1.3978,-1.8456 2.3499,-2.3517 0.7347,-0.6293 1.5717,-1.0981 2.5448,-1.4164 0.9933,-0.6353 2.2703,-0.8083 3.4395,-0.4093 0.9923,0.3745 2.0886,1.064 2.762,1.7612 0.8439,0.4887 1.6404,1.329 2.6283,1.5432 1.2,0.3672 2.5677,0.4954 3.8714,0.494 1.4227,0.098 3.038,0.069 3.4105,-1.5921 1.1797,-1.1426 -0.2607,-2.731 -0.8196,-3.8429 -0.7459,-1.0515 -1.5026,-2.1797 -2.4352,-3.0477 -0.8039,-0.983 -1.7264,-1.9739 -2.57,-2.9971 -0.6019,-0.8375 -0.9627,-1.4377 -1.3545,-2.3381 -0.2101,-1.7114 -1.8256,-2.4198 -2.6618,-3.6967 -0.2848,-1.223 -1.8485,-1.9285 -1.9827,-0.2266 -0.3823,1.0868 -1.4529,1.3456 -2.2695,1.9614 -0.6513,1.246 -0.9564,2.7825 -2.1103,3.6713 -0.9736,0.7442 -2.15,1.6149 -3.4821,1.3903 -1.0705,-0.077 -1.5683,-1.3597 -0.2331,-1.4207 1.1963,-0.7826 1.3937,-2.3409 0.4559,-3.4091 -0.4464,-1.1076 -1.8023,-0.7835 -2.5542,-0.2831 -0.9179,1.2315 -1.4836,2.6429 -1.6736,4.1742 -0.1445,1.4507 -1.3754,2.007 -2.476,2.6112 -1.1532,0.428 -2.1645,1.2792 -3.2766,1.778 -0.8058,0.3807 -1.526,1.0042 -2.3169,1.4383 -1.0011,0.4469 -1.934,1.1349 -3.1428,0.9106 -1.6145,0.1738 -1.6209,-1.8698 -0.942,-2.862 0.5985,-1.7147 0.8447,-3.5838 0.2824,-5.3437 -0.1511,-1.529 -1.0707,-2.9586 -0.6979,-4.5044 0.8036,-1.4962 2.5763,-1.813 3.6133,-3.0458 1.5112,-1.6474 1.3167,-4.3196 3.1496,-5.7528 0.9523,-0.5296 2.095,-0.6725 3.1851,-0.8907 1.318,-0.14 2.7343,-0.1327 3.8463,-0.8372 0.9274,-0.1961 1.755,-0.6844 2.4846,-1.2992 1.0294,-0.6059 2.0256,-1.2136 3.0576,-1.8985 0.7634,-0.5876 1.6286,-1.3136 2.4482,-1.9684 0.8681,-0.9241 1.9938,-1.5717 3.0019,-2.2112 0.9709,-0.5562 2.1548,-0.8523 3.3496,-0.8641 1.5513,0.037 3.1783,-0.021 4.6379,0.468 1.1873,0.9363 1.3585,2.6613 1.8637,4.0058 0.5614,1.7069 1.1132,3.6009 2.7267,4.6215 1.4001,0.8225 2.6272,1.8693 3.8004,2.9905 0.9778,1.1074 2.1829,2.0068 3.1219,3.1654 0.6327,0.5312 1.5733,1.925 2.3647,0.8852 0.8388,-0.6308 1.6842,-1.1705 2.5411,-1.6557 0.9674,-0.4607 2.0602,-0.8334 3.0773,-1.1988 1.4655,-0.113 1.2401,-1.9851 2.0454,-2.8731 0.5732,-1.1157 1.4721,-2.0426 2.4958,-2.7273 0.8788,-0.5132 3.1054,-2.0508 1.1197,-2.5052 -1.5128,0.045 -2.5733,-1.1177 -3.0543,-2.4382 -1.3098,-1.0363 -0.2677,-2.4936 1.076,-2.665 0.7408,-0.4857 2.985,-1.1594 1.8929,-2.1489 -1.2489,0.01 -2.366,0.7439 -3.371,1.3583 -1.234,0.504 -2.0778,1.6894 -3.1076,2.482 -1.0213,0.9268 -2.6658,0.6038 -3.5782,-0.3721 -1.127,-1.0052 -1.4446,-2.5016 -2.3028,-3.6801 -0.8418,-0.9339 -1.7272,-2.0415 -1.5723,-3.356 -0.06,-1.4015 0.7741,-2.4553 1.7162,-3.3697 1.0311,-0.9507 1.6102,-2.2237 2.4455,-3.2989 0.7868,-1.8738 1.6196,-3.7594 2.0208,-5.7659 0.7212,-2.1962 1.2454,-4.4594 2.1343,-6.5934 0.4857,-1.5399 1.4169,-2.8932 2.1715,-4.3095 1.1036,-1.0389 0.1944,-2.0563 -1.0713,-2.091 -1.2941,-0.043 -2.5162,-0.6447 -3.6541,-1.1324 -0.9237,-0.3645 -1.8376,-1.1629 -2.9235,-1.1289 -1.5049,0.2583 -2.2233,-1.4831 -3.6096,-1.5663 -0.9343,0.2136 -1.9205,0.3639 -2.587,0.9806 -0.9285,0.7153 -1.7765,1.4992 -2.1242,2.6963 -0.8025,0.8353 0.1896,3.6859 1.1437,2.5236 -1.0806,-1.2449 1.4477,-2.4239 2.4136,-1.7723 1.3519,0.1565 2.3757,1.5428 2.2,2.9364 0.053,1.7565 -1.0506,3.2701 -2.3264,4.3453 -0.8537,0.7789 -1.8129,1.198 -2.9427,1.362 -1.219,0.047 -2.6359,0.1071 -3.6433,-0.5459 -0.7294,-0.1591 -1.289,-0.8047 -1.9006,-1.1251 -0.8742,-0.8693 -1.6979,-2.0466 -1.9642,-3.3239 -0.3689,-2.5724 0.1825,-5.2722 1.3718,-7.5645 0.8067,-1.1999 1.8065,-2.2529 2.9776,-3.0489 0.9502,-0.8566 2.2311,-1.1299 3.4443,-1.4836 1.2204,-0.1859 1.8581,-1.569 2.9427,-1.9285 0.6144,-0.5345 1.5691,-0.5568 2.2463,-1.0277 1.199,-0.6567 2.7029,-0.073 4.0339,-0.1022 1.8091,0.2383 3.6923,0.2909 5.3631,1.0538 1.1026,0.3227 2.2118,0.7251 3.2006,1.3886 1.1983,0.3598 2.4588,2.0747 3.6427,0.8202 0.7259,-0.9437 1.6199,-1.7415 2.5743,-2.4485 1.6171,-0.7649 1.2801,-2.8922 1.8774,-4.3553 0.436,-1.027 -0.3135,-3.2754 1.5789,-2.4446 1.0939,0.488 2.0984,1.0774 3.2256,1.5379 0.8334,0.5942 1.6365,1.3104 2.2784,2.0982 1.2235,1.5956 1.6365,-1.0087 2.3535,-1.674 0.5328,-1.167 1.9883,-2.2207 2.3442,-0.2936 0.8358,1.0843 1.6714,2.2635 1.8073,3.6786 0.6606,1.5376 3.0195,0.099 4.3977,0.3237 1.0682,-0.08 2.2418,0.115 2.918,0.9238 0.04,1.3828 0.7459,2.2025 2.0277,2.5098 1.5372,0.5494 2.8309,1.8033 3.5202,3.309 0.4994,1.1286 1.2332,2.0281 2.2398,2.6832 1.0597,0.4583 2.1618,0.8842 3.2875,1.2668 1.2956,0.1616 2.5303,0.7362 3.3056,1.8255 0.6189,1.2972 0.1322,2.7809 -1.341,2.957 0.4411,0.9307 1.5412,1.1011 2.2677,1.8332 1.123,0.7528 1.5561,2.2641 2.3016,3.386 1.4787,1.6664 -2.9509,-0.089 -1.7308,2.0932 0.724,1.3828 1.0426,2.8985 0.9134,4.458 0.082,1.8552 -0.6111,3.8005 0.3143,5.5455 0.3144,1.366 2.588,2.3675 0.7965,3.6725 -1.8353,1.0845 -0.019,3.3652 -0.6814,5.0041 -0.2466,2.4309 -1.7094,4.4834 -2.3032,6.8088 -0.5025,1.3578 0.2421,3.3548 1.9223,3.1466 0.3234,1.0115 -2.1902,2.1607 -3.2579,1.3627 -1.4458,-1.1804 -2.3368,0.533 -2.6607,1.7306 0.035,1.8369 -0.3117,3.5902 -0.8226,5.3362 -0.03,1.3157 0.914,2.7928 -0.021,3.9891 -0.5185,1.3178 -0.7699,2.7138 -1.0645,4.096 0.2401,0.6019 1.4101,2.2226 0.1632,1.2373 -1.2835,-0.5755 -2.1516,-1.8264 -2.3379,-3.2034 -0.5633,-1.7005 -1.7987,0.2662 -2.6621,0.5532 -0.5733,0.687 -2.1859,0.3557 -2.1321,1.546 0.681,1.1801 2.0296,1.7195 3.0659,2.5305 1.421,0.8079 2.5093,2.2641 3.5782,3.5364 1.0617,1.6045 2.5358,2.9583 4.0507,4.0973 0.7509,0.5109 1.4961,0.8203 2.2835,1.1601 0.9976,0.3718 1.978,0.7276 3.0275,1.0976 1.0127,0.3096 1.7771,0.9177 2.7736,1.2087 1.1686,0.5115 2.2494,1.3815 3.4004,1.7775 1.0922,0.3564 2.0272,1.0113 3.0682,1.3996 1.0105,0.4026 1.91,0.9583 2.7982,1.4842 0.5423,0.3114 1.1018,0.5893 1.5737,1.0027 1.0336,0.5276 1.8423,1.2936 2.7175,2.0536 2.148,1.4797 3.1707,3.9677 4.4388,6.1454 1.1368,1.6842 3.1974,2.531 4.1394,4.388 0.8937,1.1306 1.1832,2.8329 2.5321,3.518 1.1405,0.7119 3.1931,0.1581 3.0058,-1.4562 -0.2191,-1.4814 -1.6026,-2.359 -2.8258,-2.9165 -0.9881,-0.5801 -2.0644,-1.1517 -2.935,-1.9638 -1.1813,-1.0319 -1.6377,-2.7497 -1.8367,-4.2756 -0.2595,-1.5407 0.6023,-3.838 -1.2299,-4.6654 -1.0139,-0.746 -2.201,0.9667 -2.9211,0.2959 -0.4058,-1.3848 0.3208,-3.0012 1.5235,-3.7275 0.6116,-0.5745 2.8477,-1.3164 1.1348,-2.008 -1.0976,-0.4134 -2.0704,-0.8923 -3.2708,-1.0456 -1.7808,-0.617 -3.7715,0.01 -5.514,-0.7618 -1.1472,-0.2461 -2.3435,-0.9211 -3.0779,-1.8462 -1.1107,-0.952 -1.1736,-2.7744 -2.0068,-3.9583 -0.6455,-0.9836 -1.7366,-1.6989 -2.6328,-2.2993 -1.0418,-0.6451 -2.0603,-1.3697 -2.8755,-2.3481 -1.5073,-1.6796 -1.5919,-4.0532 -1.6591,-6.195 0,-0.838 0.4996,-3.0796 1.3907,-1.43 0.3548,0.8685 3.0591,2.014 2.0189,0.2467 -1.1549,-1.0014 -1.7623,-2.399 -1.7712,-3.9274 -0.25,-1.9501 0.2949,-3.8522 0.7897,-5.7102 0.1764,-1.9871 1.4845,-3.6099 2.4024,-5.3025 0.7324,-1.2006 2.156,-1.7233 2.8932,-2.9599 0.8776,-1.1571 1.9084,-2.289 3.1335,-2.9939 0.9257,-0.6229 1.88,-1.4456 2.7921,-2.1675 0.9347,-0.8241 1.9258,-1.5781 2.8822,-2.3573 0.8798,-0.9377 2.2136,-1.4966 3.0495,-2.562 1.3381,-1.2815 2.289,-2.8585 3.1194,-4.4984 0.8626,-1.1781 1.5621,-2.4239 2.0599,-3.7932 0.2787,-0.6317 0.5161,-1.2703 0.3806,-1.9701 -0.071,-1.089 0.026,-2.2353 -0.3818,-3.2606 -0.688,-1.0072 -1.4249,-2.7219 -2.8618,-2.7664 -1.1451,-0.3157 -2.7287,-0.3769 -3.4973,0.73 -1.455,1.9546 2.4404,1.2792 1.8399,3.0559 -0.4372,1.149 -1.2927,2.2394 -2.5093,2.5053 -1.2276,0.1876 -2.2353,-0.4266 -3.1643,-1.1096 -1.151,-1.072 -1.3458,-2.6468 -1.2236,-4.1484 0.1775,-2.0873 1.4282,-4.1133 3.3361,-5.047 1.1309,-0.4696 2.3864,-0.7456 3.6658,-0.7906 1.3412,-0.1413 2.5947,0.2412 3.785,0.6834 0.9023,0.4372 1.7067,0.8899 2.6285,1.3012 0.9974,0.709 2.0603,1.3421 2.7814,2.4146 0.9039,0.9008 1.6474,2.0053 2.1993,3.1976 0.5244,1.3414 1.323,2.6453 1.0924,4.1442 -0.4043,1.9345 -0.1705,4.032 -1.1629,5.814 -0.4252,1.1433 -1.0584,2.1403 -1.473,3.2396 -0.8323,1.2596 -1.572,2.605 -2.5715,3.7643 -0.8403,0.9391 -1.679,2.0144 -2.6045,2.9386 -0.8244,0.905 -1.6438,1.8039 -2.4103,2.801 -1.0166,0.8175 -1.6995,1.9776 -2.4896,2.9346 -0.777,0.9133 -1.722,1.8816 -2.1464,3.0679 -0.3982,1.3756 -0.9567,2.6803 -1.3248,4.0577 -0.3755,1.7265 -0.2959,3.6343 0.4802,5.209 0.535,1.1635 1.2055,2.2858 2.0374,3.317 0.4313,0.9935 2.4022,1.9231 1.9934,0.1244 -0.4481,-1.3567 -1.2809,-2.782 -0.4623,-4.2175 1.1275,-0.9544 2.2065,-2.0419 1.5111,-3.6536 -0.2382,-1.5188 0.5833,-3.0838 1.4415,-4.2827 0.6593,-0.8439 1.5936,-1.5789 2.6805,-1.8064 1.1682,-0.4856 3.8324,1.7005 2.18,2.304 -1.0278,0.2579 -2.2989,0.6049 -2.3799,1.9339 -0.293,1.7966 0.7101,3.6564 2.1546,4.6426 1.0371,0.6193 2.0364,1.26 3.0634,1.8662 0.8934,0.5888 1.6205,1.3934 2.3379,2.1687 0.8572,0.922 1.4861,2.335 0.5717,3.4643 -1.0431,1.3049 -1.3172,3.2652 -0.4797,4.7359 0.8064,1.1268 1.8383,2.2398 2.9552,2.9469 0.8561,0.5109 1.7111,1.2106 2.54,1.8507 2.8328,2.3275 3.999,6.1397 3.8757,9.7148 0.067,2.4293 -0.3891,4.8795 -1.4162,7.072 -0.7547,1.378 1.2181,2.5176 2.4129,2.508 0.792,1.0775 -1.5507,2.2496 -1.9292,3.3919 -0.7599,1.1766 -0.7644,2.733 -0.8284,4.1469 -0.043,1.7181 0.056,3.6096 -1.0541,5.0496 -0.4552,1.1003 -1.1727,2.0325 -1.9071,2.8888 -0.8271,0.3991 -2.0945,0.9914 -1.0037,2.0309 0.6163,1.7473 -0.7051,3.5058 -1.8509,4.7073 -1.0182,0.8119 -0.77,2.806 0.6077,3.1356 -0.3602,0.9934 -1.9682,0.8223 -2.8388,1.325 -1.1897,0.5924 -2.6318,0.576 -3.9119,0.2378 -1.906,-0.4388 -1.2895,-2.8828 -0.012,-3.6818 1.1972,-0.7344 2.7219,-2.0956 1.9491,-3.631 -1.1152,-0.9084 -2.7856,-0.6146 -4.0862,-1.2347 -1.083,-0.7603 -2.8504,-1.3849 -2.5759,0.7241 -0.1314,1.5316 -0.8618,2.9001 -1.608,4.1933 -0.7428,1.3738 -1.7881,2.5516 -2.6202,3.857 -1.1083,1.3782 -2.0662,2.9498 -3.532,3.9827 -0.859,1.0546 -2.0908,1.8812 -3.0617,2.8795 -0.8958,1.1425 -2.3068,1.7906 -3.0709,3.0787 -0.9525,1.205 -0.6374,2.9209 -0.3734,4.3217 0.1658,1.3073 1.661,1.453 2.336,2.2382 1.0589,0.8813 1.1113,2.2937 1.6368,3.4739 0.6274,1.2357 1.8718,2.1127 2.1523,3.5158 0.058,1.4437 -0.8161,2.7075 -1.8846,3.5104 -1.1852,0.804 -1.8034,2.319 -2.1296,3.706 -0.8837,1.4559 -2.0997,2.7662 -2.4987,4.4663 -0.3123,1.1762 -1.2703,2.0436 -2.3699,2.3217 -1.2915,-0.011 -2.7065,-0.4097 -3.2544,1.1899 -0.8951,1.4576 -0.9988,3.3144 -2.3338,4.5034 -1.0651,1.6052 -2.6012,3.2584 -2.3192,5.3456 0.1501,1.4682 0.466,3.0599 -0.5093,4.3293 -0.7663,0.9204 -1.7473,1.5004 -2.7997,2.0618 -1.3725,0.6235 -1.5076,2.6201 -3.2496,2.7903 -0.8869,-0.9981 1.3101,-2.6188 0.9134,-3.9818 -1.1176,-0.3843 -2.1445,0.9947 -3.0188,1.6358 -0.7855,0.02 0.1492,-3.0379 -1.3839,-1.6951 -0.8872,1.2698 0.5491,2.9867 -0.6126,4.1697 -0.4826,1.1257 -1.5371,1.6445 -2.5989,1.9748 -1.5695,0.2888 -3.0894,0.8035 -4.5873,1.2766 -2.286,0.8507 -4.842,0.955 -7.2492,0.8206 z m 3.2738,-0.7066 c 2.8276,-0.3552 5.5186,-1.3354 8.2389,-2.1329 2.0394,-0.3938 1.9202,-2.5116 1.7337,-4.0881 0.7481,-1.2769 -0.4237,-2.1652 -1.4638,-1.2035 0.6506,1.0976 -0.4625,2.9773 -1.6257,1.6813 -1.2389,-0.123 -2.5352,-1.6707 -3.4411,-0.048 -1.3885,0.9668 -3.386,-0.6107 -2.915,-2.2111 -0.2235,-1.6533 0.7763,-3.1423 2.5006,-3.3048 -0.3703,1.3751 -1.3755,2.953 -0.6034,4.3659 0.5799,0.2541 1.7373,0.02 1.9792,-0.6176 0.2577,-0.83 0.9961,-2.5157 1.8137,-2.1095 -0.9969,1.3028 0.7904,2.2747 1.1231,3.0736 -0.2507,-2.0737 2.1749,-1.9544 3.4283,-2.7109 1.6397,-0.3187 1.7354,-1.6967 0.9951,-2.9399 -0.4317,-1.3293 -0.7822,-3.4746 0.7222,-4.2293 1.1773,1.1848 -0.065,2.8944 0.7444,4.2334 0.7088,0.9123 0.6305,3.0252 1.6298,3.2614 1.121,-1.2305 0.5027,-2.9505 0.3468,-4.3971 -0.2269,-1.0061 0.9867,-2.6933 1.0619,-0.7947 0.5313,1.5783 1.6391,2.968 1.6384,4.702 0.1389,0.8378 -0.5351,2.8212 1.0095,1.864 1.5678,-0.7028 2.38,-2.5493 1.8322,-4.1785 -0.3514,-1.6557 -1.3573,-3.119 -1.4818,-4.842 -0.4727,-2.016 0.3501,-4.0366 1.4044,-5.723 0.5725,-0.9589 1.6275,-0.5084 0.9608,0.4891 -0.4789,1.8775 -1.5083,3.9049 -0.7343,5.832 1.0624,-0.4176 1.7187,-1.9479 2.5839,-2.8137 1.2313,-1.4746 1.1848,-3.6452 2.6789,-4.9386 1.4217,-0.7147 0.4592,-3.6044 2.1104,-3.5598 0.466,0.9633 -0.1324,3.8211 1.756,2.4983 1.2822,-0.9934 1.0907,-2.9001 2.2032,-4.0549 0.7919,-1.2073 1.758,-2.372 1.9006,-3.8665 0.6024,-1.8471 3.1017,-2.3165 3.3577,-4.3292 0.2625,-1.8131 -1.7374,-2.7682 -2.2466,-4.3385 -0.3022,-1.5278 -0.972,-3.0375 -2.5141,-3.6566 -1.5861,-0.9785 -1.6722,-3.0289 -1.7231,-4.6939 0.1503,-1.8494 1.8639,-2.9931 3.0447,-4.2342 2.3836,-2.2317 5.0678,-4.1931 6.9335,-6.9182 1.9216,-2.8254 4.4914,-5.5831 4.7106,-9.1662 -0.1,-2.1561 -0.5912,-4.3164 -0.3274,-6.4813 1.0963,-1.5491 1.6083,1.3473 1.6319,2.2311 0.4178,1.8716 1.8579,3.5259 3.8103,3.8304 1.4848,0.4137 3.4036,0.3304 4.2414,1.8904 0.5433,1.5155 -0.9733,2.7245 -1.9923,3.5917 -1.616,0.5685 -1.9155,3.3761 0.3084,2.8277 1.1996,-0.1903 3.0146,-0.5277 2.1732,-2.1343 0.1881,-1.7371 1.9739,-2.6028 2.5895,-4.1579 1.1381,-1.6697 -0.632,-2.8597 -1.9148,-3.5792 -1.0728,-0.4994 -2.4342,-1.4601 -0.6576,-2.0824 0.5461,-0.3932 0.5699,-0.9809 0.4993,-1.5925 -0.4278,-1.5325 1.3684,-1.9829 1.9717,-3.0968 0.4982,-0.6072 0.8831,-2.8919 1.3846,-1.0846 0.3352,1.4615 -0.9496,2.7411 -1.0823,3.9309 0.5604,-0.1071 1.334,-0.9824 0.8043,0.2267 -0.3761,0.8205 -2.0524,2.5655 -0.1066,2.4663 1.9595,-0.4686 3.2909,-2.388 3.3513,-4.3618 0.3245,-2.1097 -0.1832,-4.287 0.3673,-6.3607 0.2275,-1.1855 3.0155,-2.8218 1.2625,-3.6444 -1.7573,-0.464 -2.8794,1.3209 -4.4904,1.4521 -2.055,-0.6614 0.2575,-1.7832 1.2241,-2.1683 1.3333,-0.9177 1.8423,-2.5493 2.7892,-3.7994 1.1724,-2.2119 0.9726,-4.8577 0.5541,-7.2448 -0.3025,-1.7605 -0.6843,-3.5995 -1.6192,-5.1394 -1.4907,-1.9775 -3.6008,-3.2935 -5.5643,-4.7364 -1.7221,-1.3224 -2.9372,-3.3682 -2.8371,-5.5873 -0.2616,-1.5008 0.778,-2.7229 1.1017,-4.1028 -0.4187,-1.429 -1.8202,-2.3247 -2.9382,-3.2057 -1.9156,-1.38 -4.5858,-2.3624 -5.2192,-4.8874 -0.3518,-1.3801 -0.2983,-3.1002 1.0113,-3.9741 0.4804,-0.8665 3.3627,-0.3122 1.5095,-1.4671 -1.883,-0.6425 -3.2897,1.3199 -3.884,2.8571 -0.9377,1.3619 0.4637,2.984 -0.3809,4.2566 -1.1058,1.1108 -2.3784,2.4731 -2.0269,4.1883 0.3899,1.5175 1.6605,2.7027 1.5285,4.3968 0.1477,1.6762 2.4197,2.3791 2.2202,4.1153 -1.176,-0.5012 -1.4033,-2.5588 -2.7743,-3.2118 -1.6681,-1.1504 -3.5826,-2.1009 -4.6417,-3.9182 -0.7665,-1.202 -1.5685,-2.3842 -2.3005,-3.604 -0.6676,-1.5732 -0.2563,-3.3074 0.2224,-4.8673 0.1719,-1.5191 0.3796,-3.0839 1.4134,-4.3066 1.8235,-2.6109 3.5696,-5.3265 5.9972,-7.4305 2.7164,-2.8085 5.5206,-5.6862 7.0784,-9.333 0.8729,-1.9016 1.1236,-4.0199 1.5025,-6.0594 0.5395,-3.3445 -0.7773,-6.9551 -3.5347,-8.9832 -2.1933,-1.8738 -4.8123,-3.8295 -7.8639,-3.5035 -2.2205,0.024 -4.4039,1.3397 -5.2306,3.4472 -0.8111,1.8178 -0.7091,4.22 0.6948,5.7196 0.8195,1.1919 3.4347,0.8232 3.0213,-0.7668 -1.6418,-0.3451 -2.5841,-2.2599 -1.315,-3.5732 0.8173,-1.3019 2.3916,-1.6945 3.8346,-1.5707 3.0935,-0.059 5.5941,2.4028 6.755,5.0846 1.1837,2.3397 1.0781,5.1714 0.078,7.5542 -0.7428,2.0684 -1.6379,4.1661 -3.3375,5.6386 -0.6531,0.5392 -1.3074,1.6108 -2.0531,1.7072 1.0547,-1.3392 2.1599,-2.6783 2.887,-4.2452 1.244,-2.5318 2.299,-5.3843 1.9164,-8.2428 -0.8951,-1.5146 -1.2035,1.453 -1.6716,2.0068 -1.109,2.7035 -2.4423,5.3832 -4.6083,7.4061 -1.997,2.2421 -4.7809,3.6201 -6.6904,5.9552 -1.3323,1.3959 -3.163,2.1688 -4.4339,3.6385 -0.9732,1.098 -2.2357,1.9028 -3.1826,3.01 -0.9269,1.6672 -2.7541,2.7891 -3.1319,4.7436 -0.2443,1.9633 -1.7865,3.6545 -1.3786,5.711 0.2963,1.5194 0.3732,3.1491 1.2141,4.4932 0.9246,1.2756 2.2726,2.2053 3.1224,3.5276 0.2535,1.4241 0.6935,2.8839 1.9002,3.8014 0.8058,0.9269 2.826,0.718 2.5769,2.3651 -0.6764,-1.6088 -2.9262,-0.5263 -3.9336,-1.8838 -1.4448,-1.0828 -0.9173,-3.37 -2.5141,-4.3564 -1.2489,-0.5522 -2.4914,-1.4689 -3.7571,-1.8037 -0.26,1.9541 0.4084,4.0143 1.5391,5.6017 1.8068,2.0625 4.8284,2.8242 6.124,5.3573 0.6526,1.5317 1.0671,3.3977 2.6959,4.2109 2.0879,1.2468 4.5681,1.4122 6.9335,1.5276 1.984,0.4115 3.9705,1.0267 5.7513,1.9976 1.6079,1.2072 1.845,3.3292 2.8007,4.9786 1.0867,2.6633 3.805,4.0169 5.7853,5.9076 0.9795,1.4118 1.031,3.2729 2.1047,4.6499 1.0239,1.5525 1.5173,3.9141 -0.033,5.3051 -1.0154,0.9616 -1.9183,2.0918 -3.0302,2.9245 -0.8691,-1.3441 1.1651,-2.4599 2.1029,-3.1857 1.0928,-1.4258 0.4054,-3.4199 -0.1582,-4.9303 -0.5788,-1.6987 -2.3288,-2.6802 -2.7578,-4.4694 -0.5918,-1.7593 -2.7789,-1.8503 -3.8991,-3.1787 -1.5583,-1.4108 -1.0416,-4.1131 -2.9862,-5.2225 -1.3283,-0.6235 -3.3519,-0.509 -4.2548,0.7842 -0.035,1.0805 2.3236,0.053 2.8511,1.2363 1.5384,1.4809 0.9634,3.7091 1.0947,5.5904 0.2714,2.3609 2.5069,3.8609 4.6698,4.3102 1.2076,0.5432 2.1334,1.5869 3.1278,2.448 1.2043,1.0608 0.6313,3.2126 -0.5073,4.1066 -1.2851,1.2466 -3.5261,1.4103 -4.7716,0.017 -1.3716,-1.4277 -1.7343,-3.6032 -3.3901,-4.811 -1.2294,-1.0159 -2.5376,-2.042 -3.152,-3.5708 -1.0408,-1.7744 -1.9533,-3.6949 -3.6322,-4.9762 -3.6039,-3.3918 -8.2917,-5.1723 -12.6035,-7.4472 -2.0465,-1.1429 -4.2082,-2.0377 -6.4142,-2.8184 -2.1582,-0.7808 -4.1368,-2.0267 -5.6255,-3.7906 -1.9343,-2.1713 -3.6011,-4.6736 -6.1477,-6.2012 -1.6303,-0.9389 -2.6023,-2.8132 -4.5318,-3.2584 -1.3906,-0.818 -2.8763,0.2957 -3.3309,1.6326 -0.8127,1.3385 0.1832,3.628 1.9181,3.2005 1.2148,-1.0258 1.595,0.6403 0.4775,1.118 -1.4779,0.8018 -3.2461,0.2458 -4.5594,-0.6078 -1.9778,-1.7214 -1.7722,-4.8427 -0.5544,-6.9448 1.57,-3.2474 5.3658,-4.386 7.4776,-7.1562 0.9828,-1.6406 -1.2576,0.2497 -1.9128,0.381 -1.5008,0.348 -2.248,1.9937 -3.8059,2.203 -1.5049,0.2926 -3.5187,-0.5772 -4.5976,0.8972 -0.45,1.4348 -2.2901,1.2644 -3.4137,1.9946 -1.4754,-0.1194 -3.1941,1.8644 -1.3568,2.7198 2.0527,-0.9886 1.2775,2.384 -0.4038,1.8428 -1.8212,-0.2112 -2.8204,-2.3732 -2.1071,-3.9843 0.6482,-1.3129 0.7408,-2.7875 1.2518,-4.1343 0.4731,-1.1725 2.3778,-1.7202 1.2454,-3.1453 -0.3342,-1.722 0.4455,-3.5708 1.8405,-4.6243 1.5184,-1.2159 3.6212,-1.3301 5.4919,-1.2584 1.5091,-0.3918 2.5587,-1.8728 3.5184,-3.0126 0.5565,-1.5745 0.3804,-3.4418 1.5939,-4.7468 1.1434,-1.8242 3.893,-1.4605 4.8947,-3.413 0.07,-0.6496 -1.5044,-0.7097 -1.9118,-0.3156 -1.0797,1.2516 -2.821,1.4288 -4.0691,2.4457 -0.914,0.1157 -1.3926,2.8613 -1.6466,0.9173 0.3924,-0.8912 -0.7567,-1.94 -1.2187,-0.8887 1.2307,0.6343 -1.9595,1.6361 0.1853,1.6085 0.6747,0.7377 -1.8761,1.3803 -1.2202,-0.055 -0.2362,-2.046 -1.2783,1.0053 -1.6817,1.5941 -0.7347,1.6055 -2.6104,1.8399 -4.166,1.7746 -1.3915,-0.1381 -3.2717,0.3994 -3.3129,2.0404 0.7251,0.3683 2.2339,-0.4147 1.8399,1.2774 -0.012,1.8143 -2.3877,2.063 -3.5446,1.1258 -1.6463,-1.0654 -1.9503,-3.338 -1.0955,-5.0075 0.7508,-2.0611 2.8338,-3.0232 4.3436,-4.4214 0.5905,-0.448 0.6534,-1.0661 0.4703,-1.7299 -0.3061,-1.8983 -0.2743,-3.9291 0.7781,-5.6103 1.4902,-2.416 4.0965,-3.9134 6.7881,-4.6222 1.7019,-0.5288 3.7525,-1.3078 4.3054,-3.1819 -0.1134,-1.5847 -0.6377,-3.3621 0.4284,-4.763 1.0836,-1.2777 2.3601,-2.798 2.0537,-4.5997 -0.6559,-1.6494 -2.1282,1.0979 -3.1567,1.3039 -0.8657,0.8445 -3.9353,1.5262 -2.5715,3.074 1.1513,2.1471 -2.3982,2.2211 -2.9872,0.4948 -0.9654,-0.5953 -0.4069,-3.2142 -1.5555,-2.805 -1.4082,2.1099 -0.8552,4.8147 -0.3386,7.1242 0.4682,1.0054 1.6731,1.9875 0.012,2.6532 -1.126,1.0331 -1.9916,2.3185 -3.2207,3.2488 -2.7104,2.6191 -6.014,4.9732 -7.3272,8.6719 -0.8507,1.1743 -0.8166,3.446 0.9732,1.9626 1.2136,-0.4905 2.2198,-2.202 3.174,-2.428 0.2654,1.7199 -1.5333,2.743 -2.7351,3.5795 -1.4666,0.8532 -2.9886,1.6426 -4.1839,2.8786 -1.926,1.8294 -4.4998,2.8832 -6.2141,4.9358 -0.7926,0.7324 -1.586,2.9815 0.3198,2.2871 1.5442,-0.2597 2.5062,-1.6111 3.7161,-2.4588 -0.3224,1.8475 -1.8162,3.6128 -3.7956,3.6682 -3.1284,0.2855 -6.4226,1.1201 -8.6613,3.4725 -1.4066,1.6596 -2.6768,3.4353 -4.1085,5.0772 -1.4697,2.1093 -2.0856,4.6583 -2.8798,7.0696 -0.4412,2.0716 -1.4142,3.974 -2.6043,5.7071 1.0085,0.6523 2.9671,-0.74 4.2547,-1.0954 2.2301,-1.023 4.6643,-1.5582 7.12,-1.4347 1.833,0.01 3.6665,0.2601 5.4503,0.6643 1.2873,1.178 -1.8457,0.6206 -2.5539,0.5014 -2.9358,-0.4112 -6.0207,-0.2861 -8.7573,0.9525 -2.7122,1.1508 -5.5252,2.1451 -8.4548,2.5418 -2.3933,0.2372 -4.8513,-0.1917 -7.0676,-1.1045 -1.3908,-0.7506 -2.624,-1.8086 -4.003,-2.612 -1.8867,-0.7865 -3.8137,0.4871 -5.323,1.5267 -1.3146,0.5554 -1.8556,2.0138 -1.9348,3.337 -0.4224,1.4435 -1.6808,2.4494 -1.988,3.9478 -0.4322,1.5098 0.3735,3.0413 0.5136,4.5512 0.6655,4.8001 0.374,9.6815 -0.1608,14.4796 -0.1597,2.1958 -0.3781,4.3925 -0.5467,6.5834 0.197,2.3074 1.9558,3.9887 3.2531,5.7545 0.8067,1.5018 3.0254,2.0434 3.5928,3.4031 -1.017,0.304 -3.4145,0.054 -2.3373,1.8234 0.5935,1.4089 1.6739,2.6886 3.3272,1.8601 1.06,0.1116 2.2715,0.5673 2.3183,-0.9557 0.4225,-0.8862 3.0434,-1.8317 1.6551,-0.1323 -1.2217,0.5354 -1.2228,1.7487 -1.5473,2.7637 -0.8085,-0.016 -1.457,-1.6086 -2.4445,-0.4971 -1.6245,1.0043 0.9352,1.9365 1.2496,3.0174 0.4893,0.9336 0.7489,2.0501 1.7791,2.5463 1.3192,-0.094 2.7365,0.133 3.984,-0.3827 1.8414,-0.7728 2.0033,-2.9408 2.915,-4.4707 0.6742,-1.4408 1.2636,-2.9713 0.9349,-4.5889 -0.2556,-1.5799 0.018,-3.2574 -0.4899,-4.7839 -0.9723,-0.397 -2.7364,-1.0484 -3.4716,-0.6656 0.3706,1.6541 -2.0139,3.0879 -0.1653,4.3519 1.9426,-0.6487 1.5903,1.7416 1.7398,2.9504 0.5158,1.2084 -2.3689,2.4778 -1.814,0.6482 -1.1571,0.6413 -2.191,-0.3781 -1.388,-1.5443 0.2675,-1.0531 -0.5344,-1.9142 -0.792,-2.9065 -0.7119,-0.2938 -1.821,-1.059 -0.4594,-1.4056 1.5566,-0.4211 1.0073,-2.5781 2.4295,-3.1732 -0.012,-1.5382 -1.2399,-3.0091 -2.8331,-3.0349 -1.0091,0.06 -1.9523,-0.6221 -0.639,-1.2716 1.2902,-0.8731 3.6643,-0.7634 3.4881,-2.9444 0.016,-1.5414 0.7186,-2.9447 0.9922,-4.4284 0.1066,-2.2016 -2.3096,-0.5487 -2.9237,0.4225 -0.7592,1.2096 -3.0974,1.9146 -3.6596,0.2124 1.0004,-0.9231 1.9608,-2.0678 1.7947,-3.5735 0.2629,-1.5826 -0.4112,-3.1525 -1.8728,-3.8657 -0.6121,-0.907 -1.3347,-0.7563 -0.9543,0.3715 0.3544,1.6945 -0.6648,3.2795 -0.2781,4.9923 0.2072,1.7642 -0.9143,3.4332 -0.4085,5.1667 -0.043,1.2512 0.4983,3.5153 -0.8747,4.0584 -0.074,-1.4513 0.3657,-2.8185 -0.1969,-4.2439 -0.3776,-1.3147 1.102,-2.8912 -0.2344,-3.8707 -0.5328,-0.4708 0.03,-1.3494 -0.1647,-1.9776 -0.6266,-1.1816 0.9843,-2.0647 0.027,-3.1159 0.7615,-0.4086 1.9031,-1.1635 0.6208,-1.7978 0.8806,-1.3159 0.7229,-3.0981 1.9489,-4.2245 1.0503,-1.2976 1.8176,-2.7777 2.7231,-4.1668 0.012,-1.0895 2.5434,-3.1408 2.2462,-1.0203 0.056,1.2569 -1.3955,2.6461 -0.9409,3.587 1.6405,0.5619 3.3772,0.8774 4.9307,1.6966 2.2854,1.0636 4.2859,2.7551 6.8166,3.2539 3.0464,0.8709 6.303,0.2559 9.3126,1.3033 1.6329,0.7784 3.0953,-0.3277 4.0971,-1.536 1.6482,-1.3847 4.2129,-0.938 5.719,-2.5942 0.8078,-0.4222 2.1359,-3.1954 2.5275,-1.1923 -0.6168,2.2105 -2.8593,3.4648 -4.9809,3.8899 -1.322,0.1799 -3.4609,1.1468 -3.007,2.68 0.6295,-0.5515 2.3369,-1.7862 2.0409,0.023 -0.8702,1.7096 1.2501,-0.8038 1.4028,0.8896 -0.4416,1.6616 1.9069,-0.8033 1.5577,0.9893 0.085,0.8703 -1.9484,2.1041 -1.1097,2.4341 1.0097,-0.1331 2.5393,-2.4243 3.0847,-0.8858 -1.1246,1.275 -2.7553,2.4094 -4.5175,2.328 -0.7502,-0.3529 -3.4671,-0.782 -1.8198,-1.8308 0.5572,-0.1812 2.5148,-1.5434 0.8663,-0.8001 -1.3618,1.1292 -2.7667,-0.2961 -1.5688,-1.3085 -1.7013,0.3 -2.35,-1.6795 -3.8781,-1.9319 -1.435,-0.3651 -2.976,-0.8903 -4.4495,-0.5499 1.2302,1.6888 2.9423,2.9999 4.5081,4.3826 2.5829,2.2721 5.6059,3.9861 8.8429,5.135 5.7252,2.2621 12.0367,2.8317 18.1179,2.019 2.0664,-0.1282 4.1439,-0.6357 6.2117,-0.3656 1.3825,-0.1246 2.0059,1.7003 0.3254,1.6903 -1.1897,1.1388 -2.66,-0.6321 -3.9504,0.012 0.368,0.9833 1.7251,2.7318 -0.1601,3.243 -2.107,0.5147 -1.8806,-2.5 -3.4731,-2.8353 -0.4408,0.9826 0.7007,2.7469 1.3149,3.7419 1.0884,1.2437 2.8722,0.3426 3.5981,-0.8178 1.5937,-1.1289 3.7209,-1.154 5.5905,-0.9476 1.7001,0.1504 2.6634,1.7055 3.4434,3.0259 0.8826,0.6642 0.1159,3.4357 1.4689,2.9047 0.5243,-2.0066 1.3622,-3.9518 1.5067,-6.0404 -0.641,-0.6288 -1.6564,-1.4268 -0.8926,-2.3831 0.5235,-1.3712 -1.0798,-3.1004 -2.1474,-1.426 -0.7473,1.4901 -1.8436,0.3592 -1.8895,-0.7714 -1.6087,0.045 -3.0098,-0.591 -4.5972,-0.7761 -1.4278,0.5356 -2.5651,-0.9337 -1.3747,-2.044 0.153,-0.9411 1.7593,-2.2639 1.6088,-0.4778 -0.9132,2.2762 1.7643,-1.6161 2.1154,0.2374 -0.7788,0.9527 0.036,2.6663 1.183,1.4462 0.6551,-1.2885 1.7736,-0.9043 2.1276,0.3304 0.8313,1.1615 1.8475,-1.4029 2.8792,0.062 0.9686,1.1625 2.414,1.9624 3.0963,3.3461 0.117,1.4025 -1.1299,2.5242 -0.9928,4.0095 -0.6378,2.1664 -1.1785,4.3617 -1.6983,6.5565 -0.5083,1.7042 -1.7877,3.0212 -2.4643,4.6225 -0.2247,1.5135 0.015,3.077 0.31,4.566 1.076,1.0483 2.328,1.9458 2.7412,3.5492 1.1594,0.9571 1.5136,2.298 2.1282,3.5974 1.1579,1.7645 2.3661,3.6384 4.1811,4.7917 1.2121,0.9577 2.7809,0.6855 4.0519,1.3683 1.5256,0.9214 2.758,2.4735 2.9345,4.2795 0.1792,1.7489 -1.2027,3.097 -1.9695,4.5337 -1.8475,3.5608 -5.367,5.7701 -7.6289,9.017 -1.0493,1.5878 -2.816,2.3681 -4.5086,3.0612 -1.5504,0.7295 -3.1148,1.7535 -3.6592,3.4766 -0.5033,1.5288 -0.9862,3.2463 -2.3349,4.2651 -1.0706,1.0562 -3.3354,1.1338 -3.7119,2.6972 0.6243,0.3742 1.9737,0.3572 0.9864,1.4028 -1.0422,1.0306 -1.4328,2.4442 -1.7422,3.8314 -0.2512,1.467 -0.916,3.087 -0.2729,4.5175 0.9088,0.574 2.1291,0.048 3.1142,0 z m 13.9739,-18.5991 c 0.7394,-1.5174 2.3474,-2.4649 2.684,-4.2532 0.986,-1.3166 2.3215,-2.3422 3.1954,-3.7456 0.8316,-0.5889 2.2514,-1.7991 2.759,-1.9991 -0.8188,1.0313 -1.3337,2.3152 -2.472,3.0004 -0.4218,1.5445 -1.1698,3.1695 -2.4602,4.1727 -1.2839,0.8464 -2.1936,2.7537 -3.6842,3.0177 z m 9.2428,-10.2909 c -0.7583,-0.2481 0.8458,-1.5001 1.1154,-2.0019 1.3258,-0.8745 1.7362,-2.4848 3.1646,-3.1138 1.4114,-1.0559 3.3372,-2.3331 2.9997,-4.3712 -0.4575,-0.7651 -0.2846,-2.3195 0.7224,-1.0826 0.1344,1.2821 -0.7638,2.5213 -0.5515,3.9299 -0.09,1.9446 -2.1696,2.5078 -3.0929,3.9069 -0.6161,1.5531 -2.4559,1.6491 -3.5237,2.7471 -0.2703,0.097 -0.5614,0.03 -0.834,-0.014 z m 6.1766,-12.0374 c -0.8257,-1.2874 1.6749,-0.01 0.2353,0.1287 z m -9.4134,-0.8414 c -0.9166,0.1199 -2.112,-1.1345 -1.7568,-1.5415 0.2912,0.136 3.4842,2.0492 1.7568,1.5415 z m 1.1349,-2.0005 c 0.2903,-0.4387 0.3325,0.5423 0,0 z m 1.422,-0.2296 c -0.3155,-1.1816 0.7478,-0.1047 0,0 z m -11.1591,-5.3668 c -0.4497,-1.5823 -1.8169,-2.3948 -2.614,-3.7554 -1.5685,-0.8082 0.1108,-3.305 1.3871,-2.7866 -0.019,0.9309 0.9112,1.551 0.8565,2.4193 -0.064,0.9019 -0.335,2.1287 0.8947,2.1721 -0.2911,0.5664 0.3268,2.4676 -0.2766,2.2442 l -0.1171,-0.1281 -0.1308,-0.1655 z m 20.4139,-7.0808 c 0.2895,-1.3703 1.7955,-2.1973 2.9567,-2.8533 1.0921,-0.3823 2.935,-1.7179 3.7373,-1.1986 -1.0384,1.3799 -2.715,1.8891 -4.1386,2.7414 -0.8,0.3581 -1.6591,1.4233 -2.5554,1.3105 z m -7.279,-0.016 c -0.8619,-0.9577 1.3132,-1.9462 1.7855,-2.8551 1.3041,-1.0624 1.008,1.7047 -0.054,1.9564 -0.4656,0.3275 -1.0962,1.1388 -1.7317,0.8987 z m -1.1293,-2.1502 c 0.263,-1.2439 1.6618,-2.239 2.2714,-3.4588 0.2768,-0.6858 1.4339,-1.9141 1.1788,-0.3666 -0.6159,1.5208 -1.8148,2.7294 -3.0502,3.7716 l -0.2443,0.1118 z m 10.9404,-1.4172 c 0.068,-1.272 1.9356,-1.8351 3.0557,-2.1977 1.3186,-0.2825 2.5457,-0.9808 3.7295,-1.5029 -0.6084,1.4389 -2.2713,2.1829 -3.691,2.7017 -1.0186,0.2207 -2.1535,1.047 -3.0942,0.9989 z m -11.3735,-0.9804 c 0.4998,-1.1866 1.6983,-2.5031 2.5247,-3.5812 0.6984,1.1852 -0.9777,2.4736 -1.7363,3.3358 -0.2089,0.1321 -0.5225,0.4342 -0.7884,0.2454 z m -1.0959,-1.3491 c 0.046,-1.1462 1.0565,-2.518 1.5846,-3.6535 2.0876,0.056 -0.2222,2.3623 -0.569,3.3034 -0.2178,0.3316 -0.6338,0.5434 -1.0156,0.3501 z m -1.8754,-0.5456 c -1.3506,-1.2934 1.0063,-2.8276 0.8733,-4.3091 -0.1666,-1.6887 0.3768,-3.1589 1.7714,-4.1696 0.7764,-0.8046 1.5983,-4.0605 2.8555,-2.1282 0.034,1.7679 -1.8746,2.9026 -1.8459,4.7006 0.078,1.7257 -1.1018,2.9837 -1.9916,4.3101 -0.3239,0.6389 -0.6766,1.9545 -1.6627,1.5962 z m 15.6449,-0.3214 c -1.3385,-1.1834 1.6449,-1.1588 2.3448,-1.7042 1.4831,-0.5649 3.0236,-0.9478 4.4222,-1.7185 0.8871,-0.1676 -1.0541,1.2176 -1.3965,1.4965 -1.45,1.1419 -3.3028,1.6179 -5.0853,1.9408 l -0.2844,-0.015 z m 1.5427,-2.8377 c 0.068,-1.3528 2.3272,-1.6724 3.4211,-2.3271 0.8813,-0.1858 2.5597,-1.5817 2.7933,-1.2387 -0.9368,1.2409 -2.4365,1.8785 -3.731,2.6755 -0.7725,0.2124 -1.7473,1.0906 -2.4834,0.8903 z m -0.8014,-2.1122 c -0.156,-1.2815 2.1826,-1.587 3.0989,-2.3547 1.551,-0.7133 2.7664,-1.9071 4.0727,-2.9621 0.7978,1.2147 -1.485,2.3834 -2.4031,3.202 -1.3554,0.8519 -2.7251,1.7615 -4.272,2.2229 l -0.2872,0.01 -0.2093,-0.1153 v 0 z m -100.7181,-0.3601 c -0.9682,-0.5247 -0.648,-2.1412 0.4521,-1.2419 0.799,0.6753 1.0304,2.1082 -0.4521,1.2419 z m 2.8403,-1.349 c -0.8885,-0.4663 -2.0613,-1.2852 -0.4768,-1.7427 1.1721,-0.452 2.4243,0.4903 3.7103,0.2104 -0.7549,0.8213 -1.6945,2.5743 -3.0116,1.6811 z m 98.1438,-0.5448 c -0.9042,-1.1271 1.9847,-1.7165 2.6595,-2.5045 1.388,-0.8451 2.5591,-1.9784 3.7727,-3.0425 1.1818,0.5202 -1.0778,2.0903 -1.6416,2.7637 -1.3049,1.0849 -2.7293,2.0426 -4.2608,2.7679 l -0.2895,0.05 -0.2403,-0.034 z m -0.3985,-2.2515 c 0.1837,-1.3555 2.2053,-1.6253 3.0749,-2.6376 1.4193,-1.1028 2.5829,-2.5663 3.0957,-4.3055 1.28,-1.2696 1.1009,2.0732 0.1768,2.5455 -1.6522,1.857 -3.5423,3.6728 -5.9565,4.4567 -0.1272,0.02 -0.2867,0.039 -0.3909,-0.059 z m -45.6566,-4.8302 c -0.7127,-0.8086 -3.2675,-0.3929 -1.542,-1.7615 0.744,-0.7771 2.0023,-2.7013 2.4195,-0.6645 0.7039,-0.4355 1.4783,-2.7288 2.0636,-0.9031 -0.1538,1.436 -1.4419,3.198 -2.9411,3.3291 z m -4.6458,-0.2261 c -0.7046,-1.8091 -2.9034,-0.9337 -4.3256,-1.3441 0.5566,-1.8242 2.9999,-0.3956 4.3369,-1.1108 0.9071,1.4902 1.6848,-0.314 2.5712,-0.6065 0.6566,1.3576 -1.2975,3.1314 -2.5825,3.0614 z m 6.9656,-0.1304 c -0.012,-1.1919 1.5874,-2.3683 1.7716,-3.7851 1.4168,-0.1668 0.505,2.5965 -0.3306,3.2724 -0.306,0.4767 -0.8908,0.7967 -1.441,0.5127 z m 2.1129,-0.084 c 1.15,-1.0065 0.9183,-3.211 2.0845,-3.8867 1.2444,1.0212 -0.4879,2.8801 -1.2838,3.7569 -0.208,0.083 -0.5974,0.3469 -0.8007,0.1298 z m -15.3944,-1.166 c 0.1273,-0.7953 2.1646,-1.5197 1.2595,-0.2977 -0.3265,0.2807 -0.8421,0.5328 -1.2595,0.2977 z m -2.6684,-0.3331 c 0.8167,-0.5179 2.0589,-2.6046 2.9091,-1.5616 -0.3939,0.9442 -1.868,2.0975 -2.9091,1.5616 z m -2.3263,-0.3688 c -1.5759,-0.3919 1.5221,-1.0629 1.8826,-1.8012 0.4094,-0.7544 1.8318,-1.1482 1.1635,0.1407 -0.5194,1.0913 -1.8272,1.9287 -3.0461,1.6605 z m 32.2824,-0.4662 c 0.065,-1.2424 1.4759,-2.0512 2.1281,-3.0759 1.0885,-1.7538 1.7999,-3.7606 2.1801,-5.7777 1.0253,0.5659 -0.07,2.6807 -0.3983,3.7646 -0.7824,1.8201 -1.8784,3.5196 -3.1652,5.0209 -0.1907,0.168 -0.548,0.3183 -0.7447,0.068 z m 2.6556,-0.4547 c 0.1827,-1.5156 1.9663,-2.5877 2.3393,-4.1827 0.6749,-1.0964 0.5042,-2.9936 1.4407,-3.6911 0.402,1.3194 -0.3862,2.7758 -0.7915,4.0626 -0.679,1.4081 -1.3076,3.0134 -2.6236,3.9452 l -0.1846,-0.01 -0.1803,-0.1286 z m -4.9146,-0.4282 c 0.7645,-1.2078 1.9696,-2.1387 2.5823,-3.4744 0.9434,-1.5681 1.55,-3.3136 1.9622,-5.0885 0.9024,-0.2641 0.3948,2.0911 0.2145,2.8008 -0.5217,2.4102 -2.2179,4.4438 -4.2785,5.7238 -0.101,0.023 -0.3687,0.1963 -0.4805,0.038 z m 9.2189,-0.1128 c -0.6692,-0.065 -2.4494,-0.3658 -0.9951,-0.9833 1.194,-0.2777 1.3812,-3.0619 2.5567,-2.3342 -0.1699,1.0118 -0.1381,2.2156 -0.614,3.0273 -0.2571,0.1757 -0.6232,0.4469 -0.9476,0.2902 z m -11.9458,-0.2009 c 1.0349,-1.2738 2.5762,-2.2777 3.3413,-3.8154 0.8993,-1.602 1.2626,-3.4385 1.8105,-5.1467 1.2787,0.6466 0.4829,2.5493 0.2277,3.6383 -0.857,2.3313 -2.6054,4.3756 -4.8755,5.4127 -0.1579,0.047 -0.398,0.083 -0.504,-0.089 z m -1.7508,-0.5642 c 0.4615,-1.3423 2.0787,-2.4246 2.6289,-3.8985 1.0001,-1.2056 0.4869,-3.3915 1.3564,-4.2636 1.124,0.9114 0.2426,2.7207 -0.1713,3.8554 -0.7766,1.6487 -1.8907,3.1816 -3.3593,4.2765 -0.1134,0.086 -0.3368,0.1581 -0.4547,0.03 z m -0.5248,-1.9686 c 0.8331,-1.2523 1.7831,-2.478 2.2804,-3.9371 0.9496,-1.573 0.8359,0.8735 0.3122,1.4716 -0.4754,1.0538 -1.1626,2.7103 -2.5926,2.4655 z m -0.5057,-1.3486 c 0.5571,-0.7511 1.1611,-2.4789 1.9442,-2.5216 -0.3644,0.8755 -0.9665,2.4043 -1.9442,2.5216 z m -23.3218,-2.1833 c 0.3667,-1.1483 -1.8584,-0.2295 -0.593,-1.3978 0.2606,-0.4294 1.9197,-2.0423 1.7104,-1.3737 -0.6121,0.9438 0.1813,3.0527 -1.1321,3.1323 l -5e-4,-0.1625 0.015,-0.1985 z m 82.6969,-1.7696 c 0.2764,-1.5369 1.6383,-2.6653 1.8865,-4.2427 0.625,-2.0652 -0.192,-4.1368 -0.4837,-6.1639 1.0267,0.5065 1.4198,2.1569 1.5882,3.3185 0.052,1.9105 -0.09,3.8914 -0.7596,5.6923 -0.401,0.6203 -1.4151,1.9393 -2.2314,1.3958 z m -0.4231,-2.2374 c -0.2756,-1.4284 0.5844,-2.8834 0.5385,-4.3626 0.3435,-1.6046 -0.5504,-3.0179 -1.0318,-4.4678 -0.2869,-0.9852 0.3739,-1.4872 0.7512,-0.3444 1.3769,1.9179 1.6606,4.5466 1.0639,6.8002 -0.3383,0.7157 -0.468,2.1896 -1.3218,2.3746 z m 4.1792,-1.0911 c 0.8824,-2.2913 0.1536,-4.748 -0.2398,-7.061 -0.3246,-1.4987 -1.0138,-2.8815 -1.9706,-4.0709 -0.2978,-1.2705 1.896,0.645 2.1444,1.3156 1.1828,2.6308 1.5052,5.6308 1.0409,8.4675 0.14,0.2089 -1.2692,2.4649 -0.9749,1.3488 z m -128.2546,0.054 c -0.9101,-0.2567 -0.9551,-2.6587 0.1146,-1.2475 1.0078,0.1933 1.1281,1.8609 -0.1146,1.2475 z m 122.8315,-1.3438 c -0.4929,-1.5482 -0.1649,-3.3392 -1.0416,-4.8173 -0.2688,-1.4274 -2.3553,-2.4586 -2.5083,-3.4158 1.715,-0.1776 2.9861,1.4722 3.7373,2.8168 0.8168,1.574 0.9823,3.4458 0.7171,5.1786 -0.07,0.4274 -0.6242,0.5825 -0.9045,0.2377 z m -2.5866,-0.062 c -0.9186,-1.1954 -0.9881,-2.8071 -2.0441,-3.8494 -0.5995,-1.0133 -2.2878,-1.7142 -2.5408,-2.5935 1.6229,0.3152 3.2334,1.2046 4.0623,2.6953 0.4804,1.0571 2.2337,3.0189 1.0641,3.9149 -0.1921,0.032 -0.4076,-0.018 -0.5415,-0.1673 z m -93.2842,-1.9747 c -2.4306,-0.3241 -4.9936,-0.3177 -7.2219,-1.4778 -2.2746,-0.6065 0.9088,-1.3522 1.8377,-0.8319 2.0992,0.039 4.1021,1.0458 6.2029,0.8633 1.358,-0.6165 2.7491,-1.1484 4.2259,-1.4279 1.3968,-0.088 2.6309,-2.1766 3.4197,-0.047 1.2628,-0.1223 2.5524,0.9105 3.211,1.4764 -1.463,1.0032 -3.0403,-0.5091 -4.4946,0.1451 -1.0535,1.3028 -2.8432,0.1408 -4.1162,0.9736 -0.9561,0.4513 -2.0348,0.5252 -3.0645,0.3266 z m 16.9815,-5.5792 c -0.6852,-1.1556 -0.012,-4.0497 1.7049,-3.3414 0.5989,0.5851 -1.1216,1.2044 -0.7726,2.0972 0.043,0.5219 -0.1235,1.9584 -0.9323,1.2442 z m -36.5742,0.172 c -0.5718,-0.9775 1.2147,-1.7974 0.5931,-0.3586 -0.045,0.1787 -0.4013,0.8057 -0.5931,0.3586 z m 68.7465,-2.9057 c -0.8502,-0.02 -1.0366,-0.4055 -1.2175,-1.0965 -0.8172,-0.068 -1.0073,1.4039 -1.1316,-0.035 -0.046,-0.9062 -0.9884,-1.4157 -1.2747,-0.2961 -0.4884,-0.6371 0.4236,-3.2798 -0.9943,-1.9538 -0.4148,0.055 0.2526,-1.4357 -0.03,-1.8888 1.5653,0.2698 1.9056,2.2495 3.0351,3.1766 0.272,0.9554 1.8608,1.7203 1.9209,2.2152 l -0.3088,-0.1216 h -10e-5 z m 36.6299,-0.348 c -1.4215,-0.1985 -2.8753,-0.5071 -3.9235,-1.5945 -1.0891,-0.8045 -2.301,-1.9991 -2.5569,-3.2555 1.3807,0.5162 2.4366,1.6036 3.4694,2.5946 0.9658,0.7771 3.5927,1.1709 3.4521,2.3887 l -0.1874,-0.05 -0.2537,-0.083 z m -7.5823,-1.9102 c -1.889,0.1058 -3.1188,-1.7604 -3.9285,-3.2196 -0.8727,-1.7214 1.2627,-1.2778 1.7076,-0.1682 0.883,1.2504 3.0195,0.6925 3.2421,2.6059 1.2555,1.3304 -0.1244,0.7043 -1.0212,0.7819 z m 17.8512,-0.3814 c -1.2504,-1.0249 -3.1652,-0.3514 -4.3555,-1.5346 -0.832,-0.3026 -1.4657,-2.5656 -0.1287,-1.364 1.3516,0.949 3.1509,0.8928 4.4843,1.7685 0.5108,0.2783 1.2564,2.2251 -6e-4,1.1301 z m -67.2436,-1.201 c -0.9216,-0.089 -1.2688,-1.4737 -0.02,-0.9214 0.7808,-0.2002 3.0215,0.9057 1.1468,1.0287 -0.3778,0 -0.7593,-0.017 -1.1272,-0.1072 z m 14.2007,-0.934 c -0.5237,-0.6179 -1.8087,-2.6802 -0.7597,-2.8591 0.3391,0.7876 2.0721,2.7774 0.8647,3.0589 l -0.1044,-0.1997 z m -11.4748,-0.331 c -2.1527,-0.9314 1.8114,-1.2332 0.9226,0.049 -0.3007,0.098 -0.6255,0.022 -0.9226,-0.049 z m 2.1983,-0.5471 c -1.7404,-1.9806 2.3678,0.1968 0,0 z m 43.8354,-5.9424 c -1.676,-0.8881 -3.614,-2.1759 -3.7802,-4.2506 -0.2715,-2.0374 1.1964,0.8533 1.728,1.2315 0.5156,1.2546 2.9894,1.5166 2.7999,2.8274 -0.1822,0.2361 -0.4672,0.3696 -0.7477,0.1917 z m -8.1372,-4.415 c -0.7949,-1.4251 -1.3061,-3.0473 -1.5637,-4.6569 0.074,-2.5057 0.1227,-5.4042 2.0765,-7.254 0.258,1.3361 -0.8415,2.8629 -0.8062,4.3366 -0.3718,2.0534 0.098,4.1205 0.9227,6.0062 0.4843,0.7052 0.8204,2.1476 -0.6293,1.5681 z m 2.1929,-0.3796 c -0.8146,-1.7065 -1.4099,-3.6451 -0.9096,-5.541 0,-0.7821 1.11,-2.5328 0.7497,-0.6938 -0.1361,1.9174 -0.3102,3.9236 0.45,5.742 0.1171,0.2303 0.1688,1.0381 -0.2901,0.4928 z m -51.77,-3.4177 c -1.1142,-0.4959 -2.4071,0.033 -3.5938,-0.5255 -2.0177,-0.2245 1.201,-1.4611 1.4513,-2.3926 0.3126,-0.6766 1.1948,-2.4895 1.3271,-0.7265 0.2584,1.096 -1.455,2.1273 -1.1919,2.7772 0.9419,-1.101 2.2557,-0.2511 3.2172,-1.2077 0.6848,0.7649 -0.054,2.4249 -1.2099,2.0751 z m -7.0518,-1.0735 c -1.3412,-0.5015 1.5956,-0.6199 1.8343,-1.3391 1.0826,-0.3747 1.5558,-1.7719 2.4339,-2.115 -0.088,1.3943 -1.0398,2.8741 -2.4208,3.3486 -0.5834,0.2137 -1.2478,0.317 -1.8474,0.1055 z m 23.4344,-10.9273 c -0.4322,-0.1915 -1.9216,-0.4561 -0.5859,-0.6929 0.4274,-0.2617 1.6055,1.4278 0.5859,0.6929 z m -33.4222,103.4638 c 1.8629,-0.2605 3.7869,-0.088 5.616,-0.5297 1.4943,-0.8179 1.5222,-2.7296 2.102,-4.1441 0.6766,-1.5494 0.8192,-3.2123 -0.3646,-4.5526 -0.4902,-1.7586 3.4334,-1.414 2.0704,-3.3014 -0.5815,-0.579 -2.3752,-2.2505 -0.4353,-1.9776 1.7247,-0.015 2.306,1.9097 3.0742,3.114 0.7842,1.0289 2.0584,2.8686 3.4665,1.6532 1.4523,-0.06 2.9563,0.3116 4.4068,-0.1121 1.5475,0.4707 3.1029,-0.4184 4.6719,0.1541 1.4598,0.5936 2.7198,-0.7638 4.116,-0.115 0.983,0.1856 2.0186,-0.1612 2.9827,0 1.3234,0.5307 2.8416,1.4421 4.2207,0.5731 0.6487,-0.7563 1.6057,-1.4742 1.903,-2.4326 0.039,-1.7575 -0.099,-3.5291 0.1099,-5.2752 0.5141,-1.4619 1.7739,-2.5264 2.0659,-4.0936 0.8352,-1.9252 -0.5101,-4.0761 0.5307,-5.9533 0.5622,-1.2551 2.4488,-2.764 1.3548,-4.1694 -0.6765,-1.4565 -2.0572,-2.3296 -2.6906,-3.7424 -0.829,-1.2993 -2.5714,-1.8667 -3.9174,-2.2944 -1.4779,0.591 -2.7703,1.7062 -4.427,1.8207 -1.2671,0.6461 -2.6002,-0.9985 -3.519,-0.4471 -1.052,2.7498 -0.8763,5.7711 -0.8463,8.6653 0,2.3984 0.5772,4.8267 0.1158,7.2036 -0.5144,1.4484 -2.0008,2.4224 -3.5482,2.1496 -3.1725,0.1279 -6.3175,-0.4195 -9.3769,-1.2155 -2.7089,-0.4115 -5.5757,-0.6905 -8.2339,0.1257 -2.7841,1.215 -3.9184,4.3824 -6.3546,6.0607 -1.3835,1.0153 -3.3535,2.131 -3.2512,4.1056 0.042,1.9846 0.1387,3.9829 -0.2876,5.9376 -0.3544,1.3741 -0.1523,3.2927 1.7361,2.9266 0.9052,0.022 1.8096,-0.053 2.7096,-0.1388 z m 3.0309,-1.8119 c -1.0548,-1.084 1.4814,-1.4968 0.5877,-0.089 -0.1251,0.189 -0.4124,0.2368 -0.5877,0.089 z m 0.5473,-3.4331 c -0.4061,-0.9549 1.403,-1.925 -0.033,-2.7001 0.9722,-0.5747 2.6103,1.8939 1.1589,2.8064 -0.3243,0.1804 -0.8931,0.2701 -1.126,-0.1063 z m -2.8329,-0.4694 c -1.0387,0.1732 -2.7728,-0.4434 -1.6155,-1.6321 0.9165,-1.2706 4.6057,-1.0451 3.2295,1.1052 -0.3261,0.5305 -1.0532,0.6144 -1.614,0.5269 z m 30.7497,-5.81 c -1.3701,-0.038 -0.955,-1.424 0.2562,-1.066 1.1525,-0.074 0.559,-2.1799 2.1054,-1.6532 0.8815,-0.1914 2.9342,-0.6264 2.5526,0.9424 -1.5574,0.7201 -3.0976,2.018 -4.9142,1.7768 z m -15.3458,-0.6473 c -1.2912,-0.017 -1.2339,-1.6243 0.086,-1.0107 1.4979,0.1313 3.5579,-1.091 4.6589,0.3226 -0.8709,0.754 -2.7033,0.3507 -3.9173,0.7396 -0.2759,0 -0.5553,0 -0.8267,-0.051 z m 20.1636,-8.0137 c -0.5351,-0.8204 1.365,0.6066 0,10e-5 z m 1.1223,-0.906 c -0.5433,-0.1308 -2.8435,-2.005 -1.2191,-1.22 0.5597,0.2184 3.1715,0.7802 2.0271,1.3285 -0.2719,-0.01 -0.5443,-0.041 -0.808,-0.1087 z m -4.7457,-0.9062 c -0.043,-0.8936 -0.2812,-2.1702 -0.3214,-2.8017 2.0133,-0.3164 2.2236,3.4739 0.3215,2.8017 z m 1.0122,-3.5852 c -0.9245,-0.2983 -1.4941,-0.836 -0.7652,-1.7331 -0.1686,-1.6836 0.8407,0.1108 1.6011,0.3598 1.5418,0.6165 0.4626,2.6248 -0.8359,1.3733 z m -3.7025,-0.7581 c -1.6264,-1.089 2.1419,-0.024 0,0 z m 5.5626,-1.6985 c -0.7478,-0.6385 -2.0402,-2.1566 -1.7166,-2.9112 1.4812,0.1122 3.082,1.4681 2.7542,2.9603 -0.3083,0.2262 -0.7374,0.1393 -1.0376,-0.049 z m 3.4932,-0.4541 c -1.7854,-0.5787 -2.7807,-2.0509 -3.8974,-3.4281 -1.3764,-0.6866 -0.4037,-2.2536 0.7857,-1.2905 1.35,0.9098 2.2647,2.2736 2.6828,3.8116 0.3985,0.1997 1.5249,1.7601 0.4289,0.907 z m -9.1046,0.1984 c -0.6157,-0.9977 1.5229,0.2167 0,0 z m 9.8377,-1.2726 c -1.1116,-1.0965 -1.5714,-2.5847 -2.3839,-3.8703 -0.3496,-0.5508 -2.5187,-0.8739 -1.369,-1.6208 1.8158,-0.114 2.9234,1.595 3.5032,3.088 0.3594,0.4018 1.3211,2.9155 0.2497,2.4031 z m -10.3965,-0.051 c -0.403,-1.195 2.0769,0.4225 0.2716,0.1101 l -0.2714,-0.1098 z m 0.1822,-4.4207 c -1.7909,-0.6726 1.2187,-1.301 1.13,-0.1849 -0.3321,0.2466 -0.7408,0.283 -1.13,0.1849 z m -37.6655,-42.0227 c 0.7777,-1.2848 0.9608,-2.8375 1.4091,-4.2516 -0.516,-1.3205 -2.5277,-2.4133 -1.42,-4.0172 0.4672,-1.193 -0.7201,-0.8604 -0.5325,0.134 0.035,0.9452 -0.8535,1.8599 -1.158,0.5197 -0.3571,0.5377 -1.1813,1.7251 -0.5532,0.3309 1.1299,-1.1375 -0.5134,-3.5373 1.4451,-3.8858 0.3134,1.0787 1.1493,2.1847 1.9812,2.987 -0.3276,1.7475 1.8366,1.3156 1.8263,-0.2205 0.8083,-1.9482 2.6759,-3.1854 3.5672,-5.0686 -0.117,-1.9853 -1.9773,-3.1283 -3.1748,-4.4887 -1.6461,-1.6918 -3.4587,-3.2095 -5.405,-4.5386 -1.9062,-1.7717 -2.1039,-4.5397 -3.0941,-6.8182 -0.211,-1.9627 -2.3189,-1.5748 -3.7407,-1.5516 -1.4242,-0.024 -2.9453,0.037 -4.0758,1.0296 -2.1006,1.3567 -3.8691,3.1629 -5.994,4.4925 -1.3318,0.9222 -2.3687,2.3196 -4.0688,2.5605 -2.1973,0.9668 -4.6643,0.7191 -6.9293,1.3806 -1.6817,0.5231 -2.4559,2.1859 -2.7081,3.7952 -0.3855,1.8539 -1.9033,3.1148 -3.47,4.0009 -1.6037,1.1725 0.5668,1.8035 1.6117,1.3074 0.5078,1.3435 -2.5247,2.0084 -1.5948,3.7992 0.2519,1.8572 0.139,3.7553 -0.4746,5.5332 -0.5389,0.9415 -0.3258,2.6708 1.0681,1.7868 1.9235,-0.8021 3.8403,-1.7616 5.4731,-3.0298 1.3327,-0.7467 3.2694,-1.3025 3.6598,-2.9692 -0.1302,-1.6705 0.7847,-3.0348 1.6225,-4.3754 0.9468,-0.5072 1.7465,-1.2354 0.8739,-2.3194 -0.6437,-1.5244 -0.2402,-3.3415 1.0365,-4.4133 1.259,-0.9608 0.08,1.606 0.1577,2.2249 0.059,1.7933 1.5404,3.0913 2.3451,4.5898 1.0931,0.8885 0.5827,2.643 1.2734,3.4906 1.5129,-0.7865 2.0882,-2.7381 1.6138,-4.3242 -0.4123,-1.324 -1.4446,-3.0472 -0.593,-4.2896 0.1597,1.5145 1.0596,2.6715 2.1657,3.6631 1.9508,-0.4068 0.9226,-3.0413 0.8116,-4.4442 -0.1715,-1.6305 -0.1158,-3.8711 1.6307,-4.6364 0.8369,0.2315 -0.2094,1.6104 -0.2625,2.3575 -0.1475,0.9931 0.3648,2.0236 0.1628,3.0406 -0.3531,0.7654 0.3279,2.0529 0.6534,0.5933 0.3521,-1.6998 -0.4691,-3.7877 0.8774,-5.1744 1.0892,-1.3212 3.1302,-0.9764 2.695,1.0212 -0.2657,0.4502 0.09,1.8515 -0.6444,1.6839 -1.4152,-0.051 -1.2969,2.0289 -0.3009,2.5766 -0.3124,0.5884 -1.2283,2.3394 0.4279,2.4557 0.8266,0.5198 3.1876,-1.7336 2.4552,0.1027 -0.8313,1.7937 -0.9115,4.0514 0.2835,5.7059 1.7006,2.541 4.0749,4.5441 5.7825,7.0854 0.3051,0.2845 0.8254,1.0951 1.2843,0.568 z m -1.0766,-4.3878 c -0.3881,-1.5966 1.0335,0.2924 0,0 z m -28.0736,-4.8096 c -2.066,0.059 -0.7944,-2.5649 0.6789,-2.1469 0.6035,-0.961 1.6016,-1.0602 1.189,0.3755 -0.1783,0.8125 -0.9252,1.8784 -1.8679,1.7714 z m -4.6239,-0.5466 c -1.147,-1.5595 1.5162,-1.9239 2.6015,-1.8418 0.9779,1.2265 -1.6725,1.4284 -2.3512,1.9347 l -0.2503,-0.093 z m 30.5637,-1.4128 c -1.1264,-0.7297 0.142,-2.7499 0.7436,-0.9989 0.4251,0.5219 -0.022,1.6549 -0.7436,0.9989 z m -0.7447,-2.6405 c -0.3622,-0.7075 0.3628,-1.8587 0.2022,-0.5437 -0.012,0.1303 0.2517,0.975 -0.2022,0.5437 z m -21.7059,-5.7721 c 1.0304,-0.8995 2.5226,-1.5777 3.8433,-2.1389 1.6105,-0.8542 3.0724,-1.9596 4.7429,-2.6934 0.473,-0.6063 1.9382,-1.2783 0.8786,-0.063 -0.7833,1.3898 -3.0103,0.5273 -3.5739,2.3552 -0.835,1.2093 -2.7009,0.7657 -3.6179,1.9067 -0.6393,0.3138 -1.599,0.646 -2.273,0.6334 z m 19.4558,-9.1987 c -0.6971,-0.187 -2.7949,0.4336 -1.2888,-0.6405 0.6055,-1.209 3.127,1.0236 1.2888,0.6405 z m 48.8167,26.525 c -1.0408,-1.3666 -1.0783,-3.427 0.3334,-4.6207 1.1046,-1.1579 2.846,-1.4468 4.3223,-0.8946 1.6823,0.6277 3.8732,0.6038 5.0504,-0.956 0.995,-1.0083 1.3653,-3.0591 2.5289,-3.5551 0.5607,0.6633 0.9997,3.2738 2.0071,2.5635 0.5972,-1.3309 0.5374,-2.8602 0.135,-4.2314 0.1898,-1.3963 0.6974,-2.7598 0.9436,-4.1643 0.4136,-1.6746 1.2747,-3.2462 1.2533,-5.008 -0.09,-1.0714 1.0554,-2.0628 1.4268,-0.5335 0.1355,0.8247 1.6756,2.3544 2.055,1.3303 -1.2441,-1.4791 -0.9803,-3.528 -0.4849,-5.2498 0.475,-1.9882 1.9207,-3.691 1.9563,-5.78 -0.1762,-1.4136 -0.8299,-2.8854 -0.706,-4.2592 1.0319,-0.3096 2.3874,-0.9735 1.1612,-2.0441 -1.5722,-2.5408 -1.034,-5.62 -1.1263,-8.449 0.1634,-1.781 -1.019,-3.3918 -2.5486,-4.1872 -1.4825,-1.2287 3.2329,-0.3061 1.5636,-1.9792 -1.2404,-0.864 -2.5067,-1.6777 -2.9485,-3.1616 -1.2287,-0.7519 -2.7515,-1.2808 -3.6701,-2.3773 1.329,-0.099 2.7455,-0.086 3.8988,-0.015 1.1534,0.071 2.4756,-0.4531 1.4294,-1.5487 -1.4639,-1.4561 -3.7503,-1.3441 -5.4917,-2.3271 -1.4707,-0.6014 -2.4929,-1.8575 -3.1515,-3.2633 -0.8147,-1.9566 -2.7569,-3.2788 -4.8593,-3.4036 -1.1641,0.1006 -3.5435,-0.6193 -1.2048,-1.2873 1.549,-1.6557 -1.6367,-2.0533 -2.7386,-1.4731 -1.9859,0.317 -4.0394,0.9909 -6.05,0.5385 -1.7131,-1.3614 -1.2552,1.9142 -2.5129,2.3808 -0.7849,0.9689 -2.4596,-0.011 -1.1639,-0.9273 0.5441,-1.477 -0.04,-3.1744 -0.8349,-4.4623 -1.0536,-1.4259 -2.6442,-2.5496 -4.3934,-2.8798 -0.1712,0.3998 0.9233,0.8994 -0.3233,0.8558 -0.9842,0.9972 -1.0574,2.7474 -1.1901,4.1198 0.1134,1.5847 0.9915,2.9828 2.2654,3.9046 0.879,0.3326 1.0689,0.934 -0.1109,0.8887 -1.6359,-0.036 -2.3393,-2.4864 -3.3916,-2.6134 -0.3722,0.8045 1.6068,2.8564 -0.1799,2.1062 -0.6199,-0.1444 -1.22,-0.8453 -1.8309,-0.7594 -1.9216,0.5999 0.2166,1.9032 1.1424,2.3334 1.9975,1.1077 4.1348,2.6087 6.5354,2.2777 1.1802,-0.014 1.8594,-2.2195 2.8969,-1.1147 0.2036,-0.6685 -0.486,-2.2122 0.7033,-1.1311 1.0733,0.8771 0.7569,2.8188 -0.5525,3.2532 -1.3778,-1.3764 -2.6139,0.6574 -3.2574,1.8601 -0.7264,1.7263 -0.8892,3.6972 -0.5388,5.5296 0.5922,1.1314 1.6386,-1.1934 2.6169,-1.1708 1.4317,-0.854 3.3725,-1.2771 4.1432,-2.9013 1.4256,-1.1839 2.0182,1.9275 2.0374,2.9722 0.2762,1.5334 -0.6417,3.4136 0.2165,4.7321 1.2499,-0.673 2.3992,-1.591 3.6472,-2.3078 1.5882,-0.941 3.1909,-2.8562 2.4981,-4.8066 -0.3349,-0.5794 -1.4001,-1.6491 0.087,-1.2872 1.6452,0.3869 2.405,2.0331 2.5953,3.57 0.4403,1.8384 0.5578,3.9529 -0.7261,5.5028 -0.9047,1.1812 -2.0314,2.5219 -1.5068,4.1217 0.6715,1.6236 0.013,3.4685 -1.4977,4.3491 -2.4517,1.6732 -5.758,1.7033 -7.9168,3.8831 -2.0345,1.5886 -2.8991,4.3606 -2.3022,6.8491 0.5423,1.8083 -1.2279,2.9625 -2.4666,3.8752 -1.5476,1.0449 -2.8968,2.5656 -3.0816,4.4994 -0.3218,1.2028 1.4794,3.3011 2.3498,1.9572 -1.845,-0.4041 -2.2971,-3.028 -0.5354,-3.9901 1.5822,-1.1373 3.6538,-0.4952 5.4343,-0.9176 2.0053,-0.8519 1.5037,-3.8102 3.4985,-4.641 1.7394,-1.0489 3.8698,-0.4826 5.6845,-1.2156 1.3966,-0.5764 1.8137,-2.6262 3.5426,-2.4691 1.5678,-0.1913 3.3538,-0.955 3.9827,-2.5081 1.0531,-1.5282 -0.1329,-3.1514 0.3042,-4.6587 -0.205,-1.1321 0.771,-1.349 1.0036,-0.2228 0.8816,2.7549 -0.2019,5.6752 -1.3946,8.1618 -1.0324,1.7774 -2.3808,3.5782 -4.4305,4.2178 -1.734,0.5749 -3.0809,2.3298 -2.9707,4.1842 -0.015,1.6491 -1.1664,2.8781 -2.3606,3.8551 -0.9858,1.5554 -2.7906,1.6428 -4.4438,1.573 -2.1002,0 -4.2256,1.4369 -4.5351,3.6052 -0.4975,1.4234 1.8508,2.994 -0.3191,3.8346 -1.148,0.517 -2.0255,3.382 -0.03,2.8642 1.7093,-0.2553 1.1444,-2.742 2.4379,-3.0722 1.9767,0.8774 2.1041,-2.4581 4.0465,-1.901 1.2945,0.3374 2.6838,0.2776 3.9961,0.1958 0.9416,-0.4911 1.9641,-0.8452 2.6348,-1.7245 0.9596,-1.0455 1.5226,-2.3988 2.6242,-3.3357 0.699,-0.6709 2.2955,-2.4826 2.9711,-1.2462 -1.1258,0.9124 -2.0081,2.2218 -1.9868,3.739 -0.1501,1.7821 -0.7293,3.6151 -2.196,4.7549 -2.2455,2.1884 -5.5769,3.4087 -6.8331,6.4832 -0.5217,1.4701 -1.1975,3.1835 -0.3797,4.6783 0.2169,0.2781 0.836,1.1406 1.2126,0.6324 z m 2.0001,-6.7018 c 0.1427,-1.5573 2.8961,-1.7727 4.2682,-2.038 1.9299,0.4292 2.5796,-1.4639 2.7251,-2.9769 0.2651,-0.8682 1.5941,-1.8717 1.141,-0.2059 -0.1398,1.4212 -0.069,3.4484 -1.7923,3.897 -1.7787,0.2239 -3.626,0.3038 -5.2617,1.1403 -0.3374,0.1212 -0.7149,0.3272 -1.0803,0.1835 z m -8.3618,-6.5488 c 0.1841,-1.1053 -0.3874,-2.2244 -0.4096,-3.1839 0.1809,-0.5565 1.0431,-1.7272 0.5708,-0.4007 -0.096,1.2042 2.0963,2.06 0.3796,3.0388 -0.2526,0.06 -0.2394,0.7672 -0.5408,0.5458 z m 5.6493,-5.262 c -0.7508,-0.028 -1.8053,-0.2939 -0.3878,-0.4658 0.6337,-0.1221 2.7652,-1.9762 1.8971,-0.4011 -0.1183,0.802 -0.7453,1.1922 -1.5093,0.8669 z m 4.4905,-0.9597 c -0.1982,-0.9559 0.6969,-2.4991 -0.9322,-2.7125 0.327,-0.9559 1.3698,-1.7388 0.8185,-2.9248 -0.035,-0.702 1.9664,-2.6442 0.9131,-1.0959 -0.4683,1.3804 0.5041,2.9065 0.1478,4.383 1.2936,0.7121 0.1122,2.7617 -0.9472,2.3502 z m 10.114,-3.953 c -0.3058,-1.1652 0.8333,-2.5348 -0.8536,-3.0145 0.7067,-1.2451 2.8559,-1.8229 2.9477,-3.5082 1.6001,-0.9036 1.4145,2.2784 0.4218,2.9891 -1.1033,0.9733 -1.0417,3.1084 -2.347,3.6151 l -0.1689,-0.081 v 0 z m -19.1169,-6.8472 c -1.6523,-1.0641 -1.6823,-3.466 -0.9977,-5.1112 1.2709,-2.1166 3.6517,-3.2466 5.9813,-3.7759 2.2426,-0.7468 4.2976,-2.4163 5.2573,-4.5784 0.013,-1.321 -0.311,-2.6947 0.08,-3.9732 0.3644,-0.9479 1.5308,-1.7545 2.3146,-1.9656 -0.2562,0.9876 -1.0522,1.5103 -1.265,2.768 -0.2128,1.2578 0.384,3.3493 -0.8335,4.5746 0.3015,1.1184 1.6258,-0.9328 1.5641,-2.1303 -0.063,-1.1975 -0.3515,-3.629 1.124,-2.2185 0.012,1.384 0.2226,2.8959 -0.2849,4.2323 -0.603,1.5024 -2.0477,2.1745 -3.4916,2.6361 -1.7461,1.0401 -3.7018,1.602 -5.6303,2.1939 -1.512,0.6277 -2.9542,1.7328 -3.686,3.2134 -0.418,1.2304 -0.2559,3.3692 1.5228,3.1243 0.9975,0.5526 -1.0894,1.5039 -1.6559,1.0105 z m 21.5325,-2.9017 c 0.5751,-1.2148 1.5825,-3.0293 0.4494,-4.134 -0.8446,-0.7034 1.4599,-1.5709 1.778,-2.3519 0.5116,-0.7448 1.1838,-0.8379 0.738,0.2426 -0.9678,1.4181 -0.7436,3.0478 -0.8951,4.6083 -0.511,0.5975 -1.2225,1.6792 -2.0703,1.635 z m 0.6113,-7.6423 c -1.3181,-1.0826 0.706,-2.8126 -0.2654,-4.2094 -0.2052,-0.7821 -0.1258,-3.2052 0.9907,-1.7478 0.3187,1.4661 1.0896,2.9027 1.2294,4.4123 -0.2058,0.7328 -1.0435,2.0907 -1.9547,1.5449 z m -2.4311,-10.5922 c -0.6689,-1.2386 2.1336,-0.8645 0.7011,0.034 -0.2141,0.1224 -0.5022,0.1203 -0.7011,-0.034 z m -2.5212,-2.8014 c -1.088,-1.3351 -1.3058,-3.1642 -2.2669,-4.5922 -0.7136,-1.4671 -1.8727,-2.6463 -3.3979,-3.2496 -0.5417,-1.0868 1.9406,-0.2134 2.4326,0.2839 1.3134,0.9319 1.9076,2.5135 2.8055,3.7954 0.5971,1.3077 1.3894,2.8809 1.4982,4.1782 -0.4234,0.1121 -0.803,-0.099 -1.0715,-0.4157 z m -14.0734,-6.8472 c -0.1033,-0.8008 0.1728,-2.4836 0.3737,-0.7612 0.2996,0.4774 -0.2665,2.8966 -0.3809,2.1033 0,-0.4474 0,-0.8947 0.012,-1.3421 z m -1.8528,0.9503 c 0.3367,-0.7326 -0.1098,-2.7771 0.4238,-2.7595 0.9806,0.7978 1.3675,3.374 -0.4429,2.9542 l 0.02,-0.1947 z m 9.0073,-3.2268 c -0.6186,-1.0556 -2.5557,-1.1099 -2.7271,-2.2969 1.2765,-0.2165 2.6362,1.0887 3.3262,2.0458 0,0.3188 -0.3559,0.4425 -0.5991,0.2511 z m -4.1587,-2.8343 c -1.1791,-0.1864 -0.7991,-1.6293 0.2564,-0.833 0.7179,0.4264 1.0058,1.6049 -0.2564,0.833 z m -10.7395,-2.4802 c -0.012,-0.7725 0.2265,-2.0866 0.6533,-2.5132 0.8562,0.4027 -0.3445,4.2607 -0.6533,2.5132 z m -1.148,-4.1885 c -0.5906,-0.4411 -2.2631,-2.1942 -0.4621,-1.4198 0.5798,-0.014 1.5365,2.1738 0.4621,1.4198 z m 10.1588,60.8962 c 1.8907,-0.8631 -2.102,-1.4363 -2.0567,0.01 0.5948,0.3939 1.4185,0.1775 2.0567,-0.01 z m -18.3244,-13.5764 c 0.4085,-0.4518 1.0454,-0.7821 0.9993,-1.4761 0.1668,-1.4201 0.7654,-2.7353 1.0656,-4.115 -0.671,-1.3318 -0.999,-2.6754 -0.4184,-4.1562 -0.088,-1.2784 1.5515,-2.4492 1.5155,-0.5385 -0.1879,1.9068 1.3887,0.2497 1.1766,-0.7546 0.1825,-1.8127 2.0673,-2.7118 3.1822,-3.9168 1.356,-0.1363 3.1861,0.4281 3.6665,-1.3698 1.226,-2.1076 0.7439,-4.6415 0.9127,-6.9653 -0.065,-1.0053 0.225,-2.0327 0.3452,-2.9825 -0.6055,-0.6701 -0.7382,-2.806 0.4223,-1.3249 1.8025,1.0398 2.5533,-1.3409 2.1632,-2.7485 -0.1554,-2.3222 -2.3582,0.3069 -3.4555,0.4714 -1.2797,0.304 -3.0939,1.6482 -1.4147,2.813 2.1553,0.7468 0.9627,3.4469 -0.9011,3.5965 -0.9228,1.9829 -3.7254,-0.2097 -1.8226,-1.4176 1.7105,-0.6788 -0.7806,-2.3246 -0.8095,-3.6034 -0.591,-2.189 -0.2763,-4.5267 0.3224,-6.6782 -0.8391,-0.9547 -2.7445,0.6959 -4.0418,0.4868 -2.1081,0.2691 -4.175,-0.7109 -6.2645,-0.2733 -1.0134,0.5848 -0.4757,2.5352 -0.589,3.6598 0.7633,2.223 2.5659,0.136 3.7122,-0.4024 1.6694,0.626 -0.015,3.5288 -1.681,2.943 -0.9697,0.3916 -1.0818,2.1366 -2.5368,2.1401 -0.2946,0.9748 -2.6932,1.4853 -1.5984,0.032 0.087,-0.6444 -0.5813,-2.0864 0.7027,-1.3182 1.5881,0.5907 1.5528,-1.8222 0.4829,-2.4317 -0.714,-0.9823 -0.1707,-2.4438 -0.397,-3.3173 -1.5592,0.9638 -2.2065,2.8364 -3.0283,4.3962 -2.0837,4.594 -2.4588,9.8477 -5.1441,14.1849 -0.8066,1.4769 -2.1511,2.5588 -2.9772,4.0098 -0.8489,1.47 -0.2621,3.2457 0.9015,4.3502 1.3216,1.2549 1.4116,3.6425 3.3338,4.2562 1.8054,0.5369 2.3548,-1.825 3.5876,-2.5997 1.3629,-0.6456 2.6072,-1.53 4.0389,-2.0531 1.4915,-0.03 2.9677,-0.6415 4.4447,-0.4943 1.5204,0.458 0.3284,3.7791 -1.0554,3.3275 -0.1541,-2.0023 -2.5822,-0.2141 -2.2669,1.0684 0.1574,1.2217 -2.2294,3.1061 -0.1992,3.491 1.3583,0.1667 2.6215,1.2398 3.6256,-0.2897 z m -12.153,-7.0555 c -0.3288,-1.2389 -0.7799,-2.7397 -2.4743,-2.2539 -1.2487,0.4488 -2.4128,-1.7791 -0.53,-1.1996 1.606,0.3835 3.0217,-1.0773 4.6397,-0.5033 1.4394,0.1222 -0.8567,-2.2708 1.0767,-1.6764 0.8287,0.7149 1.4481,0.369 1.6796,-0.5943 1.5617,-0.058 0.8598,2.7459 -0.4995,2.582 -0.1466,1.3015 -1.1823,1.2998 -2.2212,0.8983 -1.8589,-0.073 0.5628,3.6458 -1.671,2.7472 z m 14.8412,-8.3314 c -1.8306,-0.49 -0.6784,-2.5602 -1.1025,-3.8509 -0.5629,-0.6951 -0.433,-3.1826 0.3014,-1.3179 0.4765,1.5048 0.9659,2.9768 1.9774,4.2168 0.4695,1.0219 -0.2108,1.7534 -1.1763,0.952 z m -3.6782,0.1459 c 0.1908,-1.5961 0.7632,-3.2861 0.9022,-4.9537 0.077,-1.1195 0.1182,-3.0654 -0.9562,-2.5685 0.5421,-0.3058 0.8402,-1.0156 1.0864,-1.3096 1.0879,1.4053 -0.3919,3.1914 0.5037,4.7427 0.4699,1.2719 0.3041,2.8106 -0.5366,3.8877 -0.2522,0.2089 -0.692,0.4405 -0.9995,0.2014 z m -0.3934,-2.229 c 0.012,-0.5511 0.4547,-3.5639 0.6831,-1.7156 0.1927,0.1646 -0.6064,2.8839 -0.6831,1.7156 z m -6.6638,-5.9276 c 0.3788,-1.3149 1.1571,0.3691 0.036,0.2177 z m 0.9988,-1.2054 c -1.1289,-1.4032 1.1887,-0.3124 0.4583,0.247 l -0.2128,-0.069 -0.2455,-0.1773 v 0 z m 1.883,-4.0466 c -0.021,-1.3086 0.8793,0.8379 0,0 z m 2.307,-2.9263 c -1.0415,-0.6957 -0.4259,-3.6396 1.0771,-2.161 1.3181,0.2543 1.635,1.4568 0.2537,1.9011 -0.3325,0.441 -0.8649,0.6063 -1.3308,0.2599 z m -18.0149,4.5605 c 1.5397,-1.0942 3.0734,-2.7152 2.8426,-4.7596 0.218,-1.1648 -1.5579,-2.8295 -2.3458,-1.722 0.7558,1.5823 -1.3206,2.8191 -2.6084,1.9206 -1.7292,-1.007 -1.521,-3.4541 -0.555,-4.9348 0.6407,-1.3068 1.5445,-2.7935 3.1602,-2.9139 2.2722,-0.3978 4.4893,0.5368 6.763,0.3041 1.8873,-0.073 3.7495,0.5679 5.3062,1.6125 1.1623,0.765 3.3834,0.053 4.1544,0.7824 -2.464,0.8363 -5.2991,0.4303 -7.4816,-0.9756 -0.5214,-0.6203 -2.5504,-0.5404 -1.1122,0.237 1.8778,1.0829 3.8329,2.4203 6.1108,2.248 1.8252,-0.1186 3.6329,-0.5208 5.4755,-0.4819 1.9759,-0.082 4.0898,0.2822 5.9387,-0.5787 -0.1324,-1.2771 -2.4504,-1.5683 -3.4178,-2.4199 -1.9017,-1.2852 -3.9305,-2.403 -6.0401,-3.2862 -0.9615,0.3404 1.2352,1.2266 1.5999,1.6055 0.6522,0.1209 2.4158,2.0193 0.789,1.1357 -1.4256,-0.6622 -2.9404,-1.2184 -4.0205,-2.4305 -1.3413,-1.0663 -2.6317,-2.2527 -4.3211,-2.7443 -1.8345,-0.6221 -3.8163,-0.8434 -5.7447,-0.7924 -1.777,0.1452 -2.821,1.71 -4.182,2.6256 -1.4257,0.4382 -3.1471,0.2674 -4.0989,1.6855 -0.8432,1.079 -1.8053,2.0307 -2.9038,2.8493 -1.3285,1.6247 -1.5975,3.8389 -1.7959,5.8636 -0.1263,1.9461 0.8824,3.9629 2.5681,4.9543 0.2838,-1.1373 -0.8078,-2.7027 -0.4388,-4.0893 0,-1.6757 0.022,-3.7117 1.6133,-4.7179 1.0272,-0.7332 -0.49,1.2414 -0.4635,1.7574 -0.7884,2.1508 -0.3554,4.7654 1.113,6.5223 0.9806,1.1362 2.8035,1.5331 4.0954,0.7429 z m 60.0121,-1.0115 c -0.9967,-0.9802 -0.6109,0.584 0,0 z m -23.7469,-18.2282 c 1.4117,-0.8128 -0.5897,-3.8339 -1.7161,-2.835 -0.8934,1.3006 -0.4919,3.7751 1.5489,2.8995 l 0.1672,-0.064 z"
       style="fill:#000000;stroke-width:0.104363"
       id="path7405" /></g></svg>
