<?xml version="1.0" encoding="UTF-8" standalone="no"?>
<!-- Created with Inkscape (http://www.inkscape.org/) -->

<svg
   width="256.00024mm"
   height="256mm"
   viewBox="0 0 256.00024 256"
   version="1.1"
   id="svg5"
   xml:space="preserve"
   xmlns="http://www.w3.org/2000/svg"
   xmlns:svg="http://www.w3.org/2000/svg"><defs
     id="defs2" /><g
     id="layer1"
     transform="translate(-1383.7,-562.05333)"><rect
       style="fill:#fa0000;fill-opacity:1;stroke-width:0.122816;-inkscape-stroke:none;stop-color:#000000"
       id="rect1436-44-3-9"
       width="255.99994"
       height="255.99998"
       x="1383.7001"
       y="562.05334" /><path
       d="m 1516.4519,784.63203 c -1.5936,-0.5548 -1.0418,-2.62776 -0.8447,-3.91009 0.3082,-2.26168 1.2055,-4.5 0.7448,-6.80629 0.1542,-1.17802 1.3999,-1.51747 2.217,-2.09721 1.3079,-0.66346 2.4566,-1.68822 3.2672,-2.94452 0.6989,-1.31022 0.9697,-2.7842 2.0424,-3.86357 0.9515,-0.78104 1.9233,-1.48597 3.0746,-1.95075 1.26,-0.46729 2.4296,-0.95998 3.3316,-1.98004 1.1637,-1.2516 2.0085,-2.84935 3.3617,-3.88213 0.975,-1.23118 2.3027,-2.16188 3.1913,-3.48628 0.7853,-1.09661 1.5482,-2.201 2.1907,-3.40341 0.665,-1.01856 1.6671,-2.26605 1.2088,-3.60342 -0.6266,-1.08559 -1.7976,-1.60508 -2.7676,-2.27595 -1.0184,-0.60754 -1.9622,-1.08494 -2.8923,-1.70852 -0.9099,-0.49938 -1.9294,-0.97911 -2.7592,-1.73783 -1.1172,-0.83442 -1.6536,-2.24373 -2.3463,-3.43083 -0.4401,-1.62433 -2.2635,-2.20477 -2.8033,-3.75976 -0.4296,-0.88837 -1.658,-2.02881 -2.5826,-1.50082 -1.2406,0.87027 -1.4088,2.59182 -1.3729,3.99922 -0.093,1.4818 0.1399,3.05711 -0.4347,4.46107 -0.88,0.86737 -1.6132,1.80819 -2.4854,2.59674 -1.1206,0.42379 -2.5754,0.30087 -3.5591,-0.3265 -1.4413,-0.29253 -3.0299,-0.74622 -4.4089,-0.004 -0.7254,0.70955 -1.7807,-0.16873 -2.5471,0.63202 -1.1159,-0.0993 -2.4894,-0.49739 -3.4625,0.20097 -1.5275,0.37506 -2.6947,-0.94369 -4.1839,-0.76399 -1.17,0.6437 -2.5902,0.24114 -3.8932,0.32357 -1.1391,-0.031 -2.6677,0.61913 -2.4756,-1.10215 -0.5292,-1.5539 -4.0259,-0.83618 -2.8258,0.82653 1.0113,1.30023 0.085,2.94528 -0.323,4.29096 -0.4283,1.17144 -0.6108,2.59638 -1.4609,3.51495 -0.8868,1.05464 -2.4797,0.76305 -3.7477,0.92898 -2.2724,0.1057 -4.5649,0.4019 -6.8314,0.23698 -1.5767,-0.057 -2.6502,-1.54918 -2.1298,-3.1395 0.498,-2.52543 0.2571,-5.10452 0.4417,-7.65257 0.3476,-1.20498 1.3633,-2.01513 2.3014,-2.68518 0.637,-0.43971 1.2946,-0.92606 1.9513,-1.49166 1.2981,-1.1632 2.2394,-2.66269 3.3634,-3.96653 0.8951,-0.93611 1.9235,-1.51566 3.1727,-1.79853 1.275,-0.36345 2.6081,-0.30672 3.9341,-0.22609 1.7632,0.0466 3.5781,0.0414 5.2258,0.65737 1.362,0.3011 2.7498,0.53129 4.1544,0.74328 1.8166,0.13356 3.6638,0.12093 5.4787,-0.0446 1.4401,-0.51169 1.1758,-2.29885 1.1357,-3.52404 -0.098,-3.9246 -0.4431,-7.88225 0.092,-11.78711 0.3328,-1.36579 0.7955,-2.70423 1.1821,-4.04996 -0.1559,-1.44005 -1.0625,-3.24492 -2.7797,-3.02989 -3.1625,-0.13164 -6.3512,-0.34769 -9.4194,-1.16203 -1.0994,-0.34675 -2.2235,-0.55938 -3.2609,-0.99181 -1.0726,-0.31573 -2.0767,-0.87944 -3.1831,-1.18853 -1.2326,-0.40865 -2.2528,-1.157 -3.4113,-1.76548 -0.9167,-0.7268 -1.9265,-1.27586 -2.7709,-2.06792 -1.112,-0.87136 -2.2895,-1.87989 -3.3778,-2.86978 -1.2187,-1.139 -2.4713,-2.23545 -3.6872,-3.37885 -1.101,-0.5947 -2.4633,-0.39205 -3.5795,-0.93697 -1.3524,-0.49377 -2.7766,-0.97403 -3.9112,-1.87279 -0.7983,-0.5219 -1.5542,-1.00039 -2.4113,-1.29785 -1.1783,-0.61539 -2.4858,-1.04537 -3.812,-1.25776 -1.1815,-0.42815 -2.7117,-0.32247 -3.2992,0.96139 -1.2996,1.21024 -0.8144,3.28797 0.6746,4.09555 1.5146,0.92303 1.6164,2.71162 1.8729,4.27012 0.6715,1.46537 2.2355,-0.0122 3.0008,-0.64308 1.3689,-0.77643 1.3853,2.05192 1.3306,2.98821 0.054,1.87952 -0.9924,3.55052 -1.0306,5.42141 0.335,1.67457 -2.8802,2.43771 -1.0602,3.85804 0.7586,1.2993 1.9449,2.43678 3.4608,2.7033 1.6647,-0.2564 2.4123,1.26838 2.1201,2.72153 -0.012,2.16894 0.044,4.35162 -0.02,6.5145 -0.448,1.7926 -1.5288,3.32415 -2.102,5.07663 -0.4696,1.3691 -1.7559,2.29416 -3.0059,2.72162 -1.2759,0.36133 -2.7168,0.68307 -4.0503,0.26588 -1.1531,-0.35006 -2.2509,-1.18938 -2.462,-2.48521 -0.461,-1.39973 -1.691,-2.50188 -2.8395,-3.22009 -1.1251,-0.77199 -1.3268,-2.31825 -2.1391,-3.36249 -1.0193,-1.31894 -0.4424,-2.99354 -0.6935,-4.49714 -0.5499,-1.46496 -1.81,-2.53383 -2.6345,-3.85544 -1.152,-1.22945 -0.8659,-2.99524 -0.8887,-4.53956 -0.067,-3.00835 0.1785,-6.00568 0.4963,-8.99332 0.1942,-4.26172 0.3207,-8.58512 -0.6396,-12.77259 -0.3305,-1.58385 -0.6389,-3.3287 0.2871,-4.78749 0.4944,-1.1434 1.0477,-2.22739 1.511,-3.41607 0.4716,-1.06048 1.3978,-1.84565 2.3499,-2.35168 0.7347,-0.6293 1.5717,-1.09817 2.5448,-1.41644 0.9933,-0.63527 2.2703,-0.80832 3.4397,-0.40929 0.9921,0.37451 2.0884,1.06404 2.7618,1.76121 0.8439,0.48869 1.6404,1.329 2.6283,1.54321 1.2,0.36719 2.5677,0.4954 3.8714,0.49402 1.4227,0.0976 3.038,0.0694 3.4105,-1.59215 1.1797,-1.1426 -0.2607,-2.73098 -0.8196,-3.84285 -0.7459,-1.05158 -1.5026,-2.1797 -2.4352,-3.04778 -0.8039,-0.98293 -1.7264,-1.97391 -2.57,-2.99704 -0.6019,-0.83754 -0.9627,-1.43773 -1.3545,-2.33812 -0.2101,-1.71142 -1.8256,-2.41983 -2.6618,-3.6967 -0.2848,-1.22296 -1.8485,-1.9285 -1.9827,-0.22659 -0.3823,1.08677 -1.4529,1.34556 -2.2695,1.96138 -0.6513,1.24601 -0.9564,2.78252 -2.1103,3.67128 -0.9736,0.74423 -2.15,1.61496 -3.4821,1.3903 -1.0705,-0.0769 -1.5683,-1.35963 -0.2331,-1.42068 1.1963,-0.7826 1.3937,-2.34091 0.4559,-3.40907 -0.4464,-1.10759 -1.8022,-0.78349 -2.5542,-0.28308 -0.9179,1.23146 -1.4836,2.64285 -1.6735,4.1742 -0.1446,1.45067 -1.3755,2.00693 -2.4761,2.61113 -1.1532,0.42802 -2.1645,1.27919 -3.2766,1.77803 -0.8058,0.38071 -1.526,1.00422 -2.3168,1.43825 -1.001,0.44698 -1.9341,1.1349 -3.1429,0.91063 -1.6145,0.17381 -1.6209,-1.8698 -0.942,-2.86194 0.5985,-1.71475 0.8447,-3.58387 0.2825,-5.34376 -0.1512,-1.52898 -1.0708,-2.95859 -0.6979,-4.50441 0.8035,-1.49617 2.5762,-1.81302 3.6132,-3.04573 1.5112,-1.64749 1.3167,-4.31961 3.1496,-5.75284 0.9523,-0.52963 2.095,-0.67253 3.1853,-0.89073 1.3178,-0.14002 2.7341,-0.13265 3.8461,-0.83717 0.9274,-0.19611 1.755,-0.6844 2.4846,-1.29923 1.0294,-0.60584 2.0256,-1.2136 3.0576,-1.89851 0.7634,-0.58761 1.6286,-1.31353 2.4482,-1.9684 0.8681,-0.92406 1.9938,-1.57169 3.0019,-2.2112 0.9709,-0.55618 2.1548,-0.85224 3.3496,-0.86409 1.5513,0.0375 3.1784,-0.0213 4.6379,0.46806 1.1873,0.93627 1.3585,2.66127 1.8637,4.00579 0.5614,1.70692 1.1133,3.6009 2.7267,4.6215 1.4001,0.82243 2.6272,1.86923 3.8004,2.99051 0.9779,1.10739 2.1829,2.00676 3.1219,3.16538 0.6327,0.5312 1.5733,1.92494 2.3647,0.88521 0.8388,-0.63081 1.6842,-1.17051 2.5412,-1.65576 0.9673,-0.46068 2.0601,-0.83341 3.0772,-1.19879 1.4655,-0.11301 1.2401,-1.98506 2.0454,-2.87312 0.5732,-1.11562 1.4721,-2.04258 2.4958,-2.72729 0.8788,-0.51316 3.1054,-2.05073 1.1197,-2.50519 -1.5128,0.045 -2.5733,-1.11767 -3.0543,-2.43813 -1.3097,-1.03635 -0.2677,-2.49363 1.076,-2.66504 0.7408,-0.48572 2.985,-1.15945 1.8929,-2.14887 -1.2489,0.008 -2.366,0.74391 -3.371,1.35825 -1.234,0.50406 -2.0778,1.68944 -3.1076,2.48201 -1.0213,0.9268 -2.6658,0.60382 -3.5782,-0.3721 -1.127,-1.00516 -1.4446,-2.5016 -2.3028,-3.68014 -0.8418,-0.9339 -1.7272,-2.04141 -1.5723,-3.35596 -0.06,-1.40145 0.7741,-2.45532 1.7162,-3.36966 1.0311,-0.95069 1.6102,-2.2237 2.4455,-3.29893 0.7868,-1.87381 1.6196,-3.75937 2.0208,-5.76587 0.7212,-2.19619 1.2454,-4.45944 2.1343,-6.59346 0.4857,-1.53989 1.4169,-2.89315 2.1715,-4.30947 1.1036,-1.03893 0.1944,-2.05626 -1.0713,-2.09104 -1.2941,-0.0427 -2.5162,-0.64466 -3.6541,-1.13241 -0.9237,-0.36443 -1.8376,-1.1629 -2.9235,-1.12885 -1.5049,0.25825 -2.2232,-1.48314 -3.6096,-1.56635 -0.9343,0.21368 -1.9205,0.36399 -2.587,0.98065 -0.9285,0.71532 -1.7765,1.49923 -2.1242,2.69632 -0.8025,0.83527 0.1897,3.68587 1.1438,2.52353 -1.0806,-1.2449 1.4476,-2.42385 2.4135,-1.77224 1.3519,0.15653 2.3757,1.54278 2.2,2.93643 0.053,1.75643 -1.0505,3.27008 -2.3264,4.3453 -0.8537,0.77887 -1.8129,1.19795 -2.9427,1.36193 -1.219,0.0471 -2.6359,0.10712 -3.6433,-0.54587 -0.7294,-0.15911 -1.289,-0.80466 -1.9006,-1.12514 -0.8741,-0.86931 -1.6979,-2.04654 -1.9642,-3.32383 -0.3689,-2.57246 0.1825,-5.27224 1.3718,-7.56451 0.8067,-1.19993 1.8065,-2.2529 2.9776,-3.04889 0.9502,-0.8566 2.2311,-1.12996 3.4443,-1.48367 1.2204,-0.18589 1.8581,-1.56898 2.9427,-1.92847 0.6144,-0.53448 1.5691,-0.55681 2.2463,-1.02768 1.199,-0.6567 2.7029,-0.0734 4.0339,-0.10218 1.8091,0.2383 3.6923,0.29082 5.3631,1.05372 1.1026,0.32275 2.2118,0.72511 3.2006,1.38868 1.1983,0.35974 2.4588,2.07468 3.6427,0.82017 0.7259,-0.94375 1.6199,-1.74149 2.5743,-2.44851 1.6171,-0.76487 1.2801,-2.89223 1.8775,-4.35525 0.4359,-1.02701 -0.3136,-3.27542 1.5788,-2.44467 1.0939,0.48801 2.0984,1.07739 3.2257,1.53792 0.8333,0.59422 1.6364,1.31038 2.2783,2.09822 1.2235,1.59557 1.6365,-1.00871 2.3535,-1.67404 0.5328,-1.16695 1.9883,-2.22064 2.3442,-0.29353 0.8358,1.08423 1.6714,2.26348 1.8073,3.6786 0.6606,1.53756 3.0195,0.0991 4.3977,0.32361 1.0682,-0.08 2.2418,0.11507 2.918,0.92385 0.04,1.38278 0.7459,2.20254 2.0277,2.50977 1.5372,0.54943 2.8309,1.80333 3.5202,3.30906 0.4994,1.12856 1.2332,2.0281 2.2398,2.6831 1.0597,0.45837 2.1618,0.88426 3.2876,1.2669 1.2955,0.16154 2.5302,0.73619 3.3055,1.82551 0.6189,1.2972 0.1322,2.78086 -1.341,2.95698 0.4411,0.93068 1.5412,1.10109 2.2677,1.83322 1.123,0.75277 1.5561,2.26409 2.3016,3.38595 1.4788,1.66637 -2.9509,-0.0888 -1.7307,2.09319 0.7239,1.38278 1.0425,2.89849 0.9133,4.45801 0.082,1.85519 -0.611,3.80048 0.3143,5.54551 0.3144,1.36604 2.5882,2.36748 0.7965,3.67253 -1.8353,1.08446 -0.019,3.36518 -0.6814,5.00409 -0.2466,2.43085 -1.7094,4.48338 -2.3032,6.80882 -0.5025,1.35776 0.2421,3.35478 1.9223,3.14657 0.3234,1.01144 -2.1902,2.16073 -3.2579,1.36272 -1.4458,-1.18043 -2.3368,0.53301 -2.6607,1.73052 0.035,1.83692 -0.3117,3.59026 -0.8226,5.3362 -0.03,1.31577 0.914,2.79284 -0.021,3.98914 -0.5185,1.31785 -0.7699,2.71384 -1.0645,4.09603 0.2401,0.60191 1.4101,2.22258 0.1632,1.23723 -1.2835,-0.57543 -2.1516,-1.82634 -2.3379,-3.20335 -0.5633,-1.70055 -1.7987,0.26618 -2.6621,0.5532 -0.5733,0.68703 -2.1859,0.35574 -2.1321,1.54604 0.681,1.18007 2.0296,1.71946 3.0659,2.53047 1.421,0.80793 2.5093,2.26411 3.5782,3.53634 1.0617,1.60457 2.5358,2.95833 4.0507,4.09737 0.7509,0.51092 1.4961,0.82029 2.2835,1.16008 0.9976,0.37183 1.978,0.72756 3.0275,1.09758 1.0127,0.30961 1.7771,0.91776 2.7736,1.20875 1.1686,0.51146 2.2494,1.38151 3.4004,1.77749 1.0922,0.35636 2.0272,1.01126 3.0682,1.39956 1.0105,0.40262 1.91,0.95831 2.7982,1.48424 0.5424,0.31141 1.1018,0.58925 1.5737,1.00269 1.0336,0.52754 1.8423,1.29354 2.7175,2.05356 2.148,1.47969 3.1707,3.96777 4.4388,6.1454 1.1368,1.6842 3.1974,2.53102 4.1394,4.38798 0.8937,1.1306 1.1832,2.83293 2.5321,3.51805 1.1405,0.71193 3.1931,0.1581 3.0058,-1.45618 -0.2191,-1.48145 -1.6026,-2.35906 -2.8258,-2.91649 -0.9881,-0.58011 -2.0644,-1.15171 -2.935,-1.96379 -1.1813,-1.03192 -1.6377,-2.7497 -1.8367,-4.27564 -0.2595,-1.54074 0.6023,-3.83798 -1.2299,-4.66536 -1.0139,-0.74608 -2.201,0.9667 -2.9211,0.29582 -0.4058,-1.38472 0.3208,-3.0012 1.5235,-3.72748 0.6116,-0.57444 2.8477,-1.31639 1.1348,-2.008 -1.0976,-0.41337 -2.0704,-0.89233 -3.2708,-1.04558 -1.7808,-0.61699 -3.7715,0.009 -5.514,-0.76178 -1.1472,-0.24616 -2.3435,-0.92115 -3.0779,-1.84626 -1.1107,-0.95198 -1.1736,-2.77433 -2.0068,-3.95829 -0.6455,-0.98354 -1.7366,-1.69883 -2.6328,-2.29929 -1.0418,-0.64506 -2.0603,-1.3697 -2.8755,-2.34811 -1.5073,-1.67958 -1.5919,-4.05316 -1.6591,-6.19497 0,-0.83804 0.4996,-3.07959 1.3907,-1.43 0.3548,0.86853 3.0591,2.014 2.0189,0.24673 -1.1549,-1.00145 -1.7623,-2.39901 -1.7712,-3.92744 -0.25,-1.95012 0.2949,-3.8522 0.7897,-5.71017 0.1764,-1.98711 1.4845,-3.60991 2.4024,-5.30251 0.7324,-1.20066 2.156,-1.72333 2.8932,-2.95988 0.8776,-1.15712 1.9084,-2.28902 3.1335,-2.99394 0.9257,-0.62294 1.88,-1.44556 2.7921,-2.16748 0.9347,-0.82407 1.9258,-1.57814 2.8822,-2.35733 0.8798,-0.93764 2.2136,-1.49661 3.0495,-2.56198 1.3381,-1.2815 2.289,-2.85853 3.1194,-4.49837 0.8626,-1.17815 1.5621,-2.42389 2.0599,-3.79319 0.2787,-0.63171 0.5161,-1.27039 0.3806,-1.97016 -0.071,-1.08902 0.026,-2.23526 -0.3818,-3.26054 -0.688,-1.00728 -1.4249,-2.72199 -2.8618,-2.76645 -1.1451,-0.3157 -2.7287,-0.37694 -3.4973,0.73 -1.455,1.95458 2.4404,1.27923 1.8399,3.05589 -0.4372,1.14906 -1.2927,2.23946 -2.5093,2.5053 -1.2276,0.18758 -2.2353,-0.42662 -3.1643,-1.10961 -1.151,-1.07196 -1.3458,-2.64676 -1.2236,-4.14841 0.1775,-2.08728 1.4282,-4.11326 3.3361,-5.047 1.1309,-0.46952 2.3864,-0.74561 3.6658,-0.79054 1.3412,-0.14136 2.5947,0.24118 3.785,0.68333 0.9023,0.43727 1.7067,0.88995 2.6285,1.3012 0.9974,0.70904 2.0603,1.3421 2.7814,2.41462 0.9039,0.90083 1.6474,2.00528 2.1993,3.19767 0.5244,1.34135 1.323,2.6453 1.0924,4.14412 -0.4043,1.93452 -0.1705,4.03204 -1.1629,5.81406 -0.4252,1.14332 -1.0584,2.14024 -1.473,3.23959 -0.8323,1.2596 -1.572,2.60501 -2.5715,3.7643 -0.8403,0.93907 -1.679,2.01435 -2.6045,2.93854 -0.8244,0.90502 -1.6438,1.80395 -2.4103,2.80101 -1.0166,0.81755 -1.6995,1.97762 -2.4896,2.93466 -0.777,0.91329 -1.722,1.88156 -2.1464,3.06792 -0.3982,1.37558 -0.9567,2.68023 -1.3248,4.05767 -0.3755,1.72647 -0.2959,3.63429 0.4802,5.20902 0.535,1.16342 1.2055,2.28572 2.0374,3.31693 0.4313,0.99356 2.4022,1.92315 1.9934,0.1244 -0.4481,-1.35662 -1.2809,-2.78195 -0.4623,-4.21745 1.1275,-0.95438 2.2065,-2.04191 1.5111,-3.65364 -0.2382,-1.5188 0.5833,-3.08378 1.4415,-4.28272 0.6593,-0.84387 1.5936,-1.57888 2.6805,-1.80632 1.1682,-0.48561 3.8324,1.70044 2.18,2.30397 -1.0278,0.25786 -2.2989,0.60493 -2.3799,1.93388 -0.293,1.79665 0.7101,3.65644 2.1546,4.64261 1.0371,0.61934 2.0364,1.26 3.0634,1.86617 0.8934,0.58886 1.6205,1.39347 2.3379,2.16872 0.8572,0.922 1.4861,2.33499 0.5717,3.46433 -1.0431,1.30488 -1.3172,3.26517 -0.4797,4.73588 0.8064,1.12683 1.8383,2.23978 2.9552,2.94692 0.8561,0.51091 1.7111,1.21055 2.54,1.8507 2.8328,2.32748 3.999,6.13966 3.8757,9.71474 0.067,2.42937 -0.3891,4.87952 -1.4162,7.07206 -0.7547,1.378 1.2181,2.5176 2.4129,2.50803 0.792,1.07742 -1.5507,2.2496 -1.9292,3.39183 -0.7599,1.17662 -0.7644,2.73307 -0.8284,4.14697 -0.043,1.71801 0.056,3.6096 -1.0541,5.04954 -0.4552,1.10031 -1.1727,2.03248 -1.9071,2.88881 -0.8271,0.39908 -2.0945,0.99137 -1.0037,2.03086 0.6163,1.74737 -0.7051,3.50589 -1.8509,4.70734 -1.0182,0.81189 -0.77,2.80604 0.6077,3.13564 -0.3602,0.99332 -1.9682,0.82228 -2.8388,1.32494 -1.1897,0.5924 -2.6318,0.57603 -3.9119,0.23781 -1.906,-0.43875 -1.2895,-2.88277 -0.012,-3.68179 1.1972,-0.73444 2.7219,-2.09557 1.9491,-3.63095 -1.1152,-0.90841 -2.7856,-0.61462 -4.0862,-1.23476 -1.083,-0.76032 -2.8504,-1.38484 -2.5759,0.72411 -0.1314,1.53157 -0.8618,2.90014 -1.608,4.1933 -0.7428,1.3738 -1.7881,2.5516 -2.6202,3.85701 -1.1083,1.37822 -2.0662,2.94975 -3.532,3.98266 -0.859,1.05467 -2.0908,1.88119 -3.0617,2.87954 -0.8958,1.14251 -2.3068,1.79059 -3.0709,3.0787 -0.9525,1.20502 -0.6374,2.92092 -0.3734,4.32173 0.1658,1.30725 1.661,1.45299 2.336,2.23816 1.0589,0.88126 1.1113,2.29372 1.6368,3.47391 0.6274,1.23566 1.8718,2.11273 2.1523,3.51576 0.058,1.44372 -0.8161,2.70753 -1.8846,3.51039 -1.1852,0.80404 -1.8034,2.31907 -2.1296,3.70609 -0.8837,1.4559 -2.0997,2.76614 -2.4987,4.46621 -0.3123,1.17628 -1.2703,2.04362 -2.3699,2.32174 -1.2915,-0.011 -2.7065,-0.40974 -3.2544,1.18987 -0.8951,1.45765 -0.9988,3.3144 -2.3338,4.50341 -1.0651,1.60521 -2.6012,3.25841 -2.3192,5.34563 0.1501,1.46818 0.466,3.05994 -0.5093,4.32929 -0.7663,0.92041 -1.7473,1.50036 -2.7997,2.06185 -1.3725,0.62344 -1.5076,2.62003 -3.2496,2.79022 -0.8869,-0.99811 1.3101,-2.61877 0.9134,-3.98178 -1.1176,-0.38426 -2.1445,0.9947 -3.0188,1.63582 -0.7855,0.0199 0.1492,-3.03794 -1.3839,-1.69515 -0.8872,1.26983 0.5491,2.98677 -0.6126,4.16978 -0.4826,1.12569 -1.5371,1.64446 -2.5989,1.97477 -1.5695,0.28883 -3.0894,0.80349 -4.5873,1.27663 -2.286,0.85065 -4.842,0.95497 -7.2492,0.82055 z"
       id="path1157-7-0-5"
       style="fill:#ffffff;stroke-width:0.870993" /><path
       d="m 1516.4519,784.63203 c -1.5936,-0.5548 -1.0418,-2.62776 -0.8447,-3.91009 0.3082,-2.26168 1.2055,-4.5 0.7448,-6.80629 0.1542,-1.17802 1.3999,-1.51747 2.217,-2.09721 1.3079,-0.66346 2.4566,-1.68822 3.2672,-2.94452 0.6989,-1.31022 0.9697,-2.7842 2.0424,-3.86357 0.9515,-0.78104 1.9233,-1.48597 3.0746,-1.95075 1.26,-0.46729 2.4296,-0.95998 3.3316,-1.98004 1.1637,-1.2516 2.0085,-2.84935 3.3617,-3.88213 0.975,-1.23118 2.3027,-2.16188 3.1913,-3.48628 0.7853,-1.09661 1.5482,-2.201 2.1907,-3.40341 0.665,-1.01856 1.6671,-2.26605 1.2088,-3.60342 -0.6266,-1.08559 -1.7976,-1.60508 -2.7676,-2.27595 -1.0184,-0.60754 -1.9622,-1.08494 -2.8923,-1.70852 -0.9099,-0.49938 -1.9294,-0.97911 -2.7592,-1.73783 -1.1172,-0.83442 -1.6536,-2.24373 -2.3463,-3.43083 -0.4401,-1.62433 -2.2635,-2.20477 -2.8033,-3.75976 -0.4296,-0.88837 -1.658,-2.02881 -2.5826,-1.50082 -1.2406,0.87027 -1.4088,2.59182 -1.3729,3.99922 -0.093,1.4818 0.1399,3.05711 -0.4347,4.46107 -0.88,0.86737 -1.6132,1.80819 -2.4854,2.59674 -1.1206,0.42379 -2.5754,0.30087 -3.5591,-0.3265 -1.4413,-0.29253 -3.0299,-0.74622 -4.4089,-0.004 -0.7254,0.70955 -1.7807,-0.16873 -2.5471,0.63202 -1.1159,-0.0993 -2.4894,-0.49739 -3.4625,0.20097 -1.5275,0.37506 -2.6947,-0.94369 -4.1839,-0.76399 -1.17,0.6437 -2.5902,0.24114 -3.8932,0.32357 -1.1391,-0.031 -2.6677,0.61913 -2.4756,-1.10215 -0.5292,-1.5539 -4.0259,-0.83618 -2.8258,0.82653 1.0113,1.30023 0.085,2.94528 -0.323,4.29096 -0.4283,1.17144 -0.6108,2.59638 -1.4609,3.51495 -0.8868,1.05464 -2.4797,0.76305 -3.7477,0.92898 -2.2724,0.1057 -4.5649,0.4019 -6.8314,0.23698 -1.5767,-0.057 -2.6502,-1.54918 -2.1298,-3.1395 0.498,-2.52543 0.2571,-5.10452 0.4417,-7.65257 0.3476,-1.20498 1.3633,-2.01513 2.3014,-2.68518 0.637,-0.43971 1.2946,-0.92606 1.9513,-1.49166 1.2981,-1.1632 2.2394,-2.66269 3.3634,-3.96653 0.8951,-0.93611 1.9235,-1.51566 3.1727,-1.79853 1.275,-0.36345 2.6081,-0.30672 3.9341,-0.22609 1.7632,0.0466 3.5781,0.0414 5.2258,0.65737 1.362,0.3011 2.7498,0.53129 4.1544,0.74328 1.8166,0.13356 3.6638,0.12093 5.4787,-0.0446 1.4401,-0.51169 1.1758,-2.29885 1.1357,-3.52404 -0.098,-3.9246 -0.4431,-7.88225 0.092,-11.78711 0.3328,-1.36579 0.7955,-2.70423 1.1821,-4.04996 -0.1559,-1.44005 -1.0625,-3.24492 -2.7797,-3.02989 -3.1625,-0.13164 -6.3513,-0.34769 -9.4194,-1.16203 -1.0994,-0.34675 -2.2235,-0.55938 -3.2609,-0.99181 -1.0726,-0.31573 -2.0767,-0.87944 -3.1831,-1.18853 -1.2326,-0.40865 -2.2528,-1.157 -3.4113,-1.76548 -0.9167,-0.7268 -1.9265,-1.27586 -2.7709,-2.06792 -1.112,-0.87136 -2.2895,-1.87989 -3.3778,-2.86978 -1.2187,-1.139 -2.4713,-2.23545 -3.6872,-3.37885 -1.101,-0.5947 -2.4633,-0.39205 -3.5795,-0.93697 -1.3524,-0.49377 -2.7766,-0.97403 -3.9112,-1.87279 -0.7983,-0.5219 -1.5542,-1.00039 -2.4113,-1.29785 -1.1783,-0.61539 -2.4858,-1.04537 -3.812,-1.25776 -1.1815,-0.42815 -2.7117,-0.32247 -3.2992,0.96139 -1.2996,1.21024 -0.8144,3.28797 0.6746,4.09555 1.5146,0.92303 1.6164,2.71162 1.8729,4.27012 0.6715,1.46537 2.2355,-0.0122 3.0008,-0.64308 1.3689,-0.77643 1.3853,2.05192 1.3306,2.98821 0.054,1.87952 -0.9924,3.55052 -1.0306,5.42141 0.335,1.67457 -2.8802,2.43771 -1.0602,3.85804 0.7586,1.2993 1.9449,2.43678 3.4608,2.7033 1.6647,-0.2564 2.4123,1.26838 2.1201,2.72153 -0.012,2.16894 0.044,4.35162 -0.02,6.5145 -0.448,1.7926 -1.5288,3.32415 -2.102,5.07663 -0.4696,1.3691 -1.7559,2.29416 -3.0059,2.72162 -1.2759,0.36133 -2.7168,0.68307 -4.0503,0.26588 -1.1531,-0.35006 -2.2509,-1.18938 -2.462,-2.48521 -0.461,-1.39973 -1.691,-2.50188 -2.8395,-3.22009 -1.1251,-0.77199 -1.3268,-2.31825 -2.1391,-3.36249 -1.0193,-1.31894 -0.4425,-2.99354 -0.6935,-4.49714 -0.5499,-1.46496 -1.81,-2.53383 -2.6345,-3.85544 -1.152,-1.22945 -0.8659,-2.99524 -0.8887,-4.53956 -0.067,-3.00835 0.1785,-6.00568 0.4963,-8.99332 0.1942,-4.26172 0.3207,-8.58512 -0.6396,-12.77259 -0.3305,-1.58385 -0.6389,-3.3287 0.2871,-4.78749 0.4944,-1.1434 1.0477,-2.22739 1.511,-3.41607 0.4716,-1.06048 1.3978,-1.84565 2.3499,-2.35168 0.7347,-0.6293 1.5717,-1.09817 2.5448,-1.41644 0.9933,-0.63527 2.2703,-0.80832 3.4395,-0.40929 0.9923,0.37451 2.0886,1.06404 2.762,1.76121 0.8439,0.48869 1.6404,1.329 2.6283,1.54321 1.2,0.36719 2.5677,0.4954 3.8714,0.49402 1.4227,0.0976 3.038,0.0694 3.4105,-1.59215 1.1797,-1.1426 -0.2607,-2.73098 -0.8196,-3.84285 -0.7459,-1.05158 -1.5026,-2.1797 -2.4352,-3.04778 -0.8039,-0.98293 -1.7264,-1.97391 -2.57,-2.99704 -0.6019,-0.83754 -0.9627,-1.43773 -1.3545,-2.33812 -0.2101,-1.71142 -1.8256,-2.41983 -2.6618,-3.6967 -0.2848,-1.22296 -1.8485,-1.9285 -1.9827,-0.22659 -0.3823,1.08677 -1.4529,1.34556 -2.2695,1.96138 -0.6513,1.24601 -0.9564,2.78252 -2.1103,3.67128 -0.9736,0.74423 -2.15,1.61496 -3.4821,1.3903 -1.0705,-0.0769 -1.5683,-1.35963 -0.2331,-1.42068 1.1963,-0.7826 1.3937,-2.34091 0.4559,-3.40907 -0.4464,-1.10759 -1.8023,-0.78349 -2.5542,-0.28308 -0.9179,1.23146 -1.4836,2.64285 -1.6736,4.1742 -0.1445,1.45067 -1.3754,2.00693 -2.476,2.61113 -1.1532,0.42802 -2.1645,1.27919 -3.2766,1.77803 -0.8058,0.38071 -1.526,1.00422 -2.3169,1.43825 -1.0011,0.44698 -1.934,1.1349 -3.1428,0.91063 -1.6145,0.17381 -1.6209,-1.8698 -0.942,-2.86194 0.5985,-1.71475 0.8447,-3.58387 0.2824,-5.34376 -0.1511,-1.52898 -1.0707,-2.95859 -0.6979,-4.50441 0.8036,-1.49617 2.5763,-1.81302 3.6133,-3.04573 1.5112,-1.64749 1.3167,-4.31961 3.1496,-5.75284 0.9523,-0.52963 2.095,-0.67253 3.1851,-0.89073 1.318,-0.14002 2.7343,-0.13265 3.8463,-0.83717 0.9274,-0.19611 1.755,-0.6844 2.4846,-1.29923 1.0294,-0.60584 2.0256,-1.2136 3.0576,-1.89851 0.7634,-0.58761 1.6286,-1.31353 2.4482,-1.9684 0.8681,-0.92406 1.9938,-1.57169 3.0019,-2.2112 0.9709,-0.55618 2.1548,-0.85224 3.3496,-0.86409 1.5513,0.0375 3.1783,-0.0213 4.6379,0.46806 1.1873,0.93627 1.3585,2.66127 1.8637,4.00579 0.5614,1.70692 1.1132,3.6009 2.7267,4.6215 1.4001,0.82243 2.6272,1.86923 3.8004,2.99051 0.9778,1.10739 2.1829,2.00676 3.1219,3.16538 0.6327,0.5312 1.5733,1.92494 2.3647,0.88521 0.8388,-0.63081 1.6842,-1.17051 2.5411,-1.65576 0.9674,-0.46068 2.0602,-0.83341 3.0773,-1.19879 1.4655,-0.11301 1.2401,-1.98506 2.0454,-2.87312 0.5732,-1.11562 1.4721,-2.04258 2.4958,-2.72729 0.8788,-0.51316 3.1054,-2.05073 1.1197,-2.50519 -1.5128,0.045 -2.5733,-1.11767 -3.0543,-2.43813 -1.3098,-1.03635 -0.2677,-2.49363 1.076,-2.66504 0.7408,-0.48572 2.985,-1.15945 1.8929,-2.14887 -1.2489,0.008 -2.366,0.74391 -3.371,1.35825 -1.234,0.50406 -2.0778,1.68944 -3.1076,2.48201 -1.0213,0.9268 -2.6658,0.60382 -3.5782,-0.3721 -1.127,-1.00516 -1.4446,-2.5016 -2.3028,-3.68014 -0.8418,-0.9339 -1.7272,-2.04141 -1.5723,-3.35596 -0.06,-1.40145 0.7741,-2.45532 1.7162,-3.36966 1.0311,-0.95069 1.6102,-2.2237 2.4455,-3.29893 0.7868,-1.87381 1.6196,-3.75937 2.0208,-5.76587 0.7212,-2.19619 1.2454,-4.45944 2.1343,-6.59346 0.4857,-1.53989 1.4169,-2.89315 2.1715,-4.30947 1.1036,-1.03893 0.1944,-2.05626 -1.0713,-2.09104 -1.2941,-0.0427 -2.5162,-0.64466 -3.6541,-1.13241 -0.9237,-0.36442 -1.8376,-1.1629 -2.9235,-1.12885 -1.5049,0.25825 -2.2233,-1.48313 -3.6096,-1.56635 -0.9343,0.21368 -1.9205,0.36399 -2.587,0.98065 -0.9285,0.71532 -1.7765,1.49923 -2.1242,2.69632 -0.8025,0.83527 0.1896,3.68587 1.1437,2.52353 -1.0806,-1.2449 1.4477,-2.42385 2.4136,-1.77224 1.3519,0.15653 2.3757,1.54278 2.2,2.93643 0.053,1.75643 -1.0506,3.27008 -2.3264,4.3453 -0.8537,0.77887 -1.8129,1.19795 -2.9427,1.36193 -1.219,0.0471 -2.6359,0.10712 -3.6433,-0.54587 -0.7294,-0.15911 -1.289,-0.80466 -1.9006,-1.12514 -0.8742,-0.86931 -1.6979,-2.04654 -1.9642,-3.32383 -0.3689,-2.57246 0.1825,-5.27224 1.3718,-7.56451 0.8067,-1.19993 1.8065,-2.2529 2.9776,-3.04889 0.9502,-0.8566 2.2311,-1.12996 3.4443,-1.48367 1.2204,-0.18588 1.8581,-1.56898 2.9427,-1.92847 0.6144,-0.53447 1.5691,-0.55681 2.2463,-1.02768 1.199,-0.6567 2.7029,-0.0734 4.0339,-0.10218 1.8091,0.2383 3.6923,0.29083 5.3631,1.05372 1.1026,0.32275 2.2118,0.72512 3.2006,1.38868 1.1983,0.35974 2.4588,2.07468 3.6427,0.82017 0.7259,-0.94375 1.6199,-1.74149 2.5743,-2.4485 1.6171,-0.76488 1.2801,-2.89224 1.8774,-4.35526 0.436,-1.02701 -0.3135,-3.27542 1.5789,-2.44467 1.0939,0.48801 2.0984,1.07741 3.2256,1.53792 0.8334,0.59422 1.6365,1.31038 2.2784,2.09822 1.2235,1.59557 1.6365,-1.00871 2.3535,-1.67404 0.5328,-1.16695 1.9883,-2.22063 2.3442,-0.29353 0.8358,1.08423 1.6714,2.26348 1.8073,3.6786 0.6606,1.53756 3.0195,0.0991 4.3977,0.32361 1.0682,-0.08 2.2418,0.11507 2.918,0.92385 0.04,1.38279 0.7459,2.20254 2.0277,2.50977 1.5372,0.54943 2.8309,1.80333 3.5202,3.30906 0.4994,1.12856 1.2332,2.0281 2.2398,2.68312 1.0597,0.45835 2.1618,0.88424 3.2875,1.26688 1.2956,0.16154 2.5303,0.73619 3.3056,1.82551 0.6189,1.2972 0.1322,2.78086 -1.341,2.95698 0.4411,0.93068 1.5412,1.10109 2.2677,1.83322 1.123,0.75277 1.5561,2.26409 2.3016,3.38595 1.4787,1.66637 -2.9509,-0.0888 -1.7308,2.09319 0.724,1.38278 1.0426,2.89849 0.9134,4.45801 0.082,1.85519 -0.6111,3.80048 0.3143,5.54551 0.3144,1.36604 2.588,2.36748 0.7965,3.67253 -1.8353,1.08446 -0.019,3.36518 -0.6814,5.00409 -0.2466,2.43085 -1.7094,4.48338 -2.3032,6.80882 -0.5025,1.35776 0.2421,3.35478 1.9223,3.14657 0.3234,1.01144 -2.1902,2.16073 -3.2579,1.36272 -1.4458,-1.18043 -2.3368,0.53301 -2.6607,1.73052 0.035,1.83692 -0.3117,3.59026 -0.8226,5.3362 -0.03,1.31577 0.914,2.79284 -0.021,3.98914 -0.5185,1.31785 -0.7699,2.71384 -1.0645,4.09603 0.2401,0.60191 1.4101,2.22258 0.1632,1.23723 -1.2835,-0.57543 -2.1516,-1.82634 -2.3379,-3.20335 -0.5633,-1.70055 -1.7987,0.26618 -2.6621,0.5532 -0.5733,0.68703 -2.1859,0.35574 -2.1321,1.54604 0.681,1.18007 2.0296,1.71946 3.0659,2.53047 1.421,0.80793 2.5093,2.26411 3.5782,3.53634 1.0617,1.60457 2.5358,2.95833 4.0507,4.09737 0.7509,0.51092 1.4961,0.82029 2.2835,1.16008 0.9976,0.37183 1.978,0.72756 3.0275,1.09758 1.0127,0.30961 1.7771,0.91776 2.7736,1.20875 1.1686,0.51146 2.2494,1.38151 3.4004,1.77749 1.0922,0.35636 2.0272,1.01126 3.0682,1.39956 1.0105,0.40262 1.91,0.95831 2.7982,1.48424 0.5423,0.31141 1.1018,0.58925 1.5737,1.00269 1.0336,0.52754 1.8423,1.29354 2.7175,2.05356 2.148,1.47969 3.1707,3.96777 4.4388,6.1454 1.1368,1.6842 3.1974,2.53102 4.1394,4.38798 0.8937,1.1306 1.1832,2.83293 2.5321,3.51805 1.1405,0.71193 3.1931,0.1581 3.0058,-1.45618 -0.2191,-1.48145 -1.6026,-2.35906 -2.8258,-2.91649 -0.9881,-0.58011 -2.0644,-1.15171 -2.935,-1.96379 -1.1813,-1.03192 -1.6377,-2.7497 -1.8367,-4.27564 -0.2595,-1.54074 0.6023,-3.83798 -1.2299,-4.66536 -1.0139,-0.74608 -2.201,0.9667 -2.9211,0.29582 -0.4058,-1.38472 0.3208,-3.0012 1.5235,-3.72748 0.6116,-0.57444 2.8477,-1.31639 1.1348,-2.008 -1.0976,-0.41337 -2.0704,-0.89233 -3.2708,-1.04558 -1.7808,-0.61699 -3.7715,0.009 -5.514,-0.76178 -1.1472,-0.24616 -2.3435,-0.92115 -3.0779,-1.84626 -1.1107,-0.95198 -1.1736,-2.77433 -2.0068,-3.95829 -0.6455,-0.98354 -1.7366,-1.69883 -2.6328,-2.29929 -1.0418,-0.64506 -2.0603,-1.3697 -2.8755,-2.34811 -1.5073,-1.67958 -1.5919,-4.05316 -1.6591,-6.19497 0,-0.83804 0.4996,-3.07959 1.3907,-1.43 0.3548,0.86853 3.0591,2.014 2.0189,0.24673 -1.1549,-1.00145 -1.7623,-2.39901 -1.7712,-3.92744 -0.25,-1.95012 0.2949,-3.8522 0.7897,-5.71017 0.1764,-1.98711 1.4845,-3.60991 2.4024,-5.30251 0.7324,-1.20066 2.156,-1.72333 2.8932,-2.95988 0.8776,-1.15712 1.9084,-2.28902 3.1335,-2.99394 0.9257,-0.62294 1.88,-1.44556 2.7921,-2.16748 0.9347,-0.82407 1.9258,-1.57814 2.8822,-2.35733 0.8798,-0.93764 2.2136,-1.49661 3.0495,-2.56198 1.3381,-1.2815 2.289,-2.85853 3.1194,-4.49837 0.8626,-1.17815 1.5621,-2.42389 2.0599,-3.79319 0.2787,-0.63171 0.5161,-1.27039 0.3806,-1.97016 -0.071,-1.08902 0.026,-2.23526 -0.3818,-3.26054 -0.688,-1.00728 -1.4249,-2.72199 -2.8618,-2.76645 -1.1451,-0.3157 -2.7287,-0.37694 -3.4973,0.73 -1.455,1.95458 2.4404,1.27923 1.8399,3.05589 -0.4372,1.14906 -1.2927,2.23946 -2.5093,2.5053 -1.2276,0.18758 -2.2353,-0.42662 -3.1643,-1.10961 -1.151,-1.07196 -1.3458,-2.64676 -1.2236,-4.14841 0.1775,-2.08728 1.4282,-4.11326 3.3361,-5.047 1.1309,-0.46952 2.3864,-0.74561 3.6658,-0.79054 1.3412,-0.14136 2.5947,0.24118 3.785,0.68333 0.9023,0.43727 1.7067,0.88995 2.6285,1.3012 0.9974,0.70904 2.0603,1.3421 2.7814,2.41462 0.9039,0.90083 1.6474,2.00528 2.1993,3.19767 0.5244,1.34135 1.323,2.6453 1.0924,4.14412 -0.4043,1.93452 -0.1705,4.03204 -1.1629,5.81406 -0.4252,1.14332 -1.0584,2.14024 -1.473,3.23959 -0.8323,1.2596 -1.572,2.60501 -2.5715,3.7643 -0.8403,0.93907 -1.679,2.01435 -2.6045,2.93854 -0.8244,0.90502 -1.6438,1.80395 -2.4103,2.80101 -1.0166,0.81755 -1.6995,1.97762 -2.4896,2.93466 -0.777,0.91329 -1.722,1.88156 -2.1464,3.06792 -0.3982,1.37558 -0.9567,2.68023 -1.3248,4.05767 -0.3755,1.72647 -0.2959,3.63429 0.4802,5.20902 0.535,1.16342 1.2055,2.28572 2.0374,3.31693 0.4313,0.99356 2.4022,1.92315 1.9934,0.1244 -0.4481,-1.35662 -1.2809,-2.78195 -0.4623,-4.21745 1.1275,-0.95438 2.2065,-2.04191 1.5111,-3.65364 -0.2382,-1.5188 0.5833,-3.08378 1.4415,-4.28272 0.6593,-0.84387 1.5936,-1.57888 2.6805,-1.80632 1.1682,-0.48561 3.8324,1.70044 2.18,2.30397 -1.0278,0.25786 -2.2989,0.60493 -2.3799,1.93388 -0.293,1.79665 0.7101,3.65644 2.1546,4.64261 1.0371,0.61934 2.0364,1.26 3.0634,1.86617 0.8934,0.58886 1.6205,1.39347 2.3379,2.16872 0.8572,0.922 1.4861,2.33499 0.5717,3.46433 -1.0431,1.30488 -1.3172,3.26517 -0.4797,4.73588 0.8064,1.12683 1.8383,2.23978 2.9552,2.94692 0.8561,0.51091 1.7111,1.21055 2.54,1.8507 2.8328,2.32748 3.999,6.13966 3.8757,9.71474 0.067,2.42937 -0.3891,4.87952 -1.4162,7.07206 -0.7547,1.378 1.2181,2.5176 2.4129,2.50803 0.792,1.07742 -1.5507,2.2496 -1.9292,3.39183 -0.7599,1.17662 -0.7644,2.73307 -0.8284,4.14697 -0.043,1.71801 0.056,3.6096 -1.0541,5.04954 -0.4552,1.10031 -1.1727,2.03248 -1.9071,2.88881 -0.8271,0.39908 -2.0945,0.99137 -1.0037,2.03086 0.6163,1.74737 -0.7051,3.50589 -1.8509,4.70734 -1.0182,0.81189 -0.77,2.80604 0.6077,3.13564 -0.3602,0.99332 -1.9682,0.82228 -2.8388,1.32494 -1.1897,0.5924 -2.6318,0.57603 -3.9119,0.23781 -1.906,-0.43875 -1.2895,-2.88277 -0.012,-3.68179 1.1972,-0.73444 2.7219,-2.09557 1.9491,-3.63095 -1.1152,-0.90841 -2.7856,-0.61462 -4.0862,-1.23476 -1.083,-0.76032 -2.8504,-1.38484 -2.5759,0.72411 -0.1314,1.53157 -0.8618,2.90014 -1.608,4.1933 -0.7428,1.3738 -1.7881,2.5516 -2.6202,3.85701 -1.1083,1.37822 -2.0662,2.94975 -3.532,3.98266 -0.859,1.05467 -2.0908,1.88119 -3.0617,2.87954 -0.8958,1.14251 -2.3068,1.79059 -3.0709,3.0787 -0.9525,1.20502 -0.6374,2.92092 -0.3734,4.32173 0.1658,1.30725 1.661,1.45299 2.336,2.23816 1.0589,0.88126 1.1113,2.29372 1.6368,3.47391 0.6274,1.23566 1.8718,2.11273 2.1523,3.51576 0.058,1.44372 -0.8161,2.70753 -1.8846,3.51039 -1.1852,0.80404 -1.8034,2.31907 -2.1296,3.70609 -0.8837,1.4559 -2.0997,2.76614 -2.4987,4.46621 -0.3123,1.17628 -1.2703,2.04362 -2.3699,2.32174 -1.2915,-0.011 -2.7065,-0.40974 -3.2544,1.18987 -0.8951,1.45765 -0.9988,3.3144 -2.3338,4.50341 -1.0651,1.60521 -2.6012,3.25841 -2.3192,5.34563 0.1501,1.46818 0.466,3.05994 -0.5093,4.32929 -0.7663,0.92041 -1.7473,1.50036 -2.7997,2.06185 -1.3725,0.62344 -1.5076,2.62003 -3.2496,2.79022 -0.8869,-0.99811 1.3101,-2.61877 0.9134,-3.98178 -1.1176,-0.38426 -2.1445,0.9947 -3.0188,1.63582 -0.7855,0.0199 0.1492,-3.03794 -1.3839,-1.69515 -0.8872,1.26983 0.5491,2.98677 -0.6126,4.16978 -0.4826,1.12569 -1.5371,1.64446 -2.5989,1.97477 -1.5695,0.28883 -3.0894,0.80349 -4.5873,1.27663 -2.286,0.85065 -4.842,0.95497 -7.2492,0.82055 z m 3.2738,-0.70659 c 2.8276,-0.35513 5.5186,-1.3354 8.2389,-2.13286 2.0394,-0.39377 1.9202,-2.51162 1.7337,-4.08812 0.7481,-1.27689 -0.4237,-2.16517 -1.4638,-1.20352 0.6506,1.09762 -0.4625,2.97735 -1.6257,1.68129 -1.2389,-0.12292 -2.5352,-1.67063 -3.4411,-0.0481 -1.3885,0.96681 -3.386,-0.61062 -2.915,-2.21106 -0.2235,-1.65329 0.7763,-3.14229 2.5006,-3.30479 -0.3703,1.37507 -1.3755,2.95295 -0.6034,4.36593 0.5799,0.25405 1.7373,0.02 1.9792,-0.61769 0.2577,-0.82994 0.9961,-2.5157 1.8137,-2.10943 -0.9969,1.30277 0.7904,2.2747 1.1231,3.07357 -0.2507,-2.07368 2.1749,-1.9544 3.4283,-2.71085 1.6397,-0.3187 1.7354,-1.69675 0.9951,-2.93997 -0.4317,-1.3293 -0.7822,-3.47453 0.7222,-4.22931 1.1773,1.18485 -0.065,2.89444 0.7444,4.23346 0.7088,0.91228 0.6305,3.02521 1.6298,3.26139 1.121,-1.23052 0.5027,-2.95056 0.3468,-4.39716 -0.2269,-1.00605 0.9867,-2.69322 1.0619,-0.79469 0.5313,1.57838 1.6391,2.96807 1.6384,4.70201 0.1389,0.83785 -0.5351,2.82119 1.0095,1.86399 1.5678,-0.70277 2.38,-2.54929 1.8322,-4.17846 -0.3514,-1.65566 -1.3573,-3.119 -1.4818,-4.842 -0.4727,-2.016 0.3501,-4.03656 1.4044,-5.72304 0.5725,-0.9589 1.6275,-0.50837 0.9608,0.48912 -0.4789,1.8775 -1.5083,3.90488 -0.7343,5.83204 1.0624,-0.41766 1.7187,-1.94794 2.5839,-2.81376 1.2313,-1.47453 1.1848,-3.64519 2.6789,-4.93855 1.4217,-0.71476 0.4592,-3.60437 2.1104,-3.55982 0.466,0.96327 -0.1324,3.82113 1.756,2.4983 1.2822,-0.99339 1.0907,-2.90013 2.2032,-4.05491 0.7919,-1.20724 1.758,-2.37203 1.9006,-3.86653 0.6024,-1.84705 3.1017,-2.3165 3.3577,-4.32911 0.2625,-1.81319 -1.7374,-2.76825 -2.2466,-4.33851 -0.3022,-1.52785 -0.972,-3.03758 -2.5141,-3.65662 -1.5861,-0.97854 -1.6722,-3.02896 -1.7231,-4.69396 0.1503,-1.84936 1.8639,-2.99309 3.0447,-4.23415 2.3836,-2.23173 5.0678,-4.19306 6.9335,-6.91822 1.9216,-2.82535 4.4914,-5.58304 4.7106,-9.16615 -0.1,-2.15614 -0.5912,-4.31643 -0.3274,-6.48133 1.0963,-1.5491 1.6083,1.34725 1.6319,2.23113 0.4178,1.87152 1.8579,3.52591 3.8103,3.8304 1.4848,0.41368 3.4036,0.33032 4.2414,1.89041 0.5433,1.51545 -0.9733,2.72444 -1.9923,3.59165 -1.616,0.56855 -1.9155,3.37608 0.3084,2.82774 1.1996,-0.19038 3.0146,-0.52776 2.1732,-2.13435 0.1881,-1.7371 1.9739,-2.60282 2.5895,-4.15792 1.1381,-1.66966 -0.632,-2.85962 -1.9148,-3.57916 -1.0728,-0.49939 -2.4342,-1.4601 -0.6576,-2.08243 0.5461,-0.39322 0.5699,-0.98085 0.4993,-1.59244 -0.4278,-1.53252 1.3684,-1.98291 1.9717,-3.09683 0.4982,-0.60724 0.8831,-2.89192 1.3846,-1.08457 0.3352,1.46151 -0.9496,2.74105 -1.0823,3.9309 0.5604,-0.10712 1.334,-0.98239 0.8043,0.22664 -0.3761,0.82052 -2.0524,2.56549 -0.1066,2.4663 1.9595,-0.46854 3.2909,-2.38796 3.3513,-4.36178 0.3245,-2.10967 -0.1832,-4.28696 0.3673,-6.36069 0.2275,-1.18553 3.0155,-2.82185 1.2625,-3.64441 -1.7573,-0.46401 -2.8794,1.32095 -4.4904,1.45212 -2.055,-0.66146 0.2575,-1.78322 1.2241,-2.16836 1.3333,-0.91769 1.8423,-2.54926 2.7892,-3.79932 1.1724,-2.21197 0.9726,-4.85777 0.5541,-7.2448 -0.3025,-1.76052 -0.6843,-3.59955 -1.6192,-5.13947 -1.4907,-1.97742 -3.6008,-3.29349 -5.5643,-4.73636 -1.7221,-1.32238 -2.9372,-3.36819 -2.8371,-5.58727 -0.2616,-1.50081 0.778,-2.72298 1.1017,-4.10279 -0.4187,-1.42904 -1.8202,-2.32477 -2.9382,-3.20576 -1.9156,-1.38002 -4.5858,-2.36243 -5.2192,-4.88742 -0.3518,-1.38004 -0.2983,-3.10016 1.0113,-3.97408 0.4804,-0.86645 3.3627,-0.31215 1.5095,-1.46706 -1.883,-0.64256 -3.2897,1.31984 -3.884,2.85707 -0.9377,1.36188 0.4637,2.98404 -0.3809,4.25657 -1.1058,1.11081 -2.3784,2.47317 -2.0269,4.18836 0.3899,1.5175 1.6605,2.70265 1.5285,4.39679 0.1477,1.67623 2.4197,2.37912 2.2202,4.11525 -1.176,-0.5012 -1.4033,-2.55879 -2.7743,-3.21179 -1.6681,-1.1504 -3.5826,-2.10089 -4.6417,-3.91822 -0.7665,-1.20196 -1.5685,-2.38418 -2.3005,-3.60393 -0.6676,-1.57318 -0.2563,-3.3074 0.2224,-4.86737 0.1719,-1.51901 0.3796,-3.08383 1.4134,-4.30654 1.8235,-2.61092 3.5696,-5.32647 5.9972,-7.43048 2.7164,-2.80857 5.5206,-5.68621 7.0784,-9.33307 0.8729,-1.90153 1.1236,-4.01987 1.5025,-6.05938 0.5395,-3.3445 -0.7773,-6.95512 -3.5347,-8.98318 -2.1933,-1.87379 -4.8123,-3.82953 -7.8639,-3.50347 -2.2205,0.0237 -4.4039,1.33966 -5.2306,3.44712 -0.8111,1.81784 -0.7091,4.22 0.6948,5.71961 0.8195,1.19198 3.4347,0.82323 3.0213,-0.76673 -1.6418,-0.34511 -2.5841,-2.25995 -1.315,-3.57323 0.8173,-1.30192 2.3916,-1.69446 3.8346,-1.57071 3.0935,-0.0587 5.5941,2.40278 6.755,5.0846 1.1837,2.33966 1.0781,5.17143 0.078,7.55425 -0.7428,2.06831 -1.6379,4.16604 -3.3375,5.63857 -0.6531,0.53919 -1.3074,1.61082 -2.0531,1.70721 1.0547,-1.33921 2.1599,-2.67832 2.887,-4.24519 1.244,-2.53185 2.299,-5.38436 1.9164,-8.24279 -0.8951,-1.51467 -1.2035,1.45299 -1.6716,2.00674 -1.109,2.70352 -2.4423,5.38317 -4.6083,7.40615 -1.997,2.24206 -4.7809,3.62002 -6.6904,5.95515 -1.3323,1.3959 -3.163,2.16885 -4.4339,3.63849 -0.9732,1.09803 -2.2357,1.90283 -3.1826,3.01007 -0.9269,1.6672 -2.7541,2.78903 -3.1319,4.74353 -0.2443,1.96329 -1.7865,3.65457 -1.3786,5.71106 0.2963,1.51934 0.3732,3.14904 1.2141,4.49315 0.9246,1.27564 2.2726,2.20535 3.1224,3.52759 0.2535,1.42412 0.6935,2.8839 1.9002,3.80142 0.8058,0.92694 2.826,0.71797 2.5769,2.36515 -0.6764,-1.60884 -2.9262,-0.52637 -3.9336,-1.88386 -1.4448,-1.0828 -0.9173,-3.37001 -2.5141,-4.35642 -1.2489,-0.55215 -2.4914,-1.4689 -3.7571,-1.80365 -0.26,1.95404 0.4084,4.01433 1.5391,5.60167 1.8068,2.06249 4.8284,2.82425 6.124,5.35728 0.6526,1.53174 1.0671,3.39775 2.6959,4.2109 2.0879,1.24686 4.5681,1.41228 6.9335,1.52767 1.984,0.41148 3.9705,1.02667 5.7513,1.99758 1.6079,1.20717 1.845,3.32914 2.8007,4.97854 1.0867,2.66339 3.805,4.01693 5.7853,5.90761 0.9795,1.41186 1.031,3.27289 2.1047,4.64991 1.0239,1.5525 1.5173,3.9141 -0.033,5.30515 -1.0154,0.96161 -1.9183,2.09173 -3.0302,2.92445 -0.8691,-1.34404 1.1651,-2.45983 2.1029,-3.18569 1.0928,-1.42577 0.4054,-3.41986 -0.1582,-4.93026 -0.5788,-1.69873 -2.3288,-2.68027 -2.7578,-4.46941 -0.5918,-1.7593 -2.7789,-1.85034 -3.8991,-3.17874 -1.5583,-1.41081 -1.0416,-4.11307 -2.9862,-5.22247 -1.3283,-0.62349 -3.3519,-0.50901 -4.2548,0.78423 -0.035,1.08049 2.3236,0.0534 2.8511,1.23627 1.5384,1.48091 0.9634,3.70907 1.0947,5.59037 0.2714,2.36096 2.5069,3.86093 4.6698,4.31021 1.2076,0.54318 2.1334,1.58694 3.1278,2.44803 1.2043,1.06076 0.6313,3.21254 -0.5073,4.10657 -1.2851,1.24666 -3.5261,1.41027 -4.7716,0.0169 -1.3716,-1.42768 -1.7343,-3.6032 -3.3901,-4.81094 -1.2294,-1.01599 -2.5376,-2.042 -3.152,-3.57081 -1.0408,-1.77448 -1.9533,-3.6949 -3.6322,-4.97626 -3.6039,-3.39182 -8.2917,-5.17231 -12.6035,-7.44716 -2.0465,-1.14293 -4.2082,-2.03772 -6.4142,-2.81841 -2.1582,-0.78078 -4.1368,-2.02671 -5.6255,-3.79063 -1.9343,-2.17128 -3.6011,-4.67358 -6.1477,-6.20116 -1.6303,-0.93894 -2.6023,-2.81321 -4.5318,-3.25841 -1.3906,-0.818 -2.8763,0.29572 -3.3309,1.63262 -0.8127,1.33849 0.1832,3.62802 1.9181,3.20047 1.2148,-1.02575 1.595,0.64027 0.4775,1.11799 -1.4779,0.80185 -3.2461,0.24578 -4.5594,-0.60779 -1.9778,-1.72142 -1.7722,-4.84266 -0.5544,-6.9448 1.57,-3.24735 5.3658,-4.386 7.4776,-7.1562 0.9828,-1.64064 -1.2576,0.24974 -1.9128,0.38099 -1.5008,0.34797 -2.248,1.99371 -3.8059,2.20305 -1.5049,0.29255 -3.5187,-0.57722 -4.5976,0.89713 -0.45,1.43481 -2.2901,1.26447 -3.4137,1.99462 -1.4754,-0.11934 -3.1941,1.86446 -1.3568,2.71979 2.0527,-0.98853 1.2775,2.38398 -0.4038,1.84287 -1.8212,-0.21122 -2.8204,-2.37321 -2.1071,-3.98437 0.6482,-1.3129 0.7408,-2.78748 1.2518,-4.13425 0.4731,-1.17254 2.3778,-1.72026 1.2454,-3.14529 -0.3342,-1.72208 0.4455,-3.57079 1.8405,-4.62438 1.5184,-1.21584 3.6212,-1.33001 5.4919,-1.25833 1.5091,-0.3918 2.5587,-1.87287 3.5184,-3.01264 0.5565,-1.57446 0.3804,-3.44181 1.5939,-4.74674 1.1434,-1.82426 3.893,-1.46054 4.8947,-3.41305 0.07,-0.6496 -1.5044,-0.70971 -1.9118,-0.31561 -1.0797,1.25162 -2.821,1.42886 -4.0691,2.44574 -0.914,0.11569 -1.3926,2.86129 -1.6466,0.91728 0.3924,-0.89124 -0.7567,-1.94001 -1.2187,-0.88868 1.2307,0.63426 -1.9595,1.63605 0.1853,1.60844 0.6747,0.73774 -1.8761,1.3803 -1.2202,-0.0546 -0.2362,-2.046 -1.2783,1.00536 -1.6817,1.59417 -0.7347,1.60551 -2.6104,1.83988 -4.166,1.77459 -1.3915,-0.13808 -3.2717,0.39937 -3.3129,2.04042 0.7251,0.36826 2.2339,-0.41472 1.8399,1.27738 -0.012,1.81427 -2.3877,2.06299 -3.5446,1.12582 -1.6463,-1.06543 -1.9503,-3.33809 -1.0955,-5.00755 0.7508,-2.06106 2.8338,-3.02321 4.3436,-4.4214 0.5905,-0.44804 0.6534,-1.06609 0.4703,-1.7299 -0.3061,-1.89832 -0.2743,-3.92908 0.7781,-5.61032 1.4902,-2.41599 4.0965,-3.91342 6.7881,-4.62214 1.7019,-0.52881 3.7525,-1.30787 4.3054,-3.18198 -0.1134,-1.58464 -0.6377,-3.36208 0.4284,-4.76296 1.0836,-1.27773 2.3601,-2.798 2.0537,-4.59974 -0.6559,-1.6494 -2.1282,1.09793 -3.1567,1.30392 -0.8657,0.84452 -3.9353,1.52626 -2.5715,3.07398 1.1513,2.14716 -2.3982,2.22118 -2.9872,0.49481 -0.9654,-0.59522 -0.4069,-3.21416 -1.5555,-2.80501 -1.4082,2.10993 -0.8552,4.81477 -0.3386,7.1242 0.4682,1.00546 1.6731,1.98758 0.012,2.65329 -1.126,1.03303 -1.9916,2.3185 -3.2207,3.24877 -2.7104,2.61913 -6.014,4.9732 -7.3272,8.67192 -0.8507,1.1743 -0.8166,3.44592 0.9732,1.96258 1.2136,-0.49052 2.2198,-2.20205 3.174,-2.428 0.2654,1.71987 -1.5333,2.74301 -2.7351,3.57947 -1.4666,0.85317 -2.9886,1.64266 -4.1839,2.87866 -1.926,1.82933 -4.4998,2.88315 -6.2141,4.93575 -0.7926,0.73239 -1.586,2.98155 0.3198,2.28711 1.5442,-0.25975 2.5062,-1.61111 3.7161,-2.45881 -0.3224,1.84751 -1.8162,3.61282 -3.7956,3.66823 -3.1284,0.28544 -6.4226,1.1201 -8.6613,3.47249 -1.4066,1.65954 -2.6768,3.43533 -4.1085,5.07716 -1.4697,2.10931 -2.0856,4.65831 -2.8798,7.06964 -0.4412,2.07161 -1.4142,3.974 -2.6043,5.70708 1.0085,0.65227 2.9671,-0.73996 4.2547,-1.0954 2.2301,-1.02298 4.6643,-1.55815 7.12,-1.43466 1.833,0.008 3.6665,0.26011 5.4503,0.66422 1.2873,1.17805 -1.8457,0.62068 -2.5539,0.5014 -2.9358,-0.41114 -6.0207,-0.28605 -8.7573,0.95254 -2.7122,1.15079 -5.5252,2.14509 -8.4548,2.5418 -2.3933,0.23717 -4.8513,-0.19169 -7.0676,-1.10446 -1.3908,-0.75068 -2.624,-1.80867 -4.003,-2.61206 -1.8867,-0.78647 -3.8137,0.48711 -5.323,1.52668 -1.3146,0.55542 -1.8556,2.01382 -1.9348,3.33707 -0.4224,1.44349 -1.6808,2.4494 -1.988,3.9478 -0.4322,1.50974 0.3735,3.0413 0.5136,4.55121 0.6655,4.80006 0.374,9.6815 -0.1608,14.4796 -0.1597,2.19573 -0.3781,4.39248 -0.5467,6.5834 0.197,2.30733 1.9558,3.98867 3.2531,5.75444 0.8067,1.50182 3.0254,2.04347 3.5928,3.40312 -1.017,0.30397 -3.4145,0.0536 -2.3373,1.8234 0.5935,1.40886 1.6739,2.68861 3.3272,1.86012 1.06,0.11155 2.2715,0.56727 2.3183,-0.95576 0.4225,-0.88612 3.0434,-1.83163 1.6551,-0.13226 -1.2217,0.53537 -1.2228,1.74867 -1.5473,2.76366 -0.8085,-0.0158 -1.457,-1.60858 -2.4445,-0.49704 -1.6245,1.0043 0.9352,1.93644 1.2496,3.01734 0.4893,0.93368 0.7489,2.05019 1.7791,2.54636 1.3192,-0.0936 2.7365,0.13302 3.984,-0.38272 1.8414,-0.77281 2.0033,-2.94078 2.915,-4.47069 0.6742,-1.44078 1.2636,-2.97127 0.9349,-4.58889 -0.2556,-1.57987 0.018,-3.25745 -0.4899,-4.78389 -0.9723,-0.39707 -2.7364,-1.04845 -3.4716,-0.66564 0.3706,1.65414 -2.0139,3.08794 -0.1653,4.3519 1.9426,-0.64867 1.5903,1.7416 1.7398,2.95041 0.5158,1.20837 -2.3689,2.47776 -1.814,0.64816 -1.1571,0.64138 -2.191,-0.37809 -1.388,-1.54424 0.2675,-1.05315 -0.5344,-1.91423 -0.792,-2.9065 -0.7119,-0.29385 -1.821,-1.059 -0.4594,-1.40566 1.5566,-0.42102 1.0073,-2.57809 2.4295,-3.17315 -0.012,-1.5382 -1.2399,-3.00913 -2.8331,-3.03489 -1.0091,0.0601 -1.9523,-0.62213 -0.639,-1.2716 1.2902,-0.87311 3.6643,-0.76342 3.4881,-2.94444 0.016,-1.54139 0.7186,-2.9447 0.9922,-4.42833 0.1066,-2.20162 -2.3096,-0.54877 -2.9237,0.42249 -0.7592,1.20953 -3.0974,1.91457 -3.6596,0.21233 1.0004,-0.92307 1.9608,-2.06778 1.7947,-3.57349 0.2629,-1.58257 -0.4112,-3.15245 -1.8728,-3.86571 -0.6121,-0.90699 -1.3347,-0.75627 -0.9543,0.37151 0.3544,1.69456 -0.6648,3.27953 -0.2781,4.99237 0.2072,1.76416 -0.9143,3.43311 -0.4085,5.16662 -0.043,1.25123 0.4983,3.51534 -0.8747,4.05844 -0.074,-1.45127 0.3657,-2.81853 -0.1969,-4.24395 -0.3776,-1.31468 1.102,-2.89116 -0.2344,-3.87069 -0.5328,-0.47073 0.03,-1.34936 -0.1647,-1.97761 -0.6266,-1.18158 0.9843,-2.06464 0.027,-3.11586 0.7615,-0.40859 1.9031,-1.16345 0.6208,-1.79779 0.8806,-1.31595 0.7229,-3.09809 1.9489,-4.22449 1.0503,-1.29765 1.8176,-2.77773 2.7231,-4.16678 0.012,-1.08956 2.5434,-3.14086 2.2462,-1.02038 0.056,1.25694 -1.3955,2.64615 -0.9409,3.58704 1.6405,0.56186 3.3772,0.87741 4.9307,1.69659 2.2854,1.06365 4.2859,2.75513 6.8166,3.2539 3.0464,0.87088 6.303,0.2559 9.3126,1.30328 1.6329,0.77848 3.0953,-0.32771 4.0971,-1.53596 1.6482,-1.38467 4.2129,-0.93801 5.719,-2.59425 0.8078,-0.42214 2.1359,-3.19539 2.5275,-1.19223 -0.6168,2.21044 -2.8593,3.4648 -4.9809,3.88986 -1.322,0.17996 -3.4609,1.14683 -3.007,2.67999 0.6295,-0.55152 2.3369,-1.78619 2.0409,0.0226 -0.8702,1.70964 1.2501,-0.8038 1.4028,0.88967 -0.4416,1.66154 1.9069,-0.80334 1.5577,0.98922 0.085,0.87033 -1.9484,2.10411 -1.1097,2.43418 1.0097,-0.13316 2.5393,-2.42432 3.0847,-0.88582 -1.1246,1.27494 -2.7553,2.40938 -4.5175,2.32802 -0.7502,-0.35296 -3.4671,-0.78207 -1.8198,-1.83087 0.5572,-0.18119 2.5148,-1.54335 0.8663,-0.8001 -1.3618,1.12918 -2.7667,-0.29607 -1.5688,-1.3085 -1.7013,0.30007 -2.35,-1.67945 -3.8781,-1.93192 -1.435,-0.36505 -2.976,-0.89028 -4.4495,-0.54981 1.2302,1.68871 2.9423,2.99988 4.5081,4.38254 2.5829,2.27216 5.6059,3.98607 8.8429,5.13506 5.7252,2.26203 12.0367,2.8317 18.1179,2.01893 2.0664,-0.1282 4.1439,-0.63569 6.2117,-0.36553 1.3825,-0.12463 2.0059,1.70022 0.3254,1.69026 -1.1897,1.13879 -2.66,-0.63208 -3.9504,0.0124 0.368,0.98329 1.7251,2.73181 -0.1601,3.24299 -2.107,0.51471 -1.8806,-2.49995 -3.4731,-2.83533 -0.4408,0.98259 0.7007,2.7469 1.3149,3.74197 1.0884,1.24366 2.8722,0.34255 3.5981,-0.8178 1.5937,-1.12895 3.7209,-1.15402 5.5905,-0.94765 1.7001,0.15041 2.6634,1.70548 3.4434,3.02596 0.8826,0.66414 0.1159,3.43566 1.4689,2.90467 0.5243,-2.00659 1.3622,-3.95186 1.5067,-6.04044 -0.641,-0.62878 -1.6564,-1.4268 -0.8926,-2.38307 0.5235,-1.37117 -1.0798,-3.10037 -2.1474,-1.42598 -0.7473,1.49003 -1.8436,0.35913 -1.8895,-0.77141 -1.6087,0.0453 -3.0098,-0.59101 -4.5972,-0.77609 -1.4278,0.5356 -2.5651,-0.93372 -1.3747,-2.044 0.153,-0.94117 1.7593,-2.26389 1.6088,-0.4778 -0.9132,2.27614 1.7643,-1.61612 2.1154,0.23741 -0.7788,0.9527 0.036,2.66631 1.183,1.44614 0.6551,-1.28846 1.7736,-0.90426 2.1276,0.3304 0.8313,1.16151 1.8475,-1.40287 2.8792,0.0622 0.9686,1.16248 2.414,1.96244 3.0963,3.34617 0.117,1.4025 -1.1299,2.52415 -0.9928,4.00949 -0.6378,2.1664 -1.1785,4.36165 -1.6983,6.55645 -0.5083,1.70425 -1.7877,3.02125 -2.4643,4.62252 -0.2247,1.51352 0.015,3.07699 0.31,4.56598 1.076,1.04833 2.328,1.94582 2.7412,3.54921 1.1594,0.95713 1.5136,2.29804 2.1282,3.59739 1.1579,1.76455 2.3661,3.63837 4.1811,4.79175 1.2121,0.95763 2.7809,0.68542 4.0519,1.36826 1.5256,0.92137 2.758,2.47349 2.9345,4.27948 0.1792,1.74895 -1.2027,3.097 -1.9695,4.53376 -1.8475,3.56072 -5.367,5.77004 -7.6289,9.01692 -1.0493,1.58786 -2.816,2.36812 -4.5086,3.06124 -1.5504,0.72951 -3.1148,1.75349 -3.6592,3.47663 -0.5033,1.52876 -0.9862,3.24625 -2.3349,4.2651 -1.0706,1.05618 -3.3354,1.13381 -3.7119,2.69713 0.6243,0.37426 1.9737,0.35725 0.9864,1.40285 -1.0422,1.03062 -1.4328,2.44421 -1.7422,3.83137 -0.2512,1.467 -0.916,3.08707 -0.2729,4.51755 0.9088,0.57402 2.1291,0.0477 3.1142,-0.002 z m 13.9739,-18.59909 c 0.7394,-1.51742 2.3474,-2.46488 2.684,-4.25319 0.986,-1.31656 2.3215,-2.34222 3.1954,-3.74556 0.8316,-0.58895 2.2514,-1.79916 2.759,-1.9991 -0.8188,1.03129 -1.3337,2.31519 -2.472,3.00041 -0.4218,1.54448 -1.1698,3.1695 -2.4602,4.17261 -1.2839,0.84641 -2.1936,2.75378 -3.6842,3.0177 z m 9.2428,-10.29086 c -0.7583,-0.24809 0.8458,-1.50013 1.1154,-2.00188 1.3258,-0.87454 1.7362,-2.4848 3.1646,-3.11383 1.4114,-1.05592 3.3372,-2.33316 2.9997,-4.37119 -0.4575,-0.76513 -0.2846,-2.31953 0.7224,-1.0826 0.1344,1.28203 -0.7638,2.52124 -0.5515,3.92983 -0.09,1.94469 -2.1696,2.50789 -3.0929,3.90696 -0.6161,1.55304 -2.4559,1.64907 -3.5237,2.74704 -0.2703,0.097 -0.5614,0.0298 -0.834,-0.0142 z m 6.1766,-12.03742 c -0.8257,-1.28736 1.6749,-0.008 0.2353,0.12873 l -0.2353,-0.12874 z m -9.4134,-0.84145 c -0.9166,0.11996 -2.112,-1.13446 -1.7568,-1.54148 0.2912,0.13604 3.4842,2.04927 1.7568,1.54148 z m 1.1349,-2.00049 c 0.2903,-0.43868 0.3325,0.5423 0,0 z m 1.422,-0.22955 c -0.3155,-1.18162 0.7478,-0.10471 0,0 z m -11.1591,-5.36686 c -0.4497,-1.58225 -1.8169,-2.39471 -2.614,-3.75538 -1.5685,-0.8082 0.1108,-3.30498 1.3871,-2.78661 -0.019,0.93094 0.9112,1.55104 0.8565,2.41938 -0.064,0.90183 -0.335,2.12861 0.8947,2.17201 -0.2911,0.56644 0.3268,2.46766 -0.2766,2.24421 l -0.1171,-0.12809 -0.1308,-0.16552 z m 20.4139,-7.0808 c 0.2895,-1.37028 1.7955,-2.19726 2.9567,-2.8533 1.0921,-0.38228 2.935,-1.71781 3.7373,-1.19854 -1.0384,1.37991 -2.715,1.88906 -4.1386,2.74141 -0.8,0.35808 -1.6591,1.42324 -2.5554,1.31043 z m -7.279,-0.0158 c -0.8619,-0.95769 1.3132,-1.94615 1.7855,-2.85506 1.3041,-1.06244 1.008,1.70473 -0.054,1.95637 -0.4656,0.32752 -1.0962,1.13882 -1.7317,0.89869 z m -1.1293,-2.1502 c 0.263,-1.24388 1.6618,-2.23892 2.2714,-3.45878 0.2768,-0.68575 1.4339,-1.91408 1.1788,-0.36658 -0.6159,1.5208 -1.8148,2.72939 -3.0502,3.77164 l -0.2443,0.11179 -0.1557,-0.0581 z m 10.9404,-1.41717 c 0.068,-1.27195 1.9356,-1.83505 3.0557,-2.19772 1.3186,-0.28244 2.5457,-0.98079 3.7295,-1.5029 -0.6084,1.43891 -2.2713,2.18293 -3.691,2.7017 -1.0186,0.22074 -2.1535,1.04705 -3.0942,0.99892 z m -11.3735,-0.98041 c 0.4998,-1.18662 1.6983,-2.50305 2.5247,-3.58113 0.6984,1.1852 -0.9777,2.47357 -1.7363,3.33575 -0.2089,0.13215 -0.5225,0.43416 -0.7884,0.24538 z m -1.0959,-1.34909 c 0.046,-1.14615 1.0565,-2.51802 1.5846,-3.65348 2.0876,0.0559 -0.2222,2.36226 -0.569,3.30338 -0.2178,0.33166 -0.6338,0.54342 -1.0156,0.3501 z m -1.8754,-0.54555 c -1.3506,-1.29345 1.0063,-2.82768 0.8733,-4.3091 -0.1666,-1.68876 0.3768,-3.1589 1.7714,-4.16963 0.7764,-0.80456 1.5983,-4.06047 2.8555,-2.12823 0.034,1.76795 -1.8746,2.90258 -1.8459,4.70065 0.078,1.7257 -1.1018,2.98368 -1.9916,4.31011 -0.3239,0.6389 -0.6766,1.95447 -1.6627,1.5962 z m 15.6449,-0.32145 c -1.3385,-1.18338 1.6449,-1.1588 2.3448,-1.70416 1.4831,-0.56493 3.0236,-0.94782 4.4222,-1.7185 0.8871,-0.16766 -1.0541,1.21759 -1.3965,1.49645 -1.45,1.14197 -3.3028,1.61791 -5.0853,1.9408 l -0.2844,-0.0146 z m 1.5427,-2.83769 c 0.068,-1.3528 2.3272,-1.67242 3.4211,-2.32709 0.8813,-0.18579 2.5597,-1.58175 2.7933,-1.23866 -0.9368,1.24083 -2.4365,1.87849 -3.731,2.67543 -0.7725,0.21246 -1.7473,1.09067 -2.4834,0.89032 z m -0.8014,-2.11222 c -0.156,-1.28147 2.1826,-1.58701 3.0989,-2.35471 1.551,-0.71326 2.7664,-1.90705 4.0727,-2.96202 0.7978,1.21467 -1.485,2.38334 -2.4031,3.20195 -1.3554,0.85189 -2.7251,1.76154 -4.272,2.22295 l -0.2872,0.008 -0.2093,-0.11532 v 0 z m -100.7181,-0.36004 c -0.9682,-0.52473 -0.648,-2.14122 0.4521,-1.24196 0.799,0.67533 1.0304,2.10825 -0.4521,1.24196 z m 2.8403,-1.349 c -0.8885,-0.46634 -2.0613,-1.28519 -0.4768,-1.74269 1.1721,-0.45205 2.4243,0.49022 3.7103,0.21037 -0.7549,0.82129 -1.6945,2.5743 -3.0116,1.68107 l -0.2219,-0.14882 z m 98.1438,-0.54485 c -0.9042,-1.12712 1.9847,-1.71653 2.6595,-2.50453 1.388,-0.8451 2.5591,-1.97835 3.7727,-3.04249 1.1818,0.52021 -1.0778,2.0903 -1.6416,2.7637 -1.3049,1.08494 -2.7293,2.04265 -4.2608,2.76793 l -0.2895,0.0495 -0.2403,-0.034 z m -0.3985,-2.25147 c 0.1837,-1.35553 2.2053,-1.62536 3.0749,-2.63763 1.4193,-1.10279 2.5829,-2.56627 3.0957,-4.3055 1.28,-1.2696 1.1009,2.07325 0.1768,2.54556 -1.6522,1.85691 -3.5423,3.67276 -5.9565,4.45663 -0.1272,0.0204 -0.2867,0.0394 -0.3909,-0.0591 z m -45.6566,-4.8302 c -0.7127,-0.80863 -3.2675,-0.3929 -1.542,-1.76155 0.744,-0.77711 2.0023,-2.70127 2.4195,-0.66449 0.7039,-0.43547 1.4783,-2.72879 2.0636,-0.90307 -0.1538,1.43601 -1.4419,3.19803 -2.9411,3.32911 z m -4.6458,-0.2261 c -0.7046,-1.80915 -2.9034,-0.93374 -4.3256,-1.3441 0.5566,-1.8242 2.9999,-0.3956 4.3369,-1.11083 0.9071,1.49024 1.6848,-0.31402 2.5712,-0.60649 0.6566,1.35763 -1.2975,3.13143 -2.5825,3.06145 z m 6.9656,-0.13037 c -0.012,-1.19192 1.5874,-2.36838 1.7716,-3.78517 1.4168,-0.16673 0.505,2.59657 -0.3306,3.27243 -0.306,0.47665 -0.8908,0.7967 -1.441,0.51274 z m 2.1129,-0.0841 c 1.15,-1.00659 0.9183,-3.21103 2.0845,-3.88673 1.2444,1.02114 -0.4879,2.88005 -1.2838,3.75688 -0.208,0.0833 -0.5974,0.34693 -0.8007,0.12985 z m -15.3944,-1.166 c 0.1273,-0.79539 2.1646,-1.51972 1.2595,-0.29772 -0.3265,0.28071 -0.8421,0.53273 -1.2595,0.29772 z m -2.6684,-0.33319 c 0.8167,-0.51787 2.0589,-2.60458 2.9091,-1.56157 -0.3939,0.94418 -1.868,2.09753 -2.9091,1.56157 z m -2.3263,-0.36875 c -1.5759,-0.39187 1.5221,-1.06288 1.8826,-1.80122 0.4094,-0.75443 1.8318,-1.14819 1.1635,0.1407 -0.5194,1.09128 -1.8272,1.92867 -3.0461,1.66052 z m 32.2824,-0.46618 c 0.065,-1.24241 1.4759,-2.0512 2.1281,-3.07588 1.0885,-1.75386 1.7999,-3.76062 2.1801,-5.7777 1.0253,0.56583 -0.07,2.68068 -0.3983,3.76452 -0.7824,1.8201 -1.8784,3.51964 -3.1652,5.02089 -0.1907,0.16802 -0.548,0.31838 -0.7447,0.0681 z m 2.6556,-0.45475 c 0.1827,-1.51553 1.9663,-2.58763 2.3393,-4.18272 0.6749,-1.09636 0.5042,-2.99351 1.4407,-3.69101 0.402,1.31936 -0.3862,2.77577 -0.7915,4.06252 -0.679,1.40815 -1.3076,3.01339 -2.6236,3.94525 l -0.1846,-0.007 -0.1803,-0.12866 z m -4.9146,-0.42818 c 0.7645,-1.20781 1.9696,-2.13872 2.5823,-3.47435 0.9434,-1.56817 1.55,-3.31362 1.9622,-5.08854 0.9024,-0.26413 0.3948,2.0911 0.2145,2.80079 -0.5217,2.41023 -2.2179,4.44377 -4.2785,5.72381 -0.101,0.0234 -0.3687,0.19627 -0.4805,0.0381 z m 9.2189,-0.11276 c -0.6692,-0.0647 -2.4494,-0.36585 -0.9951,-0.98332 1.194,-0.27775 1.3812,-3.06191 2.5567,-2.33422 -0.1699,1.01176 -0.1381,2.21561 -0.614,3.02733 -0.2571,0.17569 -0.6232,0.44684 -0.9476,0.29021 z m -11.9458,-0.20096 c 1.0349,-1.27374 2.5762,-2.27768 3.3413,-3.81541 0.8993,-1.60197 1.2626,-3.43844 1.8105,-5.14668 1.2787,0.64658 0.4829,2.54932 0.2277,3.63831 -0.857,2.33135 -2.6054,4.37557 -4.8755,5.41271 -0.1579,0.0466 -0.398,0.0827 -0.504,-0.0889 z m -1.7508,-0.56418 c 0.4615,-1.34225 2.0787,-2.42458 2.6289,-3.89854 1.0001,-1.20558 0.4869,-3.39145 1.3564,-4.26351 1.124,0.91137 0.2426,2.72066 -0.1713,3.85539 -0.7766,1.64871 -1.8907,3.18153 -3.3593,4.27647 -0.1134,0.0865 -0.3368,0.1581 -0.4547,0.0301 z m -0.5248,-1.9686 c 0.8331,-1.25229 1.7831,-2.478 2.2804,-3.93714 0.9496,-1.57298 0.8359,0.87357 0.3122,1.47161 -0.4754,1.05381 -1.1626,2.71029 -2.5926,2.46553 z m -0.5057,-1.34855 c 0.5571,-0.7511 1.1611,-2.4789 1.9442,-2.52168 -0.3644,0.87558 -0.9665,2.40432 -1.9442,2.52168 z m -23.3218,-2.18332 c 0.3667,-1.14837 -1.8584,-0.22955 -0.593,-1.39782 0.2606,-0.42943 1.9197,-2.0423 1.7104,-1.37373 -0.6121,0.94381 0.1813,3.0527 -1.1321,3.13236 l -5e-4,-0.1625 0.015,-0.19852 z m 82.6969,-1.76958 c 0.2764,-1.53697 1.6383,-2.66531 1.8865,-4.2427 0.625,-2.06524 -0.192,-4.13685 -0.4837,-6.16391 1.0267,0.50648 1.4198,2.15687 1.5882,3.31842 0.052,1.9105 -0.09,3.89144 -0.7596,5.69231 -0.401,0.62037 -1.4151,1.9393 -2.2314,1.39588 z m -0.4231,-2.23744 c -0.2756,-1.42842 0.5844,-2.88339 0.5385,-4.36259 0.3435,-1.60461 -0.5504,-3.01788 -1.0318,-4.46784 -0.2869,-0.9852 0.3739,-1.48716 0.7512,-0.3444 1.3769,1.91791 1.6606,4.54665 1.0639,6.8002 -0.3383,0.71569 -0.468,2.18958 -1.3218,2.37463 z m 4.1792,-1.09115 c 0.8824,-2.29121 0.1536,-4.74793 -0.2398,-7.06095 -0.3246,-1.49867 -1.0138,-2.8815 -1.9706,-4.07094 -0.2978,-1.2705 1.896,0.645 2.1444,1.31563 1.1828,2.63081 1.5052,5.63082 1.0409,8.46753 0.14,0.20884 -1.2692,2.46487 -0.9749,1.34873 z m -128.2546,0.0545 c -0.9101,-0.25667 -0.9551,-2.65862 0.1146,-1.24741 1.0078,0.19321 1.1281,1.86083 -0.1146,1.24741 z m 122.8315,-1.34379 c -0.4929,-1.54816 -0.1649,-3.33913 -1.0416,-4.81722 -0.2688,-1.42741 -2.3553,-2.45863 -2.5083,-3.4158 1.715,-0.17767 2.9861,1.4722 3.7373,2.81679 0.8168,1.574 0.9823,3.44573 0.7171,5.17859 -0.07,0.42734 -0.6242,0.58251 -0.9045,0.23764 z m -2.5866,-0.0621 c -0.9186,-1.19534 -0.9881,-2.80703 -2.0441,-3.84938 -0.5995,-1.01332 -2.2878,-1.71421 -2.5408,-2.59345 1.6229,0.31518 3.2334,1.20454 4.0623,2.69528 0.4804,1.05709 2.2337,3.01886 1.0641,3.91486 -0.1921,0.0323 -0.4076,-0.0176 -0.5415,-0.16731 z m -93.2842,-1.97463 c -2.4306,-0.3241 -4.9936,-0.31777 -7.2219,-1.47785 -2.2746,-0.60647 0.9088,-1.35219 1.8377,-0.83186 2.0992,0.0389 4.1021,1.04579 6.2029,0.86329 1.358,-0.61649 2.7491,-1.14838 4.2259,-1.42794 1.3968,-0.0881 2.6309,-2.17662 3.4197,-0.0473 1.2628,-0.12223 2.5524,0.91053 3.211,1.47638 -1.463,1.00325 -3.0403,-0.50905 -4.4946,0.14511 -1.0535,1.30279 -2.8432,0.14088 -4.1162,0.97367 -0.9561,0.45125 -2.0348,0.52514 -3.0645,0.32659 z m 16.9815,-5.57923 c -0.6852,-1.15563 -0.012,-4.04966 1.7049,-3.34138 0.5989,0.58506 -1.1216,1.20433 -0.7726,2.09714 0.043,0.52191 -0.1235,1.95841 -0.9323,1.24424 z m -36.5742,0.17201 c -0.5718,-0.97755 1.2147,-1.79742 0.5931,-0.35865 -0.045,0.17877 -0.4013,0.80575 -0.5931,0.35865 z m 68.7465,-2.90573 c -0.8502,-0.0202 -1.0366,-0.4055 -1.2175,-1.09651 -0.8172,-0.0678 -1.0073,1.40393 -1.1316,-0.0349 -0.046,-0.90614 -0.9884,-1.41565 -1.2747,-0.29605 -0.4884,-0.63709 0.4236,-3.27981 -0.9943,-1.95386 -0.4148,0.0555 0.2526,-1.43563 -0.03,-1.88873 1.5653,0.26975 1.9056,2.24948 3.0351,3.17661 0.272,0.95533 1.8608,1.72024 1.9209,2.21518 l -0.3088,-0.12166 h -10e-5 z m 36.6299,-0.34796 c -1.4215,-0.19849 -2.8753,-0.50713 -3.9235,-1.59455 -1.0891,-0.80448 -2.301,-1.99903 -2.5569,-3.25552 1.3807,0.51622 2.4366,1.60361 3.4694,2.59468 0.9658,0.7771 3.5927,1.17083 3.4521,2.38865 l -0.1874,-0.05 -0.2537,-0.0834 z m -7.5823,-1.9102 c -1.889,0.10581 -3.1188,-1.76038 -3.9285,-3.21964 -0.8727,-1.72136 1.2627,-1.27779 1.7076,-0.16823 0.883,1.25041 3.0195,0.69255 3.2421,2.60597 1.2555,1.33033 -0.1244,0.70427 -1.0212,0.7819 z m 17.8512,-0.38138 c -1.2504,-1.02493 -3.1652,-0.35149 -4.3555,-1.53461 -0.832,-0.30263 -1.4657,-2.5656 -0.1287,-1.36403 1.3516,0.949 3.1509,0.89279 4.4843,1.76852 0.5108,0.27825 1.2564,2.22506 -6e-4,1.13011 z m -67.2436,-1.20104 c -0.9216,-0.0891 -1.2688,-1.47371 -0.02,-0.92143 0.7808,-0.20019 3.0215,0.90577 1.1468,1.02874 -0.3778,0.004 -0.7593,-0.0171 -1.1272,-0.10723 z m 14.2007,-0.93401 c -0.5237,-0.61789 -1.8087,-2.68024 -0.7597,-2.85908 0.3391,0.78754 2.0721,2.77739 0.8647,3.05888 l -0.1044,-0.19974 z m -11.4748,-0.33104 c -2.1527,-0.93131 1.8114,-1.23311 0.9226,0.0488 -0.3007,0.098 -0.6255,0.0221 -0.9226,-0.0488 z m 2.1983,-0.54703 c -1.7404,-1.98066 2.3678,0.19673 0,0 z m 43.8354,-5.9424 c -1.676,-0.88808 -3.614,-2.17596 -3.7802,-4.25063 -0.2715,-2.0374 1.1964,0.85331 1.728,1.23152 0.5156,1.25455 2.9894,1.51661 2.7999,2.82739 -0.1822,0.23608 -0.4672,0.36963 -0.7477,0.19172 z m -8.1372,-4.41502 c -0.7949,-1.42506 -1.3061,-3.04731 -1.5637,-4.65695 0.074,-2.50561 0.1227,-5.40411 2.0765,-7.25397 0.258,1.33612 -0.8415,2.86292 -0.8062,4.33657 -0.3718,2.05344 0.098,4.12058 0.9227,6.00629 0.4843,0.70516 0.8204,2.14755 -0.6293,1.56806 z m 2.1929,-0.37962 c -0.8146,-1.70645 -1.4099,-3.64509 -0.9096,-5.54099 0,-0.78207 1.11,-2.53278 0.7497,-0.69379 -0.1361,1.9174 -0.3102,3.92359 0.45,5.74202 0.1171,0.23032 0.1688,1.03804 -0.2901,0.49276 z m -51.77,-3.41764 c -1.1142,-0.49593 -2.4071,0.0331 -3.5938,-0.5255 -2.0177,-0.22457 1.201,-1.46118 1.4513,-2.3926 0.3126,-0.67662 1.1948,-2.48955 1.3271,-0.72652 0.2584,1.096 -1.455,2.12723 -1.1919,2.77721 0.9419,-1.101 2.2557,-0.2511 3.2172,-1.20778 0.6848,0.76496 -0.054,2.42495 -1.2099,2.07519 z m -7.0518,-1.07352 c -1.3412,-0.50152 1.5956,-0.61988 1.8343,-1.3391 1.0826,-0.37477 1.5558,-1.7719 2.4339,-2.11502 -0.088,1.39427 -1.0398,2.87411 -2.4208,3.34856 -0.5834,0.2137 -1.2478,0.31702 -1.8474,0.10558 z m 23.4344,-10.92736 c -0.4322,-0.1915 -1.9216,-0.45608 -0.5859,-0.69287 0.4274,-0.26166 1.6055,1.42776 0.5859,0.69287 z m -33.4222,103.46382 c 1.8629,-0.26045 3.7869,-0.0879 5.616,-0.52973 1.4943,-0.81784 1.5222,-2.72951 2.102,-4.14404 0.6766,-1.5494 0.8192,-3.21231 -0.3646,-4.55263 -0.4902,-1.75857 3.4334,-1.41399 2.0704,-3.30136 -0.5815,-0.57902 -2.3752,-2.25053 -0.4353,-1.97766 1.7247,-0.0147 2.306,1.90976 3.0742,3.11401 0.7842,1.02894 2.0584,2.86862 3.4665,1.65327 1.4523,-0.0605 2.9563,0.31152 4.4068,-0.11215 1.5475,0.47066 3.1029,-0.41839 4.6719,0.15411 1.4598,0.59364 2.7198,-0.7638 4.116,-0.11496 0.983,0.18552 2.0186,-0.16129 2.9827,0.004 1.3234,0.53069 2.8416,1.44208 4.2207,0.57301 0.6487,-0.75622 1.6057,-1.47417 1.903,-2.43258 0.039,-1.75747 -0.099,-3.52903 0.1099,-5.2752 0.5141,-1.46185 1.7739,-2.52642 2.0659,-4.09356 0.8352,-1.92518 -0.5101,-4.07608 0.5307,-5.95336 0.5622,-1.25509 2.4488,-2.76399 1.3548,-4.16935 -0.6765,-1.45646 -2.0572,-2.32958 -2.6906,-3.74236 -0.829,-1.29938 -2.5714,-1.86678 -3.9174,-2.29446 -1.4779,0.59105 -2.7703,1.70625 -4.427,1.82073 -1.2671,0.64611 -2.6002,-0.99848 -3.519,-0.44715 -1.052,2.74982 -0.8763,5.77118 -0.8463,8.66537 0,2.39834 0.5772,4.82671 0.1158,7.20355 -0.5144,1.44846 -2.0008,2.42237 -3.5482,2.14961 -3.1725,0.12791 -6.3175,-0.41954 -9.3769,-1.2155 -2.7089,-0.41146 -5.5757,-0.69052 -8.2339,0.12568 -2.7841,1.21498 -3.9184,4.38241 -6.3546,6.06077 -1.3835,1.0153 -3.3535,2.13099 -3.2512,4.10559 0.042,1.98452 0.1387,3.98286 -0.2876,5.93754 -0.3544,1.37412 -0.1523,3.29269 1.7361,2.92664 0.9052,0.0223 1.8096,-0.0527 2.7096,-0.13882 z m 3.0309,-1.81191 c -1.0548,-1.08399 1.4814,-1.49677 0.5877,-0.0889 -0.1251,0.189 -0.4124,0.23678 -0.5877,0.0889 z m 0.5473,-3.43306 c -0.4061,-0.95495 1.403,-1.92499 -0.033,-2.70016 0.9722,-0.57466 2.6103,1.89393 1.1589,2.8064 -0.3243,0.18049 -0.8931,0.27015 -1.126,-0.10624 z m -2.8329,-0.46943 c -1.0387,0.17325 -2.7728,-0.44334 -1.6155,-1.63206 0.9165,-1.27063 4.6057,-1.04511 3.2295,1.10513 -0.3261,0.53055 -1.0532,0.6144 -1.614,0.52693 z m 30.7497,-5.80999 c -1.3701,-0.0376 -0.955,-1.42396 0.2562,-1.06602 1.1525,-0.0743 0.559,-2.17983 2.1054,-1.65322 0.8815,-0.19133 2.9342,-0.62632 2.5526,0.94243 -1.5574,0.72016 -3.0976,2.01806 -4.9142,1.77681 z m -15.3458,-0.64725 c -1.2912,-0.0171 -1.2339,-1.62432 0.086,-1.01071 1.4979,0.13131 3.5579,-1.09102 4.6589,0.3226 -0.8709,0.75393 -2.7033,0.35067 -3.9173,0.73952 -0.2759,0.002 -0.5553,0.004 -0.8267,-0.0514 z m 20.1636,-8.01372 c -0.5351,-0.82042 1.365,0.60661 0,5e-5 z m 1.1223,-0.90607 c -0.5433,-0.13071 -2.8435,-2.00497 -1.2191,-1.21993 0.5597,0.21836 3.1715,0.78022 2.0271,1.32846 -0.2719,-0.009 -0.5443,-0.0411 -0.808,-0.10866 z m -4.7457,-0.9062 c -0.043,-0.89351 -0.2812,-2.17014 -0.3214,-2.80161 2.0133,-0.31641 2.2236,3.47384 0.3215,2.80161 z m 1.0122,-3.58513 c -0.9245,-0.29835 -1.4941,-0.83601 -0.7652,-1.73313 -0.1686,-1.68361 0.8407,0.11081 1.6011,0.35981 1.5418,0.61653 0.4626,2.62475 -0.8359,1.37332 z m -3.7025,-0.75817 c -1.6264,-1.08893 2.1419,-0.0238 0,0 z m 5.5626,-1.69845 c -0.7478,-0.6385 -2.0402,-2.15658 -1.7166,-2.91124 1.4812,0.11227 3.082,1.46818 2.7542,2.96033 -0.3083,0.22625 -0.7374,0.13934 -1.0376,-0.0491 z m 3.4932,-0.45406 c -1.7854,-0.57876 -2.7807,-2.05098 -3.8974,-3.42811 -1.3764,-0.68664 -0.4037,-2.25367 0.7857,-1.29054 1.35,0.90979 2.2647,2.27358 2.6828,3.81165 0.3985,0.19968 1.5249,1.76006 0.4289,0.907 z m -9.1046,0.1984 c -0.6157,-0.99777 1.5229,0.2167 0,0 z m 9.8377,-1.27267 c -1.1116,-1.09648 -1.5714,-2.58466 -2.3839,-3.8703 -0.3496,-0.5508 -2.5187,-0.87392 -1.369,-1.6208 1.8158,-0.11398 2.9234,1.59498 3.5032,3.08805 0.3594,0.40174 1.3211,2.91545 0.2497,2.40305 z m -10.3965,-0.0513 c -0.403,-1.19498 2.0769,0.42248 0.2716,0.11008 l -0.2714,-0.10976 z m 0.1822,-4.42069 c -1.7909,-0.6726 1.2187,-1.30103 1.13,-0.18488 -0.3321,0.24661 -0.7408,0.28296 -1.13,0.18488 z m -37.6655,-42.02266 c 0.7777,-1.28484 0.9608,-2.8375 1.4091,-4.25163 -0.516,-1.32048 -2.5277,-2.4133 -1.42,-4.01723 0.4672,-1.19298 -0.7201,-0.86037 -0.5325,0.13407 0.035,0.94516 -0.8535,1.85988 -1.158,0.51966 -0.3571,0.53769 -1.1813,1.72513 -0.5532,0.33094 1.1299,-1.13757 -0.5134,-3.5373 1.4451,-3.88584 0.3134,1.0787 1.1493,2.18471 1.9812,2.987 -0.3276,1.74746 1.8366,1.31561 1.8263,-0.22049 0.8083,-1.94818 2.6759,-3.18541 3.5672,-5.06856 -0.117,-1.98532 -1.9773,-3.12834 -3.1748,-4.48875 -1.6461,-1.69179 -3.4587,-3.20949 -5.405,-4.53861 -1.9062,-1.77167 -2.1039,-4.53965 -3.0941,-6.81815 -0.211,-1.96274 -2.3189,-1.57488 -3.7407,-1.55166 -1.4242,-0.0236 -2.9453,0.0371 -4.0758,1.02959 -2.1006,1.35669 -3.8691,3.16296 -5.994,4.49258 -1.3318,0.92218 -2.3687,2.3196 -4.0688,2.56044 -2.1973,0.96682 -4.6643,0.71915 -6.9293,1.38062 -1.6817,0.52306 -2.4559,2.18586 -2.7081,3.7952 -0.3855,1.85393 -1.9033,3.11482 -3.47,4.00088 -1.6037,1.17254 0.5668,1.80347 1.6117,1.30745 0.5078,1.34351 -2.5247,2.00833 -1.5948,3.79915 0.2519,1.8572 0.139,3.75536 -0.4746,5.53319 -0.5389,0.9415 -0.3258,2.67083 1.0681,1.78682 1.9235,-0.8021 3.8403,-1.76163 5.4731,-3.0298 1.3327,-0.74665 3.2694,-1.30246 3.6598,-2.96924 -0.1302,-1.67049 0.7847,-3.03478 1.6225,-4.37532 0.9468,-0.50721 1.7465,-1.23546 0.8739,-2.31942 -0.6437,-1.52438 -0.2402,-3.34149 1.0365,-4.41335 1.259,-0.96079 0.08,1.60604 0.1577,2.22495 0.059,1.79327 1.5404,3.09129 2.3451,4.58978 1.0931,0.88848 0.5827,2.64304 1.2734,3.49058 1.5129,-0.78644 2.0882,-2.73808 1.6138,-4.32419 -0.4123,-1.32394 -1.4446,-3.04717 -0.593,-4.28955 0.1597,1.51451 1.0596,2.67144 2.1657,3.66307 1.9508,-0.40677 0.9226,-3.04132 0.8116,-4.44416 -0.1715,-1.63053 -0.1158,-3.87119 1.6307,-4.63641 0.8369,0.23148 -0.2094,1.61039 -0.2625,2.35745 -0.1475,0.99312 0.3648,2.02357 0.1628,3.0406 -0.3531,0.76542 0.3279,2.05289 0.6534,0.59331 0.3521,-1.69982 -0.4691,-3.78772 0.8774,-5.17442 1.0892,-1.32121 3.1302,-0.97639 2.695,1.02118 -0.2657,0.4502 0.09,1.85158 -0.6444,1.68393 -1.4152,-0.0513 -1.2969,2.0289 -0.3009,2.57663 -0.3124,0.5884 -1.2283,2.33934 0.4279,2.45573 0.8266,0.5198 3.1876,-1.73368 2.4552,0.10262 -0.8313,1.79375 -0.9115,4.05143 0.2835,5.70596 1.7006,2.54097 4.0749,4.54405 5.7825,7.08542 0.3051,0.28445 0.8254,1.09505 1.2843,0.56797 z m -1.0766,-4.3878 c -0.3881,-1.59662 1.0335,0.29241 0,0 z m -28.0736,-4.80964 c -2.066,0.059 -0.7944,-2.5649 0.6789,-2.1469 0.6035,-0.96098 1.6016,-1.06017 1.189,0.37555 -0.1783,0.81246 -0.9252,1.8784 -1.8679,1.77135 z m -4.6239,-0.54654 c -1.147,-1.55955 1.5162,-1.92392 2.6015,-1.84188 0.9779,1.22649 -1.6725,1.42847 -2.3512,1.93469 l -0.2503,-0.0927 z m 30.5637,-1.41281 c -1.1264,-0.72973 0.142,-2.74995 0.7436,-0.99894 0.4251,0.52189 -0.022,1.65492 -0.7436,0.99894 z m -0.7447,-2.64056 c -0.3622,-0.70743 0.3628,-1.85869 0.2022,-0.54369 -0.012,0.13029 0.2517,0.97497 -0.2022,0.54369 z m -21.7059,-5.77205 c 1.0304,-0.89956 2.5226,-1.57772 3.8433,-2.1389 1.6105,-0.85426 3.0724,-1.95961 4.7429,-2.69343 0.473,-0.60627 1.9382,-1.27833 0.8786,-0.0631 -0.7833,1.38985 -3.0103,0.52726 -3.5739,2.35525 -0.835,1.20925 -2.7009,0.76568 -3.6179,1.90668 -0.6393,0.31379 -1.599,0.64593 -2.273,0.63339 z m 19.4558,-9.19868 c -0.6971,-0.18707 -2.7949,0.43354 -1.2888,-0.64051 0.6055,-1.20904 3.127,1.02358 1.2888,0.64051 z m 48.8167,26.52498 c -1.0408,-1.36666 -1.0783,-3.42707 0.3334,-4.6207 1.1046,-1.15793 2.846,-1.44687 4.3223,-0.8946 1.6823,0.62764 3.8732,0.60376 5.0504,-0.95604 0.995,-1.00825 1.3653,-3.05905 2.5289,-3.55512 0.5607,0.6633 0.9997,3.2738 2.0071,2.56351 0.5972,-1.33087 0.5374,-2.86016 0.135,-4.23135 0.1898,-1.39629 0.6974,-2.75984 0.9436,-4.1643 0.4136,-1.67458 1.2747,-3.24621 1.2533,-5.00804 -0.09,-1.07142 1.0554,-2.06282 1.4268,-0.53347 0.1355,0.82466 1.6756,2.35439 2.055,1.3303 -1.2441,-1.47907 -0.9803,-3.52804 -0.4849,-5.24981 0.475,-1.98824 1.9207,-3.69104 1.9563,-5.77997 -0.1762,-1.41365 -0.8299,-2.88548 -0.706,-4.25923 1.0319,-0.30962 2.3874,-0.97353 1.1612,-2.04408 -1.5722,-2.54086 -1.034,-5.62004 -1.1263,-8.44904 0.1634,-1.78099 -1.019,-3.3918 -2.5486,-4.18717 -1.4825,-1.22868 3.2329,-0.30607 1.5636,-1.97918 -1.2404,-0.86399 -2.5067,-1.67776 -2.9485,-3.16166 -1.2287,-0.7519 -2.7515,-1.28081 -3.6701,-2.37732 1.329,-0.0994 2.7455,-0.0864 3.8988,-0.0152 1.1534,0.0711 2.4756,-0.45306 1.4294,-1.54866 -1.4639,-1.45607 -3.7503,-1.3441 -5.4917,-2.32713 -1.4707,-0.60138 -2.4929,-1.85751 -3.1515,-3.2633 -0.8147,-1.95654 -2.7569,-3.27874 -4.8593,-3.40352 -1.1641,0.10053 -3.5435,-0.61932 -1.2048,-1.28737 1.549,-1.65571 -1.6367,-2.05323 -2.7386,-1.47308 -1.9859,0.31697 -4.0394,0.9909 -6.05,0.53846 -1.7131,-1.36138 -1.2552,1.91429 -2.5129,2.38089 -0.7849,0.96886 -2.4596,-0.011 -1.1639,-0.92737 0.5441,-1.47695 -0.04,-3.1744 -0.8349,-4.46231 -1.0536,-1.42584 -2.6442,-2.54959 -4.3934,-2.87981 -0.1712,0.39985 0.9233,0.89948 -0.3233,0.85589 -0.9842,0.99713 -1.0574,2.74733 -1.1901,4.11971 0.1134,1.5847 0.9915,2.98287 2.2654,3.90463 0.879,0.33258 1.0689,0.93405 -0.1109,0.88871 -1.6359,-0.036 -2.3393,-2.48636 -3.3916,-2.6134 -0.3722,0.80452 1.6068,2.85643 -0.1799,2.10623 -0.6199,-0.14438 -1.22,-0.84537 -1.8309,-0.75939 -1.9216,0.59989 0.2166,1.90312 1.1424,2.3334 1.9975,1.10763 4.1348,2.60864 6.5354,2.27764 1.1802,-0.0141 1.8594,-2.21944 2.8969,-1.11464 0.2036,-0.66857 -0.486,-2.21225 0.7033,-1.13118 1.0733,0.87714 0.7569,2.8188 -0.5525,3.25329 -1.3778,-1.37642 -2.6139,0.65731 -3.2574,1.86006 -0.7264,1.72625 -0.8892,3.69716 -0.5388,5.52957 0.5922,1.13138 1.6386,-1.19337 2.6169,-1.17074 1.4317,-0.85408 3.3725,-1.2771 4.1432,-2.90137 1.4256,-1.18386 2.0182,1.92752 2.0374,2.97227 0.2762,1.53337 -0.6417,3.41352 0.2165,4.73203 1.2499,-0.67295 2.3992,-1.59093 3.6472,-2.30781 1.5882,-0.94094 3.1909,-2.85611 2.4981,-4.80658 -0.3349,-0.57938 -1.4001,-1.64912 0.087,-1.28713 1.6452,0.38683 2.405,2.03304 2.5953,3.56995 0.4403,1.83843 0.5578,3.9529 -0.7261,5.50279 -0.9047,1.18125 -2.0314,2.52188 -1.5068,4.12167 0.6715,1.62363 0.013,3.46852 -1.4977,4.34912 -2.4517,1.67323 -5.758,1.70332 -7.9168,3.88316 -2.0345,1.58853 -2.8991,4.3606 -2.3022,6.8491 0.5423,1.80829 -1.2279,2.96243 -2.4666,3.87518 -1.5476,1.04488 -2.8968,2.56557 -3.0816,4.49941 -0.3218,1.2028 1.4794,3.30107 2.3498,1.9572 -1.845,-0.40409 -2.2971,-3.02805 -0.5354,-3.99012 1.5822,-1.13735 3.6538,-0.49524 5.4343,-0.9176 2.0053,-0.85192 1.5037,-3.81022 3.4985,-4.64101 1.7394,-1.04893 3.8698,-0.48258 5.6845,-1.21562 1.3966,-0.57636 1.8137,-2.62619 3.5426,-2.46908 1.5678,-0.19132 3.3538,-0.95499 3.9827,-2.50813 1.0531,-1.52814 -0.1329,-3.15135 0.3042,-4.6587 -0.205,-1.13204 0.771,-1.34897 1.0036,-0.2228 0.8816,2.75497 -0.2019,5.6752 -1.3946,8.16184 -1.0324,1.77738 -2.3808,3.57823 -4.4305,4.21777 -1.734,0.57488 -3.0809,2.32987 -2.9707,4.18427 -0.015,1.64909 -1.1664,2.87809 -2.3606,3.8551 -0.9858,1.55533 -2.7906,1.64274 -4.4438,1.57296 -2.1002,0.004 -4.2256,1.43686 -4.5351,3.60516 -0.4975,1.42339 1.8508,2.994 -0.3191,3.83466 -1.148,0.51702 -2.0255,3.38198 -0.03,2.86416 1.7093,-0.25528 1.1444,-2.74195 2.4379,-3.07223 1.9767,0.87748 2.1041,-2.45809 4.0465,-1.90092 1.2945,0.33741 2.6838,0.27753 3.9961,0.19573 0.9416,-0.49107 1.9641,-0.84519 2.6348,-1.72449 0.9596,-1.04551 1.5226,-2.39881 2.6242,-3.33566 0.699,-0.67094 2.2955,-2.48258 2.9711,-1.24621 -1.1258,0.91244 -2.0081,2.22182 -1.9868,3.73903 -0.1501,1.78203 -0.7293,3.61504 -2.196,4.75484 -2.2455,2.18839 -5.5769,3.40875 -6.8331,6.4832 -0.5217,1.47012 -1.1975,3.18352 -0.3797,4.67831 0.2169,0.2781 0.836,1.14063 1.2126,0.63246 z m 2.0001,-6.70183 c 0.1427,-1.55733 2.8961,-1.77267 4.2682,-2.03799 1.9299,0.42918 2.5796,-1.46394 2.7251,-2.9769 0.2651,-0.86816 1.5941,-1.87171 1.141,-0.20595 -0.1398,1.42124 -0.069,3.44848 -1.7923,3.89708 -1.7787,0.22386 -3.626,0.30379 -5.2617,1.14024 -0.3374,0.12118 -0.7149,0.32724 -1.0803,0.18352 z m -8.3618,-6.54881 c 0.1841,-1.10533 -0.3874,-2.22439 -0.4096,-3.18386 0.1809,-0.55655 1.0431,-1.72718 0.5708,-0.40077 -0.096,1.20425 2.0963,2.06003 0.3796,3.03882 -0.2526,0.0601 -0.2394,0.76721 -0.5408,0.54581 z m 5.6493,-5.26198 c -0.7508,-0.0279 -1.8053,-0.29387 -0.3878,-0.46585 0.6337,-0.12201 2.7652,-1.97617 1.8971,-0.40104 -0.1183,0.80194 -0.7453,1.19221 -1.5093,0.86689 z m 4.4905,-0.95968 c -0.1982,-0.95588 0.6969,-2.4991 -0.9322,-2.71249 0.327,-0.95598 1.3698,-1.73883 0.8185,-2.92486 -0.035,-0.70202 1.9664,-2.64413 0.9131,-1.09583 -0.4683,1.38035 0.5041,2.90643 0.1478,4.38296 1.2936,0.71211 0.1122,2.76172 -0.9472,2.35022 z m 10.114,-3.953 c -0.3058,-1.1652 0.8333,-2.53478 -0.8536,-3.01451 0.7067,-1.24507 2.8559,-1.8229 2.9477,-3.5082 1.6001,-0.90362 1.4145,2.27835 0.4218,2.98908 -1.1033,0.97334 -1.0417,3.10836 -2.347,3.61514 l -0.1689,-0.0814 v 0 z m -19.1169,-6.84723 c -1.6523,-1.06412 -1.6823,-3.46601 -0.9977,-5.11121 1.2709,-2.11656 3.6517,-3.24663 5.9813,-3.77588 2.2426,-0.74684 4.2976,-2.41628 5.2573,-4.57841 0.013,-1.32095 -0.311,-2.69471 0.08,-3.97315 0.3644,-0.94797 1.5308,-1.75451 2.3146,-1.96564 -0.2562,0.98761 -1.0522,1.51025 -1.265,2.76803 -0.2128,1.25778 0.384,3.34922 -0.8335,4.57456 0.3015,1.11843 1.6258,-0.93283 1.5641,-2.1303 -0.063,-1.19747 -0.3515,-3.62904 1.124,-2.21853 0.012,1.38399 0.2226,2.89592 -0.2849,4.23231 -0.603,1.5024 -2.0477,2.17448 -3.4916,2.63613 -1.7461,1.04012 -3.7018,1.60204 -5.6303,2.19389 -1.512,0.62774 -2.9542,1.73282 -3.686,3.21342 -0.418,1.23034 -0.2559,3.36915 1.5228,3.12431 0.9975,0.5526 -1.0894,1.50388 -1.6559,1.01047 z m 21.5325,-2.90169 c 0.5751,-1.2148 1.5825,-3.02929 0.4494,-4.13401 -0.8446,-0.70344 1.4599,-1.57092 1.778,-2.35191 0.5116,-0.74482 1.1838,-0.83791 0.738,0.24262 -0.9678,1.41813 -0.7436,3.04777 -0.8951,4.60826 -0.511,0.59752 -1.2225,1.67924 -2.0703,1.63504 z m 0.6113,-7.64232 c -1.3181,-1.08254 0.706,-2.81255 -0.2654,-4.20943 -0.2052,-0.78201 -0.1258,-3.20512 0.9907,-1.7478 0.3187,1.46619 1.0896,2.90275 1.2294,4.41235 -0.2058,0.7328 -1.0435,2.09068 -1.9547,1.54488 z m -2.4311,-10.59223 c -0.6689,-1.23853 2.1336,-0.86443 0.7011,0.0343 -0.2141,0.12245 -0.5022,0.12032 -0.7011,-0.0343 z m -2.5212,-2.80138 c -1.088,-1.33506 -1.3058,-3.16418 -2.2669,-4.59217 -0.7136,-1.46707 -1.8727,-2.6463 -3.3979,-3.24962 -0.5417,-1.08681 1.9406,-0.21335 2.4326,0.28393 1.3134,0.93192 1.9076,2.51345 2.8055,3.79534 0.5971,1.30776 1.3894,2.88096 1.4982,4.17827 -0.4234,0.11204 -0.803,-0.0994 -1.0715,-0.41575 z m -14.0734,-6.84718 c -0.1033,-0.80084 0.1728,-2.48355 0.3737,-0.76115 0.2996,0.47733 -0.2665,2.89652 -0.3809,2.10326 0,-0.44737 0,-0.89473 0.012,-1.34211 z m -1.8528,0.95032 c 0.3367,-0.73261 -0.1098,-2.7771 0.4238,-2.75947 0.9806,0.79773 1.3675,3.37397 -0.4429,2.95416 l 0.02,-0.19469 z m 9.0073,-3.22684 c -0.6186,-1.0556 -2.5557,-1.10985 -2.7271,-2.29684 1.2765,-0.21649 2.6362,1.08863 3.3262,2.04574 0,0.31879 -0.3559,0.44252 -0.5991,0.2511 z m -4.1587,-2.83427 c -1.1791,-0.18641 -0.7991,-1.62927 0.2564,-0.833 0.7179,0.42644 1.0058,1.60488 -0.2564,0.833 z m -10.7395,-2.48019 c -0.012,-0.77256 0.2265,-2.08659 0.6533,-2.51319 0.8562,0.40264 -0.3445,4.26063 -0.6533,2.51319 z m -1.148,-4.18849 c -0.5906,-0.44115 -2.2631,-2.19426 -0.4621,-1.4198 0.5798,-0.0144 1.5365,2.17374 0.4621,1.4198 z m 10.1588,60.89614 c 1.8907,-0.86307 -2.102,-1.43628 -2.0567,0.008 0.5948,0.39397 1.4185,0.17752 2.0567,-0.008 z m -18.3244,-13.57634 c 0.4085,-0.45187 1.0454,-0.78214 0.9993,-1.47608 0.1668,-1.42017 0.7654,-2.73535 1.0656,-4.11502 -0.671,-1.33179 -0.999,-2.67542 -0.4184,-4.15624 -0.088,-1.27837 1.5515,-2.44919 1.5155,-0.53846 -0.1879,1.9068 1.3887,0.24968 1.1766,-0.75465 0.1825,-1.81268 2.0673,-2.7118 3.1822,-3.91679 1.356,-0.13628 3.1861,0.42807 3.6665,-1.3698 1.226,-2.10761 0.7439,-4.64148 0.9127,-6.96533 -0.065,-1.0053 0.225,-2.03263 0.3452,-2.9825 -0.6055,-0.67008 -0.7382,-2.80595 0.4223,-1.32484 1.8025,1.03979 2.5533,-1.34096 2.1632,-2.74847 -0.1554,-2.32223 -2.3582,0.30688 -3.4555,0.47134 -1.2797,0.304 -3.0939,1.64823 -1.4147,2.81299 2.1553,0.74682 0.9627,3.44697 -0.9011,3.59648 -0.9228,1.98296 -3.7254,-0.20968 -1.8226,-1.41751 1.7105,-0.67885 -0.7806,-2.32463 -0.8095,-3.60346 -0.591,-2.18894 -0.2763,-4.52666 0.3224,-6.6782 -0.8391,-0.95469 -2.7445,0.6959 -4.0418,0.48684 -2.1081,0.26911 -4.175,-0.71093 -6.2645,-0.27332 -1.0134,0.58483 -0.4757,2.53519 -0.589,3.65975 0.7633,2.22304 2.5659,0.13607 3.7122,-0.40235 1.6694,0.626 -0.015,3.52878 -1.681,2.94304 -0.9697,0.39159 -1.0818,2.1366 -2.5368,2.14003 -0.2946,0.97485 -2.6932,1.48531 -1.5984,0.0323 0.087,-0.64434 -0.5813,-2.08633 0.7027,-1.31816 1.5881,0.59065 1.5528,-1.82223 0.4829,-2.43169 -0.714,-0.98231 -0.1707,-2.44387 -0.397,-3.31733 -1.5592,0.96379 -2.2065,2.83644 -3.0283,4.39616 -2.0837,4.59405 -2.4588,9.84777 -5.1441,14.18498 -0.8066,1.47683 -2.1511,2.55874 -2.9772,4.00972 -0.8489,1.47003 -0.2621,3.24572 0.9015,4.35027 1.3216,1.25485 1.4116,3.64249 3.3338,4.25613 1.8054,0.53694 2.3548,-1.82494 3.5876,-2.59964 1.3629,-0.64557 2.6072,-1.52999 4.0389,-2.05309 1.4915,-0.0298 2.9677,-0.64153 4.4447,-0.49436 1.5204,0.45808 0.3284,3.77918 -1.0554,3.32753 -0.1541,-2.00226 -2.5822,-0.21406 -2.2669,1.06838 0.1574,1.22177 -2.2294,3.10617 -0.1992,3.491 1.3583,0.16674 2.6215,1.23985 3.6256,-0.28969 z m -12.153,-7.05553 c -0.3288,-1.23891 -0.7799,-2.73969 -2.4743,-2.25394 -1.2487,0.4488 -2.4128,-1.77905 -0.53,-1.19959 1.606,0.38353 3.0217,-1.0773 4.6397,-0.50325 1.4394,0.12214 -0.8567,-2.27086 1.0767,-1.67645 0.8287,0.71498 1.4481,0.36907 1.6796,-0.5943 1.5617,-0.058 0.8598,2.74594 -0.4995,2.58202 -0.1466,1.30152 -1.1823,1.29985 -2.2212,0.89831 -1.8589,-0.0727 0.5628,3.64579 -1.671,2.7472 z m 14.8412,-8.33142 c -1.8306,-0.48997 -0.6784,-2.56019 -1.1025,-3.85088 -0.5629,-0.69509 -0.433,-3.18262 0.3014,-1.31788 0.4765,1.50483 0.9659,2.97683 1.9774,4.2168 0.4695,1.0219 -0.2108,1.75342 -1.1763,0.95196 z m -3.6782,0.14591 c 0.1908,-1.59605 0.7632,-3.28609 0.9022,-4.95366 0.077,-1.11955 0.1182,-3.06546 -0.9562,-2.56856 0.5421,-0.30578 0.8402,-1.01561 1.0864,-1.30957 1.0879,1.40533 -0.3919,3.19143 0.5037,4.74273 0.4699,1.27191 0.3041,2.8106 -0.5366,3.88772 -0.2522,0.20889 -0.692,0.44042 -0.9995,0.20134 z m -0.3934,-2.22894 c 0.012,-0.55114 0.4547,-3.56395 0.6831,-1.71569 0.1927,0.16461 -0.6064,2.88397 -0.6831,1.71569 z m -6.6638,-5.92764 c 0.3788,-1.31493 1.1571,0.3691 0.036,0.21768 l -0.036,-0.21765 z m 0.9988,-1.20543 c -1.1289,-1.4032 1.1887,-0.31237 0.4583,0.24698 l -0.2128,-0.0695 -0.2455,-0.1773 v 1e-5 z m 1.883,-4.04657 c -0.021,-1.30865 0.8793,0.83793 0,0 z m 2.307,-2.92627 c -1.0415,-0.69575 -0.4259,-3.63967 1.0771,-2.16099 1.3181,0.25423 1.635,1.45671 0.2537,1.90104 -0.3325,0.44104 -0.8649,0.60627 -1.3308,0.25995 z m -18.0149,4.56042 c 1.5397,-1.09411 3.0734,-2.71515 2.8426,-4.75959 0.218,-1.16475 -1.5579,-2.82945 -2.3458,-1.72194 0.7558,1.58232 -1.3206,2.81905 -2.6084,1.92054 -1.7292,-1.00701 -1.521,-3.4541 -0.555,-4.93478 0.6407,-1.30682 1.5445,-2.79346 3.1602,-2.91386 2.2722,-0.39779 4.4893,0.53678 6.763,0.3041 1.8873,-0.0727 3.7495,0.56788 5.3062,1.61247 1.1623,0.765 3.3834,0.0531 4.1544,0.78242 -2.464,0.83624 -5.2991,0.43024 -7.4816,-0.97558 -0.5214,-0.6203 -2.5504,-0.54039 -1.1122,0.23701 1.8778,1.08289 3.8329,2.42026 6.1108,2.24799 1.8252,-0.11862 3.6329,-0.52085 5.4755,-0.48194 1.9759,-0.082 4.0898,0.28216 5.9387,-0.57868 -0.1324,-1.2771 -2.4504,-1.56835 -3.4178,-2.41987 -1.9017,-1.28526 -3.9305,-2.40303 -6.0401,-3.28623 -0.9615,0.34036 1.2352,1.22662 1.5999,1.60551 0.6522,0.12092 2.4158,2.01928 0.789,1.13572 -1.4256,-0.66226 -2.9404,-1.21845 -4.0205,-2.43055 -1.3413,-1.06631 -2.6317,-2.25267 -4.3211,-2.74427 -1.8345,-0.62215 -3.8163,-0.84347 -5.7447,-0.79239 -1.777,0.14517 -2.821,1.71001 -4.182,2.62561 -1.4257,0.43816 -3.1471,0.2674 -4.0989,1.68546 -0.8432,1.07901 -1.8053,2.03068 -2.9038,2.84933 -1.3285,1.62464 -1.5975,3.83883 -1.7959,5.86355 -0.1263,1.94611 0.8824,3.9629 2.5681,4.95427 0.2838,-1.13729 -0.8078,-2.70261 -0.4388,-4.08924 0,-1.67569 0.022,-3.71172 1.6133,-4.71793 1.0272,-0.73322 -0.49,1.24143 -0.4635,1.75737 -0.7884,2.15086 -0.3554,4.76545 1.113,6.5223 0.9806,1.13626 2.8035,1.53317 4.0954,0.7429 z m 60.0121,-1.01142 c -0.9967,-0.98026 -0.6109,0.58395 0,0 z m -23.7469,-18.2282 c 1.4117,-0.81288 -0.5897,-3.83396 -1.7161,-2.83502 -0.8934,1.30062 -0.4919,3.77511 1.5489,2.89947 l 0.1672,-0.0645 z"
       style="fill:#000000;stroke-width:0.104363"
       id="path1045-54-7-0" /></g></svg>
