<?xml version="1.0" encoding="UTF-8" standalone="no"?>
<!-- Created with Inkscape (http://www.inkscape.org/) -->

<svg
   width="256mm"
   height="256mm"
   viewBox="0 0 256 256"
   version="1.1"
   id="svg5"
   xml:space="preserve"
   xmlns="http://www.w3.org/2000/svg"
   xmlns:svg="http://www.w3.org/2000/svg"><defs
     id="defs2" /><g
     id="layer1"
     transform="translate(-1649.6999,-828.05332)"><rect
       style="fill:#fa0000;fill-opacity:1;stroke-width:0.122816;-inkscape-stroke:none;stop-color:#000000"
       id="rect1436-44-3-9-4-2-2"
       width="255.99994"
       height="255.99998"
       x="1649.6998"
       y="828.05328" /><path
       id="path1157-7-0-5-8-7-6"
       style="fill:#ffffff;stroke-width:0.870993"
       d="m 1770.2118,862.76485 c -0.1712,0.39985 0.9236,0.89987 -0.323,0.85628 -0.9842,0.99712 -1.0574,2.74726 -1.1901,4.11964 0.1134,1.5847 0.9916,2.98291 2.2655,3.90467 0.879,0.33258 1.0687,0.93366 -0.1111,0.88832 -1.6359,-0.036 -2.3392,-2.48624 -3.3915,-2.61328 -0.3722,0.80452 1.6068,2.85653 -0.1799,2.10633 -0.6199,-0.14438 -1.22,-0.84562 -1.8309,-0.75964 -1.9216,0.59989 0.2163,1.90343 1.1421,2.33371 1.9975,1.10763 4.1349,2.60838 6.5355,2.27738 1.1802,-0.0141 1.8595,-2.21946 2.897,-1.11466 0.2036,-0.66857 -0.486,-2.21227 0.7033,-1.1312 1.0733,0.87714 0.757,2.81906 -0.5524,3.25355 -1.3778,-1.37642 -2.6142,0.65709 -3.2577,1.85983 -0.7264,1.72625 -0.8889,3.69749 -0.5385,5.5299 0.5922,1.13138 1.6386,-1.19362 2.6169,-1.17099 1.4317,-0.85408 3.3722,-1.27685 4.1429,-2.90111 1.4256,-1.18386 2.0184,1.92716 2.0376,2.97191 0.2762,1.53337 -0.6416,3.4135 0.2166,4.73201 1.2499,-0.67295 2.3993,-1.59048 3.6473,-2.30735 1.5882,-0.94094 3.1908,-2.85648 2.498,-4.80695 -0.3349,-0.57938 -1.4003,-1.64873 0.087,-1.28674 1.6452,0.38683 2.4049,2.0329 2.5952,3.56981 0.4403,1.83843 0.5579,3.95262 -0.726,5.50251 -0.9047,1.18124 -2.0315,2.52192 -1.5069,4.12171 0.6715,1.62363 0.013,3.46849 -1.4976,4.34909 -2.4517,1.67322 -5.758,1.70364 -7.9168,3.88348 -2.0345,1.58853 -2.8991,4.3607 -2.3022,6.84919 0.5423,1.80829 -1.2278,2.96195 -2.4665,3.8747 -1.5476,1.04488 -2.8967,2.56563 -3.0815,4.49947 -0.3218,1.2028 1.4793,3.30137 2.3497,1.9575 -1.845,-0.40409 -2.297,-3.02838 -0.5353,-3.99045 1.5822,-1.13735 3.6538,-0.4949 5.4343,-0.91726 2.0053,-0.85192 1.5037,-3.81027 3.4985,-4.64106 1.7394,-1.04893 3.8697,-0.48291 5.6844,-1.21594 1.3966,-0.57636 1.8135,-2.6257 3.5424,-2.46859 1.5678,-0.19132 3.3538,-0.95523 3.9827,-2.50837 1.0531,-1.52814 -0.1327,-3.15128 0.3044,-4.65863 -0.205,-1.13204 0.7709,-1.3489 1.0035,-0.22273 0.8816,2.75497 -0.202,5.67514 -1.3947,8.16178 -1.0324,1.77738 -2.3806,3.57829 -4.4303,4.21783 -1.7339,0.57488 -3.081,2.32984 -2.9708,4.18424 -0.015,1.64909 -1.1664,2.87805 -2.3606,3.85506 -0.9858,1.55533 -2.7905,1.64281 -4.4437,1.57303 -2.1002,0.004 -4.2256,1.43665 -4.5351,3.60495 -0.4975,1.4234 1.8505,2.99425 -0.3193,3.83491 -1.148,0.51702 -2.0255,3.38172 -0.03,2.86391 1.7093,-0.25528 1.1446,-2.74189 2.4381,-3.07217 1.9767,0.87748 2.1044,-2.45783 4.0468,-1.90066 1.2945,0.33741 2.6833,0.27714 3.9956,0.19534 0.9416,-0.49107 1.9643,-0.84513 2.635,-1.72444 0.9596,-1.04551 1.5225,-2.39887 2.6241,-3.33572 0.699,-0.67094 2.2958,-2.48228 2.9714,-1.24592 -1.1258,0.91244 -2.0083,2.22159 -1.987,3.73879 -0.1501,1.78204 -0.7295,3.61495 -2.1962,4.75475 -2.2455,2.18839 -5.5765,3.40888 -6.8327,6.48333 -0.5217,1.47012 -1.1976,3.18348 -0.3798,4.67827 0.2169,0.27809 0.8357,1.14068 1.2123,0.63251 h 5e-4 c -1.0408,-1.36665 -1.0783,-3.42727 0.3334,-4.6209 1.1046,-1.15793 2.8464,-1.44679 4.3227,-0.89452 1.6823,0.62764 3.8731,0.60378 5.0503,-0.95602 0.995,-1.00824 1.365,-3.05875 2.5286,-3.55482 0.5607,0.6633 0.9997,3.27344 2.0071,2.56315 0.5972,-1.33086 0.5378,-2.86008 0.1354,-4.23126 0.1898,-1.39629 0.6974,-2.75962 0.9436,-4.16409 0.4136,-1.67458 1.2745,-3.24613 1.2531,-5.00796 -0.09,-1.07142 1.0554,-2.06317 1.4268,-0.53382 0.1355,0.82466 1.6758,2.35476 2.0552,1.33067 -1.2441,-1.47907 -0.9807,-3.52804 -0.4853,-5.24981 0.475,-1.98824 1.9209,-3.69108 1.9565,-5.78001 -0.1762,-1.41365 -0.8298,-2.88542 -0.7059,-4.25917 1.0319,-0.30962 2.3874,-0.97377 1.1612,-2.04432 -1.5722,-2.54086 -1.0343,-5.6201 -1.1266,-8.4491 0.1634,-1.78098 -1.0191,-3.39197 -2.5486,-4.18734 -1.4825,-1.22868 3.233,-0.3061 1.5637,-1.97921 -1.2404,-0.86398 -2.5064,-1.67766 -2.9482,-3.16156 -1.2287,-0.7519 -2.7519,-1.28061 -3.6705,-2.37712 1.329,-0.0994 2.7456,-0.0862 3.8989,-0.015 1.1534,0.0711 2.4756,-0.45315 1.4294,-1.54874 -1.4639,-1.45607 -3.7502,-1.34449 -5.4916,-2.32751 -1.4707,-0.60138 -2.4927,-1.85706 -3.1513,-3.26285 -0.8147,-1.95654 -2.7572,-3.27915 -4.8596,-3.40393 -1.1641,0.10053 -3.5433,-0.61921 -1.2046,-1.28726 1.549,-1.65571 -1.6369,-2.05292 -2.7388,-1.47278 -1.9859,0.31697 -4.0392,0.99091 -6.0498,0.53847 -1.7131,-1.36138 -1.2553,1.91414 -2.513,2.38074 -0.7849,0.96886 -2.4595,-0.0112 -1.1638,-0.9276 0.5441,-1.47694 -0.04,-3.17435 -0.8351,-4.46226 -1.0536,-1.42583 -2.6443,-2.5497 -4.3935,-2.87992 z m 8.7876,1.42058 c -0.1598,0.0114 -0.3145,0.0731 -0.4553,0.19792 -0.8934,1.30062 -0.4921,3.77521 1.5487,2.89957 l 0.1675,-0.0646 v 5.2e-4 c 1.2352,-0.71127 -0.1425,-3.11325 -1.2609,-3.03341 z m -7.1045,0.3545 c 0.1235,-0.007 0.3393,0.0491 0.677,0.19431 0.5798,-0.0144 1.5363,2.17349 0.4619,1.41955 -0.4798,-0.35844 -1.674,-1.58266 -1.1389,-1.61386 z m 2.9404,3.28921 c 0.8562,0.40264 -0.3444,4.26046 -0.6532,2.51302 -0.012,-0.77256 0.2264,-2.08642 0.6532,-2.51302 z m -26.3472,0.43511 c -1.777,0.14517 -2.8212,1.71008 -4.1822,2.62568 -1.4257,0.43816 -3.1467,0.26763 -4.0985,1.68569 -0.8432,1.07901 -1.8057,2.03027 -2.9042,2.84892 -1.3285,1.62464 -1.5973,3.83901 -1.7957,5.86372 -0.1263,1.94611 0.8826,3.96285 2.5683,4.95422 0.2838,-1.13729 -0.8078,-2.70252 -0.4388,-4.08915 0,-1.67569 0.022,-3.71186 1.6129,-4.71806 1.0272,-0.73322 -0.4896,1.24158 -0.4631,1.75751 -0.7884,2.15086 -0.3558,4.76524 1.1126,6.52209 0.9806,1.13626 2.8035,1.53337 4.0954,0.7431 1.5397,-1.0941 3.0735,-2.71496 2.8427,-4.7594 0.218,-1.16474 -1.5577,-2.82936 -2.3456,-1.72185 0.7558,1.58231 -1.3208,2.8188 -2.6086,1.92029 -1.7292,-1.00701 -1.521,-3.45391 -0.555,-4.93458 0.6407,-1.30682 1.5448,-2.79363 3.1605,-2.91403 2.2722,-0.39779 4.4892,0.53705 6.7629,0.30437 1.8873,-0.0727 3.7494,0.56772 5.3061,1.6123 1.1623,0.765 3.3833,0.0531 4.1543,0.78239 -2.464,0.83624 -5.2992,0.43016 -7.4817,-0.97566 -0.5214,-0.62029 -2.5503,-0.5402 -1.1121,0.2372 1.8778,1.08289 3.8329,2.42019 6.1108,2.24792 1.8252,-0.11861 3.633,-0.52053 5.4756,-0.48162 1.9759,-0.082 4.0898,0.28206 5.9387,-0.57878 -0.1324,-1.27709 -2.4505,-1.56848 -3.4179,-2.42 -1.9017,-1.28526 -3.9304,-2.40291 -6.04,-3.28611 -0.9615,0.34036 1.2352,1.2267 1.5999,1.60559 0.6522,0.12092 2.4159,2.01889 0.7891,1.13533 -1.4256,-0.66226 -2.9403,-1.21824 -4.0204,-2.43034 -1.3413,-1.06631 -2.6318,-2.25294 -4.3212,-2.74454 -1.8345,-0.62215 -3.8164,-0.84328 -5.7448,-0.7922 z m 36.1729,3.49075 c 0.1446,0.0149 0.3189,0.0853 0.5168,0.23461 0.7179,0.42644 1.0059,1.6049 -0.2563,0.83302 -0.958,-0.15146 -0.887,-1.13222 -0.2605,-1.06763 z m 1.9322,1.58181 c 1.2037,-0.0315 2.4393,1.17184 3.0861,2.06913 0,0.31879 -0.3562,0.44256 -0.5994,0.25114 -0.6186,-1.0556 -2.5556,-1.11003 -2.727,-2.29701 0.08,-0.0135 0.1601,-0.0212 0.2403,-0.0233 z m -6.0968,2.78743 c 0.9806,0.79773 1.3676,3.37415 -0.4428,2.95434 l 0.02,-0.19482 h -10e-4 c 0.3367,-0.7326 -0.1099,-2.77715 0.4237,-2.75952 z m 10.2397,0.29559 c 0.6383,0.0343 1.7234,0.49225 2.0309,0.80305 1.3134,0.93192 1.9076,2.51323 2.8055,3.79512 0.5971,1.30775 1.3893,2.88124 1.4981,4.17855 -0.4234,0.11204 -0.8032,-0.0996 -1.0717,-0.41599 -1.088,-1.33506 -1.3055,-3.16398 -2.2666,-4.59197 -0.7136,-1.46707 -1.873,-2.64661 -3.3982,-3.24993 -0.2032,-0.40755 0.019,-0.53939 0.402,-0.51883 z m -8.6336,0.005 c 0.064,0.004 0.1341,0.20951 0.1969,0.74776 0.2996,0.47733 -0.2664,2.89649 -0.3808,2.10323 0,-0.44737 -10e-5,-0.89467 0.012,-1.34204 v 0 c -0.071,-0.55058 0.037,-1.51779 0.1767,-1.50895 z m -11.0877,1.58543 c -0.9507,0.0517 -2.2655,0.94073 -3.2385,0.78393 -2.1081,0.26911 -4.1753,-0.71097 -6.2647,-0.27337 -1.0134,0.58483 -0.4753,2.53517 -0.5886,3.65973 0.7633,2.22304 2.5656,0.13638 3.7119,-0.40204 1.6694,0.626 -0.015,3.52871 -1.6811,2.94297 -0.9697,0.39159 -1.0818,2.13649 -2.5368,2.13992 -0.2946,0.97485 -2.6931,1.48557 -1.5983,0.0326 0.087,-0.64434 -0.5812,-2.08644 0.7028,-1.31827 1.5881,0.59065 1.5525,-1.82243 0.4826,-2.43189 -0.7139,-0.98231 -0.1705,-2.44365 -0.3968,-3.31711 -1.5592,0.96379 -2.2065,2.83639 -3.0283,4.39611 -2.0837,4.59405 -2.4591,9.84798 -5.1444,14.18518 -0.8066,1.47683 -2.1509,2.5586 -2.977,4.00958 -0.8489,1.47003 -0.2619,3.24557 0.9017,4.35012 1.3216,1.25485 1.4115,3.64243 3.3337,4.25607 1.8054,0.53694 2.3545,-1.82463 3.5873,-2.59932 1.3629,-0.64557 2.6074,-1.53001 4.0391,-2.05311 1.4915,-0.0298 2.9677,-0.64171 4.4447,-0.49454 1.5204,0.45808 0.3285,3.77909 -1.0553,3.32744 -0.1541,-2.00226 -2.5823,-0.21377 -2.267,1.06867 0.1574,1.22177 -2.2292,3.10591 -0.199,3.49074 1.3583,0.16674 2.6216,1.24015 3.6257,-0.28938 0.4085,-0.45187 1.045,-0.78246 0.9989,-1.4764 0.1668,-1.42017 0.7658,-2.73533 1.066,-4.11499 -0.671,-1.33179 -0.9991,-2.67552 -0.4185,-4.15634 -0.088,-1.27837 1.5516,-2.4492 1.5156,-0.53847 -0.1879,1.9068 1.3883,0.24986 1.1762,-0.75447 0.1825,-1.81268 2.0673,-2.71157 3.1822,-3.91656 1.356,-0.13628 3.1861,0.42793 3.6665,-1.36994 1.226,-2.10761 0.7443,-4.64162 0.9131,-6.96547 -0.065,-1.0053 0.225,-2.03238 0.3452,-2.98225 -0.6055,-0.67008 -0.7383,-2.80609 0.4222,-1.32498 1.8025,1.03979 2.5533,-1.34116 2.1632,-2.74867 -0.1554,-2.32223 -2.3583,0.30683 -3.4556,0.47129 -1.2797,0.304 -3.0941,1.64851 -1.4149,2.81327 2.1553,0.74681 0.963,3.44665 -0.9008,3.59616 -0.9228,1.98296 -3.7254,-0.20966 -1.8226,-1.41749 1.7105,-0.67885 -0.7809,-2.32457 -0.8098,-3.60339 -0.591,-2.18894 -0.2762,-4.52661 0.3225,-6.67815 -0.2098,-0.23867 -0.4862,-0.31436 -0.8031,-0.29714 z m 57.3635,3.93568 c -0.1874,0.003 -0.3762,0.0142 -0.5669,0.0346 -2.2205,0.0237 -4.404,1.33988 -5.2307,3.44734 -0.8111,1.81783 -0.7089,4.21994 0.695,5.71954 0.8195,1.19198 3.4344,0.82308 3.021,-0.76687 -1.6418,-0.34511 -2.5842,-2.25963 -1.3151,-3.57291 0.8173,-1.30192 2.3919,-1.69472 3.8349,-1.57097 3.0935,-0.0587 5.5942,2.40315 6.7551,5.08496 1.1837,2.33966 1.0776,5.17125 0.078,7.55407 -0.7428,2.0683 -1.6376,4.16588 -3.3372,5.63841 -0.6531,0.53919 -1.3074,1.611 -2.0531,1.70739 1.0547,-1.33921 2.16,-2.67835 2.8871,-4.24522 1.244,-2.53185 2.2988,-5.38448 1.9162,-8.24291 -0.8951,-1.51467 -1.2036,1.45285 -1.6717,2.0066 -1.109,2.70352 -2.442,5.38329 -4.608,7.40627 -1.997,2.24205 -4.7811,3.62006 -6.6906,5.95519 -1.3323,1.3959 -3.1629,2.1689 -4.4338,3.63854 -0.9732,1.09802 -2.2359,1.90291 -3.1828,3.01015 -0.9269,1.6672 -2.7537,2.78888 -3.1315,4.74338 -0.2443,1.96329 -1.7867,3.65478 -1.3788,5.71128 0.2963,1.51933 0.373,3.14915 1.2139,4.49326 0.9246,1.27564 2.273,2.2052 3.1228,3.52743 0.2535,1.42412 0.6935,2.8838 1.9002,3.80132 0.8058,0.92694 2.8256,0.71806 2.5765,2.36523 -0.6764,-1.60883 -2.9262,-0.52663 -3.9336,-1.88412 -1.4448,-1.0828 -0.9172,-3.36991 -2.514,-4.35632 -1.2489,-0.55215 -2.4912,-1.46876 -3.7569,-1.80351 -0.26,1.95404 0.4082,4.01439 1.5389,5.60173 1.8068,2.06248 4.8286,2.82426 6.1242,5.35729 0.6526,1.53174 1.0672,3.39745 2.696,4.2106 2.0879,1.24686 4.568,1.41268 6.9334,1.52807 1.984,0.41148 3.9703,1.02638 5.751,1.99729 1.6079,1.20717 1.8452,3.32911 2.8009,4.97851 1.0867,2.66339 3.8049,4.01697 5.7852,5.90765 0.9795,1.41186 1.0311,3.27283 2.1048,4.64985 1.0239,1.55249 1.5172,3.91405 -0.033,5.30515 -1.0154,0.9616 -1.9184,2.0921 -3.0303,2.9248 -0.8691,-1.344 1.1654,-2.46 2.1032,-3.18582 1.0928,-1.42577 0.4055,-3.42005 -0.1581,-4.93045 -0.5788,-1.69872 -2.329,-2.68035 -2.758,-4.46949 -0.5918,-1.7593 -2.7788,-1.85022 -3.899,-3.17862 -1.5583,-1.41081 -1.0417,-4.11302 -2.9863,-5.22242 -1.3283,-0.62349 -3.3517,-0.50879 -4.2546,0.78445 -0.035,1.08049 2.3235,0.0532 2.851,1.2361 1.5384,1.48091 0.9632,3.70906 1.0945,5.59036 0.2714,2.36095 2.5071,3.86105 4.67,4.31033 1.2076,0.54318 2.1331,1.58682 3.1275,2.44791 1.2043,1.06076 0.6316,3.2127 -0.507,4.10675 -1.2851,1.2466 -3.5263,1.4099 -4.7718,0.017 -1.3716,-1.42767 -1.7341,-3.60281 -3.3899,-4.81055 -1.2294,-1.01599 -2.5379,-2.04203 -3.1523,-3.57084 -1.0408,-1.77448 -1.9529,-3.69508 -3.6318,-4.97644 -3.6039,-3.39181 -8.2921,-5.17224 -12.6039,-7.44709 -2.0465,-1.14293 -4.2081,-2.03774 -6.4141,-2.81843 -2.1582,-0.78078 -4.1368,-2.02655 -5.6255,-3.79047 -1.9343,-2.17128 -3.6008,-4.67359 -6.1474,-6.20117 -1.6303,-0.93894 -2.6025,-2.81352 -4.532,-3.25872 -1.3906,-0.81799 -2.8765,0.29608 -3.3311,1.63298 -0.8127,1.33849 0.1833,3.62787 1.9182,3.20032 1.2148,-1.02575 1.595,0.64004 0.4775,1.11776 -1.4779,0.80185 -3.2461,0.24586 -4.5594,-0.60771 -1.9778,-1.72142 -1.7723,-4.84266 -0.5545,-6.9448 1.57,-3.24734 5.3658,-4.38596 7.4776,-7.15615 0.9828,-1.64065 -1.2573,0.24961 -1.9125,0.38086 -1.5008,0.34797 -2.2481,1.99362 -3.806,2.20296 -1.5049,0.29255 -3.5188,-0.57724 -4.5977,0.8971 -0.45,1.43481 -2.2901,1.26457 -3.4137,1.99471 -1.4754,-0.11934 -3.1938,1.86441 -1.3565,2.71974 2.0527,-0.98853 1.2772,2.3844 -0.4041,1.84329 -1.8212,-0.21122 -2.8202,-2.37361 -2.1069,-3.98477 0.6482,-1.31289 0.7406,-2.78734 1.2516,-4.13411 0.4731,-1.17254 2.3778,-1.72 1.2454,-3.14503 -0.3342,-1.72209 0.4458,-3.57093 1.8408,-4.62452 1.5184,-1.21584 3.6209,-1.33 5.4916,-1.25832 1.5091,-0.3918 2.559,-1.87297 3.5187,-3.01274 0.5565,-1.57446 0.3802,-3.44155 1.5937,-4.74648 1.1434,-1.82426 3.893,-1.46072 4.8947,-3.41323 0.07,-0.6496 -1.5046,-0.70984 -1.912,-0.31574 -1.0797,1.25162 -2.8209,1.42897 -4.069,2.44584 -0.914,0.11569 -1.3924,2.86127 -1.6464,0.91726 0.3924,-0.89124 -0.757,-1.94016 -1.219,-0.88883 1.2307,0.63426 -1.9593,1.63629 0.1855,1.60868 0.6747,0.73774 -1.876,1.38013 -1.2201,-0.0548 -0.2362,-2.046 -1.2782,1.00541 -1.6816,1.59422 -0.7347,1.6055 -2.6105,1.83985 -4.1661,1.77456 -1.3915,-0.13808 -3.2718,0.39966 -3.313,2.04071 0.7251,0.36826 2.2337,-0.41518 1.8397,1.27692 -0.012,1.81427 -2.3876,2.0632 -3.5445,1.12603 -1.6463,-1.06543 -1.9503,-3.33799 -1.0955,-5.00745 0.7508,-2.06105 2.8341,-3.02324 4.3439,-4.42143 0.5905,-0.44804 0.6533,-1.06632 0.4702,-1.73013 -0.3061,-1.89832 -0.2746,-3.92875 0.7778,-5.60999 1.4902,-2.41599 4.0966,-3.91374 6.7882,-4.62246 1.7019,-0.52881 3.7528,-1.30761 4.3057,-3.18172 -0.1134,-1.58464 -0.6377,-3.36214 0.4284,-4.76301 1.0836,-1.27773 2.36,-2.79798 2.0536,-4.59972 -0.6559,-1.6494 -2.1284,1.0978 -3.1569,1.30379 -0.8657,0.84452 -3.9352,1.52652 -2.5714,3.07423 1.1513,2.14716 -2.3985,2.22092 -2.9875,0.49455 -0.9654,-0.59522 -0.4068,-3.21415 -1.5554,-2.805 -1.4082,2.10993 -0.8551,4.81469 -0.3385,7.12411 0.4682,1.00546 1.673,1.98788 0.012,2.65359 -1.126,1.03303 -1.9914,2.31811 -3.2205,3.24838 -2.7104,2.61913 -6.014,4.97362 -7.3272,8.67234 -0.8507,1.1743 -0.8167,3.44549 0.9731,1.96215 1.2136,-0.49052 2.2197,-2.20181 3.1739,-2.42776 0.2654,1.71987 -1.5329,2.74317 -2.7347,3.57963 -1.4666,0.85317 -2.9889,1.64238 -4.1842,2.87838 -1.926,1.82933 -4.4998,2.88353 -6.2141,4.93613 -0.7926,0.73239 -1.5859,2.98112 0.3199,2.28668 1.5442,-0.25975 2.5061,-1.61106 3.716,-2.45876 -0.3224,1.84751 -1.8162,3.6131 -3.7956,3.66851 -3.1284,0.28544 -6.4223,1.11975 -8.661,3.47214 -1.4066,1.65953 -2.6771,3.43538 -4.1088,5.07721 -1.4697,2.1093 -2.0857,4.65852 -2.8799,7.06985 -0.4412,2.07161 -1.4139,3.97407 -2.604,5.70714 1.0085,0.65227 2.967,-0.7401 4.2545,-1.09554 2.2301,-1.02298 4.6643,-1.55802 7.12,-1.43453 1.833,0.008 3.6665,0.25993 5.4503,0.66404 1.2873,1.17805 -1.8456,0.62054 -2.5538,0.50126 -2.9358,-0.41114 -6.0205,-0.28568 -8.7571,0.95291 -2.7122,1.15079 -5.5252,2.14474 -8.4548,2.54145 -2.3933,0.23717 -4.8515,-0.19156 -7.0678,-1.10433 -1.3908,-0.75067 -2.6238,-1.80885 -4.0028,-2.61224 -1.8867,-0.78647 -3.8139,0.48747 -5.3232,1.52704 -1.3146,0.55542 -1.8556,2.0135 -1.9348,3.33675 -0.4224,1.44349 -1.6808,2.44968 -1.988,3.94808 -0.4322,1.50973 0.3736,3.04123 0.5137,4.55114 0.6655,4.80005 0.3741,9.68164 -0.1607,14.47976 -0.1597,2.1957 -0.3782,4.3921 -0.5468,6.583 0.197,2.3074 1.9558,3.989 3.2531,5.7547 0.8067,1.5018 3.0251,2.0433 3.5925,3.4029 -1.017,0.304 -3.4145,0.054 -2.3373,1.8237 0.5935,1.4088 1.6741,2.6883 3.3274,1.8598 1.06,0.1116 2.2714,0.5675 2.3182,-0.9555 0.4225,-0.8861 3.0435,-1.8316 1.6552,-0.1323 -1.2217,0.5354 -1.2226,1.7487 -1.5471,2.7637 -0.8085,-0.016 -1.4574,-1.6087 -2.4449,-0.4971 -1.6245,1.0043 0.9352,1.9364 1.2496,3.0173 0.4893,0.9337 0.749,2.0505 1.7792,2.5467 1.3192,-0.094 2.7368,0.1328 3.9842,-0.383 1.8414,-0.7728 2.0034,-2.9406 2.9151,-4.4705 0.6742,-1.4408 1.2635,-2.9712 0.9348,-4.5889 -0.2556,-1.5798 0.018,-3.2577 -0.4898,-4.7842 -0.9723,-0.397 -2.7365,-1.0484 -3.4717,-0.6656 0.3706,1.6542 -2.0139,3.0883 -0.1653,4.3522 1.9426,-0.6486 1.5904,1.7414 1.7399,2.9502 0.5158,1.2084 -2.3692,2.4777 -1.8144,0.6481 -1.157,0.6413 -2.191,-0.378 -1.388,-1.5441 0.2675,-1.0532 -0.5341,-1.9146 -0.7917,-2.9068 -0.7119,-0.2939 -1.821,-1.059 -0.4594,-1.4056 1.5566,-0.421 1.0071,-2.5779 2.4293,-3.173 -0.012,-1.5382 -1.2397,-3.0092 -2.8329,-3.0349 -1.0091,0.06 -1.9525,-0.6223 -0.6392,-1.2718 1.2902,-0.8731 3.6644,-0.763 3.4882,-2.944 0.016,-1.5414 0.7186,-2.945 0.9922,-4.42865 0.1066,-2.20162 -2.3098,-0.54855 -2.9239,0.42271 -0.7592,1.20954 -3.097,1.91464 -3.6592,0.21239 1.0004,-0.92307 1.9608,-2.06772 1.7947,-3.57343 0.2629,-1.58257 -0.4117,-3.15265 -1.8733,-3.86591 -0.6121,-0.90699 -1.3343,-0.75623 -0.9539,0.37155 0.3544,1.69456 -0.6647,3.27962 -0.278,4.99246 0.2072,1.76416 -0.9146,3.43308 -0.4088,5.16658 -0.043,1.2513 0.4986,3.5151 -0.8744,4.0582 -0.074,-1.4513 0.3652,-2.8183 -0.1974,-4.2437 -0.3776,-1.3147 1.1024,-2.89154 -0.234,-3.87107 -0.5328,-0.47073 0.03,-1.34889 -0.1649,-1.97714 -0.6266,-1.18158 0.9842,-2.06487 0.027,-3.11609 0.7615,-0.40859 1.9034,-1.16348 0.6211,-1.79782 0.8806,-1.31595 0.7227,-3.09815 1.9487,-4.22455 1.0503,-1.29765 1.8179,-2.77762 2.7234,-4.16667 0.012,-1.08956 2.543,-3.14109 2.2459,-1.02061 0.056,1.25694 -1.3952,2.64649 -0.9406,3.58738 1.6405,0.56186 3.377,0.87736 4.9305,1.69654 2.2854,1.06365 4.2859,2.75529 6.8166,3.25406 3.0464,0.87088 6.303,0.2559 9.3126,1.30328 1.6329,0.77848 3.0951,-0.32809 4.0969,-1.53634 1.6482,-1.38467 4.213,-0.93792 5.7191,-2.59416 0.8078,-0.42213 2.1359,-3.19533 2.5275,-1.19217 -0.6168,2.21044 -2.859,3.46462 -4.9806,3.88968 -1.322,0.17996 -3.461,1.14679 -3.0071,2.67994 0.6295,-0.55152 2.3367,-1.78605 2.0407,0.0227 -0.8702,1.70964 1.2504,-0.8036 1.4031,0.88987 -0.4416,1.66154 1.9067,-0.80347 1.5575,0.98909 0.085,0.87033 -1.9482,2.10389 -1.1095,2.43396 1.0097,-0.13316 2.5392,-2.42424 3.0846,-0.88574 -1.1246,1.27494 -2.7554,2.40939 -4.5176,2.32803 -0.7502,-0.35296 -3.4673,-0.7821 -1.82,-1.8309 0.5572,-0.18119 2.5151,-1.5432 0.8666,-0.79995 -1.3618,1.12918 -2.7668,-0.29602 -1.5689,-1.30845 -1.7013,0.30007 -2.3502,-1.67971 -3.8783,-1.93218 -1.435,-0.36505 -2.9759,-0.89031 -4.4494,-0.54984 1.2302,1.68871 2.9425,3.00002 4.5083,4.38268 2.5829,2.27216 5.6058,3.98613 8.8428,5.13513 5.7252,2.262 12.0366,2.8317 18.1178,2.019 2.0664,-0.1282 4.1442,-0.6356 6.212,-0.3654 1.3825,-0.1246 2.0056,1.7003 0.3251,1.6903 -1.1897,1.1388 -2.6598,-0.632 -3.9502,0.012 0.368,0.9833 1.725,2.7316 -0.1602,3.2427 -2.107,0.5148 -1.8806,-2.5001 -3.4731,-2.8354 -0.4408,0.9825 0.7009,2.7473 1.3151,3.7424 1.0884,1.2436 2.8718,0.3423 3.5977,-0.8181 1.5937,-1.1289 3.7213,-1.1541 5.5909,-0.9477 1.7001,0.1504 2.6632,1.7057 3.4432,3.0262 0.8826,0.6641 0.1157,3.4357 1.4687,2.9047 0.5243,-2.0066 1.3623,-3.9519 1.5068,-6.0405 -0.641,-0.6288 -1.6562,-1.427 -0.8924,-2.3833 0.5235,-1.3712 -1.0801,-3.1001 -2.1477,-1.4257 -0.7473,1.49 -1.8434,0.359 -1.8893,-0.7716 -1.6087,0.045 -3.0097,-0.5911 -4.5971,-0.7762 -1.4278,0.5356 -2.565,-0.9335 -1.3746,-2.0438 0.153,-0.94113 1.7592,-2.26406 1.6087,-0.47797 -0.9132,2.27617 1.764,-1.61581 2.1151,0.23771 -0.7788,0.95266 0.036,2.66606 1.1834,1.44596 0.6551,-1.2885 1.7735,-0.9045 2.1275,0.3302 0.8313,1.1615 1.8472,-1.4026 2.8789,0.062 0.9686,1.1625 2.4142,1.9623 3.0965,3.346 0.117,1.4025 -1.1299,2.5243 -0.9928,4.0096 -0.6378,2.1664 -1.1788,4.3614 -1.6986,6.5562 -0.5083,1.7043 -1.7873,3.0212 -2.4639,4.6225 -0.2247,1.5135 0.015,3.0771 0.3101,4.5661 1.076,1.0483 2.3277,1.9457 2.7409,3.5491 1.1594,0.95716 1.5139,2.29836 2.1285,3.59766 1.1579,1.7646 2.3657,3.6381 4.1807,4.7915 1.2121,0.9576 2.7809,0.6855 4.0519,1.3684 1.5256,0.9213 2.7582,2.4733 2.9347,4.2793 0.1792,1.749 -1.2026,3.0973 -1.9694,4.5341 -1.8475,3.5607 -5.3671,5.7701 -7.629,9.017 -1.0493,1.5879 -2.8161,2.3677 -4.5087,3.0608 -1.5504,0.7295 -3.1148,1.7537 -3.6592,3.4768 -0.5033,1.5288 -0.9861,3.2465 -2.3348,4.2654 -1.0706,1.0562 -3.3354,1.1336 -3.7119,2.697 0.6243,0.3742 1.9738,0.3569 0.9865,1.4025 -1.0422,1.0306 -1.4331,2.4446 -1.7425,3.8318 -0.2512,1.467 -0.916,3.087 -0.2729,4.5175 0.9088,0.574 2.1295,0.048 3.1146,0 v -6e-4 c 2.8276,-0.3551 5.519,-1.3357 8.2393,-2.1332 2.0394,-0.3937 1.9202,-2.5116 1.7337,-4.0881 0.7481,-1.2769 -0.4239,-2.1652 -1.464,-1.2035 0.6506,1.0976 -0.4625,2.9776 -1.6257,1.6815 -1.2389,-0.1229 -2.5353,-1.6706 -3.4412,-0.048 -1.3885,0.9668 -3.386,-0.6108 -2.915,-2.2113 -0.2235,-1.6533 0.7763,-3.1422 2.5006,-3.3047 -0.3703,1.3751 -1.3752,2.9532 -0.6031,4.3662 0.5799,0.254 1.7373,0.02 1.9792,-0.6181 0.2577,-0.8299 0.9958,-2.5157 1.8134,-2.1094 -0.9969,1.3027 0.7907,2.2748 1.1234,3.0737 -0.2507,-2.0737 2.1748,-1.9545 3.4282,-2.711 1.6397,-0.3187 1.7351,-1.6966 0.9948,-2.9398 -0.4317,-1.3293 -0.782,-3.4744 0.7224,-4.2292 1.1773,1.1848 -0.065,2.8943 0.7442,4.2333 0.7088,0.9123 0.6306,3.0251 1.6299,3.2613 1.121,-1.2305 0.5026,-2.9505 0.3467,-4.3971 -0.2269,-1.0061 0.9868,-2.6933 1.062,-0.7948 0.5313,1.5784 1.6393,2.9681 1.6386,4.702 0.1389,0.8379 -0.5353,2.8212 1.0093,1.864 1.5678,-0.7028 2.3802,-2.5489 1.8324,-4.1781 -0.3514,-1.6556 -1.3576,-3.119 -1.4821,-4.842 -0.4727,-2.016 0.3503,-4.0367 1.4046,-5.7232 0.5725,-0.9589 1.6273,-0.5086 0.9606,0.4889 -0.4789,1.8775 -1.5083,3.905 -0.7343,5.8322 1.0624,-0.4177 1.7186,-1.948 2.5838,-2.8138 1.2313,-1.4745 1.1849,-3.6449 2.679,-4.9382 1.4217,-0.7148 0.4592,-3.6046 2.1104,-3.56 0.466,0.9633 -0.1324,3.8209 1.756,2.498 1.2822,-0.9934 1.091,-2.8997 2.2035,-4.0545 0.7919,-1.2072 1.758,-2.3725 1.9006,-3.867 0.6024,-1.847 3.1014,-2.3163 3.3574,-4.3289 0.2625,-1.8132 -1.7371,-2.768 -2.2463,-4.3382 -0.3022,-1.5279 -0.972,-3.0376 -2.5141,-3.6566 -1.5861,-0.9786 -1.6725,-3.0293 -1.7234,-4.6943 0.1503,-1.84936 1.864,-2.99276 3.0448,-4.23386 2.3836,-2.2317 5.0677,-4.1933 6.9334,-6.9184 1.9216,-2.8254 4.4916,-5.5833 4.7108,-9.1664 -0.1,-2.1561 -0.5914,-4.3164 -0.3276,-6.4812 1.0963,-1.5491 1.6083,1.3475 1.6319,2.2313 0.4178,1.8716 1.8583,3.5258 3.8107,3.8303 1.4848,0.4137 3.4032,0.3302 4.241,1.8903 0.5433,1.5155 -0.9731,2.7248 -1.9921,3.592 -1.616,0.5686 -1.9154,3.3761 0.3085,2.8278 1.1996,-0.1904 3.0144,-0.5282 2.173,-2.1348 0.1881,-1.7371 1.9739,-2.6028 2.5895,-4.1579 1.1381,-1.6696 -0.6318,-2.8595 -1.9146,-3.5791 -1.0728,-0.4994 -2.4344,-1.4602 -0.6578,-2.0825 0.5461,-0.3932 0.5698,-0.9806 0.4992,-1.5922 -0.4278,-1.5325 1.3686,-1.983 1.9719,-3.0969 0.4982,-0.60729 0.883,-2.89209 1.3845,-1.08474 0.3352,1.46154 -0.9495,2.74114 -1.0821,3.93104 0.5603,-0.1071 1.3337,-0.9822 0.804,0.2269 -0.3761,0.8205 -2.0522,2.5651 -0.1064,2.466 1.9595,-0.4686 3.2908,-2.3877 3.3512,-4.3615 0.3245,-2.10971 -0.1831,-4.28717 0.3674,-6.3609 0.2275,-1.18552 3.0155,-2.82166 1.2625,-3.64422 -1.7573,-0.46401 -2.8792,1.32094 -4.4902,1.45211 -2.055,-0.66146 0.2571,-1.7832 1.2237,-2.16834 1.3333,-0.91769 1.8426,-2.5492 2.7895,-3.79925 1.1724,-2.21197 0.9725,-4.85801 0.554,-7.24504 -0.3025,-1.76052 -0.6842,-3.59982 -1.6191,-5.13974 -1.4907,-1.97742 -3.601,-3.29327 -5.5645,-4.73614 -1.7221,-1.32238 -2.9371,-3.36818 -2.837,-5.58726 -0.2616,-1.50081 0.778,-2.72278 1.1017,-4.10259 -0.4187,-1.42904 -1.8203,-2.32502 -2.9383,-3.20601 -1.9156,-1.38001 -4.5859,-2.36256 -5.2193,-4.88755 -0.3518,-1.38004 -0.2983,-3.1 1.0113,-3.97392 0.4804,-0.86645 3.3627,-0.31219 1.5095,-1.46709 -1.883,-0.64256 -3.2897,1.31996 -3.884,2.85719 -0.9377,1.36187 0.4637,2.98404 -0.3809,4.25658 -1.1058,1.11081 -2.3782,2.47319 -2.0267,4.18838 0.3899,1.5175 1.6606,2.70249 1.5286,4.39663 0.1477,1.67623 2.4195,2.37938 2.22,4.11551 -1.176,-0.5012 -1.403,-2.55921 -2.774,-3.21221 -1.6681,-1.1504 -3.583,-2.10078 -4.6421,-3.91811 -0.7665,-1.20195 -1.5681,-2.38416 -2.3001,-3.60391 -0.6676,-1.57318 -0.2565,-3.30743 0.2222,-4.8674 0.1719,-1.51901 0.3795,-3.08349 1.4133,-4.3062 1.8235,-2.61092 3.5695,-5.32655 5.9971,-7.43055 2.7164,-2.80857 5.5208,-5.68643 7.0786,-9.33328 0.8729,-1.90153 1.1234,-4.01956 1.5023,-6.05907 0.5395,-3.34449 -0.7773,-6.95537 -3.5347,-8.98343 -2.0562,-1.75667 -4.4865,-3.58522 -7.2967,-3.53828 z m -80.9424,1.35909 c -0.1159,0.4057 -0.2889,0.79292 -0.5033,1.1591 0.2144,-0.36618 0.3874,-0.7534 0.5033,-1.1591 z m 12.3817,1.0852 c 0.2031,0.0124 0.5448,1.06253 -0.1147,0.43409 -0.01,-0.32717 0.047,-0.43821 0.1147,-0.43409 z m 43.6831,0.72554 c -0.2833,-9.9e-4 0.048,0.76921 0.5064,0.33125 -0.2491,-0.24507 -0.4119,-0.33092 -0.5064,-0.33125 z m -57.3205,0.38034 c -0.141,0.16027 -0.2886,0.31427 -0.4408,0.46199 0.1523,-0.14781 0.2997,-0.30162 0.4408,-0.46199 z m 52.9771,1.30173 c 0.438,0.0511 0.7803,0.36919 0.064,0.81855 -0.2141,0.12245 -0.5024,0.12052 -0.7013,-0.0341 -0.3344,-0.61927 0.1993,-0.8355 0.6372,-0.78445 z m -41.4962,1.38699 c 0.3392,0.0262 1.0736,0.58369 0.6171,0.93328 l -0.213,-0.0698 -0.2454,-0.17725 c -0.4234,-0.5262 -0.3622,-0.70196 -0.1587,-0.68627 z m 33.782,1.12965 c -0.2562,0.98761 -1.0523,1.51001 -1.2651,2.76779 -0.2128,1.25778 0.384,3.34906 -0.8335,4.5744 0.3015,1.11843 1.6259,-0.93264 1.5642,-2.1301 -0.063,-1.19747 -0.3515,-3.62898 1.124,-2.21847 0.012,1.38399 0.2227,2.89591 -0.2848,4.2323 -0.603,1.50239 -2.0478,2.17436 -3.4917,2.63601 -1.7461,1.04012 -3.7017,1.60182 -5.6302,2.19367 -1.512,0.62773 -2.9543,1.73315 -3.6861,3.21375 -0.418,1.23034 -0.2557,3.3692 1.5229,3.12436 0.9975,0.5526 -1.0897,1.50368 -1.6562,1.01027 v 0 c -1.6523,-1.06411 -1.6825,-3.46611 -0.9979,-5.11131 1.2709,-2.11656 3.6519,-3.24623 5.9815,-3.77548 2.2426,-0.74684 4.2974,-2.41641 5.2571,-4.57853 0.013,-1.32095 -0.3109,-2.69497 0.08,-3.9734 0.3644,-0.94797 1.5308,-1.75413 2.3146,-1.96526 z m -26.5323,0.0868 c 1.0879,1.40533 -0.3922,3.19156 0.5034,4.74286 0.4699,1.27191 0.3043,2.8105 -0.5364,3.88762 -0.2522,0.20889 -0.692,0.4401 -0.9995,0.20102 0.1908,-1.59605 0.7633,-3.28614 0.9023,-4.9537 0.077,-1.11955 0.1179,-3.06522 -0.9565,-2.56832 0.5421,-0.30578 0.8405,-1.01552 1.0867,-1.30948 z m -7.6879,0.17363 c 0.2778,0.06 0.4049,0.82344 -0.3658,0.71934 l -0.036,-0.21756 v -5.2e-4 c 0.1184,-0.41091 0.2758,-0.52854 0.402,-0.50126 z m 47.8886,0.12609 c 0.035,0.10741 0.089,0.22846 0.1653,0.36484 0.09,0.17284 0.175,0.34768 0.2527,0.52451 -0.078,-0.17683 -0.1617,-0.35167 -0.2521,-0.52451 -0.076,-0.13638 -0.131,-0.25743 -0.1659,-0.36484 z m -4.0897,2.06447 c 0.1612,-0.0344 0.3756,0.0873 0.6547,0.45166 0.3187,1.46618 1.0896,2.90305 1.2294,4.41265 -0.2058,0.7328 -1.0432,2.0904 -1.9544,1.54461 -1.3181,-1.08254 0.7058,-2.81269 -0.2656,-4.20957 -0.1539,-0.5865 -0.1478,-2.096 0.3359,-2.19935 z m -34.7023,0.47439 c 0.1067,0.0182 0.2521,0.21233 0.4357,0.67852 0.4765,1.50482 0.9661,2.97682 1.9776,4.21679 0.4695,1.0219 -0.2106,1.75334 -1.1761,0.95188 -1.8306,-0.48997 -0.6787,-2.56024 -1.1028,-3.85093 -0.4222,-0.52131 -0.4543,-2.05074 -0.1344,-1.99626 z m -2.3528,1.45935 c 0.074,-0.0312 0.1444,0.12704 0.2015,0.58911 0.1927,0.16461 -0.6064,2.88393 -0.6831,1.71565 0.01,-0.41335 0.2602,-2.21131 0.4816,-2.30476 z m 39.3289,5.06842 c 0.1762,0.0187 0.2327,0.26537 0.01,0.80564 -0.9678,1.41812 -0.7436,3.04801 -0.8951,4.6085 -0.511,0.59752 -1.2223,1.67924 -2.0701,1.63504 0.5751,-1.2148 1.5822,-3.02939 0.4491,-4.13411 -0.8446,-0.70344 1.46,-1.57081 1.7781,-2.3518 0.2558,-0.37241 0.5519,-0.58196 0.7282,-0.56327 z m -46.1884,1.42317 c 1.5617,-0.058 0.8596,2.74619 -0.4997,2.58227 -0.1466,1.30152 -1.1822,1.29968 -2.2211,0.89814 -1.8589,-0.0727 0.5626,3.64571 -1.6712,2.74712 -0.3288,-1.23891 -0.7799,-2.73936 -2.4743,-2.25361 -1.2487,0.4488 -2.4125,-1.77939 -0.5297,-1.19993 1.606,0.38353 3.0215,-1.07686 4.6395,-0.50281 1.4394,0.12214 -0.8569,-2.27131 1.0765,-1.6769 0.8287,0.71498 1.4485,0.36909 1.68,-0.59428 z m 50.8129,2.84427 c -0.06,0.15184 -0.1658,0.30689 -0.3292,0.4656 0.1634,-0.15871 0.2693,-0.31376 0.3292,-0.4656 z m -7.3835,5.84771 c 1.0228,0.0134 0.7725,2.52727 -0.096,3.14916 -1.1033,0.97334 -1.0418,3.1085 -2.3471,3.61528 l -0.169,-0.0811 v -5.2e-4 c -0.3058,-1.1652 0.8332,-2.53456 -0.8537,-3.01428 0.7067,-1.24507 2.8558,-1.82302 2.9476,-3.50832 0.2001,-0.11295 0.3722,-0.16211 0.5184,-0.16019 z m -66.8104,1.43867 c -0.4009,0.009 -0.7996,0.0376 -1.155,0.0434 -1.4242,-0.0236 -2.9452,0.0369 -4.0757,1.02939 -2.1006,1.35669 -3.8691,3.16313 -5.994,4.49275 -1.3318,0.92218 -2.3684,2.31973 -4.0685,2.56057 -2.1973,0.96682 -4.6643,0.71932 -6.9292,1.38079 -1.6817,0.52306 -2.4562,2.18578 -2.7084,3.79512 -0.3855,1.85394 -1.9034,3.11473 -3.4701,4.00079 -1.6037,1.17253 0.5669,1.80343 1.6118,1.30741 0.5078,1.34351 -2.5246,2.00843 -1.5947,3.79925 0.2519,1.8572 0.1387,3.75517 -0.4749,5.533 -0.5389,0.9415 -0.3258,2.67098 1.0681,1.78697 1.9235,-0.8021 3.8403,-1.76162 5.4731,-3.02979 1.3327,-0.74665 3.2698,-1.30255 3.6602,-2.96933 -0.1302,-1.67049 0.7843,-3.0349 1.6221,-4.37544 0.9468,-0.50721 1.7465,-1.23528 0.8739,-2.31924 -0.6437,-1.52438 -0.2401,-3.34183 1.0366,-4.41368 1.259,-0.96079 0.08,1.60627 0.1576,2.22518 0.059,1.79327 1.5404,3.09141 2.3451,4.5899 1.0931,0.88848 0.5831,2.64321 1.2738,3.49075 1.5129,-0.78644 2.0878,-2.73818 1.6134,-4.32429 -0.4123,-1.32393 -1.4444,-3.04728 -0.5928,-4.28966 0.1597,1.51451 1.0597,2.6712 2.1658,3.66283 1.9508,-0.40677 0.9223,-3.04133 0.8113,-4.44418 -0.1715,-1.63052 -0.1156,-3.87119 1.6309,-4.63641 0.8369,0.23148 -0.2094,1.61042 -0.2625,2.35748 -0.1475,0.99312 0.3648,2.02361 0.1628,3.04065 -0.3531,0.76541 0.3277,2.05282 0.6532,0.59324 0.3521,-1.69983 -0.4691,-3.78766 0.8774,-5.17436 1.0892,-1.32121 3.1302,-0.97644 2.695,1.02113 -0.2657,0.4502 0.09,1.85178 -0.6444,1.68413 -1.4152,-0.0513 -1.2968,2.02886 -0.3008,2.57659 -0.3124,0.5884 -1.2283,2.33927 0.4279,2.45566 0.8266,0.5198 3.1875,-1.73346 2.4551,0.10284 -0.8313,1.79374 -0.9113,4.05106 0.2837,5.70559 1.7006,2.54097 4.075,4.54451 5.7826,7.08587 0.3051,0.28445 0.8253,1.09501 1.2842,0.56793 0.7777,-1.28484 0.9609,-2.83781 1.4092,-4.25194 -0.516,-1.32048 -2.5278,-2.4134 -1.4201,-4.01732 0.4672,-1.19298 -0.7203,-0.86008 -0.5327,0.13435 0.035,0.94516 -0.8531,1.86009 -1.1576,0.51987 -0.3571,0.53769 -1.1816,1.72492 -0.5535,0.33073 1.1299,-1.13757 -0.5131,-3.53753 1.4454,-3.88607 0.3134,1.0787 1.1489,2.18513 1.9808,2.98742 -0.3276,1.74745 1.8371,1.31544 1.8268,-0.22066 0.8083,-1.94818 2.6754,-3.18528 3.5667,-5.06843 -0.117,-1.98531 -1.977,-3.12871 -3.1745,-4.48913 -1.6461,-1.69179 -3.4586,-3.2091 -5.4049,-4.53822 -1.9062,-1.77167 -2.1041,-4.53969 -3.0943,-6.81819 -0.1583,-1.47205 -1.3834,-1.62213 -2.5859,-1.59525 z m 0.7017,1.14721 c 0.8965,-0.10674 2.2811,1.3086 0.7876,0.99736 -0.6971,-0.18707 -2.7949,0.43378 -1.2888,-0.64027 0.1135,-0.2267 0.2944,-0.33245 0.5012,-0.35709 z m 54.4789,0.73639 c 0.039,0.0247 -0.034,0.19325 -0.2972,0.58033 -0.4683,1.38035 0.5041,2.90667 0.1478,4.38319 1.2936,0.71211 0.1122,2.76175 -0.9472,2.35025 -0.1982,-0.95588 0.6969,-2.49911 -0.9322,-2.7125 0.327,-0.95598 1.3698,-1.73885 0.8185,-2.92488 -0.026,-0.52652 1.0934,-1.75045 1.2103,-1.67639 z m -6.4699,0.90744 c 0.4779,-0.0327 1.454,1.40933 0.4981,0.72037 -0.4321,-0.1915 -1.9217,-0.45619 -0.586,-0.69298 0.027,-0.0163 0.056,-0.0252 0.088,-0.0274 z m -56.8999,2.98276 c 0.1273,0.0279 0.085,0.21815 -0.3126,0.67387 -0.7833,1.38984 -3.0099,0.52742 -3.5735,2.35541 -0.835,1.20925 -2.7013,0.76586 -3.6183,1.90686 -0.6392,0.31371 -1.5983,0.64541 -2.2723,0.63303 1.0304,-0.89932 2.5222,-1.57728 3.8427,-2.13837 1.6105,-0.85426 3.0724,-1.96007 4.7429,-2.69389 0.2956,-0.37892 0.979,-0.78341 1.1911,-0.73691 z m 91.105,1.62471 c 0.258,1.33612 -0.8414,2.86304 -0.8061,4.33669 -0.3718,2.05345 0.098,4.12064 0.9229,6.00635 0.4843,0.70516 0.8203,2.14735 -0.6294,1.56786 -0.7949,-1.42506 -1.3061,-3.04744 -1.5637,-4.65708 0.074,-2.50561 0.1225,-5.40396 2.0763,-7.25382 z m -31.7407,1.26194 c 0.1774,-0.02 0.199,0.13719 -0.072,0.62942 -0.1183,0.80194 -0.745,1.19245 -1.509,0.86713 -0.7508,-0.0279 -1.8055,-0.29414 -0.3881,-0.46612 0.4357,-0.0839 1.5793,-0.98634 1.9694,-1.03043 z m -21.1325,2.32389 c -0.088,1.39427 -1.0401,2.87418 -2.4211,3.34863 -0.5834,0.2137 -1.2478,0.31686 -1.8474,0.10542 -1.3412,-0.50152 1.5958,-0.6197 1.8345,-1.33893 1.0826,-0.37477 1.5559,-1.772 2.434,-2.11512 z m 1.6645,0.13436 c 0.1475,-0.004 0.262,0.19784 0.3033,0.74879 0.2584,1.096 -1.4547,2.12711 -1.1916,2.77709 0.9419,-1.10101 2.2558,-0.25099 3.2173,-1.20768 0.6848,0.76497 -0.054,2.42509 -1.2102,2.07533 -1.1142,-0.49593 -2.4069,0.0331 -3.5936,-0.52555 -2.0177,-0.22457 1.2008,-1.4612 1.4511,-2.39262 0.2149,-0.46518 0.6991,-1.46728 1.0237,-1.47536 z m 12.5119,0.10852 c 0.051,0.0217 0.034,0.19269 -0.1132,0.6072 -0.096,1.20425 2.096,2.05978 0.3793,3.03857 -0.2526,0.0601 -0.2391,0.7671 -0.5405,0.5457 0.1841,-1.10532 -0.3876,-2.22431 -0.4098,-3.18378 0.1243,-0.38263 0.5708,-1.05553 0.6842,-1.00769 z m 40.2027,0.65629 c 0.096,0.0127 0.1271,0.23664 0.014,0.81132 -0.1361,1.91741 -0.3101,3.92386 0.4501,5.74228 0.1171,0.23032 0.1684,1.03776 -0.2905,0.49248 -0.8146,-1.70645 -1.4098,-3.64484 -0.9095,-5.54075 0,-0.53767 0.5246,-1.53323 0.7354,-1.50533 z m -24.073,3.96772 c 0.1813,0.0218 0.2619,0.27089 0.092,0.89555 -0.1398,1.42123 -0.069,3.44884 -1.7926,3.89743 -1.7787,0.22386 -3.626,0.30354 -5.2617,1.13999 -0.3374,0.12118 -0.7147,0.32717 -1.0801,0.18345 0.1427,-1.55733 2.8959,-1.7728 4.268,-2.03812 1.9299,0.42918 2.5799,-1.46361 2.7254,-2.97656 0.1657,-0.5426 0.747,-1.13811 1.049,-1.10174 z m -11.2184,0.0165 c -0.7562,-0.0707 -1.743,0.14706 -1.7203,0.8692 0.5948,0.39397 1.4185,0.17725 2.0567,-0.008 0.9454,-0.43153 0.4198,-0.79028 -0.3364,-0.86093 z m -45.237,0.10491 c 0.062,0.018 0.099,0.18799 0.048,0.59893 -0.012,0.13029 0.2514,0.97491 -0.2025,0.54363 -0.249,-0.48636 0.016,-1.18229 0.154,-1.14256 z m 0.6687,2.09289 c 0.2248,-0.0349 0.4776,0.14424 0.6656,0.69143 0.4251,0.52189 -0.022,1.65489 -0.7432,0.99891 -0.7744,-0.50169 -0.417,-1.61355 0.078,-1.69034 z m 82.2787,0.68781 c 0.3232,-0.0288 1.2487,1.66817 1.6474,1.95182 0.5156,1.25455 2.9893,1.51696 2.7998,2.82774 -0.1822,0.23608 -0.4672,0.36963 -0.7477,0.19172 -1.676,-0.88808 -3.614,-2.17624 -3.7802,-4.25091 -0.068,-0.50935 -0.027,-0.71077 0.081,-0.72037 z m -106.6421,0.10387 c 0.2734,0.0345 0.4202,0.3689 0.2139,1.08676 -0.1783,0.81246 -0.9254,1.87852 -1.8681,1.77147 -2.066,0.059 -0.7942,-2.56516 0.6791,-2.14716 0.3017,-0.48049 0.7017,-0.74561 0.9751,-0.71107 z m -4.147,0.46096 c 0.1744,-0.005 0.3346,-0.001 0.4702,0.009 0.9779,1.22649 -1.672,1.42855 -2.3507,1.93477 l -0.2507,-0.093 c -1.0036,-1.3646 0.91,-1.81443 2.1312,-1.85053 z m 6.2001,4.67155 c -0.036,0.36266 -0.1401,0.66975 -0.293,0.93534 0.1529,-0.26559 0.2568,-0.57268 0.293,-0.93534 z m 24.4026,1.8867 c 0.2245,0.0196 0.6744,0.84957 -0.036,0.64854 -0.1213,-0.49894 -0.066,-0.65744 0.036,-0.64854 z m 48.5676,1.8092 c 0.3391,0.78753 2.072,2.77775 0.8646,3.05924 l -0.1044,-0.19999 h -5e-4 c -0.5237,-0.61789 -1.8087,-2.68041 -0.7597,-2.85925 z m 32.3825,1.01027 c 0.4804,0.0344 1.1253,0.42294 1.3478,0.97772 0.883,1.25041 3.0195,0.69211 3.2421,2.60552 1.2555,1.33033 -0.1243,0.70475 -1.0211,0.78238 -1.889,0.10581 -3.1187,-1.7607 -3.9284,-3.21995 -0.4364,-0.86068 -0.1207,-1.18009 0.3596,-1.14567 z m -41.1938,0.13281 c 0.4891,-0.0136 1.9224,0.97344 0.2945,0.83819 -0.5438,-0.61896 -0.5168,-0.83201 -0.2945,-0.83819 z m -1.9167,0.57929 c 0.6108,-0.0316 1.3797,0.21377 0.9353,0.85473 -0.3007,0.098 -0.6253,0.0218 -0.9224,-0.0491 -1.0763,-0.46566 -0.6237,-0.77401 -0.013,-0.80564 z m 59.4904,0.0269 c 0.1238,0.0175 0.3054,0.12094 0.5561,0.34623 1.3516,0.949 3.1505,0.89316 4.4839,1.76889 0.5108,0.27822 1.2564,2.2238 0,1.12965 h -5e-4 c -1.2504,-1.02454 -3.1646,-0.35126 -4.3548,-1.53428 -0.676,-0.24588 -1.2212,-1.78612 -0.6847,-1.71049 z m -46.5067,0.61444 c 1.5653,0.26975 1.9055,2.24942 3.035,3.17655 0.272,0.95532 1.8607,1.72042 1.9208,2.21536 l -0.308,-0.12195 h -5e-4 -6e-4 c -0.8492,-0.0205 -1.0356,-0.40587 -1.2164,-1.09658 -0.8172,-0.0678 -1.0074,1.40421 -1.1317,-0.0346 -0.046,-0.90614 -0.9881,-1.4157 -1.2744,-0.29611 -0.4884,-0.63708 0.4237,-3.27983 -0.9942,-1.95388 -0.4148,0.0555 0.2526,-1.43568 -0.03,-1.88877 z m 34.7974,0.0723 c 1.3807,0.51622 2.4367,1.60361 3.4695,2.59468 0.9658,0.7771 3.5926,1.17066 3.452,2.38848 l -0.1876,-0.0501 -0.2537,-0.0832 c -1.4215,-0.19849 -2.8751,-0.50732 -3.9233,-1.59474 -1.0891,-0.80448 -2.301,-1.99861 -2.5569,-3.2551 z m -51.0553,0.30799 c 0.1286,-0.0113 0.3069,0.0241 0.541,0.12764 0.7808,-0.20019 3.0214,0.90591 1.1467,1.02888 -0.3776,0.004 -0.7588,-0.0175 -1.1265,-0.10748 h -5e-4 c -0.7485,-0.0728 -1.1181,-0.99996 -0.5607,-1.04904 z m -10.156,4.17494 c 0.1814,-0.0136 0.3797,0.0184 0.5943,0.10697 0.5989,0.58506 -1.1216,1.20474 -0.7726,2.09755 0.043,0.52191 -0.1234,1.95802 -0.9322,1.24385 -0.5996,-1.01117 -0.1592,-3.35312 1.1105,-3.44837 z m 81.1661,0.79737 c 0.503,0.0342 1.7836,1.23697 1.9699,1.73995 1.1828,2.6308 1.5051,5.63099 1.0408,8.4677 0.14,0.20884 -1.2695,2.46489 -0.9752,1.34875 0.8824,-2.29121 0.1537,-4.74805 -0.2397,-7.06107 -0.3246,-1.49867 -1.0137,-2.88111 -1.9705,-4.07055 -0.074,-0.31762 0.01,-0.43617 0.1747,-0.42478 z m -118.323,1.68827 c 0.1928,0.0151 0.2982,0.23664 0.065,0.77618 -0.045,0.17877 -0.4009,0.80573 -0.5927,0.35863 -0.3574,-0.61096 0.2062,-1.15996 0.5276,-1.13481 z m 111.7022,0.33331 c 1.5555,0.0398 2.7168,1.56873 3.421,2.82929 0.8168,1.574 0.982,3.44563 0.7168,5.17849 -0.07,0.42734 -0.6241,0.58258 -0.9044,0.23771 -0.4929,-1.54815 -0.1646,-3.33918 -1.0413,-4.81727 -0.2688,-1.42741 -2.3553,-2.45865 -2.5083,-3.41582 0.1072,-0.0111 0.2125,-0.015 0.3162,-0.0124 z m 4.2561,0.7984 c 0.1563,0.0272 0.3375,0.22414 0.479,0.65268 1.3769,1.9179 1.6608,4.54655 1.0641,6.8001 -0.3383,0.71569 -0.4681,2.19 -1.3219,2.37505 -0.2756,-1.42842 0.5843,-2.88385 0.5384,-4.36304 0.3435,-1.60461 -0.55,-3.01747 -1.0314,-4.46743 -0.1793,-0.61575 0.011,-1.0427 0.2718,-0.99736 z m -8.1943,0.94206 c 1.6229,0.31518 3.2333,1.20471 4.0622,2.69545 0.4804,1.05709 2.2342,3.019 1.0646,3.915 -0.1921,0.0323 -0.4077,-0.0177 -0.5416,-0.16743 -0.9186,-1.19534 -0.9883,-2.80703 -2.0443,-3.84938 -0.5995,-1.01331 -2.2879,-1.7144 -2.5409,-2.59364 z m -81.0964,0.59635 c 0.3249,0.0314 0.615,0.28492 0.8615,0.95033 1.2628,-0.12223 2.5525,0.91055 3.2111,1.4764 -1.463,1.00324 -3.0405,-0.50895 -4.4948,0.14521 -1.0535,1.30279 -2.843,0.14079 -4.116,0.97358 -0.9561,0.45125 -2.0347,0.52515 -3.0644,0.3266 -2.4306,-0.3241 -4.9935,-0.31787 -7.2218,-1.47795 -2.2746,-0.60647 0.9087,-1.35232 1.8376,-0.83199 2.0992,0.0389 4.1019,1.04601 6.2027,0.86351 1.358,-0.61649 2.7493,-1.14826 4.2261,-1.42782 0.9603,-0.0606 1.8434,-1.06691 2.558,-0.99787 z m 91.3381,0.11989 c 1.0267,0.50648 1.4196,2.15711 1.588,3.31866 0.052,1.9105 -0.09,3.89129 -0.7596,5.69216 -0.401,0.62037 -1.4151,1.9392 -2.2314,1.39578 0.2764,-1.53697 1.6385,-2.66525 1.8867,-4.24264 0.625,-2.06523 -0.192,-4.1369 -0.4837,-6.16396 z m -126.384,5.44876 c 0.132,-0.0307 0.3294,0.0839 0.5969,0.43667 1.0078,0.19321 1.1285,1.86089 -0.1142,1.24747 -0.6826,-0.1925 -0.8787,-1.59191 -0.4827,-1.68414 z m 43.3436,3.7977 c 0.071,-0.0122 0.097,0.0328 0.058,0.15813 -0.6121,0.94381 0.1812,3.05297 -1.1322,3.13263 l -6e-4,-0.16278 0.015,-0.19844 5e-4,5.2e-4 c 0.3667,-1.14837 -1.8586,-0.22958 -0.5932,-1.39785 0.2117,-0.34891 1.3467,-1.47927 1.6526,-1.53221 z m 30.1956,0.0326 c 1.2787,0.64658 0.4826,2.54903 0.2274,3.63802 -0.857,2.33135 -2.6051,4.37597 -4.8752,5.41311 -0.1579,0.0466 -0.3984,0.0827 -0.5044,-0.0889 v -5.1e-4 c 1.0349,-1.27374 2.5763,-2.27755 3.3414,-3.81527 0.8993,-1.60197 1.2629,-3.43822 1.8108,-5.14646 z m -2.9177,0.23564 c 1.124,0.91137 0.2429,2.72085 -0.171,3.85558 -0.7766,1.64871 -1.8909,3.18129 -3.3595,4.27623 -0.1134,0.0865 -0.3369,0.15849 -0.4548,0.0305 0.4615,-1.34225 2.0791,-2.42451 2.6293,-3.89847 1.0001,-1.20558 0.4865,-3.39177 1.356,-4.26383 z m 5.1904,0.45734 c 0.6871,0.0437 0.23,2.15517 0.061,2.8205 -0.5217,2.41023 -2.2177,4.44364 -4.2783,5.72368 -0.101,0.0234 -0.3688,0.19641 -0.4806,0.0382 0.7645,-1.20763 1.9696,-2.13871 2.5823,-3.4742 0.9434,-1.56817 1.5499,-3.31366 1.9621,-5.08858 0.056,-0.0165 0.1077,-0.0226 0.1535,-0.0196 z m 1.8691,0.61185 c 1.0253,0.56583 -0.07,2.68079 -0.3979,3.76463 -0.7824,1.8201 -1.8783,3.51963 -3.1651,5.02088 -0.1907,0.16802 -0.548,0.31849 -0.7447,0.0682 0.065,-1.24241 1.4758,-2.0511 2.128,-3.07578 1.0885,-1.75386 1.7995,-3.76086 2.1797,-5.77794 z m 2.1276,0.52555 c 0.402,1.31936 -0.3859,2.77553 -0.7912,4.06228 -0.679,1.40815 -1.3076,3.01364 -2.6236,3.9455 l -0.185,-0.007 -0.1799,-0.12867 c 0.1838,-1.51472 1.9661,-2.58659 2.3389,-4.18114 0.6749,-1.09636 0.5043,-2.99323 1.4408,-3.69073 z m -10.8934,0.14366 c 0.3441,0.0525 0.1819,1.54101 -0.2109,1.98954 -0.4754,1.05381 -1.1626,2.71024 -2.5926,2.46548 0.8331,-1.25228 1.7832,-2.47808 2.2805,-3.93722 0.2374,-0.39325 0.4083,-0.53531 0.523,-0.5178 z m -1.3653,0.58498 c -0.3644,0.87558 -0.9664,2.40445 -1.9441,2.52181 0.5571,-0.7511 1.161,-2.47903 1.9441,-2.52181 z m 13.9464,3.16621 c 0.12,-0.007 0.2515,0.0294 0.3984,0.12041 -0.1699,1.01176 -0.138,2.21548 -0.6139,3.0272 -0.2571,0.17569 -0.6233,0.44654 -0.9477,0.28991 -0.6692,-0.0647 -2.4496,-0.36542 -0.9953,-0.98289 1.0447,-0.24303 1.3189,-2.40542 2.1585,-2.45463 z m -37.5372,2.40244 c 0.3232,-0.0316 0.5119,0.1922 0.1777,0.83664 -0.5194,1.09128 -1.8274,1.92851 -3.0463,1.66036 -1.5759,-0.39187 1.5221,-1.06258 1.8826,-1.80092 0.2047,-0.37721 0.6627,-0.66445 0.986,-0.69608 z m 19.605,0.47852 c 1.2444,1.02114 -0.4878,2.8801 -1.2837,3.7569 -0.208,0.083 -0.5971,0.3468 -0.8004,0.1297 1.15,-1.0066 0.9179,-3.2109 2.0841,-3.8866 z m -2.4257,0.18552 c 1.4168,-0.16673 0.5049,2.59628 -0.3307,3.27218 -0.306,0.4766 -0.8906,0.7971 -1.4408,0.5131 -0.012,-1.1919 1.5873,-2.36849 1.7715,-3.78528 z m -1.6206,0.12196 c 0.1659,0.0349 0.3239,0.23397 0.4703,0.69039 -0.1538,1.43601 -1.4417,3.19793 -2.9409,3.32903 -0.7127,-0.8087 -3.2676,-0.3925 -1.5421,-1.76116 0.744,-0.77711 2.0023,-2.70134 2.4195,-0.66456 0.528,-0.3266 1.0955,-1.69852 1.5932,-1.5937 z m -13.7061,0.23047 c 0.1816,0.006 0.3547,0.0923 0.5142,0.28784 -0.3939,0.94418 -1.8678,2.09761 -2.9089,1.56166 0.6636,-0.42076 1.6078,-1.87757 2.3947,-1.8495 z m 9.172,0.50178 c 0.6566,1.35763 -1.2972,3.13127 -2.5822,3.06127 -0.7046,-1.8091 -2.9037,-0.9337 -4.3259,-1.3441 0.5566,-1.82416 3.0002,-0.39577 4.3372,-1.111 0.9071,1.4902 1.6845,-0.3137 2.5709,-0.60617 z m -7.6062,0.73071 c 0.2322,0.01 0.3068,0.1939 -0.033,0.65215 -0.3265,0.28071 -0.8419,0.53321 -1.2593,0.29821 0.079,-0.49715 0.9048,-0.96659 1.2919,-0.95036 z m 62.0675,0.16691 c 0.6158,0.16006 0.3571,2.43885 -0.3938,2.82255 -1.6522,1.8569 -3.5425,3.6727 -5.9567,4.4566 -0.1272,0.02 -0.2865,0.039 -0.3907,-0.059 0.1837,-1.3556 2.2052,-1.6253 3.0748,-2.6376 1.4193,-1.1028 2.5831,-2.5659 3.0959,-4.30516 0.24,-0.23805 0.4284,-0.31392 0.5705,-0.27699 z m 0.089,3.92435 c 1.1818,0.5202 -1.078,2.0902 -1.6418,2.7636 -1.3049,1.085 -2.7292,2.043 -4.2607,2.7683 l -0.2894,0.049 -0.2403,-0.034 v -5e-4 c -0.9042,-1.1271 1.9845,-1.7162 2.6593,-2.5042 1.388,-0.8451 2.5593,-1.9786 3.7729,-3.0427 z m -18.4516,1.8696 c 0.266,-0.046 0.5528,0.1128 0.8671,0.5958 0.034,1.768 -1.8745,2.9025 -1.8458,4.7005 0.078,1.7257 -1.1019,2.9839 -1.9916,4.3104 -0.3239,0.6389 -0.6764,1.9545 -1.6625,1.5963 -1.3506,-1.2935 1.0064,-2.8279 0.8734,-4.3093 -0.1666,-1.6888 0.3768,-3.1591 1.7714,-4.1698 0.5823,-0.6034 1.1901,-2.5856 1.988,-2.7239 z m 18.925,0.6145 c 0.7978,1.2146 -1.4849,2.3837 -2.403,3.2023 -1.3554,0.8519 -2.7252,1.7612 -4.2721,2.2226 l -0.2873,0.01 -0.2093,-0.1152 v 0 c -0.156,-1.2814 2.1827,-1.5872 3.099,-2.3549 1.551,-0.7132 2.7664,-1.9071 4.0727,-2.962 z m -104.6329,1.7466 c 0.9069,0.061 1.8523,0.5386 2.8168,0.3287 -0.7549,0.8213 -1.6946,2.5748 -3.0117,1.6815 l -0.2216,-0.1488 c -0.8885,-0.4663 -2.0615,-1.2855 -0.477,-1.743 0.293,-0.1131 0.5912,-0.1388 0.8935,-0.1184 z m -3.3378,1.7038 c 0.1481,0.015 0.327,0.096 0.5333,0.2646 0.799,0.6753 1.0303,2.108 -0.4522,1.2418 -0.7866,-0.4264 -0.7228,-1.5736 -0.081,-1.5064 z m 63.5046,0.2186 c -1.4779,0.591 -2.7704,1.7061 -4.4271,1.8205 -1.2671,0.6461 -2.6004,-0.9983 -3.5192,-0.447 -1.0519,2.7499 -0.8764,5.771 -0.8464,8.6651 0,2.3984 0.5771,4.8269 0.1157,7.2037 -0.5144,1.4485 -2.0007,2.4225 -3.5481,2.1498 -3.1725,0.1279 -6.3173,-0.4195 -9.3766,-1.2155 -2.7089,-0.4114 -5.576,-0.6906 -8.2342,0.1256 -2.7841,1.215 -3.9184,4.38229 -6.3546,6.06059 -1.3835,1.0153 -3.3533,2.1311 -3.251,4.1057 0.042,1.9845 0.1385,3.983 -0.2878,5.9376 -0.3544,1.3742 -0.1521,3.2925 1.7363,2.9265 0.9052,0.022 1.8094,-0.053 2.7094,-0.139 v 10e-4 c 1.8629,-0.2604 3.7866,-0.088 5.6157,-0.5297 1.4943,-0.8178 1.5224,-2.7294 2.1022,-4.1439 0.6766,-1.5494 0.8189,-3.2124 -0.3649,-4.5527 -0.4902,-1.7586 3.4337,-1.4137 2.0707,-3.3011 -0.5815,-0.579 -2.3755,-2.2505 -0.4356,-1.9777 1.7247,-0.015 2.306,1.9098 3.0742,3.1141 0.7842,1.0289 2.0584,2.8684 3.4665,1.6531 1.4523,-0.06 2.9564,0.3115 4.4069,-0.1121 1.5475,0.4706 3.1031,-0.4185 4.6721,0.154 1.4598,0.5936 2.7198,-0.7636 4.116,-0.1148 0.983,0.1856 2.0187,-0.1616 2.9828,0 1.3234,0.5306 2.8413,1.4421 4.2204,0.573 0.6487,-0.7562 1.6059,-1.474 1.9032,-2.4324 0.039,-1.7574 -0.099,-3.5289 0.1096,-5.2751 0.5141,-1.46179 1.774,-2.52669 2.066,-4.09379 0.8352,-1.9252 -0.5101,-4.0758 0.5307,-5.9531 0.5622,-1.2551 2.449,-2.7639 1.355,-4.1693 -0.6765,-1.4564 -2.0574,-2.3296 -2.6908,-3.7424 -0.829,-1.2994 -2.5711,-1.8667 -3.9171,-2.2944 z m 44.1591,0.1416 c 0.07,-0.01 0.1222,0.01 0.1514,0.053 -0.9368,1.2408 -2.4365,1.8783 -3.731,2.6753 -0.7725,0.2124 -1.7475,1.0907 -2.4836,0.8904 0.068,-1.3528 2.3271,-1.6724 3.421,-2.327 0.7711,-0.1626 2.1524,-1.2515 2.6422,-1.2914 z m -43.0754,1.9936 c 1.62,0.099 2.6273,1.689 3.1709,3.0887 0.3594,0.4018 1.321,2.9154 0.2496,2.403 -1.1116,-1.0965 -1.5714,-2.5844 -2.3839,-3.87 -0.3496,-0.5508 -2.5186,-0.8743 -1.3689,-1.6211 0.1135,-0.01 0.2243,-0.01 0.3323,-6e-4 z m -6.4544,0.2259 c 0.4216,0.018 0.8239,0.1907 0.7907,0.6092 -0.3321,0.2466 -0.741,0.2831 -1.1302,0.185 -1.1193,-0.4203 -0.3632,-0.8235 0.3395,-0.7942 z m 48.8249,0.7999 c 0.5165,0.015 -1.2096,1.2491 -1.5306,1.5105 -1.45,1.142 -3.3025,1.6181 -5.085,1.941 l -0.2847,-0.014 h -5e-4 c -1.3385,-1.1834 1.6446,-1.1589 2.3445,-1.7043 1.4831,-0.5649 3.0239,-0.948 4.4225,-1.7187 0.055,-0.01 0.099,-0.015 0.1338,-0.014 z m -43.6128,0.5204 c 0.2369,-0.022 0.5207,0.061 0.818,0.3013 1.35,0.9098 2.2645,2.2736 2.6825,3.8116 0.3985,0.1997 1.525,1.76 0.429,0.907 -1.7854,-0.5788 -2.7803,-2.0511 -3.897,-3.4283 -1.0323,-0.5149 -0.7433,-1.525 -0.033,-1.5916 z m 24.5267,0.1297 c 2.0876,0.056 -0.2222,2.3626 -0.569,3.3037 -0.2178,0.3316 -0.6336,0.5432 -1.0154,0.3498 0.046,-1.1461 1.0563,-2.518 1.5844,-3.6535 z m 2.036,1.4216 c 0.6984,1.1852 -0.9777,2.4736 -1.7363,3.3357 -0.2089,0.1322 -0.5222,0.4343 -0.7881,0.2455 0.4998,-1.1866 1.698,-2.5031 2.5244,-3.5812 z m 15.6342,0.861 c -0.6084,1.4389 -2.2716,2.1828 -3.6913,2.7016 -1.0186,0.2207 -2.1531,1.047 -3.0938,0.9989 0.068,-1.2719 1.9355,-1.8351 3.0556,-2.1978 1.3186,-0.2824 2.5457,-0.9806 3.7295,-1.5027 z m -43.4769,0.1503 c 1.4812,0.1123 3.0821,1.4684 2.7543,2.9606 -0.3083,0.2262 -0.7374,0.1393 -1.0376,-0.049 -0.7478,-0.6385 -2.0403,-2.1568 -1.7167,-2.9115 z m 29.0137,0.3974 c 0.1806,-0.025 0.2832,0.1644 0.1876,0.7447 -0.6159,1.5208 -1.8146,2.7296 -3.05,3.7719 l -0.2444,0.1116 -0.1555,-0.058 c 0.2632,-1.2437 1.6616,-2.239 2.2711,-3.4587 0.173,-0.4286 0.6902,-1.0687 0.9912,-1.1111 z m -33.3411,0.4915 c 0.4428,-0.064 1.4992,0.7872 0.1452,0.5529 l -0.2713,-0.1095 v -6e-4 c -0.1008,-0.2987 -0.021,-0.4215 0.1261,-0.4428 z m 0.387,1.3766 c 0.2704,-0.09 1.1877,0.5527 0.045,0.3902 -0.1539,-0.2494 -0.1356,-0.3603 -0.045,-0.3902 z m 3.175,0.6568 c 0.2945,-2e-4 0.9351,0.9011 1.4578,1.0723 1.5418,0.6166 0.4624,2.625 -0.8361,1.3736 -0.9245,-0.2984 -1.4942,-0.8361 -0.7653,-1.7332 -0.053,-0.5262 0.01,-0.7125 0.1436,-0.7127 z m 41.273,0.046 c 0.1293,0.013 0.2459,0.048 0.3462,0.1132 -1.0384,1.3799 -2.7152,1.8891 -4.1388,2.7414 -0.8,0.3581 -1.6591,1.4234 -2.5554,1.3106 0.2895,-1.3703 1.7952,-2.1971 2.9564,-2.8531 0.9556,-0.3345 2.4864,-1.3991 3.3916,-1.3121 z m -11.2712,1.0589 c 0.5959,0.1223 0.2386,1.9871 -0.6242,2.1916 -0.4656,0.3275 -1.0962,1.1388 -1.7317,0.8986 -0.8619,-0.9577 1.3131,-1.9457 1.7854,-2.8546 0.2445,-0.1992 0.433,-0.2638 0.5705,-0.2356 z m -33.3716,0.096 c 0.4409,-0.038 1.7614,0.4709 0.2889,0.4873 -0.5083,-0.3403 -0.4893,-0.4702 -0.2889,-0.4873 z m 3.0143,2.0154 c 1.675,0.1532 1.7486,3.445 -0.035,2.8148 h -5e-4 c -0.043,-0.8935 -0.2807,-2.1699 -0.3209,-2.8014 0.1258,-0.02 0.2443,-0.024 0.356,-0.013 z m 13.3966,1.4712 c 0.082,0.01 0.1631,0.031 0.2429,0.063 -0.019,0.931 0.9115,1.5507 0.8568,2.419 -0.064,0.9018 -0.3352,2.1291 0.8945,2.1725 -0.2911,0.5664 0.3269,2.46719 -0.2765,2.24379 l -0.1173,-0.1277 -0.1307,-0.1658 h 5e-4 c -0.4497,-1.58229 -1.8172,-2.39469 -2.6143,-3.75539 -1.4705,-0.7577 -0.086,-2.9993 1.1441,-2.8494 z m -10.4423,0.8397 c 0.066,-0.011 0.2329,0.043 0.5375,0.1902 0.5597,0.2184 3.1716,0.7804 2.0272,1.3286 -0.2719,-0.01 -0.5445,-0.041 -0.8082,-0.1085 -0.4414,-0.1062 -2.0428,-1.3636 -1.7565,-1.4103 z m 0.6005,2.0557 c 0.2447,0.027 1.0574,0.7154 0.034,0.2605 -0.1338,-0.2051 -0.1151,-0.2694 -0.034,-0.2605 z m -1.127,6.00279 c 0.783,-0.036 1.4957,0.1615 1.2572,1.142 -1.5574,0.7202 -3.0978,2.0179 -4.9144,1.7766 -1.3701,-0.038 -0.9549,-1.424 0.2563,-1.066 1.1525,-0.074 0.5589,-2.1798 2.1053,-1.6532 0.3306,-0.072 0.8257,-0.1777 1.2956,-0.1994 z m -15.8208,0.895 c 0.6024,-9e-4 1.1498,0.1582 1.5627,0.6883 -0.8709,0.754 -2.7031,0.3507 -3.9171,0.7395 -0.2759,0 -0.5554,0 -0.8268,-0.051 h -10e-4 c -1.2912,-0.017 -1.2336,-1.6244 0.086,-1.0108 0.9362,0.082 2.092,-0.3645 3.0959,-0.3659 z m 39.4772,1.6314 c 0.1688,0.036 0.409,0.4818 -0.058,0.5473 -0.1183,-0.4431 -0.043,-0.569 0.058,-0.5473 z m -1.311,0.6677 c 0.1187,0.065 0.08,0.5157 -0.1695,0.109 0.072,-0.1097 0.1299,-0.1308 0.1695,-0.109 z m -3.0613,0.5679 c 0.2912,0.136 3.4844,2.0493 1.757,1.5415 -0.9166,0.12 -2.1122,-1.1345 -1.757,-1.5415 z m 11.1491,1.8149 c 0.3738,-0.031 1.2461,0.6031 0.2564,0.6971 l -0.2352,-0.1292 c -0.258,-0.4023 -0.191,-0.5537 -0.021,-0.5679 z m -64.6678,0.7441 c 1.1836,-0.055 2.3019,0.5371 1.4417,1.881 -0.3261,0.5306 -1.053,0.6141 -1.6138,0.5266 -1.0387,0.1733 -2.7727,-0.4432 -1.6154,-1.6319 0.3437,-0.4765 1.0773,-0.7426 1.7875,-0.7757 z m 3.0163,0.095 c 0.945,0.1 2.0405,2.0898 0.7705,2.8882 -0.3243,0.1805 -0.8931,0.2705 -1.126,-0.1059 -0.4061,-0.955 1.4029,-1.925 -0.033,-2.7001 0.1215,-0.072 0.2536,-0.096 0.3886,-0.082 z m 62.8959,0.7364 c 0.1507,0.016 0.3503,0.1512 0.602,0.4604 0.1344,1.2821 -0.7636,2.5214 -0.5513,3.93 -0.09,1.9447 -2.1696,2.5077 -3.0929,3.9068 -0.6161,1.553 -2.456,1.6491 -3.5238,2.7471 -0.2703,0.097 -0.5615,0.03 -0.8341,-0.014 -0.7583,-0.2481 0.8461,-1.5002 1.1157,-2.0019 1.3258,-0.8746 1.7363,-2.4845 3.1647,-3.1135 1.4114,-1.056 3.3373,-2.3333 2.9998,-4.3713 -0.3431,-0.5739 -0.3321,-1.5919 0.1199,-1.5431 z m -63.5656,4.5 c 0.3905,-0.063 0.8013,0.1859 0.3545,0.8898 -0.1251,0.189 -0.4123,0.2368 -0.5876,0.089 -0.5274,-0.542 -0.1574,-0.916 0.2331,-0.9787 z m 55.5615,6.8228 c -0.8188,1.0313 -1.334,2.3151 -2.4723,3.0004 -0.4217,1.5444 -1.1693,3.1697 -2.4597,4.1728 -1.2839,0.8464 -2.194,2.7535 -3.6846,3.0174 l -0.022,-0.1927 c 0.7394,-1.5175 2.347,-2.4647 2.6836,-4.253 0.986,-1.3166 2.3217,-2.3422 3.1956,-3.7455 0.8316,-0.589 2.2515,-1.7994 2.7591,-1.9994 z" /></g></svg>
