<?xml version="1.0" encoding="UTF-8" standalone="no"?>
<!-- Created with Inkscape (http://www.inkscape.org/) -->

<svg
   width="256mm"
   height="256.00012mm"
   viewBox="0 0 256 256.00012"
   version="1.1"
   id="svg5"
   xml:space="preserve"
   xmlns="http://www.w3.org/2000/svg"
   xmlns:svg="http://www.w3.org/2000/svg"><defs
     id="defs2" /><g
     id="layer1"
     transform="translate(-1383.7,-828.05332)"><rect
       style="fill:#fa0000;fill-opacity:1;stroke-width:0.122816;-inkscape-stroke:none;stop-color:#000000"
       id="rect1436-44-3-9-4-2"
       width="255.99994"
       height="255.99998"
       x="1383.7"
       y="828.05328" /><path
       id="path1157-7-0-5-8-7"
       style="fill:#ffffff;stroke-width:0.870993"
       d="m 1503.0902,861.4978 c -0.608,0.33004 -0.2679,1.78721 -0.5948,2.55747 -0.5228,1.28014 -0.3301,3.06895 -1.3571,4.00854 1.028,-0.9394 0.8353,-2.72858 1.3581,-4.00906 0.3268,-0.76983 -0.013,-2.22584 0.5938,-2.55695 z m -1.9519,6.56601 c -0.073,0.0671 -0.1532,0.13015 -0.2397,0.1881 0.087,-0.058 0.1663,-0.12093 0.2397,-0.1881 z m 12.2081,-5.84254 c -0.035,0.005 -0.07,0.0167 -0.1054,0.0264 0.036,-0.01 0.072,-0.0214 0.1069,-0.0264 -5e-4,8e-5 -10e-4,-7e-5 0,0 z m -0.5328,0.23771 c -0.3527,0.25454 -0.6823,0.67603 -0.8821,1.11363 -0.4927,0.45716 -0.8416,1.82992 -1.4087,2.12649 0.5677,-0.29552 0.9168,-1.66907 1.4097,-2.12649 0.1997,-0.43725 0.5288,-0.85903 0.8811,-1.11363 z m -8.6005,0.30541 c -0.1712,0.39985 0.9236,0.89935 -0.323,0.85576 -0.9842,0.99713 -1.0574,2.74727 -1.1901,4.11965 0.1134,1.5847 0.9911,2.98291 2.265,3.90467 0.879,0.33258 1.0692,0.93417 -0.1106,0.88883 -1.6359,-0.036 -2.3392,-2.48623 -3.3915,-2.61327 -0.3722,0.80452 1.6068,2.85601 -0.1799,2.10581 -0.6199,-0.14438 -1.22,-0.8451 -1.8309,-0.75912 -1.9216,0.59988 0.2163,1.90291 1.1421,2.33319 1.9975,1.10763 4.1349,2.60889 6.5355,2.27789 1.1802,-0.0141 1.8595,-2.21946 2.897,-1.11466 0.2036,-0.66857 -0.486,-2.21226 0.7033,-1.13119 1.0733,0.87713 0.757,2.81854 -0.5524,3.25303 -1.3778,-1.37642 -2.6142,0.6576 -3.2577,1.86035 -0.7264,1.72625 -0.8889,3.69697 -0.5385,5.52938 0.5922,1.13138 1.6386,-1.1931 2.6169,-1.17047 1.4317,-0.85408 3.3722,-1.27737 4.1429,-2.90164 1.4256,-1.18385 2.0184,1.92768 2.0376,2.97243 0.2762,1.53337 -0.6416,3.4135 0.2166,4.73201 1.2499,-0.67295 2.3988,-1.59099 3.6468,-2.30787 1.5882,-0.94094 3.1913,-2.85595 2.4985,-4.80642 -0.3349,-0.57938 -1.4003,-1.64925 0.087,-1.28726 1.6452,0.38683 2.4049,2.0329 2.5952,3.56981 0.4403,1.83843 0.5579,3.95313 -0.726,5.50302 -0.9047,1.18125 -2.0315,2.52192 -1.5069,4.12171 0.6715,1.62363 0.013,3.46849 -1.4976,4.34909 -2.4517,1.67323 -5.758,1.70313 -7.9168,3.88297 -2.0345,1.58853 -2.8991,4.3607 -2.3022,6.84919 0.5423,1.80829 -1.2278,2.96247 -2.4665,3.87522 -1.5476,1.04488 -2.8967,2.56563 -3.0815,4.49947 -0.3218,1.20279 1.4793,3.30085 2.3497,1.95698 -1.845,-0.40409 -2.297,-3.02787 -0.5353,-3.98994 1.5822,-1.13734 3.6538,-0.49541 5.4343,-0.91777 2.0053,-0.85192 1.5037,-3.81027 3.4985,-4.64106 1.7394,-1.04893 3.8697,-0.48239 5.6844,-1.21543 1.3966,-0.57636 1.8135,-2.62621 3.5424,-2.4691 1.5678,-0.19132 3.3538,-0.95523 3.9827,-2.50837 1.0531,-1.52814 -0.1327,-3.15129 0.3044,-4.65863 -0.205,-1.13204 0.7709,-1.3489 1.0035,-0.22273 0.8816,2.75497 -0.202,5.67514 -1.3947,8.16178 -1.0324,1.77737 -2.3806,3.57829 -4.4303,4.21783 -1.734,0.57488 -3.081,2.32984 -2.9708,4.18424 -0.015,1.64909 -1.1664,2.87805 -2.3606,3.85506 -0.9858,1.55533 -2.7905,1.64281 -4.4437,1.57303 -2.1002,0.004 -4.2256,1.43717 -4.5351,3.60547 -0.4975,1.42338 1.8505,2.99373 -0.3194,3.83439 -1.1479,0.51702 -2.0254,3.38224 -0.03,2.86442 1.7093,-0.25528 1.1446,-2.7424 2.4381,-3.07268 1.9767,0.87748 2.1038,-2.45783 4.0462,-1.90066 1.2945,0.33741 2.6839,0.27765 3.9962,0.19585 0.9416,-0.49106 1.9643,-0.84514 2.635,-1.72444 0.9596,-1.04551 1.5225,-2.39886 2.6241,-3.33571 0.699,-0.67094 2.2953,-2.48281 2.9709,-1.24644 -1.1258,0.91244 -2.0078,2.2221 -1.9865,3.73931 -0.1501,1.78203 -0.7295,3.61495 -2.1962,4.75475 -2.2455,2.18839 -5.577,3.40888 -6.8332,6.48332 -0.5217,1.47012 -1.1971,3.18348 -0.3793,4.67827 0.2169,0.2781 0.8357,1.14017 1.2123,0.632 h 5e-4 c -1.0408,-1.36666 -1.0783,-3.42676 0.3334,-4.62039 1.1046,-1.15793 2.8459,-1.44678 4.3222,-0.89452 1.6823,0.62764 3.8736,0.60379 5.0508,-0.95601 0.995,-1.00825 1.365,-3.05927 2.5286,-3.55534 0.5607,0.6633 0.9997,3.27396 2.0071,2.56367 0.5972,-1.33087 0.5378,-2.86008 0.1354,-4.23127 0.1898,-1.39628 0.6969,-2.76014 0.9431,-4.1646 0.4136,-1.67458 1.275,-3.24613 1.2536,-5.00796 -0.09,-1.07142 1.0554,-2.06265 1.4268,-0.5333 0.1355,0.82466 1.6753,2.35424 2.0547,1.33015 -1.2441,-1.47907 -0.9802,-3.52804 -0.4848,-5.24981 0.475,-1.98824 1.9209,-3.69108 1.9565,-5.78001 -0.1762,-1.41365 -0.8298,-2.88542 -0.7059,-4.25917 1.0319,-0.30962 2.3874,-0.97377 1.1612,-2.04432 -1.5722,-2.54086 -1.0343,-5.61958 -1.1266,-8.44858 0.1634,-1.78099 -1.0191,-3.39197 -2.5487,-4.18734 -1.4824,-1.22868 3.2331,-0.3061 1.5638,-1.97921 -1.2404,-0.86399 -2.5069,-1.67767 -2.9487,-3.16156 -1.2287,-0.7519 -2.7514,-1.28113 -3.67,-2.37764 1.329,-0.0994 2.7456,-0.0862 3.8989,-0.015 1.1534,0.0711 2.4756,-0.45315 1.4294,-1.54875 -1.4639,-1.45606 -3.7502,-1.34396 -5.4916,-2.32699 -1.4707,-0.60137 -2.4932,-1.85757 -3.1518,-3.26336 -0.8147,-1.95654 -2.7567,-3.27863 -4.8591,-3.40341 -1.1641,0.10053 -3.5433,-0.61921 -1.2046,-1.28726 1.549,-1.65571 -1.6369,-2.05345 -2.7388,-1.4733 -1.9859,0.31697 -4.0392,0.99091 -6.0498,0.53847 -1.7131,-1.36138 -1.2553,1.91414 -2.513,2.38073 -0.7849,0.96886 -2.4595,-0.0107 -1.1638,-0.92707 0.5441,-1.47695 -0.04,-3.17435 -0.8351,-4.46226 -1.0536,-1.42584 -2.6443,-2.54971 -4.3935,-2.87993 z m 8.7871,1.42007 c -0.1598,0.0114 -0.314,0.0736 -0.4548,0.19844 -0.8934,1.30062 -0.4921,3.7752 1.5487,2.89956 l 0.1675,-0.0646 c 1.2352,-0.71127 -0.1431,-3.11325 -1.2614,-3.03341 z m -7.104,0.3545 c 0.1235,-0.007 0.3393,0.0491 0.677,0.1943 0.5798,-0.0144 1.5363,2.17401 0.4619,1.42007 -0.4798,-0.35843 -1.674,-1.58317 -1.1389,-1.61437 z m -23.6301,2.96778 c -0.1585,0.0469 -0.3131,0.10963 -0.463,0.19172 -0.084,0.0586 -0.1728,0.11051 -0.2646,0.15709 0.092,-0.0467 0.181,-0.0982 0.2656,-0.15709 0.1499,-0.0821 0.3046,-0.14477 0.463,-0.19172 -3e-4,9e-5 -7e-4,-1e-4 -10e-4,0 z m 26.5705,0.32194 c 0.8562,0.40264 -0.3449,4.26047 -0.6537,2.51303 -0.012,-0.77256 0.2269,-2.08643 0.6537,-2.51303 z m -28.3285,0.41548 c -0.2469,0.0841 -0.4902,0.17235 -0.7049,0.30334 0.2146,-0.13111 0.458,-0.21919 0.7049,-0.30334 z m 1.9813,0.0196 c -1.777,0.14517 -2.8212,1.70956 -4.1822,2.62516 -1.4257,0.43816 -3.1472,0.26763 -4.099,1.68569 -0.8432,1.079 -1.8052,2.03079 -2.9037,2.84943 -1.3285,1.62464 -1.5973,3.83849 -1.7957,5.86321 -0.1263,1.94611 0.8821,3.96285 2.5678,4.95422 0.2838,-1.13729 -0.8078,-2.70253 -0.4388,-4.08915 0,-1.67569 0.022,-3.71134 1.6134,-4.71755 1.0272,-0.73321 -0.4901,1.24106 -0.4636,1.757 -0.7884,2.15086 -0.3553,4.76575 1.1131,6.5226 0.9806,1.13626 2.8035,1.53286 4.0954,0.74259 v 5.2e-4 c 1.5397,-1.09411 3.0735,-2.71496 2.8427,-4.7594 0.218,-1.16475 -1.5577,-2.82988 -2.3456,-1.72238 0.7558,1.58232 -1.3208,2.81933 -2.6086,1.92082 -1.7292,-1.00701 -1.521,-3.45442 -0.555,-4.9351 0.6407,-1.30682 1.5443,-2.79312 3.16,-2.91352 2.2722,-0.39779 4.4897,0.53654 6.7634,0.30386 1.8873,-0.0727 3.7494,0.56823 5.3061,1.61282 1.1623,0.765 3.3833,0.0531 4.1543,0.78238 -2.464,0.83624 -5.2992,0.43017 -7.4817,-0.97565 -0.5214,-0.6203 -2.5503,-0.54072 -1.1121,0.23668 1.8778,1.08289 3.8329,2.42071 6.1108,2.24844 1.8252,-0.11862 3.633,-0.52105 5.4756,-0.48214 1.9759,-0.082 4.0898,0.28206 5.9387,-0.57878 -0.1324,-1.2771 -2.4505,-1.56849 -3.4179,-2.42 -1.9017,-1.28526 -3.9304,-2.40291 -6.04,-3.28611 -0.9615,0.34036 1.2352,1.2267 1.5999,1.60559 0.6522,0.12092 2.4159,2.0194 0.7891,1.13585 -1.4256,-0.66226 -2.9408,-1.21876 -4.0209,-2.43086 -1.3413,-1.06631 -2.6313,-2.25242 -4.3207,-2.74402 -1.8345,-0.62215 -3.8164,-0.84328 -5.7448,-0.7922 z m 18.1296,0.14624 c -5e-4,2.4e-4 -10e-4,2.8e-4 0,5.2e-4 -0.2382,0.17653 -0.4721,0.35907 -0.7012,0.54777 0.2294,-0.18896 0.4642,-0.37154 0.7028,-0.54829 z m -21.0923,0.33021 c -0.2582,0.091 -0.4925,0.23667 -0.7146,0.41238 0.2221,-0.17578 0.4565,-0.32124 0.7146,-0.41238 z m 20.3885,0.2186 c -0.6881,0.56687 -1.3273,1.19233 -1.8718,1.90014 3e-4,-2.9e-4 8e-4,-2.3e-4 0,-5.2e-4 0.5442,-0.70751 1.1829,-1.33294 1.8707,-1.89962 z m -21.1042,0.1943 c -0.3468,0.27446 -0.6667,0.61518 -1.0144,0.90434 0.3478,-0.28907 0.6677,-0.62977 1.0144,-0.90434 z m -2.5037,1.58905 c -0.4995,0.14101 -1.0035,0.27926 -1.4872,0.45734 0.4838,-0.17821 0.9876,-0.3163 1.4872,-0.45734 z m 21.5134,0.31833 c -0.074,0.0563 -0.1497,0.10226 -0.2248,0.13849 0.075,-0.0362 0.1501,-0.0822 0.2248,-0.13849 z m -23.4637,0.32556 c -0.2852,0.12796 -0.5585,0.27683 -0.8149,0.45682 0.2562,-0.17998 0.5299,-0.32885 0.8149,-0.45682 z m 44.3053,0.36793 c 0.1446,0.0149 0.3189,0.0853 0.5168,0.23462 0.7179,0.42643 1.0059,1.6049 -0.2563,0.83302 -0.958,-0.15146 -0.887,-1.13222 -0.2605,-1.06764 z m 1.9322,1.58182 c 1.2037,-0.0315 2.4393,1.17183 3.0861,2.06912 0,0.31879 -0.3562,0.44257 -0.5994,0.25115 -0.6186,-1.0556 -2.5556,-1.11003 -2.727,-2.29702 0.08,-0.0135 0.1601,-0.0212 0.2403,-0.0233 z m -49.0492,0.17518 c -0.4975,0.51295 -0.9493,1.07611 -1.3529,1.67639 -1.1893,2.29226 -1.7409,4.99194 -1.372,7.56439 0.2663,1.27729 1.0901,2.45452 1.9642,3.32383 0.6116,0.32048 1.1713,0.9664 1.9007,1.12551 0.2521,0.16343 0.5298,0.28142 0.8237,0.36691 -0.2935,-0.0855 -0.5708,-0.20418 -0.8227,-0.36742 -0.7294,-0.15911 -1.289,-0.80452 -1.9006,-1.125 -0.8742,-0.86931 -1.6979,-2.04654 -1.9642,-3.32383 -0.3689,-2.57245 0.1827,-5.27264 1.372,-7.56491 0.4033,-0.59996 0.8546,-1.16314 1.3518,-1.67587 z m 1.9637,14.05703 c 0.8805,0.25608 1.9056,0.21411 2.8195,0.1788 4e-4,-6e-5 6e-4,-4.7e-4 10e-4,-5.2e-4 -0.9142,0.0353 -1.9398,0.0781 -2.8205,-0.17828 z m 7.0435,-12.89379 c -3e-4,8e-5 -6e-4,4.3e-4 -10e-4,5.2e-4 1.2997,0.078 2.0122,1.61332 3.3362,1.59215 -1.3233,0.0203 -2.0359,-1.51467 -3.3352,-1.59267 z m 33.9452,1.44901 c 0.9806,0.79773 1.3676,3.37415 -0.4428,2.95434 l 0.02,-0.19482 h -10e-4 c 0.3367,-0.73261 -0.1099,-2.77715 0.4237,-2.75952 z m -30.3356,0.1173 c -0.076,0.0131 -0.1493,0.0179 -0.2217,0.0212 0.072,-0.003 0.1448,-0.008 0.2207,-0.0207 0.1357,-0.004 0.2687,0.004 0.3994,0.0238 -0.1303,-0.0192 -0.263,-0.0285 -0.3984,-0.0243 z m 0.3995,0.0243 c 0.9146,0.13533 1.7149,0.7866 2.5228,1.10536 0.5693,0.244 1.1601,0.51592 1.7699,0.73277 -0.6095,-0.2168 -1.1994,-0.48941 -1.7683,-0.73329 -0.8083,-0.31887 -1.6094,-0.96983 -2.5244,-1.10484 z m 4.2927,1.83813 c 0.3045,0.10826 0.6136,0.20286 0.9276,0.27285 -0.314,-0.07 -0.6231,-0.16456 -0.9276,-0.27285 z m 35.8831,-1.68362 c 0.6382,0.0343 1.7229,0.49174 2.0304,0.80254 1.3134,0.93192 1.9076,2.51323 2.8055,3.79511 0.5971,1.30776 1.3898,2.88125 1.4986,4.17856 -0.4234,0.11204 -0.8032,-0.0996 -1.0717,-0.41599 -1.088,-1.33506 -1.306,-3.16398 -2.2671,-4.59197 -0.7136,-1.46707 -1.8725,-2.6461 -3.3977,-3.24942 -0.2032,-0.40755 0.019,-0.53939 0.402,-0.51883 z m -8.6336,0.004 c 0.064,0.004 0.1341,0.20951 0.1969,0.74775 0.2996,0.47733 -0.2669,2.89649 -0.3813,2.10324 0,-0.44737 4e-4,-0.89466 0.012,-1.34204 h -0.01 c -0.071,-0.55058 0.037,-1.51779 0.1772,-1.50895 z m -11.0877,1.58543 c -0.9507,0.0517 -2.2655,0.94124 -3.2385,0.78445 -2.1081,0.26911 -4.1753,-0.71098 -6.2648,-0.27337 -1.0133,0.58483 -0.4758,2.53517 -0.5891,3.65972 0.7633,2.22304 2.5662,0.13586 3.7125,-0.40255 1.6694,0.62599 -0.015,3.52871 -1.6811,2.94297 -0.9697,0.39159 -1.0818,2.13701 -2.5368,2.14044 -0.2946,0.97484 -2.6931,1.48504 -1.5983,0.032 0.087,-0.64434 -0.5812,-2.08644 0.7028,-1.31827 1.5881,0.59065 1.5525,-1.82192 0.4826,-2.43138 -0.714,-0.98231 -0.1705,-2.44416 -0.3968,-3.31762 -1.5592,0.96379 -2.2065,2.83639 -3.0283,4.39611 -2.0837,4.59405 -2.4591,9.84798 -5.1444,14.18518 -0.8066,1.47683 -2.1509,2.5586 -2.977,4.00958 -0.8489,1.47002 -0.2619,3.24609 0.9017,4.35063 1.3216,1.25485 1.4115,3.64244 3.3337,4.25608 1.8054,0.53693 2.3545,-1.82515 3.5873,-2.59985 1.3629,-0.64557 2.6074,-1.53 4.0391,-2.0531 1.4915,-0.0298 2.9677,-0.64171 4.4447,-0.49454 1.5204,0.45808 0.3285,3.77961 -1.0553,3.32796 -0.1541,-2.00226 -2.5823,-0.21429 -2.267,1.06815 0.1574,1.22177 -2.2292,3.10643 -0.199,3.49126 1.3583,0.16674 2.6216,1.23963 3.6257,-0.28991 0.4085,-0.45186 1.045,-0.78193 0.9989,-1.47587 0.1668,-1.42017 0.7653,-2.73533 1.0655,-4.115 -0.671,-1.33179 -0.9986,-2.67552 -0.418,-4.15633 -0.088,-1.27837 1.5511,-2.4492 1.5151,-0.53847 -0.1879,1.9068 1.3888,0.24933 1.1767,-0.75499 0.1825,-1.81268 2.0673,-2.71157 3.1822,-3.91656 1.356,-0.13628 3.1861,0.42792 3.6665,-1.36994 1.226,-2.10761 0.7438,-4.64111 0.9126,-6.96495 -0.065,-1.0053 0.225,-2.0329 0.3452,-2.98277 -0.6055,-0.67008 -0.7378,-2.80609 0.4227,-1.32498 1.8025,1.03979 2.5533,-1.34064 2.1632,-2.74815 -0.1554,-2.32223 -2.3583,0.30683 -3.4556,0.47129 -1.2797,0.304 -3.0941,1.64798 -1.4149,2.81274 2.1553,0.74682 0.963,3.44717 -0.9008,3.59668 -0.9228,1.98296 -3.7254,-0.20965 -1.8226,-1.41748 1.7105,-0.67885 -0.7809,-2.32457 -0.8098,-3.6034 -0.591,-2.18894 -0.2762,-4.52661 0.3225,-6.67814 -0.2098,-0.23868 -0.4862,-0.31488 -0.8031,-0.29766 z m -15.2331,0.3669 c 0.314,0.0699 0.6323,0.11595 0.9555,0.12661 1.2657,0.0348 2.1753,1.0519 1.0717,2.09083 -0.7546,1.41632 -1.6862,2.76992 -2.1719,4.30981 -0.8889,2.13402 -1.4131,4.39721 -2.1343,6.5934 -0.4012,2.0065 -1.2337,3.89225 -2.0205,5.76605 -0.8353,1.07523 -1.4148,2.34782 -2.4459,3.29851 -0.9421,0.91434 -1.7761,1.96837 -1.7161,3.36982 -0.1549,1.31455 0.7307,2.42197 1.5725,3.35587 0.8582,1.17854 1.1757,2.67524 2.3027,3.68039 0.3424,0.36622 0.7881,0.63986 1.265,0.79065 -0.4766,-0.15085 -0.9213,-0.42519 -1.2635,-0.79116 -1.127,-1.00516 -1.445,-2.50186 -2.3032,-3.6804 -0.8418,-0.9339 -1.7269,-2.04132 -1.572,-3.35587 -0.06,-1.40144 0.7741,-2.45496 1.7162,-3.3693 1.0311,-0.95069 1.61,-2.22379 2.4453,-3.29902 0.7868,-1.87381 1.6199,-3.75956 2.0211,-5.76606 0.7212,-2.19619 1.2453,-4.45938 2.1342,-6.59339 0.4857,-1.53989 1.4169,-2.89298 2.1715,-4.3093 1.1036,-1.03893 0.1944,-2.05657 -1.0713,-2.09135 -0.3235,-0.0107 -0.6427,-0.056 -0.957,-0.12609 z m -3.3213,33.38194 c 0.1591,0.0503 0.3213,0.0869 0.4847,0.10852 -0.1632,-0.0217 -0.3258,-0.0582 -0.4847,-0.10852 z m 0.4847,0.10852 c 0.2738,0.0363 0.548,0.0203 0.814,-0.0326 -0.2662,0.0528 -0.5401,0.069 -0.814,0.0326 z m 9.3948,-32.53961 c 0.2144,0.0103 0.4649,0.13202 0.7467,0.40928 1.3181,0.25423 1.6351,1.45684 0.2538,1.90117 -0.3325,0.44104 -0.8648,0.60625 -1.3307,0.25993 -0.8462,-0.56529 -0.5986,-2.61484 0.3302,-2.57038 z m -19.3218,0.26872 c -0.3376,0.35534 -0.4407,0.81284 -0.035,1.28002 2e-4,-3.2e-4 7e-4,-1.9e-4 10e-4,-5.2e-4 -0.4052,-0.46683 -0.303,-0.92427 0.034,-1.2795 z m -0.035,1.28002 c -0.1181,0.14385 -0.2367,0.22552 -0.3525,0.25787 0.1159,-0.0321 0.2343,-0.1142 0.3525,-0.25787 z m 83.2414,0.68368 c -0.6152,0.13333 -1.2117,0.31973 -1.7772,0.55449 -0.4766,0.23327 -0.912,0.53531 -1.3001,0.88883 0.3883,-0.35385 0.8242,-0.6554 1.3012,-0.88883 0.5651,-0.23464 1.1613,-0.42118 1.7761,-0.55449 z m -3.0773,1.44332 c -1.1655,1.0616 -1.9029,2.59257 -2.0361,4.15841 -0.1222,1.50164 0.073,3.07662 1.2237,4.14858 0.6968,0.51224 1.4377,0.98542 2.2826,1.11104 -0.8445,-0.12585 -1.5851,-0.59952 -2.2816,-1.11156 -1.151,-1.07196 -1.3459,-2.64693 -1.2237,-4.14858 0.1332,-1.56546 0.8701,-3.09632 2.0351,-4.15789 z m 5.2312,-1.05781 c -0.1874,0.003 -0.3762,0.0148 -0.5669,0.0351 -2.2205,0.0237 -4.404,1.33987 -5.2307,3.44733 -0.8111,1.81784 -0.7094,4.21994 0.6945,5.71955 0.8195,1.19198 3.4349,0.82308 3.0215,-0.76688 -1.6418,-0.34511 -2.5842,-2.26015 -1.3151,-3.57342 0.8173,-1.30192 2.3919,-1.6942 3.8349,-1.57045 3.0935,-0.0587 5.5937,2.40263 6.7546,5.08444 1.1837,2.33966 1.0781,5.17176 0.078,7.55458 -0.7428,2.06831 -1.6376,4.16589 -3.3372,5.63842 -0.6531,0.53919 -1.3074,1.61048 -2.0531,1.70687 1.0547,-1.33921 2.16,-2.67784 2.8871,-4.2447 1.244,-2.53185 2.2988,-5.38448 1.9162,-8.24291 -0.8951,-1.51467 -1.2036,1.45285 -1.6717,2.00659 -1.109,2.70352 -2.442,5.38329 -4.608,7.40627 -1.997,2.24206 -4.7811,3.62007 -6.6906,5.95519 -1.3323,1.3959 -3.1629,2.1689 -4.4338,3.63854 -0.9732,1.09803 -2.2359,1.9024 -3.1828,3.00964 -0.9269,1.66719 -2.7538,2.78939 -3.1315,4.74389 -0.2443,1.96329 -1.7867,3.65428 -1.3788,5.71076 0.2963,1.51934 0.373,3.14916 1.2139,4.49327 0.9246,1.27564 2.2725,2.2052 3.1223,3.52743 0.2535,1.42412 0.694,2.88432 1.9007,3.80184 0.8058,0.92694 2.8256,0.71753 2.5765,2.36471 -0.6764,-1.60884 -2.9262,-0.52611 -3.9336,-1.8836 -1.4448,-1.0828 -0.9172,-3.36992 -2.514,-4.35633 -1.2489,-0.55215 -2.4912,-1.46875 -3.7569,-1.8035 -0.26,1.95403 0.4082,4.01387 1.5389,5.6012 1.8068,2.06249 4.8286,2.82427 6.1242,5.3573 0.6526,1.53174 1.0672,3.39796 2.696,4.21111 2.0878,1.24686 4.568,1.41217 6.9334,1.52756 1.984,0.41148 3.9703,1.0269 5.751,1.99781 1.6079,1.20717 1.8452,3.32911 2.8009,4.97851 1.0867,2.66338 3.8049,4.01697 5.7852,5.90765 0.9795,1.41185 1.0311,3.27282 2.1048,4.64984 1.0239,1.5525 1.5172,3.91406 -0.033,5.3051 -1.0154,0.96161 -1.9184,2.09165 -3.0303,2.92437 -0.8691,-1.34404 1.1654,-2.45999 2.1032,-3.18585 1.0928,-1.42577 0.405,-3.41953 -0.1586,-4.92993 -0.5788,-1.69873 -2.3285,-2.68036 -2.7575,-4.46949 -0.5918,-1.7593 -2.7788,-1.85022 -3.899,-3.17862 -1.5583,-1.41081 -1.0418,-4.11302 -2.9863,-5.22242 -1.3283,-0.62349 -3.3522,-0.50931 -4.2551,0.78393 -0.035,1.08049 2.324,0.0538 2.8515,1.23662 1.5384,1.4809 0.9632,3.70905 1.0945,5.59035 0.2714,2.36096 2.5071,3.86054 4.67,4.30982 1.2076,0.54318 2.1331,1.58734 3.1275,2.44843 1.2043,1.06076 0.6316,3.21218 -0.507,4.10621 -1.2851,1.24665 -3.5263,1.41042 -4.7718,0.0171 -1.3716,-1.42768 -1.7341,-3.60334 -3.3899,-4.81108 -1.2294,-1.01599 -2.5379,-2.04203 -3.1523,-3.57084 -1.0408,-1.77448 -1.9534,-3.69456 -3.6323,-4.97592 -3.6039,-3.39182 -8.2916,-5.17276 -12.6034,-7.44761 -2.0465,-1.14293 -4.2081,-2.03723 -6.4141,-2.81792 -2.1582,-0.78077 -4.1368,-2.02706 -5.6255,-3.79098 -1.9343,-2.17128 -3.6013,-4.67359 -6.1479,-6.20117 -1.6303,-0.93894 -2.602,-2.813 -4.5315,-3.2582 -1.3906,-0.818 -2.8765,0.29556 -3.3311,1.63246 -0.8127,1.33849 0.1833,3.62787 1.9182,3.20032 1.2148,-1.02575 1.595,0.64056 0.4775,1.11828 -1.4779,0.80185 -3.2461,0.24585 -4.5594,-0.60772 -1.9778,-1.72141 -1.7723,-4.84265 -0.5545,-6.94479 1.57,-3.24735 5.3658,-4.38596 7.4776,-7.15615 0.9828,-1.64064 -1.2573,0.2496 -1.9125,0.38085 -1.5008,0.34797 -2.2481,1.99363 -3.806,2.20297 -1.5049,0.29255 -3.5188,-0.57725 -4.5977,0.8971 -0.45,1.43481 -2.2901,1.26456 -3.4137,1.99471 -1.4754,-0.11934 -3.1943,1.8644 -1.357,2.71973 2.0527,-0.98853 1.2777,2.38389 -0.4036,1.84278 -1.8212,-0.21122 -2.8202,-2.37309 -2.1069,-3.98425 0.6482,-1.3129 0.7406,-2.78735 1.2516,-4.13412 0.4731,-1.17253 2.3778,-1.72051 1.2454,-3.14554 -0.3342,-1.72208 0.4458,-3.57093 1.8408,-4.62452 1.5184,-1.21584 3.6209,-1.33 5.4916,-1.25832 1.5091,-0.3918 2.559,-1.87245 3.5187,-3.01222 0.5565,-1.57446 0.3802,-3.44207 1.5937,-4.747 1.1434,-1.82426 3.893,-1.46072 4.8947,-3.41323 0.07,-0.6496 -1.5046,-0.70933 -1.912,-0.31523 -1.0797,1.25162 -2.8209,1.42897 -4.069,2.44585 -0.914,0.11569 -1.3924,2.86126 -1.6464,0.91726 0.3924,-0.89124 -0.757,-1.94017 -1.219,-0.88884 1.2307,0.63426 -1.9593,1.63578 0.1855,1.60817 0.6747,0.73774 -1.876,1.38064 -1.2201,-0.0543 -0.2362,-2.046 -1.2787,1.00541 -1.6821,1.59422 -0.7347,1.60551 -2.61,1.83986 -4.1656,1.77457 -1.3915,-0.13808 -3.2718,0.39914 -3.313,2.04018 0.7251,0.36826 2.2337,-0.41465 1.8397,1.27745 -0.012,1.81426 -2.3876,2.06319 -3.5445,1.12603 -1.6463,-1.06543 -1.9503,-3.33851 -1.0955,-5.00797 0.7508,-2.06106 2.8336,-3.02324 4.3434,-4.42143 0.5905,-0.44804 0.6538,-1.0658 0.4707,-1.72961 -0.3061,-1.89832 -0.2746,-3.92928 0.7778,-5.61051 1.4902,-2.41599 4.0966,-3.91322 6.7882,-4.62194 1.7019,-0.52881 3.7523,-1.30813 4.3052,-3.18224 -0.1134,-1.58464 -0.6377,-3.36162 0.4284,-4.7625 1.0836,-1.27773 2.3605,-2.7985 2.0541,-4.60023 -0.6559,-1.6494 -2.1284,1.09832 -3.1569,1.30431 -0.8657,0.84452 -3.9352,1.52599 -2.5714,3.07371 1.1513,2.14716 -2.3985,2.22143 -2.9875,0.49506 -0.9654,-0.59522 -0.4068,-3.21414 -1.5554,-2.80499 -1.4082,2.10992 -0.8551,4.81468 -0.3385,7.12411 0.4682,1.00546 1.673,1.98736 0.012,2.65307 -1.126,1.03303 -1.9914,2.31863 -3.2205,3.24889 -2.7104,2.61913 -6.014,4.97311 -7.3272,8.67183 -0.8507,1.1743 -0.8167,3.44601 0.9731,1.96267 1.2136,-0.49052 2.2197,-2.20181 3.1739,-2.42776 0.2654,1.71987 -1.5334,2.74265 -2.7352,3.57911 -1.4666,0.85317 -2.9884,1.64289 -4.1837,2.87889 -1.926,1.82933 -4.4998,2.88302 -6.2141,4.93562 -0.7926,0.73239 -1.5859,2.98164 0.3199,2.2872 1.5442,-0.25975 2.5061,-1.61107 3.716,-2.45877 -0.3224,1.84751 -1.8162,3.61259 -3.7956,3.668 -3.1284,0.28544 -6.4228,1.12026 -8.6615,3.47265 -1.4066,1.65954 -2.6766,3.43538 -4.1083,5.07721 -1.4697,2.10931 -2.0857,4.65801 -2.8799,7.06934 -0.4412,2.07161 -1.4139,3.97406 -2.604,5.70714 1.0085,0.65227 2.9669,-0.73958 4.2545,-1.09502 2.2301,-1.02298 4.6643,-1.55855 7.12,-1.43506 1.833,0.008 3.6665,0.26045 5.4503,0.66456 1.2873,1.17805 -1.8456,0.62055 -2.5538,0.50127 -2.9358,-0.41114 -6.021,-0.2862 -8.7576,0.95239 -2.7122,1.15079 -5.5252,2.14526 -8.4548,2.54197 -2.3933,0.23717 -4.851,-0.19156 -7.0673,-1.10433 -1.3908,-0.75068 -2.6243,-1.80885 -4.0033,-2.61224 -1.8867,-0.78647 -3.8134,0.48695 -5.3227,1.52652 -1.3146,0.55542 -1.8556,2.01401 -1.9348,3.33726 -0.4224,1.44349 -1.6808,2.44917 -1.988,3.94756 -0.4322,1.50974 0.3736,3.04176 0.5137,4.55167 0.6655,4.80005 0.3736,9.68112 -0.1612,14.47921 -0.1597,2.19573 -0.3777,4.39266 -0.5463,6.58358 0.197,2.30733 1.9558,3.9884 3.2531,5.75417 0.8067,1.50182 3.0251,2.04376 3.5925,3.40341 -1.017,0.30397 -3.4145,0.0534 -2.3373,1.82315 0.5935,1.40886 1.6741,2.68884 3.3274,1.86035 1.06,0.11155 2.2714,0.56701 2.3182,-0.95602 0.4225,-0.88611 3.0435,-1.83114 1.6552,-0.13177 -1.2217,0.53537 -1.2226,1.74867 -1.5471,2.76366 -0.8085,-0.0158 -1.4574,-1.60867 -2.4449,-0.49713 -1.6245,1.0043 0.9352,1.93649 1.2496,3.01739 0.4893,0.93367 0.749,2.04992 1.7792,2.54609 1.3192,-0.0936 2.7367,0.13334 3.9842,-0.3824 1.8414,-0.77281 2.0029,-2.94114 2.9146,-4.47105 0.6742,-1.44078 1.264,-2.97125 0.9353,-4.58886 -0.2556,-1.57987 0.018,-3.25725 -0.4899,-4.78369 -0.9722,-0.39707 -2.7364,-1.0484 -3.4716,-0.66559 0.3706,1.65413 -2.0139,3.08771 -0.1653,4.35167 1.9426,-0.64867 1.5899,1.74191 1.7394,2.95072 0.5158,1.20837 -2.3688,2.47762 -1.8139,0.64802 -1.1571,0.64138 -2.191,-0.37846 -1.388,-1.5446 0.2675,-1.05315 -0.5341,-1.91402 -0.7917,-2.90629 -0.7119,-0.29385 -1.821,-1.05894 -0.4594,-1.4056 1.5566,-0.42102 1.0071,-2.57787 2.4293,-3.17293 -0.012,-1.5382 -1.2397,-3.0092 -2.8329,-3.03496 -1.0091,0.0601 -1.9525,-0.62228 -0.6392,-1.27175 1.2902,-0.87311 3.6644,-0.76351 3.4882,-2.94453 0.016,-1.54138 0.7185,-2.94452 0.9921,-4.42815 0.1066,-2.20162 -2.3097,-0.54906 -2.9238,0.4222 -0.7592,1.20953 -3.0975,1.91463 -3.6597,0.21239 1.0004,-0.92307 1.9608,-2.06772 1.7947,-3.57343 0.2629,-1.58257 -0.4112,-3.15214 -1.8728,-3.86539 -0.6121,-0.90699 -1.3343,-0.75675 -0.9539,0.37103 0.3544,1.69456 -0.6652,3.27962 -0.2785,4.99246 0.2072,1.76416 -0.9141,3.4331 -0.4083,5.16661 -0.043,1.25123 0.4981,3.51557 -0.8749,4.05867 -0.074,-1.45127 0.3657,-2.81877 -0.1969,-4.24419 -0.3776,-1.31468 1.1023,-2.89103 -0.234,-3.87056 -0.5328,-0.47073 0.03,-1.34941 -0.1649,-1.97766 -0.6266,-1.18158 0.9842,-2.06435 0.027,-3.11557 0.7615,-0.40859 1.9034,-1.16348 0.6211,-1.79782 0.8806,-1.31595 0.7227,-3.09815 1.9487,-4.22455 1.0503,-1.29765 1.8174,-2.77762 2.7229,-4.16667 0.012,-1.08956 2.5435,-3.14109 2.2463,-1.02061 0.056,1.25694 -1.3956,2.64597 -0.941,3.58686 1.6405,0.56186 3.3775,0.87736 4.931,1.69654 2.2854,1.06365 4.2859,2.75529 6.8166,3.25406 3.0464,0.87088 6.303,0.2559 9.3126,1.30328 1.6329,0.77848 3.0951,-0.32757 4.0969,-1.53582 1.6482,-1.38467 4.213,-0.93792 5.7191,-2.59416 0.8078,-0.42214 2.1359,-3.19533 2.5275,-1.19217 -0.6168,2.21043 -2.8595,3.46462 -4.9811,3.88968 -1.322,0.17996 -3.4605,1.14678 -3.0066,2.67994 0.6295,-0.55152 2.3367,-1.78605 2.0407,0.0227 -0.8702,1.70964 1.2504,-0.80412 1.4031,0.88935 -0.4416,1.66154 1.9067,-0.80296 1.5575,0.9896 0.085,0.87033 -1.9487,2.10389 -1.11,2.43396 1.0097,-0.13316 2.5397,-2.42423 3.0851,-0.88573 -1.1246,1.27494 -2.7554,2.40938 -4.5176,2.32802 -0.7502,-0.35296 -3.4673,-0.7821 -1.82,-1.83089 0.5572,-0.18119 2.5151,-1.5432 0.8666,-0.79996 -1.3618,1.12918 -2.7668,-0.29601 -1.5689,-1.30844 -1.7013,0.30007 -2.3502,-1.67971 -3.8783,-1.93218 -1.435,-0.36505 -2.9759,-0.89031 -4.4494,-0.54984 1.2302,1.68871 2.9425,3.00002 4.5083,4.38268 2.5829,2.27215 5.6058,3.98609 8.8428,5.13508 5.7252,2.26203 12.0366,2.83177 18.1178,2.019 2.0664,-0.1282 4.1437,-0.63603 6.2115,-0.36587 1.3825,-0.12463 2.0061,1.7003 0.3256,1.69034 -1.1897,1.13879 -2.6598,-0.63208 -3.9502,0.0124 0.368,0.98329 1.725,2.73203 -0.1602,3.24321 -2.107,0.51471 -1.8806,-2.5001 -3.4731,-2.83548 -0.4408,0.98259 0.7004,2.74682 1.3146,3.74189 1.0884,1.24366 2.8723,0.34283 3.5982,-0.81752 1.5937,-1.12895 3.7208,-1.15412 5.5904,-0.94775 1.7001,0.15041 2.6637,1.70518 3.4437,3.02566 0.8826,0.66414 0.1157,3.43572 1.4687,2.90473 0.5243,-2.00659 1.3623,-3.95188 1.5068,-6.04046 -0.641,-0.62878 -1.6562,-1.42653 -0.8924,-2.3828 0.5235,-1.37117 -1.0801,-3.10066 -2.1477,-1.42627 -0.7473,1.49003 -1.8434,0.35953 -1.8893,-0.77101 -1.6087,0.0453 -3.0097,-0.5911 -4.5971,-0.77618 -1.4278,0.5356 -2.5655,-0.93404 -1.3751,-2.04432 0.153,-0.94117 1.7597,-2.26358 1.6092,-0.47749 -0.9132,2.27614 1.764,-1.61633 2.1151,0.23719 -0.7788,0.9527 0.036,2.6666 1.1829,1.44643 0.6551,-1.28846 1.774,-0.90445 2.128,0.33021 0.8313,1.16151 1.8472,-1.40306 2.8789,0.062 0.9686,1.16248 2.4142,1.96284 3.0965,3.34657 0.117,1.4025 -1.1299,2.52372 -0.9928,4.00905 -0.6378,2.1664 -1.1788,4.36191 -1.6986,6.55671 -0.5083,1.70425 -1.7873,3.02119 -2.4639,4.62246 -0.2247,1.51352 0.015,3.07714 0.3096,4.56613 1.076,1.04833 2.3282,1.94575 2.7414,3.54913 1.1594,0.9571 1.5134,2.298 2.128,3.5973 1.1579,1.7645 2.3662,3.6385 4.1812,4.7919 1.2121,0.9576 2.7809,0.6856 4.0519,1.3684 1.5256,0.9214 2.7582,2.4733 2.9347,4.2793 0.1792,1.7489 -1.2026,3.0968 -1.9694,4.5336 -1.8475,3.5607 -5.3671,5.7701 -7.629,9.017 -1.0493,1.5878 -2.8161,2.3682 -4.5087,3.0613 -1.5504,0.7295 -3.1148,1.7537 -3.6592,3.4768 -0.5033,1.5288 -0.9861,3.2461 -2.3348,4.2649 -1.0706,1.0562 -3.3354,1.1337 -3.7119,2.697 0.6243,0.3742 1.9738,0.3574 0.9865,1.403 -1.0422,1.0306 -1.4331,2.4441 -1.7425,3.8313 -0.2512,1.467 -0.916,3.0871 -0.2729,4.5175 0.9088,0.5741 2.1289,0.048 3.114,0 v 0 c 2.8276,-0.3551 5.5185,-1.3351 8.2387,-2.1326 2.0394,-0.3937 1.9203,-2.5117 1.7338,-4.0882 0.7481,-1.2769 -0.4234,-2.1651 -1.4635,-1.2035 0.6506,1.0976 -0.4625,2.9771 -1.6257,1.681 -1.2389,-0.1229 -2.5353,-1.6706 -3.4412,-0.048 -1.3885,0.9668 -3.386,-0.6103 -2.915,-2.2108 -0.2235,-1.6532 0.7763,-3.1422 2.5006,-3.3047 -0.3703,1.3751 -1.3757,2.9527 -0.6036,4.3657 0.5799,0.254 1.7373,0.02 1.9792,-0.6176 0.2577,-0.83 0.9963,-2.5157 1.8139,-2.1094 -0.9969,1.3027 0.7902,2.2749 1.1229,3.0737 -0.2507,-2.0737 2.1753,-1.9545 3.4287,-2.7109 1.6397,-0.3187 1.7351,-1.6967 0.9948,-2.9399 -0.4317,-1.3293 -0.782,-3.4749 0.7224,-4.2297 1.1773,1.1848 -0.065,2.8947 0.7442,4.2338 0.7088,0.9122 0.6306,3.0252 1.6299,3.2613 1.1209,-1.2305 0.5026,-2.9505 0.3467,-4.3971 -0.2269,-1.0061 0.9868,-2.6933 1.062,-0.7948 0.5312,1.5784 1.6393,2.9681 1.6386,4.702 0.1389,0.8378 -0.5353,2.8212 1.0093,1.864 1.5677,-0.7028 2.3802,-2.5494 1.8324,-4.1785 -0.3514,-1.6556 -1.3576,-3.1191 -1.4821,-4.8421 -0.4727,-2.016 0.3503,-4.0362 1.4046,-5.7227 0.5725,-0.9589 1.6273,-0.5086 0.9606,0.4889 -0.4789,1.8775 -1.5083,3.905 -0.7343,5.8322 1.0624,-0.4177 1.7186,-1.948 2.5838,-2.8138 1.2313,-1.4745 1.1849,-3.6453 2.679,-4.9387 1.4217,-0.7147 0.4592,-3.6045 2.1104,-3.56 0.466,0.9633 -0.1324,3.8213 1.756,2.4985 1.2822,-0.9933 1.091,-2.9002 2.2035,-4.055 0.7919,-1.2072 1.758,-2.3719 1.9006,-3.8664 0.6024,-1.8471 3.1014,-2.3164 3.3574,-4.329 0.2625,-1.8132 -1.7371,-2.7685 -2.2463,-4.3387 -0.3022,-1.5279 -0.972,-3.0375 -2.5141,-3.6566 -1.5861,-0.9785 -1.6725,-3.0288 -1.7234,-4.6938 0.1503,-1.84945 1.864,-2.99337 3.0448,-4.23443 2.3836,-2.23173 5.0677,-4.19277 6.9334,-6.91792 1.9216,-2.82535 4.4916,-5.58326 4.7108,-9.16637 -0.1,-2.15614 -0.5914,-4.31636 -0.3276,-6.48126 1.0963,-1.5491 1.6083,1.34699 1.6319,2.23087 0.4178,1.87152 1.8577,3.52629 3.8101,3.83078 1.4848,0.41368 3.4038,0.33023 4.2416,1.89032 0.5433,1.51545 -0.9731,2.7243 -1.9921,3.59151 -1.616,0.56855 -1.9154,3.37608 0.3085,2.82774 1.1996,-0.19038 3.0144,-0.52765 2.173,-2.13424 0.1881,-1.7371 1.9739,-2.60279 2.5895,-4.15788 1.1381,-1.66966 -0.6318,-2.85957 -1.9146,-3.57911 -1.0728,-0.49939 -2.4344,-1.46023 -0.6578,-2.08256 0.5461,-0.39322 0.5698,-0.98108 0.4992,-1.59267 -0.4278,-1.53252 1.3686,-1.98253 1.9719,-3.09645 0.4982,-0.60724 0.883,-2.89204 1.3845,-1.08469 0.3352,1.46151 -0.9495,2.74118 -1.0822,3.93102 0.5604,-0.10712 1.3338,-0.98268 0.8041,0.22635 -0.3761,0.82052 -2.0522,2.5657 -0.1064,2.46651 1.9595,-0.46854 3.2908,-2.38819 3.3512,-4.362 0.3245,-2.10967 -0.1831,-4.28661 0.3674,-6.36034 0.2275,-1.18553 3.0155,-2.82218 1.2625,-3.64474 -1.7573,-0.46401 -2.8797,1.32094 -4.4907,1.45211 -2.055,-0.66146 0.2576,-1.7832 1.2242,-2.16834 1.3333,-0.91769 1.8426,-2.5492 2.7895,-3.79926 1.1724,-2.21196 0.9725,-4.85749 0.554,-7.24451 -0.3025,-1.76052 -0.6842,-3.59982 -1.6191,-5.13974 -1.4907,-1.97742 -3.601,-3.29328 -5.5645,-4.73615 -1.7221,-1.32238 -2.9371,-3.36818 -2.837,-5.58725 -0.2616,-1.50081 0.778,-2.7233 1.1017,-4.10311 -0.4187,-1.42904 -1.8203,-2.3245 -2.9383,-3.20549 -1.9156,-1.38002 -4.5859,-2.36257 -5.2193,-4.88756 -0.3518,-1.38004 -0.2983,-3.1 1.0113,-3.97392 0.4804,-0.86644 3.3627,-0.31218 1.5095,-1.46709 -1.883,-0.64256 -3.2897,1.31945 -3.884,2.85667 -0.9377,1.36188 0.4637,2.98406 -0.3809,4.25659 -1.1058,1.11081 -2.3782,2.47319 -2.0267,4.18838 0.3899,1.51749 1.6606,2.70301 1.5286,4.39714 0.1477,1.67623 2.4195,2.37887 2.22,4.115 -1.176,-0.5012 -1.4035,-2.55869 -2.7745,-3.21169 -1.6681,-1.1504 -3.5825,-2.10078 -4.6416,-3.91811 -0.7665,-1.20196 -1.5686,-2.38416 -2.3006,-3.60391 -0.6676,-1.57318 -0.256,-3.30744 0.2227,-4.86741 0.1719,-1.51901 0.3795,-3.084 1.4133,-4.30671 1.8235,-2.61092 3.5695,-5.32655 5.9971,-7.43055 2.7164,-2.80857 5.5208,-5.68591 7.0786,-9.33277 0.8729,-1.90153 1.1234,-4.02007 1.5022,-6.05958 0.5395,-3.34449 -0.7772,-6.95485 -3.5346,-8.98291 -2.0562,-1.75668 -4.4865,-3.58574 -7.2967,-3.5388 z m -68.5607,2.44429 c 0.2031,0.0124 0.5447,1.06305 -0.1147,0.4346 -0.01,-0.32716 0.047,-0.43872 0.1147,-0.4346 z m 43.6831,0.72554 c -0.2833,-9.9e-4 0.048,0.76972 0.5064,0.33176 -0.2491,-0.24506 -0.4119,-0.33143 -0.5064,-0.33176 z m 24.6647,0.81959 c -0.1308,0.003 -0.2615,0.008 -0.3897,0.0253 0.1282,-0.0169 0.2589,-0.022 0.3897,-0.0253 z m 0.5803,0.0186 c 0.321,0.0329 0.634,0.0964 0.9198,0.17518 1.4369,0.0445 2.1739,1.75896 2.8619,2.76624 0.4078,1.02528 0.3109,2.17177 0.3819,3.26079 0.1355,0.69977 -0.1017,1.33819 -0.3804,1.9699 -0.4978,1.3693 -1.1977,2.6149 -2.0603,3.79305 -0.8304,1.63984 -1.7811,3.21694 -3.1192,4.49844 -0.1045,0.13317 -0.2167,0.25868 -0.3349,0.37775 0.1185,-0.11931 0.2312,-0.24429 0.3359,-0.37775 1.3381,-1.2815 2.2893,-2.8586 3.1197,-4.49844 0.8626,-1.17815 1.5621,-2.42427 2.0599,-3.79356 0.2787,-0.63171 0.5158,-1.27014 0.3803,-1.96991 -0.071,-1.08902 0.026,-2.2355 -0.3814,-3.26078 -0.688,-1.00728 -1.4249,-2.72178 -2.8618,-2.76624 -0.2863,-0.0789 -0.5999,-0.14183 -0.9214,-0.17467 z m -29.5889,0.84439 c 0.4379,0.0511 0.7808,0.36919 0.065,0.81856 -0.2141,0.12245 -0.5024,0.12 -0.7013,-0.0346 -0.3344,-0.61927 0.1987,-0.83499 0.6367,-0.78394 z m -41.4957,1.387 c 0.3392,0.0262 1.0736,0.58317 0.6171,0.93276 l -0.213,-0.0693 -0.2454,-0.17725 v -5.1e-4 c -0.4234,-0.5262 -0.3622,-0.70145 -0.1587,-0.68575 z m 49.3546,0.57567 c -0.041,0.009 -0.091,0.0147 -0.1374,0.0212 0.047,-0.007 0.097,-0.0118 0.1374,-0.0212 z m -0.324,0.0408 c -0.3175,0.025 -0.6968,0.0264 -1.0144,0.0868 0.3178,-0.0603 0.6971,-0.0617 1.0144,-0.0868 z m -15.2486,0.51263 c -0.2562,0.98761 -1.0523,1.51001 -1.2651,2.76779 -0.2128,1.25778 0.384,3.34957 -0.8335,4.57491 0.3015,1.11843 1.6259,-0.93315 1.5642,-2.13062 -0.063,-1.19746 -0.3515,-3.62897 1.124,-2.21847 0.012,1.38399 0.2222,2.89592 -0.2853,4.2323 -0.603,1.5024 -2.0473,2.17437 -3.4912,2.63602 -1.7461,1.04012 -3.7022,1.60233 -5.6307,2.19418 -1.512,0.62774 -2.9538,1.73264 -3.6856,3.21324 -0.418,1.23034 -0.2563,3.3692 1.5224,3.12436 0.9975,0.5526 -1.0892,1.5042 -1.6557,1.01079 v 0 c -1.6523,-1.06412 -1.6825,-3.46612 -0.9979,-5.11132 1.2709,-2.11655 3.6514,-3.24674 5.981,-3.77599 2.2426,-0.74684 4.2979,-2.41641 5.2576,-4.57854 0.013,-1.32094 -0.3109,-2.69444 0.08,-3.97288 0.3644,-0.94797 1.5308,-1.75464 2.3146,-1.96577 z m -26.5323,0.0868 c 1.0879,1.40532 -0.3922,3.19156 0.5034,4.74286 0.4699,1.27191 0.3043,2.8105 -0.5364,3.88762 -0.2522,0.20889 -0.692,0.44061 -0.9995,0.20153 0.1908,-1.59604 0.7633,-3.28613 0.9023,-4.9537 0.077,-1.11955 0.1179,-3.06573 -0.9565,-2.56883 0.5421,-0.30578 0.8405,-1.01552 1.0867,-1.30948 z m -7.6879,0.17363 c 0.2778,0.06 0.4049,0.82344 -0.3658,0.71933 l -0.036,-0.21755 c 0.1184,-0.41092 0.2758,-0.52907 0.402,-0.50178 z m 43.7989,2.19108 c 0.1612,-0.0344 0.3756,0.0873 0.6547,0.45165 0.3187,1.46619 1.0896,2.90254 1.2294,4.41213 -0.2058,0.7328 -1.0437,2.09093 -1.9549,1.54513 -1.3181,-1.08254 0.7063,-2.81268 -0.2651,-4.20956 -0.1539,-0.58651 -0.1478,-2.096 0.3359,-2.19935 z m -34.7028,0.47387 c 0.1067,0.0182 0.2526,0.21233 0.4362,0.67851 0.4765,1.50483 0.9661,2.97683 1.9776,4.2168 0.4695,1.0219 -0.2112,1.75334 -1.1767,0.95188 -1.8306,-0.48997 -0.6781,-2.55972 -1.1022,-3.85041 -0.4222,-0.52132 -0.4549,-2.05126 -0.1349,-1.99678 z m 59.1814,0.17984 c -0.3069,0.0469 -0.6005,0.0439 -0.8821,0.002 0.2813,0.0417 0.574,0.0453 0.8806,-0.002 5e-4,-1.2e-4 10e-4,-4e-4 0,-5.1e-4 z m -61.5337,1.2795 c 0.074,-0.0312 0.1439,0.12705 0.201,0.58912 0.1927,0.16461 -0.6064,2.88445 -0.6831,1.71617 0.01,-0.41335 0.2607,-2.21183 0.4821,-2.30529 z m 39.3289,5.06895 c 0.1762,0.0187 0.2327,0.26537 0.01,0.80563 -0.9678,1.41813 -0.7436,3.0475 -0.8951,4.60799 -0.511,0.59752 -1.2228,1.67924 -2.0706,1.63504 0.5751,-1.2148 1.5827,-3.02888 0.4496,-4.1336 -0.8446,-0.70344 1.46,-1.57132 1.7781,-2.35231 0.2558,-0.37241 0.5519,-0.58145 0.7282,-0.56275 z m -46.1889,1.42316 c 1.5616,-0.058 0.8601,2.74568 -0.4992,2.58176 -0.1466,1.30152 -1.1822,1.30019 -2.2211,0.89865 -1.8589,-0.0727 0.5626,3.64571 -1.6712,2.74712 -0.3288,-1.23891 -0.7799,-2.73987 -2.4743,-2.25412 -1.2487,0.4488 -2.413,-1.77887 -0.5302,-1.19941 1.606,0.38353 3.022,-1.07738 4.64,-0.50333 1.4394,0.12214 -0.8569,-2.2708 1.0765,-1.67639 0.8287,0.71498 1.448,0.36909 1.6795,-0.59428 z m 69.5373,2.94453 c -0.5124,0.43349 -1.0894,0.7958 -1.6128,1.19734 0.5233,-0.40158 1.1003,-0.76392 1.6128,-1.19734 z m -2.344,1.84381 c -0.9564,0.77919 -1.9478,1.53341 -2.8825,2.35748 -0.4558,0.36073 -0.9216,0.74681 -1.3896,1.12035 0.4683,-0.37377 0.9351,-0.75991 1.3911,-1.12087 0.9344,-0.82381 1.9248,-1.57802 2.881,-2.35696 z m -63.0479,2.52026 c 0.4096,0.37103 0.3501,0.69804 0.076,0.98702 0.2742,-0.28916 0.335,-0.61566 -0.075,-0.98702 -5e-4,10e-6 0,0 0,0 z m -0.098,0.008 c -0.1223,0.005 -0.2446,0.0105 -0.3644,0.0279 0.1199,-0.0174 0.2419,-0.0234 0.3644,-0.0279 z m 39.3821,1.37563 c 1.0228,0.0134 0.7725,2.52727 -0.096,3.14916 -1.1033,0.97334 -1.0418,3.10799 -2.3471,3.61477 l -0.169,-0.0811 c -0.3058,-1.1652 0.8332,-2.53508 -0.8537,-3.01481 0.7067,-1.24507 2.8558,-1.82249 2.9476,-3.50779 0.2001,-0.11295 0.3722,-0.16212 0.5184,-0.1602 z m 18.7874,0.12144 c -0.2339,0.176 -0.4672,0.34398 -0.6986,0.49971 -0.1528,0.0879 -0.3023,0.18276 -0.4491,0.28319 0.1472,-0.10068 0.2975,-0.19559 0.4506,-0.28371 0.2311,-0.15552 0.4636,-0.32344 0.6971,-0.49919 z m -60.0862,0.67438 c -1.2815,0.24226 -2.2233,1.631 -0.9545,2.63498 0.481,1.32046 1.5418,2.48309 3.0546,2.43809 0.1241,0.0284 0.2315,0.0608 0.324,0.0971 -0.092,-0.0362 -0.1992,-0.0693 -0.3229,-0.0977 -1.5128,0.045 -2.5736,-1.11764 -3.0546,-2.4381 -1.2684,-1.00356 -0.3273,-2.39135 0.9534,-2.63446 z m 2.4241,5.17022 c 1.0178,0.39972 0.2102,1.24913 -0.618,1.86346 0.8288,-0.61455 1.6374,-1.46373 0.618,-1.86346 z m -32.7034,-4.77748 c -0.2662,0.10615 -0.5221,0.22889 -0.7648,0.36793 -1.0081,0.63951 -2.1338,1.28718 -3.0019,2.21124 -0.8196,0.65487 -1.685,1.38075 -2.4484,1.96835 -0.5157,0.34224 -1.0222,0.66566 -1.5286,0.97876 0.5067,-0.31329 1.0136,-0.6363 1.5296,-0.97876 0.7634,-0.5876 1.6288,-1.31348 2.4484,-1.96835 0.8681,-0.92406 1.9938,-1.57173 3.0019,-2.21124 0.2427,-0.13904 0.4986,-0.26178 0.7648,-0.36793 -3e-4,1.2e-4 -7e-4,-1.2e-4 -10e-4,0 z m 88.7842,0.0351 c -0.8478,0.66997 -1.5923,1.52374 -2.2505,2.39158 -0.3684,0.61795 -0.9081,1.05785 -1.4474,1.49294 0.5396,-0.43532 1.0799,-0.87518 1.4485,-1.49345 0.6579,-0.86755 1.4019,-1.7212 2.2494,-2.39107 z m -84.0165,0.21497 c -0.4009,0.009 -0.7996,0.0371 -1.155,0.0429 -1.4242,-0.0236 -2.9452,0.0374 -4.0757,1.02992 -2.1006,1.35668 -3.8691,3.16313 -5.994,4.49274 -1.3318,0.92218 -2.3689,2.31921 -4.069,2.56005 -2.1973,0.96682 -4.6643,0.71933 -6.9293,1.3808 -1.6817,0.52306 -2.4556,2.18578 -2.7078,3.79512 -0.3855,1.85392 -1.9034,3.11473 -3.4701,4.00079 -1.6037,1.17253 0.5669,1.80343 1.6118,1.30741 0.5078,1.34351 -2.5246,2.00843 -1.5947,3.79925 0.2519,1.8572 0.1387,3.75568 -0.4749,5.53351 -0.5389,0.9415 -0.3258,2.67047 1.0681,1.78646 1.9235,-0.8021 3.8403,-1.76162 5.4731,-3.02979 1.3327,-0.74665 3.2693,-1.30255 3.6597,-2.96933 -0.1302,-1.67049 0.7848,-3.03439 1.6226,-4.37493 0.9468,-0.50721 1.7465,-1.23579 0.8739,-2.31975 -0.6437,-1.52438 -0.2401,-3.34131 1.0366,-4.41317 1.259,-0.96079 0.08,1.60576 0.1576,2.22467 0.059,1.79327 1.5404,3.09141 2.3451,4.5899 1.0931,0.88848 0.5826,2.64321 1.2733,3.49075 1.5129,-0.78644 2.0883,-2.73818 1.6139,-4.32429 -0.4123,-1.32394 -1.4444,-3.04728 -0.5928,-4.28966 0.1597,1.51451 1.0597,2.67171 2.1658,3.66334 1.9508,-0.40677 0.9223,-3.04133 0.8113,-4.44417 -0.1715,-1.63053 -0.1156,-3.87119 1.6309,-4.63641 0.8369,0.23148 -0.2094,1.61042 -0.2625,2.35748 -0.1475,0.99312 0.3648,2.02361 0.1628,3.04064 -0.3531,0.76542 0.3277,2.05282 0.6532,0.59325 0.3521,-1.69982 -0.4691,-3.78767 0.8774,-5.17437 1.0892,-1.3212 3.1302,-0.97644 2.695,1.02113 -0.2657,0.4502 0.09,1.85127 -0.6444,1.68362 -1.4152,-0.0513 -1.2968,2.02886 -0.3008,2.57659 -0.3124,0.5884 -1.2283,2.33979 0.4279,2.45618 0.8266,0.5198 3.1875,-1.73398 2.4551,0.10232 -0.8313,1.79374 -0.9113,4.05158 0.2837,5.70611 1.7006,2.54097 4.075,4.54399 5.7826,7.08535 0.3051,0.28445 0.8253,1.09501 1.2842,0.56793 0.7777,-1.28484 0.9609,-2.83729 1.4092,-4.25142 -0.516,-1.32048 -2.5278,-2.4134 -1.4201,-4.01733 0.4672,-1.19298 -0.7203,-0.8606 -0.5327,0.13384 0.035,0.94516 -0.8536,1.86009 -1.1581,0.51987 -0.3571,0.53769 -1.1811,1.72492 -0.553,0.33073 1.1299,-1.13757 -0.5136,-3.53701 1.4449,-3.88555 0.3134,1.0787 1.1494,2.18461 1.9813,2.98689 -0.3276,1.74746 1.8365,1.31544 1.8262,-0.22065 0.8083,-1.94818 2.676,-3.18528 3.5673,-5.06843 -0.117,-1.98532 -1.977,-3.1282 -3.1745,-4.48861 -1.6461,-1.69179 -3.4591,-3.20963 -5.4054,-4.53874 -1.9062,-1.77167 -2.1036,-4.5397 -3.0938,-6.81819 -0.1583,-1.47206 -1.3834,-1.62162 -2.5859,-1.59474 z m 0.7017,1.1467 c 0.8965,-0.10674 2.2811,1.3086 0.7876,0.99736 -0.6971,-0.18707 -2.7949,0.43378 -1.2888,-0.64027 0.1135,-0.2267 0.2944,-0.33246 0.5012,-0.35709 z m 54.4784,0.73639 c 0.039,0.0247 -0.033,0.19377 -0.2967,0.58084 -0.4683,1.38035 0.5041,2.90615 0.1478,4.38268 1.2936,0.71211 0.1122,2.76175 -0.9472,2.35025 -0.1982,-0.95588 0.6969,-2.49911 -0.9322,-2.7125 0.327,-0.95598 1.3698,-1.73886 0.8185,-2.92488 -0.026,-0.52652 1.0929,-1.75045 1.2098,-1.67639 z m -6.4694,0.90744 c 0.4778,-0.0327 1.4535,1.40933 0.4976,0.72037 -0.4322,-0.1915 -1.9212,-0.45619 -0.5855,-0.69298 0.027,-0.0164 0.056,-0.0252 0.088,-0.0274 z m 30.8203,1.55029 c -0.2483,0.23738 -0.475,0.49481 -0.6583,0.7953 -0.9179,1.6926 -2.2261,3.31541 -2.4025,5.30252 -0.4948,1.85797 -1.0396,3.76013 -0.7896,5.71025 0.01,1.52843 0.6161,2.92596 1.771,3.92741 0.26,0.44181 0.2864,0.70184 0.1736,0.8294 0.1137,-0.12726 0.089,-0.38662 -0.1721,-0.8294 -1.1549,-1.00145 -1.7625,-2.39898 -1.7714,-3.92741 -0.25,-1.95012 0.2948,-3.85228 0.7896,-5.71025 0.1764,-1.98711 1.4845,-3.60992 2.4024,-5.30252 0.1831,-0.30016 0.4094,-0.55813 0.6573,-0.7953 z m -92.0434,0.93586 c -0.5068,0.31329 -1.0134,0.61641 -1.5281,0.91933 -0.1821,0.15346 -0.37,0.29948 -0.5643,0.4346 0.1947,-0.13531 0.3834,-0.28141 0.5658,-0.43512 0.5144,-0.30272 1.0202,-0.60574 1.5266,-0.91881 z m 4.3232,0.49713 c 0.1273,0.0279 0.085,0.21815 -0.3126,0.67386 -0.7833,1.38985 -3.0104,0.52691 -3.574,2.3549 -0.835,1.20924 -2.7009,0.76586 -3.6178,1.90686 -0.6393,0.31379 -1.5988,0.64609 -2.2728,0.63355 1.0304,-0.89956 2.5225,-1.57771 3.8432,-2.13889 1.6105,-0.85426 3.0724,-1.95955 4.7429,-2.69337 0.2956,-0.37892 0.979,-0.78342 1.1911,-0.73691 z m 107.7769,0.53744 c -0.5012,0.22799 -0.9564,0.55806 -1.3508,0.93999 0.3943,-0.38199 0.8497,-0.71186 1.3508,-0.93999 z m -1.3508,0.93999 c -0.1976,0.19135 -0.3802,0.39543 -0.5452,0.60668 -0.8582,1.19894 -1.6795,2.76363 -1.4413,4.28243 0.6083,1.40985 -0.141,2.4193 -1.0929,3.28868 0.9523,-0.86955 1.7024,-1.87842 1.094,-3.28868 -0.2382,-1.5188 0.583,-3.08401 1.4412,-4.28295 0.1648,-0.21096 0.3469,-0.41503 0.5442,-0.60616 z m -71.745,-0.31574 c -0.5116,0.34215 -0.9918,0.74503 -1.4159,1.20147 0.424,-0.4565 0.9044,-0.85925 1.4159,-1.20147 z m -1.4159,1.20147 c -0.4247,0.45699 -0.7933,0.96735 -1.0801,1.52549 -0.604,0.66605 -0.628,1.88584 -1.2206,2.50166 0.5934,-0.61556 0.6174,-1.83532 1.2217,-2.50166 0.2866,-0.55781 0.6546,-1.06871 1.079,-1.52549 z m -2.3007,4.02715 c -0.098,0.10226 -0.2127,0.188 -0.3478,0.25166 0.1353,-0.0636 0.2492,-0.14938 0.3478,-0.25166 z m -38.8379,-4.80488 c -0.1526,0.0497 -0.3041,0.10242 -0.4625,0.13591 -0.2552,0.1617 -0.5279,0.28274 -0.8103,0.37982 0.2828,-0.0971 0.5563,-0.2179 0.8118,-0.37982 0.158,-0.0334 0.3088,-0.0864 0.461,-0.13591 z m 98.9784,0.0388 c 0.258,1.33612 -0.8414,2.86304 -0.8061,4.33669 -0.3718,2.05343 0.098,4.12064 0.9224,6.00635 0.4843,0.70516 0.8208,2.14735 -0.6289,1.56786 -0.7949,-1.42506 -1.3061,-3.04692 -1.5637,-4.65656 0.074,-2.50561 0.1225,-5.40448 2.0763,-7.25434 z m -31.7407,1.26246 c 0.1774,-0.02 0.199,0.13719 -0.072,0.62941 -0.1183,0.80194 -0.745,1.19194 -1.509,0.86662 -0.7508,-0.0279 -1.8056,-0.29363 -0.3881,-0.46561 0.4357,-0.0839 1.5793,-0.98634 1.9694,-1.03042 z m 17.0993,0.68988 c 0.2916,-0.0131 0.6182,0.10158 0.9792,0.39635 0.2669,0.19951 0.6239,0.27695 1.0046,0.26562 -0.3801,0.0111 -0.737,-0.0669 -1.0035,-0.26613 -0.3615,-0.29511 -0.6884,-0.40919 -0.9803,-0.39584 z m -92.1505,0.15503 c -1.4952,1.48046 -1.4128,3.92567 -2.8298,5.47046 -0.1296,0.15409 -0.2708,0.29419 -0.4201,0.42375 0.1496,-0.12977 0.2913,-0.26936 0.4211,-0.42375 1.4168,-1.54452 1.3344,-3.98992 2.8288,-5.47046 z m -3.2499,5.89421 c -1.045,0.90692 -2.4901,1.31291 -3.1931,2.62206 -0.3729,1.54582 0.5464,2.97566 0.6976,4.50464 0.5622,1.75988 0.3164,3.62911 -0.2821,5.34386 -0.6789,0.99213 -0.6725,3.03565 0.942,2.86184 0.1511,0.028 0.2977,0.0416 0.4408,0.0434 -0.1428,-0.002 -0.289,-0.0159 -0.4397,-0.0439 -1.6145,0.17381 -1.621,-1.8697 -0.9421,-2.86184 0.5985,-1.71475 0.8445,-3.58397 0.2822,-5.34386 -0.1511,-1.52898 -1.0705,-2.9583 -0.6977,-4.50412 0.703,-1.30879 2.1471,-1.71566 3.1921,-2.62206 z m 97.9661,-5.46737 c -0.1237,0.0295 -0.247,0.0376 -0.3705,0.0512 0.1234,-0.0136 0.2469,-0.0217 0.3705,-0.0512 z m -40.798,1.05213 c -0.088,1.39427 -1.0396,2.87419 -2.4206,3.34864 -0.5834,0.2137 -1.2478,0.31686 -1.8474,0.10542 -1.3412,-0.50152 1.5958,-0.62024 1.8345,-1.33946 1.0826,-0.37477 1.5554,-1.77148 2.4335,-2.1146 z m 1.665,0.13385 c 0.1475,-0.004 0.262,0.19784 0.3033,0.74879 0.2584,1.096 -1.4547,2.12763 -1.1916,2.77761 0.9419,-1.101 2.2553,-0.25152 3.2168,-1.2082 0.6848,0.76496 -0.054,2.42509 -1.2097,2.07533 -1.1142,-0.49593 -2.4069,0.0331 -3.5936,-0.52555 -2.0177,-0.22457 1.2008,-1.4612 1.4511,-2.39262 0.2149,-0.46518 0.6991,-1.46728 1.0237,-1.47536 z m 12.5119,0.10903 c 0.052,0.0217 0.034,0.19218 -0.1137,0.60669 -0.096,1.20424 2.0965,2.0603 0.3798,3.03909 -0.2526,0.0601 -0.2396,0.7671 -0.541,0.5457 0.1841,-1.10533 -0.3871,-2.22432 -0.4093,-3.18379 0.1243,-0.38262 0.5708,-1.05552 0.6842,-1.00769 z m 40.2027,0.65578 c 0.096,0.0127 0.127,0.23715 0.014,0.81183 -0.1361,1.9174 -0.3101,3.92335 0.4501,5.74177 0.1171,0.23032 0.1684,1.03828 -0.2905,0.493 -0.8146,-1.70645 -1.4098,-3.64537 -0.9095,-5.54127 0,-0.53767 0.5246,-1.53323 0.7354,-1.50533 z m -62.4711,0.65267 c -0.368,0.13218 -0.7484,0.26981 -1.1266,0.40773 0.3786,-0.13805 0.7593,-0.27543 1.1276,-0.40773 -4e-4,3e-5 -7e-4,-3e-5 -10e-4,0 z m -3.0774,1.19889 c -0.8566,0.48507 -1.7014,1.02469 -2.5399,1.6552 0.8385,-0.63057 1.6834,-1.17009 2.5399,-1.6552 z m -2.5399,1.6552 c -3e-4,2.3e-4 -7e-4,2.8e-4 -10e-4,5.2e-4 -0.1484,0.19495 -0.302,0.30427 -0.4579,0.34985 0.1563,-0.0454 0.3102,-0.155 0.4589,-0.35037 z m 78.8231,0.0398 c -0.136,0.12422 -0.2766,0.24554 -0.4175,0.36484 -0.8186,1.4355 0.014,2.86069 0.4625,4.21731 0.1275,0.56124 0.023,0.85696 -0.1933,0.9679 0.2174,-0.11054 0.3221,-0.40631 0.1943,-0.96842 -0.4481,-1.35661 -1.2806,-2.78181 -0.462,-4.21731 0.1407,-0.11906 0.2802,-0.24036 0.416,-0.36432 z m -34.8082,0.42116 c 0.1812,0.0218 0.2619,0.27141 0.092,0.89607 -0.1398,1.42124 -0.069,3.44832 -1.7921,3.89692 -1.7787,0.22386 -3.626,0.30354 -5.2617,1.13999 -0.3374,0.12118 -0.7147,0.32768 -1.0801,0.18396 0.1427,-1.55732 2.8959,-1.77279 4.268,-2.03811 1.9299,0.42917 2.5794,-1.46413 2.7249,-2.97708 0.1657,-0.5426 0.747,-1.13811 1.049,-1.10175 z m -11.2179,0.0165 c -0.7562,-0.0707 -1.7435,0.14706 -1.7208,0.8692 0.5948,0.39397 1.4185,0.17777 2.0567,-0.008 0.9453,-0.43154 0.4203,-0.7908 -0.3359,-0.86145 z m -45.2375,0.1049 c 0.062,0.0181 0.099,0.188 0.049,0.59893 -0.012,0.13029 0.2514,0.97544 -0.2025,0.54416 -0.249,-0.48636 0.016,-1.18281 0.1535,-1.14309 z m -9.0042,0.9276 c 0.4873,0.0248 1.0513,0.54917 1.2113,1.23661 0.8362,1.27687 2.4518,1.985 2.6619,3.69642 0.3918,0.90039 0.7525,1.50082 1.3544,2.33836 0.8436,1.02313 1.7665,2.01378 2.5704,2.99671 0.9326,0.86808 1.6891,1.9963 2.435,3.04788 0.5589,1.11187 1.9993,2.70006 0.8196,3.84266 -0.093,0.41539 -0.2638,0.72899 -0.4899,0.96376 0.2264,-0.23486 0.3977,-0.5479 0.4909,-0.96376 1.1797,-1.1426 -0.2607,-2.73131 -0.8195,-3.84318 -0.7459,-1.05158 -1.5024,-2.17928 -2.435,-3.04736 -0.8039,-0.98293 -1.7263,-1.9741 -2.5699,-2.99723 -0.6019,-0.83754 -0.9627,-1.43797 -1.3545,-2.33836 -0.2101,-1.71142 -1.8256,-2.41954 -2.6618,-3.69641 -0.1602,-0.68792 -0.7254,-1.212 -1.2129,-1.2361 z m 10.5627,18.1224 c -0.1127,0.11711 -0.2392,0.21464 -0.3767,0.29559 0.1375,-0.0809 0.2639,-0.17856 0.3767,-0.29559 z m -10.5869,-18.12085 c -0.046,-6.7e-4 -0.092,10e-4 -0.1359,0.01 0.044,-0.009 0.09,-0.0105 0.1359,-0.01 z m 9.6976,1.16427 c 0.2248,-0.0349 0.4776,0.14372 0.6656,0.69091 0.4251,0.52189 -0.022,1.65489 -0.7437,0.99891 -0.7744,-0.50169 -0.4165,-1.61303 0.078,-1.68982 z m 82.2787,0.68781 c 0.3232,-0.0288 1.2487,1.66816 1.6474,1.95182 0.5156,1.25455 2.9893,1.51644 2.7998,2.82722 -0.1822,0.23608 -0.4672,0.36963 -0.7477,0.19172 -1.676,-0.88808 -3.614,-2.17624 -3.7802,-4.25091 -0.068,-0.50935 -0.027,-0.71025 0.081,-0.71985 z m -106.6421,0.10387 c 0.2734,0.0345 0.4197,0.36838 0.2134,1.08624 -0.1783,0.81246 -0.9249,1.87852 -1.8676,1.77147 -2.066,0.059 -0.7942,-2.56516 0.6791,-2.14716 0.3017,-0.48049 0.7017,-0.7451 0.9751,-0.71055 z m 94.5167,0.40463 c -0.4371,0.1824 -0.6733,1.42165 -0.6733,1.99781 0.067,2.1418 0.152,4.51539 1.6593,6.19497 0.8152,0.97841 1.8335,1.70312 2.8753,2.34817 0.8962,0.60046 1.9874,1.31555 2.6329,2.29909 0.8332,1.18396 0.8964,3.00643 2.0071,3.95841 0.7344,0.92511 1.9306,1.60024 3.0778,1.8464 0.2182,0.0965 0.4401,0.17052 0.6651,0.22841 -0.2247,-0.0578 -0.4462,-0.13258 -0.664,-0.22892 -1.1472,-0.24616 -2.3435,-0.92129 -3.0779,-1.8464 -1.1107,-0.95198 -1.1734,-2.77394 -2.0066,-3.9579 -0.6455,-0.98354 -1.7367,-1.69914 -2.6329,-2.2996 -1.0418,-0.64506 -2.0606,-1.36977 -2.8758,-2.34818 -1.5073,-1.67958 -1.5916,-4.05316 -1.6588,-6.19497 0,-0.57588 0.2361,-1.81397 0.6728,-1.99729 -3e-4,1.3e-4 -7e-4,-1.4e-4 -10e-4,0 z m 12.2442,18.87326 c 1.5725,0.40456 3.2909,-0.006 4.8488,0.5333 1.2004,0.15325 2.173,0.63205 3.2706,1.04542 1.2842,0.51849 0.3491,1.06545 -0.4573,1.54874 0.8066,-0.48343 1.7435,-1.03004 0.4589,-1.54874 -1.0976,-0.41337 -2.0708,-0.89268 -3.2712,-1.04593 -1.5581,-0.53987 -3.2771,-0.12781 -4.8498,-0.53279 z m -110.9079,-18.81694 c 0.1744,-0.005 0.3345,-0.002 0.4702,0.008 0.9779,1.22649 -1.6726,1.42855 -2.3513,1.93477 l -0.2501,-0.0925 v -5.2e-4 c -1.0036,-1.36461 0.91,-1.81391 2.1312,-1.85002 z m 9.2655,0.0398 c 0.4882,-0.005 0.9383,0.19146 1.1612,0.74466 0.8206,0.93464 0.7721,2.24483 -0.054,3.08198 0.8271,-0.83712 0.8761,-2.14757 0.055,-3.0825 -0.2232,-0.55379 -0.6734,-0.74926 -1.1622,-0.74414 z m -0.1064,0.0114 c -0.088,0.006 -0.1768,0.0107 -0.2656,0.0279 0.089,-0.0172 0.1772,-0.022 0.2656,-0.0279 z m 109.7561,1.62316 c -0.033,0.0129 -0.066,0.0263 -0.1029,0.032 0.037,-0.006 0.07,-0.0192 0.1029,-0.032 z m -33.1489,1.25625 c -4e-4,3e-5 -7e-4,4.9e-4 -10e-4,5.2e-4 0.2754,-0.0217 0.5169,0.15174 0.6929,0.68316 0.1863,1.37701 1.0544,2.628 2.3379,3.20342 0.3129,0.24731 0.4735,0.33015 0.5348,0.30645 -0.062,0.0219 -0.2228,-0.0616 -0.5333,-0.30696 -1.2835,-0.57543 -2.1515,-1.82642 -2.3378,-3.20342 -0.176,-0.53143 -0.4181,-0.70483 -0.6935,-0.68317 z m -76.3602,1.40974 c -0.043,0.0271 -0.08,0.0574 -0.1116,0.0899 0.031,-0.0325 0.068,-0.0628 0.1116,-0.0899 z m -0.1116,0.0899 c -0.3123,0.32516 -0.03,0.89062 0.5384,1.1033 -0.5672,-0.21277 -0.8493,-0.77819 -0.5384,-1.1033 z m 1.88,1.16582 c -0.3129,0.0617 -0.6365,0.0743 -0.9695,0.0181 0.3332,0.0561 0.6565,0.0438 0.9695,-0.0181 z m 19.4282,0.9617 c 0.2245,0.0196 0.6739,0.84957 -0.037,0.64854 -0.1212,-0.49894 -0.065,-0.65744 0.037,-0.64854 z m 48.5671,1.80971 c 0.3391,0.78754 2.0725,2.77724 0.8651,3.05873 l -0.1044,-0.19999 v 0 c -0.5237,-0.61789 -1.8086,-2.6799 -0.7596,-2.85874 z m 32.383,1.00976 c 0.4804,0.0344 1.1253,0.42294 1.3478,0.97772 0.883,1.25041 3.0195,0.69262 3.2421,2.60604 1.2555,1.33033 -0.1243,0.70423 -1.0211,0.78186 -1.889,0.10581 -3.1192,-1.76018 -3.9289,-3.21944 -0.4364,-0.86068 -0.1202,-1.1806 0.3601,-1.14618 z m -41.1938,0.13281 c 0.4891,-0.0136 1.9219,0.97344 0.294,0.83819 -0.5439,-0.61896 -0.5163,-0.83201 -0.294,-0.83819 z m -1.9167,0.57981 c 0.6108,-0.0316 1.3797,0.21325 0.9353,0.85421 -0.3007,0.098 -0.6258,0.0223 -0.9229,-0.0486 -1.0764,-0.46565 -0.6232,-0.77401 -0.012,-0.80563 z m 59.4904,0.0269 c 0.1238,0.0175 0.3049,0.12094 0.5555,0.34623 1.3516,0.949 3.1511,0.89264 4.4845,1.76837 0.5108,0.27822 1.2564,2.22431 0,1.13016 h -5e-4 c -1.2504,-1.02454 -3.1651,-0.35177 -4.3553,-1.53479 -0.676,-0.24589 -1.2207,-1.7856 -0.6842,-1.70997 z m -46.5072,0.61443 c 1.5653,0.26975 1.906,2.24942 3.0355,3.17655 0.272,0.95533 1.8607,1.71991 1.9208,2.21485 l -0.3091,-0.12144 c -0.8492,-0.0205 -1.0356,-0.40587 -1.2164,-1.09657 -0.8172,-0.0678 -1.0074,1.40369 -1.1317,-0.0351 -0.046,-0.90614 -0.9881,-1.41571 -1.2744,-0.29611 -0.4884,-0.63709 0.4231,-3.27983 -0.9948,-1.95388 -0.4147,0.0555 0.2527,-1.43516 -0.03,-1.88826 z m 34.7979,0.0718 c 1.3807,0.51622 2.4367,1.60361 3.4695,2.59467 0.9658,0.7771 3.5926,1.17067 3.452,2.38849 l -0.1876,-0.0501 -0.2537,-0.0832 c -1.4215,-0.19849 -2.8751,-0.50679 -3.9233,-1.59421 -1.0891,-0.80448 -2.301,-1.99913 -2.5569,-3.25562 z m -51.0553,0.30851 c 0.1286,-0.0113 0.3069,0.0241 0.541,0.12764 0.7808,-0.20019 3.0214,0.90539 1.1467,1.02836 -0.3778,0.004 -0.7591,-0.0168 -1.127,-0.10697 -0.7488,-0.0724 -1.1183,-0.99994 -0.5607,-1.04903 z m -50.661,1.47019 c -0.2542,0.0959 -0.4993,0.21496 -0.7281,0.36122 0.2288,-0.14633 0.474,-0.26528 0.7281,-0.36122 z m -2.7032,1.33636 c -0.197,0.13742 -0.3874,0.28451 -0.571,0.44183 -0.2377,0.12633 -0.4735,0.27043 -0.7013,0.4315 0.2281,-0.16134 0.4648,-0.30551 0.7028,-0.43202 0.1834,-0.15707 0.3728,-0.30407 0.5695,-0.44131 z m 43.2082,1.36787 c 0.1814,-0.0136 0.3797,0.019 0.5943,0.10749 0.5989,0.58506 -1.1216,1.20422 -0.7726,2.09703 0.043,0.52191 -0.1234,1.95854 -0.9322,1.24437 -0.5996,-1.01118 -0.1592,-3.35365 1.1105,-3.44889 z m -45.1332,0.0413 c -0.4098,0.39228 -0.7598,0.85383 -0.9958,1.38441 -0.4633,1.18868 -1.0166,2.27242 -1.511,3.41582 -0.926,1.45879 -0.6173,3.20397 -0.2868,4.78782 0.9603,4.18746 0.8334,8.51065 0.6392,12.77235 -0.3177,2.98769 -0.563,5.98485 -0.496,8.99324 0.023,1.5443 -0.2632,3.31038 0.8888,4.53978 0.8245,1.3216 2.0846,2.39058 2.6345,3.85558 0.2511,1.5036 -0.3258,3.17798 0.6935,4.49688 0.8123,1.0442 1.0137,2.59059 2.1388,3.36259 1.1485,0.7182 2.3787,1.82016 2.8397,3.21995 0.2111,1.2958 1.3087,2.13502 2.4618,2.48512 3e-4,1.1e-4 7e-4,-10e-5 0,0 -1.1531,-0.35006 -2.2508,-1.1898 -2.4619,-2.48563 -0.461,-1.39973 -1.6911,-2.50175 -2.8396,-3.21996 -1.1251,-0.77199 -1.3266,-2.31835 -2.1389,-3.36259 -1.0193,-1.31893 -0.4425,-2.99328 -0.6935,-4.49688 -0.5499,-1.46496 -1.81,-2.53397 -2.6345,-3.85558 -1.152,-1.22945 -0.866,-2.99494 -0.8888,-4.53926 -0.067,-3.00834 0.1788,-6.00612 0.4966,-8.99376 0.1942,-4.26172 0.3205,-8.58488 -0.6398,-12.77235 -0.3305,-1.58385 -0.6391,-3.32851 0.2869,-4.7873 0.4943,-1.1434 1.0477,-2.22765 1.511,-3.41633 0.2358,-0.53024 0.5852,-0.99179 0.9947,-1.3839 z m 9.0078,53.31354 c 1.0002,0.31265 2.0609,0.21004 3.067,-0.0134 -1.0061,0.22337 -2.0669,0.32633 -3.067,0.0134 z m 117.2915,-52.55751 c 0.503,0.0342 1.7836,1.23749 1.9699,1.74046 1.1828,2.63081 1.5051,5.63099 1.0408,8.4677 0.14,0.20884 -1.2695,2.46438 -0.9752,1.34824 0.8824,-2.29121 0.1537,-4.74753 -0.2397,-7.06055 -0.3246,-1.49867 -1.0137,-2.88163 -1.9705,-4.07107 -0.074,-0.31763 0.01,-0.43617 0.1747,-0.42478 z m -107.7521,0.14779 c -0.112,0.0294 -0.2229,0.0605 -0.341,0.0785 0.118,-0.018 0.229,-0.0492 0.341,-0.0785 z m -10.5709,1.54048 c 0.1928,0.0151 0.2982,0.23716 0.065,0.77669 -0.045,0.17877 -0.4014,0.80574 -0.5932,0.35864 -0.3574,-0.61097 0.2067,-1.16048 0.5281,-1.13533 z m 111.7022,0.33383 c 1.5555,0.0398 2.7168,1.56873 3.421,2.82928 0.8168,1.574 0.982,3.44564 0.7168,5.1785 -0.07,0.42734 -0.6241,0.58258 -0.9044,0.23771 -0.4929,-1.54816 -0.1651,-3.33919 -1.0418,-4.81728 -0.2688,-1.42741 -2.3554,-2.45864 -2.5084,-3.41581 0.1072,-0.0111 0.2131,-0.015 0.3168,-0.0124 z m 4.2561,0.79788 c 0.1563,0.0272 0.3375,0.22466 0.479,0.65319 1.3769,1.91791 1.6608,4.54656 1.0641,6.8001 -0.3383,0.71569 -0.4681,2.18949 -1.3219,2.37454 -0.2756,-1.42842 0.5843,-2.88333 0.5384,-4.36253 0.3435,-1.60461 -0.5505,-3.01798 -1.0319,-4.46794 -0.1794,-0.61575 0.012,-1.0427 0.2723,-0.99736 z m -8.1943,0.94258 c 1.6229,0.31518 3.2333,1.20419 4.0622,2.69493 0.4804,1.05709 2.2337,3.019 1.0641,3.915 -0.1921,0.0323 -0.4072,-0.0177 -0.5411,-0.16743 -0.9186,-1.19534 -0.9883,-2.80703 -2.0443,-3.84938 -0.5995,-1.01332 -2.2879,-1.71388 -2.5409,-2.59312 z m -81.0964,0.59635 c 0.3249,0.0314 0.615,0.2844 0.8615,0.94981 1.2628,-0.12223 2.5525,0.91055 3.2111,1.47639 -1.463,1.00325 -3.0405,-0.50894 -4.4948,0.14522 -1.0535,1.30278 -2.843,0.14079 -4.116,0.97358 -0.9561,0.45125 -2.0347,0.52514 -3.0644,0.32659 -2.4306,-0.3241 -4.994,-0.31786 -7.2223,-1.47794 -2.2746,-0.60647 0.9092,-1.3518 1.8381,-0.83148 2.0992,0.0389 4.1019,1.0455 6.2027,0.863 1.358,-0.61649 2.7493,-1.14826 4.2261,-1.42782 0.9603,-0.0606 1.8434,-1.06639 2.558,-0.99735 z m 91.3376,0.11989 c 1.0267,0.50648 1.4201,2.15659 1.5885,3.31814 0.052,1.9105 -0.09,3.89181 -0.7596,5.69268 -0.401,0.62036 -1.4151,1.93919 -2.2314,1.39578 0.2764,-1.53697 1.638,-2.66525 1.8862,-4.24264 0.625,-2.06524 -0.192,-4.13691 -0.4837,-6.16396 z m -17.2915,1.38286 c -0.2688,0.16114 -0.5235,0.31527 -0.6764,0.45888 -1.2027,0.72628 -1.9292,2.34271 -1.5234,3.72742 0.1354,0.12619 0.2874,0.16787 0.4516,0.15762 -0.1636,0.01 -0.315,-0.0323 -0.4501,-0.15813 -0.4058,-1.38472 0.3208,-3.00114 1.5235,-3.72742 0.1527,-0.14343 0.4064,-0.29745 0.6748,-0.45837 z m 0.138,3.69796 c -0.066,3.6e-4 -0.1328,0.007 -0.1994,0.0186 0.2651,-0.0452 0.5294,-0.0124 0.7828,0.17415 1.8322,0.82737 0.9704,3.12458 1.2299,4.66534 0.199,1.5259 0.6553,3.24381 1.8366,4.27571 0.8706,0.8121 1.9472,1.38361 2.9353,1.96371 1.2231,0.5574 2.6065,1.43512 2.8256,2.91661 0.059,0.50447 -0.1017,0.90524 -0.3845,1.19631 0.2833,-0.29114 0.4441,-0.6919 0.3856,-1.19682 -0.2191,-1.48145 -1.6025,-2.35919 -2.8257,-2.91662 -0.9881,-0.58011 -2.0646,-1.15163 -2.9352,-1.96371 -1.1813,-1.03191 -1.6376,-2.74976 -1.8366,-4.2757 -0.2595,-1.54074 0.6023,-3.83797 -1.2299,-4.66535 -0.1901,-0.13989 -0.3864,-0.19332 -0.5845,-0.19224 z m -109.23,0.36742 c 0.132,-0.0307 0.3294,0.0839 0.5969,0.43667 1.0078,0.19321 1.1285,1.86089 -0.1142,1.24747 -0.6826,-0.19251 -0.8787,-1.59191 -0.4827,-1.68414 z m 10.11,1.45263 c -0.1581,0.008 -0.3138,0.028 -0.4651,0.0615 0.6037,-0.13338 1.2815,-0.0528 1.8722,0.16123 -0.4428,-0.16034 -0.9344,-0.24627 -1.4071,-0.22272 z m 1.4082,0.22272 c 1.3258,0.21245 2.6331,0.64257 3.8111,1.25781 0.8571,0.29746 1.6129,0.77621 2.4112,1.29811 1.1346,0.89881 2.559,1.37895 3.9114,1.87275 0.1398,0.0683 0.2834,0.12425 0.43,0.17208 -0.1463,-0.0478 -0.2894,-0.10448 -0.429,-0.17259 -1.3524,-0.49377 -2.7768,-0.974 -3.9113,-1.87276 -0.7983,-0.5219 -1.5542,-1.00013 -2.4113,-1.29759 -1.1783,-0.61539 -2.4859,-1.04542 -3.8121,-1.25781 z m 10.5637,4.60075 c 0.4383,0.1431 0.9023,0.20871 1.3652,0.27751 -0.4629,-0.0688 -0.9269,-0.1343 -1.3652,-0.27751 z m 21.2617,-2.4784 c 0.071,-0.0122 0.097,0.0333 0.058,0.15865 -0.6121,0.94381 0.1812,3.05245 -1.1322,3.13211 l -6e-4,-0.16227 0.015,-0.19843 h 5e-4 c 0.3667,-1.14837 -1.8586,-0.22958 -0.5932,-1.39785 0.2117,-0.34891 1.3467,-1.47927 1.6526,-1.53221 z m 30.1951,0.0326 c 1.2787,0.64658 0.4831,2.54955 0.2279,3.63854 -0.857,2.33134 -2.6056,4.37545 -4.8757,5.41259 -0.1579,0.0466 -0.3979,0.0827 -0.5039,-0.0889 1.0349,-1.27374 2.5763,-2.27754 3.3414,-3.81527 0.8993,-1.60197 1.2624,-3.43873 1.8103,-5.14697 z m -2.9172,0.23616 c 1.124,0.91137 0.2429,2.72033 -0.171,3.85506 -0.7766,1.64871 -1.8909,3.1818 -3.3595,4.27674 -0.1134,0.0865 -0.3369,0.15798 -0.4548,0.03 0.4615,-1.34225 2.0786,-2.42452 2.6288,-3.89847 1.0001,-1.20558 0.487,-3.39125 1.3565,-4.26331 z m 5.1899,0.45682 c 0.6871,0.0437 0.2305,2.15568 0.062,2.82102 -0.5217,2.41022 -2.2177,4.44364 -4.2783,5.72368 -0.101,0.0234 -0.3688,0.19641 -0.4806,0.0382 0.7645,-1.20781 1.9696,-2.13858 2.5823,-3.47421 0.9434,-1.56817 1.5499,-3.31366 1.9621,-5.08858 0.056,-0.0165 0.1072,-0.0231 0.153,-0.0201 z m 1.8696,0.61237 c 1.0253,0.56583 -0.07,2.68078 -0.3979,3.76462 -0.7824,1.8201 -1.8783,3.51964 -3.1651,5.02089 -0.1907,0.16802 -0.5485,0.31797 -0.7452,0.0677 0.065,-1.24211 1.4764,-2.05124 2.1285,-3.07578 1.0885,-1.75386 1.7995,-3.76035 2.1797,-5.77742 z m 2.1276,0.52503 c 0.402,1.31936 -0.3864,2.77553 -0.7917,4.06228 -0.679,1.40815 -1.3076,3.01364 -2.6236,3.9455 l -0.1845,-0.007 -0.1799,-0.12867 c 0,7.1e-4 -4e-4,10e-4 -5e-4,0.002 v -0.002 h 5e-4 c 0.1842,-1.51441 1.9661,-2.5868 2.3389,-4.18114 0.6749,-1.09636 0.5043,-2.99323 1.4408,-3.69073 z m -10.8934,0.14418 c 0.3441,0.0525 0.1819,1.54101 -0.2109,1.98954 -0.4754,1.05381 -1.1626,2.71024 -2.5926,2.46548 0.8331,-1.25229 1.7827,-2.47809 2.28,-3.93723 0.2374,-0.39324 0.4088,-0.5353 0.5235,-0.51779 z m -1.3653,0.58446 c -0.3644,0.87557 -0.9664,2.40445 -1.9441,2.52181 0.5571,-0.7511 1.161,-2.47903 1.9441,-2.52181 z m -44.1017,0.16433 c 0.6174,0.0918 1.2326,0.19012 1.7828,0.48731 1.2159,1.14339 2.4689,2.2396 3.6876,3.3786 1.0883,0.9899 2.2656,1.99871 3.3776,2.87011 0.8444,0.792 1.8542,1.34077 2.7709,2.06757 1.1585,0.6085 2.1786,1.35709 3.4112,1.76579 1.1064,0.3091 2.1106,0.87286 3.1832,1.18856 0.2597,0.10822 0.525,0.2021 0.7938,0.28835 -0.2685,-0.0862 -0.5334,-0.18076 -0.7927,-0.28887 -1.0726,-0.31573 -2.0764,-0.87947 -3.1828,-1.18856 -1.2326,-0.40865 -2.2532,-1.15679 -3.4117,-1.76527 -0.9167,-0.7268 -1.9264,-1.27603 -2.7708,-2.06809 -1.112,-0.87136 -2.2893,-1.8797 -3.3776,-2.86959 -1.2187,-1.139 -2.4712,-2.23572 -3.6871,-3.37912 -0.5505,-0.29735 -1.1667,-0.395 -1.7844,-0.48679 z m 19.0071,12.04629 c 0.805,0.25833 1.6428,0.44339 2.467,0.70332 0.7671,0.2036 1.5415,0.36959 2.3213,0.50643 -0.7793,-0.13678 -1.5537,-0.3035 -2.3202,-0.50695 -0.8246,-0.26006 -1.6628,-0.44431 -2.4681,-0.7028 z m 39.041,-9.04389 c 0.12,-0.007 0.2515,0.0289 0.3984,0.11989 -0.1699,1.01176 -0.1385,2.21548 -0.6144,3.0272 -0.2571,0.17569 -0.6228,0.44705 -0.9472,0.29042 -0.6692,-0.0647 -2.4496,-0.36593 -0.9953,-0.9834 1.0447,-0.24303 1.3189,-2.4049 2.1585,-2.45411 z m -67.4889,0.69866 c -0.075,0.0216 -0.1548,0.0563 -0.2398,0.10439 0.086,-0.0485 0.1655,-0.0827 0.2408,-0.10439 -3e-4,1.1e-4 -6e-4,-10e-5 0,0 z m -0.2398,0.10439 c -5e-4,3e-4 -10e-4,2.2e-4 0,5.2e-4 -0.1911,0.15755 -0.4318,0.36795 -0.6961,0.57205 0.2647,-0.20434 0.5063,-0.41485 0.6976,-0.57257 z m -1.11,0.86765 c -0.2811,0.1829 -0.5727,0.32994 -0.848,0.3824 0.2755,-0.0522 0.5667,-0.19946 0.848,-0.3824 z m 31.3015,0.73122 c 0.3232,-0.0316 0.5119,0.1922 0.1777,0.83664 -0.5194,1.09128 -1.8274,1.92903 -3.0463,1.66088 -1.5759,-0.39187 1.5221,-1.0631 1.8826,-1.80144 0.2047,-0.37721 0.6627,-0.66445 0.986,-0.69608 z m 19.605,0.47852 c 1.2444,1.02114 -0.4878,2.88005 -1.2837,3.75688 -0.208,0.0833 -0.5977,0.34679 -0.801,0.12971 1.15,-1.00659 0.9185,-3.21089 2.0847,-3.88659 z m -2.4257,0.18552 c 1.4168,-0.16673 0.5049,2.59681 -0.3307,3.27267 -0.306,0.47665 -0.8906,0.79659 -1.4408,0.51263 -0.012,-1.19192 1.5873,-2.36851 1.7715,-3.7853 z m -1.6206,0.12247 c 0.1659,0.0349 0.3239,0.23397 0.4703,0.6904 -0.1538,1.43601 -1.4417,3.19792 -2.9409,3.329 -0.7127,-0.80863 -3.2676,-0.393 -1.5421,-1.76165 0.744,-0.77711 2.0023,-2.70134 2.4195,-0.66456 0.528,-0.3266 1.0955,-1.698 1.5932,-1.59319 z m -13.7061,0.23048 c 0.1816,0.006 0.3547,0.0918 0.5142,0.28732 -0.3939,0.94418 -1.8678,2.09762 -2.9089,1.56166 0.6636,-0.42077 1.6078,-1.87705 2.3947,-1.84898 z m 9.172,0.50126 c 0.6566,1.35763 -1.2973,3.13129 -2.5822,3.06131 -0.7046,-1.80914 -2.9037,-0.93374 -4.3259,-1.3441 0.5566,-1.8242 2.9997,-0.3953 4.3367,-1.11053 0.9071,1.49024 1.685,-0.31421 2.5714,-0.60668 z m -7.6062,0.73071 c 0.2322,0.01 0.3068,0.19442 -0.033,0.65267 -0.3265,0.28071 -0.8419,0.53267 -1.2593,0.29766 0.08,-0.49712 0.9048,-0.96656 1.2919,-0.95033 z m 62.0675,0.16691 c 0.6158,0.16006 0.3571,2.43882 -0.3938,2.82257 -1.6522,1.85691 -3.5425,3.6727 -5.9567,4.45657 -0.1272,0.0204 -0.2865,0.0396 -0.3907,-0.0589 0.1837,-1.35553 2.2052,-1.62529 3.0748,-2.63756 1.4193,-1.10279 2.5826,-2.56645 3.0954,-4.30568 0.24,-0.23805 0.4289,-0.31393 0.571,-0.27699 z m 0.089,3.92483 c 1.1818,0.52021 -1.078,2.09025 -1.6418,2.76365 -1.3049,1.08494 -2.7292,2.04251 -4.2607,2.76779 l -0.2894,0.0496 -0.2403,-0.0341 c -0.9042,-1.12711 1.9845,-1.71675 2.6593,-2.50475 1.388,-0.8451 2.5593,-1.97805 3.7729,-3.04219 z m -62.2892,1.51102 c 2.339,0.41029 4.7253,0.55702 7.0967,0.65577 1.7172,-0.2151 2.6238,1.58979 2.7797,3.02979 -0.3866,1.3458 -0.8496,2.68408 -1.1824,4.04988 -0.5351,3.9049 -0.19,7.8628 -0.092,11.78739 0.033,0.99548 0.2134,2.36161 -0.4924,3.11351 0.7067,-0.75171 0.5266,-2.1182 0.494,-3.11402 -0.098,-3.9246 -0.4431,-7.88254 0.092,-11.7874 0.3328,-1.36578 0.7952,-2.70415 1.1818,-4.04988 -0.1559,-1.44005 -1.0625,-3.24482 -2.7797,-3.02979 -2.3718,-0.0987 -4.7583,-0.24477 -7.0977,-0.65525 z m 8.1096,22.63634 c -0.1583,0.16862 -0.3626,0.30532 -0.6217,0.40101 0.2593,-0.0956 0.4632,-0.23251 0.6217,-0.40101 z m 35.728,-22.27823 c 0.266,-0.0461 0.5528,0.11277 0.8671,0.59583 0.034,1.76795 -1.8745,2.90294 -1.8458,4.70101 0.078,1.7257 -1.1019,2.98338 -1.9917,4.30981 -0.3239,0.6389 -0.6763,1.95456 -1.6624,1.59629 -1.3506,-1.29345 1.0063,-2.82788 0.8733,-4.3093 -0.1666,-1.68876 0.3769,-3.15853 1.7715,-4.16926 0.5823,-0.60341 1.1901,-2.5861 1.988,-2.72438 z m 18.925,0.61495 c 0.7978,1.21467 -1.4849,2.38327 -2.403,3.20187 -1.3554,0.85189 -2.7252,1.76171 -4.2721,2.22312 l -0.2873,0.008 -0.2093,-0.11524 v -10e-4 c -0.156,-1.28146 2.1827,-1.58668 3.099,-2.35437 1.551,-0.71326 2.7664,-1.90713 4.0727,-2.9621 z m -104.6329,1.74615 c 0.9069,0.0612 1.8523,0.53907 2.8168,0.32918 -0.7549,0.82129 -1.6946,2.57426 -3.0117,1.68103 l -0.2216,-0.14883 c -0.8885,-0.46634 -2.0615,-1.28503 -0.477,-1.74253 0.293,-0.11301 0.5911,-0.13925 0.8935,-0.11885 z m 108.6233,1.0542 c -0.051,10e-4 -0.099,0.009 -0.1462,0.0165 0.5556,-0.0894 1.3502,0.28214 1.942,0.69764 0.1628,0.0777 0.3317,0.14064 0.5043,0.19378 -0.1723,-0.0531 -0.3407,-0.11678 -0.5033,-0.1943 -0.5415,-0.38016 -1.2539,-0.7261 -1.7968,-0.71365 z m 2.3001,0.90795 c 0.6891,0.2121 1.4411,0.26236 2.1415,0.41445 -0.7003,-0.15192 -1.4527,-0.20223 -2.1415,-0.41445 z m 2.1415,0.41445 c 0.1752,0.038 0.3473,0.0825 0.5142,0.13746 -0.1671,-0.055 -0.3388,-0.0994 -0.5142,-0.13746 z m 0.5142,0.13746 c 0.3337,0.10989 0.6472,0.26227 0.926,0.48937 0.483,0.95963 0.069,1.85116 -0.6025,2.56419 0.6715,-0.71316 1.0867,-1.60473 0.6036,-2.5647 -0.2791,-0.22732 -0.593,-0.37895 -0.9271,-0.48886 z m 0.3235,3.05356 c -0.2682,0.28493 -0.5771,0.54135 -0.8863,0.76223 0.3092,-0.22081 0.618,-0.47734 0.8863,-0.76223 z m -117.2404,-3.86333 c 0.1481,0.0155 0.3265,0.0955 0.5328,0.26406 0.799,0.67533 1.0308,2.1086 -0.4517,1.24231 -0.7866,-0.42635 -0.7228,-1.57355 -0.081,-1.50637 z m 63.5041,0.21394 c -1.4779,0.59105 -2.7699,1.7066 -4.4266,1.82108 -1.2671,0.64611 -2.6004,-0.99885 -3.5192,-0.44752 -1.052,2.74982 -0.8764,5.77143 -0.8464,8.66562 0,2.39834 0.5771,4.82686 0.1157,7.20369 -0.5144,1.44846 -2.0007,2.42199 -3.5481,2.14923 -3.1725,0.12791 -6.3173,-0.41947 -9.3766,-1.21543 -2.7089,-0.41146 -5.576,-0.69063 -8.2342,0.12557 -2.7841,1.21498 -3.9184,4.38268 -6.3546,6.06108 -1.3835,1.0153 -3.3533,2.1311 -3.251,4.1057 0.042,1.9845 0.1385,3.9824 -0.2878,5.9371 -0.3544,1.3741 -0.1521,3.2931 1.7363,2.927 0.9052,0.022 1.8094,-0.053 2.7094,-0.139 l -5e-4,0.01 c 1.8629,-0.2604 3.7871,-0.088 5.6162,-0.5297 1.4943,-0.8179 1.5224,-2.7298 2.1022,-4.1444 0.6766,-1.5494 0.8189,-3.2119 -0.3649,-4.5522 -0.4902,-1.7586 3.4337,-1.4142 2.0707,-3.3016 -0.5815,-0.579 -2.3755,-2.2505 -0.4356,-1.9776 1.7247,-0.015 2.306,1.9097 3.0742,3.114 0.7842,1.0289 2.0584,2.8684 3.4665,1.6531 1.4523,-0.061 2.9564,0.3116 4.4069,-0.1121 1.5475,0.4707 3.1031,-0.4185 4.6721,0.154 1.4598,0.5937 2.7198,-0.7637 4.116,-0.1148 0.983,0.1855 2.0182,-0.1613 2.9823,0 1.3234,0.5307 2.8418,1.4421 4.2209,0.5731 0.6487,-0.7562 1.6059,-1.474 1.9032,-2.4324 0.039,-1.7575 -0.099,-3.5294 0.1096,-5.2756 0.5141,-1.46185 1.774,-2.52615 2.066,-4.09328 0.8352,-1.92518 -0.5101,-4.07637 0.5307,-5.95365 0.5622,-1.25508 2.449,-2.76389 1.355,-4.16925 -0.6765,-1.45646 -2.0574,-2.32963 -2.6908,-3.74241 -0.829,-1.29938 -2.5716,-1.86675 -3.9176,-2.29443 z m 44.1596,0.14573 c 0.07,-0.006 0.1217,0.0103 0.1509,0.0532 -0.9368,1.24083 -2.4365,1.87835 -3.731,2.67529 -0.7725,0.21246 -1.747,1.09074 -2.4831,0.89039 0.068,-1.3528 2.3271,-1.67284 3.421,-2.32751 0.7711,-0.16257 2.1524,-1.2515 2.6422,-1.29139 z m -43.0759,1.99419 c 1.62,0.0993 2.6278,1.68895 3.1714,3.0887 0.3594,0.40174 1.321,2.91535 0.2496,2.40295 -1.1116,-1.09648 -1.5714,-2.58492 -2.3839,-3.87056 -0.3496,-0.5508 -2.5186,-0.87369 -1.3689,-1.62057 0.1135,-0.007 0.2238,-0.007 0.3318,-5.2e-4 z m -6.4544,0.22531 c 0.4216,0.0176 0.8244,0.19071 0.7912,0.60926 -0.3321,0.24661 -0.741,0.28309 -1.1302,0.18501 -1.1193,-0.42038 -0.3637,-0.82354 0.339,-0.79427 z m 48.8254,0.80047 c 0.5165,0.0151 -1.2096,1.24855 -1.5306,1.50998 -1.45,1.14197 -3.303,1.61808 -5.0855,1.94097 l -0.2842,-0.0145 h -5e-4 c -1.3385,-1.18338 1.6446,-1.15893 2.3445,-1.70429 1.4831,-0.56493 3.0234,-0.94756 4.422,-1.71824 0.055,-0.0105 0.1,-0.015 0.1343,-0.014 z m -43.6128,0.52038 c 0.2369,-0.0222 0.5207,0.06 0.818,0.30076 1.35,0.90978 2.2644,2.27358 2.6825,3.81165 0.3985,0.19968 1.525,1.7605 0.429,0.90744 -1.7854,-0.57876 -2.7808,-2.05109 -3.8975,-3.42822 -1.0323,-0.51498 -0.7428,-1.52504 -0.032,-1.59163 z m 24.5267,0.12971 c 2.0876,0.0559 -0.2222,2.36203 -0.569,3.30315 -0.2178,0.33166 -0.6336,0.54369 -1.0154,0.35037 0.046,-1.14615 1.0563,-2.51807 1.5844,-3.65352 z m 28.4804,0.59634 c -0.1548,0.11051 -0.3098,0.21205 -0.4594,0.30386 -0.1594,0.0997 -0.3082,0.22516 -0.4434,0.36897 0.1354,-0.14415 0.2852,-0.26961 0.4449,-0.36949 0.1494,-0.0916 0.3035,-0.1931 0.4579,-0.30334 z m -0.9028,0.67283 c -0.9484,1.00884 -1.2129,2.92892 0.4553,3.31298 0.7725,0.20411 1.604,0.28722 2.4034,0.19378 -0.7991,0.0932 -1.6296,0.01 -2.4019,-0.1943 -1.6677,-0.38391 -1.4046,-2.30338 -0.4568,-3.31246 z m -25.5416,0.15193 c 0.6984,1.1852 -0.9777,2.47353 -1.7363,3.33571 -0.2089,0.13215 -0.5222,0.43424 -0.7881,0.24546 0.4998,-1.18661 1.698,-2.50309 2.5244,-3.58117 z m 15.6342,0.86093 c -0.6084,1.43891 -2.2716,2.18339 -3.6913,2.70216 -1.0186,0.22074 -2.1531,1.04703 -3.0938,0.9989 0.068,-1.27195 1.9355,-1.83513 3.0556,-2.1978 1.3186,-0.28243 2.5457,-0.98115 3.7295,-1.50326 z m -43.4769,0.15089 c 1.4812,0.11227 3.0816,1.46788 2.7538,2.96003 -0.3083,0.22625 -0.7369,0.13935 -1.0371,-0.0491 -0.7478,-0.6385 -2.0403,-2.15628 -1.7167,-2.91094 z m 29.0137,0.39688 c 0.1806,-0.0254 0.2832,0.16434 0.1876,0.74465 -0.6159,1.5208 -1.8146,2.72962 -3.05,3.77187 l -0.2444,0.11162 -0.1555,-0.0579 c 0.263,-1.24388 1.6615,-2.23884 2.2711,-3.4587 0.173,-0.4286 0.6902,-1.06924 0.9912,-1.11156 z m -33.3411,0.49144 c 0.4428,-0.0639 1.4992,0.78724 0.1452,0.55294 l -0.2713,-0.10956 -5e-4,-5.1e-4 c -0.1008,-0.29875 -0.021,-0.42158 0.1266,-0.44287 z m 61.1471,1.35702 c -0.102,0.0242 -0.2063,0.0397 -0.31,0.0574 0.1037,-0.0177 0.208,-0.0331 0.31,-0.0574 z m -60.7601,0.0196 c 0.2704,-0.0895 1.1877,0.5532 0.045,0.39067 -0.1539,-0.24944 -0.1356,-0.36083 -0.045,-0.39067 z m 3.175,0.65681 c 0.2945,-2.9e-4 0.9351,0.90161 1.4578,1.0728 1.5418,0.61653 0.4624,2.62447 -0.8361,1.37304 -0.9245,-0.29835 -1.4942,-0.8361 -0.7653,-1.73322 -0.053,-0.52613 0.01,-0.71249 0.1436,-0.71262 z m 41.273,0.046 c 0.1293,0.0124 0.2454,0.0488 0.3457,0.11369 -1.0384,1.37991 -2.7147,1.88908 -4.1383,2.74143 -0.8,0.35808 -1.6591,1.42281 -2.5554,1.31 0.2895,-1.37028 1.7952,-2.19702 2.9564,-2.85306 0.9556,-0.33449 2.4864,-1.39907 3.3916,-1.31206 z m -11.2712,1.05885 c 0.5959,0.12236 0.2386,1.98766 -0.6242,2.19211 -0.4656,0.32752 -1.0962,1.13879 -1.7317,0.89866 -0.8619,-0.95769 1.3131,-1.94622 1.7854,-2.85513 0.2445,-0.1992 0.433,-0.26388 0.5705,-0.23564 z m -33.3721,0.0956 c 0.4409,-0.0376 1.7619,0.47095 0.2894,0.48731 -0.5083,-0.34029 -0.4898,-0.47022 -0.2894,-0.48731 z m 3.0148,2.0159 c 1.675,0.15323 1.7481,3.44503 -0.035,2.81481 -0.043,-0.8935 -0.2813,-2.17042 -0.3215,-2.80189 0.1259,-0.0198 0.2449,-0.0231 0.3566,-0.0129 z m 13.3966,1.47071 c 0.082,0.01 0.1631,0.0307 0.2429,0.063 -0.019,0.93093 0.9115,1.55115 0.8568,2.41949 -0.064,0.90183 -0.3352,2.12856 0.8945,2.17196 -0.2911,0.56644 0.3269,2.46775 -0.2765,2.24435 l -0.1173,-0.1282 -0.1307,-0.1653 c -0.4497,-1.58235 -1.8167,-2.39524 -2.6138,-3.75591 -1.4705,-0.75769 -0.086,-2.9993 1.1441,-2.84944 z m -10.4423,0.84026 c 0.066,-0.0108 0.2329,0.043 0.5375,0.19017 0.5597,0.21836 3.1711,0.77984 2.0267,1.32808 -0.2719,-0.009 -0.544,-0.041 -0.8077,-0.10852 -0.4414,-0.1062 -2.0428,-1.36309 -1.7565,-1.40973 z m 0.6005,2.05517 c 0.2447,0.0268 1.0574,0.71589 0.034,0.26097 -0.1338,-0.20511 -0.1151,-0.2699 -0.034,-0.26097 z m -32.336,1.18029 c -0.07,0.0394 -0.1365,0.0838 -0.2046,0.12609 0.068,-0.0423 0.135,-0.0867 0.2046,-0.12609 z m 36.989,0.13694 c -4e-4,6e-5 -7e-4,4.7e-4 0,5.2e-4 0.8604,-0.12328 1.8478,0.84693 2.2237,1.62419 0.5398,1.55493 2.3633,2.13563 2.8034,3.75993 0.6927,1.1871 1.2289,2.5964 2.3461,3.4308 0.8298,0.7587 1.8496,1.2385 2.7595,1.7379 0.9301,0.6235 1.874,1.1008 2.8924,1.7084 0.97,0.6708 2.1407,1.1903 2.7673,2.2759 0.4583,1.3374 -0.5438,2.5849 -1.2088,3.6034 -0.1606,0.3006 -0.3286,0.5954 -0.5028,0.8852 0.1744,-0.2902 0.343,-0.5847 0.5039,-0.8857 0.665,-1.0186 1.6675,-2.266 1.2092,-3.6034 -0.6266,-1.0856 -1.7978,-1.605 -2.7678,-2.2759 -1.0184,-0.6075 -1.9622,-1.0853 -2.8923,-1.7089 -0.9099,-0.4994 -1.9292,-0.9787 -2.759,-1.7374 -1.1172,-0.8344 -1.6539,-2.2442 -2.3466,-3.4313 -0.4401,-1.6243 -2.2632,-2.2044 -2.803,-3.75945 -0.3759,-0.77732 -1.3637,-1.74747 -2.2241,-1.62419 z m 14.0797,19.02624 c -0.5224,0.8693 -1.0987,1.6957 -1.6877,2.5182 -0.2219,0.3307 -0.4711,0.6372 -0.7354,0.9296 0.2647,-0.2927 0.5143,-0.599 0.7364,-0.9301 0.5887,-0.8221 1.1645,-1.6489 1.6867,-2.5177 z m -51.572,-18.83968 c -0.3335,0.23586 -0.6501,0.50682 -0.9503,0.82062 0.3002,-0.31398 0.6168,-0.58461 0.9503,-0.82062 z m -0.9503,0.82062 c -5e-4,4.4e-4 0,5.8e-4 0,10e-4 -0.2807,0.3256 -0.5497,0.66339 -0.816,1.00516 0.2666,-0.34216 0.5366,-0.68024 0.8176,-1.00619 z m -0.8186,1.00716 c -0.6665,0.8553 -1.3145,1.7351 -2.0753,2.5094 0.761,-0.7743 1.4088,-1.654 2.0753,-2.5094 z m 33.4812,2.6717 c 0.783,-0.036 1.4957,0.1611 1.2572,1.1415 -1.5574,0.7202 -3.0978,2.0185 -4.9144,1.7772 -1.3701,-0.038 -0.9549,-1.424 0.2563,-1.0661 1.1525,-0.074 0.5589,-2.1797 2.1053,-1.6531 0.3306,-0.072 0.8257,-0.1778 1.2956,-0.1995 z m -15.8213,0.8945 c 0.6024,-9e-4 1.1503,0.1587 1.5632,0.6888 -0.8709,0.7539 -2.7031,0.3506 -3.9171,0.7395 -0.2759,0 -0.5554,-10e-5 -0.8268,-0.051 l -10e-4,-5e-4 c -1.2912,-0.017 -1.2341,-1.6245 0.086,-1.0108 0.9362,0.082 2.0919,-0.3645 3.0959,-0.3659 z m 39.4777,1.6319 c 0.1688,0.036 0.409,0.4813 -0.058,0.5468 -0.1183,-0.4431 -0.043,-0.5685 0.058,-0.5468 z m -63.007,0.3959 c -0.207,0.2181 -0.3954,0.4531 -0.554,0.7085 0.1585,-0.2555 0.3471,-0.4904 0.554,-0.7085 z m -0.554,0.7085 c -0.1591,0.2562 -0.2886,0.5328 -0.3757,0.8345 -0.1846,2.548 0.057,5.1273 -0.4413,7.6528 -0.5204,1.5903 0.5529,3.0823 2.1296,3.1393 2.2665,0.1649 4.5592,-0.1314 6.8316,-0.2371 0.6345,-0.083 1.3499,-0.052 2.018,-0.1318 -0.6676,0.08 -1.3829,0.048 -2.0169,0.1312 -2.2724,0.1057 -4.5652,0.4016 -6.8317,0.2367 -1.5767,-0.057 -2.65,-1.549 -2.1296,-3.1393 0.498,-2.5254 0.2573,-5.1047 0.4419,-7.6528 0.087,-0.3012 0.2154,-0.5777 0.3741,-0.8335 z m 10.1622,11.2577 c 0.3332,-0.04 0.6549,-0.1071 0.9483,-0.2305 -0.2936,0.1233 -0.6149,0.1907 -0.9483,0.2305 z m 52.0872,-11.6944 c 0.1188,0.065 0.08,0.5152 -0.1689,0.1085 0.072,-0.1097 0.1294,-0.1303 0.1689,-0.1085 z m -3.0607,0.5679 c 0.2912,0.136 3.4843,2.0493 1.757,1.5415 -0.9166,0.1199 -2.1122,-1.1345 -1.757,-1.5415 z m -44.1291,0.8367 c -0.2101,0 -0.4217,0.019 -0.6196,0.067 0.7903,-0.193 1.7967,0.016 2.0613,0.7933 -0.1921,1.7212 1.3368,1.0712 2.4759,1.1022 0.9776,-0.062 2.0211,0.1487 2.9755,-0.014 -0.9541,0.1622 -1.9973,-0.049 -2.9745,0.013 -1.1391,-0.031 -2.6679,0.619 -2.4758,-1.1023 -0.1985,-0.5827 -0.8139,-0.8455 -1.4428,-0.8593 z m 55.2777,0.9777 c 0.3738,-0.032 1.2466,0.6017 0.2569,0.6971 l -0.2352,-0.1287 c -0.258,-0.4023 -0.1916,-0.554 -0.022,-0.5684 z m -35.6515,0.1865 c -0.1862,0 -0.371,0.021 -0.554,0.05 1.0961,-0.1734 2.2599,0.1367 3.3409,0.3561 0.9837,0.6274 2.4383,0.7504 3.5589,0.3266 4e-4,-3e-4 7e-4,-7e-4 0,0 -1.1206,0.4238 -2.5753,0.3008 -3.559,-0.3266 -0.9008,-0.1828 -1.8592,-0.4282 -2.7879,-0.4047 z m -1.2015,0.2248 c -0.1412,0.052 -0.2823,0.1055 -0.4196,0.1799 -4e-4,3e-4 -7e-4,6e-4 0,0 0.1379,-0.075 0.279,-0.1289 0.4207,-0.1809 z m -10.0681,0.2455 c -0.1775,-0.018 -0.3586,-0.019 -0.5447,0 -4e-4,2e-4 -7e-4,3e-4 -10e-4,5e-4 1.3966,-0.1685 2.5095,0.9809 3.9026,0.815 -1.2067,0.1428 -2.2037,-0.7013 -3.3569,-0.8191 z m 3.3569,0.8191 c 0.092,-0.011 0.1861,-0.027 0.2811,-0.051 0.1078,-0.077 0.2222,-0.1368 0.339,-0.1891 -0.1164,0.052 -0.2305,0.1109 -0.338,0.1881 -0.096,0.023 -0.1893,0.041 -0.2821,0.052 z m 6.152,-0.7695 c -0.042,0.029 -0.085,0.052 -0.1281,0.073 0.043,-0.021 0.086,-0.044 0.1281,-0.073 z m -27.2557,0.038 c 1.1837,-0.055 2.3025,0.5371 1.4423,1.881 -0.3261,0.5305 -1.053,0.6146 -1.6138,0.5271 -1.0387,0.1733 -2.7732,-0.4432 -1.6159,-1.6319 0.3436,-0.4765 1.0773,-0.7431 1.7874,-0.7762 z m 3.0169,0.096 c 0.945,0.1 2.04,2.0898 0.77,2.8882 -0.3243,0.1805 -0.8931,0.27 -1.126,-0.1064 h 5e-4 c -0.4061,-0.9549 1.4029,-1.9249 -0.033,-2.7001 0.1215,-0.072 0.2536,-0.096 0.3886,-0.082 z m 22.7831,0.019 c -0.1124,2e-4 -0.2239,0.01 -0.3333,0.029 0.4366,-0.083 0.9065,0.05 1.3327,-0.01 -0.3193,0.045 -0.6634,-0.018 -0.9994,-0.018 z m -0.3333,0.029 c -0.1092,0.021 -0.2161,0.055 -0.3199,0.109 0.1036,-0.054 0.2109,-0.088 0.3199,-0.109 z m -2.403,0.1374 c -0.3026,-0.012 -0.6008,10e-4 -0.8841,0.06 0.8491,-0.1779 1.8306,0.065 2.6675,0.139 4e-4,-4e-4 7e-4,-7e-4 10e-4,-10e-4 -0.5578,-0.05 -1.18,-0.1738 -1.7844,-0.1985 z m 42.8491,0.5514 c 0.1507,0.016 0.3503,0.1507 0.602,0.4599 0.1344,1.2821 -0.7636,2.5214 -0.5513,3.93 -0.09,1.9447 -2.1696,2.5078 -3.0929,3.9068 -0.6161,1.5531 -2.456,1.6491 -3.5238,2.7471 -0.2703,0.097 -0.5615,0.03 -0.8341,-0.014 -0.7583,-0.2481 0.8461,-1.5002 1.1157,-2.0019 1.3258,-0.8746 1.7363,-2.4849 3.1647,-3.114 1.4114,-1.0559 3.3368,-2.3332 2.9993,-4.3713 -0.3431,-0.5739 -0.3316,-1.5914 0.1204,-1.5426 z m -63.5656,4.4995 c 0.3905,-0.063 0.8013,0.186 0.3545,0.8899 -0.1251,0.189 -0.4123,0.2372 -0.5876,0.089 -0.5274,-0.542 -0.1574,-0.9166 0.2331,-0.9793 z m 3.5124,2.7745 c -0.1173,0.084 -0.2437,0.1492 -0.3741,0.2072 0.1304,-0.058 0.2568,-0.1235 0.3741,-0.2072 z m 45.8112,3.3626 c -0.2647,0.2927 -0.5444,0.5714 -0.8268,0.8475 0.2823,-0.276 0.5622,-0.5549 0.8268,-0.8475 z m 6.2378,0.6862 c -0.8188,1.0313 -1.3339,2.3151 -2.4722,3.0004 -0.4218,1.5445 -1.1699,3.1692 -2.4603,4.1723 -1.2839,0.8464 -2.1934,2.754 -3.684,3.0179 l -0.022,-0.1927 c 0.7394,-1.5174 2.3475,-2.4652 2.6841,-4.2535 0.986,-1.3165 2.3217,-2.3422 3.1956,-3.7455 0.8316,-0.589 2.2514,-1.799 2.759,-1.9989 z m -7.9064,0.9907 c -0.1379,0.1406 -0.2732,0.283 -0.4047,0.4289 0.1314,-0.1459 0.2669,-0.2884 0.4047,-0.4289 z m -0.4057,0.4299 c -0.1314,0.1459 -0.259,0.2952 -0.3809,0.4491 5e-4,-4e-4 0,-7e-4 0,0 0.1216,-0.1536 0.2483,-0.3026 0.3793,-0.4481 z m -0.3809,0.4491 c -1.1836,0.9034 -1.9779,2.239 -2.9372,3.3972 0.9593,-1.1579 1.754,-2.4935 2.9372,-3.3972 z m 14.3521,2.9678 c -0.1135,0 -0.222,0.017 -0.3307,0.03 0.2571,-0.031 0.527,-0.035 0.8056,-0.023 -0.1608,-0.01 -0.3198,-0.011 -0.4749,-0.01 z m 0.4765,0.01 c 0.3223,0.014 0.6528,0.041 0.9751,0.044 4e-4,-10e-5 7e-4,-4e-4 0,-5e-4 -0.3229,0 -0.6534,-0.03 -0.9762,-0.043 z m -17.7669,0.4237 c -0.1371,0.1655 -0.2777,0.3273 -0.4232,0.4837 -0.1128,0.1275 -0.2296,0.2467 -0.3504,0.3587 0.1211,-0.1123 0.2384,-0.2314 0.3514,-0.3592 0.1452,-0.1561 0.2854,-0.3181 0.4222,-0.4832 z m -0.7736,0.8424 c -0.2412,0.2237 -0.4978,0.4186 -0.7669,0.5922 0.2692,-0.1736 0.5256,-0.3685 0.7669,-0.5922 z m -6.0544,3.5713 c -5e-4,4e-4 0,7e-4 0,0 -0.1338,0.1345 -0.2547,0.2754 -0.3659,0.4211 0.1114,-0.1461 0.2333,-0.2873 0.3674,-0.4222 z m -0.3684,0.4232 c -0.7801,1.0231 -1.0639,2.2948 -1.6754,3.4412 -0.3037,0.4707 -0.6546,0.909 -1.0439,1.3079 0.3897,-0.3991 0.741,-0.8373 1.0449,-1.3084 0.6113,-1.146 0.895,-2.4177 1.6744,-3.4407 z m -5.947,6.996 c -0.234,0.1391 -0.4658,0.2807 -0.6578,0.4579 0.1919,-0.1772 0.4239,-0.3188 0.6578,-0.4579 z m -0.6578,0.4579 c -0.2851,0.2629 -0.4971,0.5871 -0.555,1.0294 0.4607,2.3062 -0.4365,4.5441 -0.7447,6.8057 -0.1971,1.2824 -0.7487,3.3556 0.8449,3.9104 v 0 c -1.5936,-0.5548 -1.042,-2.6276 -0.8449,-3.9099 0.3082,-2.2617 1.2058,-4.5 0.7451,-6.8063 0.058,-0.4417 0.2688,-0.7655 0.5535,-1.0283 z m -0.4548,11.7455 h -0.01 c 1.505,0.084 3.0683,0.075 4.5873,-0.1519 -1.5185,0.2264 -3.0813,0.2354 -4.5858,0.1514 z m 15.673,-8.5778 c 0.6125,0.037 0.1154,2.0523 0.7534,2.0361 2e-4,-2e-4 4e-4,-4e-4 5e-4,-5e-4 -0.6375,0.015 -0.1401,-2.0003 -0.7539,-2.0356 z m -0.057,0.01 c -0.034,0 -0.066,0 -0.1054,0.019 0.04,-0.015 0.072,-0.015 0.1054,-0.019 z m 3.4164,0.3229 c -6e-4,0 0,5e-4 0,6e-4 0.1367,0 0.2753,0.018 0.415,0.066 0.3967,1.363 -1.8006,2.9836 -0.9137,3.9817 6e-4,-1e-4 10e-4,0 0,0 -0.8869,-0.9981 1.3098,-2.6192 0.9131,-3.9822 -0.1397,-0.048 -0.2777,-0.068 -0.4144,-0.066 z m 0,6e-4 c -0.1366,0 -0.2718,0.027 -0.4051,0.07 0.1335,-0.043 0.2684,-0.068 0.4051,-0.07 z" /></g></svg>
