<?xml version="1.0" encoding="UTF-8" standalone="no"?>
<!-- Created with Inkscape (http://www.inkscape.org/) -->

<svg
   width="297mm"
   height="210.00002mm"
   viewBox="0 0 297 210.00002"
   version="1.1"
   id="svg5"
   xml:space="preserve"
   xmlns="http://www.w3.org/2000/svg"
   xmlns:svg="http://www.w3.org/2000/svg"><defs
     id="defs2" /><g
     id="layer1"
     transform="translate(-440.00001,-220.30338)"><rect
       style="fill:#fa0000;fill-opacity:1;stroke-width:0.119813;-inkscape-stroke:none;stop-color:#000000"
       id="rect1436-44"
       width="297.00006"
       height="210"
       x="439.99997"
       y="220.30339" /><path
       id="path1157-7"
       style="display:inline;fill:#ffffff;stroke-width:0.714487"
       d="m 582.35774,248.7781 c -0.14042,0.32801 0.75741,0.73752 -0.2651,0.70176 -0.80733,0.81796 -0.86733,2.25386 -0.97617,3.37964 0.0926,1.29995 0.81327,2.44678 1.85828,3.20291 0.72112,0.27282 0.87659,0.76634 -0.0915,0.72915 -1.34186,-0.0296 -1.91895,-2.03932 -2.78225,-2.14354 -0.30525,0.65996 1.31831,2.34294 -0.14728,1.72755 -0.50849,-0.11844 -1.00116,-0.69375 -1.50224,-0.62322 -1.5764,0.4921 0.17791,1.56165 0.93741,1.91461 1.63855,0.9086 3.3916,2.13962 5.36092,1.8681 0.96814,-0.0115 1.52548,-1.82043 2.3766,-0.91415 0.16694,-0.54843 -0.39879,-1.81492 0.57671,-0.92811 0.88055,0.71953 0.62092,2.31215 -0.45321,2.66857 -1.13022,-1.1291 -2.14429,0.53937 -2.67219,1.526 -0.59586,1.41606 -0.7292,3.03301 -0.44183,4.53616 0.48582,0.92809 1.34414,-0.97922 2.14664,-0.96066 1.1745,-0.70061 2.7664,-1.04729 3.39876,-2.3797 1.16934,-0.97113 1.65548,1.58107 1.67121,2.43809 0.22654,1.25784 -0.52622,2.79983 0.17777,3.88142 1.02526,-0.55203 1.96771,-1.30484 2.99155,-1.89291 1.30281,-0.77187 2.61789,-2.34291 2.04949,-3.94291 -0.27469,-0.47527 -1.14867,-1.35269 0.0708,-1.05575 1.34966,0.31732 1.97298,1.66775 2.12907,2.9285 0.3612,1.50809 0.45786,3.24254 -0.59531,4.51394 -0.74226,0.96899 -1.6669,2.06886 -1.23662,3.38119 0.5509,1.33189 0.0113,2.84486 -1.22834,3.56722 -2.01104,1.37257 -4.72335,1.39772 -6.49418,3.18585 -1.66893,1.30309 -2.37798,3.57693 -1.88826,5.61827 0.44471,1.48336 -1.00757,2.42988 -2.02365,3.17861 -1.2695,0.85714 -2.37642,2.10489 -2.52801,3.69125 -0.26402,0.98667 1.2135,2.70798 1.92753,1.60559 -1.5135,-0.33149 -1.88443,-2.48399 -0.43925,-3.27319 1.29794,-0.93298 2.99745,-0.40645 4.45813,-0.75292 1.64492,-0.69884 1.23371,-3.1255 2.87011,-3.80701 1.42673,-0.86045 3.17412,-0.39603 4.66276,-0.99735 1.14571,-0.4728 1.48747,-2.15409 2.90577,-2.0252 1.28608,-0.15694 2.7516,-0.7837 3.2675,-2.05776 0.86391,-1.25356 -0.10902,-2.58496 0.2496,-3.82147 -0.16814,-0.92862 0.63243,-1.10674 0.8232,-0.18293 0.72324,2.25992 -0.16574,4.65589 -1.14412,6.69571 -0.84696,1.458 -1.95302,2.93512 -3.6344,3.45974 -1.4224,0.47158 -2.5275,1.91116 -2.43706,3.43235 -0.0132,1.35277 -0.95671,2.36115 -1.93632,3.1626 -0.80869,1.27585 -2.28906,1.34708 -3.64525,1.28984 -1.7228,0.004 -3.46627,1.17876 -3.72019,2.95744 -0.4081,1.16763 1.51796,2.45595 -0.262,3.14555 -0.94174,0.42412 -1.66145,2.77449 -0.0238,2.34972 1.40212,-0.20941 0.93873,-2.24933 1.99988,-2.52026 1.62146,0.71981 1.72589,-2.01612 3.31918,-1.55907 1.06188,0.27677 2.20183,0.22729 3.27835,0.16019 0.77242,-0.40283 1.61086,-0.69308 2.16111,-1.41438 0.78723,-0.85765 1.24928,-1.96776 2.15284,-2.73627 0.57343,-0.55038 1.88285,-2.03637 2.43706,-1.02216 -0.92361,0.74849 -1.64686,1.82241 -1.62936,3.067 -0.1231,1.46182 -0.59833,2.96555 -1.80144,3.90053 -1.84209,1.79517 -4.57493,2.79602 -5.60534,5.31803 -0.42788,1.20596 -0.9824,2.61181 -0.31161,3.838 0.17794,0.22813 0.68569,0.9357 0.99477,0.51884 v -5.2e-4 c -0.85385,-1.12109 -0.88468,-2.8108 0.27337,-3.78995 0.90614,-0.94986 2.33497,-1.18735 3.54604,-0.73432 1.37992,0.51486 3.17731,0.4956 4.1429,-0.78393 0.81624,-0.82707 1.11975,-2.50969 2.07429,-2.91662 0.4599,0.54411 0.82004,2.6859 1.64641,2.10323 0.48976,-1.09173 0.4407,-2.3463 0.11059,-3.47111 0.15568,-1.14539 0.57257,-2.26423 0.77463,-3.41633 0.0767,-0.31068 0.17326,-0.61656 0.27491,-0.92139 0.004,-0.11232 0.0124,-0.2237 0.015,-0.33641 0.091,-0.36073 0.24594,-0.75895 0.46044,-1.11259 0.1644,-0.5639 0.28479,-1.13685 0.2775,-1.73737 -0.0735,-0.87889 0.86577,-1.69224 1.17047,-0.43769 0.11111,0.67647 1.3745,1.93147 1.68569,1.0914 -1.02061,-1.21329 -0.80427,-2.89432 -0.39791,-4.30671 0.38969,-1.63097 1.57536,-3.02775 1.60455,-4.74131 -0.14453,-1.15964 -0.6805,-2.36694 -0.57877,-3.49385 0.84644,-0.25398 1.95833,-0.79871 0.95239,-1.6769 -1.28968,-2.0843 -0.84827,-4.61018 -0.92397,-6.93084 0.13414,-1.46097 -0.83557,-2.78248 -2.09031,-3.43493 -1.21615,-1.0079 2.65206,-0.2512 1.2826,-1.62368 -1.01752,-0.70874 -2.05661,-1.37586 -2.41897,-2.59312 -1.00799,-0.61679 -2.2572,-1.05079 -3.01067,-1.95027 1.09022,-0.0816 2.25212,-0.0708 3.19826,-0.0124 0.94615,0.0583 2.03075,-0.37147 1.17253,-1.27021 -1.20092,-1.19443 -3.07624,-1.10305 -4.50463,-1.90944 -1.20652,-0.49332 -2.04508,-1.52365 -2.58537,-2.67684 -0.66828,-1.60497 -2.26177,-2.6892 -3.98632,-2.79156 -0.9549,0.0825 -2.90654,-0.50826 -0.98806,-1.05627 0.78178,-0.83561 0.0911,-1.27758 -0.76481,-1.38544 -0.40247,-0.0153 -0.80963,0.0253 -1.19682,0.0708 -0.10486,0.0297 -0.20346,0.0637 -0.28474,0.10646 -1.62908,0.26002 -3.31367,0.81245 -4.963,0.44131 -1.40526,-1.11676 -1.02961,1.57061 -2.06138,1.95337 -0.6439,0.79477 -2.01787,-0.009 -0.95498,-0.76068 0.4463,-1.21155 -0.0319,-2.60426 -0.68471,-3.66075 -0.86428,-1.16964 -2.16901,-2.09124 -3.60391,-2.36213 z m 7.20782,1.16478 c -0.13106,0.009 -0.2576,0.0603 -0.3731,0.16278 -0.73278,1.06692 -0.40338,3.09697 1.27072,2.37867 l 0.13695,-0.0532 c 1.01321,-0.58346 -0.11714,-2.55371 -1.03457,-2.48822 z m -5.82703,0.29094 c 0.1013,-0.006 0.278,0.04 0.555,0.15917 0.47564,-0.0118 1.2601,1.78324 0.37879,1.16478 -0.39366,-0.29403 -1.37274,-1.29836 -0.93379,-1.32395 z m 2.41174,2.69854 c 0.70229,0.3303 -0.28258,3.49482 -0.53589,2.06138 -0.006,-0.63374 0.1858,-1.71142 0.53589,-2.06138 z m -21.61315,0.35657 c -0.17609,0.0144 -0.34275,0.0466 -0.50281,0.092 -0.24176,0.1111 -0.48224,0.23102 -0.73019,0.32814 -0.79227,0.46936 -1.43623,1.22173 -2.19728,1.73375 -0.3026,0.093 -0.6211,0.15349 -0.94103,0.21084 -0.58315,0.2132 -1.20703,0.3456 -1.79059,0.56069 -0.23555,0.15155 -0.45151,0.34396 -0.63097,0.61133 -0.69164,0.88513 -1.48075,1.66577 -2.38177,2.33732 -1.08985,1.33271 -1.31056,3.14863 -1.47329,4.80953 -0.0642,0.99053 0.23092,2.00321 0.79375,2.8236 0.0242,0.0313 0.0469,0.0639 0.0718,0.0946 0.0309,0.0425 0.0658,0.0816 0.0982,0.12299 0.32999,0.37878 0.72117,0.70129 1.14825,0.96841 0.18777,-0.92819 -0.66236,-2.18338 -0.36535,-3.29954 -10e-4,-1.37459 0.0185,-3.04515 1.32344,-3.87056 0.84262,-0.60147 -0.40209,1.01854 -0.38034,1.44177 -0.64675,1.76438 -0.29154,3.90941 0.91312,5.35058 0.80434,0.93209 2.29967,1.25753 3.35948,0.60926 1.26299,-0.89751 2.52089,-2.22707 2.33164,-3.90415 0.0819,-0.43799 -0.18519,-0.95408 -0.555,-1.30587 -0.27418,-0.20622 -0.60905,-0.33734 -0.95033,-0.39119 -0.15649,0.0309 -0.301,0.11946 -0.41858,0.28474 0.62004,1.29799 -1.08352,2.31215 -2.13992,1.5751 -1.41847,-0.82607 -1.2477,-2.8332 -0.45527,-4.04782 0.52563,-1.07199 1.26724,-2.29179 2.59261,-2.39055 1.8639,-0.32631 3.6823,0.44046 5.54746,0.2496 1.54811,-0.0597 3.07575,0.46603 4.35271,1.32292 0.95339,0.62754 2.77568,0.0435 3.40806,0.64182 -2.02112,0.68598 -4.34686,0.35275 -6.13709,-0.80047 -0.42786,-0.50884 -2.09242,-0.44342 -0.91261,0.1943 0.49408,0.28492 0.99622,0.58857 1.50999,0.86868 0.15957,0.0677 0.32113,0.12848 0.48575,0.17725 0.84519,0.47777 1.84425,0.34502 2.72335,0.678 0.0873,0.0321 0.16624,0.0749 0.24133,0.12247 0.0175,-0.001 0.0346,-7.4e-4 0.0522,-0.002 1.49716,-0.0973 2.98023,-0.42724 4.49172,-0.39532 1.62081,-0.0672 3.35481,0.23125 4.87154,-0.47491 -0.10859,-1.04762 -2.00982,-1.28637 -2.80345,-1.98489 -1.55993,-1.05432 -3.22419,-1.97146 -4.95474,-2.69596 -0.78867,0.2792 1.01341,1.00642 1.31259,1.31723 0.53502,0.0992 1.98151,1.65652 0.64698,0.93173 -1.16933,-0.54326 -2.41187,-0.99989 -3.29799,-1.99419 -1.10029,-0.8747 -2.1587,-1.84777 -3.54448,-2.25103 -1.50494,-0.51035 -3.13101,-0.69199 -4.71289,-0.65009 z m 29.67312,2.86339 c 0.11861,0.0122 0.26191,0.0703 0.42427,0.19276 0.58884,0.34982 0.82505,1.31634 -0.21033,0.68316 -0.78591,-0.12424 -0.72791,-0.92889 -0.21394,-0.87592 z m 1.58492,1.2976 c 0.98741,-0.0258 2.00103,0.96151 2.53163,1.69757 -0.004,0.26151 -0.29187,0.36269 -0.49145,0.20567 -0.50743,-0.86592 -2.09652,-0.91042 -2.23707,-1.88412 0.0655,-0.0111 0.13106,-0.0174 0.19689,-0.0191 z m -5.00073,2.28668 c 0.8044,0.65439 1.1218,2.76801 -0.36329,2.42363 l 0.0155,-0.1602 c 0.27602,-0.60097 -0.0899,-2.2779 0.34778,-2.26343 z m 8.39949,0.24236 c 0.52354,0.0281 1.41328,0.40392 1.66553,0.65888 1.07735,0.76446 1.56505,2.06195 2.30167,3.1135 0.48987,1.07277 1.13964,2.36298 1.22886,3.42718 -0.34724,0.0919 -0.65864,-0.0816 -0.87901,-0.34106 -0.89247,-1.09516 -1.07109,-2.59531 -1.85932,-3.7667 -0.58547,-1.20345 -1.53633,-2.17108 -2.78743,-2.66598 -0.16666,-0.33433 0.0156,-0.44268 0.3297,-0.42582 z m -7.08226,0.004 c 0.0522,0.003 0.10972,0.17239 0.16123,0.61392 0.24567,0.39157 -0.21865,2.37568 -0.31264,1.72496 0.002,-0.36699 0.004,-0.73373 0.007,-1.10071 h -0.001 c -0.0584,-0.45165 0.0304,-1.24542 0.14521,-1.23817 z m -9.09557,1.3007 c -0.77987,0.0424 -1.85855,0.77199 -2.65668,0.64337 -1.72934,0.22076 -3.42472,-0.58325 -5.13871,-0.22428 -0.83138,0.47975 -0.39025,2.07991 -0.48317,3.0024 0.62614,1.82359 2.10489,0.11146 3.04529,-0.33021 1.36936,0.51351 -0.0135,2.89481 -1.37924,2.41432 -0.79555,0.32123 -0.88747,1.75264 -2.08101,1.75545 -0.24163,0.79969 -2.20898,1.21828 -1.31103,0.0264 0.071,-0.52856 -0.47655,-1.71121 0.5767,-1.08107 1.30271,0.48451 1.27357,-1.49476 0.39585,-1.99471 -0.58568,-0.8058 -0.13992,-2.00477 -0.32557,-2.72129 -0.31807,0.1966 -0.58963,0.43924 -0.82889,0.71262 -0.0173,0.0222 -0.0332,0.0449 -0.0522,0.0661 -0.0739,0.0877 -0.14379,0.17924 -0.21187,0.27233 -0.96657,1.56198 -1.74998,3.23385 -2.28203,4.9966 -0.34392,1.03445 -0.64397,2.08177 -0.94258,3.12901 -0.0481,0.17121 -0.0978,0.34178 -0.14676,0.51263 -0.19703,0.68922 -0.39588,1.37799 -0.60978,2.06189 -0.50965,1.30158 -0.91948,2.66961 -1.79679,3.77961 -0.43836,0.8196 -1.09032,1.47096 -1.70068,2.15491 -6.1e-4,7.9e-4 -9.3e-4,0.002 -0.002,0.003 -0.20834,0.26878 -0.40416,0.54615 -0.57309,0.84284 -0.69645,1.20589 -0.21507,2.6627 0.73949,3.56878 1.08402,1.02937 1.15791,2.98788 2.73472,3.49126 1.48099,0.44046 1.93173,-1.49667 2.94297,-2.13217 1.11803,-0.52957 2.139,-1.25504 3.3135,-1.68414 1.22348,-0.0244 2.43418,-0.52638 3.64577,-0.40566 1.24727,0.37578 0.26954,3.10005 -0.86558,2.72955 -0.12646,-1.64248 -2.11843,-0.17556 -1.85984,0.87643 0.12904,1.00223 -1.82865,2.54772 -0.1633,2.8634 1.11422,0.13678 2.15026,1.0175 2.97398,-0.2372 0.3351,-0.37068 0.85754,-0.64152 0.81959,-1.21078 0.13695,-1.16497 0.62812,-2.24425 0.87437,-3.37602 -0.55038,-1.09248 -0.81943,-2.19436 -0.34313,-3.40909 -0.0723,-1.04866 1.27244,-2.00923 1.24281,-0.44184 -0.15402,1.56418 1.13933,0.20479 0.96532,-0.61908 0.14976,-1.48696 1.69618,-2.22426 2.61069,-3.21272 1.11241,-0.11179 2.6134,0.35084 3.00757,-1.12397 1.00565,-1.7289 0.61022,-3.80758 0.74879,-5.71386 -0.0527,-0.82466 0.1846,-1.66717 0.28319,-2.44636 -0.49672,-0.54968 -0.60574,-2.30173 0.34623,-1.08676 1.47862,0.85296 2.0946,-1.10004 1.77457,-2.25464 -0.12751,-1.90496 -1.93436,0.25163 -2.83445,0.38654 -1.04983,0.24937 -2.53816,1.35188 -1.16065,2.30735 1.76793,0.61262 0.78996,2.82808 -0.73898,2.95073 -0.75694,1.62663 -3.0564,-0.17244 -1.49551,-1.16324 1.40325,-0.55687 -0.64028,-1.90684 -0.66405,-2.95589 -0.48473,-1.79561 -0.22658,-3.71329 0.26459,-5.47822 -0.17209,-0.19579 -0.39892,-0.25804 -0.65888,-0.24391 z m -7.11584,1.08107 c 0.17581,0.008 0.38173,0.10846 0.61288,0.33589 1.08123,0.20855 1.34083,1.19459 0.20774,1.55908 -0.27285,0.3618 -0.70918,0.49751 -1.09141,0.21343 -0.69407,-0.46373 -0.49108,-2.14488 0.27079,-2.1084 z m 54.24268,2.14974 c -0.0624,4.3e-4 -0.12468,0.003 -0.18707,0.005 -0.11561,0.005 -0.23113,0.009 -0.3483,0.0212 -0.0727,7.8e-4 -0.14448,0.014 -0.21704,0.0181 -0.37613,0.0402 -0.75038,0.10345 -1.12034,0.18707 -0.002,6.1e-4 -0.004,9.3e-4 -0.006,0.002 -1.30399,0.39285 -2.43854,1.32444 -2.94711,2.62103 -0.66543,1.49119 -0.58163,3.46155 0.56999,4.6917 0.0147,0.0213 0.0336,0.0388 0.0496,0.0589 0.55062,0.34263 1.21084,0.55829 1.79886,0.41703 0.45991,-0.16769 0.77613,-0.54278 0.62993,-1.10484 -1.34678,-0.28311 -2.11942,-1.85379 -1.07848,-2.93109 0.67041,-1.06798 1.96186,-1.38981 3.14554,-1.28829 2.53767,-0.0481 4.58895,1.97086 5.54126,4.1708 0.97096,1.91924 0.88389,4.24239 0.0636,6.19704 -0.60935,1.69666 -1.34316,3.4171 -2.7373,4.62504 -0.53573,0.4423 -1.07288,1.32136 -1.68466,1.40043 0.86527,-1.09857 1.77191,-2.19665 2.36833,-3.48196 1.02042,-2.0769 1.88585,-4.41705 1.572,-6.76186 -0.73427,-1.24251 -0.98709,1.19165 -1.37097,1.6459 -0.90986,2.21771 -2.00381,4.41612 -3.78065,6.07559 -1.6382,1.83919 -3.92163,2.96944 -5.48804,4.88498 -1.09286,1.14507 -2.59441,1.77927 -3.63699,2.98483 -0.79832,0.90073 -1.83403,1.56082 -2.61069,2.4691 -0.76025,1.36763 -2.25951,2.28794 -2.56935,3.89123 -0.0903,0.72544 -0.39609,1.40507 -0.6749,2.08773 -0.2326,0.90853 -0.40444,1.85132 -0.42374,2.78639 0.17952,0.99165 0.27931,2.02612 0.68264,2.95021 0.33796,0.44892 0.82214,0.84215 0.96015,1.34462 0.64982,0.68338 1.37375,1.30455 1.88206,2.09548 0.20799,1.16822 0.56918,2.36551 1.55907,3.11816 0.66098,0.76038 2.31785,0.58925 2.11357,1.94045 -0.55483,-1.31975 -2.40023,-0.43208 -3.22668,-1.54564 -1.18513,-0.88823 -0.75256,-2.76426 -2.0624,-3.57343 -1.02449,-0.45293 -2.04367,-1.20491 -3.08198,-1.4795 -0.21319,1.60292 0.33541,3.29296 1.26297,4.59507 1.4821,1.69189 3.96063,2.31669 5.02346,4.39457 0.53535,1.25651 0.87531,2.78702 2.21124,3.45405 1.71281,1.02282 3.74764,1.1585 5.68802,1.25315 1.62752,0.33754 3.25675,0.84221 4.71754,1.63866 1.3189,0.99025 1.51357,2.73097 2.29754,4.08399 0.89148,2.18481 3.12153,3.29526 4.74596,4.84622 0.80351,1.15816 0.84573,2.68466 1.72651,3.81423 0.83992,1.27354 1.24461,3.21109 -0.0274,4.35219 -0.83286,0.78882 -1.57357,1.71573 -2.48563,2.39882 -0.71298,-1.10253 0.95563,-2.01784 1.72496,-2.61327 0.89651,-1.16958 0.3326,-2.8052 -0.12971,-4.0442 -0.47474,-1.39349 -1.9105,-2.19879 -2.2624,-3.66644 -0.48547,-1.44318 -2.27987,-1.5179 -3.19877,-2.6076 -1.27824,-1.15731 -0.85426,-3.37393 -2.44946,-4.28397 -1.08961,-0.51147 -2.7496,-0.41749 -3.49023,0.64337 -0.0293,0.88633 1.90619,0.0436 2.33888,1.01389 1.26207,1.21481 0.7905,3.04251 0.89814,4.58577 0.22265,1.93671 2.05613,3.16716 3.83025,3.5357 0.99061,0.44558 1.75054,1.30179 2.56625,2.00814 0.98788,0.87016 0.51745,2.63541 -0.41651,3.36879 -1.05417,1.02266 -2.89221,1.15692 -3.91397,0.014 -1.12508,-1.17114 -1.42297,-2.95581 -2.78123,-3.94653 -1.00851,-0.83342 -2.08134,-1.67492 -2.58537,-2.92902 -0.85375,-1.45562 -1.60242,-3.03081 -2.97966,-4.08192 -2.95632,-2.78234 -6.80182,-4.2431 -10.33891,-6.10918 -1.67885,-0.93756 -3.45204,-1.6716 -5.26169,-2.31201 -1.77043,-0.64048 -3.39347,-1.66241 -4.6147,-3.10937 -1.58672,-1.78114 -2.95357,-3.83393 -5.04259,-5.08703 -1.33741,-0.77022 -2.13482,-2.3075 -3.7176,-2.6727 -1.1407,-0.67102 -2.35975,0.24226 -2.73265,1.33893 -0.66667,1.09797 0.15027,2.97639 1.57354,2.62568 0.99635,-0.84145 1.30842,0.52486 0.39171,0.91674 -1.21239,0.65777 -2.66305,0.20203 -3.74034,-0.49816 -1.62236,-1.4121 -1.45367,-3.97292 -0.45475,-5.69732 1.28789,-2.66384 4.40159,-3.5975 6.13399,-5.86993 0.80622,-1.34584 -1.03135,0.20447 -1.5689,0.31213 -1.2311,0.28544 -1.84391,1.63591 -3.12177,1.80764 -1.23449,0.23998 -2.88691,-0.47355 -3.77186,0.73587 -0.36909,1.177 -1.87866,1.03713 -2.80035,1.63608 -1.2103,-0.0979 -2.61986,1.52924 -1.11259,2.23087 1.68374,-0.81089 1.04807,1.95594 -0.33125,1.51205 -1.49388,-0.17326 -2.31377,-1.94688 -1.72857,-3.26853 0.53169,-1.07698 0.60762,-2.28676 1.02681,-3.39153 0.38808,-0.96185 1.95048,-1.41123 1.02164,-2.5802 -0.27424,-1.41265 0.36508,-2.92877 1.50947,-3.79305 1.2456,-0.99737 2.97058,-1.0913 4.50515,-1.0325 1.23783,-0.3214 2.09932,-1.5362 2.88665,-2.47117 0.45646,-1.29154 0.31194,-2.82337 1.30741,-3.89381 0.93797,-1.49646 3.19352,-1.19817 4.01526,-2.79983 0.0581,-0.53287 -1.23423,-0.58218 -1.56838,-0.2589 -0.88576,1.02672 -2.31458,1.17192 -3.3383,2.00608 -0.74989,0.0949 -1.14193,2.3471 -1.3503,0.75241 0.32192,-0.73109 -0.62101,-1.59106 -0.99994,-0.72864 1.00959,0.52029 -1.60754,1.34195 0.15193,1.3193 0.55339,0.60518 -1.53904,1.13212 -1.00098,-0.045 -0.19385,-1.67836 -1.04838,0.82492 -1.37924,1.30793 -0.60267,1.31702 -2.14137,1.50928 -3.41736,1.45572 -1.14149,-0.11327 -2.68392,0.32763 -2.71767,1.6738 0.59484,0.30209 1.83223,-0.34005 1.50895,1.048 -0.006,1.48827 -1.9583,1.69223 -2.90731,0.92346 -1.3505,-0.87399 -1.59987,-2.73828 -0.89865,-4.10776 0.6158,-1.69071 2.32463,-2.48022 3.56309,-3.62717 0.48441,-0.36753 0.5357,-0.8745 0.3855,-1.41903 -0.25111,-1.55721 -0.22504,-3.22317 0.63821,-4.60231 1.22239,-1.98186 3.36078,-3.21013 5.56865,-3.7915 1.3961,-0.43379 3.078,-1.07282 3.53157,-2.61017 -0.0928,-1.2999 -0.52305,-2.7581 0.3514,-3.90726 0.88903,-1.04813 1.93608,-2.29492 1.68465,-3.77289 -0.53799,-1.35302 -1.74579,0.90021 -2.58951,1.06918 -0.71008,0.69277 -3.22814,1.2522 -2.10943,2.52181 0.94438,1.76134 -1.96687,1.82233 -2.44998,0.40618 -0.79195,-0.48828 -0.33414,-2.63678 -1.27641,-2.30115 -1.15517,1.73079 -0.70133,3.94963 -0.2775,5.84408 0.38411,0.82479 1.37219,1.63053 0.007,2.17661 -0.92362,0.84741 -1.63346,1.90185 -2.6417,2.66496 -2.22338,2.14851 -4.93334,4.07967 -6.01049,7.11378 -0.6979,0.96329 -0.67035,2.82652 0.79789,1.60972 0.99542,-0.40238 1.82121,-1.80626 2.60397,-1.99161 0.21771,1.41083 -1.25793,2.25009 -2.24379,2.93625 -1.20296,0.69987 -2.45185,1.3472 -3.43235,2.3611 -1.57983,1.50063 -3.69105,2.36508 -5.09736,4.04885 -0.65025,0.60079 -1.3009,2.44603 0.26251,1.87637 1.26668,-0.21307 2.05598,-1.32155 3.0484,-2.01693 -0.26439,1.51554 -1.48976,2.96366 -3.11351,3.00912 -2.56621,0.23415 -5.26858,0.91871 -7.10499,2.8484 -1.15388,1.36134 -2.19588,2.81831 -3.37034,4.16512 -1.20566,1.73029 -1.71069,3.82108 -2.36213,5.79913 -0.3619,1.69937 -1.16,3.25971 -2.1363,4.68137 0.82728,0.53507 2.43348,-0.60658 3.48971,-0.89814 1.82934,-0.83916 3.82645,-1.27848 5.84099,-1.17719 1.50352,0.006 3.00773,0.21368 4.47104,0.54519 1.05599,0.96637 -1.51456,0.50867 -2.09548,0.41083 -2.40829,-0.33726 -4.93858,-0.23417 -7.18354,0.78186 -2.22488,0.94401 -4.5323,1.75921 -6.93549,2.08463 -0.91213,0.0904 -1.8352,0.0582 -2.74506,-0.0724 -1.40243,-0.1022 -2.81135,-0.4034 -3.89485,-1.33997 -0.81634,-0.53371 -1.59514,-1.14317 -2.44119,-1.63607 -1.54766,-0.64515 -3.12861,0.39935 -4.36666,1.25212 -1.07839,0.45562 -1.5221,1.65183 -1.58698,2.7373 -0.34651,1.18412 -1.37888,2.0094 -1.63091,3.23856 -0.35454,1.23846 0.30631,2.49503 0.42116,3.73362 0.54587,3.93755 0.30693,7.94189 -0.13177,11.87783 -0.13059,1.79618 -0.30951,3.59292 -0.44752,5.3852 2.6e-4,0.0114 10e-4,0.0227 0.002,0.0341 0.16973,1.88275 1.60539,3.25799 2.66599,4.70152 0.66168,1.23196 2.48165,1.67622 2.9471,2.79156 -0.83421,0.24935 -2.80084,0.0438 -1.91719,1.49551 0.48683,1.1557 1.37328,2.20562 2.72955,1.52601 0.86955,0.0915 1.86326,0.46542 1.90169,-0.78393 0.34651,-0.7269 2.49634,-1.50253 1.35754,-0.10852 -1.00215,0.43917 -1.00298,1.43443 -1.26917,2.26704 -0.6632,-0.013 -1.19545,-1.31954 -2.00557,-0.40772 -1.33255,0.82383 0.76737,1.58862 1.02526,2.4753 0.40142,0.7659 0.61439,1.68175 1.45935,2.08876 1.08222,-0.0768 2.24458,0.10887 3.26801,-0.31419 1.51048,-0.63395 1.64323,-2.41196 2.39107,-3.66696 0.55307,-1.18188 1.03695,-2.43768 0.7674,-3.76463 -0.20973,-1.29598 0.0142,-2.67215 -0.40205,-3.92431 -0.79757,-0.32573 -2.24478,-0.85972 -2.84788,-0.5457 0.30401,1.35692 -1.65175,2.53297 -0.1354,3.5698 1.5935,-0.53211 1.30419,1.42841 1.42679,2.42001 0.42316,0.99124 -1.94287,2.03259 -1.48776,0.53175 -0.94914,0.52614 -1.79748,-0.30998 -1.13895,-1.26659 0.21955,-0.86391 -0.43819,-1.57038 -0.64958,-2.38435 -0.58392,-0.24105 -1.49358,-0.86852 -0.37672,-1.1529 1.27692,-0.34536 0.8265,-2.1148 1.99316,-2.60294 -0.0104,-1.2618 -1.01743,-2.46864 -2.3244,-2.48977 -0.82774,0.0493 -1.60136,-0.51006 -0.524,-1.04283 1.05837,-0.71622 3.00583,-0.62624 2.86132,-2.41536 0.0145,-1.26442 0.58948,-2.41581 0.81391,-3.63285 0.087,-1.80602 -1.89466,-0.44999 -2.39831,0.34675 -0.62284,0.99219 -2.54074,1.57052 -3.00188,0.17415 0.82066,-0.75721 1.60855,-1.69646 1.47226,-2.93161 0.21571,-1.2982 -0.33737,-2.58577 -1.53634,-3.17086 -0.50207,-0.74402 -1.09488,-0.62024 -0.7829,0.30489 0.29076,1.39007 -0.54564,2.68977 -0.22841,4.09484 0.16999,1.44716 -0.74983,2.81648 -0.33486,4.2385 -0.0353,1.0264 0.40902,2.88349 -0.71727,3.329 -0.0598,-1.1905 0.29973,-2.31216 -0.16175,-3.48145 -0.30986,-1.07844 0.90414,-2.37148 -0.19223,-3.175 -0.43705,-0.38615 0.0232,-1.10676 -0.1354,-1.62212 -0.51399,-0.96927 0.80748,-1.69359 0.0233,-2.55592 0.62477,-0.33517 1.56136,-0.95448 0.50953,-1.47484 0.72238,-1.07949 0.59275,-2.54142 1.59835,-3.46542 0.86172,-1.06448 1.49114,-2.27843 2.23397,-3.41788 0.009,-0.89378 2.08659,-2.57661 1.84278,-0.83716 0.0457,1.03109 -1.14492,2.17063 -0.77204,2.94246 0.77075,0.26399 1.56505,0.46818 2.34456,0.7152 0.24212,0.0734 0.48213,0.15315 0.71985,0.24029 1.14358,0.4192 2.23451,0.98968 3.24476,1.66088 0.0739,0.0533 0.14975,0.10008 0.2248,0.14987 0.97756,0.55984 1.97568,1.07238 3.10265,1.29449 2.49901,0.71439 5.17053,0.21001 7.63933,1.06919 1.33949,0.63858 2.53875,-0.26874 3.36051,-1.25988 1.35204,-1.13585 3.45624,-0.76939 4.69171,-2.12803 0.66262,-0.34628 1.75208,-2.62144 2.07326,-0.97824 -0.506,1.81325 -2.34575,2.84234 -4.08606,3.19102 -1.08442,0.14763 -2.83891,0.94065 -2.46652,2.19832 0.51632,-0.45242 1.91716,-1.46523 1.67432,0.0186 -0.71379,1.40244 1.02547,-0.65899 1.15084,0.73019 -0.36232,1.36298 1.56394,-0.65914 1.27744,0.81132 0.069,0.71394 -1.59841,1.72603 -0.91054,1.99678 0.8283,-0.10922 2.08316,-1.98863 2.53059,-0.72657 -0.92262,1.04584 -2.26026,1.97618 -3.70571,1.90944 -0.61541,-0.28954 -2.84425,-0.64137 -1.49294,-1.50172 0.45707,-0.14863 2.06335,-1.266 0.71107,-0.65629 -1.11705,0.92628 -2.26997,-0.24281 -1.28726,-1.07332 -1.39571,0.24615 -1.92769,-1.37781 -3.1812,-1.58491 -1.17722,-0.29946 -2.44112,-0.73043 -3.64991,-0.45114 1.0091,1.38527 2.41358,2.46092 3.69797,3.59513 2.11897,1.86388 4.599,3.26962 7.25434,4.21215 4.69643,1.85557 9.87355,2.32296 14.86214,1.65623 1.695,-0.10516 3.39909,-0.52135 5.0953,-0.29973 1.134,-0.10223 1.64569,1.39466 0.26716,1.38648 -0.97604,0.93417 -2.18219,-0.51836 -3.24063,0.0103 0.3018,0.8066 1.41525,2.24098 -0.13126,2.6603 -1.72833,0.42223 -1.54269,-2.05084 -2.84892,-2.32596 -0.36163,0.80603 0.57451,2.25332 1.07849,3.06958 0.89284,1.02018 2.35628,0.28109 2.95176,-0.67076 1.30731,-0.92608 3.05219,-0.9465 4.58576,-0.77721 1.39474,0.12339 2.18477,1.39881 2.82464,2.48202 0.72407,0.5448 0.0951,2.81838 1.20509,2.3828 0.43015,-1.64603 1.11703,-3.24197 1.23559,-4.95525 -0.52588,-0.5158 -1.35832,-1.17047 -0.73174,-1.95492 0.42944,-1.12479 -0.88582,-2.54297 -1.76165,-1.16944 -0.61288,1.22229 -1.51259,0.29436 -1.55029,-0.63304 -1.31967,0.0371 -2.46863,-0.48483 -3.77083,-0.63665 -1.17126,0.43936 -2.10451,-0.7656 -1.1281,-1.67638 0.12552,-0.77205 1.44338,-1.85738 1.31982,-0.39223 -0.74915,1.86714 1.44736,-1.32565 1.73529,0.19482 -0.63881,0.7815 0.0298,2.18742 0.97048,1.18649 0.53744,-1.05694 1.45521,-0.74203 1.74563,0.27079 0.68187,0.95279 1.51535,-1.15063 2.36162,0.0512 0.79467,0.9536 1.98014,1.60944 2.53989,2.74453 0.0957,1.15048 -0.9268,2.07077 -0.81442,3.28921 -0.52312,1.77712 -0.96683,3.57805 -1.39319,5.37848 -0.41691,1.39802 -1.46652,2.47848 -2.02159,3.79202 -0.18423,1.24156 0.0132,2.52407 0.25477,3.74551 0.88258,0.85995 1.90944,1.59617 2.24844,2.91145 0.95103,0.78515 1.24138,1.88484 1.74563,2.95072 0.94982,1.44748 1.94101,2.9849 3.42977,3.93103 0.99436,0.78556 2.28122,0.56227 3.32382,1.12241 1.25142,0.75581 2.26227,2.02891 2.40709,3.51038 0.14702,1.43469 -0.98633,2.54056 -1.6154,3.71915 -1.51546,2.9209 -4.40252,4.73299 -6.25802,7.39645 -0.86069,1.30254 -2.31012,1.94291 -3.69848,2.51147 -1.27183,0.59843 -2.55532,1.43851 -3.00189,2.85203 -0.41286,1.25405 -0.80883,2.66271 -1.91512,3.49849 -0.87823,0.8664 -2.73597,0.92985 -3.04478,2.21227 0.51205,0.307 1.61915,0.29311 0.80925,1.15083 -0.85508,0.84543 -1.17557,2.00505 -1.42937,3.14296 -0.20604,1.2034 -0.75126,2.53228 -0.22376,3.70572 0.0509,0.0322 0.10548,0.0508 0.15865,0.0749 0.15328,0.0333 0.31723,0.0381 0.47749,0.005 0.43959,0.0218 0.87849,0.0185 1.3162,-0.002 0.2072,-0.0364 0.41052,-0.0704 0.60203,-0.0801 2.31946,-0.29133 4.52675,-1.0956 6.75824,-1.74976 1.67287,-0.32301 1.57513,-2.06007 1.42214,-3.35328 0.61361,-1.04745 -0.34762,-1.77587 -1.20096,-0.98702 0.5338,0.90038 -0.37909,2.44189 -1.33325,1.37872 -1.01637,-0.10085 -2.07999,-1.37022 -2.82309,-0.0393 -1.13893,0.79309 -2.77741,-0.50098 -2.39106,-1.81384 -0.18336,-1.35621 0.63706,-2.57766 2.05155,-2.71095 -0.30383,1.12799 -1.12848,2.42261 -0.49506,3.58169 0.47566,0.2084 1.42472,0.0162 1.62316,-0.50694 0.2113,-0.68081 0.81715,-2.0634 1.48776,-1.73013 -0.81768,1.06868 0.64845,1.86597 0.92139,2.52129 -0.20556,-1.70106 1.784,-1.60362 2.81223,-2.22415 1.34503,-0.26143 1.42377,-1.39192 0.81649,-2.41174 -0.35417,-1.09044 -0.64177,-2.84988 0.59221,-3.46904 0.96578,0.97195 -0.0531,2.37425 0.61082,3.47266 0.58133,0.74836 0.51723,2.48155 1.33687,2.67529 0.91969,-1.00941 0.41266,-2.42036 0.28473,-3.60702 -0.18602,-0.82528 0.809,-2.20902 0.87075,-0.65164 0.43576,1.29477 1.3448,2.43475 1.34411,3.85713 0.11403,0.6873 -0.43882,2.31381 0.82837,1.52859 1.28611,-0.57649 1.95202,-2.09075 1.50275,-3.42718 -0.28831,-1.35817 -1.1133,-2.55897 -1.21543,-3.97237 -0.38783,-1.65375 0.28704,-3.31085 1.15187,-4.69428 0.46965,-0.7866 1.33548,-0.41725 0.78858,0.401 -0.39285,1.54013 -1.23746,3.20335 -0.60255,4.78421 0.8715,-0.3426 1.40999,-1.59814 2.11977,-2.30839 1.01013,-1.20957 0.97169,-2.98995 2.19728,-4.05091 1.16633,-0.58633 0.3766,-2.95678 1.73116,-2.92024 0.38224,0.79018 -0.10885,3.13462 1.44022,2.04949 1.05189,-0.81489 0.89505,-2.37913 1.80765,-3.32641 0.64957,-0.99032 1.44204,-1.94593 1.55907,-3.1719 0.49406,-1.51515 2.54435,-1.90024 2.75436,-3.55121 0.21529,-1.48737 -1.42503,-2.27085 -1.84278,-3.55895 -0.24781,-1.25331 -0.79742,-2.4915 -2.06241,-2.9993 -1.30113,-0.80272 -1.37215,-2.4846 -1.41387,-3.85041 0.1233,-1.51706 1.52946,-2.45563 2.49804,-3.47369 1.95535,-1.83071 4.15708,-3.43963 5.68751,-5.67511 1.5764,-2.31767 3.68454,-4.57965 3.86436,-7.51892 -0.0815,-1.76871 -0.48508,-3.54109 -0.26871,-5.31699 0.89931,-1.27074 1.31897,1.10532 1.33842,1.83038 0.34273,1.53523 1.52427,2.89216 3.1259,3.14193 1.21798,0.33935 2.79223,0.27105 3.47938,1.55081 0.44568,1.24314 -0.79864,2.2352 -1.63453,2.94659 -1.32558,0.46639 -1.57106,2.76905 0.25322,2.31924 0.984,-0.15617 2.47252,-0.43289 1.78232,-1.7508 0.15428,-1.42496 1.61944,-2.13498 2.12441,-3.41065 0.93359,-1.36963 -0.5186,-2.34548 -1.57096,-2.93573 -0.88004,-0.40966 -1.99695,-1.19793 -0.5395,-1.70843 0.44798,-0.32257 0.46773,-0.80469 0.40979,-1.30638 -0.35095,-1.25715 1.12258,-1.62665 1.61748,-2.54041 0.40874,-0.49813 0.72452,-2.37246 1.13584,-0.88987 0.27501,1.1989 -0.77892,2.24856 -0.8878,3.22461 0.45973,-0.0879 1.0944,-0.80574 0.65991,0.18604 -0.30858,0.67309 -1.68351,2.1045 -0.0868,2.02313 0.54103,-0.12937 1.0164,-0.40168 1.42059,-0.75706 0.3722,-0.5083 0.66041,-1.0977 0.95395,-1.63556 0.12163,-0.18332 0.22071,-0.37281 0.30385,-0.56637 0.0396,-0.20403 0.0639,-0.41117 0.0703,-0.61909 0.26627,-1.73059 -0.15033,-3.51667 0.30128,-5.21777 0.18659,-0.97251 2.47361,-2.31473 1.03559,-2.98948 -1.44144,-0.38064 -2.36199,1.08354 -3.68349,1.19114 -1.68569,-0.5426 0.21153,-1.46277 1.00459,-1.7787 1.09369,-0.7528 1.51088,-2.09117 2.28771,-3.11661 0.10873,-0.20514 0.20135,-0.41547 0.28267,-0.6289 0.16077,-0.53107 0.29133,-1.07043 0.38086,-1.6185 0.13981,-1.22497 9.1e-4,-2.49934 -0.20878,-3.69539 -0.24811,-1.44417 -0.56173,-2.95306 -1.3286,-4.21628 -1.22295,-1.62209 -2.95336,-2.70142 -4.56406,-3.88503 -1.41275,-1.08476 -2.40957,-2.76284 -2.32751,-4.58318 -0.2146,-1.23113 0.63826,-2.23381 0.90383,-3.36569 -0.34351,-1.17226 -1.49311,-1.90712 -2.41019,-2.62981 -1.57147,-1.13205 -3.76171,-1.93778 -4.2814,-4.00906 -0.28859,-1.13207 -0.24492,-2.54338 0.82941,-3.26027 0.39403,-0.71076 2.75838,-0.25615 1.23817,-1.20354 -1.5446,-0.5271 -2.69832,1.08303 -3.18585,2.34404 -0.76929,1.11717 0.38018,2.44791 -0.31265,3.49178 -0.84371,0.84753 -1.80381,1.87361 -1.70222,3.14503 0.13237,0.44457 0.33199,0.88179 0.45889,1.32653 0.41223,0.81073 0.91125,1.58647 0.83457,2.5709 0.12107,1.37503 1.98483,1.95134 1.82108,3.37551 -0.96469,-0.41114 -1.15115,-2.09881 -2.27583,-2.63447 -1.36846,-0.94369 -2.93883,-1.72349 -3.80752,-3.21427 -0.62875,-0.98598 -1.28684,-1.95583 -1.88722,-2.95641 -0.54767,-1.2905 -0.20981,-2.71286 0.18293,-3.99252 0.141,-1.24607 0.31106,-2.5296 1.1591,-3.5326 1.49585,-2.14177 2.92818,-4.3698 4.9196,-6.09575 2.22829,-2.30391 4.52844,-4.66431 5.80637,-7.65587 0.71601,-1.55984 0.92164,-3.29772 1.23248,-4.97075 0.44258,-2.74354 -0.63761,-5.70542 -2.89957,-7.36906 -1.57175,-1.34285 -3.40987,-2.73666 -5.51852,-2.88923 -0.0131,-6.9e-4 -0.0262,-9.4e-4 -0.0393,-0.002 -0.11814,-0.008 -0.23776,-0.01 -0.3576,-0.009 z m -56.31181,2.00298 c 0.1667,0.0101 0.44693,0.87157 -0.0941,0.35605 -0.004,-0.26838 0.0385,-0.35944 0.0941,-0.35605 z m 35.83348,0.59531 c -0.2324,-8.1e-4 0.0397,0.63109 0.41547,0.27182 -0.20437,-0.20103 -0.33801,-0.27155 -0.41547,-0.27182 z m -3.56309,1.37976 c 0.35925,0.0419 0.64023,0.30268 0.0527,0.67128 -0.17566,0.10044 -0.4121,0.0989 -0.57516,-0.0279 -0.27437,-0.50799 0.16319,-0.68524 0.52245,-0.64337 z m -34.03927,1.13791 c 0.27823,0.0215 0.88039,0.47856 0.50591,0.76533 l -0.17466,-0.0574 -0.20103,-0.14521 c -0.34727,-0.43165 -0.29716,-0.57563 -0.13022,-0.56276 z m 27.712,0.92605 c -0.21024,0.81014 -0.86317,1.23889 -1.03766,2.27066 -0.17449,1.03177 0.31508,2.74758 -0.68368,3.75274 0.24738,0.91746 1.33387,-0.7654 1.28313,-1.7477 -0.0507,-0.9823 -0.28837,-2.97658 0.9219,-1.81952 0.008,1.1353 0.1828,2.37536 -0.23357,3.47162 -0.49457,1.23243 -1.67993,1.78396 -2.86443,2.16266 -1.43235,0.85322 -3.03642,1.31387 -4.61832,1.79937 -1.24042,0.51494 -2.42372,1.42147 -3.02411,2.63602 -0.34282,1.00926 -0.20954,2.764 1.24954,2.56315 0.81827,0.45331 -0.89388,1.23364 -1.35857,0.82889 -1.35539,-0.87291 -1.37963,-2.84345 -0.81804,-4.19303 1.04252,-1.73624 2.99512,-2.66333 4.90616,-3.09748 1.83951,-0.61264 3.52557,-1.9817 4.31292,-3.75533 0.0112,-1.08359 -0.25517,-2.21051 0.0661,-3.25923 0.29883,-0.77763 1.25554,-1.43963 1.89859,-1.61282 z m -21.76508,0.0713 c 0.89235,1.15281 -0.32186,2.61817 0.4129,3.89072 0.3853,1.04336 0.24926,2.30537 -0.44029,3.18895 -0.20694,0.17135 -0.56743,0.36148 -0.81958,0.16536 0.1565,-1.30925 0.62602,-2.69538 0.74,-4.06331 0.0635,-0.91838 0.0973,-2.51499 -0.78445,-2.10737 0.4447,-0.25084 0.68937,-0.83321 0.89142,-1.07435 z m -6.30659,0.14263 c 0.22785,0.0492 0.33235,0.67553 -0.29972,0.59014 l -0.03,-0.1788 c 0.0971,-0.33708 0.22612,-0.43373 0.32969,-0.41134 z m 35.92856,1.7973 c 0.13226,-0.0283 0.30846,0.0717 0.53743,0.37052 0.26157,1.20273 0.89345,2.38108 1.00821,3.61942 -0.16884,0.60113 -0.85561,1.71484 -1.603,1.26711 -1.0813,-0.88802 0.57883,-2.30714 -0.21808,-3.45302 -0.12619,-0.48112 -0.12136,-1.71925 0.27544,-1.80403 z m -28.46648,0.38861 c 0.0875,0.0149 0.20699,0.17465 0.3576,0.55707 0.3909,1.23443 0.79239,2.44155 1.62212,3.4587 0.3851,0.83828 -0.17326,1.43827 -0.96531,0.78084 -1.50167,-0.40193 -0.55597,-2.0997 -0.90382,-3.15847 -0.34638,-0.42764 -0.37306,-1.68284 -0.11059,-1.63814 z m -1.93063,1.19734 c 0.0608,-0.0256 0.11903,0.10414 0.16588,0.48318 0.15803,0.13503 -0.49773,2.36601 -0.56069,1.40766 0.005,-0.33908 0.21249,-1.81418 0.39481,-1.89084 z m 32.26263,4.15789 c 0.14459,0.0153 0.19105,0.21775 0.008,0.66094 -0.79404,1.16331 -0.61005,2.50004 -0.73433,3.78013 -0.41922,0.49015 -1.00318,1.37778 -1.6986,1.34152 0.47178,-0.99652 1.29795,-2.48531 0.36845,-3.39152 -0.69285,-0.57704 1.19789,-1.28844 1.45883,-1.92909 0.20984,-0.30549 0.45278,-0.47731 0.59738,-0.46198 z m -37.88916,1.16737 c 1.28109,-0.0476 0.70519,2.25268 -0.4098,2.11822 -0.12032,1.06764 -0.96987,1.06629 -1.82211,0.7369 -1.52485,-0.0597 0.46195,2.99074 -1.37046,2.25361 -0.26985,-1.01629 -0.63997,-2.24745 -2.02985,-1.84898 -1.02445,0.36815 -1.97913,-1.45926 -0.4346,-0.98392 1.31737,0.31461 2.47871,-0.8838 3.80597,-0.4129 1.18074,0.10019 -0.7028,-1.86271 0.88315,-1.37511 0.67978,0.58651 1.18778,0.30245 1.3777,-0.48782 z m 35.62573,7.13031 c 0.83896,0.011 0.63342,2.07317 -0.0791,2.58331 -0.90505,0.79845 -0.85418,2.54947 -1.92494,2.96519 l -0.13901,-0.0667 c -0.2508,-0.95582 0.68404,-2.07919 -0.6997,-2.47272 0.57968,-1.02134 2.3425,-1.49539 2.41794,-2.87786 0.16405,-0.0927 0.30493,-0.13283 0.42478,-0.13126 z m -54.80544,1.17978 c -0.32882,0.007 -0.65567,0.0309 -0.94723,0.0357 -1.1683,-0.0194 -2.41611,0.0308 -3.34347,0.84491 -1.72305,1.11291 -3.17394,2.59435 -4.91701,3.68505 -1.09256,0.75649 -1.94319,1.9031 -3.33778,2.10065 -1.80248,0.79309 -3.82593,0.58962 -5.68389,1.13223 -0.68553,0.21321 -1.1869,0.658 -1.54357,1.21284 -0.21973,0.41795 -0.39298,0.86356 -0.55398,1.3162 -0.0503,0.19384 -0.0935,0.38938 -0.12402,0.58446 -0.31623,1.52079 -1.56116,2.55513 -2.84634,3.28197 -1.31557,0.96186 0.46486,1.47917 1.32189,1.07229 0.41659,1.10209 -2.07073,1.64756 -1.30793,3.1166 0.2066,1.52348 0.11364,3.08037 -0.38964,4.53874 -0.44208,0.77233 -0.26705,2.19123 0.87643,1.46606 1.57785,-0.65797 3.15019,-1.44534 4.48965,-2.48563 1.09319,-0.61249 2.68158,-1.06823 3.00188,-2.43551 -0.10675,-1.37033 0.64406,-2.48979 1.33119,-3.58945 0.77674,-0.41607 1.43254,-1.01303 0.71675,-1.90221 -0.52805,-1.25048 -0.19678,-2.74119 0.85059,-3.62045 1.03263,-0.78815 0.0663,1.31752 0.12919,1.82521 0.0495,1.47105 1.26332,2.53592 1.9234,3.76515 0.89669,0.72882 0.47831,2.16763 1.0449,2.86287 1.24105,-0.64512 1.71268,-2.24596 1.32343,-3.54707 -0.3382,-1.08604 -1.18489,-2.49951 -0.48628,-3.51865 0.13104,1.24237 0.8694,2.19154 1.77664,3.00499 1.60033,-0.33369 0.75672,-2.49501 0.66559,-3.64577 -0.14071,-1.33755 -0.095,-3.17567 1.33791,-3.80339 0.68642,0.18988 -0.17196,1.32091 -0.21549,1.93373 -0.121,0.81466 0.29959,1.66014 0.13384,2.49442 -0.28956,0.62789 0.26883,1.68412 0.53588,0.4868 0.28877,-1.39438 -0.38464,-3.10717 0.71985,-4.24471 0.89351,-1.08378 2.56775,-0.80095 2.21072,0.83768 -0.21796,0.3693 0.074,1.51882 -0.52865,1.38131 -1.16087,-0.0421 -1.06399,1.66426 -0.24701,2.11357 -0.25627,0.48268 -1.00765,1.91939 0.35088,2.01486 0.67806,0.4264 2.61511,-1.42264 2.01435,0.0837 -0.68195,1.47143 -0.74771,3.32362 0.23254,4.68085 1.39513,2.08438 3.34262,3.72784 4.74338,5.81256 0.25029,0.23334 0.67722,0.89798 1.05369,0.46561 0.63794,-1.05397 0.78783,-2.32762 1.15548,-3.48765 -0.42313,-1.0832 -2.07356,-1.97966 -1.16479,-3.2954 0.38313,-0.97861 -0.59054,-0.70569 -0.43666,0.11007 0.0296,0.77532 -0.70021,1.52574 -0.94982,0.42633 -0.29303,0.44107 -0.96891,1.41497 -0.45371,0.2713 0.92684,-0.93316 -0.4212,-2.90148 1.18545,-3.1874 0.25706,0.88488 0.94281,1.79185 1.62523,2.44998 -0.26868,1.43346 1.50656,1.07921 1.4981,-0.18087 0.66313,-1.59812 2.19471,-2.6126 2.92592,-4.15737 -0.0965,-1.62858 -1.62167,-2.5665 -2.60398,-3.68246 -1.35025,-1.38779 -2.83721,-2.63298 -4.43384,-3.72329 -1.56355,-1.45332 -1.72605,-3.72386 -2.53834,-5.59294 -0.1071,-0.9961 -0.81063,-1.25272 -1.60714,-1.30018 -0.0113,-6.2e-4 -0.0224,-0.002 -0.0336,-0.003 -0.15822,-0.008 -0.31947,-0.009 -0.48059,-0.006 z m 0.57567,0.94102 c 0.7354,-0.0876 1.87111,1.07387 0.64596,0.81856 -0.57183,-0.15346 -2.29222,0.35552 -1.05678,-0.52555 0.0931,-0.18596 0.24112,-0.2728 0.41082,-0.29301 z m 44.68978,0.6041 c 0.032,0.0203 -0.0274,0.15894 -0.24339,0.47646 -0.38418,1.13233 0.4132,2.38392 0.12092,3.59513 1.06125,0.58415 0.0918,2.2656 -0.77721,1.92804 -0.16251,-0.78411 0.57205,-2.05013 -0.7643,-2.22518 0.26823,-0.7842 1.1236,-1.42643 0.67128,-2.39934 -0.0214,-0.43191 0.89681,-1.43586 0.9927,-1.37511 z m -5.30717,0.74466 c 0.39196,-0.0268 1.19238,1.15583 0.40825,0.59066 -0.35451,-0.15708 -1.57632,-0.37419 -0.48059,-0.56844 0.0219,-0.0134 0.0462,-0.0204 0.0723,-0.0222 z m -46.6757,2.44688 c 0.10441,0.0229 0.0696,0.17909 -0.25632,0.55293 -0.64261,1.14011 -2.46933,0.43214 -2.9316,1.93167 -0.68496,0.99196 -2.21563,0.62827 -2.96778,1.56425 -0.52457,0.2574 -1.3121,0.53014 -1.865,0.51986 0.8452,-0.73792 2.06938,-1.29459 3.15278,-1.75493 1.32107,-0.70076 2.52032,-1.60721 3.89072,-2.20917 0.2425,-0.31083 0.80318,-0.64278 0.9772,-0.60461 z m 74.73446,1.33273 c 0.21169,1.09604 -0.69052,2.34855 -0.66146,3.55741 -0.30498,1.68446 0.08,3.37996 0.75706,4.92683 0.39727,0.57845 0.67311,1.76158 -0.51625,1.28623 -0.652,-1.169 -1.07114,-2.49953 -1.28261,-3.81993 0.0603,-2.05538 0.10051,-4.43308 1.70326,-5.95054 z m -26.03717,1.03508 c 0.14547,-0.0164 0.16308,0.11247 -0.0594,0.51625 -0.0966,0.65784 -0.6115,0.97793 -1.23817,0.71107 -0.6159,-0.0229 -1.48058,-0.24081 -0.31781,-0.38189 0.3574,-0.0688 1.29537,-0.80926 1.61541,-0.84543 z m -17.33538,1.90634 c -0.0723,1.14373 -0.8532,2.35793 -1.98593,2.74712 -0.4786,0.1753 -1.02384,0.25976 -1.51567,0.0863 -1.10017,-0.4114 1.30895,-0.50866 1.50482,-1.09864 0.88804,-0.30743 1.27648,-1.45332 1.99678,-1.73478 z m 1.36529,0.11008 c 0.12103,-0.003 0.21516,0.16248 0.24908,0.61443 0.21195,0.89907 -1.19352,1.74472 -0.97772,2.2779 0.77273,-0.90316 1.85041,-0.20586 2.63912,-0.99064 0.56181,0.62751 -0.0445,1.98913 -0.99271,1.70222 -0.91399,-0.40682 -1.97466,0.0272 -2.94814,-0.43098 -1.65508,-0.18421 0.98533,-1.19861 1.19063,-1.96267 0.17627,-0.38159 0.57347,-1.20363 0.83974,-1.21026 z m 10.26346,0.0894 c 0.0423,0.0178 0.0286,0.15762 -0.0925,0.49764 -0.0784,0.98785 1.71941,1.68996 0.31109,2.49287 -0.20724,0.0493 -0.19623,0.62914 -0.44339,0.44752 0.15099,-0.90671 -0.31822,-1.82466 -0.33641,-2.61173 0.10208,-0.31388 0.46822,-0.86555 0.56121,-0.8263 z m 32.97886,0.53795 c 0.0787,0.0104 0.10423,0.19417 0.0119,0.66559 -0.11167,1.57287 -0.25416,3.21862 0.36948,4.71031 0.0957,0.18893 0.13827,0.85141 -0.23822,0.40411 -0.66821,-1.39982 -1.15654,-2.98972 -0.74621,-4.54495 -6.9e-4,-0.44106 0.42987,-1.25795 0.60306,-1.23506 z m -19.74763,3.25458 c 0.14866,0.0179 0.21535,0.22242 0.076,0.73484 -0.11462,1.16586 -0.0571,2.82925 -1.47072,3.19722 -1.45911,0.18364 -2.97432,0.24918 -4.31601,0.93534 -0.27679,0.0994 -0.58654,0.26827 -0.88625,0.15038 0.11697,-1.27749 2.37595,-1.45408 3.50159,-1.67173 1.58312,0.35206 2.11565,-1.20113 2.23501,-2.44223 0.13588,-0.4451 0.61265,-0.93365 0.86041,-0.90382 z m -9.20202,0.014 c -0.62031,-0.058 -1.42988,0.12 -1.41128,0.7121 0.48791,0.32317 1.16365,0.14594 1.68723,-0.006 0.77544,-0.354 0.34435,-0.64839 -0.27595,-0.70642 z m -37.10885,0.0858 c 0.0513,0.0148 0.081,0.15435 0.0398,0.49145 -0.007,0.10687 0.20654,0.79974 -0.16588,0.44597 -0.20423,-0.39897 0.0132,-0.97 0.12609,-0.93742 z m 0.54881,1.71721 c 0.1844,-0.0286 0.39199,0.11802 0.54622,0.56689 0.3487,0.42811 -0.0186,1.35771 -0.6103,0.81959 -0.63521,-0.41154 -0.34162,-1.32348 0.0641,-1.38648 z m 67.49458,0.56431 c 0.26515,-0.0236 1.02382,1.36825 1.35083,1.60094 0.42305,1.02911 2.45233,1.24399 2.29701,2.31923 -0.14951,0.19366 -0.38321,0.30304 -0.6134,0.1571 -1.37487,-0.72851 -2.96476,-1.78473 -3.1011,-3.48661 -0.0557,-0.41782 -0.0217,-0.58279 0.0667,-0.59066 z m -87.47993,0.0847 c 0.22427,0.0283 0.3444,0.30255 0.17519,0.89142 -0.14626,0.66648 -0.75892,1.54095 -1.53221,1.45314 -1.69482,0.0484 -0.652,-2.10401 0.55655,-1.76113 0.2475,-0.39415 0.57621,-0.61177 0.80047,-0.58343 z m -3.40186,0.37827 c 0.1431,-0.004 0.27423,-0.001 0.38551,0.007 0.80213,1.00611 -1.37181,1.17173 -1.92856,1.58699 l -0.20568,-0.076 c -0.82327,-1.11939 0.74704,-1.48863 1.74873,-1.51825 z m 25.10338,5.37952 c 0.18413,0.0161 0.55341,0.69717 -0.0294,0.53226 -0.0995,-0.40928 -0.0542,-0.53957 0.0294,-0.53226 z m 39.84046,1.48466 c 0.27819,0.64603 1.69994,2.27798 0.70952,2.50889 l -0.0863,-0.16381 c -0.42964,-0.50686 -1.48366,-2.19837 -0.62322,-2.34508 z m 26.56376,0.82837 c 0.39405,0.0282 0.9234,0.34693 1.10587,0.80202 0.7244,1.02573 2.47714,0.56826 2.65979,2.13786 1.02986,1.09128 -0.10211,0.57762 -0.83768,0.6413 -1.54955,0.0868 -2.55884,-1.44413 -3.22306,-2.64118 -0.35794,-0.70603 -0.099,-0.96823 0.29508,-0.94 z m -33.79122,0.10904 c 0.40118,-0.0112 1.57661,0.79825 0.24133,0.6873 -0.44615,-0.50774 -0.42369,-0.68223 -0.24133,-0.6873 z m -1.57252,0.47542 c 0.50108,-0.0259 1.13194,0.17497 0.7674,0.70074 -0.24673,0.0804 -0.51338,0.0183 -0.75706,-0.0398 -0.88295,-0.38199 -0.51141,-0.635 -0.0103,-0.66095 z m 48.80064,0.0222 c 0.10155,0.0143 0.25016,0.0989 0.45579,0.2837 1.10869,0.77848 2.58504,0.73219 3.67884,1.45056 0.41899,0.22822 1.03068,1.82448 0,0.92707 h -5.1e-4 c -1.0258,-0.84037 -2.59612,-0.28841 -3.5724,-1.25884 -0.55458,-0.2017 -1.00178,-1.46454 -0.56172,-1.40249 z m -38.14961,0.50384 c 1.28409,0.22128 1.56334,1.845 2.48977,2.60553 0.22329,0.78367 1.52682,1.41146 1.57613,1.81746 l -0.25321,-0.10026 h -5.2e-4 c -0.69756,-0.0166 -0.84984,-0.33233 -0.99839,-0.89917 -0.67024,-0.0556 -0.82676,1.15142 -0.92862,-0.0289 -0.0379,-0.74332 -0.81056,-1.1613 -1.04542,-0.24288 -0.40068,-0.52261 0.34767,-2.69018 -0.81545,-1.60249 -0.34024,0.0455 0.20672,-1.17758 -0.0243,-1.54926 z m 28.54451,0.0589 c 1.13265,0.42346 1.99864,1.31556 2.84582,2.12855 0.79228,0.63746 2.94717,0.96057 2.83187,1.95957 l -0.15348,-0.0413 -0.20825,-0.0682 c -1.16605,-0.16282 -2.3586,-0.4159 -3.21841,-1.30793 -0.89355,-0.65992 -1.88763,-1.63993 -2.09755,-2.67064 z m -41.88116,0.25322 c 0.1056,-0.009 0.25175,0.0194 0.4439,0.10438 0.64033,-0.16422 2.47843,0.74301 0.94051,0.84388 -0.30978,0.004 -0.62264,-0.014 -0.92449,-0.0879 -0.61431,-0.0594 -0.91752,-0.82015 -0.45992,-0.86041 z m -8.33128,3.42459 c 0.14874,-0.0112 0.31137,0.0152 0.48731,0.0879 0.49129,0.47993 -0.91986,0.98792 -0.63355,1.72031 0.0354,0.42813 -0.10133,1.60646 -0.76481,1.02061 -0.49178,-0.82947 -0.13007,-2.75064 0.91105,-2.82877 z m 66.58147,0.65371 c 0.41257,0.028 1.46302,1.01522 1.61592,1.42782 0.97026,2.15808 1.23463,4.61884 0.8537,6.94583 0.1148,0.17131 -1.04098,2.02197 -0.79944,1.10639 0.72375,-1.87951 0.12596,-3.8945 -0.19688,-5.79189 -0.26618,-1.22938 -0.83163,-2.36414 -1.61644,-3.33985 -0.0611,-0.26055 0.006,-0.35765 0.14314,-0.3483 z m -97.06178,1.38493 c 0.15817,0.0124 0.24497,0.19458 0.0538,0.63717 -0.0367,0.14665 -0.32948,0.6608 -0.48679,0.29404 -0.29318,-0.50119 0.16943,-0.95184 0.43304,-0.93121 z m 91.63059,0.27388 c 1.27608,0.0326 2.2284,1.28674 2.80603,2.32079 0.67003,1.29117 0.8061,2.82632 0.58859,4.2478 -0.0582,0.35055 -0.51213,0.47772 -0.74207,0.19482 -0.40428,-1.26997 -0.13511,-2.73868 -0.85421,-3.95118 -0.22051,-1.17091 -1.9322,-2.01723 -2.05776,-2.80241 0.0879,-0.009 0.17435,-0.012 0.25942,-0.01 z m 3.49126,0.65474 c 0.12821,0.0223 0.27718,0.18384 0.39325,0.53537 1.12946,1.57329 1.36233,3.72986 0.87282,5.57847 -0.27754,0.58709 -0.38425,1.79589 -1.08469,1.94769 -0.22609,-1.17175 0.47994,-2.36519 0.44235,-3.5786 0.2817,-1.31627 -0.45162,-2.47547 -0.84646,-3.66489 -0.14713,-0.5051 0.009,-0.85523 0.22273,-0.81804 z m -6.72156,0.77308 c 1.33129,0.25855 2.6521,0.98784 3.3321,2.21072 0.39412,0.86714 1.83284,2.47669 0.87333,3.21169 -0.15756,0.0265 -0.33451,-0.0146 -0.44442,-0.13746 -0.75358,-0.98055 -0.81055,-2.3029 -1.6769,-3.15794 -0.4918,-0.83124 -1.87653,-1.40575 -2.08411,-2.12701 z m -66.52462,0.48886 c 0.26648,0.0258 0.50471,0.23395 0.70694,0.7798 1.03587,-0.10027 2.09356,0.7466 2.63394,1.21078 -1.20014,0.82298 -2.49408,-0.41725 -3.68711,0.11937 -0.86414,1.06869 -2.33239,0.11525 -3.37654,0.7984 -0.78438,0.37017 -1.66891,0.43107 -2.51354,0.2682 v -5.1e-4 c -1.99384,-0.26586 -4.09638,-0.2602 -5.92419,-1.21182 -1.86593,-0.4975 0.74546,-1.10947 1.50741,-0.68264 1.72204,0.0319 3.36475,0.85767 5.08806,0.70796 1.11398,-0.50571 2.25494,-0.94165 3.46645,-1.17098 0.78772,-0.0497 1.51232,-0.8752 2.09858,-0.81856 z m 74.92566,0.0982 c 0.84223,0.41547 1.16468,1.76948 1.30276,2.72231 0.0416,1.56721 -0.0741,3.19222 -0.62321,4.66948 -0.32901,0.5089 -1.1608,1.59093 -1.83038,1.14515 0.22673,-1.26078 1.34419,-2.18645 1.54771,-3.4804 0.5127,-1.69414 -0.1576,-3.39372 -0.39688,-5.05654 z m -103.67429,4.47001 c 0.10829,-0.0252 0.2705,0.0682 0.48989,0.3576 0.82677,0.15849 0.9255,1.5269 -0.0941,1.02371 -0.55995,-0.15791 -0.7207,-1.30566 -0.39584,-1.38131 z m 35.55545,3.11505 c 0.0579,-0.01 0.0797,0.0269 0.0475,0.12971 -0.50218,0.77422 0.14875,2.50452 -0.92862,2.56987 l -5.2e-4,-0.13332 0.0124,-0.16278 c 0.30072,-0.94202 -1.5242,-0.18836 -0.48627,-1.1467 0.17374,-0.28622 1.1045,-1.21335 1.35547,-1.25678 z m 24.76955,0.0269 c 1.04881,0.5304 0.39596,2.091 0.18655,2.98431 -0.70293,1.91244 -2.13707,3.58926 -3.99924,4.44004 -0.1295,0.0382 -0.32646,0.0679 -0.41341,-0.0729 0.84891,-1.04487 2.11334,-1.86863 2.74092,-3.13005 0.73769,-1.31411 1.03565,-2.82015 1.48518,-4.22144 z m -2.39314,0.19327 c 0.92198,0.74761 0.19899,2.23176 -0.14056,3.16259 -0.6371,1.35245 -1.55074,2.60961 -2.75538,3.5078 -0.093,0.0709 -0.27644,0.12979 -0.37311,0.0248 0.37858,-1.10105 1.70511,-1.98862 2.15646,-3.19773 0.82035,-0.98895 0.39926,-2.7821 1.11259,-3.49746 z m 4.25762,0.37517 c 0.5637,0.0359 0.18874,1.76777 0.0501,2.31355 -0.42798,1.97713 -1.81906,3.64528 -3.50935,4.69532 -0.0833,0.0192 -0.30261,0.16122 -0.39429,0.0315 0.62704,-0.99079 1.6156,-1.75432 2.11822,-2.84995 0.77384,-1.28639 1.27156,-2.71844 1.60972,-4.17442 0.0463,-0.0136 0.088,-0.0184 0.12557,-0.016 z m 1.53324,0.50177 c 0.84118,0.46416 -0.0575,2.19911 -0.32659,3.08819 -0.64173,1.49306 -1.54062,2.88711 -2.59622,4.11861 -0.15652,0.13782 -0.44954,0.26159 -0.61082,0.0563 0.053,-1.01916 1.21058,-1.6828 1.74563,-2.52336 0.89285,-1.43871 1.4762,-3.08513 1.788,-4.73977 z m 1.74563,0.43099 c 0.32979,1.08229 -0.31705,2.27708 -0.64957,3.33261 -0.557,1.15513 -1.07226,2.47156 -2.1518,3.23598 l -0.15193,-0.005 -0.1478,-0.10542 c 0.15021,-1.24294 1.61343,-2.12251 1.91926,-3.4308 0.55369,-0.89936 0.41353,-2.45555 1.18184,-3.02772 z m -8.9364,0.11834 c 0.28225,0.0431 0.14905,1.264 -0.17312,1.63194 -0.38989,0.86445 -0.95344,2.22288 -2.12648,2.0221 0.68342,-1.02727 1.46278,-2.03232 1.87068,-3.22926 0.19476,-0.32259 0.33484,-0.43915 0.42892,-0.42478 z m -1.11983,0.47955 c -0.29891,0.71825 -0.79272,1.97233 -1.59473,2.06861 0.45701,-0.61614 0.95237,-2.03352 1.59473,-2.06861 z m 11.44013,2.59726 c 0.0984,-0.006 0.20658,0.0241 0.32711,0.0987 -0.13939,0.82996 -0.11338,1.8172 -0.50384,2.48305 -0.21089,0.14413 -0.51113,0.36672 -0.77722,0.23823 -0.54908,-0.0531 -2.0095,-0.30015 -0.81649,-0.80667 0.85693,-0.19936 1.08168,-1.97294 1.77044,-2.01331 z m -30.79192,1.97094 c 0.26517,-0.026 0.4198,0.15761 0.14573,0.68626 -0.42616,0.89518 -1.49871,1.58216 -2.49856,1.36219 -1.29276,-0.32145 1.24837,-0.87228 1.54409,-1.47794 0.16792,-0.30944 0.54357,-0.54456 0.80874,-0.57051 z m 16.08222,0.39222 c 1.02078,0.83765 -0.40028,2.36272 -1.05316,3.08199 -0.17069,0.0683 -0.49006,0.28451 -0.65681,0.10645 0.94337,-0.82573 0.75323,-2.63415 1.70997,-3.18844 z m -1.98954,0.15193 c 1.16223,-0.13677 0.41407,2.13017 -0.2713,2.68459 -0.25106,0.391 -0.7311,0.65359 -1.18236,0.42065 -0.006,-0.97774 1.30259,-1.94303 1.45366,-3.10524 z m -1.32963,0.10025 c 0.13609,0.0287 0.26597,0.19196 0.38602,0.56638 -0.12619,1.17798 -1.18295,2.62357 -2.41277,2.7311 -0.58466,-0.66333 -2.68049,-0.32216 -1.26504,-1.44488 0.61041,-0.63746 1.64266,-2.21598 1.98489,-0.54518 0.43309,-0.26792 0.8986,-1.3934 1.3069,-1.30742 z m -11.24325,0.18966 c 0.14896,0.005 0.29092,0.0752 0.42168,0.23564 -0.32312,0.77452 -1.53246,1.72072 -2.38641,1.28106 0.54436,-0.34516 1.31927,-1.53973 1.96473,-1.5167 z m 7.52409,0.41082 c 0.53856,1.11368 -1.06477,2.56889 -2.11873,2.51148 -0.57801,-1.48407 -2.38149,-0.76616 -3.5481,-1.10278 0.45656,-1.49641 2.4607,-0.32434 3.5574,-0.91105 0.74414,1.22246 1.3823,-0.25774 2.10943,-0.49765 z m -6.23941,0.59945 c 0.19051,0.008 0.25157,0.15946 -0.0269,0.53537 -0.26787,0.23027 -0.69114,0.43721 -1.03353,0.24443 0.0653,-0.40779 0.74288,-0.79311 1.0604,-0.7798 z m 50.91421,0.13694 c 0.5052,0.1313 0.29289,2.00083 -0.32298,2.31562 -1.35528,1.52325 -2.90557,3.01258 -4.88601,3.6556 -0.10433,0.0168 -0.23548,0.0323 -0.32091,-0.0486 0.15071,-1.11195 1.80907,-1.33331 2.52233,-2.16369 1.16431,-0.90463 2.11876,-2.10486 2.53938,-3.53157 0.19688,-0.19528 0.3516,-0.25768 0.46819,-0.22738 z m 0.0734,3.21945 c 0.9695,0.42673 -0.88423,1.71464 -1.34669,2.26704 -1.07038,0.88999 -2.23855,1.6757 -3.49488,2.27066 l -0.23771,0.0408 -0.19689,-0.0279 v -5.1e-4 c -0.74161,-0.92459 1.62815,-1.40774 2.18178,-2.05414 1.13863,-0.69325 2.09887,-1.62305 3.09439,-2.49597 z m -15.13603,1.53375 c 0.21819,-0.0378 0.45374,0.0921 0.71158,0.48834 0.0284,1.45027 -1.53766,2.38112 -1.51412,3.8561 0.0639,1.41561 -0.90399,2.44761 -1.63401,3.5357 -0.26569,0.5241 -0.55489,1.60337 -1.36374,1.30948 -1.10793,-1.06103 0.82541,-2.31944 0.71624,-3.53467 -0.13662,-1.3853 0.30914,-2.59134 1.45314,-3.42046 0.47767,-0.49499 0.97634,-2.12106 1.63091,-2.23449 z m 15.52463,0.50385 c 0.65436,0.99641 -1.21828,1.95519 -1.97145,2.62671 -1.11178,0.69881 -2.23525,1.44516 -3.50418,1.82366 l -0.23565,0.006 -0.17156,-0.0951 h -5.2e-4 c -0.12802,-1.05121 1.79069,-1.30192 2.54248,-1.93167 1.27226,-0.5851 2.26928,-1.56442 3.34088,-2.42982 z m -85.83197,1.43298 c 0.74397,0.0502 1.5198,0.44193 2.31097,0.26976 -0.61916,0.6737 -1.39023,2.11145 -2.47065,1.37872 l -0.1819,-0.12195 c -0.72881,-0.38254 -1.69103,-1.05408 -0.39119,-1.42937 0.24038,-0.0927 0.48478,-0.11389 0.73277,-0.0972 z m -2.73782,1.39785 c 0.12149,0.0127 0.26796,0.0782 0.43719,0.21653 0.6554,0.55398 0.84498,1.72968 -0.37104,1.01906 -0.64531,-0.34974 -0.59256,-1.2907 -0.0661,-1.23559 z m 52.09295,0.17984 c -1.21233,0.48484 -2.27236,1.39954 -3.6313,1.49344 -1.03938,0.53002 -2.13338,-0.81916 -2.88717,-0.3669 -0.86284,2.25571 -0.71864,4.73447 -0.69401,7.10861 -0.001,1.96739 0.47345,3.95893 0.0951,5.90869 -0.42198,1.18817 -1.64118,1.98745 -2.91041,1.76371 -2.60257,0.10493 -5.18245,-0.34441 -7.69204,-0.99735 -2.22219,-0.33752 -4.57408,-0.56619 -6.75463,0.10335 -2.28377,0.99666 -3.21411,3.59501 -5.2126,4.97179 -1.13499,0.83286 -2.75093,1.74795 -2.66702,3.36775 0.0344,1.62792 0.11356,3.26705 -0.23616,4.87051 -0.29074,1.1272 -0.12496,2.70115 1.4242,2.40088 0.7425,0.0183 1.48484,-0.0431 2.22312,-0.11368 1.52822,-0.21365 3.10608,-0.0722 4.60644,-0.4346 1.22585,-0.67088 1.24886,-2.23893 1.72444,-3.39928 0.55496,-1.271 0.67194,-2.63518 -0.2992,-3.73466 -0.40208,-1.44256 2.81671,-1.16013 1.6986,-2.70836 -0.47702,-0.47498 -1.94835,-1.84596 -0.35708,-1.62212 1.41477,-0.0121 1.89178,1.56651 2.52181,2.55437 0.64335,0.84405 1.6886,2.35295 2.84375,1.35599 1.19139,-0.0497 2.42481,0.25555 3.61477,-0.092 1.26935,0.38609 2.54526,-0.34302 3.83232,0.12661 1.19752,0.48697 2.2312,-0.62683 3.37654,-0.0946 0.80636,0.15218 1.65603,-0.13217 2.44688,0.004 1.08559,0.43532 2.33101,1.18316 3.46232,0.47025 0.53209,-0.62034 1.3167,-1.20955 1.56063,-1.99574 0.0322,-1.44167 -0.0811,-2.89499 0.0899,-4.32739 0.42173,-1.19918 1.45491,-2.07238 1.69447,-3.35793 0.68507,-1.57925 -0.41818,-3.34348 0.43564,-4.88343 0.46117,-1.02956 2.00894,-2.26711 1.11156,-3.41994 -0.55508,-1.19476 -1.68801,-1.91118 -2.20762,-3.0701 -0.68,-1.0659 -2.10899,-1.53122 -3.21324,-1.88205 z m 36.22518,0.11523 c 0.0574,-0.005 0.0996,0.008 0.1235,0.0434 -0.76847,1.01787 -1.99836,1.54096 -3.06027,2.1947 -0.63369,0.17428 -1.43323,0.89454 -2.03709,0.73019 0.056,-1.10972 1.90863,-1.3719 2.80603,-1.90893 0.63268,-0.13336 1.7661,-1.02664 2.16783,-1.05937 z m -35.33583,1.63556 c 1.32885,0.0815 2.15547,1.38547 2.60139,2.5337 0.29476,0.32954 1.08351,2.39179 0.20464,1.97145 -0.9118,-0.89944 -1.28886,-2.12037 -1.95544,-3.175 -0.28671,-0.45182 -2.06601,-0.71696 -1.12292,-1.32963 0.0931,-0.006 0.18374,-0.006 0.27233,-5.2e-4 z m -5.29477,0.18501 c 0.34585,0.0144 0.67636,0.15636 0.64906,0.49971 -0.27246,0.20229 -0.60775,0.23238 -0.92708,0.15193 -0.91818,-0.34484 -0.29839,-0.67565 0.27802,-0.65164 z m 40.05234,0.6568 c 0.42363,0.0124 -0.99241,1.02422 -1.25574,1.23869 -1.18949,0.93677 -2.70963,1.32728 -4.17184,1.59215 l -0.23306,-0.0119 h -5.1e-4 c -1.09788,-0.97074 1.3492,-0.95049 1.92339,-1.39785 1.21654,-0.46341 2.48032,-0.77753 3.62769,-1.40973 0.0455,-0.009 0.0818,-0.0122 0.11007,-0.0114 z m -35.77663,0.42685 c 0.19437,-0.0182 0.42735,0.0495 0.67128,0.24701 1.10743,0.74631 1.85798,1.86473 2.2009,3.12643 0.32691,0.1638 1.25036,1.44392 0.3514,0.74414 -1.46458,-0.47476 -2.28072,-1.68254 -3.19671,-2.81223 -0.84683,-0.42245 -0.60997,-1.25072 -0.0269,-1.30535 z m 20.1197,0.10594 c 1.71252,0.0459 -0.18231,1.9379 -0.46663,2.70991 -0.17871,0.27206 -0.51982,0.44591 -0.83303,0.28732 0.0378,-0.9402 0.86649,-2.0658 1.29966,-2.99723 z m 1.67019,1.16633 c 0.57304,0.97224 -0.80176,2.02901 -1.42421,2.73627 -0.17123,0.1084 -0.42831,0.3564 -0.64647,0.20154 0.41003,-0.9734 1.39288,-2.05345 2.07068,-2.93781 z m 12.82505,0.7059 c -0.49897,1.18036 -1.86306,1.79086 -3.02772,2.21641 -0.83555,0.18108 -1.7666,0.85906 -2.53835,0.81958 0.056,-1.04339 1.58797,-1.50549 2.50683,-1.80299 1.08166,-0.23169 2.08826,-0.8047 3.05924,-1.233 z m -35.665,0.12403 c 1.21511,0.0921 2.52815,1.20424 2.25929,2.42827 -0.25297,0.1856 -0.60485,0.1143 -0.85111,-0.0403 -0.61338,-0.52377 -1.67363,-1.76891 -1.40818,-2.38797 z m 23.80061,0.32556 c 0.14818,-0.0208 0.23244,0.13478 0.154,0.61081 -0.50529,1.24753 -1.48876,2.23889 -2.50218,3.09387 l -0.2005,0.092 -0.12764,-0.0481 c 0.21573,-1.02037 1.36338,-1.83637 1.86345,-2.83704 0.14186,-0.35157 0.5659,-0.87685 0.81287,-0.91157 z m -27.35027,0.40307 c 0.36324,-0.0524 1.23003,0.64592 0.11937,0.45372 l -0.22272,-0.0899 v -5.2e-4 c -0.0827,-0.24506 -0.0177,-0.34582 0.10335,-0.36329 z m 0.3173,1.12914 c 0.22175,-0.0734 0.97462,0.45371 0.0377,0.32039 -0.12627,-0.20462 -0.11164,-0.29592 -0.0377,-0.32039 z m 2.605,0.53898 c 0.24152,-2.3e-4 0.76696,0.73962 1.1958,0.88005 1.2647,0.50574 0.37947,2.15311 -0.68575,1.12655 -0.75842,-0.24474 -1.22581,-0.68622 -0.62787,-1.42214 -0.0432,-0.43159 0.008,-0.58435 0.11782,-0.58446 z m 33.85634,0.0377 c 0.10607,0.0102 0.20195,0.0398 0.28422,0.093 -0.85179,1.13195 -2.22731,1.54978 -3.39515,2.24896 -0.65615,0.29374 -1.36114,1.16741 -2.09651,1.07487 0.23755,-1.12406 1.47313,-1.80227 2.42569,-2.34043 0.78389,-0.2744 2.03924,-1.1478 2.78175,-1.07642 z m -9.24595,0.86868 c 0.48876,0.10037 0.1961,1.63011 -0.5116,1.79783 -0.38197,0.26867 -0.89925,0.9344 -1.42058,0.73742 -0.70707,-0.78561 1.07696,-1.59639 1.46451,-2.34198 0.20057,-0.16341 0.35488,-0.21643 0.46767,-0.19327 z m -27.37507,0.078 c 0.36166,-0.0309 1.44514,0.3865 0.23719,0.39997 -0.41694,-0.27914 -0.40159,-0.38595 -0.23719,-0.39997 z m 2.47271,1.65364 c 1.37414,0.1257 1.43436,2.8264 -0.0284,2.30942 -0.035,-0.73295 -0.23047,-1.78057 -0.26355,-2.29857 0.10323,-0.0162 0.20036,-0.0192 0.29197,-0.0109 z m 10.98951,1.20665 c 0.0673,0.008 0.13404,0.0251 0.19947,0.0517 -0.0153,0.76366 0.74766,1.2726 0.7028,1.98489 -0.0519,0.73979 -0.27509,1.74621 0.73381,1.78181 -0.23896,0.46466 0.26817,2.02402 -0.22686,1.84071 l -0.0961,-0.1049 -0.10697,-0.13591 c -0.36892,-1.29793 -1.49072,-1.96426 -2.14457,-3.08043 -1.20619,-0.62154 -0.0708,-2.46078 0.93844,-2.33784 z m -8.56588,0.68936 c 0.0542,-0.009 0.19095,0.0353 0.4408,0.15606 0.45908,0.17912 2.60175,0.63961 1.66294,1.08934 -0.22295,-0.007 -0.44671,-0.0335 -0.663,-0.0889 -0.36209,-0.0871 -1.67565,-1.11826 -1.44074,-1.15652 z m 0.49247,1.68569 c 0.20068,0.022 0.86765,0.58711 0.0279,0.21394 -0.10976,-0.16825 -0.0948,-0.22127 -0.0279,-0.21394 z m -0.92449,4.92476 c 0.64234,-0.0297 1.22709,0.13208 1.03146,0.93638 -1.27758,0.59075 -2.54108,1.6557 -4.03127,1.45779 -1.12394,-0.0308 -0.78321,-1.168 0.21032,-0.87437 0.94537,-0.0609 0.45848,-1.78849 1.72702,-1.3565 0.27114,-0.0589 0.67707,-0.14545 1.06247,-0.1633 z m -12.97905,0.7338 c 0.49414,-7e-4 0.9439,0.12998 1.28261,0.56483 -0.71442,0.61846 -2.21788,0.2877 -3.21376,0.60668 -0.22624,0.002 -0.45529,0.004 -0.67799,-0.0424 -1.05917,-0.0141 -1.01217,-1.33223 0.0698,-0.82889 0.76793,0.0673 1.71581,-0.29905 2.53938,-0.30024 z m 32.38459,1.33842 c 0.13844,0.0297 0.33534,0.39487 -0.0481,0.44856 -0.0971,-0.36349 -0.035,-0.46638 0.0481,-0.44856 z m -1.07539,0.54777 c 0.0974,0.0537 0.0656,0.42305 -0.13901,0.0894 0.0596,-0.09 0.10653,-0.10728 0.13901,-0.0894 z m -2.51096,0.46561 c 0.23884,0.1116 2.85824,1.68106 1.44126,1.26452 -0.75183,0.0984 -1.73258,-0.93064 -1.44126,-1.26452 z m 9.1457,1.4888 c 0.30658,-0.0255 1.02219,0.49482 0.21032,0.57154 l -0.19275,-0.10542 h -5.2e-4 c -0.21164,-0.33001 -0.15641,-0.45454 -0.0171,-0.46612 z m -53.04793,0.61081 c 0.97093,-0.0452 1.88843,0.44013 1.18288,1.54254 -0.26756,0.43522 -0.86386,0.50429 -1.32395,0.43254 -0.85207,0.14212 -2.27487,-0.36382 -1.32551,-1.33894 0.28193,-0.39087 0.88402,-0.60899 1.46658,-0.63614 z m 2.47427,0.078 c 0.77514,0.082 1.67371,1.71391 0.632,2.36885 -0.26619,0.14806 -0.73242,0.222 -0.92346,-0.0868 -0.33327,-0.78336 1.1509,-1.57898 -0.0269,-2.21486 0.0997,-0.0589 0.20759,-0.0789 0.31833,-0.0672 z m 51.59478,0.6041 c 0.1236,0.0133 0.28699,0.12357 0.49351,0.37724 0.11024,1.05166 -0.62629,2.0681 -0.45217,3.22358 -0.074,1.59524 -1.7799,2.05729 -2.53731,3.20497 -0.5054,1.27398 -2.01434,1.35293 -2.89026,2.25361 -0.22168,0.0796 -0.46059,0.0246 -0.6842,-0.0114 v -5.2e-4 c -0.62203,-0.2035 0.69349,-1.2307 0.91468,-1.64228 1.08762,-0.71739 1.42436,-2.03786 2.59622,-2.55384 1.15778,-0.86618 2.73758,-1.91401 2.46083,-3.58583 -0.2815,-0.47074 -0.27209,-1.30558 0.0987,-1.26556 z m -52.1441,3.69125 c 0.32032,-0.0514 0.65751,0.15221 0.29094,0.72967 -0.1026,0.15504 -0.33834,0.1942 -0.48214,0.0729 -0.4326,-0.4446 -0.12912,-0.75109 0.1912,-0.80253 z m 45.57758,5.59656 c -0.6716,0.84598 -1.09397,1.89925 -2.02778,2.46135 -0.3459,1.26694 -0.95945,2.60018 -2.01797,3.42304 -1.05319,0.69432 -1.79933,2.2588 -3.02204,2.4753 l -0.0181,-0.15813 c 0.60666,-1.24475 1.9252,-2.02222 2.20141,-3.48919 0.80878,-1.07999 1.90461,-1.92098 2.62155,-3.07216 0.68224,-0.48312 1.84653,-1.47619 2.26291,-1.64021 z" /></g></svg>
