<?xml version="1.0" encoding="UTF-8" standalone="no"?>
<!-- Created with Inkscape (http://www.inkscape.org/) -->

<svg
   width="297mm"
   height="210.00002mm"
   viewBox="0 0 297 210.00002"
   version="1.1"
   id="svg5"
   xml:space="preserve"
   xmlns="http://www.w3.org/2000/svg"
   xmlns:svg="http://www.w3.org/2000/svg"><defs
     id="defs2" /><g
     id="layer1"
     transform="translate(-440.00001)"><rect
       style="fill:#fa0000;fill-opacity:1;stroke-width:0.119813;-inkscape-stroke:none;stop-color:#000000"
       id="rect1436"
       width="297.00006"
       height="210"
       x="440"
       y="-4.2188475e-15" /><path
       id="path4692"
       style="fill:#ffffff;fill-opacity:1;stroke:none;stroke-width:0.206733;stroke-linecap:round;stroke-linejoin:round;stroke-dasharray:none;stroke-opacity:1;stop-color:#000000"
       d="m 582.35774,28.474748 c -0.14042,0.328013 0.75741,0.73753 -0.2651,0.701766 -0.80734,0.817962 -0.86732,2.253864 -0.97617,3.379638 0.0926,1.299953 0.81327,2.446783 1.85828,3.202906 0.72112,0.272823 0.87659,0.766338 -0.0915,0.729154 -1.3078,-0.02885 -1.88977,-1.933542 -2.71766,-2.127002 -0.0251,0.0038 -0.0501,0.0075 -0.0729,0.01499 -0.24547,0.679351 1.30484,2.302304 -0.13901,1.696021 -0.50849,-0.118435 -1.00064,-0.693743 -1.50172,-0.623218 -1.57641,0.492107 0.17738,1.561137 0.93689,1.914095 1.63855,0.908592 3.3916,2.140139 5.36092,1.86862 0.96814,-0.01148 1.52548,-1.820432 2.3766,-0.914156 0.16694,-0.548422 -0.39879,-1.814922 0.57671,-0.928109 0.88055,0.719528 0.62092,2.312154 -0.45321,2.668571 -1.13022,-1.129102 -2.14429,0.539373 -2.67219,1.526005 -0.59586,1.416057 -0.7292,3.032492 -0.44183,4.535641 0.48582,0.928089 1.34414,-0.978709 2.14664,-0.960149 1.1745,-0.700609 2.7664,-1.047807 3.39876,-2.380216 1.16934,-0.971127 1.65548,1.581592 1.67121,2.438611 0.22654,1.257839 -0.52622,2.799828 0.17777,3.881417 1.02526,-0.55203 1.96823,-1.304839 2.99207,-1.892908 1.30281,-0.771869 2.61737,-2.342913 2.04897,-3.942912 -0.27469,-0.475269 -1.14867,-1.352687 0.0708,-1.055749 1.34966,0.317319 1.97298,1.667754 2.12907,2.928503 0.3612,1.508089 0.45786,3.242538 -0.59531,4.513936 -0.74226,0.968989 -1.66638,2.068344 -1.2361,3.380673 0.5509,1.331888 0.0108,2.845381 -1.22886,3.56774 -2.01104,1.372569 -4.72335,1.397198 -6.49418,3.185336 -1.66893,1.303088 -2.37798,3.57744 -1.88826,5.618778 0.44471,1.483369 -1.00757,2.429888 -2.02365,3.178618 -1.2695,0.857139 -2.3759,2.104889 -2.52749,3.691247 -0.26402,0.986669 1.2135,2.707459 1.92753,1.60507 -1.5135,-0.33149 -1.88443,-2.483986 -0.43925,-3.273185 1.29794,-0.932979 2.99693,-0.405939 4.45761,-0.752409 1.64492,-0.698839 1.23371,-3.125493 2.87011,-3.807003 1.42673,-0.860449 3.17412,-0.396035 4.66276,-0.997355 1.14571,-0.472799 1.48799,-2.154089 2.90628,-2.025199 1.28608,-0.15694 2.75109,-0.783697 3.26699,-2.057756 0.86391,-1.253559 -0.10902,-2.584963 0.2496,-3.821472 -0.16814,-0.928619 0.63243,-1.106744 0.8232,-0.182935 0.72324,2.259928 -0.16574,4.655381 -1.14412,6.695199 -0.84696,1.457999 -1.95302,2.935634 -3.6344,3.460254 -1.4224,0.471579 -2.5275,1.91116 -2.43706,3.432349 -0.0132,1.352768 -0.95671,2.360631 -1.93632,3.16208 -0.80869,1.275859 -2.28906,1.347601 -3.64525,1.290361 -1.7228,0.004 -3.46627,1.178764 -3.72019,2.957442 -0.4081,1.167629 1.51848,2.455945 -0.26148,3.145545 -0.94174,0.424119 -1.66197,2.774497 -0.0243,2.349727 1.40212,-0.20941 0.93873,-2.24933 1.99988,-2.52026 1.62146,0.71981 1.72589,-2.016127 3.31918,-1.559078 1.06188,0.27678 2.20183,0.227297 3.27835,0.160197 0.77242,-0.402829 1.61138,-0.693084 2.16163,-1.414384 0.78722,-0.857649 1.24876,-1.967757 2.15232,-2.736267 0.57343,-0.550379 1.88337,-2.036885 2.43758,-1.022676 -0.92361,0.748489 -1.64738,1.822924 -1.62988,3.067513 -0.1231,1.461818 -0.59833,2.965548 -1.80144,3.900537 -1.84209,1.795168 -4.57493,2.796014 -5.60534,5.318022 -0.42788,1.205958 -0.9824,2.611293 -0.31161,3.837491 0.17794,0.22813 0.68569,0.935691 0.99477,0.518832 h 5.2e-4 c -0.85385,-1.121089 -0.88468,-2.811317 0.27337,-3.790467 0.90614,-0.949859 2.33445,-1.186834 3.54552,-0.733805 1.37992,0.51486 3.17731,0.495597 4.1429,-0.783931 0.81624,-0.82707 1.11975,-2.509689 2.07429,-2.916618 0.4599,0.544109 0.82004,2.6859 1.64641,2.103231 0.48976,-1.091729 0.44121,-2.346297 0.1111,-3.471106 0.15568,-1.145389 0.57206,-2.26423 0.77412,-3.416329 0.33919,-1.373679 1.04539,-2.662511 1.02784,-4.10776 -0.0735,-0.878899 0.86577,-1.692248 1.17047,-0.437699 0.11111,0.676479 1.3745,1.930958 1.68569,1.090889 -1.02061,-1.213289 -0.80427,-2.893808 -0.39791,-4.306197 0.38969,-1.630968 1.57588,-3.027744 1.60507,-4.741313 -0.14453,-1.159638 -0.68102,-2.366934 -0.57929,-3.493843 0.84644,-0.25398 1.95833,-0.798711 0.95239,-1.6769 -1.28968,-2.084298 -0.84827,-4.610186 -0.92397,-6.930843 0.13414,-1.460969 -0.83557,-2.782484 -2.09031,-3.434933 -1.21615,-1.007899 2.65206,-0.251195 1.2826,-1.623673 -1.01752,-0.70874 -2.05661,-1.375865 -2.41897,-2.593124 -1.00799,-0.616789 -2.28563,-0.994889 -3.01015,-1.950268 1.05728,-0.21834 2.20185,1.54e-4 3.29179,-0.02946 0.91081,0.32526 1.93722,-0.354931 1.079,-1.25367 -1.20093,-1.194427 -3.07676,-1.102539 -4.50515,-1.908928 -1.20652,-0.493318 -2.04508,-1.52365 -2.58537,-2.676839 -0.66828,-1.604968 -2.26126,-2.689712 -3.98581,-2.792077 -0.95489,0.08248 -2.90705,-0.507737 -0.98857,-1.05575 1.2707,-1.358198 -1.34245,-1.684609 -2.24637,-1.208712 -1.62908,0.260018 -3.31367,0.812973 -4.963,0.441834 -1.40526,-1.116756 -1.02961,1.570615 -2.06138,1.953369 -0.6439,0.794777 -2.01735,-0.009 -0.95446,-0.760677 0.4463,-1.211556 -0.0324,-2.604268 -0.68523,-3.660759 -0.86428,-1.169632 -2.16901,-2.091234 -3.60391,-2.362129 z m 7.20834,1.164787 c -0.13106,0.0094 -0.25812,0.06035 -0.37362,0.16278 -0.73278,1.066921 -0.40338,3.096451 1.27072,2.37815 l 0.13746,-0.05271 c 1.01322,-0.583471 -0.11713,-2.553717 -1.03456,-2.48822 z m -5.82755,0.290938 c 0.1013,-0.0059 0.278,0.04004 0.555,0.159163 0.47564,-0.01182 1.26062,1.78325 0.37931,1.164787 -0.39366,-0.29403 -1.37326,-1.298361 -0.93431,-1.32395 z m 2.41174,2.698026 c 0.70229,0.330296 -0.28258,3.495329 -0.53589,2.06189 -0.006,-0.633733 0.1858,-1.711936 0.53589,-2.06189 z m -21.61264,0.357084 c -1.45776,0.119093 -2.3144,1.402796 -3.43079,2.153874 -1.16952,0.359421 -2.58179,0.219598 -3.36259,1.382862 -0.69164,0.885129 -1.48075,1.665774 -2.38177,2.337325 -1.08985,1.33271 -1.31056,3.148629 -1.47329,4.809525 -0.10353,1.596419 0.72403,3.251122 2.10685,4.064352 0.23279,-0.93293 -0.66287,-2.216849 -0.36019,-3.354318 -10e-4,-1.374588 0.0185,-3.045154 1.32344,-3.870564 0.84262,-0.601473 -0.40209,1.018542 -0.38034,1.441772 -0.64675,1.764376 -0.29154,3.908892 0.91312,5.350061 0.80434,0.932089 2.29967,1.258051 3.35948,0.609782 1.26299,-0.897509 2.52141,-2.227076 2.33216,-3.904155 0.17874,-0.955449 -1.27812,-2.32134 -1.92443,-1.412833 0.62005,1.297988 -1.08352,2.312663 -2.13992,1.575614 -1.41847,-0.826069 -1.2477,-2.833194 -0.45527,-4.047815 0.52563,-1.072 1.26724,-2.291795 2.59261,-2.390551 1.8639,-0.326315 3.6823,0.440449 5.54746,0.249597 1.54811,-0.05975 3.07574,0.466025 4.35271,1.322916 0.95339,0.627537 2.77568,0.04355 3.40806,0.641822 -2.02111,0.685973 -4.34686,0.352756 -6.13709,-0.800468 -0.42786,-0.508837 -2.09242,-0.443419 -0.91261,0.194303 1.54044,0.888304 3.14453,1.985642 5.01313,1.844332 1.49716,-0.0973 2.9797,-0.427245 4.4912,-0.395325 1.6208,-0.0672 3.35481,0.231257 4.87154,-0.474906 -0.10859,-1.047615 -2.00982,-1.286374 -2.80345,-1.984892 -1.55994,-1.05432 -3.22419,-1.971464 -4.95474,-2.695959 -0.0323,0.01144 -0.0536,0.02484 -0.0775,0.03772 -0.0402,0.05822 -0.0804,0.116492 -0.11472,0.1757 0.0643,0.338988 1.26517,0.85485 1.50482,1.103809 0.53502,0.0992 1.98151,1.656518 0.64698,0.931726 -1.16933,-0.543264 -2.41186,-0.99989 -3.29799,-1.994194 -1.10029,-0.874693 -2.1587,-1.847765 -3.54448,-2.251025 -1.50494,-0.51035 -3.1305,-0.691983 -4.71238,-0.65009 z m 29.67313,2.863392 c 0.11861,0.01222 0.26139,0.07028 0.42375,0.192753 0.58884,0.349817 0.82505,1.316337 -0.21033,0.683162 -0.78591,-0.124237 -0.72739,-0.928891 -0.21342,-0.875915 z m 1.58491,1.297595 c 0.98742,-0.02583 2.00052,0.960989 2.53112,1.697054 -0.004,0.261511 -0.29187,0.363208 -0.49145,0.206189 -0.50743,-0.865918 -2.09652,-0.910426 -2.23707,-1.884123 0.0655,-0.0111 0.13158,-0.0174 0.1974,-0.01912 z m -5.00124,2.286682 c 0.8044,0.654392 1.1218,2.767486 -0.36329,2.423108 l 0.0155,-0.15968 c 0.27602,-0.60097 -0.0899,-2.277891 0.34778,-2.263428 z m 8.39949,0.242362 c 0.52354,0.02811 1.4138,0.403923 1.66605,0.658875 1.07734,0.764461 1.56453,2.061439 2.30115,3.112988 0.48987,1.072769 1.13964,2.363499 1.22886,3.427698 -0.34724,0.0919 -0.65864,-0.08161 -0.87901,-0.341064 -0.89247,-1.095159 -1.07109,-2.595824 -1.85932,-3.767212 -0.58547,-1.203457 -1.53633,-2.170567 -2.78743,-2.665471 -0.16666,-0.334324 0.0156,-0.44268 0.3297,-0.425814 z m -7.08174,0.0036 c 0.0522,0.0033 0.10972,0.172385 0.16123,0.613916 0.24567,0.391563 -0.21865,2.375676 -0.31264,1.724959 0.002,-0.36699 0.004,-0.733728 0.007,-1.100708 h -10e-4 c -0.0584,-0.451648 0.0309,-1.245417 0.14573,-1.238167 z m -9.09557,1.300696 c -0.77988,0.04238 -1.85855,0.771989 -2.65669,0.643371 -1.72933,0.22076 -3.42523,-0.583245 -5.13922,-0.224276 -0.83138,0.47975 -0.39025,2.079912 -0.48317,3.002401 0.62614,1.823588 2.10488,0.111457 3.04529,-0.330212 1.36936,0.513509 -0.013,2.894812 -1.37873,2.414323 -0.79554,0.321229 -0.88747,1.752638 -2.08101,1.755448 -0.24163,0.799689 -2.20949,1.218274 -1.31154,0.02636 0.071,-0.528559 -0.47654,-1.71121 0.5767,-1.081071 1.30272,0.48451 1.27356,-1.494761 0.39585,-1.99471 -0.58568,-0.805799 -0.13991,-2.004762 -0.32557,-2.721281 -1.27912,0.790609 -1.81001,2.326523 -2.48408,3.605981 -1.70934,3.768557 -2.01713,8.078116 -4.2199,11.635983 -0.66156,1.211458 -1.76452,2.098946 -2.44223,3.289204 -0.69644,1.205889 -0.21506,2.662696 0.73949,3.568775 1.08403,1.029369 1.15843,2.98788 2.73524,3.49126 1.48098,0.440459 1.93121,-1.496671 2.94245,-2.13217 1.11804,-0.529569 2.139,-1.255552 3.3135,-1.684652 1.22348,-0.0244 2.43419,-0.525863 3.64577,-0.405143 1.24728,0.37578 0.26954,3.100049 -0.86558,2.729549 -0.12647,-1.642478 -2.11843,-0.175566 -1.85984,0.876433 0.12905,1.002229 -1.82865,2.547711 -0.1633,2.863391 1.11422,0.13678 2.15026,1.017504 2.97398,-0.237195 0.33511,-0.37068 0.85806,-0.642036 0.82011,-1.211296 0.13696,-1.164969 0.6276,-2.243735 0.87385,-3.375504 -0.55037,-1.092479 -0.81943,-2.194366 -0.34313,-3.409094 -0.0723,-1.048659 1.27297,-2.009222 1.24333,-0.441834 -0.15401,1.564178 1.13881,0.204786 0.9648,-0.619084 0.14977,-1.486958 1.69618,-2.224771 2.61069,-3.21324 1.11241,-0.11179 2.6134,0.351363 3.00757,-1.123446 1.00565,-1.728898 0.61022,-3.807585 0.74879,-5.713863 -0.0527,-0.824659 0.1846,-1.667173 0.28319,-2.446362 -0.49672,-0.54968 -0.60574,-2.301724 0.34623,-1.086756 1.47862,0.85296 2.0946,-1.100044 1.77457,-2.254642 -0.12751,-1.904958 -1.93436,0.251629 -2.83445,0.386539 -1.04983,0.24937 -2.53816,1.351884 -1.16065,2.307353 1.76793,0.612619 0.78996,2.827558 -0.73898,2.950208 -0.75694,1.626638 -3.05589,-0.171921 -1.495,-1.16272 1.40326,-0.55687 -0.64027,-1.906843 -0.66404,-2.955892 -0.48473,-1.795608 -0.2271,-3.713292 0.26407,-5.478219 -0.17209,-0.195786 -0.3984,-0.25804 -0.65836,-0.243912 z m 47.05656,3.228226 c -0.15368,0.0026 -0.30915,0.01222 -0.46561,0.02894 -1.82151,0.0195 -3.61259,1.098956 -4.29069,2.827734 -0.66543,1.491199 -0.58163,3.461555 0.56999,4.691704 0.67225,0.977799 2.81765,0.675356 2.4784,-0.628902 -1.34678,-0.28311 -2.11942,-1.853789 -1.07848,-2.931088 0.67041,-1.067979 1.96186,-1.389813 3.14554,-1.288293 2.53767,-0.0481 4.58895,1.970867 5.54126,4.170805 0.97096,1.919238 0.8844,4.242389 0.0641,6.197037 -0.60935,1.696659 -1.34367,3.417102 -2.73781,4.625041 -0.53573,0.4423 -1.07288,1.321362 -1.68466,1.400431 0.86527,-1.098568 1.77191,-2.197166 2.36833,-3.482474 1.02042,-2.076908 1.88585,-4.416537 1.572,-6.761345 -0.73427,-1.242508 -0.98709,1.191645 -1.37097,1.645895 -0.90986,2.217717 -2.0033,4.416119 -3.78014,6.075598 -1.63819,1.839188 -3.92214,2.969435 -5.48855,4.884973 -1.09286,1.145069 -2.59441,1.779272 -3.63699,2.984831 -0.79832,0.900729 -1.83403,1.560821 -2.61069,2.4691 -0.76025,1.367628 -2.25951,2.287937 -2.56935,3.891235 -0.20043,1.610508 -1.46526,2.998027 -1.13068,4.684985 0.24309,1.246339 0.30599,2.582975 0.9958,3.685564 0.75852,1.046418 1.86453,1.809231 2.5616,2.89388 0.20799,1.168219 0.56867,2.365506 1.55856,3.118156 0.66098,0.760379 2.31837,0.589251 2.11409,1.94045 -0.55483,-1.319749 -2.40075,-0.432084 -3.2272,-1.545642 -1.18513,-0.88823 -0.75205,-2.764257 -2.06189,-3.573426 -1.02448,-0.452929 -2.04418,-1.204906 -3.08249,-1.479496 -0.21319,1.602918 0.33541,3.29296 1.26297,4.595068 1.4821,1.691889 3.96063,2.316686 5.02346,4.394564 0.53535,1.256509 0.87531,2.787024 2.21124,3.454053 1.71281,1.022819 3.74764,1.158504 5.68802,1.253153 1.62752,0.33754 3.25675,0.842215 4.71754,1.638653 1.3189,0.99025 1.51357,2.73097 2.29754,4.08399 0.89148,2.18481 3.12153,3.29526 4.74596,4.84622 0.80351,1.15816 0.84573,2.68466 1.72651,3.81424 0.83992,1.27353 1.24461,3.21109 -0.0274,4.35218 -0.83286,0.78882 -1.57357,1.71574 -2.48563,2.39882 -0.71298,-1.10252 0.95563,-2.01784 1.72496,-2.61327 0.89651,-1.16958 0.3326,-2.8052 -0.12971,-4.0442 -0.47474,-1.39349 -1.9105,-2.19878 -2.2624,-3.66644 -0.48547,-1.44318 -2.27935,-1.5179 -3.19825,-2.6076 -1.27824,-1.1573 -0.85478,-3.37393 -2.44998,-4.28397 -1.08961,-0.51147 -2.7496,-0.41749 -3.49023,0.64337 -0.0293,0.88633 1.90619,0.0436 2.33888,1.01389 1.26207,1.21481 0.7905,3.04251 0.89814,4.58577 0.22265,1.93672 2.05665,3.16716 3.83077,3.5357 0.99061,0.44558 1.75002,1.30179 2.56573,2.00815 0.98788,0.87015 0.51745,2.6354 -0.41651,3.36878 -1.05417,1.02266 -2.89221,1.15692 -3.91397,0.0139 -1.12508,-1.17113 -1.42245,-2.95581 -2.78071,-3.94652 -1.00851,-0.83343 -2.08186,-1.67493 -2.58589,-2.92902 -0.85375,-1.45563 -1.60242,-3.03133 -2.97966,-4.08244 -2.95632,-2.78235 -6.8013,-4.24259 -10.33839,-6.10867 -1.67886,-0.937556 -3.45204,-1.671595 -5.26169,-2.312004 -1.77043,-0.64048 -3.39347,-1.662413 -4.61471,-3.109371 -1.58672,-1.781138 -2.95408,-3.833929 -5.0431,-5.087028 -1.33741,-0.770219 -2.13482,-2.307506 -3.7176,-2.672705 -1.1407,-0.671019 -2.35924,0.242257 -2.73214,1.338936 -0.66667,1.097969 0.15027,2.976389 1.57355,2.62568 0.99635,-0.841449 1.3079,0.52486 0.39119,0.91674 -1.21239,0.657769 -2.66253,0.201511 -3.73982,-0.498678 -1.62236,-1.412099 -1.45367,-3.972402 -0.45475,-5.69681 1.28788,-2.663837 4.40159,-3.597498 6.13399,-5.869926 0.80622,-1.345838 -1.03187,0.204466 -1.56942,0.312126 -1.2311,0.28544 -1.84391,1.635395 -3.12177,1.807125 -1.23449,0.239979 -2.8864,-0.47303 -3.77134,0.736389 -0.36909,1.176999 -1.87866,1.037126 -2.80035,1.636076 -1.2103,-0.0979 -2.62038,1.529242 -1.11311,2.230871 1.68374,-0.810889 1.04807,1.955942 -0.33125,1.512053 -1.49388,-0.17326 -2.31377,-1.946876 -1.72857,-3.268535 0.53169,-1.076979 0.60762,-2.286755 1.02681,-3.391524 0.38808,-0.961849 1.95048,-1.411235 1.02164,-2.580204 -0.27424,-1.412649 0.3656,-2.929288 1.50999,-3.793567 1.24559,-0.997369 2.97058,-1.090778 4.50515,-1.031978 1.23783,-0.3214 2.0988,-1.536198 2.88613,-2.471167 0.45646,-1.291549 0.31194,-2.823371 1.30741,-3.89382 0.93797,-1.496458 3.19352,-1.19816 4.01526,-2.799829 0.0581,-0.532869 -1.23423,-0.582178 -1.56838,-0.258899 -0.88576,1.026719 -2.31406,1.17192 -3.33778,2.00608 -0.74989,0.0949 -1.14245,2.347107 -1.35082,0.752408 0.32192,-0.731089 -0.62101,-1.591056 -0.99994,-0.728637 1.00959,0.520289 -1.60703,1.341949 0.15244,1.319299 0.5534,0.605179 -1.53955,1.13212 -1.00149,-0.04496 -0.19385,-1.678359 -1.04838,0.82492 -1.37924,1.30793 -0.60267,1.317019 -2.14137,1.509285 -3.41736,1.455725 -1.14149,-0.11327 -2.68392,0.327631 -2.71767,1.6738 0.59484,0.302089 1.83223,-0.340568 1.50895,1.047481 -0.006,1.488269 -1.9583,1.692744 -2.90731,0.923975 -1.3505,-0.873989 -1.59987,-2.738281 -0.89865,-4.10776 0.6158,-1.690708 2.32463,-2.48022 3.56309,-3.627169 0.48441,-0.367529 0.5357,-0.874505 0.3855,-1.419035 -0.25111,-1.557208 -0.22504,-3.223164 0.63821,-4.602303 1.22239,-1.981868 3.36078,-3.21013 5.56865,-3.791499 1.3961,-0.43379 3.078,-1.072829 3.53157,-2.610177 -0.0928,-1.299899 -0.52305,-2.758096 0.3514,-3.907255 0.88903,-1.048129 1.93608,-2.294918 1.68465,-3.772896 -0.53799,-1.353019 -1.74579,0.900215 -2.58951,1.069185 -0.71008,0.692769 -3.22762,1.252201 -2.10891,2.52181 0.94437,1.761338 -1.96739,1.821808 -2.4505,0.40566 -0.79195,-0.48828 -0.33414,-2.636265 -1.27641,-2.300635 -1.15517,1.730798 -0.70133,3.94963 -0.2775,5.844088 0.38411,0.824789 1.37219,1.630522 0.007,2.176611 -0.92362,0.847409 -1.63346,1.901845 -2.6417,2.664954 -2.22338,2.148508 -4.93334,4.07967 -6.01049,7.113777 -0.69789,0.963289 -0.66984,2.82652 0.7984,1.609721 0.99543,-0.402379 1.8207,-1.80626 2.60346,-1.991609 0.21771,1.410828 -1.25793,2.250095 -2.24379,2.936254 -1.20297,0.69987 -2.45133,1.347198 -3.43183,2.361097 -1.57983,1.500628 -3.69106,2.36508 -5.09736,4.048848 -0.65025,0.60079 -1.30141,2.446031 0.26199,1.876371 1.26669,-0.213069 2.05598,-1.321551 3.0484,-2.016931 -0.26439,1.515539 -1.48977,2.963659 -3.11351,3.009119 -2.56622,0.23415 -5.26858,0.918717 -7.10499,2.848405 -1.15388,1.361338 -2.19589,2.818312 -3.37034,4.16512 -1.20567,1.730289 -1.71069,3.821081 -2.36213,5.799129 -0.36189,1.699369 -1.16,3.25971 -2.1363,4.681368 0.82728,0.53507 2.434,-0.607093 3.49023,-0.898653 1.82933,-0.839159 3.82593,-1.277962 5.84047,-1.176672 1.50352,0.006 3.00772,0.21316 4.47104,0.54467 1.05598,0.966369 -1.51404,0.509184 -2.09496,0.411344 -2.40829,-0.33726 -4.9391,-0.234681 -7.18406,0.781348 -2.22488,0.944009 -4.5323,1.759724 -6.93549,2.085144 -1.96324,0.194559 -3.97948,-0.157119 -5.79758,-0.905888 -1.14079,-0.61578 -2.15231,-1.483476 -3.28352,-2.142505 -1.54766,-0.645149 -3.12861,0.399351 -4.36666,1.25212 -1.0784,0.455619 -1.5221,1.651832 -1.58698,2.737301 -0.34651,1.184118 -1.37887,2.009401 -1.63091,3.238561 -0.35453,1.23846 0.30632,2.49503 0.42116,3.73362 0.54588,3.93755 0.30693,7.94189 -0.13177,11.87783 -0.13094,1.80118 -0.31039,3.60295 -0.44856,5.40019 0.16156,1.89272 1.60434,3.27215 2.66858,4.72064 0.66168,1.23196 2.48164,1.67622 2.9471,2.79156 -0.83422,0.24935 -2.80084,0.0438 -1.91719,1.49552 0.48683,1.15569 1.37327,2.20561 2.72955,1.526 0.86955,0.0915 1.86326,0.46542 1.90169,-0.78393 0.3465,-0.7269 2.49634,-1.50253 1.35754,-0.10852 -1.00216,0.43917 -1.00299,1.43443 -1.26917,2.26704 -0.6632,-0.013 -1.19546,-1.31954 -2.00557,-0.40772 -1.33256,0.82384 0.76737,1.58862 1.02526,2.4753 0.40142,0.7659 0.61439,1.68175 1.45935,2.08876 1.08222,-0.0768 2.2451,0.10887 3.26853,-0.31419 1.51048,-0.63395 1.64324,-2.41195 2.39107,-3.66696 0.55307,-1.18188 1.03644,-2.43768 0.76688,-3.76463 -0.20973,-1.29598 0.0142,-2.67215 -0.40205,-3.92431 -0.79757,-0.32573 -2.24478,-0.85972 -2.84788,-0.5457 0.30401,1.35692 -1.65175,2.53297 -0.1354,3.56981 1.59351,-0.53211 1.30471,1.4284 1.42731,2.42 0.42317,0.99124 -1.9434,2.03259 -1.48828,0.53175 -0.94915,0.52614 -1.79698,-0.30998 -1.13844,-1.26659 0.21955,-0.86391 -0.43818,-1.57038 -0.64957,-2.38435 -0.58393,-0.24105 -1.49411,-0.86852 -0.37724,-1.1529 1.27692,-0.34536 0.82649,-2.1148 1.99316,-2.60294 -0.0104,-1.2618 -1.01691,-2.46864 -2.32389,-2.48977 -0.82773,0.0493 -1.60186,-0.51058 -0.52451,-1.04335 1.05838,-0.71622 3.00584,-0.62624 2.86132,-2.41535 0.0145,-1.26442 0.58948,-2.4153 0.81391,-3.63234 0.087,-1.80602 -1.89466,-0.44999 -2.39831,0.34675 -0.62284,0.99219 -2.54075,1.57052 -3.00188,0.17415 0.82066,-0.75721 1.60854,-1.69646 1.47226,-2.93161 0.21571,-1.29819 -0.33737,-2.58577 -1.53634,-3.17086 -0.50207,-0.74402 -1.09489,-0.62076 -0.7829,0.30437 0.29076,1.39007 -0.54512,2.69029 -0.22789,4.09536 0.16999,1.44716 -0.75035,2.81648 -0.33538,4.2385 -0.0353,1.0264 0.40903,2.88349 -0.71727,3.329 -0.0598,-1.1905 0.29974,-2.31216 -0.16175,-3.48144 -0.30986,-1.07845 0.90415,-2.37149 -0.19223,-3.175 -0.43705,-0.38615 0.0237,-1.10677 -0.13488,-1.62213 -0.514,-0.96927 0.80695,-1.69359 0.0227,-2.55591 0.62476,-0.33517 1.56136,-0.95449 0.50953,-1.47485 0.72239,-1.07949 0.59326,-2.54142 1.59887,-3.46542 0.86172,-1.06448 1.49062,-2.27895 2.23345,-3.4184 0.009,-0.89378 2.08661,-2.57609 1.84278,-0.83664 0.0457,1.03109 -1.14492,2.17063 -0.77204,2.94246 1.34565,0.4609 2.77047,0.71966 4.04471,1.39164 1.87481,0.87253 3.51587,2.25994 5.59191,2.66909 2.499,0.71439 5.17052,0.21001 7.63933,1.06919 1.33949,0.63859 2.53926,-0.26874 3.36103,-1.25987 1.35204,-1.13586 3.45571,-0.7694 4.69119,-2.12804 0.66261,-0.34628 1.75207,-2.62144 2.07326,-0.97823 -0.506,1.81324 -2.34575,2.84234 -4.08606,3.19101 -1.08442,0.14763 -2.83891,0.94065 -2.46652,2.19832 0.51632,-0.45242 1.91717,-1.46522 1.67432,0.0186 -0.71379,1.40244 1.02546,-0.6595 1.15084,0.72967 -0.36233,1.36298 1.56395,-0.65862 1.27744,0.81184 0.069,0.71394 -1.59788,1.72603 -0.91003,1.99678 0.82831,-0.10922 2.08316,-1.98863 2.5306,-0.72657 -0.92263,1.04584 -2.26078,1.97618 -3.70623,1.90944 -0.61542,-0.28954 -2.84373,-0.64137 -1.49242,-1.50171 0.45707,-0.14863 2.06283,-1.266 0.71055,-0.6563 -1.11705,0.92628 -2.26945,-0.24281 -1.28674,-1.07331 -1.39571,0.24614 -1.92821,-1.37782 -3.18172,-1.58492 -1.17722,-0.29946 -2.44111,-0.73043 -3.64991,-0.45114 1.0091,1.38527 2.41357,2.46092 3.69797,3.59513 2.11897,1.86388 4.599,3.26962 7.25434,4.21215 4.69644,1.85557 9.87355,2.32296 14.86214,1.65623 1.695,-0.10516 3.3996,-0.52134 5.09581,-0.29972 1.13401,-0.10223 1.64518,1.39465 0.26665,1.38647 -0.97604,0.93417 -2.18219,-0.51836 -3.24063,0.0103 0.3018,0.8066 1.41525,2.24098 -0.13126,2.6603 -1.72833,0.42223 -1.54269,-2.05083 -2.84892,-2.32595 -0.36163,0.80603 0.57451,2.25331 1.07849,3.06958 0.89284,1.02018 2.35628,0.28109 2.95176,-0.67076 1.30731,-0.92609 3.05219,-0.94702 4.58576,-0.77773 1.39474,0.12339 2.18477,1.39932 2.82464,2.48253 0.72407,0.5448 0.0951,2.81838 1.20509,2.3828 0.43015,-1.64603 1.11754,-3.24197 1.2361,-4.95525 -0.52588,-0.5158 -1.35883,-1.17047 -0.73225,-1.95492 0.42944,-1.12479 -0.88582,-2.54297 -1.76165,-1.16944 -0.61288,1.22229 -1.51208,0.29436 -1.54978,-0.63303 -1.31967,0.0371 -2.46914,-0.48484 -3.77134,-0.63666 -1.17126,0.43936 -2.10399,-0.76612 -1.12758,-1.6769 0.12552,-0.77205 1.44337,-1.85685 1.31981,-0.39171 -0.74915,1.86714 1.44685,-1.32564 1.73478,0.19482 -0.63881,0.7815 0.0298,2.18691 0.97048,1.18598 0.53744,-1.05694 1.45521,-0.74152 1.74563,0.2713 0.68187,0.95279 1.51535,-1.15063 2.36162,0.0512 0.79467,0.9536 1.98014,1.60945 2.53989,2.74453 0.0957,1.15048 -0.9268,2.07077 -0.81442,3.28921 -0.52312,1.77712 -0.96683,3.57805 -1.39319,5.37848 -0.41691,1.39802 -1.46652,2.47848 -2.02159,3.79202 -0.18423,1.24156 0.0132,2.52407 0.25477,3.74551 0.88258,0.85996 1.90944,1.59617 2.24844,2.91145 0.95103,0.78515 1.24138,1.88484 1.74563,2.95072 0.94982,1.44748 1.94101,2.9849 3.42977,3.93103 0.99436,0.78556 2.28122,0.56227 3.32382,1.12241 1.25142,0.75581 2.26279,2.02891 2.40761,3.51038 0.14702,1.43469 -0.98685,2.54056 -1.61592,3.71915 -1.51546,2.9209 -4.40252,4.73299 -6.25802,7.39645 -0.86069,1.30254 -2.31012,1.94292 -3.69848,2.51148 -1.27183,0.59842 -2.5548,1.43798 -3.00137,2.8515 -0.41286,1.25406 -0.80935,2.66323 -1.91564,3.49901 -0.87823,0.8664 -2.73597,0.92985 -3.04478,2.21227 0.51205,0.307 1.61915,0.29311 0.80925,1.15083 -0.85508,0.84543 -1.17557,2.00506 -1.42937,3.14296 -0.20604,1.2034 -0.75126,2.53228 -0.22376,3.70572 0.7456,0.47088 1.74629,0.039 2.55437,-0.002 2.31946,-0.29133 4.52675,-1.0956 6.75824,-1.74976 1.67287,-0.32301 1.57513,-2.06006 1.42214,-3.35328 0.61361,-1.04745 -0.34762,-1.77639 -1.20096,-0.98754 0.5338,0.90039 -0.37909,2.44241 -1.33325,1.37924 -1.01637,-0.10085 -2.07999,-1.37022 -2.82309,-0.0393 -1.13893,0.79309 -2.77741,-0.50097 -2.39106,-1.81384 -0.18336,-1.35621 0.63706,-2.57766 2.05155,-2.71095 -0.30383,1.12799 -1.12848,2.42261 -0.49506,3.5817 0.47566,0.2084 1.42523,0.0162 1.62367,-0.50695 0.2113,-0.68081 0.81716,-2.06391 1.48777,-1.73064 -0.79071,1.03342 0.54468,1.81172 0.88108,2.45463 8.8e-4,-2.6e-4 0.002,-2.6e-4 0.003,-5.2e-4 0.0122,-0.003 0.0218,-0.011 0.0336,-0.015 -0.12863,-1.61161 1.80585,-1.53163 2.81637,-2.14147 1.34503,-0.26143 1.42325,-1.39192 0.81597,-2.41174 -0.35417,-1.09044 -0.64125,-2.84988 0.59273,-3.46904 0.96578,0.97195 -0.0536,2.37425 0.6103,3.47266 0.58133,0.74836 0.51723,2.48155 1.33687,2.67529 0.91969,-1.00941 0.41266,-2.42036 0.28473,-3.60702 -0.18602,-0.82528 0.80952,-2.20953 0.87127,-0.65215 0.43576,1.29477 1.34428,2.43475 1.34359,3.85713 0.11403,0.6873 -0.43882,2.31432 0.82837,1.5291 1.28611,-0.57649 1.95202,-2.09127 1.50275,-3.4277 -0.28831,-1.35816 -1.1133,-2.55845 -1.21543,-3.97185 -0.38783,-1.65374 0.28704,-3.31084 1.15187,-4.69428 0.46965,-0.7866 1.33548,-0.41725 0.78858,0.40101 -0.39285,1.54012 -1.23746,3.20334 -0.60255,4.7842 0.8715,-0.3426 1.40999,-1.59814 2.11977,-2.30839 1.01013,-1.20957 0.97169,-2.98995 2.19728,-4.05091 1.16633,-0.58633 0.3766,-2.95678 1.73116,-2.92024 0.38224,0.79018 -0.10834,3.13462 1.44074,2.04949 1.05189,-0.81489 0.89453,-2.37913 1.80713,-3.32641 0.64957,-0.99032 1.44204,-1.94593 1.55907,-3.1719 0.49406,-1.51515 2.54435,-1.90024 2.75436,-3.55121 0.21529,-1.48736 -1.42503,-2.27085 -1.84278,-3.55895 -0.24781,-1.25331 -0.79742,-2.4915 -2.06241,-2.9993 -1.30113,-0.80272 -1.37163,-2.48511 -1.41335,-3.85093 0.1233,-1.51706 1.52894,-2.45511 2.49752,-3.47317 1.95535,-1.83071 4.15708,-3.43963 5.68751,-5.67511 1.5764,-2.31767 3.68454,-4.57965 3.86436,-7.51892 -0.0815,-1.76871 -0.48508,-3.54109 -0.26871,-5.31699 0.89931,-1.27074 1.31948,1.10532 1.33893,1.83038 0.34273,1.53523 1.52376,2.89216 3.12539,3.14193 1.21798,0.33935 2.79223,0.27105 3.47938,1.55081 0.44568,1.24314 -0.79864,2.2352 -1.63453,2.94659 -1.32558,0.46639 -1.57106,2.76905 0.25322,2.31924 0.984,-0.15617 2.47303,-0.43289 1.78283,-1.7508 0.15428,-1.42496 1.61893,-2.13498 2.1239,-3.41064 0.93359,-1.36964 -0.5186,-2.34601 -1.57096,-2.93626 -0.88004,-0.40966 -1.99643,-1.19741 -0.53898,-1.70791 0.44798,-0.32257 0.46721,-0.80469 0.40927,-1.30638 -0.35095,-1.25714 1.12258,-1.62665 1.61748,-2.54041 0.40874,-0.49813 0.72452,-2.37246 1.13584,-0.88987 0.27501,1.1989 -0.77892,2.24856 -0.8878,3.22461 0.45973,-0.0879 1.0944,-0.80574 0.65991,0.18604 -0.30858,0.67309 -1.68351,2.1045 -0.0868,2.02313 1.60733,-0.38435 2.69923,-1.95893 2.74867,-3.57808 0.26627,-1.73059 -0.14982,-3.51667 0.30179,-5.21777 0.18659,-0.97251 2.4731,-2.31473 1.03508,-2.98948 -1.44144,-0.38064 -2.36148,1.08354 -3.68298,1.19114 -1.68568,-0.5426 0.21102,-1.46277 1.00408,-1.7787 1.09369,-0.7528 1.51088,-2.09117 2.28771,-3.1166 0.96173,-1.81451 0.79803,-3.98469 0.45475,-5.94279 -0.24811,-1.444178 -0.56121,-2.953065 -1.32808,-4.216283 -1.22295,-1.622099 -2.95388,-2.701426 -4.56458,-3.885034 -1.41275,-1.084759 -2.40957,-2.762845 -2.32751,-4.583183 -0.2146,-1.231129 0.63826,-2.233807 0.90383,-3.365686 -0.34351,-1.172259 -1.49311,-1.907125 -2.41019,-2.629814 -1.57147,-1.132049 -3.76171,-1.93778 -4.2814,-4.009057 -0.28859,-1.132069 -0.24492,-2.543377 0.82941,-3.260267 0.39403,-0.710759 2.75838,-0.256155 1.23817,-1.203544 -1.5446,-0.527099 -2.69832,1.083035 -3.18585,2.344043 -0.76929,1.117169 0.38018,2.447908 -0.31265,3.491777 -0.9071,0.911209 -1.95065,2.02846 -1.66243,3.435449 0.31995,1.244829 1.36191,2.217286 1.25367,3.607015 0.12107,1.375029 1.98483,1.951336 1.82108,3.375505 -0.96469,-0.41114 -1.15063,-2.098806 -2.27531,-2.634465 -1.36846,-0.943689 -2.93935,-1.723496 -3.80804,-3.214274 -0.62875,-0.985979 -1.28633,-1.95583 -1.88671,-2.956409 -0.54766,-1.290498 -0.21032,-2.712862 0.18242,-3.992521 0.141,-1.246069 0.31106,-2.530119 1.1591,-3.533118 1.49585,-2.141767 2.92818,-4.369287 4.9196,-6.095235 2.22829,-2.303907 4.52844,-4.664306 5.80637,-7.655863 0.71601,-1.559849 0.92216,-3.297728 1.23299,-4.970756 0.44258,-2.743538 -0.63812,-5.705421 -2.90008,-7.36906 -1.68665,-1.44102 -3.67993,-2.94116 -5.98516,-2.902665 z m -56.24153,2.005563 c 0.1667,0.01014 0.44642,0.871577 -0.0946,0.35605 -0.004,-0.268374 0.039,-0.359431 0.0946,-0.35605 z m 35.83347,0.595312 c -0.2324,-8.07e-4 0.0391,0.63109 0.41496,0.271818 -0.20437,-0.20103 -0.33749,-0.271549 -0.41496,-0.271818 z m -3.56309,1.379761 c 0.35925,0.04187 0.64024,0.302677 0.0527,0.671277 -0.17566,0.10044 -0.4121,0.09889 -0.57516,-0.02791 -0.27437,-0.507989 0.1632,-0.685244 0.52245,-0.643371 z m -34.03978,1.137915 c 0.27824,0.02146 0.88039,0.478553 0.50591,0.765328 l -0.17415,-0.05736 -0.20154,-0.145211 c -0.34727,-0.431647 -0.29716,-0.575633 -0.13022,-0.562757 z m 27.712,0.926042 c -0.21024,0.810149 -0.75396,1.502673 -1.03766,2.270662 -0.0614,1.272649 0.31508,2.747584 -0.68368,3.752743 0.24738,0.917459 1.63209,-1.042938 1.28313,-1.747697 -0.11645,-0.74184 -0.28837,-2.976586 0.9219,-1.819528 0.008,1.135299 0.1828,2.375364 -0.23357,3.471623 -0.49457,1.232429 -1.67993,1.783959 -2.86443,2.162659 -1.43235,0.853219 -3.03642,1.313874 -4.61832,1.799373 -1.24042,0.51494 -2.4232,1.421466 -3.02359,2.636015 -0.34283,1.009269 -0.21006,2.764001 1.24902,2.563151 0.81808,0.453204 -0.8929,1.232996 -1.35806,0.82889 h -5.1e-4 c -1.35504,-0.873025 -1.37958,-2.843565 -0.81804,-4.193026 1.04252,-1.736238 2.99564,-2.663335 4.90668,-3.097485 1.83951,-0.612639 3.52505,-1.981698 4.3124,-3.755326 0.0112,-1.083589 -0.25517,-2.210514 0.0661,-3.259233 0.29883,-0.777629 1.25554,-1.439632 1.89859,-1.612821 z m -21.76508,0.07131 c 0.89235,1.152809 -0.32186,2.61817 0.4129,3.890719 0.3853,1.043359 0.24978,2.305373 -0.43977,3.188952 -0.20694,0.17135 -0.56795,0.361485 -0.8201,0.165365 0.15651,-1.309259 0.62602,-2.695389 0.74,-4.063318 0.0636,-0.918379 0.0973,-2.514985 -0.78445,-2.107365 0.44471,-0.25084 0.68937,-0.833213 0.89142,-1.074353 z m -6.30659,0.142627 c 0.22785,0.04924 0.33236,0.675539 -0.29972,0.590145 l -0.03,-0.178801 c 0.028,-0.09732 0.0595,-0.168229 0.0915,-0.228409 -0.006,-0.05964 -0.003,-0.111154 0.061,-0.107487 0.003,1.52e-4 0.006,0.0012 0.009,0.0016 0.0576,-0.06409 0.11599,-0.08823 0.16795,-0.077 z m 35.92907,1.797306 c 0.13227,-0.02826 0.30795,0.07166 0.53692,0.37052 0.26157,1.202729 0.89397,2.381079 1.00873,3.619418 -0.16884,0.601129 -0.85613,1.714835 -1.60352,1.267106 -1.0813,-0.888019 0.57883,-2.307141 -0.21808,-3.453019 -0.12619,-0.481117 -0.12084,-1.719246 0.27595,-1.804025 z M 579.16465,52.6526 c 0.0875,0.0149 0.20699,0.174138 0.3576,0.556555 0.3909,1.234429 0.7924,2.442062 1.62212,3.459221 0.38511,0.838279 -0.17275,1.43827 -0.9648,0.780831 -1.50166,-0.40193 -0.55649,-2.100212 -0.90433,-3.158981 -0.34639,-0.427642 -0.37306,-1.682323 -0.11059,-1.637626 z m -1.93063,1.197343 c 0.0608,-0.02555 0.11903,0.104138 0.16588,0.483175 0.15802,0.13503 -0.49773,2.366015 -0.56069,1.407666 0.005,-0.339082 0.21249,-1.814182 0.39481,-1.890841 z m -10.08414,2.549198 c -0.0846,0.173765 -0.16902,0.347511 -0.25993,0.518315 0.036,-0.04864 0.0678,-0.100552 0.1049,-0.148311 0.0516,-0.122963 0.10312,-0.246872 0.15503,-0.370004 z m 42.34677,1.608688 c 0.14459,0.01533 0.19105,0.217757 0.008,0.660941 -0.79404,1.163309 -0.61005,2.500043 -0.73433,3.780131 -0.41922,0.49015 -1.00318,1.377781 -1.6986,1.341521 0.47178,-0.996519 1.29847,-2.485316 0.36897,-3.391525 -0.69285,-0.577039 1.19737,-1.288432 1.45831,-1.929081 0.20984,-0.305495 0.45278,-0.47732 0.59738,-0.461987 z m -37.88916,1.16737 c 1.28109,-0.0476 0.70518,2.252677 -0.4098,2.118217 -0.12033,1.067649 -0.96987,1.066296 -1.82211,0.736906 -1.52485,-0.0597 0.46195,2.990739 -1.37046,2.253609 -0.26985,-1.016289 -0.63997,-2.247452 -2.02985,-1.848982 -1.02446,0.368149 -1.97913,-1.459259 -0.4346,-0.98392 1.31737,0.31461 2.47871,-0.883794 3.80597,-0.412894 1.18074,0.10019 -0.7028,-1.863226 0.88315,-1.375627 0.67978,0.58651 1.18779,0.302961 1.3777,-0.487309 z m 35.62625,7.130315 c 0.83895,0.011 0.63342,2.073162 -0.0791,2.583304 -0.90506,0.79845 -0.8547,2.549474 -1.92546,2.965194 l -0.1385,-0.06666 c -0.2508,-0.955819 0.68353,-2.079187 -0.70021,-2.472717 0.57968,-1.021339 2.3425,-1.495392 2.41794,-2.87786 0.16405,-0.09266 0.30545,-0.13283 0.4253,-0.131258 z m -54.80596,1.179772 c -0.32882,0.0074 -0.65567,0.0309 -0.94723,0.03566 -1.1683,-0.0194 -2.41611,0.03031 -3.34347,0.844393 -1.72305,1.112909 -3.17342,2.594864 -4.91649,3.685563 -1.09255,0.756489 -1.94319,1.902581 -3.33778,2.10013 -1.80248,0.7931 -3.82645,0.590138 -5.68441,1.132748 -1.37955,0.429079 -2.01472,1.793346 -2.22157,3.113505 -0.31624,1.520788 -1.56116,2.555131 -2.84634,3.28197 -1.31557,0.961859 0.46486,1.479166 1.32189,1.072286 0.41658,1.102089 -2.07073,1.647567 -1.30793,3.116606 0.2066,1.523478 0.11364,3.080362 -0.38964,4.538741 -0.44208,0.772329 -0.26705,2.191229 0.87643,1.46606 1.57785,-0.657969 3.15019,-1.445347 4.48965,-2.485636 1.09319,-0.61249 2.68158,-1.068232 3.00188,-2.43551 -0.10675,-1.370329 0.64406,-2.489787 1.33119,-3.589445 0.77675,-0.41607 1.43255,-1.013548 0.71675,-1.902727 -0.52804,-1.250478 -0.19679,-2.740675 0.85059,-3.619934 1.03263,-0.788149 0.0663,1.317522 0.12919,1.825212 0.0496,1.471048 1.26331,2.535399 1.9234,3.764628 0.89668,0.728819 0.47831,2.168152 1.0449,2.863391 1.24105,-0.645119 1.7132,-2.245962 1.32395,-3.54707 -0.3382,-1.086039 -1.1854,-2.49951 -0.4868,-3.518649 0.13104,1.242369 0.86941,2.191536 1.77664,3.004985 1.60034,-0.33369 0.75724,-2.495014 0.66611,-3.645772 -0.14071,-1.337549 -0.0955,-3.175666 1.33739,-3.803386 0.68642,0.18988 -0.17196,1.320913 -0.21549,1.933732 -0.12101,0.81466 0.29959,1.660133 0.13384,2.494422 -0.28957,0.627889 0.26883,1.684111 0.53588,0.486792 0.28878,-1.394379 -0.38465,-3.107164 0.71985,-4.244702 0.8935,-1.083789 2.56775,-0.800954 2.21072,0.837675 -0.21796,0.369299 0.074,1.51882 -0.52865,1.381311 -1.16087,-0.0421 -1.06399,1.664256 -0.24701,2.113566 -0.25627,0.482679 -1.00714,1.918877 0.3514,2.014347 0.67807,0.4264 2.61459,-1.422126 2.01383,0.08423 -0.68195,1.471438 -0.74771,3.323622 0.23254,4.680851 1.39513,2.084378 3.34262,3.72733 4.74338,5.812048 0.25029,0.23334 0.67721,0.898491 1.05369,0.466122 0.63793,-1.053969 0.78835,-2.327614 1.156,-3.487643 -0.42313,-1.083209 -2.07356,-1.979667 -1.16479,-3.295406 0.38313,-0.978609 -0.59107,-0.705688 -0.43718,0.110071 0.0296,0.775319 -0.70021,1.525739 -0.94982,0.42633 -0.29303,0.44107 -0.96891,1.414971 -0.45371,0.271302 0.92685,-0.933159 -0.4212,-2.901483 1.18545,-3.187403 0.25706,0.884879 0.94281,1.791851 1.62523,2.44998 -0.26868,1.433459 1.50655,1.079211 1.4981,-0.180868 0.66312,-1.598118 2.19521,-2.613117 2.92643,-4.157885 -0.0965,-1.628579 -1.62217,-2.565987 -2.60449,-3.681946 -1.35024,-1.387789 -2.83721,-2.632978 -4.43384,-3.723287 -1.56355,-1.453319 -1.72605,-3.723862 -2.53834,-5.59294 -0.12984,-1.207544 -1.13487,-1.330495 -2.12132,-1.308448 z m 0.57619,0.941028 c 0.7354,-0.08756 1.87111,1.073867 0.64596,0.818555 -0.57183,-0.15346 -2.29274,0.35552 -1.0573,-0.525549 0.0931,-0.185959 0.24163,-0.272801 0.41134,-0.293006 z m 44.68926,0.604098 c 0.032,0.02025 -0.0274,0.158937 -0.24339,0.476456 -0.38418,1.132329 0.4132,2.383921 0.12092,3.59513 1.06125,0.584149 0.0923,2.265607 -0.7767,1.928048 -0.16251,-0.78412 0.57154,-2.050138 -0.76481,-2.225188 0.26823,-0.784199 1.1236,-1.426427 0.67128,-2.399336 -0.0214,-0.43191 0.89681,-1.435863 0.9927,-1.37511 z m -5.30717,0.744657 c 0.39196,-0.02681 1.19238,1.155833 0.40825,0.590662 -0.35451,-0.15708 -1.57632,-0.374191 -0.48059,-0.568441 0.0219,-0.01342 0.0462,-0.02043 0.0723,-0.02222 z m -46.6757,2.446879 c 0.10441,0.0229 0.0696,0.17909 -0.25632,0.552938 -0.6426,1.140109 -2.46934,0.432137 -2.9316,1.931665 -0.68497,0.991959 -2.21564,0.628267 -2.96778,1.564246 -0.52458,0.257399 -1.31157,0.530145 -1.86448,0.519865 0.8452,-0.73792 2.06887,-1.294592 3.15226,-1.754932 1.32108,-0.700759 2.52033,-1.607208 3.89072,-2.209168 0.24251,-0.31083 0.80318,-0.642781 0.9772,-0.604614 z m 74.73446,1.332735 c 0.21169,1.096039 -0.69001,2.34803 -0.66095,3.556889 -0.30498,1.684459 0.0795,3.38048 0.75655,4.927348 0.39727,0.57845 0.67311,1.761586 -0.51625,1.286226 -0.652,-1.168998 -1.07114,-2.500039 -1.28261,-3.820438 0.0603,-2.055388 0.10051,-4.432566 1.70326,-5.950025 z m -26.03717,1.035079 c 0.14547,-0.01644 0.1636,0.11247 -0.0589,0.516248 -0.0966,0.657839 -0.61149,0.977927 -1.23816,0.711068 -0.6159,-0.0229 -1.4811,-0.240809 -0.31833,-0.381889 0.3574,-0.06881 1.29537,-0.80926 1.61541,-0.845427 z m -17.33538,1.906344 c -0.0723,1.143729 -0.8532,2.357413 -1.98593,2.746602 -0.47859,0.1753 -1.02332,0.260277 -1.51515,0.08682 -1.10018,-0.4114 1.30842,-0.508662 1.5043,-1.098641 0.88803,-0.30743 1.27648,-1.453318 1.99678,-1.734778 z m 1.36529,0.110071 c 0.12103,-0.003 0.21516,0.162483 0.24908,0.614433 0.20977,0.889802 -1.16217,1.726806 -0.98133,2.260843 0.005,0.0016 0.01,0.0039 0.015,0.0052 0.77191,-0.883404 1.84286,-0.197778 2.62775,-0.978752 0.56181,0.62751 -0.0445,1.989132 -0.99271,1.702222 -0.91399,-0.406819 -1.97414,0.0272 -2.94762,-0.430981 -1.65508,-0.18421 0.98533,-1.198612 1.19063,-1.962671 0.17626,-0.38159 0.57295,-1.20363 0.83922,-1.210262 z m 10.26397,0.0894 c 0.0423,0.01784 0.0281,0.157622 -0.093,0.497644 -0.0784,0.987849 1.71941,1.689962 0.31109,2.492871 -0.20724,0.0493 -0.19623,0.629138 -0.44339,0.447518 0.15099,-0.906709 -0.3177,-1.824658 -0.33589,-2.611727 0.10208,-0.313878 0.46821,-0.86555 0.5612,-0.826306 z m 32.97835,0.537952 c 0.0787,0.0104 0.10475,0.194171 0.0124,0.665592 -0.11167,1.572869 -0.25468,3.218618 0.36896,4.710307 0.0957,0.18893 0.13827,0.851409 -0.23822,0.40411 -0.66821,-1.399819 -1.15654,-2.989714 -0.74621,-4.544943 -6.9e-4,-0.441065 0.42987,-1.257951 0.60306,-1.235066 z m -19.74711,3.254581 c 0.14866,0.0179 0.21483,0.222425 0.0755,0.734839 -0.11462,1.165859 -0.0566,2.828735 -1.4702,3.196704 -1.45912,0.18364 -2.97484,0.249701 -4.31653,0.935861 -0.27679,0.0994 -0.58654,0.268268 -0.88625,0.150378 0.11697,-1.277489 2.37595,-1.454083 3.50159,-1.671733 1.58312,0.35206 2.11617,-1.201129 2.23553,-2.442228 0.13588,-0.445099 0.61264,-0.933651 0.86041,-0.903821 z m -9.20254,0.01344 c -0.62031,-0.05803 -1.42988,0.120519 -1.41128,0.712618 0.48791,0.32317 1.16365,0.145936 1.68723,-0.0057 0.77544,-0.353995 0.34435,-0.648908 -0.27595,-0.706934 z m -37.10885,0.0863 c 0.0513,0.01481 0.081,0.154343 0.0398,0.491443 -0.007,0.10687 0.20654,0.799747 -0.16588,0.445967 -0.20423,-0.398962 0.0132,-0.969995 0.12609,-0.93741 z m 0.54881,1.717208 c 0.1844,-0.02863 0.39199,0.118022 0.54622,0.56689 0.3487,0.42811 -0.0181,1.357708 -0.60979,0.819588 -0.6352,-0.411537 -0.34213,-1.323483 0.0636,-1.386478 z m 67.49458,0.564306 c 0.26515,-0.02361 1.02434,1.368249 1.35134,1.600936 0.42305,1.029119 2.45182,1.244 2.2965,2.319239 -0.14951,0.193659 -0.38321,0.303036 -0.6134,0.157096 -1.37487,-0.728509 -2.96424,-1.784731 -3.10058,-3.486609 -0.0557,-0.417825 -0.0222,-0.58279 0.0661,-0.590662 z m -87.47993,0.08475 c 0.22427,0.02834 0.3444,0.302549 0.17519,0.891418 -0.14627,0.666479 -0.75892,1.540951 -1.53221,1.453141 -1.69482,0.0484 -0.65148,-2.104012 0.55707,-1.761132 0.2475,-0.39415 0.57569,-0.611765 0.79995,-0.583427 z m -3.40186,0.378271 c 0.1431,-0.0042 0.27423,-0.0012 0.38551,0.0072 0.80213,1.006109 -1.37182,1.171724 -1.92856,1.586983 l -0.20516,-0.07648 c -0.82329,-1.119395 0.74652,-1.488119 1.74821,-1.517737 z m 83.1479,0.584977 c 0.0175,0.0239 0.036,0.04706 0.0537,0.0708 -0.008,-0.01359 -0.0114,-0.02369 -0.0196,-0.03772 -0.0121,-0.01049 -0.0221,-0.02247 -0.0341,-0.03307 z m -58.04452,4.79454 c 0.18413,0.01606 0.55341,0.697177 -0.0294,0.532267 -0.0995,-0.409287 -0.0542,-0.539569 0.0294,-0.532267 z m 39.84046,1.484664 c 0.27819,0.646029 1.69994,2.277981 0.70952,2.50889 l -0.0863,-0.163814 c -0.42964,-0.506859 -1.48366,-2.198366 -0.62322,-2.345076 z m 26.56427,0.828373 c 0.39406,0.02823 0.92289,0.346924 1.10536,0.802018 0.7244,1.025729 2.47714,0.568256 2.65979,2.137854 1.02986,1.091289 -0.10211,0.577625 -0.83768,0.641305 -1.54955,0.0868 -2.55832,-1.444134 -3.22254,-2.641183 -0.35794,-0.706024 -0.099,-0.968227 0.29507,-0.939994 z m -33.79173,0.109037 c 0.40118,-0.01116 1.57661,0.798245 0.24133,0.687297 -0.44615,-0.507737 -0.42369,-0.682225 -0.24133,-0.687297 z m -1.57252,0.475423 c 0.50108,-0.02595 1.13194,0.174963 0.7674,0.700733 -0.24673,0.0804 -0.51338,0.01831 -0.75706,-0.03979 -0.88295,-0.381985 -0.51141,-0.634995 -0.0103,-0.660942 z m 48.80064,0.0217 c 0.10155,0.01432 0.25016,0.09941 0.45579,0.284221 1.10869,0.778479 2.58504,0.732188 3.67884,1.450557 0.41899,0.228219 1.03068,1.824479 0,0.927075 h -5.1e-4 c -1.0258,-0.840368 -2.59612,-0.288413 -3.5724,-1.258837 -0.55458,-0.201703 -1.00178,-1.465057 -0.56172,-1.403016 z m -38.14909,0.504362 c 1.28409,0.22128 1.56334,1.844997 2.48977,2.605526 0.22329,0.783669 1.5263,1.410944 1.57561,1.816944 l -0.25321,-0.09974 c -0.69756,-0.0166 -0.85036,-0.332331 -0.99891,-0.89917 -0.67024,-0.0556 -0.82624,1.15142 -0.9281,-0.02894 -0.0379,-0.743319 -0.81108,-1.161298 -1.04594,-0.242879 -0.40068,-0.522609 0.34767,-2.690175 -0.81545,-1.602486 -0.34024,0.0455 0.20724,-1.17758 -0.0238,-1.54926 z m 28.54399,0.05891 c 1.13265,0.423459 1.99864,1.315563 2.84582,2.128552 0.79228,0.637459 2.94717,0.960571 2.83187,1.95957 l -0.15348,-0.04134 -0.20825,-0.06821 c -1.16605,-0.16282 -2.3586,-0.415901 -3.21841,-1.30793 -0.89355,-0.65992 -1.88763,-1.639929 -2.09755,-2.670638 z m -41.88116,0.252697 c 0.1056,-0.0093 0.25175,0.01996 0.4439,0.104903 0.64033,-0.164219 2.47843,0.743007 0.94051,0.843877 -0.30978,0.004 -0.62264,-0.01395 -0.92449,-0.08785 -0.61431,-0.05939 -0.91752,-0.820665 -0.45992,-0.86093 z m -8.33076,3.425114 c 0.14873,-0.01116 0.31137,0.01522 0.48731,0.08785 0.4913,0.47993 -0.92038,0.987919 -0.63407,1.720309 0.0354,0.428129 -0.10133,1.606459 -0.76481,1.020609 -0.49177,-0.829473 -0.12955,-2.750638 0.91157,-2.828768 z m 66.58095,0.653707 c 0.41257,0.02804 1.46302,1.015223 1.61592,1.42782 0.97026,2.158071 1.23463,4.618841 0.8537,6.945831 0.1148,0.17131 -1.04098,2.02197 -0.79944,1.10639 0.72375,-1.87951 0.12596,-3.89501 -0.19688,-5.79241 -0.26618,-1.229375 -0.83163,-2.363623 -1.61644,-3.339332 -0.0611,-0.260552 0.006,-0.357644 0.14314,-0.348299 z m -97.06178,1.384928 c 0.15817,0.01238 0.24497,0.194581 0.0538,0.637171 -0.0367,0.14665 -0.32947,0.660798 -0.48679,0.294039 -0.29317,-0.501187 0.16944,-0.951838 0.43304,-0.93121 z m 91.63059,0.273886 c 1.27608,0.03263 2.22891,1.28674 2.80654,2.320787 0.67003,1.29117 0.80559,2.82632 0.58808,4.24781 -0.0582,0.35055 -0.51213,0.47772 -0.74207,0.19482 -0.40428,-1.26998 -0.13511,-2.73869 -0.85421,-3.95118 -0.22051,-1.170921 -1.9322,-2.01724 -2.05776,-2.802419 0.0879,-0.0091 0.17435,-0.01199 0.25942,-0.0098 z m 3.49177,0.654223 c 0.12822,0.02232 0.27667,0.184353 0.39274,0.535885 1.12946,1.573289 1.36233,3.729869 0.87282,5.578469 -0.27754,0.58709 -0.38373,1.79589 -1.08417,1.94769 -0.22609,-1.17175 0.47942,-2.36519 0.44183,-3.57859 0.2817,-1.31628 -0.45162,-2.47548 -0.84646,-3.664899 -0.14713,-0.505106 0.01,-0.855751 0.22324,-0.818555 z m -6.72207,0.773596 c 1.33129,0.25855 2.65262,0.987838 3.33262,2.210718 0.39412,0.86714 1.83232,2.47618 0.87281,3.21118 -0.15756,0.0265 -0.33451,-0.0141 -0.44442,-0.13695 -0.75358,-0.98055 -0.81055,-2.30289 -1.6769,-3.15794 -0.4918,-0.83124 -1.87653,-1.40575 -2.08411,-2.127008 z m -66.5241,0.488858 c 0.26648,0.0257 0.50419,0.23344 0.70642,0.77928 1.03587,-0.10027 2.09357,0.74712 2.63394,1.2113 -1.20013,0.82298 -2.49408,-0.41776 -3.68711,0.11886 -0.86414,1.06868 -2.33239,0.11576 -3.37654,0.79891 -0.78438,0.37017 -1.66891,0.43056 -2.51354,0.26769 -1.99383,-0.26586 -4.09637,-0.26071 -5.92419,-1.21233 -1.86593,-0.4975 0.74546,-1.10896 1.50741,-0.68213 1.72204,0.0319 3.36475,0.85768 5.08806,0.70797 1.11398,-0.50572 2.25546,-0.94166 3.46697,-1.17099 0.78771,-0.0497 1.51232,-0.8752 2.09858,-0.81856 z m 74.92514,0.0982 c 0.84223,0.41547 1.16468,1.76948 1.30276,2.72231 0.0416,1.56721 -0.0736,3.19222 -0.6227,4.66949 -0.32901,0.5089 -1.16131,1.59092 -1.83089,1.14515 0.22673,-1.26079 1.34419,-2.18646 1.54771,-3.48041 0.5127,-1.69414 -0.1576,-3.39372 -0.39688,-5.05654 z m -103.67429,4.46949 c 0.10829,-0.0252 0.2705,0.0687 0.48989,0.35812 0.82678,0.15849 0.92551,1.5269 -0.0941,1.02371 -0.55995,-0.15791 -0.7207,-1.30617 -0.39584,-1.38183 z m 12.92944,2.54558 c 0.24138,0.11855 0.48158,0.23948 0.72141,0.36174 -0.23517,-0.13447 -0.47534,-0.25588 -0.72141,-0.36174 z m 22.62601,0.57 c 0.0579,-0.01 0.0797,0.0269 0.0475,0.1297 -0.50217,0.77422 0.14876,2.50452 -0.92862,2.56987 l -5.2e-4,-0.13332 0.0124,-0.16278 c 0.30071,-0.94202 -1.5242,-0.18835 -0.48627,-1.1467 0.17374,-0.28622 1.1045,-1.21335 1.35547,-1.25677 z m 24.76955,0.0264 c 1.04881,0.5304 0.39648,2.09152 0.18707,2.98483 -0.70293,1.91244 -2.13759,3.58926 -3.99976,4.44004 -0.1295,0.0382 -0.32646,0.0679 -0.41341,-0.0729 0.84891,-1.04487 2.11334,-1.86863 2.74092,-3.13005 0.73769,-1.31411 1.03565,-2.82066 1.48518,-4.22196 z m -2.39314,0.19379 c 0.92198,0.74761 0.19899,2.23177 -0.14056,3.16259 -0.6371,1.35245 -1.55074,2.60961 -2.75538,3.5078 -0.093,0.0709 -0.27644,0.1298 -0.37311,0.0248 0.37858,-1.10106 1.70511,-1.98863 2.15646,-3.19774 0.82035,-0.98895 0.39926,-2.7821 1.11259,-3.49746 z m 4.25762,0.37517 c 0.5637,0.0359 0.18926,1.76777 0.0507,2.31355 -0.42798,1.97713 -1.81958,3.64528 -3.50987,4.69532 -0.0833,0.0192 -0.30261,0.16122 -0.39429,0.0315 0.62704,-0.99079 1.6156,-1.75433 2.11822,-2.84996 0.77384,-1.28639 1.27156,-2.71843 1.60972,-4.17442 0.0463,-0.0135 0.088,-0.0184 0.12557,-0.016 z m 1.53376,0.50178 c 0.84118,0.46416 -0.058,2.1991 -0.32711,3.08818 -0.64173,1.49306 -1.54062,2.88711 -2.59622,4.11861 -0.15652,0.13782 -0.44954,0.26107 -0.61082,0.0558 0.053,-1.01916 1.21058,-1.68228 1.74563,-2.52284 0.89285,-1.43871 1.47672,-3.08513 1.78852,-4.73976 z m 1.74511,0.43098 c 0.32979,1.08229 -0.31705,2.27708 -0.64957,3.33261 -0.557,1.15513 -1.07226,2.47156 -2.1518,3.23598 l -0.15142,-0.005 -0.14831,-0.10594 c 0.15054,-1.24267 1.61347,-2.12217 1.91926,-3.43028 0.55369,-0.89936 0.41353,-2.45555 1.18184,-3.02772 z m -8.9364,0.11834 c 0.28225,0.0431 0.14905,1.264 -0.17312,1.63194 -0.38989,0.86445 -0.95344,2.22288 -2.12648,2.0221 0.68342,-1.02727 1.46278,-2.03231 1.87068,-3.22926 0.19476,-0.32259 0.33484,-0.43915 0.42892,-0.42478 z m -1.11983,0.47955 c -0.29891,0.71825 -0.79272,1.97233 -1.59473,2.06861 0.45701,-0.61614 0.95237,-2.03352 1.59473,-2.06861 z m 11.44065,2.59726 c 0.0984,-0.006 0.20606,0.0241 0.32659,0.0987 -0.13939,0.82996 -0.11338,1.8172 -0.50384,2.48306 -0.21089,0.14413 -0.51113,0.36671 -0.77722,0.23822 -0.54908,-0.0531 -2.00899,-0.30015 -0.81597,-0.80666 0.85692,-0.19936 1.08167,-1.97295 1.77044,-2.01332 z M 576.617,114.4788 c 0.26517,-0.026 0.4198,0.15761 0.14573,0.68626 -0.42615,0.89518 -1.49872,1.58165 -2.49856,1.36168 -1.29277,-0.32145 1.24836,-0.87177 1.54409,-1.47743 0.16792,-0.30944 0.54357,-0.54456 0.80874,-0.57051 z m 16.08274,0.39222 c 1.02078,0.83765 -0.40029,2.36272 -1.05317,3.08199 -0.17069,0.0683 -0.49057,0.28451 -0.65732,0.10645 0.94337,-0.82573 0.75375,-2.63415 1.71049,-3.18844 z m -1.99006,0.15193 c 1.16223,-0.13677 0.41407,2.13017 -0.2713,2.68459 -0.25106,0.391 -0.7311,0.65359 -1.18236,0.42065 -0.006,-0.97774 1.30259,-1.94303 1.45366,-3.10524 z m -1.32963,0.10026 c 0.13609,0.0287 0.26597,0.19195 0.38602,0.56637 -0.12619,1.17798 -1.18295,2.62357 -2.41277,2.7311 -0.58466,-0.66333 -2.68049,-0.32216 -1.26504,-1.44487 0.61041,-0.63747 1.64266,-2.21599 1.98489,-0.54519 0.43309,-0.26792 0.8986,-1.3934 1.3069,-1.30741 z m -11.24325,0.18913 c 0.14896,0.005 0.29143,0.0757 0.4222,0.23616 -0.32313,0.77452 -1.53247,1.72072 -2.38642,1.28106 0.54437,-0.34516 1.31875,-1.54025 1.96422,-1.51722 z m 7.52409,0.41135 c 0.53856,1.11367 -1.06477,2.56888 -2.11873,2.51147 -0.57801,-1.48407 -2.38148,-0.76616 -3.5481,-1.10277 0.45656,-1.49642 2.4607,-0.32435 3.5574,-0.91106 0.74414,1.22246 1.3823,-0.25773 2.10943,-0.49764 z m -6.23941,0.59944 c 0.19052,0.008 0.25157,0.15946 -0.0269,0.53537 -0.26787,0.23027 -0.69113,0.43721 -1.03353,0.24443 0.0653,-0.40779 0.74288,-0.79311 1.0604,-0.7798 z m 50.91472,0.13694 c 0.50521,0.1313 0.29238,2.00083 -0.32349,2.31563 -1.35528,1.52324 -2.90557,3.01257 -4.88601,3.65559 -0.10433,0.0168 -0.23548,0.0323 -0.32091,-0.0486 0.15071,-1.11195 1.80907,-1.33331 2.52233,-2.16369 1.16431,-0.90463 2.11876,-2.10486 2.53938,-3.53157 0.19688,-0.19527 0.35212,-0.25767 0.4687,-0.22738 z m 0.0729,3.21945 c 0.9695,0.42674 -0.88372,1.71464 -1.34618,2.26704 -1.07037,0.88999 -2.23906,1.6757 -3.49539,2.27066 l -0.23771,0.0403 -0.19689,-0.0279 c -0.74161,-0.92459 1.62815,-1.40774 2.18178,-2.05414 1.13863,-0.69325 2.09887,-1.62304 3.09439,-2.49597 z m -15.13603,1.53375 c 0.21819,-0.0378 0.45374,0.0921 0.71158,0.48835 0.0284,1.45026 -1.53766,2.38111 -1.51412,3.85609 0.0639,1.41561 -0.90399,2.44761 -1.63401,3.5357 -0.26569,0.5241 -0.55489,1.60337 -1.36374,1.30948 -1.10793,-1.06103 0.82541,-2.31944 0.71624,-3.53466 -0.13662,-1.38531 0.30966,-2.59135 1.45366,-3.42047 0.47766,-0.49499 0.97582,-2.12106 1.63039,-2.23449 z m 15.52463,0.50385 c 0.65436,0.99641 -1.21828,1.95519 -1.97145,2.62671 -1.11178,0.69881 -2.23525,1.44516 -3.50418,1.82366 l -0.23565,0.006 -0.17156,-0.0946 c -0.12802,-1.05121 1.79017,-1.30192 2.54196,-1.93167 1.27226,-0.5851 2.26928,-1.56442 3.34088,-2.42982 z m -85.83145,1.43299 c 0.74397,0.0502 1.51927,0.44192 2.31045,0.26975 -0.61916,0.67371 -1.38972,2.11145 -2.47013,1.37872 l -0.18242,-0.12195 c -0.7288,-0.38254 -1.69103,-1.05408 -0.39119,-1.42937 0.24038,-0.0927 0.4853,-0.11388 0.73329,-0.0971 z m -2.73834,1.39784 c 0.12149,0.0127 0.26796,0.0782 0.43719,0.21653 0.6554,0.55398 0.84551,1.72969 -0.37052,1.01906 -0.64531,-0.34974 -0.59308,-1.2907 -0.0667,-1.23559 z m 52.09295,0.17984 c -1.21233,0.48484 -2.27236,1.39954 -3.6313,1.49345 -1.03938,0.53002 -2.13338,-0.81917 -2.88717,-0.36691 -0.86284,2.25571 -0.71864,4.73396 -0.69401,7.1081 -10e-4,1.96738 0.47345,3.95944 0.0951,5.9092 -0.42198,1.18818 -1.64118,1.98745 -2.91041,1.76371 -2.60257,0.10493 -5.18245,-0.34441 -7.69204,-0.99735 -2.2222,-0.33752 -4.57407,-0.56619 -6.75463,0.10335 -2.28377,0.99666 -3.21411,3.59501 -5.2126,4.97179 -1.13499,0.83286 -2.75092,1.74796 -2.66702,3.36775 0.0344,1.62792 0.11407,3.26705 -0.23564,4.87051 -0.29075,1.1272 -0.12496,2.70115 1.4242,2.40088 0.7425,0.0183 1.48433,-0.0436 2.2226,-0.1142 v 5.2e-4 c 1.52822,-0.21365 3.1066,-0.0721 4.60696,-0.4346 1.22586,-0.67088 1.24833,-2.23945 1.72392,-3.39979 0.55496,-1.271 0.67193,-2.63466 -0.2992,-3.73414 -0.40209,-1.44257 2.81672,-1.16014 1.6986,-2.70837 -0.47702,-0.47498 -1.94835,-1.84596 -0.35708,-1.62212 1.41476,-0.0121 1.89179,1.56651 2.52181,2.55437 0.64335,0.84405 1.6886,2.35296 2.84375,1.35599 1.19139,-0.0497 2.4248,0.25555 3.61477,-0.092 1.26935,0.38609 2.54526,-0.34302 3.83232,0.12661 1.19752,0.48697 2.2312,-0.62683 3.37654,-0.0946 0.80636,0.15218 1.65603,-0.13217 2.44688,0.004 1.08559,0.43533 2.33101,1.18316 3.46232,0.47025 0.53209,-0.62034 1.31721,-1.20955 1.56114,-1.99574 0.0322,-1.44167 -0.0816,-2.89499 0.0894,-4.32739 0.42173,-1.19918 1.45543,-2.07238 1.69499,-3.35793 0.68507,-1.57925 -0.4187,-3.34348 0.43512,-4.88342 0.46117,-1.02957 2.00894,-2.26764 1.11156,-3.42047 -0.55508,-1.19476 -1.68749,-1.91066 -2.2071,-3.06958 -0.68,-1.0659 -2.10951,-1.53122 -3.21376,-1.88205 z m 36.22518,0.11524 c 0.0574,-0.005 0.10008,0.008 0.12402,0.0434 -0.76848,1.01787 -1.99888,1.54096 -3.06079,2.1947 -0.63369,0.17428 -1.43323,0.89454 -2.03709,0.73019 0.056,-1.10972 1.90863,-1.3719 2.80603,-1.90893 0.63268,-0.13336 1.7661,-1.02664 2.16783,-1.05936 z m -35.33583,1.63555 c 1.32885,0.0815 2.15547,1.38547 2.60139,2.5337 0.29476,0.32954 1.08351,2.3918 0.20464,1.97146 -0.9118,-0.89945 -1.28886,-2.12037 -1.95544,-3.175 -0.28671,-0.45183 -2.06601,-0.71697 -1.12292,-1.32964 0.0931,-0.006 0.18374,-0.006 0.27233,-5.2e-4 z m -5.29425,0.18501 c 0.34585,0.0144 0.67584,0.15637 0.64854,0.49971 -0.27246,0.20229 -0.60775,0.23239 -0.92708,0.15193 -0.91818,-0.34483 -0.29788,-0.67565 0.27854,-0.65164 z m 40.05182,0.65629 c 0.42363,0.0123 -0.99241,1.02474 -1.25574,1.2392 -1.18949,0.93677 -2.70911,1.32728 -4.17132,1.59215 l -0.23358,-0.0119 h -5.1e-4 c -1.09788,-0.97074 1.3492,-0.951 1.92339,-1.39836 1.21654,-0.46342 2.48032,-0.77753 3.62769,-1.40973 0.0455,-0.009 0.0818,-0.0122 0.11007,-0.0114 z m -35.77663,0.42684 c 0.19437,-0.0182 0.42735,0.05 0.67128,0.24753 1.10743,0.74631 1.85798,1.86473 2.2009,3.12643 0.32691,0.1638 1.25087,1.44392 0.35191,0.74414 -1.46457,-0.47476 -2.28123,-1.68254 -3.19722,-2.81223 -0.84683,-0.42245 -0.60997,-1.25124 -0.0269,-1.30587 z m 20.12022,0.10646 c 1.71252,0.0459 -0.18232,1.9379 -0.46664,2.70991 -0.17871,0.27206 -0.52033,0.44591 -0.83354,0.28732 0.0378,-0.9402 0.86701,-2.0658 1.30018,-2.99723 z m 1.66967,1.16633 c 0.57304,0.97224 -0.80176,2.02901 -1.42421,2.73627 -0.17123,0.1084 -0.42831,0.35588 -0.64647,0.20102 0.41003,-0.9734 1.39288,-2.05293 2.07068,-2.93729 z m 12.82505,0.70591 c -0.49897,1.18035 -1.86306,1.79085 -3.02772,2.2164 -0.83555,0.18108 -1.7666,0.85907 -2.53835,0.81959 0.056,-1.0434 1.58797,-1.5055 2.50683,-1.803 1.08166,-0.23169 2.08826,-0.8047 3.05924,-1.23299 z m -35.66449,0.1235 c 1.21511,0.0921 2.52816,1.20477 2.2593,2.42879 -0.25297,0.1856 -0.60537,0.1143 -0.85163,-0.0403 -0.61338,-0.52377 -1.67312,-1.76943 -1.40767,-2.38849 z m 23.8001,0.32608 c 0.14818,-0.0208 0.23244,0.13478 0.154,0.61082 -0.50529,1.24752 -1.48876,2.23888 -2.50218,3.09386 l -0.2005,0.092 -0.12764,-0.0481 c 0.21573,-1.02037 1.36338,-1.83637 1.86345,-2.83704 0.14186,-0.35157 0.5659,-0.87685 0.81287,-0.91157 z m -27.34975,0.40308 c 0.36324,-0.0524 1.22951,0.64591 0.11885,0.45372 l -0.22272,-0.0899 v -5.2e-4 c -0.0827,-0.24506 -0.0172,-0.34582 0.10387,-0.36328 z m 0.31729,1.12913 c 0.22176,-0.0734 0.97411,0.45371 0.0372,0.32039 -0.12627,-0.20462 -0.11113,-0.29592 -0.0372,-0.32039 z m 2.60449,0.53898 c 0.24152,-2.3e-4 0.76696,0.73911 1.1958,0.87953 1.2647,0.50574 0.37947,2.15311 -0.68575,1.12655 -0.75842,-0.24474 -1.22581,-0.6857 -0.62787,-1.42162 -0.0432,-0.43159 0.008,-0.58435 0.11782,-0.58446 z m 33.85634,0.0377 c 0.10607,0.0102 0.20195,0.0398 0.28422,0.093 -0.85179,1.13195 -2.22731,1.54978 -3.39515,2.24896 -0.65615,0.29374 -1.36062,1.16741 -2.09599,1.07487 0.23755,-1.12406 1.47261,-1.80278 2.42517,-2.34094 0.78389,-0.27441 2.03924,-1.14728 2.78175,-1.0759 z m -9.24543,0.86868 c 0.48876,0.10036 0.19558,1.6301 -0.51212,1.79782 -0.38197,0.26867 -0.89925,0.9344 -1.42058,0.73742 -0.70707,-0.78561 1.07696,-1.5969 1.46451,-2.34249 0.20057,-0.16341 0.35539,-0.21592 0.46819,-0.19275 z m -27.37559,0.078 c 0.36166,-0.0309 1.44514,0.3865 0.23719,0.39997 -0.41694,-0.27914 -0.40159,-0.38594 -0.23719,-0.39997 z m 2.47271,1.65364 c 1.37414,0.1257 1.43436,2.82588 -0.0284,2.30891 -0.035,-0.73295 -0.23047,-1.78006 -0.26355,-2.29805 0.10323,-0.0162 0.20036,-0.0192 0.29197,-0.0109 z m 10.98951,1.20665 c 0.0673,0.008 0.13404,0.0251 0.19947,0.0517 -0.0153,0.76366 0.74766,1.2726 0.7028,1.9849 -0.0519,0.73979 -0.27509,1.74568 0.73381,1.78128 -0.23896,0.46466 0.26817,2.02454 -0.22686,1.84123 l -0.0956,-0.1049 -0.10749,-0.13591 c -0.36892,-1.29793 -1.49072,-1.96426 -2.14457,-3.08043 -1.20619,-0.62154 -0.0708,-2.46078 0.93844,-2.33784 z m -8.56588,0.68936 c 0.0542,-0.009 0.19095,0.0348 0.4408,0.15555 0.45908,0.17912 2.60175,0.64012 1.66294,1.08985 -0.22295,-0.007 -0.44671,-0.0335 -0.663,-0.0889 -0.36209,-0.0871 -1.67565,-1.11826 -1.44074,-1.15652 z m 0.49247,1.68569 c 0.20068,0.022 0.86765,0.58711 0.0279,0.21394 -0.10976,-0.16825 -0.0948,-0.22127 -0.0279,-0.21394 z m -0.92397,4.92424 c 0.64234,-0.0298 1.22657,0.1326 1.03094,0.9369 -1.27758,0.59075 -2.54108,1.6557 -4.03127,1.45779 -1.12394,-0.0308 -0.78321,-1.168 0.21032,-0.87437 0.94537,-0.0609 0.45848,-1.78849 1.72702,-1.3565 0.27114,-0.0589 0.67759,-0.14596 1.06299,-0.16382 z m -12.97905,0.73433 c 0.49414,-7.1e-4 0.94338,0.12997 1.28209,0.56482 -0.71442,0.61846 -2.21789,0.2877 -3.21376,0.60668 -0.22625,0.002 -0.4553,0.004 -0.67799,-0.0424 -1.05918,-0.0141 -1.01217,-1.33224 0.0698,-0.82889 0.76792,0.0673 1.71632,-0.29906 2.5399,-0.30024 z m 32.38458,1.33842 c 0.13844,0.0297 0.33535,0.39486 -0.0481,0.44855 -0.097,-0.36349 -0.035,-0.46638 0.0481,-0.44855 z m -1.0759,0.54777 c 0.0974,0.0537 0.0656,0.42304 -0.13901,0.0894 0.0596,-0.09 0.10653,-0.10729 0.13901,-0.0894 z m -2.51096,0.4656 c 0.23884,0.1116 2.85824,1.68106 1.44126,1.26452 -0.75183,0.0984 -1.73258,-0.93064 -1.44126,-1.26452 z m 9.1457,1.4888 c 0.30658,-0.0255 1.02219,0.49482 0.21032,0.57154 l -0.19275,-0.10542 c -0.21164,-0.33001 -0.15693,-0.45454 -0.0176,-0.46612 z m -53.04793,0.6103 c 0.97094,-0.0453 1.88843,0.44064 1.18288,1.54306 -0.26756,0.43522 -0.86386,0.50428 -1.32395,0.43253 -0.85208,0.14212 -2.27487,-0.36382 -1.32551,-1.33894 0.28194,-0.39086 0.88402,-0.60951 1.46658,-0.63665 z m 2.47427,0.0785 c 0.77514,0.082 1.67422,1.7139 0.63252,2.36884 -0.26619,0.14806 -0.73294,0.222 -0.92398,-0.0868 -0.33327,-0.78336 1.1509,-1.57949 -0.0269,-2.21537 0.0997,-0.0589 0.20759,-0.0784 0.31833,-0.0667 z m 51.59478,0.60358 c 0.1236,0.0133 0.2875,0.12408 0.49403,0.37775 0.11024,1.05166 -0.62681,2.0681 -0.45269,3.22358 -0.074,1.59525 -1.7799,2.05729 -2.53731,3.20497 -0.5054,1.27398 -2.01434,1.35293 -2.89026,2.25361 -0.22168,0.0796 -0.46059,0.0241 -0.6842,-0.0119 -0.62203,-0.2035 0.69349,-1.23069 0.91468,-1.64227 1.08762,-0.7174 1.42436,-2.03838 2.59622,-2.55437 1.15778,-0.86618 2.73758,-1.91349 2.46083,-3.58531 -0.2815,-0.47074 -0.27209,-1.3061 0.0987,-1.26607 z m -52.02421,3.68453 c 0.27405,0.0125 0.4918,0.23162 0.17105,0.7369 -0.1026,0.15504 -0.33834,0.19421 -0.48214,0.0729 -0.48668,-0.50018 -0.0413,-0.82584 0.31109,-0.80977 z m 45.45769,5.60379 c -0.6716,0.84598 -1.09397,1.89925 -2.02778,2.46135 -0.3459,1.26695 -0.95945,2.60018 -2.01797,3.42304 -1.05319,0.69432 -1.79933,2.2588 -3.02204,2.4753 l -0.0181,-0.15813 c 0.60666,-1.24474 1.92572,-2.02222 2.20193,-3.48919 0.80878,-1.07999 1.90409,-1.92098 2.62103,-3.07216 0.68224,-0.48312 1.84653,-1.47619 2.26291,-1.64021 z" /></g></svg>
