<?xml version="1.0" encoding="UTF-8" standalone="no"?>
<!-- Created with Inkscape (http://www.inkscape.org/) -->

<svg
   width="297mm"
   height="210mm"
   viewBox="0 0 297 210"
   version="1.1"
   id="svg5"
   xml:space="preserve"
   xmlns="http://www.w3.org/2000/svg"
   xmlns:svg="http://www.w3.org/2000/svg"><defs
     id="defs2" /><g
     id="layer1"
     transform="translate(-1054,-220.3034)"><rect
       style="fill:#000000;fill-opacity:1;stroke-width:0.119813;-inkscape-stroke:none;stop-color:#000000"
       id="rect1436-44-31-9"
       width="297.00006"
       height="210"
       x="1054"
       y="220.30341" /><path
       d="m 1206.3981,402.88747 c -1.3072,-0.4551 -0.8546,-2.15558 -0.693,-3.20749 0.2529,-1.85528 0.989,-3.6914 0.6111,-5.58329 0.1265,-0.96634 1.1482,-1.24479 1.8185,-1.72036 1.0729,-0.54425 2.0152,-1.38487 2.6803,-2.41543 0.5732,-1.07479 0.7954,-2.28391 1.6754,-3.16933 0.7805,-0.6407 1.5776,-1.21896 2.5221,-1.60023 1.0335,-0.38332 1.9929,-0.78748 2.7328,-1.62425 0.9548,-1.0267 1.6478,-2.33736 2.7578,-3.18456 0.7998,-1.00995 1.8889,-1.77342 2.6179,-2.85984 0.6441,-0.89956 1.27,-1.80551 1.7969,-2.79186 0.5455,-0.83554 1.3677,-1.85887 0.9917,-2.95593 -0.514,-0.89052 -1.4746,-1.31667 -2.2704,-1.86699 -0.8353,-0.49837 -1.6096,-0.88999 -2.3725,-1.40152 -0.7464,-0.40965 -1.5827,-0.80318 -2.2634,-1.42556 -0.9165,-0.68449 -1.3565,-1.84057 -1.9247,-2.81435 -0.3611,-1.33247 -1.8568,-1.80861 -2.2997,-3.08418 -0.3523,-0.72875 -1.3599,-1.66427 -2.1184,-1.23114 -1.0177,0.71389 -1.1557,2.1261 -1.1263,3.2806 -0.076,1.21554 0.1148,2.50779 -0.3565,3.65947 -0.7219,0.71152 -1.3233,1.48329 -2.0389,2.13014 -0.9192,0.34765 -2.1127,0.24681 -2.9195,-0.26783 -1.1823,-0.23996 -2.4855,-0.61213 -3.6167,-0.004 -0.5951,0.58205 -1.4608,-0.13841 -2.0895,0.51846 -0.9153,-0.0815 -2.0421,-0.40801 -2.8403,0.16485 -1.2529,0.30768 -2.2104,-0.77411 -3.4321,-0.62671 -0.9598,0.52804 -2.1247,0.19782 -3.1936,0.26543 -0.9344,-0.0254 -2.1884,0.50789 -2.0308,-0.90411 -0.4341,-1.27468 -3.3025,-0.68592 -2.318,0.67802 0.8295,1.0666 0.069,2.41605 -0.265,3.51993 -0.3514,0.96094 -0.5011,2.12984 -1.1984,2.88335 -0.7275,0.86514 -2.034,0.62595 -3.0742,0.76206 -1.8641,0.0867 -3.7447,0.32968 -5.604,0.1944 -1.2933,-0.0468 -2.174,-1.27082 -1.747,-2.57538 0.4085,-2.07163 0.2109,-4.1873 0.3623,-6.27749 0.2852,-0.98846 1.1184,-1.65304 1.8878,-2.20269 0.5225,-0.3607 1.062,-0.75966 1.6008,-1.22363 1.0648,-0.95418 1.8369,-2.18423 2.7589,-3.25379 0.7344,-0.76791 1.5779,-1.24332 2.6027,-1.47536 1.0459,-0.29814 2.1395,-0.25161 3.2271,-0.18546 1.4465,0.0382 2.9353,0.034 4.2869,0.53925 1.1172,0.24699 2.2557,0.43582 3.4078,0.60972 1.4903,0.10956 3.0056,0.0992 4.4944,-0.0366 1.1813,-0.41974 0.9644,-1.88577 0.9316,-2.89081 -0.08,-3.2194 -0.3635,-6.46591 0.076,-9.66912 0.273,-1.12037 0.6526,-2.21831 0.9697,-3.32223 -0.1279,-1.18129 -0.8715,-2.66185 -2.2801,-2.48546 -2.5943,-0.10798 -5.2101,-0.28521 -7.727,-0.95323 -0.9018,-0.28443 -1.8239,-0.45886 -2.675,-0.81359 -0.8797,-0.25899 -1.7035,-0.72142 -2.611,-0.97497 -1.0112,-0.33521 -1.848,-0.9491 -2.7984,-1.44824 -0.7521,-0.5962 -1.5803,-1.0466 -2.273,-1.69634 -0.9123,-0.71478 -1.8781,-1.54209 -2.7709,-2.35412 -0.9996,-0.93434 -2.0272,-1.83377 -3.0246,-2.77171 -0.9031,-0.48784 -2.0207,-0.32161 -2.9362,-0.76861 -1.1095,-0.40505 -2.2779,-0.79901 -3.2084,-1.53627 -0.655,-0.42812 -1.275,-0.82063 -1.9781,-1.06465 -0.9665,-0.50481 -2.0393,-0.85753 -3.127,-1.03175 -0.9694,-0.35122 -2.2245,-0.26452 -2.7064,0.78864 -1.0661,0.99278 -0.6681,2.69717 0.5533,3.35963 1.2425,0.75717 1.326,2.22438 1.5363,3.50284 0.551,1.20205 1.8339,-0.01 2.4617,-0.52754 1.1228,-0.63691 1.1365,1.68322 1.0916,2.45127 0.044,1.5418 -0.8142,2.91254 -0.8455,4.44725 0.2749,1.37367 -2.3627,1.99969 -0.8697,3.1648 0.6224,1.06584 1.5955,1.99892 2.839,2.21756 1.3655,-0.21034 1.9788,1.04046 1.739,2.2325 -0.01,1.77921 0.036,3.56969 -0.016,5.34393 -0.3675,1.47049 -1.2542,2.72684 -1.7243,4.16442 -0.3853,1.12309 -1.4403,1.88193 -2.4658,2.23258 -1.0466,0.2964 -2.2285,0.56033 -3.3224,0.2181 -0.946,-0.28716 -1.8465,-0.97566 -2.0196,-2.03865 -0.3783,-1.14821 -1.3872,-2.05232 -2.3294,-2.64148 -0.9228,-0.63327 -1.0883,-1.90169 -1.7547,-2.75829 -0.8362,-1.08194 -0.363,-2.45564 -0.5688,-3.68906 -0.4511,-1.20172 -1.4849,-2.07853 -2.1611,-3.16266 -0.945,-1.00854 -0.7104,-2.45704 -0.7291,-3.72386 -0.055,-2.46779 0.1465,-4.92654 0.4071,-7.37734 0.1594,-3.49594 0.2631,-7.04248 -0.5247,-10.47751 -0.271,-1.29925 -0.524,-2.73058 0.2355,-3.92725 0.4056,-0.93795 0.8595,-1.82716 1.2395,-2.80224 0.387,-0.86993 1.1468,-1.51401 1.9277,-1.92912 0.6027,-0.51622 1.2893,-0.90084 2.0876,-1.16192 0.8148,-0.52112 1.8623,-0.66308 2.8215,-0.33575 0.8138,0.30722 1.7132,0.87285 2.2656,1.44475 0.6923,0.40087 1.3457,1.09019 2.1561,1.26591 0.9844,0.30121 2.1063,0.40638 3.1758,0.40525 1.167,0.08 2.492,0.057 2.7976,-1.30606 0.9678,-0.93729 -0.2138,-2.24026 -0.6723,-3.15234 -0.6119,-0.86262 -1.2326,-1.78803 -1.9976,-2.50013 -0.6596,-0.80631 -1.4162,-1.61922 -2.1083,-2.45851 -0.4937,-0.68704 -0.7897,-1.17939 -1.1111,-1.91799 -0.1724,-1.4039 -1.4975,-1.98502 -2.1835,-3.03245 -0.2336,-1.00321 -1.5163,-1.58197 -1.6265,-0.18587 -0.3135,0.89149 -1.1917,1.10378 -1.8617,1.60894 -0.5341,1.02212 -0.7844,2.28254 -1.731,3.0116 -0.7988,0.6105 -1.7637,1.32477 -2.8564,1.14048 -0.8781,-0.0631 -1.2865,-1.11532 -0.1913,-1.1654 0.9813,-0.64198 1.1432,-1.92028 0.3741,-2.79651 -0.3662,-0.90857 -1.4785,-0.6427 -2.0953,-0.23221 -0.753,1.01018 -1.217,2.16796 -1.3729,3.42415 -0.1185,1.19 -1.1283,1.64631 -2.031,2.14194 -0.9461,0.35111 -1.7757,1.04934 -2.688,1.45854 -0.6609,0.3123 -1.2517,0.82378 -1.9005,1.17982 -0.8212,0.36666 -1.5864,0.93097 -2.578,0.747 -1.3245,0.14258 -1.3298,-1.53382 -0.7728,-2.34769 0.4908,-1.40663 0.6928,-2.93989 0.2316,-4.38355 -0.124,-1.25424 -0.8784,-2.42697 -0.5725,-3.69503 0.6592,-1.22732 2.1135,-1.48724 2.9641,-2.49845 1.2396,-1.35145 1.0801,-3.54343 2.5836,-4.71912 0.7813,-0.43447 1.7186,-0.55169 2.6129,-0.73068 1.081,-0.11486 2.2429,-0.10882 3.1551,-0.68674 0.7608,-0.16087 1.4396,-0.56142 2.0381,-1.06577 0.8445,-0.49698 1.6617,-0.99554 2.5082,-1.55737 0.6262,-0.48203 1.3359,-1.07751 2.0083,-1.61471 0.7121,-0.75801 1.6355,-1.28928 2.4625,-1.81387 0.7965,-0.45624 1.7675,-0.6991 2.7478,-0.70883 1.2725,0.0307 2.6071,-0.0175 3.8044,0.38396 0.974,0.76803 1.1143,2.18307 1.5288,3.28599 0.4605,1.40022 0.9132,2.95387 2.2369,3.79108 1.1484,0.67465 2.155,1.53335 3.1173,2.45315 0.8023,0.90841 1.7907,1.64618 2.561,2.5966 0.5191,0.43576 1.2907,1.57906 1.9399,0.72615 0.688,-0.51746 1.3815,-0.96018 2.0845,-1.35824 0.7935,-0.3779 1.6899,-0.68365 2.5242,-0.98338 1.2023,-0.0927 1.0173,-1.62837 1.678,-2.35685 0.4702,-0.91516 1.2076,-1.67556 2.0473,-2.23723 0.7208,-0.42096 2.5474,-1.68225 0.9185,-2.05505 -1.2411,0.037 -2.1109,-0.91683 -2.5056,-2.00003 -1.0743,-0.85013 -0.2194,-2.04555 0.8828,-2.18616 0.6076,-0.39844 2.4487,-0.95111 1.5528,-1.76275 -1.0246,0.006 -1.941,0.61025 -2.7654,1.11419 -1.0122,0.4135 -1.7044,1.38588 -2.5492,2.03603 -0.8377,0.76026 -2.1867,0.49532 -2.9352,-0.30524 -0.9244,-0.82454 -1.185,-2.0521 -1.889,-3.01886 -0.6905,-0.7661 -1.4169,-1.67459 -1.2897,-2.75294 -0.05,-1.14963 0.6349,-2.01413 1.4077,-2.76418 0.8459,-0.77985 1.3208,-1.82412 2.0062,-2.70615 0.6454,-1.53711 1.3286,-3.08385 1.6575,-4.72981 0.5916,-1.80157 1.0216,-3.65814 1.751,-5.4087 0.3982,-1.26319 1.1622,-2.37329 1.7813,-3.53511 0.9052,-0.85225 0.1593,-1.68678 -0.8789,-1.71531 -1.0615,-0.0351 -2.0641,-0.52882 -2.9975,-0.92893 -0.7577,-0.29895 -1.5074,-0.95394 -2.3982,-0.92601 -1.2344,0.21185 -1.8238,-1.21664 -2.961,-1.2849 -0.7664,0.17529 -1.5754,0.29859 -2.1222,0.80444 -0.7617,0.58679 -1.4573,1.22984 -1.7424,2.21183 -0.6583,0.68518 0.1555,3.02356 0.9382,2.07008 -0.8864,-1.02121 1.1875,-1.98831 1.9798,-1.45379 1.1091,0.1284 1.9489,1.26556 1.8048,2.40879 0.043,1.44082 -0.8618,2.68249 -1.9084,3.5645 -0.7003,0.63892 -1.4872,0.9827 -2.4139,1.11721 -1,0.0387 -2.1624,0.0879 -2.9887,-0.44778 -0.5983,-0.13052 -1.0574,-0.66007 -1.5591,-0.92297 -0.7171,-0.7131 -1.3929,-1.6788 -1.6112,-2.72658 -0.3026,-2.11022 0.1496,-4.32488 1.1253,-6.20526 0.6617,-0.98432 1.4818,-1.84808 2.4425,-2.50104 0.7795,-0.70268 1.8301,-0.92692 2.8254,-1.21707 1.0011,-0.15249 1.5242,-1.28706 2.414,-1.58195 0.504,-0.43844 1.2872,-0.45676 1.8426,-0.84302 0.9835,-0.5387 2.2173,-0.0602 3.309,-0.0838 1.4842,0.19548 3.029,0.23856 4.3995,0.86438 0.9045,0.26475 1.8144,0.59481 2.6254,1.13915 0.9831,0.2951 2.0171,1.70188 2.9882,0.67279 0.5955,-0.77417 1.3289,-1.42856 2.1118,-2.00854 1.3266,-0.62743 1.0501,-2.37253 1.5401,-3.57267 0.3575,-0.84247 -0.2572,-2.68686 1.2951,-2.00539 0.8973,0.40032 1.7214,0.8838 2.646,1.26158 0.6837,0.48744 1.3425,1.07492 1.8689,1.72119 1.0038,1.30887 1.3426,-0.82746 1.9307,-1.37323 0.437,-0.95727 1.631,-1.82162 1.9231,-0.24079 0.6855,0.88941 1.3709,1.85676 1.4825,3.0176 0.5419,1.26128 2.4768,0.0813 3.6074,0.26546 0.8763,-0.0656 1.8391,0.0944 2.3936,0.75785 0.032,1.13431 0.612,1.80677 1.6635,2.05879 1.2609,0.45071 2.3222,1.4793 2.8877,2.71447 0.4096,0.92577 1.0116,1.66367 1.8373,2.20098 0.8692,0.376 1.7732,0.72537 2.6968,1.03925 1.0628,0.13252 2.0756,0.60391 2.7115,1.49749 0.5078,1.06411 0.1084,2.28118 -1.0999,2.42565 0.3618,0.76345 1.2642,0.90324 1.8602,1.50381 0.9212,0.61751 1.2765,1.85727 1.8879,2.77754 1.2131,1.36694 -2.4206,-0.0728 -1.4197,1.71707 0.5939,1.13431 0.8553,2.37766 0.7493,3.65696 0.068,1.52183 -0.5013,3.11758 0.2578,4.54905 0.2579,1.12058 2.123,1.94208 0.6534,3.01263 -1.5055,0.88959 -0.015,2.7605 -0.559,4.10491 -0.2023,1.99406 -1.4022,3.67778 -1.8893,5.58536 -0.4122,1.11379 0.1986,2.75197 1.5769,2.58117 0.2653,0.8297 -1.7967,1.77248 -2.6725,1.11786 -1.186,-0.96832 -1.9169,0.43723 -2.1827,1.41957 0.029,1.50685 -0.2557,2.94513 -0.6747,4.37735 -0.024,1.07934 0.7497,2.291 -0.017,3.27234 -0.4253,1.08105 -0.6315,2.2262 -0.8732,3.36002 0.1969,0.49376 1.1566,1.82322 0.1339,1.01492 -1.0529,-0.47203 -1.7651,-1.49817 -1.9178,-2.62775 -0.4621,-1.39498 -1.4755,0.21835 -2.1838,0.4538 -0.4703,0.56358 -1.7931,0.29182 -1.749,1.26823 0.5587,0.96803 1.6649,1.4105 2.5149,2.07578 1.1658,0.66276 2.0584,1.85728 2.9354,2.90091 0.8708,1.31625 2.0801,2.42675 3.3228,3.36112 0.616,0.41911 1.2273,0.6729 1.8731,0.95163 0.8184,0.30501 1.6226,0.59682 2.4836,0.90036 0.8307,0.25397 1.4578,0.75284 2.2752,0.99155 0.9586,0.41956 1.8451,1.13328 2.7893,1.4581 0.896,0.29234 1.663,0.82956 2.517,1.14808 0.8288,0.33028 1.5667,0.78611 2.2954,1.21754 0.4448,0.25545 0.9038,0.48337 1.2909,0.82253 0.8479,0.43274 1.5113,1.0611 2.2292,1.68456 1.762,1.21381 2.6009,3.25481 3.6412,5.04114 0.9324,1.38158 2.6228,2.07623 3.3955,3.59952 0.7332,0.92744 0.9707,2.32389 2.0771,2.8859 0.9357,0.584 2.6195,0.12969 2.4658,-1.19453 -0.1797,-1.21525 -1.3146,-1.93516 -2.318,-2.39243 -0.8106,-0.47587 -1.6936,-0.94476 -2.4077,-1.61092 -0.9691,-0.84649 -1.3435,-2.25561 -1.5067,-3.50736 -0.2129,-1.26389 0.4942,-3.14835 -1.0089,-3.82705 -0.8316,-0.61202 -1.8054,0.793 -2.3961,0.24266 -0.3329,-1.1359 0.2631,-2.46192 1.2496,-3.0577 0.5018,-0.47122 2.336,-1.07985 0.931,-1.64718 -0.9004,-0.3391 -1.6984,-0.732 -2.6831,-0.85771 -1.4609,-0.50613 -3.0938,0.007 -4.5232,-0.6249 -0.941,-0.20194 -1.9225,-0.75563 -2.5249,-1.51452 -0.9111,-0.78092 -0.9627,-2.27581 -1.6461,-3.24703 -0.5296,-0.80681 -1.4247,-1.39357 -2.1598,-1.88613 -0.8546,-0.52916 -1.69,-1.12359 -2.3587,-1.92619 -1.2365,-1.37778 -1.3059,-3.32486 -1.361,-5.08181 0,-0.68746 0.4098,-2.52623 1.1408,-1.17305 0.2909,0.71247 2.5093,1.65211 1.6561,0.2024 -0.9475,-0.82151 -1.4457,-1.96794 -1.4529,-3.22173 -0.2052,-1.59971 0.2418,-3.16001 0.6478,-4.68413 0.1447,-1.63005 1.2177,-2.96125 1.9707,-4.34971 0.6008,-0.98492 1.7686,-1.41367 2.3733,-2.42803 0.7199,-0.9492 1.5654,-1.87771 2.5704,-2.45597 0.7594,-0.511 1.5422,-1.1858 2.2905,-1.778 0.7666,-0.676 1.5797,-1.29458 2.3642,-1.93375 0.7217,-0.76916 1.8158,-1.22769 2.5015,-2.10162 1.0978,-1.05124 1.8777,-2.34489 2.5589,-3.69007 0.7077,-0.96645 1.2814,-1.98835 1.6899,-3.11161 0.2286,-0.51819 0.4232,-1.04211 0.3121,-1.61614 -0.059,-0.89334 0.022,-1.83362 -0.3131,-2.67466 -0.5645,-0.82629 -1.1689,-2.23289 -2.3476,-2.26936 -0.9393,-0.25897 -2.2384,-0.30921 -2.869,0.59883 -1.1934,1.60336 2.0019,1.04937 1.5094,2.50679 -0.3586,0.94258 -1.0605,1.83705 -2.0584,2.05512 -1.007,0.15388 -1.8336,-0.34996 -2.5957,-0.91023 -0.9442,-0.87934 -1.104,-2.17116 -1.0038,-3.40299 0.1457,-1.71222 1.1715,-3.37416 2.7367,-4.14012 0.9276,-0.38515 1.9575,-0.61163 3.007,-0.64848 1.1003,-0.11596 2.1286,0.19784 3.1049,0.56054 0.7403,0.3587 1.4001,0.73004 2.1562,1.06739 0.8182,0.58164 1.6901,1.10094 2.2817,1.98074 0.7415,0.73897 1.3514,1.64496 1.8041,2.62309 0.4301,1.10033 1.0853,2.16998 0.8961,3.39948 -0.3316,1.5869 -0.1399,3.30752 -0.9539,4.76934 -0.3488,0.93788 -0.8683,1.75566 -1.2083,2.65747 -0.6828,1.03328 -1.2896,2.13693 -2.1095,3.08791 -0.6893,0.77033 -1.3773,1.6524 -2.1366,2.41052 -0.6761,0.7424 -1.3484,1.4798 -1.9772,2.2977 -0.8339,0.67065 -1.394,1.62227 -2.0421,2.40734 -0.6375,0.74919 -1.4127,1.54347 -1.7607,2.51666 -0.3267,1.1284 -0.7848,2.19862 -1.0869,3.32855 -0.3079,1.41625 -0.2426,2.98126 0.394,4.27303 0.4389,0.95437 0.9889,1.875 1.6712,2.72092 0.3539,0.81503 1.9707,1.57758 1.6353,0.10205 -0.3675,-1.11286 -1.0507,-2.28207 -0.3793,-3.45963 0.9249,-0.78289 1.8101,-1.67501 1.2397,-2.99713 -0.1955,-1.24589 0.4785,-2.52966 1.1824,-3.51317 0.5409,-0.69224 1.3073,-1.29517 2.1988,-1.48175 0.9584,-0.39835 3.1439,1.3949 1.7884,1.88998 -0.8432,0.21153 -1.8859,0.49623 -1.9524,1.58639 -0.2403,1.47381 0.5825,2.99942 1.7675,3.80839 0.8507,0.50805 1.6706,1.03359 2.513,1.53084 0.7329,0.48305 1.3293,1.14308 1.9177,1.77903 0.7033,0.75633 1.2192,1.91542 0.4691,2.84183 -0.8557,1.07041 -1.0806,2.67846 -0.3935,3.88491 0.6615,0.92435 1.508,1.83732 2.4242,2.41739 0.7023,0.4191 1.4036,0.99303 2.0835,1.51815 2.3239,1.90926 3.2805,5.03644 3.1793,7.96913 0.055,1.99285 -0.3191,4.00274 -1.1618,5.8013 -0.619,1.1304 0.9994,2.06522 1.9794,2.05737 0.6498,0.88382 -1.2721,1.84538 -1.5825,2.78237 -0.6234,0.96519 -0.627,2.24197 -0.6795,3.40181 -0.035,1.4093 0.046,2.961 -0.8648,4.1422 -0.3733,0.90259 -0.9619,1.66726 -1.5643,2.36972 -0.6786,0.32737 -1.7182,0.81324 -0.8234,1.66594 0.5056,1.43339 -0.5784,2.87593 -1.5183,3.86149 -0.8352,0.66601 -0.6316,2.30183 0.4985,2.57221 -0.2956,0.81483 -1.6145,0.67452 -2.3288,1.08686 -0.9759,0.48596 -2.1589,0.47253 -3.2089,0.19508 -1.5636,-0.35991 -1.0579,-2.36477 -0.01,-3.02022 0.982,-0.60247 2.2328,-1.71902 1.5988,-2.97851 -0.9148,-0.74518 -2.285,-0.50418 -3.3519,-1.01289 -0.8884,-0.6237 -2.3382,-1.136 -2.1131,0.594 -0.1077,1.25636 -0.707,2.37902 -1.3191,3.43981 -0.6092,1.12695 -1.4667,2.09311 -2.1494,3.16396 -0.9091,1.13057 -1.6949,2.41971 -2.8973,3.26702 -0.7047,0.86516 -1.715,1.54317 -2.5116,2.36212 -0.7348,0.93722 -1.8922,1.46885 -2.519,2.5255 -0.7813,0.9885 -0.5228,2.39607 -0.3064,3.54517 0.136,1.07235 1.3626,1.19191 1.9163,1.836 0.8686,0.7229 0.9116,1.88156 1.3428,2.84969 0.5145,1.01362 1.5354,1.73309 1.7654,2.88402 0.048,1.1843 -0.6694,2.22101 -1.5458,2.87961 -0.9723,0.65956 -1.4794,1.90237 -1.747,3.04015 -0.725,1.1943 -1.7224,2.2691 -2.0497,3.66369 -0.2562,0.96492 -1.042,1.67641 -1.9441,1.90456 -1.0594,-0.009 -2.2201,-0.33612 -2.6697,0.97606 -0.7342,1.19573 -0.8192,2.71885 -1.9143,3.6942 -0.8738,1.31678 -2.1338,2.67292 -1.9026,4.38509 0.1231,1.20437 0.3823,2.51011 -0.4178,3.55137 -0.6286,0.75503 -1.4332,1.23077 -2.2966,1.69136 -1.1258,0.51142 -1.2367,2.14925 -2.6657,2.28886 -0.7274,-0.81877 1.0747,-2.14821 0.7493,-3.26631 -0.9167,-0.31521 -1.7591,0.81597 -2.4763,1.34189 -0.6443,0.0163 0.1223,-2.49206 -1.1352,-1.39056 -0.7278,1.04166 0.4504,2.45009 -0.5026,3.42053 -0.3958,0.92341 -1.2608,1.34897 -2.1318,1.61993 -1.2875,0.23693 -2.5343,0.65911 -3.7631,1.04723 -1.8752,0.6978 -3.9719,0.78337 -5.9466,0.67311 z"
       id="path1157-7-0-2-2"
       style="fill:#ffffff;fill-opacity:1;stroke-width:0.714487" /></g></svg>
