<?xml version="1.0" encoding="UTF-8" standalone="no"?>
<!-- Created with Inkscape (http://www.inkscape.org/) -->

<svg
   width="297.00006mm"
   height="210mm"
   viewBox="0 0 297.00006 210"
   version="1.1"
   id="svg5"
   xml:space="preserve"
   xmlns="http://www.w3.org/2000/svg"
   xmlns:svg="http://www.w3.org/2000/svg"><defs
     id="defs2" /><g
     id="layer1"
     transform="translate(-746.99996,-440.6068)"><rect
       style="fill:#fa0000;fill-opacity:1;stroke:none;stroke-width:0.119813;-inkscape-stroke:none;stop-color:#000000"
       id="rect9376"
       width="297.00006"
       height="210"
       x="746.99994"
       y="440.60681" /><path
       d="m 899.39828,623.19087 c -1.30715,-0.4551 -0.85459,-2.15558 -0.69294,-3.2075 0.25285,-1.85527 0.98896,-3.69139 0.61109,-5.58328 0.1265,-0.96635 1.14822,-1.2448 1.81852,-1.72036 1.0729,-0.54425 2.01521,-1.38487 2.68024,-2.41543 0.57328,-1.07479 0.79542,-2.28391 1.67542,-3.16933 0.7805,-0.6407 1.57764,-1.21896 2.5221,-1.60023 1.03354,-0.38332 1.99293,-0.78748 2.73286,-1.62425 0.95476,-1.0267 1.64773,-2.33736 2.75771,-3.18456 0.79981,-1.00995 1.8889,-1.77342 2.6179,-2.85984 0.64415,-0.89956 1.27004,-1.80551 1.79698,-2.79186 0.54551,-0.83554 1.36764,-1.85887 0.99162,-2.95593 -0.51399,-0.89052 -1.47454,-1.31667 -2.27032,-1.86699 -0.83538,-0.49837 -1.60959,-0.88999 -2.37256,-1.40152 -0.74637,-0.40965 -1.58269,-0.80318 -2.26339,-1.42556 -0.9165,-0.68449 -1.35649,-1.84057 -1.9247,-2.81435 -0.36105,-1.33247 -1.85683,-1.80861 -2.29966,-3.08418 -0.35236,-0.72875 -1.35995,-1.66427 -2.11845,-1.23114 -1.0177,0.71389 -1.15567,2.1261 -1.12622,3.2806 -0.0765,1.21554 0.11472,2.50779 -0.35659,3.65947 -0.72188,0.71152 -1.32328,1.48329 -2.03884,2.13014 -0.91926,0.34765 -2.11267,0.24681 -2.91954,-0.26783 -1.18228,-0.23996 -2.4855,-0.61213 -3.61673,-0.004 -0.59504,0.58205 -1.46073,-0.13841 -2.08942,0.51846 -0.91536,-0.0815 -2.04211,-0.40801 -2.84029,0.16485 -1.25298,0.30768 -2.2105,-0.77411 -3.43211,-0.62671 -0.95979,0.52804 -2.12474,0.19782 -3.19367,0.26543 -0.93441,-0.0254 -2.18836,0.50789 -2.03073,-0.90411 -0.43409,-1.27468 -3.30251,-0.68592 -2.31805,0.67802 0.82952,1.0666 0.0691,2.41605 -0.26495,3.51993 -0.35143,0.96094 -0.50112,2.12984 -1.19841,2.88335 -0.72749,0.86514 -2.03403,0.62595 -3.07428,0.76206 -1.86407,0.0867 -3.74467,0.32968 -5.60392,0.1944 -1.29335,-0.0468 -2.17401,-1.27082 -1.74705,-2.57538 0.40849,-2.07163 0.21091,-4.1873 0.36229,-6.27749 0.28523,-0.98846 1.11838,-1.65304 1.88784,-2.20269 0.52252,-0.3607 1.06203,-0.75966 1.60075,-1.22363 1.06483,-0.95418 1.83695,-2.18423 2.75897,-3.25379 0.73435,-0.76791 1.57788,-1.24332 2.60265,-1.47536 1.04589,-0.29814 2.13949,-0.25161 3.22716,-0.18546 1.44642,0.0382 2.93522,0.034 4.28685,0.53925 1.11722,0.24699 2.25566,0.43582 3.40783,0.60972 1.49026,0.10956 3.00554,0.0992 4.4944,-0.0366 1.18126,-0.41974 0.96442,-1.88577 0.93159,-2.89081 -0.0802,-3.2194 -0.36355,-6.46591 0.0759,-9.66912 0.27298,-1.12037 0.65262,-2.21831 0.96967,-3.32223 -0.1279,-1.18129 -0.87147,-2.66185 -2.28009,-2.48546 -2.59433,-0.10798 -5.21008,-0.28521 -7.72701,-0.95323 -0.90182,-0.28443 -1.82392,-0.45886 -2.67496,-0.81359 -0.87976,-0.25899 -1.70349,-0.72142 -2.61103,-0.97497 -1.01122,-0.33521 -1.84804,-0.9491 -2.79838,-1.44824 -0.75207,-0.5962 -1.58028,-1.0466 -2.27304,-1.69634 -0.91224,-0.71478 -1.87808,-1.54209 -2.77086,-2.35412 -0.99961,-0.93434 -2.02727,-1.83377 -3.02459,-2.77171 -0.90315,-0.48784 -2.02071,-0.32161 -2.93624,-0.76861 -1.10947,-0.40505 -2.27787,-0.79901 -3.20838,-1.53627 -0.65498,-0.42812 -1.275,-0.82063 -1.97814,-1.06465 -0.96649,-0.50481 -2.03925,-0.85753 -3.12701,-1.03175 -0.96934,-0.35122 -2.22449,-0.26452 -2.70637,0.78864 -1.06608,0.99278 -0.66807,2.69717 0.55334,3.35963 1.24247,0.75717 1.32602,2.22438 1.53629,3.50284 0.55095,1.20205 1.83393,-0.01 2.46164,-0.52754 1.12286,-0.63691 1.13655,1.68322 1.09165,2.45127 0.0438,1.5418 -0.81421,2.91254 -0.84547,4.44725 0.27487,1.37367 -2.36274,1.99969 -0.86976,3.1648 0.62241,1.06584 1.5955,1.99892 2.83901,2.21756 1.36552,-0.21034 1.97884,1.04046 1.73906,2.2325 -0.007,1.77921 0.0361,3.56969 -0.0164,5.34393 -0.36755,1.47049 -1.2542,2.72684 -1.72434,4.16442 -0.38528,1.12309 -1.44031,1.88193 -2.46577,2.23258 -1.04667,0.2964 -2.22855,0.56033 -3.32244,0.2181 -0.94596,-0.28716 -1.8465,-0.97566 -2.01964,-2.03865 -0.37822,-1.14821 -1.38717,-2.05232 -2.32932,-2.64148 -0.92286,-0.63327 -1.08839,-1.90169 -1.75471,-2.75829 -0.8362,-1.08194 -0.36302,-2.45564 -0.56885,-3.68906 -0.45109,-1.20172 -1.48485,-2.07853 -2.16112,-3.16266 -0.94497,-1.00854 -0.71034,-2.45704 -0.7291,-3.72386 -0.0552,-2.46779 0.14654,-4.92654 0.4071,-7.37734 0.15939,-3.49594 0.26312,-7.04248 -0.52464,-10.47751 -0.27106,-1.29925 -0.52403,-2.73058 0.23551,-3.92724 0.40559,-0.93795 0.85951,-1.82716 1.2395,-2.80224 0.38694,-0.86993 1.14677,-1.51401 1.92764,-1.92912 0.60272,-0.51622 1.2893,-0.90084 2.08761,-1.16192 0.8148,-0.52112 1.86229,-0.66308 2.82153,-0.33575 0.81381,0.30722 1.7132,0.87285 2.26556,1.44475 0.69231,0.40087 1.34571,1.09019 2.1561,1.26591 0.9844,0.30121 2.10631,0.40638 3.1758,0.40525 1.16702,0.08 2.492,0.057 2.79764,-1.30606 0.96777,-0.93729 -0.21383,-2.24026 -0.6723,-3.15234 -0.61191,-0.86262 -1.2326,-1.78803 -1.99763,-2.50013 -0.65955,-0.80631 -1.41618,-1.61922 -2.10824,-2.45851 -0.49375,-0.68704 -0.78971,-1.17939 -1.11112,-1.91799 -0.17238,-1.4039 -1.49757,-1.98502 -2.18353,-3.03245 -0.23363,-1.00321 -1.51634,-1.58197 -1.62645,-0.18587 -0.31353,0.89149 -1.19175,1.10378 -1.8617,1.60894 -0.53415,1.02212 -0.78447,2.28254 -1.73105,3.0116 -0.79876,0.6105 -1.76374,1.32477 -2.85642,1.14048 -0.87811,-0.0631 -1.2865,-1.11532 -0.19127,-1.1654 0.98134,-0.64198 1.14324,-1.92028 0.37407,-2.79651 -0.36618,-0.90857 -1.47846,-0.6427 -2.09531,-0.23221 -0.75298,1.01018 -1.217,2.16796 -1.37285,3.42415 -0.11856,1.19 -1.12829,1.64631 -2.03101,2.14194 -0.94607,0.35111 -1.77572,1.04934 -2.68797,1.45854 -0.66097,0.3123 -1.25175,0.82378 -1.90052,1.17982 -0.82121,0.36666 -1.58645,0.93097 -2.57804,0.747 -1.32448,0.14258 -1.32975,-1.53382 -0.77278,-2.34769 0.49083,-1.40663 0.69283,-2.93989 0.23161,-4.38355 -0.12396,-1.25424 -0.87838,-2.42697 -0.57249,-3.69503 0.65915,-1.22732 2.11346,-1.48724 2.96405,-2.49845 1.23962,-1.35145 1.08008,-3.54343 2.58363,-4.71912 0.78126,-0.43447 1.71859,-0.55169 2.61292,-0.73068 1.08103,-0.11486 2.24284,-0.10882 3.15506,-0.68674 0.76081,-0.16087 1.43963,-0.56143 2.03816,-1.06577 0.84447,-0.49699 1.66163,-0.99555 2.50821,-1.55737 0.62618,-0.48203 1.33591,-1.07751 2.00823,-1.61471 0.71208,-0.75801 1.63556,-1.28929 2.46248,-1.81388 0.79652,-0.45624 1.76759,-0.69909 2.74784,-0.70883 1.27252,0.0307 2.60713,-0.0175 3.80445,0.38396 0.97392,0.76803 1.11431,2.18307 1.52881,3.28599 0.4605,1.40022 0.91317,2.95387 2.23681,3.79108 1.14847,0.67465 2.15504,1.53335 3.11738,2.45315 0.80228,0.90841 1.79067,1.64618 2.561,2.5966 0.51904,0.43576 1.29063,1.57906 1.93986,0.72615 0.68796,-0.51746 1.38154,-0.96018 2.08451,-1.35824 0.79354,-0.3779 1.68991,-0.68365 2.52421,-0.98338 1.20229,-0.0927 1.01733,-1.62837 1.67797,-2.35685 0.47017,-0.91516 1.2076,-1.67556 2.0473,-2.23723 0.72086,-0.42096 2.54742,-1.68225 0.91852,-2.05505 -1.24106,0.037 -2.1109,-0.91683 -2.50558,-2.00003 -1.07431,-0.85013 -0.21947,-2.04555 0.88276,-2.18616 0.60764,-0.39844 2.44871,-0.95111 1.55277,-1.76275 -1.02451,0.006 -1.94091,0.61025 -2.76533,1.11419 -1.01223,0.4135 -1.70444,1.38588 -2.54918,2.03603 -0.83776,0.76026 -2.18679,0.49532 -2.93529,-0.30524 -0.92435,-0.82454 -1.18498,-2.0521 -1.88901,-3.01886 -0.69048,-0.7661 -1.41682,-1.67459 -1.28969,-2.75294 -0.0501,-1.14963 0.63494,-2.01413 1.40777,-2.76418 0.84587,-0.77985 1.32079,-1.82412 2.00618,-2.70615 0.64535,-1.53711 1.32857,-3.08385 1.65754,-4.72981 0.59158,-1.80157 1.0216,-3.65814 1.75094,-5.4087 0.39823,-1.26319 1.16226,-2.37329 1.78127,-3.53511 0.90522,-0.85225 0.15938,-1.68677 -0.87889,-1.7153 -1.06147,-0.0351 -2.06404,-0.52882 -2.99748,-0.92893 -0.75771,-0.29895 -1.5074,-0.95394 -2.39814,-0.92602 -1.23445,0.21186 -1.82383,-1.21663 -2.96104,-1.2849 -0.76644,0.1753 -1.57543,0.29859 -2.12218,0.80445 -0.76168,0.58678 -1.45729,1.22984 -1.74243,2.21183 -0.6583,0.68518 0.15551,3.02355 0.93823,2.07007 -0.88641,-1.02121 1.18746,-1.9883 1.9798,-1.45378 1.10907,0.1284 1.94887,1.26555 1.80475,2.40878 0.0434,1.44082 -0.86177,2.68249 -1.90838,3.5645 -0.70033,0.63892 -1.48717,0.9827 -2.41394,1.11721 -0.99998,0.0387 -2.16234,0.0879 -2.9887,-0.44778 -0.59826,-0.13052 -1.05739,-0.66007 -1.55902,-0.92297 -0.71711,-0.7131 -1.3929,-1.6788 -1.61124,-2.72658 -0.30262,-2.11022 0.14963,-4.32488 1.12526,-6.20526 0.66173,-0.98432 1.48187,-1.84808 2.44256,-2.50103 0.77946,-0.70269 1.83013,-0.92692 2.82534,-1.21708 1.00118,-0.15248 1.52428,-1.28705 2.414,-1.58194 0.50403,-0.43844 1.28724,-0.45677 1.84264,-0.84303 0.98353,-0.5387 2.21727,-0.0602 3.30905,-0.0838 1.48415,0.19548 3.02896,0.23857 4.3995,0.86439 0.90446,0.26475 1.81432,0.59481 2.62538,1.13915 0.98303,0.29509 2.01706,1.70187 2.98823,0.67279 0.59541,-0.77418 1.32884,-1.42856 2.1117,-2.00854 1.32664,-0.62743 1.05012,-2.37253 1.54017,-3.57267 0.35753,-0.84247 -0.25722,-2.68686 1.29506,-2.00539 0.89737,0.40032 1.72142,0.8838 2.64604,1.26157 0.68369,0.48745 1.34244,1.07493 1.86892,1.72119 1.00377,1.30887 1.34256,-0.82746 1.93071,-1.37323 0.43698,-0.95726 1.63098,-1.82161 1.92304,-0.24078 0.68554,0.88941 1.37095,1.85675 1.48252,3.0176 0.54186,1.26127 2.47683,0.0813 3.60743,0.26546 0.87626,-0.0656 1.83903,0.0944 2.3936,0.75785 0.0324,1.13431 0.61196,1.80677 1.66342,2.05879 1.26099,0.45071 2.32225,1.47929 2.8877,2.71446 0.40964,0.92578 1.01164,1.66368 1.83732,2.20099 0.86925,0.376 1.77326,0.72537 2.69684,1.03925 1.06275,0.13252 2.07554,0.60391 2.71153,1.49748 0.50773,1.06411 0.10838,2.28118 -1.09998,2.42565 0.36182,0.76345 1.26425,0.90324 1.86023,1.50381 0.92118,0.61751 1.27648,1.85727 1.88794,2.77754 1.21308,1.36694 -2.4206,-0.0728 -1.41972,1.71707 0.59385,1.13431 0.85524,2.37766 0.74924,3.65696 0.0679,1.52183 -0.50124,3.11758 0.25784,4.54905 0.25787,1.12058 2.12302,1.94208 0.65341,3.01263 -1.50553,0.88959 -0.0147,2.7605 -0.55905,4.10491 -0.20223,1.99406 -1.40217,3.67778 -1.88929,5.58536 -0.41221,1.11379 0.19862,2.75197 1.57693,2.58117 0.26529,0.8297 -1.79669,1.77248 -2.67252,1.11786 -1.18602,-0.96832 -1.91691,0.43723 -2.18265,1.41957 0.0287,1.50685 -0.25569,2.94513 -0.67475,4.37735 -0.0238,1.07934 0.74975,2.291 -0.0167,3.27234 -0.42527,1.08105 -0.63152,2.2262 -0.87321,3.36002 0.19696,0.49376 1.15665,1.82322 0.13392,1.01492 -1.05291,-0.47203 -1.76505,-1.49817 -1.91783,-2.62775 -0.46208,-1.39498 -1.4755,0.21835 -2.18377,0.4538 -0.47031,0.56358 -1.79312,0.29182 -1.74898,1.26823 0.5587,0.96803 1.66488,1.4105 2.51493,2.07578 1.16575,0.66276 2.05839,1.85728 2.93534,2.90091 0.87086,1.31625 2.0801,2.42675 3.32283,3.36112 0.61596,0.41911 1.22728,0.6729 1.87314,0.95163 0.81832,0.30501 1.62259,0.59682 2.48355,0.90036 0.83067,0.25397 1.45781,0.75284 2.27521,0.99155 0.95856,0.41956 1.84513,1.13327 2.78932,1.45809 0.89596,0.29234 1.66297,0.82956 2.51697,1.14808 0.82882,0.33028 1.56672,0.78611 2.29538,1.21754 0.44484,0.25545 0.9038,0.48337 1.29089,0.82253 0.84794,0.43274 1.51129,1.0611 2.22921,1.68456 1.76199,1.21381 2.60094,3.25481 3.64122,5.04114 0.93243,1.38158 2.62282,2.07623 3.39554,3.59952 0.73314,0.92744 0.97066,2.32389 2.07709,2.8859 0.93563,0.584 2.61945,0.12969 2.46575,-1.19453 -0.17971,-1.21525 -1.31459,-1.93516 -2.31799,-2.39243 -0.81059,-0.47587 -1.69356,-0.94476 -2.40767,-1.61092 -0.96907,-0.84649 -1.34349,-2.25561 -1.50667,-3.50736 -0.21291,-1.26389 0.49413,-3.14835 -1.00892,-3.82705 -0.83166,-0.61202 -1.80542,0.793 -2.39617,0.24266 -0.33286,-1.1359 0.26313,-2.46192 1.24968,-3.0577 0.50174,-0.47122 2.33601,-1.07985 0.93095,-1.64718 -0.90042,-0.33909 -1.69839,-0.73199 -2.68309,-0.8577 -1.46085,-0.50613 -3.09382,0.007 -4.52324,-0.6249 -0.94096,-0.20194 -1.92241,-0.75563 -2.52483,-1.51452 -0.91111,-0.78092 -0.9627,-2.27581 -1.64617,-3.24703 -0.52952,-0.80681 -1.42461,-1.39357 -2.15973,-1.88613 -0.8546,-0.52916 -1.69002,-1.12359 -2.35876,-1.92619 -1.23648,-1.37778 -1.30587,-3.32486 -1.36101,-5.08181 -0.004,-0.68746 0.40982,-2.52623 1.14082,-1.17305 0.29097,0.71247 2.50937,1.65211 1.6561,0.2024 -0.94745,-0.82151 -1.44565,-1.96794 -1.4529,-3.22173 -0.20515,-1.59971 0.24184,-3.16001 0.64778,-4.68413 0.14475,-1.63005 1.2177,-2.96125 1.97073,-4.34971 0.6008,-0.98492 1.76862,-1.41367 2.37332,-2.42803 0.71986,-0.9492 1.56543,-1.87771 2.57041,-2.45597 0.75938,-0.511 1.54221,-1.1858 2.29047,-1.778 0.76663,-0.676 1.57967,-1.29458 2.36426,-1.93375 0.7217,-0.76916 1.8158,-1.22769 2.5015,-2.10162 1.09774,-1.05124 1.87769,-2.34489 2.5589,-3.69007 0.70762,-0.96645 1.28139,-1.98835 1.68984,-3.11161 0.2286,-0.51819 0.42326,-1.04211 0.31213,-1.61614 -0.0595,-0.89334 0.022,-1.83362 -0.31311,-2.67466 -0.56446,-0.82629 -1.16895,-2.23289 -2.34764,-2.26936 -0.93926,-0.25897 -2.23838,-0.30921 -2.86895,0.59883 -1.19346,1.60336 2.00191,1.04937 1.50937,2.50679 -0.35862,0.94258 -1.06044,1.83705 -2.05843,2.05512 -1.00695,0.15388 -1.83356,-0.34996 -2.59567,-0.91023 -0.94421,-0.87934 -1.10403,-2.17116 -1.00374,-3.40299 0.14566,-1.71222 1.17147,-3.37416 2.73665,-4.14012 0.92762,-0.38515 1.95754,-0.61163 3.00703,-0.64848 1.10023,-0.11596 2.12855,0.19784 3.1049,0.56054 0.74027,0.3587 1.40006,0.73004 2.15622,1.06739 0.8182,0.58164 1.6901,1.10094 2.28166,1.98074 0.74147,0.73897 1.35135,1.64496 1.80409,2.62309 0.43013,1.10033 1.08529,2.16998 0.89606,3.39948 -0.33156,1.5869 -0.13984,3.30752 -0.95389,4.76934 -0.34878,0.93788 -0.86824,1.75566 -1.20831,2.65747 -0.6828,1.03328 -1.28959,2.13693 -2.10945,3.08791 -0.68932,0.77033 -1.37734,1.6524 -2.13657,2.41052 -0.67617,0.7424 -1.34839,1.4798 -1.97722,2.2977 -0.83389,0.67065 -1.39403,1.62227 -2.04216,2.40734 -0.63742,0.74919 -1.41261,1.54347 -1.76067,2.51666 -0.32673,1.1284 -0.7848,2.19862 -1.08687,3.32855 -0.30794,1.41625 -0.24261,2.98126 0.39394,4.27303 0.43893,0.95437 0.98891,1.875 1.67126,2.72092 0.35389,0.81503 1.97069,1.57758 1.63529,0.10205 -0.36751,-1.11286 -1.05075,-2.28207 -0.37928,-3.45963 0.92491,-0.78289 1.81008,-1.67501 1.23965,-2.99713 -0.19545,-1.24589 0.47853,-2.52966 1.18244,-3.51317 0.54089,-0.69224 1.30728,-1.29517 2.1988,-1.48175 0.95838,-0.39835 3.14389,1.3949 1.78839,1.88998 -0.84316,0.21153 -1.88588,0.49623 -1.95239,1.58639 -0.24029,1.47381 0.58253,2.99942 1.76753,3.80839 0.85069,0.50805 1.67051,1.03359 2.51293,1.53084 0.7329,0.48305 1.32933,1.14308 1.91774,1.77903 0.70324,0.75633 1.21917,1.91542 0.46904,2.84183 -0.85569,1.07041 -1.08054,2.67846 -0.39347,3.88491 0.66149,0.92435 1.50799,1.83732 2.42422,2.41739 0.70228,0.4191 1.40355,0.99303 2.08352,1.51815 2.32387,1.90926 3.28045,5.03644 3.17932,7.96912 0.0555,1.99285 -0.31917,4.00274 -1.1618,5.8013 -0.61907,1.1304 0.99933,2.06522 1.97939,2.05737 0.64975,0.88382 -1.27211,1.84538 -1.58254,2.78237 -0.62335,0.96519 -0.62704,2.24197 -0.67953,3.40181 -0.0347,1.4093 0.0459,2.961 -0.86473,4.1422 -0.37334,0.90259 -0.96197,1.66726 -1.56437,2.36972 -0.67853,0.32737 -1.71818,0.81324 -0.82338,1.66594 0.5056,1.43339 -0.5784,2.87593 -1.51831,3.86149 -0.83517,0.66601 -0.63157,2.30183 0.49851,2.57221 -0.29557,0.81483 -1.6145,0.67452 -2.32877,1.08686 -0.97589,0.48596 -2.15887,0.47253 -3.20893,0.19508 -1.56357,-0.35991 -1.05786,-2.36477 -0.006,-3.02022 0.98204,-0.60247 2.23282,-1.71902 1.59886,-2.97851 -0.91482,-0.74518 -2.28508,-0.50418 -3.35195,-1.01289 -0.8884,-0.6237 -2.33823,-1.136 -2.11306,0.594 -0.10776,1.25636 -0.70702,2.37902 -1.31909,3.43981 -0.60926,1.12695 -1.46677,2.09311 -2.14942,3.16396 -0.90908,1.13057 -1.69489,2.41971 -2.8973,3.26702 -0.70471,0.86516 -1.71505,1.54317 -2.51158,2.36212 -0.73483,0.93722 -1.89227,1.46885 -2.51909,2.5255 -0.78128,0.9885 -0.52278,2.39607 -0.30633,3.54517 0.13599,1.07235 1.36262,1.19191 1.9163,1.836 0.86859,0.7229 0.9116,1.88156 1.34274,2.84969 0.51458,1.01362 1.5354,1.73309 1.76546,2.88402 0.048,1.1843 -0.66941,2.22101 -1.54582,2.87961 -0.97232,0.65956 -1.47942,1.90237 -1.74704,3.04015 -0.72494,1.1943 -1.72239,2.2691 -2.0497,3.66369 -0.25616,0.96492 -1.04196,1.67641 -1.94404,1.90456 -1.05943,-0.009 -2.22013,-0.33612 -2.66968,0.97606 -0.73423,1.19573 -0.81924,2.71885 -1.91434,3.6942 -0.87376,1.31678 -2.13384,2.67292 -1.90259,4.38509 0.1231,1.20437 0.38231,2.51011 -0.41779,3.55137 -0.62858,0.75503 -1.43325,1.23077 -2.29658,1.69136 -1.12588,0.51142 -1.2367,2.14925 -2.66572,2.28886 -0.72745,-0.81877 1.07469,-2.14821 0.74931,-3.26631 -0.91678,-0.31521 -1.75917,0.81597 -2.47633,1.34189 -0.64433,0.0163 0.12232,-2.49206 -1.13523,-1.39056 -0.72779,1.04166 0.45038,2.45009 -0.50253,3.42053 -0.39589,0.92341 -1.26084,1.34897 -2.13186,1.61993 -1.2875,0.23693 -2.53428,0.65911 -3.76312,1.04723 -1.87521,0.6978 -3.97187,0.78337 -5.94658,0.67311 z"
       id="path9378"
       style="fill:#b3b3b3;fill-opacity:1;stroke:none;stroke-width:0.714487" /><path
       d="m 899.39828,623.19087 c -1.30715,-0.4551 -0.85459,-2.15558 -0.69294,-3.2075 0.25285,-1.85527 0.98896,-3.69139 0.61109,-5.58328 0.1265,-0.96635 1.14822,-1.2448 1.81852,-1.72036 1.0729,-0.54425 2.01521,-1.38487 2.68024,-2.41543 0.57328,-1.07479 0.79542,-2.28391 1.67542,-3.16933 0.7805,-0.6407 1.57764,-1.21896 2.5221,-1.60023 1.03354,-0.38332 1.99293,-0.78748 2.73286,-1.62425 0.95476,-1.0267 1.64773,-2.33736 2.75771,-3.18456 0.79981,-1.00995 1.8889,-1.77342 2.6179,-2.85984 0.64415,-0.89956 1.27004,-1.80551 1.79698,-2.79186 0.54551,-0.83554 1.36764,-1.85887 0.99162,-2.95593 -0.51399,-0.89052 -1.47454,-1.31667 -2.27032,-1.86699 -0.83538,-0.49837 -1.60959,-0.88999 -2.37256,-1.40152 -0.74637,-0.40965 -1.58269,-0.80318 -2.26339,-1.42556 -0.9165,-0.68449 -1.35649,-1.84057 -1.9247,-2.81435 -0.36105,-1.33247 -1.85683,-1.80861 -2.29966,-3.08418 -0.35236,-0.72875 -1.35995,-1.66427 -2.11845,-1.23114 -1.0177,0.71389 -1.15567,2.1261 -1.12622,3.2806 -0.0765,1.21554 0.11472,2.50779 -0.35659,3.65947 -0.72188,0.71152 -1.32328,1.48329 -2.03884,2.13014 -0.91926,0.34765 -2.11267,0.24681 -2.91954,-0.26783 -1.18228,-0.23996 -2.4855,-0.61213 -3.61673,-0.004 -0.59504,0.58205 -1.46073,-0.13841 -2.08942,0.51846 -0.91536,-0.0815 -2.04211,-0.40801 -2.84029,0.16485 -1.25298,0.30768 -2.2105,-0.77411 -3.43211,-0.62671 -0.95979,0.52804 -2.12474,0.19782 -3.19367,0.26543 -0.93441,-0.0254 -2.18836,0.50789 -2.03073,-0.90411 -0.43409,-1.27468 -3.30251,-0.68592 -2.31805,0.67802 0.82952,1.0666 0.0691,2.41605 -0.26495,3.51993 -0.35143,0.96094 -0.50112,2.12984 -1.19841,2.88335 -0.72749,0.86514 -2.03403,0.62595 -3.07428,0.76206 -1.86407,0.0867 -3.74467,0.32968 -5.60392,0.1944 -1.29335,-0.0468 -2.17401,-1.27082 -1.74705,-2.57538 0.40849,-2.07163 0.21091,-4.1873 0.36229,-6.27749 0.28523,-0.98846 1.11838,-1.65304 1.88784,-2.20269 0.52252,-0.3607 1.06203,-0.75966 1.60075,-1.22363 1.06483,-0.95418 1.83695,-2.18423 2.75897,-3.25379 0.73435,-0.76791 1.57788,-1.24332 2.60265,-1.47536 1.04589,-0.29814 2.13949,-0.25161 3.22716,-0.18546 1.44642,0.0382 2.93522,0.034 4.28685,0.53925 1.11722,0.24699 2.25566,0.43582 3.40783,0.60972 1.49026,0.10956 3.00554,0.0992 4.4944,-0.0366 1.18126,-0.41974 0.96442,-1.88577 0.93159,-2.89081 -0.0802,-3.2194 -0.36355,-6.46591 0.0759,-9.66912 0.27298,-1.12037 0.65262,-2.21831 0.96967,-3.32223 -0.1279,-1.18129 -0.87147,-2.66185 -2.28009,-2.48546 -2.59433,-0.10798 -5.21008,-0.28521 -7.72701,-0.95323 -0.90182,-0.28443 -1.82392,-0.45886 -2.67496,-0.81359 -0.87976,-0.25899 -1.70349,-0.72142 -2.61103,-0.97497 -1.01122,-0.33521 -1.84804,-0.9491 -2.79838,-1.44824 -0.75207,-0.5962 -1.58028,-1.0466 -2.27304,-1.69634 -0.91224,-0.71478 -1.87808,-1.54209 -2.77086,-2.35412 -0.99961,-0.93434 -2.02727,-1.83377 -3.02459,-2.77171 -0.90315,-0.48784 -2.02071,-0.32161 -2.93624,-0.76861 -1.10947,-0.40505 -2.27787,-0.79901 -3.20838,-1.53627 -0.65498,-0.42812 -1.275,-0.82063 -1.97814,-1.06465 -0.96649,-0.50481 -2.03925,-0.85753 -3.12701,-1.03175 -0.96934,-0.35122 -2.22449,-0.26452 -2.70637,0.78864 -1.06608,0.99278 -0.66807,2.69717 0.55334,3.35963 1.24247,0.75717 1.32602,2.22438 1.53629,3.50284 0.55095,1.20205 1.83393,-0.01 2.46164,-0.52754 1.12286,-0.63691 1.13655,1.68322 1.09165,2.45127 0.0438,1.5418 -0.81421,2.91254 -0.84547,4.44725 0.27487,1.37367 -2.36274,1.99969 -0.86976,3.1648 0.62241,1.06584 1.5955,1.99892 2.83901,2.21756 1.36552,-0.21034 1.97884,1.04046 1.73906,2.2325 -0.007,1.77921 0.0361,3.56969 -0.0164,5.34393 -0.36755,1.47049 -1.2542,2.72684 -1.72434,4.16442 -0.38528,1.12309 -1.44031,1.88193 -2.46577,2.23258 -1.04667,0.2964 -2.22855,0.56033 -3.32244,0.2181 -0.94596,-0.28716 -1.8465,-0.97566 -2.01964,-2.03865 -0.37822,-1.14821 -1.38717,-2.05232 -2.32932,-2.64148 -0.92286,-0.63327 -1.08839,-1.90169 -1.75471,-2.75829 -0.8362,-1.08194 -0.36302,-2.45564 -0.56885,-3.68906 -0.45109,-1.20172 -1.48485,-2.07853 -2.16112,-3.16266 -0.94497,-1.00854 -0.71034,-2.45704 -0.7291,-3.72386 -0.0552,-2.46779 0.14654,-4.92654 0.4071,-7.37734 0.15939,-3.49594 0.26312,-7.04248 -0.52464,-10.47751 -0.27106,-1.29925 -0.52403,-2.73058 0.23551,-3.92724 0.40559,-0.93795 0.85951,-1.82716 1.2395,-2.80224 0.38694,-0.86993 1.14677,-1.51401 1.92764,-1.92912 0.60272,-0.51622 1.2893,-0.90084 2.08761,-1.16192 0.8148,-0.52112 1.86229,-0.66308 2.82153,-0.33575 0.81381,0.30722 1.7132,0.87285 2.26556,1.44475 0.69231,0.40087 1.34571,1.09019 2.1561,1.26591 0.9844,0.30121 2.10631,0.40638 3.1758,0.40525 1.16702,0.08 2.492,0.057 2.79764,-1.30606 0.96777,-0.93729 -0.21383,-2.24026 -0.6723,-3.15234 -0.61191,-0.86262 -1.2326,-1.78803 -1.99763,-2.50013 -0.65955,-0.80631 -1.41618,-1.61922 -2.10824,-2.45851 -0.49375,-0.68704 -0.78971,-1.17939 -1.11112,-1.91799 -0.17238,-1.4039 -1.49757,-1.98502 -2.18353,-3.03245 -0.23363,-1.00321 -1.51634,-1.58197 -1.62645,-0.18587 -0.31353,0.89149 -1.19175,1.10378 -1.8617,1.60894 -0.53415,1.02212 -0.78447,2.28254 -1.73105,3.0116 -0.79876,0.6105 -1.76374,1.32477 -2.85642,1.14048 -0.87811,-0.0631 -1.2865,-1.11532 -0.19127,-1.1654 0.98134,-0.64198 1.14324,-1.92028 0.37407,-2.79651 -0.36618,-0.90857 -1.47846,-0.6427 -2.09531,-0.23221 -0.75298,1.01018 -1.217,2.16796 -1.37285,3.42415 -0.11856,1.19 -1.12829,1.64631 -2.03101,2.14194 -0.94607,0.35111 -1.77572,1.04934 -2.68797,1.45854 -0.66097,0.3123 -1.25175,0.82378 -1.90052,1.17982 -0.82121,0.36666 -1.58645,0.93097 -2.57804,0.747 -1.32448,0.14258 -1.32975,-1.53382 -0.77278,-2.34769 0.49083,-1.40663 0.69283,-2.93989 0.23161,-4.38355 -0.12396,-1.25424 -0.87838,-2.42697 -0.57249,-3.69503 0.65915,-1.22732 2.11346,-1.48724 2.96405,-2.49845 1.23962,-1.35145 1.08008,-3.54343 2.58363,-4.71912 0.78126,-0.43447 1.71859,-0.55169 2.61292,-0.73068 1.08103,-0.11486 2.24284,-0.10882 3.15506,-0.68674 0.76081,-0.16087 1.43963,-0.56143 2.03816,-1.06577 0.84447,-0.49699 1.66163,-0.99555 2.50821,-1.55737 0.62618,-0.48203 1.33591,-1.07751 2.00823,-1.61471 0.71208,-0.75801 1.63556,-1.28929 2.46248,-1.81388 0.79652,-0.45624 1.76759,-0.69909 2.74784,-0.70883 1.27252,0.0307 2.60713,-0.0175 3.80445,0.38396 0.97392,0.76803 1.11431,2.18307 1.52881,3.28599 0.4605,1.40022 0.91317,2.95387 2.23681,3.79108 1.14847,0.67465 2.15504,1.53335 3.11738,2.45315 0.80228,0.90841 1.79067,1.64618 2.561,2.5966 0.51904,0.43576 1.29063,1.57906 1.93986,0.72615 0.68796,-0.51746 1.38154,-0.96018 2.08451,-1.35824 0.79354,-0.3779 1.68991,-0.68365 2.52421,-0.98338 1.20229,-0.0927 1.01733,-1.62837 1.67797,-2.35685 0.47017,-0.91516 1.2076,-1.67556 2.0473,-2.23723 0.72086,-0.42096 2.54742,-1.68225 0.91852,-2.05505 -1.24106,0.037 -2.1109,-0.91683 -2.50558,-2.00003 -1.07431,-0.85013 -0.21947,-2.04555 0.88276,-2.18616 0.60764,-0.39844 2.44871,-0.95111 1.55277,-1.76275 -1.02451,0.006 -1.94091,0.61025 -2.76533,1.11419 -1.01223,0.4135 -1.70444,1.38588 -2.54918,2.03603 -0.83776,0.76026 -2.18679,0.49532 -2.93529,-0.30524 -0.92435,-0.82454 -1.18498,-2.0521 -1.88901,-3.01886 -0.69048,-0.7661 -1.41682,-1.67459 -1.28969,-2.75294 -0.0501,-1.14963 0.63494,-2.01413 1.40777,-2.76418 0.84587,-0.77985 1.32079,-1.82412 2.00618,-2.70615 0.64535,-1.53711 1.32857,-3.08385 1.65754,-4.72981 0.59158,-1.80157 1.0216,-3.65814 1.75094,-5.4087 0.39823,-1.26319 1.16226,-2.37329 1.78127,-3.53511 0.90522,-0.85225 0.15938,-1.68677 -0.87889,-1.7153 -1.06147,-0.0351 -2.06404,-0.52882 -2.99748,-0.92893 -0.75771,-0.29895 -1.5074,-0.95394 -2.39814,-0.92602 -1.23445,0.21186 -1.82383,-1.21663 -2.96104,-1.2849 -0.76644,0.1753 -1.57543,0.29859 -2.12218,0.80445 -0.76168,0.58678 -1.45729,1.22984 -1.74243,2.21183 -0.6583,0.68518 0.15551,3.02355 0.93823,2.07007 -0.88641,-1.02121 1.18746,-1.9883 1.9798,-1.45378 1.10907,0.1284 1.94887,1.26555 1.80475,2.40878 0.0434,1.44082 -0.86177,2.68249 -1.90838,3.5645 -0.70033,0.63892 -1.48717,0.9827 -2.41394,1.11721 -0.99998,0.0387 -2.16234,0.0879 -2.9887,-0.44778 -0.59826,-0.13052 -1.05739,-0.66007 -1.55902,-0.92297 -0.71711,-0.7131 -1.3929,-1.6788 -1.61124,-2.72658 -0.30262,-2.11022 0.14963,-4.32488 1.12526,-6.20526 0.66173,-0.98432 1.48187,-1.84808 2.44256,-2.50103 0.77946,-0.70269 1.83013,-0.92692 2.82534,-1.21708 1.00118,-0.15248 1.52428,-1.28705 2.414,-1.58194 0.50403,-0.43844 1.28724,-0.45677 1.84264,-0.84303 0.98353,-0.5387 2.21727,-0.0602 3.30905,-0.0838 1.48415,0.19548 3.02896,0.23857 4.3995,0.86439 0.90446,0.26475 1.81432,0.59481 2.62538,1.13915 0.98303,0.29509 2.01706,1.70187 2.98823,0.67279 0.59541,-0.77418 1.32884,-1.42856 2.1117,-2.00854 1.32664,-0.62743 1.05012,-2.37253 1.54017,-3.57267 0.35753,-0.84247 -0.25722,-2.68686 1.29506,-2.00539 0.89737,0.40032 1.72142,0.8838 2.64604,1.26157 0.68369,0.48745 1.34244,1.07493 1.86892,1.72119 1.00377,1.30887 1.34256,-0.82746 1.93071,-1.37323 0.43698,-0.95726 1.63098,-1.82161 1.92304,-0.24078 0.68554,0.88941 1.37095,1.85675 1.48252,3.0176 0.54186,1.26127 2.47683,0.0813 3.60743,0.26546 0.87626,-0.0656 1.83903,0.0944 2.3936,0.75785 0.0324,1.13431 0.61196,1.80677 1.66342,2.05879 1.26099,0.45071 2.32225,1.47929 2.8877,2.71446 0.40964,0.92578 1.01164,1.66368 1.83732,2.20099 0.86925,0.376 1.77326,0.72537 2.69684,1.03925 1.06275,0.13252 2.07554,0.60391 2.71153,1.49748 0.50773,1.06411 0.10838,2.28118 -1.09998,2.42565 0.36182,0.76345 1.26425,0.90324 1.86023,1.50381 0.92118,0.61751 1.27648,1.85727 1.88794,2.77754 1.21308,1.36694 -2.4206,-0.0728 -1.41972,1.71707 0.59385,1.13431 0.85524,2.37766 0.74924,3.65696 0.0679,1.52183 -0.50124,3.11758 0.25784,4.54905 0.25787,1.12058 2.12302,1.94208 0.65341,3.01263 -1.50553,0.88959 -0.0147,2.7605 -0.55905,4.10491 -0.20223,1.99406 -1.40217,3.67778 -1.88929,5.58536 -0.41221,1.11379 0.19862,2.75197 1.57693,2.58117 0.26529,0.8297 -1.79669,1.77248 -2.67252,1.11786 -1.18602,-0.96832 -1.91691,0.43723 -2.18265,1.41957 0.0287,1.50685 -0.25569,2.94513 -0.67475,4.37735 -0.0238,1.07934 0.74975,2.291 -0.0167,3.27234 -0.42527,1.08105 -0.63152,2.2262 -0.87321,3.36002 0.19696,0.49376 1.15665,1.82322 0.13392,1.01492 -1.05291,-0.47203 -1.76505,-1.49817 -1.91783,-2.62775 -0.46208,-1.39498 -1.4755,0.21835 -2.18377,0.4538 -0.47031,0.56358 -1.79312,0.29182 -1.74898,1.26823 0.5587,0.96803 1.66488,1.4105 2.51493,2.07578 1.16575,0.66276 2.05839,1.85728 2.93534,2.90091 0.87086,1.31625 2.0801,2.42675 3.32283,3.36112 0.61596,0.41911 1.22728,0.6729 1.87314,0.95163 0.81832,0.30501 1.62259,0.59682 2.48355,0.90036 0.83067,0.25397 1.45781,0.75284 2.27521,0.99155 0.95856,0.41956 1.84513,1.13327 2.78932,1.45809 0.89596,0.29234 1.66297,0.82956 2.51697,1.14808 0.82882,0.33028 1.56672,0.78611 2.29538,1.21754 0.44484,0.25545 0.9038,0.48337 1.29089,0.82253 0.84794,0.43274 1.51129,1.0611 2.22921,1.68456 1.76199,1.21381 2.60094,3.25481 3.64122,5.04114 0.93243,1.38158 2.62282,2.07623 3.39554,3.59952 0.73314,0.92744 0.97066,2.32389 2.07709,2.8859 0.93563,0.584 2.61945,0.12969 2.46575,-1.19453 -0.17971,-1.21525 -1.31459,-1.93516 -2.31799,-2.39243 -0.81059,-0.47587 -1.69356,-0.94476 -2.40767,-1.61092 -0.96907,-0.84649 -1.34349,-2.25561 -1.50667,-3.50736 -0.21291,-1.26389 0.49413,-3.14835 -1.00892,-3.82705 -0.83166,-0.61202 -1.80542,0.793 -2.39617,0.24266 -0.33286,-1.1359 0.26313,-2.46192 1.24968,-3.0577 0.50174,-0.47122 2.33601,-1.07985 0.93095,-1.64718 -0.90042,-0.33909 -1.69839,-0.73199 -2.68309,-0.8577 -1.46085,-0.50613 -3.09382,0.007 -4.52324,-0.6249 -0.94096,-0.20194 -1.92241,-0.75563 -2.52483,-1.51452 -0.91111,-0.78092 -0.9627,-2.27581 -1.64617,-3.24703 -0.52952,-0.80681 -1.42461,-1.39357 -2.15973,-1.88613 -0.8546,-0.52916 -1.69002,-1.12359 -2.35876,-1.92619 -1.23648,-1.37778 -1.30587,-3.32486 -1.36101,-5.08181 -0.004,-0.68746 0.40982,-2.52623 1.14082,-1.17305 0.29097,0.71247 2.50937,1.65211 1.6561,0.2024 -0.94745,-0.82151 -1.44565,-1.96794 -1.4529,-3.22173 -0.20515,-1.59971 0.24184,-3.16001 0.64778,-4.68413 0.14475,-1.63005 1.2177,-2.96125 1.97073,-4.34971 0.6008,-0.98492 1.76862,-1.41367 2.37332,-2.42803 0.71986,-0.9492 1.56543,-1.87771 2.57041,-2.45597 0.75938,-0.511 1.54221,-1.1858 2.29047,-1.778 0.76663,-0.676 1.57967,-1.29458 2.36426,-1.93375 0.7217,-0.76916 1.8158,-1.22769 2.5015,-2.10162 1.09774,-1.05124 1.87769,-2.34489 2.5589,-3.69007 0.70762,-0.96645 1.28139,-1.98835 1.68984,-3.11161 0.2286,-0.51819 0.42326,-1.04211 0.31213,-1.61614 -0.0595,-0.89334 0.022,-1.83362 -0.31311,-2.67466 -0.56446,-0.82629 -1.16895,-2.23289 -2.34764,-2.26936 -0.93926,-0.25897 -2.23838,-0.30921 -2.86895,0.59883 -1.19346,1.60336 2.00191,1.04937 1.50937,2.50679 -0.35862,0.94258 -1.06044,1.83705 -2.05843,2.05512 -1.00695,0.15388 -1.83356,-0.34996 -2.59567,-0.91023 -0.94421,-0.87934 -1.10403,-2.17116 -1.00374,-3.40299 0.14566,-1.71222 1.17147,-3.37416 2.73665,-4.14012 0.92762,-0.38515 1.95754,-0.61163 3.00703,-0.64848 1.10023,-0.11596 2.12855,0.19784 3.1049,0.56054 0.74027,0.3587 1.40006,0.73004 2.15622,1.06739 0.8182,0.58164 1.6901,1.10094 2.28166,1.98074 0.74147,0.73897 1.35135,1.64496 1.80409,2.62309 0.43013,1.10033 1.08529,2.16998 0.89606,3.39948 -0.33156,1.5869 -0.13984,3.30752 -0.95389,4.76934 -0.34878,0.93788 -0.86824,1.75566 -1.20831,2.65747 -0.6828,1.03328 -1.28959,2.13693 -2.10945,3.08791 -0.68932,0.77033 -1.37734,1.6524 -2.13657,2.41052 -0.67617,0.7424 -1.34839,1.4798 -1.97722,2.2977 -0.83389,0.67065 -1.39403,1.62227 -2.04216,2.40734 -0.63742,0.74919 -1.41261,1.54347 -1.76067,2.51666 -0.32673,1.1284 -0.7848,2.19862 -1.08687,3.32855 -0.30794,1.41625 -0.24261,2.98126 0.39394,4.27303 0.43893,0.95437 0.98891,1.875 1.67126,2.72092 0.35389,0.81503 1.97069,1.57758 1.63529,0.10205 -0.36751,-1.11286 -1.05075,-2.28207 -0.37928,-3.45963 0.92491,-0.78289 1.81008,-1.67501 1.23965,-2.99713 -0.19545,-1.24589 0.47853,-2.52966 1.18244,-3.51317 0.54089,-0.69224 1.30728,-1.29517 2.1988,-1.48175 0.95838,-0.39835 3.14389,1.3949 1.78839,1.88998 -0.84316,0.21153 -1.88588,0.49623 -1.95239,1.58639 -0.24029,1.47381 0.58253,2.99942 1.76753,3.80839 0.85069,0.50805 1.67051,1.03359 2.51293,1.53084 0.7329,0.48305 1.32933,1.14308 1.91774,1.77903 0.70324,0.75633 1.21917,1.91542 0.46904,2.84183 -0.85569,1.07041 -1.08054,2.67846 -0.39347,3.88491 0.66149,0.92435 1.50799,1.83732 2.42422,2.41739 0.70228,0.4191 1.40355,0.99303 2.08352,1.51815 2.32387,1.90926 3.28045,5.03644 3.17932,7.96912 0.0555,1.99285 -0.31917,4.00274 -1.1618,5.8013 -0.61907,1.1304 0.99933,2.06522 1.97939,2.05737 0.64975,0.88382 -1.27211,1.84538 -1.58254,2.78237 -0.62335,0.96519 -0.62704,2.24197 -0.67953,3.40181 -0.0347,1.4093 0.0459,2.961 -0.86473,4.1422 -0.37334,0.90259 -0.96197,1.66726 -1.56437,2.36972 -0.67853,0.32737 -1.71818,0.81324 -0.82338,1.66594 0.5056,1.43339 -0.5784,2.87593 -1.51831,3.86149 -0.83517,0.66601 -0.63157,2.30183 0.49851,2.57221 -0.29557,0.81483 -1.6145,0.67452 -2.32877,1.08686 -0.97589,0.48596 -2.15887,0.47253 -3.20893,0.19508 -1.56357,-0.35991 -1.05786,-2.36477 -0.006,-3.02022 0.98204,-0.60247 2.23282,-1.71902 1.59886,-2.97851 -0.91482,-0.74518 -2.28508,-0.50418 -3.35195,-1.01289 -0.8884,-0.6237 -2.33823,-1.136 -2.11306,0.594 -0.10776,1.25636 -0.70702,2.37902 -1.31909,3.43981 -0.60926,1.12695 -1.46677,2.09311 -2.14942,3.16396 -0.90908,1.13057 -1.69489,2.41971 -2.8973,3.26702 -0.70471,0.86516 -1.71505,1.54317 -2.51158,2.36212 -0.73483,0.93722 -1.89227,1.46885 -2.51909,2.5255 -0.78128,0.9885 -0.52278,2.39607 -0.30633,3.54517 0.13599,1.07235 1.36262,1.19191 1.9163,1.836 0.86859,0.7229 0.9116,1.88156 1.34274,2.84969 0.51458,1.01362 1.5354,1.73309 1.76546,2.88402 0.048,1.1843 -0.66941,2.22101 -1.54582,2.87961 -0.97232,0.65956 -1.47942,1.90237 -1.74704,3.04015 -0.72494,1.1943 -1.72239,2.2691 -2.0497,3.66369 -0.25616,0.96492 -1.04196,1.67641 -1.94404,1.90456 -1.05943,-0.009 -2.22013,-0.33612 -2.66968,0.97606 -0.73423,1.19573 -0.81924,2.71885 -1.91434,3.6942 -0.87376,1.31678 -2.13384,2.67292 -1.90259,4.38509 0.1231,1.20437 0.38231,2.51011 -0.41779,3.55137 -0.62858,0.75503 -1.43325,1.23077 -2.29658,1.69136 -1.12588,0.51142 -1.2367,2.14925 -2.66572,2.28886 -0.72745,-0.81877 1.07469,-2.14821 0.74931,-3.26631 -0.91678,-0.31521 -1.75917,0.81597 -2.47633,1.34189 -0.64433,0.0163 0.12232,-2.49206 -1.13523,-1.39056 -0.72779,1.04166 0.45038,2.45009 -0.50253,3.42053 -0.39589,0.92341 -1.26084,1.34897 -2.13186,1.61993 -1.2875,0.23693 -2.53428,0.65911 -3.76312,1.04723 -1.87521,0.6978 -3.97187,0.78337 -5.94658,0.67311 z m 2.68561,-0.57961 c 2.31946,-0.29133 4.52699,-1.09546 6.75849,-1.74962 1.67287,-0.32301 1.57514,-2.06032 1.42215,-3.35354 0.61361,-1.04745 -0.34755,-1.77611 -1.20089,-0.98726 0.5338,0.90039 -0.37927,2.44236 -1.33343,1.37919 -1.01637,-0.10085 -2.07975,-1.37045 -2.82285,-0.0395 -1.13893,0.79309 -2.77754,-0.50089 -2.39119,-1.81376 -0.18336,-1.35621 0.63686,-2.57766 2.05135,-2.71095 -0.30383,1.12799 -1.12843,2.42234 -0.49501,3.58143 0.47566,0.2084 1.4251,0.0164 1.62354,-0.5067 0.2113,-0.68081 0.81713,-2.06366 1.48774,-1.73039 -0.81768,1.06868 0.64835,1.86596 0.92129,2.52129 -0.20556,-1.70107 1.7841,-1.60322 2.81233,-2.22375 1.34503,-0.26143 1.4236,-1.39187 0.81632,-2.41169 -0.35417,-1.09044 -0.64162,-2.8502 0.59236,-3.46936 0.96578,0.97195 -0.0532,2.37435 0.61074,3.47276 0.58133,0.74836 0.51718,2.48162 1.33682,2.67536 0.91969,-1.00941 0.41242,-2.42038 0.28449,-3.60704 -0.18602,-0.82528 0.8094,-2.20929 0.87115,-0.65191 0.43576,1.29477 1.34464,2.43475 1.34395,3.85713 0.11403,0.6873 -0.439,2.31426 0.82819,1.52904 1.28611,-0.57649 1.95222,-2.0912 1.50295,-3.42763 -0.28831,-1.35817 -1.11337,-2.55855 -1.2155,-3.97195 -0.38783,-1.65375 0.28714,-3.31124 1.15197,-4.69468 0.46965,-0.7866 1.33512,-0.41703 0.78822,0.40123 -0.39285,1.54013 -1.23728,3.20322 -0.60237,4.78408 0.8715,-0.3426 1.4098,-1.59791 2.11958,-2.30816 1.01013,-1.20957 0.9719,-2.99019 2.19749,-4.05115 1.16633,-0.58633 0.3767,-2.95671 1.73126,-2.92017 0.38224,0.79018 -0.10867,3.13452 1.44041,2.04939 1.05189,-0.81489 0.89478,-2.37901 1.80738,-3.32629 0.64957,-0.99032 1.44205,-1.9458 1.55908,-3.17177 0.49406,-1.51515 2.54434,-1.90026 2.75435,-3.55123 0.21529,-1.48737 -1.42521,-2.27083 -1.84296,-3.55893 -0.24781,-1.25331 -0.7973,-2.49176 -2.06229,-2.99956 -1.30113,-0.80272 -1.37183,-2.4847 -1.41355,-3.85052 0.1233,-1.51706 1.52904,-2.45527 2.49762,-3.47333 1.95535,-1.83071 4.15718,-3.43962 5.68761,-5.6751 1.5764,-2.31767 3.68439,-4.57984 3.86421,-7.51911 -0.0815,-1.76871 -0.48499,-3.54082 -0.26862,-5.31672 0.89931,-1.27074 1.31931,1.10517 1.33876,1.83023 0.34273,1.53523 1.52403,2.89235 3.12566,3.14212 1.21798,0.33935 2.79203,0.27097 3.47918,1.55073 0.44568,1.24314 -0.79839,2.23489 -1.63428,2.94628 -1.32558,0.46639 -1.57131,2.76944 0.25297,2.31963 0.984,-0.15617 2.47294,-0.43293 1.78274,-1.75084 0.15428,-1.42496 1.61917,-2.13512 2.12415,-3.41079 0.93359,-1.36964 -0.51841,-2.34578 -1.57077,-2.93603 -0.88004,-0.40966 -1.99683,-1.19774 -0.53938,-1.70824 0.44798,-0.32257 0.46753,-0.80461 0.40959,-1.3063 -0.35095,-1.25715 1.12245,-1.62661 1.61735,-2.54037 0.40874,-0.49813 0.72452,-2.37228 1.13584,-0.88969 0.27501,1.1989 -0.77895,2.24852 -0.88783,3.22457 0.45973,-0.0879 1.09437,-0.80587 0.65988,0.18591 -0.30858,0.67309 -1.6836,2.10451 -0.0869,2.02314 1.60733,-0.38435 2.69959,-1.95887 2.74903,-3.57802 0.26627,-1.73059 -0.15028,-3.51665 0.30133,-5.21775 0.18659,-0.97251 2.47357,-2.31481 1.03555,-2.98956 -1.44144,-0.38064 -2.36196,1.08359 -3.68346,1.19119 -1.68569,-0.5426 0.21118,-1.4628 1.00424,-1.77873 1.09369,-0.7528 1.51114,-2.09119 2.28797,-3.11663 0.96173,-1.81451 0.7978,-3.98489 0.45452,-5.943 -0.24811,-1.44418 -0.56132,-2.95275 -1.32819,-4.21597 -1.22295,-1.6221 -2.95381,-2.70169 -4.56451,-3.8853 -1.41275,-1.08476 -2.4094,-2.76297 -2.32734,-4.58331 -0.2146,-1.23113 0.63819,-2.23369 0.90376,-3.36557 -0.34351,-1.17226 -1.49314,-1.90703 -2.41022,-2.62972 -1.57147,-1.13205 -3.76177,-1.93793 -4.28146,-4.00921 -0.28859,-1.13207 -0.24464,-2.5431 0.82969,-3.25999 0.39403,-0.71076 2.75833,-0.25606 1.23812,-1.20345 -1.5446,-0.5271 -2.69848,1.08268 -3.18601,2.34369 -0.76929,1.11717 0.38035,2.44785 -0.31248,3.49172 -0.9071,0.91121 -1.95093,2.02877 -1.66271,3.43576 0.31995,1.24483 1.36217,2.21702 1.25393,3.60675 0.12107,1.37503 1.98493,1.95162 1.82118,3.37579 -0.96469,-0.41114 -1.15107,-2.09901 -2.27575,-2.63467 -1.36846,-0.94369 -2.93897,-1.72339 -3.80766,-3.21417 -0.62875,-0.98598 -1.2867,-1.95577 -1.88708,-2.95635 -0.54767,-1.2905 -0.21028,-2.7131 0.18246,-3.99276 0.141,-1.24607 0.31133,-2.52971 1.15938,-3.53271 1.49585,-2.14177 2.92812,-4.36937 4.91954,-6.09532 2.22829,-2.30391 4.52859,-4.66447 5.80652,-7.65603 0.71602,-1.55985 0.92167,-3.29755 1.23251,-4.97058 0.44258,-2.74354 -0.63763,-5.70538 -2.89959,-7.36902 -1.7991,-1.53709 -3.94752,-3.14141 -6.45077,-2.87395 -1.82152,0.0195 -3.61263,1.09894 -4.29073,2.82772 -0.66543,1.4912 -0.58175,3.46172 0.56987,4.69187 0.67225,0.9778 2.81764,0.67531 2.47839,-0.62895 -1.34678,-0.28311 -2.11964,-1.85387 -1.0787,-2.93117 0.67041,-1.06798 1.96191,-1.38999 3.14559,-1.28847 2.53767,-0.0481 4.58896,1.97102 5.54127,4.17096 0.97096,1.91924 0.88432,4.24219 0.064,6.19684 -0.60935,1.69666 -1.34363,3.41745 -2.73778,4.62539 -0.53573,0.4423 -1.0725,1.32137 -1.68428,1.40044 0.86527,-1.09857 1.77186,-2.19706 2.36829,-3.48237 1.02042,-2.07691 1.88588,-4.41686 1.57203,-6.76167 -0.73427,-1.24251 -0.98729,1.19191 -1.37117,1.64616 -0.90986,2.21772 -2.00351,4.41587 -3.78035,6.07535 -1.6382,1.83919 -3.92177,2.96955 -5.48818,4.88509 -1.09286,1.14507 -2.59456,1.77913 -3.63714,2.98469 -0.79832,0.90073 -1.83409,1.56092 -2.61075,2.4692 -0.76025,1.36763 -2.25929,2.28788 -2.56913,3.89118 -0.20043,1.61051 -1.46551,2.99789 -1.13093,4.68485 0.24309,1.24634 0.30617,2.5832 0.99598,3.68579 0.75852,1.04642 1.86425,1.80908 2.56132,2.89373 0.20799,1.16822 0.56889,2.3657 1.55879,3.11835 0.66098,0.76038 2.31812,0.58896 2.11384,1.94016 -0.55483,-1.31975 -2.40035,-0.43179 -3.2268,-1.54535 -1.18514,-0.88823 -0.75245,-2.76446 -2.06229,-3.57363 -1.02449,-0.45293 -2.04378,-1.20496 -3.0821,-1.47955 -0.21319,1.60292 0.33507,3.293 1.26263,4.59511 1.4821,1.69189 3.96076,2.31677 5.02359,4.39465 0.53535,1.25651 0.87543,2.78722 2.21136,3.45425 1.71281,1.02282 3.74738,1.15852 5.68776,1.25317 1.62752,0.33754 3.25705,0.84219 4.71785,1.63864 1.3189,0.99025 1.51343,2.73094 2.2974,4.08396 0.89148,2.18481 3.12136,3.29513 4.74579,4.84609 0.80351,1.15816 0.84576,2.68479 1.72654,3.81437 0.83992,1.27354 1.2447,3.21079 -0.0273,4.35189 -0.83286,0.78882 -1.57359,1.71587 -2.48565,2.39896 -0.71298,-1.10253 0.95561,-2.01783 1.72494,-2.61326 0.89651,-1.16958 0.33257,-2.80536 -0.12974,-4.04436 -0.47474,-1.39349 -1.91039,-2.19865 -2.26229,-3.66631 -0.48547,-1.44318 -2.2796,-1.51786 -3.1985,-2.60756 -1.27824,-1.15731 -0.85437,-3.37401 -2.44957,-4.28405 -1.08961,-0.51147 -2.74963,-0.41755 -3.49026,0.64331 -0.0293,0.88633 1.90605,0.0438 2.33874,1.01413 1.26207,1.21481 0.79037,3.04259 0.89801,4.58585 0.22265,1.93672 2.05656,3.16717 3.83068,3.53571 0.99061,0.44558 1.75013,1.30179 2.56585,2.00815 0.98788,0.87016 0.51777,2.63529 -0.41619,3.36867 -1.05417,1.02266 -2.8925,1.15687 -3.91426,0.0139 -1.12508,-1.17114 -1.42259,-2.95575 -2.78085,-3.94647 -1.00851,-0.83343 -2.08161,-1.67508 -2.58564,-2.92918 -0.85375,-1.45563 -1.60229,-3.03098 -2.97953,-4.08209 -2.95632,-2.78235 -6.80171,-4.24291 -10.3388,-6.109 -1.67886,-0.93756 -3.45201,-1.67157 -5.26166,-2.31198 -1.77043,-0.64048 -3.39346,-1.66253 -4.6147,-3.10949 -1.58672,-1.78114 -2.954,-3.8338 -5.04302,-5.0869 -1.33741,-0.77022 -2.13465,-2.30771 -3.71744,-2.67291 -1.1407,-0.67102 -2.35954,0.24258 -2.73244,1.33926 -0.66667,1.09797 0.15028,2.9761 1.57356,2.62539 0.99635,-0.84145 1.30832,0.52521 0.39161,0.91709 -1.21239,0.65777 -2.6629,0.20162 -3.74019,-0.49857 -1.62236,-1.4121 -1.45372,-3.9725 -0.4548,-5.69691 1.28789,-2.66384 4.40164,-3.59789 6.13404,-5.87032 0.80622,-1.34584 -1.03158,0.20487 -1.56913,0.31253 -1.23111,0.28544 -1.84411,1.63546 -3.12197,1.80719 -1.23449,0.23998 -2.88654,-0.4735 -3.77149,0.73592 -0.36909,1.177 -1.87858,1.03727 -2.80027,1.63622 -1.2103,-0.0979 -2.62028,1.52944 -1.11301,2.23107 1.68374,-0.81089 1.04799,1.95562 -0.33133,1.51173 -1.49388,-0.17326 -2.31363,-1.94677 -1.72843,-3.26843 0.53169,-1.07698 0.60775,-2.2866 1.02694,-3.39137 0.38808,-0.96185 1.95046,-1.41115 1.02162,-2.58012 -0.27424,-1.41265 0.36532,-2.92916 1.50971,-3.79344 1.2456,-0.99737 2.97053,-1.09102 4.5051,-1.03222 1.23783,-0.3214 2.09887,-1.53634 2.8862,-2.47131 0.45646,-1.29155 0.312,-2.82336 1.30747,-3.89381 0.93797,-1.49646 3.19347,-1.1981 4.01521,-2.79977 0.0581,-0.53287 -1.23415,-0.58218 -1.5683,-0.2589 -0.88576,1.02672 -2.31416,1.17212 -3.33788,2.00628 -0.74989,0.0949 -1.14244,2.34715 -1.35081,0.75245 0.32192,-0.73109 -0.62076,-1.59141 -0.99969,-0.72899 1.00959,0.52029 -1.60737,1.34207 0.1521,1.31942 0.5534,0.60518 -1.5391,1.13228 -1.00104,-0.0448 -0.19385,-1.67836 -1.04865,0.82471 -1.37951,1.30772 -0.60267,1.31702 -2.14137,1.50928 -3.41736,1.45572 -1.14149,-0.11327 -2.68397,0.32761 -2.71772,1.67378 0.59484,0.30209 1.83253,-0.3402 1.50925,1.04785 -0.006,1.48827 -1.95855,1.6923 -2.90756,0.92353 -1.3505,-0.87399 -1.59988,-2.73828 -0.89866,-4.10776 0.61581,-1.69071 2.3246,-2.47998 3.56306,-3.62693 0.48441,-0.36753 0.53598,-0.87453 0.38578,-1.41906 -0.25111,-1.55721 -0.22497,-3.22307 0.63828,-4.60221 1.2224,-1.98187 3.36046,-3.21023 5.56833,-3.7916 1.3961,-0.43379 3.07826,-1.07287 3.53183,-2.61022 -0.0928,-1.2999 -0.52308,-2.75796 0.35137,-3.90712 0.88904,-1.04813 1.9361,-2.29524 1.68467,-3.77322 -0.53799,-1.35302 -1.74575,0.90065 -2.58947,1.06962 -0.71008,0.69277 -3.22809,1.25201 -2.10938,2.52162 0.94438,1.76134 -1.96727,1.82206 -2.45038,0.40591 -0.79195,-0.48828 -0.3338,-2.63662 -1.27607,-2.30099 -1.15517,1.7308 -0.70159,3.94961 -0.27776,5.84407 0.38411,0.82479 1.37247,1.63043 0.007,2.17652 -0.92362,0.84741 -1.63367,1.9019 -2.64191,2.66501 -2.22338,2.14851 -4.93342,4.07958 -6.01057,7.11369 -0.69789,0.96329 -0.66993,2.82673 0.79831,1.60993 0.99543,-0.40238 1.82089,-1.80637 2.60365,-1.99172 0.21771,1.41083 -1.25782,2.25012 -2.24368,2.93628 -1.20297,0.69987 -2.45163,1.3475 -3.43213,2.3614 -1.57983,1.50063 -3.69115,2.36509 -5.09746,4.04886 -0.65025,0.60079 -1.30104,2.4458 0.26237,1.87614 1.26669,-0.21307 2.05584,-1.32161 3.04826,-2.01699 -0.26439,1.51554 -1.48975,2.96364 -3.11349,3.0091 -2.56623,0.23415 -5.26854,0.91883 -7.10495,2.84852 -1.15388,1.36134 -2.19585,2.81805 -3.3703,4.16486 -1.20567,1.73029 -1.71082,3.82127 -2.36226,5.79932 -0.36189,1.69937 -1.1601,3.25992 -2.1364,4.68158 0.82728,0.53507 2.43395,-0.607 3.49018,-0.89856 1.82934,-0.83916 3.82616,-1.27817 5.8407,-1.17688 1.50353,0.006 3.00755,0.21337 4.47087,0.54488 1.05598,0.96637 -1.51412,0.50914 -2.09504,0.4113 -2.40829,-0.33726 -4.93872,-0.23465 -7.18368,0.78138 -2.22488,0.94401 -4.53235,1.75965 -6.93555,2.08507 -1.96324,0.19456 -3.97961,-0.15724 -5.79771,-0.90601 -1.14079,-0.61578 -2.15244,-1.48367 -3.28365,-2.1427 -1.54766,-0.64515 -3.1285,0.39959 -4.36655,1.25236 -1.0784,0.45562 -1.5222,1.65196 -1.58708,2.73743 -0.34651,1.18412 -1.37879,2.00928 -1.63083,3.23844 -0.35453,1.23846 0.30644,2.49482 0.42128,3.73341 0.54588,3.93755 0.30677,7.94186 -0.13193,11.8778 -0.13094,1.80118 -0.31015,3.60321 -0.44832,5.40045 0.16156,1.89273 1.60425,3.27195 2.66849,4.72044 0.66169,1.23196 2.48174,1.67628 2.9472,2.79162 -0.83422,0.24935 -2.80095,0.044 -1.9173,1.49576 0.48683,1.1557 1.37307,2.20549 2.72935,1.52588 0.86956,0.0915 1.86328,0.46533 1.90171,-0.78402 0.3465,-0.7269 2.49647,-1.50251 1.35767,-0.1085 -1.00216,0.43917 -1.00303,1.43445 -1.26922,2.26706 -0.6632,-0.013 -1.1952,-1.31954 -2.00531,-0.40772 -1.33256,0.82384 0.76718,1.58848 1.02507,2.47516 0.40142,0.7659 0.6144,1.68179 1.45936,2.0888 1.08223,-0.0768 2.24485,0.10912 3.26828,-0.31394 1.51048,-0.63395 1.6433,-2.41236 2.39113,-3.66737 0.55307,-1.18188 1.03654,-2.43737 0.76698,-3.76432 -0.20973,-1.29598 0.0143,-2.67212 -0.40194,-3.92428 -0.79757,-0.32573 -2.24467,-0.86006 -2.84777,-0.54604 0.30401,1.35692 -1.65204,2.53308 -0.13568,3.56992 1.59351,-0.53211 1.3046,1.42866 1.4272,2.42026 0.42317,0.99124 -1.94317,2.03253 -1.48805,0.53169 -0.94915,0.52614 -1.79719,-0.31015 -1.13865,-1.26676 0.21955,-0.86391 -0.43821,-1.57027 -0.6496,-2.38424 -0.58393,-0.24105 -1.49372,-0.8687 -0.37685,-1.15308 1.27692,-0.34536 0.82633,-2.11483 1.993,-2.60297 -0.0104,-1.2618 -1.01711,-2.46843 -2.32409,-2.48956 -0.82773,0.0493 -1.60154,-0.51034 -0.52419,-1.04311 1.05838,-0.71622 3.00592,-0.62624 2.8614,-2.41536 0.0145,-1.26442 0.58946,-2.41557 0.81389,-3.63261 0.087,-1.80602 -1.89465,-0.45017 -2.3983,0.34657 -0.62284,0.99219 -2.54091,1.57055 -3.00204,0.17418 0.82066,-0.75721 1.6084,-1.69623 1.47212,-2.93138 0.21571,-1.2982 -0.33724,-2.586 -1.53621,-3.17109 -0.50207,-0.74402 -1.09488,-0.62038 -0.78289,0.30475 0.29076,1.39007 -0.54532,2.69024 -0.22809,4.09531 0.16999,1.44716 -0.75006,2.81622 -0.33509,4.23824 -0.0353,1.0264 0.4088,2.88368 -0.7175,3.32919 -0.0598,-1.1905 0.29997,-2.31208 -0.16152,-3.48137 -0.30986,-1.07845 0.90404,-2.37165 -0.19234,-3.17517 -0.43705,-0.38615 0.0235,-1.1069 -0.1351,-1.62226 -0.514,-0.96927 0.80741,-1.69365 0.0232,-2.55598 0.62476,-0.33517 1.56109,-0.95439 0.50926,-1.47475 0.72239,-1.07949 0.59305,-2.5414 1.59866,-3.4654 0.86172,-1.06448 1.49105,-2.27861 2.23388,-3.41806 0.009,-0.89378 2.08644,-2.57649 1.84261,-0.83704 0.0457,1.03109 -1.14474,2.17067 -0.77186,2.9425 1.34565,0.4609 2.77041,0.71975 4.04465,1.39173 1.87481,0.87253 3.5158,2.26007 5.59184,2.66922 2.499,0.71439 5.17043,0.20992 7.63924,1.0691 1.3395,0.63859 2.53905,-0.26883 3.36082,-1.25997 1.35204,-1.13586 3.45597,-0.76946 4.69145,-2.1281 0.66261,-0.34628 1.75211,-2.62121 2.0733,-0.978 -0.506,1.81325 -2.34556,2.84222 -4.08587,3.1909 -1.08442,0.14763 -2.83904,0.94076 -2.46665,2.19843 0.51632,-0.45242 1.91695,-1.46523 1.6741,0.0186 -0.71379,1.40244 1.02546,-0.65937 1.15084,0.72981 -0.36233,1.36298 1.56418,-0.65899 1.27767,0.81147 0.069,0.71394 -1.5982,1.72603 -0.91034,1.99678 0.82831,-0.10922 2.08311,-1.9887 2.53055,-0.72664 -0.92263,1.04584 -2.26031,1.97644 -3.70577,1.9097 -0.61542,-0.28954 -2.84417,-0.64154 -1.49286,-1.50189 0.45707,-0.14863 2.06291,-1.26603 0.71063,-0.65632 -1.11705,0.92628 -2.26956,-0.24287 -1.28685,-1.07338 -1.39571,0.24615 -1.92777,-1.37768 -3.18128,-1.58478 -1.17722,-0.29946 -2.44117,-0.73031 -3.64997,-0.45102 1.0091,1.38527 2.41355,2.46084 3.69795,3.59505 2.11897,1.86388 4.59872,3.26983 7.25406,4.21236 4.69645,1.85557 9.87376,2.32288 14.86235,1.65615 1.695,-0.10516 3.39937,-0.52147 5.09558,-0.29985 1.13401,-0.10223 1.64542,1.39472 0.26689,1.38654 -0.97604,0.93417 -2.18214,-0.5185 -3.24058,0.0102 0.3018,0.8066 1.41511,2.24094 -0.1314,2.66026 -1.72834,0.42223 -1.54268,-2.05073 -2.84891,-2.32585 -0.36163,0.80603 0.57462,2.25332 1.0786,3.06959 0.89284,1.02018 2.35608,0.28099 2.95156,-0.67086 1.30731,-0.92609 3.05227,-0.94666 4.58585,-0.77737 1.39474,0.12339 2.18484,1.39903 2.82471,2.48224 0.72407,0.5448 0.095,2.81831 1.20499,2.38273 0.43015,-1.64603 1.11742,-3.24176 1.23598,-4.95504 -0.52588,-0.5158 -1.3588,-1.17042 -0.73222,-1.95487 0.42944,-1.12479 -0.88581,-2.54327 -1.76164,-1.16974 -0.61288,1.22229 -1.51216,0.29459 -1.54986,-0.63281 -1.31967,0.0371 -2.46899,-0.48481 -3.77119,-0.63663 -1.17126,0.43936 -2.10409,-0.76594 -1.12768,-1.67672 0.12552,-0.77205 1.44328,-1.85709 1.31972,-0.39194 -0.74915,1.86714 1.44733,-1.32572 1.73526,0.19475 -0.63881,0.7815 0.0298,2.18721 0.97047,1.18628 0.53744,-1.05694 1.4549,-0.74178 1.74532,0.27104 0.68187,0.95279 1.51547,-1.15079 2.36174,0.051 0.79467,0.9536 1.9802,1.60982 2.53995,2.74491 0.0957,1.15048 -0.92682,2.07059 -0.81444,3.28903 -0.52312,1.77712 -0.96668,3.57791 -1.39304,5.37834 -0.41691,1.39802 -1.4665,2.47837 -2.02157,3.79191 -0.18423,1.24156 0.0129,2.52409 0.25444,3.74553 0.88258,0.85996 1.90959,1.59618 2.24859,2.91146 0.95103,0.78515 1.24157,1.88511 1.74582,2.95099 0.94982,1.44748 1.9409,2.9846 3.42966,3.93073 0.99437,0.78556 2.28133,0.56226 3.32393,1.1224 1.25142,0.75581 2.26237,2.02904 2.40719,3.51051 0.14702,1.43469 -0.98656,2.54051 -1.61563,3.7191 -1.51546,2.9209 -4.40254,4.73324 -6.25804,7.3967 -0.86069,1.30254 -2.31002,1.9426 -3.69838,2.51116 -1.27183,0.59843 -2.55523,1.43841 -3.0018,2.85193 -0.41286,1.25406 -0.80901,2.66294 -1.91531,3.49872 -0.87823,0.8664 -2.73607,0.93007 -3.04488,2.21249 0.51205,0.307 1.6191,0.29305 0.8092,1.15077 -0.85508,0.84543 -1.17542,2.00501 -1.42922,3.14292 -0.20604,1.2034 -0.75139,2.53236 -0.22389,3.7058 0.7456,0.47088 1.74648,0.0391 2.55456,-0.002 z m 11.46287,-15.25708 c 0.60666,-1.24475 1.92561,-2.02198 2.20182,-3.48895 0.80878,-1.07999 1.90426,-1.92135 2.6212,-3.07253 0.68224,-0.48312 1.84684,-1.47587 2.26322,-1.63989 -0.6716,0.84598 -1.09404,1.89918 -2.02786,2.46128 -0.3459,1.26695 -0.95954,2.59998 -2.01806,3.42284 -1.05319,0.69432 -1.79951,2.25896 -3.02222,2.47546 z m 7.58204,-8.44173 c -0.62203,-0.2035 0.69378,-1.23057 0.91497,-1.64215 1.08763,-0.7174 1.42417,-2.03833 2.59603,-2.55432 1.15778,-0.86618 2.73748,-1.91392 2.46073,-3.58574 -0.37534,-0.62765 -0.23357,-1.90274 0.59253,-0.88807 0.11024,1.05166 -0.6266,2.06821 -0.45248,3.22369 -0.074,1.59525 -1.77965,2.05725 -2.53706,3.20493 -0.5054,1.27398 -2.01464,1.35275 -2.89056,2.25343 -0.22168,0.0796 -0.46055,0.0244 -0.68416,-0.0116 z m 5.06677,-9.87444 c -0.67725,-1.05604 1.37394,-0.006 0.19303,0.10559 l -0.19299,-0.1056 z m -7.72199,-0.69025 c -0.75183,0.0984 -1.73237,-0.93062 -1.44105,-1.2645 0.23884,0.1116 2.85803,1.68104 1.44105,1.2645 z m 0.931,-1.64102 c 0.23823,-0.35986 0.27277,0.44486 0,0 z m 1.16647,-0.18832 c -0.25879,-0.9693 0.61345,-0.0859 0,0 z m -9.15386,-4.4025 c -0.36892,-1.29793 -1.49051,-1.96441 -2.14436,-3.08058 -1.2866,-0.66298 0.0909,-2.71112 1.13781,-2.28589 -0.0153,0.76366 0.74755,1.27234 0.70269,1.98464 -0.0519,0.73979 -0.27489,1.74613 0.73401,1.78173 -0.23896,0.46466 0.26798,2.02426 -0.22705,1.84095 l -0.0957,-0.10507 -0.10732,-0.13578 z m 16.74567,-5.80846 c 0.23755,-1.12406 1.47293,-1.80243 2.42549,-2.34059 0.89587,-0.31361 2.40762,-1.40915 3.06576,-0.98319 -0.85179,1.13195 -2.22721,1.54963 -3.39505,2.24881 -0.65616,0.29374 -1.36083,1.16751 -2.0962,1.07497 z m -5.97101,-0.013 c -0.70707,-0.78561 1.07719,-1.59645 1.46474,-2.34204 1.06972,-0.87154 0.82682,1.39841 -0.0442,1.60483 -0.38197,0.26867 -0.89919,0.93419 -1.42052,0.73721 z m -0.92636,-1.76384 c 0.21573,-1.02037 1.36322,-1.83661 1.86329,-2.83728 0.22697,-0.56252 1.17617,-1.57013 0.967,-0.30071 -0.50529,1.24753 -1.48877,2.23896 -2.50219,3.09394 l -0.20043,0.0917 -0.12767,-0.0477 z m 8.97446,-1.16252 c 0.056,-1.0434 1.58785,-1.50532 2.50671,-1.80282 1.08166,-0.23169 2.08836,-0.80455 3.05934,-1.23285 -0.49897,1.18036 -1.86315,1.79069 -3.02781,2.21624 -0.83555,0.18108 -1.76649,0.85891 -2.53824,0.81943 z m -9.32977,-0.80424 c 0.41003,-0.9734 1.39319,-2.05329 2.07099,-2.93765 0.57304,0.97224 -0.80187,2.0291 -1.42432,2.73636 -0.17123,0.1084 -0.42851,0.35615 -0.64667,0.20129 z m -0.89902,-1.10668 c 0.0378,-0.9402 0.86671,-2.06556 1.29988,-2.99699 1.71252,0.0459 -0.18229,1.93779 -0.46661,2.7098 -0.17871,0.27206 -0.52006,0.44578 -0.83327,0.28719 z m -1.53834,-0.44752 c -1.10794,-1.06103 0.8255,-2.31958 0.71633,-3.53481 -0.13662,-1.38531 0.30917,-2.59128 1.45317,-3.4204 0.63689,-0.65999 1.31103,-3.33085 2.3424,-1.74581 0.0284,1.45027 -1.53774,2.38102 -1.5142,3.856 0.0639,1.41561 -0.90385,2.44755 -1.63387,3.53564 -0.2657,0.5241 -0.55498,1.60327 -1.36383,1.30938 z m 12.83367,-0.26369 c -1.09788,-0.97074 1.34933,-0.95058 1.92352,-1.39794 1.21654,-0.46342 2.48023,-0.77751 3.6276,-1.40971 0.7277,-0.13753 -0.8647,0.9988 -1.14558,1.22756 -1.18949,0.93677 -2.70936,1.32719 -4.17157,1.59206 l -0.23327,-0.012 z m 1.26549,-2.32779 c 0.056,-1.10972 1.90898,-1.37191 2.80638,-1.90894 0.72306,-0.15241 2.09986,-1.29753 2.29139,-1.01609 -0.76848,1.01787 -1.99867,1.54095 -3.06058,2.19469 -0.63369,0.17428 -1.43333,0.89469 -2.03719,0.73034 z m -0.65739,-1.73268 c -0.12802,-1.05121 1.79035,-1.30185 2.54214,-1.9316 1.27226,-0.5851 2.2693,-1.56438 3.3409,-2.42978 0.65436,0.99641 -1.2182,1.95508 -1.97137,2.6266 -1.11178,0.69881 -2.23545,1.44501 -3.50438,1.82351 l -0.23555,0.006 -0.1717,-0.0946 h -4e-5 z m -82.62029,-0.29535 c -0.79422,-0.43044 -0.53166,-1.75647 0.37088,-1.01879 0.6554,0.55398 0.84515,1.72942 -0.37088,1.01879 z m 2.32984,-1.1066 c -0.7288,-0.38254 -1.69087,-1.05426 -0.39103,-1.42955 0.96151,-0.37082 1.98866,0.40213 3.04357,0.17257 -0.61916,0.67371 -1.39004,2.11173 -2.47045,1.379 l -0.18209,-0.12208 z m 80.5086,-0.44695 c -0.74161,-0.92459 1.62813,-1.40809 2.18176,-2.05449 1.13863,-0.69325 2.09916,-1.62287 3.09468,-2.4958 0.96951,0.42674 -0.88412,1.7147 -1.34658,2.2671 -1.07038,0.88999 -2.23887,1.67561 -3.4952,2.27057 l -0.23748,0.0406 -0.19718,-0.0279 z m -0.32682,-1.84691 c 0.15071,-1.11195 1.80906,-1.3333 2.52232,-2.16368 1.16431,-0.90463 2.1188,-2.10514 2.53942,-3.53185 1.05007,-1.04147 0.90314,1.70071 0.14514,2.08815 -1.35528,1.52325 -2.9058,3.01281 -4.88624,3.65583 -0.10433,0.0168 -0.23521,0.0324 -0.32064,-0.0485 z m -37.45266,-3.96227 c -0.58466,-0.66333 -2.68041,-0.3223 -1.26496,-1.44502 0.61041,-0.63747 1.64253,-2.21589 1.98476,-0.54509 0.57745,-0.35722 1.21265,-2.23846 1.69284,-0.7408 -0.12619,1.17798 -1.18281,2.62338 -2.41264,2.73091 z m -3.81095,-0.18547 c -0.57801,-1.48407 -2.38181,-0.76596 -3.54844,-1.10258 0.45657,-1.49642 2.46093,-0.32452 3.55763,-0.91123 0.74414,1.22246 1.38208,-0.2576 2.10921,-0.49751 0.53856,1.11368 -1.06444,2.56875 -2.1184,2.51134 z m 5.7139,-0.10695 c -0.006,-0.97774 1.3022,-1.94281 1.45327,-3.10502 1.16223,-0.13677 0.4142,2.13 -0.27117,2.68442 -0.25106,0.391 -0.73084,0.65354 -1.1821,0.4206 z m 1.73321,-0.0689 c 0.94337,-0.82573 0.75326,-2.63405 1.71,-3.18834 1.02078,0.83765 -0.4002,2.36254 -1.05308,3.08181 -0.17069,0.0683 -0.49017,0.28459 -0.65692,0.10653 z m -12.62826,-0.95649 c 0.10456,-0.65247 1.77577,-1.24665 1.03326,-0.24423 -0.26787,0.23027 -0.69086,0.43701 -1.03326,0.24423 z m -2.18887,-0.27332 c 0.66999,-0.42481 1.68897,-2.13657 2.38639,-1.28097 -0.32313,0.77452 -1.53244,1.72063 -2.38639,1.28097 z m -1.90828,-0.30249 c -1.29277,-0.32145 1.24856,-0.8719 1.54429,-1.47756 0.33583,-0.61887 1.50265,-0.94188 0.95451,0.11542 -0.42615,0.89518 -1.49896,1.58211 -2.4988,1.36214 z m 26.48166,-0.38242 c 0.053,-1.01916 1.21069,-1.68262 1.74574,-2.52318 0.89285,-1.43871 1.47644,-3.08488 1.78824,-4.73952 0.84118,0.46416 -0.0576,2.199 -0.32671,3.08808 -0.64173,1.49306 -1.54071,2.88721 -2.59632,4.11871 -0.15652,0.13782 -0.44967,0.26116 -0.61095,0.0559 z m 2.17842,-0.37303 c 0.14987,-1.24321 1.61302,-2.12267 1.9189,-3.43114 0.55369,-0.89936 0.41357,-2.45561 1.18189,-3.02778 0.32979,1.08229 -0.31679,2.277 -0.64931,3.33253 -0.557,1.15513 -1.07259,2.47193 -2.15214,3.23635 l -0.15148,-0.005 -0.14788,-0.10554 z m -4.03147,-0.35124 c 0.62704,-0.99079 1.61566,-1.75442 2.11828,-2.85005 0.77384,-1.28639 1.27145,-2.71821 1.60961,-4.1742 0.74031,-0.21667 0.32383,1.71536 0.17598,2.29753 -0.42798,1.97713 -1.81943,3.64527 -3.50972,4.69531 -0.0833,0.0192 -0.30247,0.161 -0.39415,0.0313 z m 7.5624,-0.0925 c -0.54908,-0.0531 -2.00932,-0.30011 -0.8163,-0.80663 0.97934,-0.22784 1.13299,-2.51172 2.09723,-1.91479 -0.13939,0.82996 -0.11323,1.81749 -0.50369,2.48335 -0.21089,0.14413 -0.51115,0.36656 -0.77724,0.23807 z m -9.79934,-0.16485 c 0.84891,-1.04487 2.1133,-1.86841 2.74088,-3.12983 0.73769,-1.31412 1.03574,-2.82059 1.48527,-4.22189 1.04881,0.5304 0.39605,2.09124 0.18664,2.98455 -0.70293,1.91244 -2.1372,3.58934 -3.99937,4.44012 -0.1295,0.0382 -0.32647,0.0679 -0.41342,-0.0729 z m -1.43616,-0.46281 c 0.37858,-1.10106 1.70514,-1.98891 2.15649,-3.19802 0.82035,-0.98895 0.39933,-2.78205 1.11266,-3.49741 0.92198,0.74761 0.19902,2.2318 -0.14053,3.16263 -0.6371,1.35245 -1.55099,2.60985 -2.75563,3.50804 -0.093,0.0709 -0.27632,0.12969 -0.37299,0.0247 z m -0.43053,-1.61486 c 0.68342,-1.02727 1.46271,-2.03274 1.87061,-3.22969 0.77903,-1.29033 0.68564,0.7166 0.25608,1.20718 -0.38989,0.86445 -0.95365,2.22329 -2.12669,2.02251 z m -0.41486,-1.10623 c 0.45701,-0.61614 0.95248,-2.03348 1.59484,-2.06857 -0.29891,0.71825 -0.79283,1.97229 -1.59484,2.06857 z m -19.13111,-1.79101 c 0.30071,-0.94202 -1.52452,-0.1883 -0.48659,-1.14665 0.21384,-0.35227 1.57481,-1.67532 1.40319,-1.12689 -0.50217,0.77422 0.14868,2.50417 -0.9287,2.56952 l -4.7e-4,-0.1333 0.0126,-0.16285 z m 67.83726,-1.45161 c 0.22673,-1.26079 1.34395,-2.18639 1.54747,-3.48034 0.5127,-1.69414 -0.15745,-3.39351 -0.39673,-5.05633 0.84223,0.41547 1.1647,1.76931 1.30278,2.72214 0.0416,1.56721 -0.0739,3.1922 -0.62303,4.66947 -0.32901,0.5089 -1.16091,1.59084 -1.83049,1.14506 z m -0.34713,-1.8354 c -0.22609,-1.17175 0.47945,-2.36528 0.44186,-3.57869 0.2817,-1.31628 -0.45158,-2.4756 -0.84642,-3.66502 -0.23541,-0.80817 0.30667,-1.21994 0.61619,-0.28252 1.12946,1.57329 1.36224,3.72968 0.87273,5.57829 -0.27754,0.58709 -0.38392,1.79614 -1.08436,1.94794 z m 3.42838,-0.89508 c 0.72375,-1.87951 0.12596,-3.89479 -0.19688,-5.79219 -0.26618,-1.22938 -0.83153,-2.36373 -1.61634,-3.33944 -0.24439,-1.04221 1.55515,0.5291 1.75902,1.07923 0.97026,2.15808 1.23476,4.61903 0.85383,6.94602 0.1148,0.17131 -1.04117,2.02196 -0.79963,1.10638 z m -105.20898,0.0447 c -0.7466,-0.21055 -0.78348,-2.1809 0.0941,-1.02327 0.82678,0.15849 0.92546,1.52646 -0.0941,1.02327 z m 100.76024,-1.10233 c -0.40428,-1.26998 -0.13529,-2.73913 -0.85439,-3.95163 -0.22051,-1.17092 -1.9321,-2.01684 -2.05766,-2.80202 1.40692,-0.14575 2.44966,1.20766 3.0658,2.31065 0.67003,1.29117 0.80574,2.82657 0.58823,4.24806 -0.0582,0.35055 -0.51204,0.47784 -0.74198,0.19494 z m -2.12184,-0.0509 c -0.75358,-0.98055 -0.81044,-2.30264 -1.67679,-3.15769 -0.4918,-0.83124 -1.87665,-1.40619 -2.08423,-2.12745 1.33129,0.25855 2.65232,0.9881 3.33232,2.21098 0.39412,0.86714 1.8324,2.4764 0.87289,3.2114 -0.15756,0.0265 -0.33428,-0.0144 -0.44419,-0.13724 z m -76.52215,-1.61982 c -1.99383,-0.26586 -4.09636,-0.26067 -5.92418,-1.21229 -1.86594,-0.4975 0.74547,-1.10922 1.50742,-0.68239 1.72205,0.0319 3.36503,0.85788 5.08834,0.70817 1.11398,-0.50572 2.25507,-0.94203 3.46658,-1.17136 1.14577,-0.0723 2.15811,-1.78551 2.80522,-0.0388 1.03588,-0.10027 2.09366,0.74691 2.63403,1.21109 -1.20013,0.82298 -2.49403,-0.41758 -3.68706,0.11904 -0.86414,1.06869 -2.33228,0.11556 -3.37643,0.79871 -0.78438,0.37017 -1.66929,0.43078 -2.51392,0.26791 z m 13.93011,-4.57671 c -0.56202,-0.94797 -0.009,-3.32198 1.39856,-2.74097 0.4913,0.47993 -0.92008,0.98792 -0.63377,1.72031 0.0354,0.42813 -0.10131,1.60651 -0.76479,1.02066 z m -30.00222,0.14111 c -0.46907,-0.8019 0.99638,-1.47445 0.48645,-0.29421 -0.0367,0.14665 -0.32913,0.66097 -0.48645,0.29421 z m 56.39364,-2.38361 c -0.69756,-0.0166 -0.85031,-0.33264 -0.99886,-0.89948 -0.67025,-0.0556 -0.82633,1.15166 -0.92819,-0.0287 -0.0379,-0.74332 -0.81079,-1.16127 -1.04565,-0.24285 -0.40069,-0.52261 0.34745,-2.69047 -0.81567,-1.60278 -0.34024,0.0455 0.20721,-1.17767 -0.0238,-1.54935 1.28409,0.22128 1.56326,1.84528 2.48969,2.60581 0.22329,0.78367 1.52641,1.41114 1.57572,1.81714 l -0.25322,-0.0998 h -2e-5 z m 30.04796,-0.28544 c -1.16605,-0.16282 -2.35866,-0.416 -3.21847,-1.30803 -0.89355,-0.65992 -1.88763,-1.63983 -2.09755,-2.67054 1.13265,0.42346 1.99879,1.31546 2.84598,2.12845 0.79228,0.63746 2.94712,0.96044 2.83182,1.95944 l -0.15366,-0.041 -0.20812,-0.0684 z m -6.2199,-1.56696 c -1.54955,0.0868 -2.5584,-1.44406 -3.22262,-2.64111 -0.71588,-1.41205 1.0358,-1.04819 1.40074,-0.138 0.7244,1.02573 2.47694,0.56811 2.65959,2.13771 1.02986,1.09129 -0.10214,0.57772 -0.83771,0.6414 z m 14.64359,-0.31285 c -1.02579,-0.84076 -2.59648,-0.28833 -3.57286,-1.25886 -0.68257,-0.24825 -1.20235,-2.10459 -0.10567,-1.11893 1.10869,0.77848 2.5848,0.73237 3.6786,1.45074 0.41904,0.22825 1.03066,1.82524 -6e-4,0.92704 z m -55.16075,-0.98523 c -0.75607,-0.0731 -1.04082,-1.2089 -0.016,-0.75586 0.64033,-0.16422 2.47847,0.74302 0.94055,0.84389 -0.30978,0.004 -0.62276,-0.0141 -0.92461,-0.088 z m 11.64899,-0.76618 c -0.42964,-0.50686 -1.48369,-2.19863 -0.62325,-2.34534 0.27819,0.64603 1.69977,2.27833 0.70935,2.50924 l -0.0861,-0.16385 z m -9.41293,-0.27155 c -1.76589,-0.76397 1.48589,-1.01154 0.7568,0.04 -0.24673,0.0804 -0.51312,0.0181 -0.7568,-0.04 z m 1.80333,-0.44874 c -1.42768,-1.62476 1.94223,0.16138 0,0 z m 35.95862,-4.87462 c -1.37488,-0.72851 -2.96453,-1.78497 -3.10087,-3.48685 -0.22267,-1.6713 0.98141,0.69998 1.41742,1.01023 0.42305,1.02912 2.45225,1.2441 2.29693,2.31934 -0.14951,0.19366 -0.38329,0.30322 -0.61348,0.15728 z m -6.67507,-3.6217 c -0.652,-1.169 -1.07124,-2.49975 -1.28271,-3.82015 0.0603,-2.05539 0.10072,-4.43307 1.70347,-5.95053 0.21169,1.09604 -0.69039,2.34849 -0.66133,3.55735 -0.30498,1.68446 0.0798,3.38016 0.7569,4.92703 0.39727,0.57845 0.67303,1.76166 -0.51633,1.2863 z m 1.79891,-0.31141 c -0.66821,-1.39982 -1.15651,-2.99011 -0.74618,-4.54534 -10e-4,-0.64155 0.91056,-2.07768 0.61507,-0.56913 -0.11167,1.57287 -0.25449,3.21857 0.36916,4.71026 0.0957,0.18893 0.13844,0.85151 -0.23805,0.40421 z m -42.4676,-2.80353 c -0.914,-0.40682 -1.97455,0.0271 -2.94803,-0.43108 -1.65508,-0.18421 0.98528,-1.19862 1.19058,-1.96268 0.25639,-0.55504 0.98008,-2.04221 1.08863,-0.59597 0.21195,0.89907 -1.19361,1.745 -0.97781,2.27818 0.77273,-0.90316 1.85042,-0.20598 2.63913,-0.99076 0.56181,0.62751 -0.0443,1.98922 -0.9925,1.70231 z m -5.78458,-0.88062 c -1.10018,-0.4114 1.30879,-0.5085 1.50467,-1.09848 0.88803,-0.30743 1.27619,-1.45352 1.99649,-1.73498 -0.0723,1.14373 -0.85303,2.35767 -1.98576,2.74686 -0.47859,0.1753 -1.02357,0.26006 -1.5154,0.0866 z m 19.22345,-8.96386 c -0.35451,-0.15708 -1.57624,-0.37412 -0.48051,-0.56837 0.35056,-0.21464 1.31692,1.17122 0.48051,0.56837 z m -27.41667,84.87268 c 1.52822,-0.21365 3.10652,-0.0721 4.60688,-0.43455 1.22586,-0.67088 1.24875,-2.23905 1.72434,-3.3994 0.55496,-1.271 0.67198,-2.63511 -0.29915,-3.73459 -0.40209,-1.44257 2.81652,-1.15991 1.6984,-2.70814 -0.47702,-0.47498 -1.94831,-1.84614 -0.35704,-1.6223 1.41476,-0.0121 1.89172,1.5666 2.52174,2.55446 0.64335,0.84405 1.68851,2.35317 2.84366,1.3562 1.19139,-0.0497 2.42503,0.25554 3.615,-0.092 1.26935,0.38609 2.54531,-0.34321 3.83237,0.12642 1.19752,0.48697 2.2311,-0.62656 3.37644,-0.0943 0.80636,0.15218 1.65592,-0.13231 2.44677,0.004 1.08559,0.43533 2.33099,1.18296 3.4623,0.47005 0.53209,-0.62034 1.31705,-1.20929 1.56098,-1.99548 0.0322,-1.44167 -0.0813,-2.89491 0.0897,-4.32731 0.42173,-1.19918 1.45515,-2.07245 1.69471,-3.358 0.68507,-1.57925 -0.41849,-3.34366 0.43533,-4.88361 0.46117,-1.02957 2.0088,-2.26734 1.11142,-3.42017 -0.55508,-1.19476 -1.68765,-1.91099 -2.20726,-3.06991 -0.68,-1.0659 -2.10924,-1.53134 -3.21349,-1.88217 -1.21233,0.48484 -2.27252,1.39965 -3.63146,1.49356 -1.03938,0.53002 -2.13299,-0.81906 -2.88678,-0.3668 -0.86284,2.25571 -0.71877,4.73417 -0.69414,7.10831 -10e-4,1.96739 0.47347,3.95941 0.0951,5.90917 -0.42198,1.18818 -1.64133,1.98709 -2.91056,1.76335 -2.60257,0.10493 -5.18244,-0.34416 -7.69203,-0.9971 -2.2222,-0.33752 -4.57384,-0.56644 -6.7544,0.1031 -2.28378,0.99666 -3.2143,3.59495 -5.21279,4.97173 -1.13499,0.83286 -2.75098,1.74807 -2.66708,3.36787 0.0344,1.62792 0.11387,3.26718 -0.23584,4.87064 -0.29075,1.1272 -0.12495,2.70103 1.42421,2.40076 0.7425,0.0183 1.48441,-0.0433 2.22268,-0.11388 z m 2.48627,-1.48633 c -0.8652,-0.88921 1.21527,-1.22783 0.48212,-0.0729 -0.1026,0.15504 -0.33832,0.19424 -0.48212,0.0729 z m 0.44906,-2.81619 c -0.33327,-0.78336 1.15087,-1.57909 -0.0269,-2.21497 0.79742,-0.4714 2.14123,1.55361 0.95071,2.30212 -0.26619,0.14806 -0.73275,0.22161 -0.92379,-0.0872 z m -2.32389,-0.38508 c -0.85208,0.14212 -2.2746,-0.36368 -1.32523,-1.3388 0.75182,-1.04231 3.7781,-0.85731 2.64921,0.90655 -0.26756,0.43522 -0.86388,0.504 -1.32398,0.43225 z m 25.22441,-4.76601 c -1.12394,-0.0308 -0.78342,-1.16809 0.21011,-0.87446 0.94537,-0.0609 0.45854,-1.78815 1.72709,-1.35616 0.72304,-0.15695 2.40693,-0.51378 2.09392,0.77309 -1.27759,0.59075 -2.54092,1.65544 -4.03112,1.45753 z m -12.58846,-0.53094 c -1.05918,-0.0141 -1.01203,-1.33245 0.0699,-0.8291 1.22868,0.10771 2.91852,-0.89498 3.82174,0.26463 -0.71442,0.61846 -2.21756,0.28766 -3.21343,0.60664 -0.22625,0.002 -0.45553,0.004 -0.67822,-0.0422 z m 16.54057,-6.57376 c -0.43902,-0.673 1.11965,0.49761 0,4e-5 z m 0.92052,-0.74326 c -0.44565,-0.10722 -2.33244,-1.6447 -0.99993,-1.00072 0.45908,0.17912 2.60156,0.64002 1.66275,1.08975 -0.22296,-0.007 -0.44653,-0.0337 -0.66282,-0.0891 z m -3.89287,-0.74337 c -0.035,-0.73295 -0.23066,-1.78019 -0.26374,-2.29819 1.65164,-0.25956 1.8241,2.84963 0.2638,2.29819 z m 0.83032,-2.94092 c -0.75842,-0.24474 -1.22565,-0.68579 -0.62771,-1.42171 -0.13827,-1.38109 0.68962,0.0909 1.31339,0.29516 1.2647,0.50574 0.37954,2.15311 -0.68568,1.12655 z m -3.03724,-0.62194 c -1.33421,-0.89326 1.75702,-0.0196 0,0 z m 4.56305,-1.39326 c -0.61338,-0.52377 -1.67358,-1.76907 -1.40813,-2.38813 1.21511,0.0921 2.5282,1.20437 2.25934,2.4284 -0.25297,0.1856 -0.60495,0.1143 -0.85121,-0.0403 z m 2.86557,-0.37247 c -1.46458,-0.47476 -2.28111,-1.68243 -3.1971,-2.81212 -1.12911,-0.56326 -0.33124,-1.84872 0.64447,-1.05865 1.10743,0.74631 1.8578,1.86505 2.20072,3.12675 0.32691,0.1638 1.25087,1.4438 0.35191,0.74402 z m -7.46859,0.16275 c -0.50508,-0.81848 1.2492,0.17776 0,0 z m 8.06993,-1.04399 c -0.9118,-0.89945 -1.28901,-2.12022 -1.95559,-3.17485 -0.28672,-0.45183 -2.06601,-0.71689 -1.12292,-1.32956 1.48947,-0.0935 2.39804,1.30839 2.87369,2.53317 0.29476,0.32954 1.08369,2.39158 0.20482,1.97124 z m -8.5283,-0.0421 c -0.33064,-0.98026 1.70364,0.34656 0.22277,0.0903 l -0.22273,-0.09 z m 0.14931,-3.62635 c -1.4691,-0.55173 0.99979,-1.06724 0.927,-0.15166 -0.27246,0.20229 -0.60767,0.23212 -0.927,0.15166 z m -30.89741,-34.47171 c 0.63794,-1.05397 0.78815,-2.32763 1.1558,-3.48766 -0.42313,-1.08321 -2.07349,-1.97966 -1.16472,-3.2954 0.38313,-0.97861 -0.59076,-0.70577 -0.43687,0.10999 0.0296,0.77532 -0.70021,1.52569 -0.94982,0.42628 -0.29304,0.44107 -0.96909,1.41514 -0.45389,0.27147 0.92686,-0.93316 -0.42116,-2.90169 1.18549,-3.18761 0.25706,0.88488 0.94272,1.79215 1.62514,2.45028 -0.26868,1.43346 1.50656,1.07921 1.49811,-0.18087 0.66312,-1.59812 2.19511,-2.61303 2.92633,-4.1578 -0.0965,-1.62858 -1.62213,-2.56622 -2.60445,-3.68218 -1.35024,-1.38779 -2.83716,-2.63277 -4.43379,-3.72308 -1.56355,-1.45332 -1.72577,-3.72393 -2.53806,-5.59301 -0.17311,-1.61006 -1.90227,-1.2919 -3.06853,-1.27285 -1.1683,-0.0194 -2.41613,0.0305 -3.34349,0.84458 -1.72306,1.11291 -3.17383,2.59462 -4.9169,3.68532 -1.09255,0.75649 -1.94315,1.90281 -3.33774,2.10036 -1.80248,0.7931 -3.82621,0.58993 -5.68417,1.13254 -1.37955,0.42908 -2.01465,1.7931 -2.2215,3.11326 -0.31624,1.52079 -1.56129,2.55512 -2.84647,3.28196 -1.31557,0.96186 0.46501,1.47941 1.32204,1.07253 0.41658,1.10209 -2.07097,1.64745 -1.30817,3.11649 0.2066,1.52348 0.11396,3.08056 -0.38933,4.53894 -0.44208,0.77233 -0.26732,2.19092 0.87616,1.46575 1.57785,-0.65797 3.15024,-1.44509 4.4897,-2.48538 1.09319,-0.61249 2.68183,-1.06842 3.00213,-2.4357 -0.10675,-1.37033 0.64377,-2.48948 1.3309,-3.58914 0.77676,-0.41607 1.43274,-1.01346 0.71694,-1.90264 -0.52804,-1.25048 -0.19705,-2.74107 0.85033,-3.62033 1.03263,-0.78815 0.0664,1.31746 0.1293,1.82515 0.0496,1.47105 1.26356,2.53583 1.92365,3.76506 0.89668,0.72882 0.47807,2.16812 1.04466,2.86336 1.24105,-0.64512 1.71299,-2.24608 1.32374,-3.54719 -0.3382,-1.08604 -1.18499,-2.49963 -0.48638,-3.51877 0.13104,1.24237 0.86923,2.19142 1.77646,3.00487 1.60034,-0.33369 0.75698,-2.49484 0.66585,-3.6456 -0.14071,-1.33755 -0.0952,-3.17559 1.33772,-3.80331 0.68642,0.18988 -0.1718,1.32103 -0.21533,1.93385 -0.12101,0.81466 0.29921,1.65995 0.13346,2.49424 -0.28957,0.62789 0.26903,1.68402 0.53608,0.4867 0.28878,-1.39438 -0.38488,-3.1071 0.71963,-4.24464 0.8935,-1.08379 2.56784,-0.80093 2.21081,0.8377 -0.21796,0.3693 0.074,1.51886 -0.52861,1.38135 -1.16087,-0.0421 -1.06382,1.66432 -0.24684,2.11363 -0.25627,0.48268 -1.00749,1.919 0.35105,2.01447 0.67807,0.4264 2.6148,-1.42216 2.01404,0.0842 -0.68195,1.47144 -0.74776,3.32345 0.23249,4.68068 1.39513,2.08438 3.34274,3.72754 4.7435,5.81226 0.25029,0.23334 0.67707,0.89828 1.05355,0.46591 z m -0.88318,-3.59937 c -0.31832,-1.30972 0.8478,0.23987 0,0 z m -23.02909,-3.9454 c -1.69482,0.0484 -0.65163,-2.10402 0.55692,-1.76114 0.495,-0.7883 1.31377,-0.86967 0.97535,0.30807 -0.14627,0.66648 -0.75898,1.54088 -1.53227,1.45307 z m -3.79313,-0.44834 c -0.9409,-1.27931 1.24387,-1.57822 2.1341,-1.51092 0.80213,1.00611 -1.37199,1.17179 -1.92874,1.58705 l -0.20538,-0.0761 z m 25.07181,-1.15895 c -0.92394,-0.5986 0.11652,-2.25582 0.61003,-0.81944 0.3487,0.42811 -0.0183,1.35756 -0.61003,0.81944 z m -0.61091,-2.16608 c -0.29706,-0.58031 0.29766,-1.52471 0.1659,-0.44599 -0.007,0.10687 0.20652,0.79977 -0.1659,0.44599 z m -17.80553,-4.73489 c 0.8452,-0.73792 2.06932,-1.29422 3.15271,-1.75456 1.32108,-0.70076 2.52022,-1.60749 3.89061,-2.20945 0.38802,-0.49733 1.58995,-1.04863 0.72074,-0.0517 -0.64261,1.14011 -2.46942,0.43252 -2.93168,1.93205 -0.68497,0.99196 -2.21562,0.62809 -2.96776,1.56407 -0.52458,0.2574 -1.31171,0.52986 -1.86462,0.51958 z m 15.95979,-7.54578 c -0.57183,-0.15346 -2.29267,0.35564 -1.05723,-0.52543 0.49669,-0.99178 2.56511,0.83966 1.05723,0.52543 z m 40.04501,21.75877 c -0.85385,-1.12109 -0.88459,-2.81127 0.27346,-3.79042 0.90614,-0.94986 2.3346,-1.18688 3.54567,-0.73385 1.37993,0.51486 3.17722,0.49527 4.14281,-0.78426 0.81625,-0.82707 1.12005,-2.50937 2.07459,-2.9163 0.4599,0.54411 0.82009,2.68554 1.64646,2.10287 0.48976,-1.09173 0.4408,-2.34622 0.11069,-3.47103 0.15568,-1.14539 0.57209,-2.26392 0.77415,-3.41602 0.33919,-1.37368 1.04557,-2.66291 1.02802,-4.10816 -0.0735,-0.8789 0.8657,-1.69216 1.1704,-0.43761 0.11111,0.67648 1.37452,1.93133 1.68571,1.09126 -1.02061,-1.21329 -0.80414,-2.8941 -0.39778,-4.30649 0.38969,-1.63097 1.5756,-3.0278 1.60479,-4.74137 -0.14453,-1.15964 -0.68081,-2.367 -0.57908,-3.49391 0.84645,-0.25398 1.95844,-0.79859 0.9525,-1.67678 -1.28968,-2.0843 -0.8482,-4.61019 -0.9239,-6.93085 0.13414,-1.46097 -0.83593,-2.78234 -2.09068,-3.43479 -1.21615,-1.0079 2.65213,-0.25107 1.28267,-1.62355 -1.01753,-0.70874 -2.05629,-1.37629 -2.41865,-2.59355 -1.00799,-0.61679 -2.28613,-0.99476 -3.01065,-1.95014 1.05728,-0.21834 2.20213,2.1e-4 3.29207,-0.0294 0.91081,0.32526 1.93698,-0.35468 1.07876,-1.25342 -1.20093,-1.19442 -3.07655,-1.10257 -4.50494,-1.90896 -1.20652,-0.49332 -2.04499,-1.52375 -2.58528,-2.67694 -0.66828,-1.60497 -2.26153,-2.68958 -3.98608,-2.79195 -0.9549,0.0825 -2.90678,-0.50802 -0.98829,-1.05604 1.2707,-1.3582 -1.34259,-1.68428 -2.24651,-1.20838 -1.62908,0.26002 -3.31361,0.81285 -4.96295,0.44171 -1.40526,-1.11676 -1.02965,1.57031 -2.06142,1.95306 -0.6439,0.79478 -2.0175,-0.009 -0.95461,-0.76072 0.4463,-1.21156 -0.0321,-2.60401 -0.68494,-3.6605 -0.86428,-1.16963 -2.16911,-2.09145 -3.60402,-2.36235 -0.14042,0.32802 0.75738,0.73787 -0.26514,0.7021 -0.80734,0.81797 -0.86744,2.25368 -0.97629,3.37945 0.0926,1.29996 0.8133,2.4469 1.85831,3.20302 0.72112,0.27283 0.87686,0.76621 -0.0912,0.72903 -1.34188,-0.0296 -1.91888,-2.03959 -2.7822,-2.14382 -0.30524,0.65997 1.31812,2.34318 -0.14746,1.72777 -0.50849,-0.11843 -1.00082,-0.69346 -1.5019,-0.62294 -1.57641,0.49211 0.17762,1.56117 0.93713,1.91413 1.63855,0.90859 3.39172,2.1399 5.36104,1.86838 0.96814,-0.0115 1.52525,-1.82064 2.37637,-0.91437 0.16694,-0.54842 -0.39867,-1.81472 0.57683,-0.92791 0.88056,0.71953 0.62095,2.3123 -0.45318,2.66872 -1.13022,-1.12911 -2.14415,0.53919 -2.67205,1.52583 -0.59587,1.41605 -0.7294,3.03281 -0.44203,4.53596 0.48582,0.92809 1.34423,-0.97893 2.14673,-0.96037 1.1745,-0.70061 2.76644,-1.04762 3.3988,-2.38003 1.16934,-0.97112 1.65546,1.58117 1.6712,2.43819 0.22654,1.25784 -0.52632,2.80015 0.17767,3.88174 1.02526,-0.55203 1.96797,-1.30505 2.99181,-1.89312 1.30281,-0.77187 2.61753,-2.3429 2.04913,-3.9429 -0.27469,-0.47527 -1.14847,-1.35278 0.071,-1.05585 1.34966,0.31732 1.97292,1.66773 2.12901,2.92848 0.3612,1.50809 0.45764,3.24261 -0.59553,4.51401 -0.74226,0.96899 -1.66643,2.06872 -1.23615,3.38105 0.5509,1.33189 0.011,2.84528 -1.22863,3.56764 -2.01104,1.37257 -4.72329,1.39726 -6.49412,3.1854 -1.66893,1.30309 -2.37821,3.57706 -1.88849,5.6184 0.44471,1.48337 -1.00733,2.43013 -2.02341,3.17886 -1.2695,0.85714 -2.37631,2.10457 -2.5279,3.69093 -0.26402,0.98667 1.21358,2.70791 1.92761,1.60552 -1.5135,-0.33149 -1.88444,-2.48395 -0.43926,-3.27315 1.29794,-0.93298 2.99719,-0.40625 4.45787,-0.75272 1.64492,-0.69884 1.23349,-3.12557 2.86989,-3.80708 1.42673,-0.86045 3.17434,-0.39586 4.66298,-0.99718 1.14571,-0.4728 1.48775,-2.15431 2.90605,-2.02542 1.28608,-0.15694 2.75111,-0.78339 3.26701,-2.05745 0.86391,-1.25356 -0.10903,-2.58509 0.24959,-3.8216 -0.16814,-0.92862 0.63244,-1.10657 0.82321,-0.18276 0.72324,2.25993 -0.16557,4.65544 -1.14395,6.69526 -0.84697,1.458 -1.95303,2.93527 -3.63441,3.45989 -1.4224,0.47158 -2.52737,1.91122 -2.43693,3.43241 -0.0132,1.35277 -0.95675,2.36093 -1.93636,3.16238 -0.8087,1.27586 -2.28919,1.34756 -3.64538,1.29032 -1.7228,0.004 -3.46625,1.17868 -3.72017,2.95736 -0.4081,1.16763 1.51823,2.45602 -0.26173,3.14562 -0.94174,0.42412 -1.66158,2.77428 -0.0239,2.34951 1.40212,-0.20941 0.93872,-2.24926 1.99987,-2.52019 1.62146,0.71981 1.72599,-2.0164 3.31928,-1.55935 1.06188,0.27678 2.2016,0.22766 3.27812,0.16056 0.77242,-0.40283 1.61115,-0.69332 2.1614,-1.41462 0.78723,-0.85765 1.24902,-1.96777 2.15258,-2.73628 0.57343,-0.55038 1.88312,-2.0365 2.43733,-1.02229 -0.92361,0.74849 -1.64728,1.82259 -1.62978,3.06718 -0.1231,1.46182 -0.59835,2.96546 -1.80146,3.90045 -1.84209,1.79517 -4.57492,2.79624 -5.60533,5.31825 -0.42788,1.20596 -0.98225,2.61148 -0.31146,3.83768 0.17794,0.22813 0.68576,0.93567 0.99484,0.51881 z m 1.64067,-5.4976 c 0.11697,-1.27749 2.3757,-1.45414 3.50134,-1.67179 1.58312,0.35206 2.116,-1.20088 2.23536,-2.44198 0.21741,-0.71216 1.30764,-1.53539 0.93594,-0.16895 -0.11462,1.16586 -0.0566,2.82884 -1.47021,3.19681 -1.45912,0.18364 -2.97456,0.24921 -4.31625,0.93537 -0.27679,0.0994 -0.58647,0.26843 -0.88618,0.15054 z m -6.85927,-5.37207 c 0.15099,-0.90671 -0.31786,-1.82469 -0.33605,-2.61176 0.14848,-0.45655 0.85572,-1.41682 0.46827,-0.32875 -0.0784,0.98785 1.71972,1.68987 0.3114,2.49278 -0.20724,0.0493 -0.19646,0.62935 -0.44362,0.44773 z m 4.63421,-4.31646 c -0.6159,-0.0229 -1.48094,-0.24107 -0.31817,-0.38215 0.51985,-0.10009 2.26833,-1.62107 1.55628,-0.32898 -0.0966,0.65784 -0.61144,0.97799 -1.23811,0.71113 z m 3.68353,-0.78724 c -0.16251,-0.78412 0.57172,-2.05004 -0.76463,-2.22509 0.26823,-0.7842 1.12372,-1.42639 0.6714,-2.3993 -0.0286,-0.57588 1.61304,-2.16901 0.7491,-0.89893 -0.38418,1.13233 0.41345,2.38419 0.12117,3.5954 1.06125,0.58415 0.092,2.26548 -0.77704,1.92792 z m 8.2966,-3.2427 c -0.2508,-0.95582 0.68362,-2.07931 -0.70012,-2.47284 0.57968,-1.02134 2.34267,-1.49535 2.41811,-2.87782 1.31242,-0.74125 1.16024,1.86896 0.34597,2.45198 -0.90506,0.79845 -0.85455,2.54983 -1.92531,2.96555 l -0.13864,-0.0668 h -1e-5 z m -15.68173,-5.61687 c -1.35539,-0.87291 -1.38001,-2.84321 -0.81842,-4.19279 1.04252,-1.73624 2.9955,-2.66325 4.90654,-3.0974 1.83951,-0.61264 3.52534,-1.9821 4.31269,-3.75573 0.0112,-1.08359 -0.25521,-2.2105 0.0661,-3.25922 0.29883,-0.77763 1.25562,-1.43925 1.89867,-1.61244 -0.21024,0.81015 -0.75397,1.50266 -1.03767,2.27065 -0.0614,1.27265 0.31495,2.74741 -0.68381,3.75257 0.24738,0.91746 1.63202,-1.04275 1.28306,-1.74751 -0.11645,-0.74184 -0.28827,-2.97695 0.92201,-1.81989 0.008,1.1353 0.18264,2.37556 -0.23373,3.47182 -0.49457,1.23243 -1.67962,1.78375 -2.86412,2.16245 -1.43235,0.85322 -3.03667,1.31417 -4.61857,1.79967 -1.24042,0.51494 -2.42335,1.42146 -3.02374,2.63601 -0.34283,1.00927 -0.20993,2.76376 1.24915,2.56291 0.81827,0.45331 -0.89356,1.23365 -1.35825,0.8289 z m 17.66334,-2.38029 c 0.47178,-0.99652 1.29818,-2.48497 0.36868,-3.39118 -0.69285,-0.57704 1.19758,-1.28865 1.45852,-1.9293 0.41968,-0.61099 0.97101,-0.68735 0.60545,0.19902 -0.79404,1.16331 -0.61003,2.50013 -0.73431,3.78022 -0.41922,0.49015 -1.00292,1.3775 -1.69834,1.34124 z m 0.50151,-6.26909 c -1.0813,-0.88802 0.57912,-2.30717 -0.21779,-3.45305 -0.16826,-0.64149 -0.10323,-2.6292 0.81267,-1.43374 0.26157,1.20273 0.8938,2.38116 1.00856,3.6195 -0.16884,0.60113 -0.85605,1.71502 -1.60344,1.26729 z m -1.99424,-8.68894 c -0.54874,-1.01598 1.75017,-0.7091 0.57511,0.0281 -0.17566,0.10044 -0.41205,0.0987 -0.57511,-0.0281 z m -2.06827,-2.29801 c -0.89247,-1.09516 -1.07119,-2.59562 -1.85942,-3.76701 -0.58547,-1.20345 -1.53632,-2.17079 -2.78742,-2.66569 -0.44444,-0.89153 1.59189,-0.17502 1.99549,0.2329 1.07735,0.76447 1.56474,2.06181 2.30136,3.11336 0.48987,1.07277 1.13976,2.36329 1.22898,3.42749 -0.34724,0.0919 -0.65862,-0.0816 -0.87899,-0.34105 z m -11.54453,-5.61681 c -0.0849,-0.65695 0.14177,-2.03729 0.30661,-0.62439 0.24567,0.39156 -0.2186,2.37605 -0.31259,1.72534 0.002,-0.36699 0.004,-0.73397 0.007,-1.10095 z m -1.51979,0.77956 c 0.27602,-0.60097 -0.0902,-2.2781 0.34751,-2.26364 0.8044,0.65439 1.12186,2.76771 -0.36323,2.42334 l 0.0157,-0.1597 z m 7.38864,-2.64702 c -0.50743,-0.86592 -2.09643,-0.91044 -2.23698,-1.88413 1.04712,-0.17759 2.16252,0.89301 2.72849,1.67815 -0.004,0.26151 -0.29193,0.363 -0.49151,0.20598 z m -3.41134,-2.32499 c -0.96728,-0.15291 -0.65557,-1.33651 0.2103,-0.68333 0.58885,0.34982 0.82508,1.3165 -0.2103,0.68333 z m -8.80971,-2.03454 c -0.006,-0.63373 0.18578,-1.71165 0.53587,-2.0616 0.70229,0.33029 -0.28256,3.49504 -0.53587,2.0616 z m -0.94177,-3.43587 c -0.48451,-0.36188 -1.85647,-1.79997 -0.37909,-1.16467 0.47564,-0.0118 1.2604,1.78314 0.37909,1.16467 z m 8.33344,49.95387 c 1.55087,-0.70799 -1.72438,-1.1782 -1.68719,0.006 0.48792,0.32317 1.16361,0.14562 1.68719,-0.006 z M 884.9742,510.67831 c 0.33511,-0.37068 0.85759,-0.6416 0.81964,-1.21086 0.13696,-1.16497 0.62796,-2.24383 0.87421,-3.3756 -0.55037,-1.09248 -0.81943,-2.19468 -0.34313,-3.40941 -0.0723,-1.04866 1.27265,-2.0091 1.24301,-0.44171 -0.15401,1.56418 1.13924,0.20482 0.96523,-0.61905 0.14977,-1.48696 1.69588,-2.22452 2.61039,-3.21299 1.11241,-0.11179 2.61361,0.35115 3.00778,-1.12366 1.00565,-1.7289 0.61012,-3.80747 0.74869,-5.71375 -0.0527,-0.82466 0.18455,-1.66739 0.28314,-2.44658 -0.49672,-0.54968 -0.60555,-2.30176 0.34642,-1.08679 1.47862,0.85296 2.09453,-1.1 1.7745,-2.2546 -0.12751,-1.90496 -1.93448,0.25174 -2.83457,0.38665 -1.04983,0.24937 -2.53802,1.35206 -1.16051,2.30753 1.76794,0.61262 0.78971,2.82759 -0.73923,2.95024 -0.75694,1.62664 -3.05601,-0.17201 -1.49512,-1.16281 1.40326,-0.55687 -0.64024,-1.90692 -0.66401,-2.95597 -0.48473,-1.79561 -0.22668,-3.71327 0.26449,-5.47819 -0.68837,-0.78315 -2.25135,0.57085 -3.31553,0.39936 -1.72934,0.22076 -3.42485,-0.58318 -5.13884,-0.22421 -0.83138,0.47975 -0.39027,2.07964 -0.48319,3.00213 0.62614,1.82359 2.10483,0.11162 3.04524,-0.33005 1.36936,0.51351 -0.0133,2.8947 -1.37903,2.41421 -0.79554,0.32123 -0.88742,1.75268 -2.08096,1.75549 -0.24163,0.79969 -2.20923,1.21842 -1.31128,0.0265 0.071,-0.52856 -0.47675,-1.71144 0.5765,-1.0813 1.30272,0.48451 1.27386,-1.4948 0.39615,-1.99475 -0.58568,-0.8058 -0.13997,-2.00473 -0.32563,-2.72125 -1.27913,0.79061 -1.81008,2.32677 -2.48415,3.60623 -1.70934,3.76856 -2.01706,8.07825 -4.21983,11.63612 -0.66156,1.21146 -1.76448,2.09896 -2.44219,3.28922 -0.69644,1.20589 -0.21504,2.6625 0.73951,3.56858 1.08403,1.02937 1.15801,2.98798 2.73482,3.49136 1.48099,0.44046 1.93158,-1.49702 2.94282,-2.13252 1.11804,-0.52957 2.13872,-1.25507 3.31322,-1.68417 1.22349,-0.0244 2.4344,-0.52626 3.64598,-0.40554 1.24728,0.37578 0.26947,3.10012 -0.86565,2.72962 -0.12647,-1.64248 -2.11817,-0.17559 -1.85958,0.87641 0.12905,1.00223 -1.8288,2.54802 -0.16344,2.8637 1.11422,0.13678 2.15041,1.01707 2.97413,-0.23763 z m -9.96919,-5.78775 c -0.26985,-1.01629 -0.63981,-2.2474 -2.02969,-1.84893 -1.02446,0.36815 -1.97936,-1.45938 -0.43482,-0.98404 1.31737,0.31461 2.47871,-0.88372 3.80597,-0.41282 1.18074,0.10019 -0.70276,-1.86282 0.88319,-1.37522 0.67978,0.58651 1.18793,0.30276 1.37784,-0.48751 1.28109,-0.0476 0.70527,2.25253 -0.40971,2.11807 -0.12033,1.06765 -0.96988,1.06628 -1.82212,0.73689 -1.52485,-0.0597 0.46175,2.99069 -1.37066,2.25356 z m 12.17434,-6.83436 c -1.50167,-0.40193 -0.55649,-2.10016 -0.90433,-3.15893 -0.46185,-0.57019 -0.35529,-2.61074 0.24714,-1.08107 0.3909,1.23443 0.79241,2.44193 1.62213,3.45909 0.38511,0.83828 -0.17289,1.43835 -0.96494,0.78091 z m -3.01726,0.11969 c 0.15651,-1.30926 0.62612,-2.69562 0.7401,-4.06355 0.0636,-0.91838 0.0973,-2.51464 -0.78445,-2.10702 0.44471,-0.25084 0.6892,-0.83312 0.89125,-1.07426 0.89235,1.15281 -0.32151,2.61797 0.41325,3.89052 0.3853,1.04336 0.24934,2.30557 -0.44021,3.18915 -0.20694,0.17135 -0.56779,0.36128 -0.81994,0.16516 z m -0.32273,-1.82843 c 0.007,-0.45211 0.37298,-2.92355 0.56037,-1.4074 0.15802,0.13503 -0.49741,2.36575 -0.56037,1.4074 z m -5.4664,-4.86252 c 0.31069,-1.07865 0.94919,0.30278 0.0298,0.17857 l -0.0298,-0.17854 -1e-5,-3e-5 z m 0.81935,-0.98883 c -0.92607,-1.15106 0.97512,-0.25624 0.37595,0.2026 l -0.17454,-0.0571 -0.20141,-0.14544 v 10e-6 z m 1.54469,-3.31945 c -0.0168,-1.0735 0.72132,0.68737 0,0 z m -12.88544,1.34051 c 1.26299,-0.89751 2.52109,-2.22727 2.33184,-3.90435 0.17874,-0.95545 -1.27803,-2.32102 -1.92434,-1.41252 0.62005,1.29799 -1.0833,2.31249 -2.1397,1.57544 -1.41847,-0.82607 -1.24771,-2.83343 -0.45528,-4.04806 0.52563,-1.072 1.26703,-2.29151 2.5924,-2.39027 1.8639,-0.32632 3.68263,0.44031 5.54779,0.24946 1.54811,-0.0597 3.07573,0.46583 4.3527,1.32273 0.95339,0.62753 2.77548,0.0435 3.40786,0.64182 -2.02111,0.68597 -4.34686,0.35294 -6.1371,-0.80029 -0.42786,-0.50883 -2.09225,-0.44328 -0.91244,0.19444 1.54044,0.8883 3.14422,1.98536 5.01282,1.84405 1.49716,-0.0973 2.98007,-0.42726 4.49157,-0.39534 1.6208,-0.0672 3.35486,0.23146 4.87159,-0.47471 -0.10859,-1.04761 -2.01008,-1.28653 -2.80371,-1.98505 -1.55994,-1.05432 -3.22422,-1.97123 -4.95477,-2.69572 -0.78869,0.27919 1.01331,1.00619 1.31249,1.317 0.53502,0.0992 1.98168,1.65645 0.64715,0.93166 -1.16934,-0.54327 -2.41191,-0.99951 -3.29804,-1.99382 -1.1003,-0.87469 -2.15883,-1.84789 -3.54461,-2.25115 -1.50494,-0.51035 -3.13059,-0.69191 -4.71247,-0.65002 -1.45777,0.1191 -2.31414,1.40276 -3.43054,2.15384 -1.16952,0.35942 -2.58161,0.21933 -3.36241,1.3826 -0.69164,0.88513 -1.48092,1.66578 -2.38194,2.33733 -1.08985,1.33272 -1.31055,3.14905 -1.47328,4.80994 -0.10353,1.59642 0.7238,3.25082 2.10662,4.06405 0.23279,-0.93293 -0.66255,-2.21698 -0.35987,-3.35445 -10e-4,-1.37459 0.0184,-3.04476 1.32336,-3.87018 0.84263,-0.60147 -0.40195,1.01837 -0.3802,1.4416 -0.64675,1.76437 -0.2916,3.90915 0.91306,5.35032 0.80434,0.93209 2.29963,1.25768 3.35945,0.60941 z m 49.22865,-0.82968 c -0.81748,-0.80412 -0.50108,0.47903 0,0 z m -19.47982,-14.95281 c 1.15796,-0.66683 -0.48379,-3.14505 -1.40781,-2.32561 -0.73278,1.06692 -0.40354,3.09677 1.27057,2.37847 l 0.13724,-0.0529 z"
       style="fill:#000000;fill-opacity:1;stroke:none;stroke-width:0.0856105;stroke-opacity:1"
       id="path9380" /></g></svg>
